<svg xmlns="http://www.w3.org/2000/svg" width="24" height="24" fill="none" viewBox="0 0 24 24">
  <g clip-path="url(#a)">
    <path fill="#0C2E86" d="M22.98 5.801c-3.336-1.4-7.34-2.11-10.98-2.11-3.641 0-7.646.71-10.982 2.11-.217.108-.322.204-.322.45v11.3c0 .246.105.342.322.45 3.336 1.4 7.34 2.11 10.982 2.11 3.642 0 7.644-.71 10.98-2.11.218-.108.323-.204.323-.45V6.25c0-.247-.105-.343-.322-.45Zm-3.294.18a.657.657 0 0 1 .823-.507c.094.024.181.07.255.132l.004.004-.071.2-.01-.012a.442.442 0 0 0-.219-.139.433.433 0 0 0-.336.038.607.607 0 0 0-.211.769.427.427 0 0 0 .258.202.55.55 0 0 0 .27.008l.015-.005-.045.206-.006.001a.687.687 0 0 1-.286-.028c-.385-.106-.558-.447-.44-.869ZM18.09 4.926l.002-.009.19.038-.274 1.355-.19-.038.272-1.346Zm-2.244-.36v-.009l.193.026-.156 1.181.509.067-.025.189-.701-.093.18-1.361Zm-2.856.458c0-.204.082-.4.227-.544a.552.552 0 0 1 .409-.138c.358.018.584.318.562.744 0 .205-.08.401-.224.547a.597.597 0 0 1-.808-.042.777.777 0 0 1-.166-.567Zm-2.38-.674.019.57.569-.019-.019-.57.185-.006h.01l.045 1.38-.194.007-.02-.62-.57.018.021.62-.194.007-.045-1.38.193-.007Zm-.37 1.909c.62-.037 1.216-.055 1.763-.055 2.619 0 6.34.42 8.637 1.234h-10.4v-1.18Zm0 1.809h10.938l.003.074v.312h-9.743v2.664h4.484v.387h-5.681V8.068Zm1.827 2.42v-.386h9.114v.386h-9.114Zm9.114.63v.387h-4.629v-.387h4.629Zm-9.114-1.647v-.387h9.114v.387h-9.114Zm3.855 2.664v2.42H8.158v-.386h6.417v-1.647H8.158v-5.09H3.382c1.656-.583 4.045-.964 6.23-1.13v5.833h6.31ZM8.846 4.47h.01l.02.188s-.362.04-.379.043l.134 1.184-.193.022-.133-1.184-.38.043-.021-.189.942-.107Zm-2.922.43.187-.037.006-.001.776 1.258-.207.04-.187-.315-.579.111-.058.362-.2.038.262-1.456Zm-2.614.794a.634.634 0 0 1 .393-.3.626.626 0 0 1 .285-.018l.006.001.042.207-.014-.004a.445.445 0 0 0-.26-.005.433.433 0 0 0-.268.206.554.554 0 0 0-.034.424.476.476 0 0 0 .578.383.549.549 0 0 0 .235-.134l.01-.012.069.2-.005.004a.68.68 0 0 1-.26.125.63.63 0 0 1-.488-.047.747.747 0 0 1-.338-.469.734.734 0 0 1 .05-.56Zm-.483 2.448.003-.08h4.697v4.46h-4.7v-4.38Zm0 5.01h11.118v.386H7.527v1.648h9.025v-3.05h4.63v3.222a.82.82 0 0 1-.109.444.676.676 0 0 1-.243.19c-1.147.43-2.688.757-4.278.976v-1.396H2.846a1.384 1.384 0 0 1-.02-.214v-2.207Zm13.095 3.05v.846a34.2 34.2 0 0 1-3.918.247c-2.462 0-5.89-.373-8.207-1.093h12.125Zm-13.175 1.79a.446.446 0 0 1-.274-.224.645.645 0 0 1 .008-.497l.26-.756.003-.009.182.063-.254.74a.506.506 0 0 0-.022.377.296.296 0 0 0 .36.124.506.506 0 0 0 .214-.311l.254-.74.182.063-.262.765c-.124.364-.355.508-.651.406Zm1.534.456-.216-1.208-.307 1.056-.186-.054.382-1.319.003-.008.244.07.209 1.182.3-1.033.186.054-.385 1.327-.23-.067Zm.803.212-.188-.047.337-1.331.002-.009.188.048-.34 1.339Zm.688.163-.162-1.438v-.012l.21.046.114 1.23.626-1.068.199.043-.76 1.248-.227-.05Zm1.836-.859-.504-.088c-.003.016-.063.359-.067.375l.46.08-.033.188-.459-.081-.075.425.504.088-.033.187-.694-.121.238-1.353.001-.008.695.122-.033.186Zm1.038.338a.314.314 0 0 1-.285.278c.048.036.08.089.09.148l.161.583-.218-.03-.125-.5c-.034-.133-.085-.14-.178-.152l-.096-.013-.082.6-.192-.027.186-1.36v-.009l.307.042a.552.552 0 0 1 .376.162.32.32 0 0 1 .06.2c0 .026 0 .052-.004.078Zm.639.248a.466.466 0 0 1 .277.462c-.027.263-.208.397-.497.368a.746.746 0 0 1-.247-.082l-.006-.003.039-.198.01.007a.688.688 0 0 0 .244.09.257.257 0 0 0 .181-.052.198.198 0 0 0 .071-.138c.013-.134-.085-.2-.2-.274-.133-.088-.284-.186-.26-.42a.367.367 0 0 1 .438-.338c.09.009.178.034.259.075l.006.003-.047.195-.01-.006a.486.486 0 0 0-.22-.078.235.235 0 0 0-.167.038.16.16 0 0 0-.055.113c-.011.108.08.168.184.238Zm.724.889-.193-.015.1-1.369v-.009l.194.014-.1 1.379Zm1.264-1.128-.381-.017-.053 1.19-.194-.008.053-1.19-.38-.018.008-.18v-.01l.955.043-.008.19Zm1.303-.169s-.478.79-.479.788v.58h-.195l.001-.578-.477-.791-.008-.014h.226l.36.603.353-.602h.227l-.008.014Zm1.612 1.158a.556.556 0 0 1-.394.182c-.364.022-.615-.244-.64-.677-.026-.427.197-.728.555-.75.358-.02.616.252.642.678a.777.777 0 0 1-.163.567Zm.69.072-.192.02-.14-1.375.659-.066h.009l.018.189-.474.048.039.379.453-.046.02.188-.454.046.063.617Zm2.187-.292s-.254.04-.261.036l-.625-.56.1.645-.19.03-.213-1.366.191-.03.09.578c.061-.097.413-.654.419-.657l.231-.037.02-.003-.478.736.735.622-.02.006Zm.666-.107c-.357.072-.643-.157-.729-.583-.084-.419.096-.748.448-.818.352-.07.644.164.729.583.085.426-.09.746-.448.818Zm1.533-.374-.3-.42a.166.166 0 0 0-.223-.076l-.093.024.146.588-.188.047-.332-1.339.3-.075a.552.552 0 0 1 .409.011.362.362 0 0 1 .154.24c.007.027.01.055.01.084a.312.312 0 0 1-.172.279.237.237 0 0 1 .14.103l.364.482-.215.052Zm.48-.129-.385-1.327.668-.194.01-.002.052.182-.492.143.106.366.448-.13.053.182-.448.13.12.414.493-.143.053.182-.678.197Zm1.84-.578-.228-.286-.559.188-.008.366-.193.064.062-1.478.18-.061.006-.002.94 1.142-.2.067ZM13.56 5.578a.342.342 0 0 0 .256-.087.692.692 0 0 0 .04-.85.36.36 0 0 0-.494-.026.601.601 0 0 0-.17.418c-.012.243.077.531.369.546l-.001-.002Zm7.24 12.027.44-.148-.425-.534-.014.682ZM23.858 5.57a.917.917 0 0 0-.347-.302C20.128 3.81 15.919 3 12.001 3S3.873 3.81.491 5.268a.916.916 0 0 0-.347.302c-.103.21-.152.443-.143.677v11.307c-.01.234.04.467.143.677.083.121.193.22.322.29 3.39 1.464 7.608 2.279 11.535 2.279 3.928 0 8.146-.815 11.536-2.28a.916.916 0 0 0 .322-.289c.103-.21.152-.443.142-.677V6.246c.01-.234-.04-.467-.143-.677Zm-.316 11.989a.79.79 0 0 1-.064.387.483.483 0 0 1-.197.199c-3.348 1.475-7.53 2.21-11.28 2.21-3.75 0-7.932-.735-11.28-2.21a.481.481 0 0 1-.198-.2.783.783 0 0 1-.064-.386V6.253a.785.785 0 0 1 .064-.386.48.48 0 0 1 .198-.199C4.069 4.193 8.25 3.458 12 3.458c3.751 0 7.932.735 11.28 2.21a.483.483 0 0 1 .197.199.79.79 0 0 1 .064.386v11.305Zm-9.569.77a.36.36 0 0 0-.494.03.693.693 0 0 0 .046.849.367.367 0 0 0 .502-.03.692.692 0 0 0-.054-.849Zm-5.74-.273-.158-.022-.054.393.139.02a.29.29 0 0 0 .211-.04.185.185 0 0 0 .07-.128.24.24 0 0 0 .003-.032c0-.102-.075-.171-.21-.19v-.001Zm9.517-.25a.36.36 0 0 0-.485.097.603.603 0 0 0-.062.447c.048.237.205.494.492.438a.342.342 0 0 0 .226-.147.692.692 0 0 0-.171-.834Zm.912-.286-.155.039c.004.016.09.369.095.385l.137-.034c.133-.033.207-.11.207-.207a.222.222 0 0 0-.007-.053c-.03-.117-.13-.165-.277-.128v-.002ZM6.057 5.096l-.107.674.455-.087-.349-.586v-.001Z"/>
  </g>
  <defs>
    <clipPath id="a">
      <path fill="#fff" d="M0 0h24v24H0z"/>
    </clipPath>
  </defs>
</svg>
