<svg xmlns="http://www.w3.org/2000/svg" width="24" height="24" fill="none" viewBox="0 0 24 24">
  <g clip-path="url(#a)">
    <path fill="#0C2E86" d="M21.748 2.628c-3.142-1.314-6.91-1.98-10.339-1.98-3.428 0-7.198.666-10.339 1.98-.206.101-.303.192-.303.423v10.6c0 .233.1.322.303.423 3.14 1.314 6.91 1.98 10.34 1.98 3.428 0 7.198-.666 10.338-1.98.204-.1.303-.191.303-.422V3.05c0-.231-.099-.322-.303-.423Zm-3.103.17c.105-.378.424-.573.776-.475a.595.595 0 0 1 .238.123l.005.003-.067.186-.008-.01a.422.422 0 0 0-.208-.13.41.41 0 0 0-.316.034.525.525 0 0 0-.235.323.516.516 0 0 0 .037.399.4.4 0 0 0 .243.19c.072.02.187.028.254.006l.014-.005-.043.193h-.005a.596.596 0 0 1-.27-.026c-.362-.099-.523-.42-.413-.815l-.002.004Zm-1.502-.992v-.008l.18.036-.257 1.271-.179-.036.256-1.263ZM15.03 1.47v-.01l.182.024s-.144 1.092-.148 1.11l.479.063-.024.176-.66-.088.169-1.276h.002Zm-2.69.43c.01-.215.088-.398.215-.51a.516.516 0 0 1 .384-.129c.338.017.55.298.53.698-.01.218-.086.4-.211.512a.522.522 0 0 1-.388.128.524.524 0 0 1-.372-.167c-.111-.125-.168-.313-.156-.532h-.002Zm-2.24-.634.018.535.535-.018-.017-.535.175-.006h.008l.043 1.296-.182.007-.019-.583-.535.017.019.583-.182.007-.043-1.296.182-.005-.002-.002Zm-.348 1.791a28.631 28.631 0 0 1 1.66-.05c2.465 0 5.97.394 8.132 1.156H9.752V3.057Zm0 1.7H20.05l.003.07v.292H10.88v2.5h4.223v.362h-5.35V4.756Zm1.72 2.269v-.362h8.581v.362h-8.58Zm8.581.591v.362h-4.358v-.362h4.358Zm-8.58-1.545V5.71h8.58v.362h-8.58Zm3.629 2.499v2.271h-7.31v-.362h6.042V8.935H7.792V4.16H3.295c1.559-.547 3.81-.904 5.866-1.062v5.475h5.94V8.57ZM8.44 1.38h.009l.02.176-.356.041c0 .015.125 1.11.125 1.11l-.182.021-.125-1.11c-.016 0-.357.04-.357.04l-.02-.177.886-.1V1.38Zm-2.753.402.177-.035h.005l.73 1.18-.195.037-.176-.295-.546.104c0 .012-.055.338-.055.338l-.188.036.245-1.367.003.002Zm-2.46.746a.602.602 0 0 1 .37-.282.585.585 0 0 1 .269-.017h.005l.04.195-.014-.005a.422.422 0 0 0-.244-.005.403.403 0 0 0-.252.193.516.516 0 0 0-.032.398c.077.275.307.426.545.36a.533.533 0 0 0 .221-.126l.01-.012.064.188-.005.004a.646.646 0 0 1-.244.116.596.596 0 0 1-.46-.043c-.15-.083-.26-.236-.317-.439a.688.688 0 0 1 .047-.526l-.002.001Zm-.455 2.296c0-.023 0-.048.003-.076h4.422v4.184H2.772V4.825Zm0 4.701h10.467v.363H7.197v1.545h8.498V8.57h4.358v3.023c-.001.122-.017.308-.1.417a.634.634 0 0 1-.23.178c-1.08.403-2.53.71-4.028.914v-1.309H2.791a1.522 1.522 0 0 1-.02-.202v-2.07.004Zm12.33 2.861v.793a32.276 32.276 0 0 1-3.69.232c-2.317 0-5.546-.35-7.728-1.025h11.418Zm-12.408 1.68a.429.429 0 0 1-.257-.21c-.06-.121-.056-.279.007-.467l.245-.709.004-.008.171.06-.238.693c-.055.156-.062.272-.02.354.027.056.075.094.147.12a.243.243 0 0 0 .19-.004c.083-.04.148-.135.203-.292l.238-.694.173.058-.247.718c-.118.342-.336.477-.616.381Zm1.446.427s-.193-1.082-.204-1.133l-.288.991-.175-.05.36-1.238v-.009l.232.067.197 1.107.283-.969.175.052-.364 1.244-.216-.063v.001Zm.757.199-.177-.045.317-1.247v-.009l.179.045-.32 1.256Zm.648.153-.153-1.348v-.012l.198.043.106 1.153.59-1.001.187.04-.715 1.172-.215-.047h.002Zm1.727-.805-.475-.083-.062.352.433.075-.031.176-.433-.075c-.003.015-.066.383-.07.398l.475.084-.03.176-.654-.115.225-1.268v-.008l.655.114-.031.174h-.002Zm.978.317a.294.294 0 0 1-.27.26c.042.028.064.06.086.138l.151.547-.206-.028-.116-.468c-.033-.125-.08-.132-.168-.143l-.091-.012-.077.562-.18-.024.174-1.277v-.008l.29.04c.132.016.276.049.354.151.037.05.056.111.056.188 0 .024 0 .048-.005.075l.002-.001Zm.602.232c.134.089.285.191.26.434-.023.246-.195.373-.466.345a.721.721 0 0 1-.233-.076l-.005-.004.036-.186.01.007c.03.017.135.075.23.083a.238.238 0 0 0 .17-.047.183.183 0 0 0 .066-.13c.012-.127-.08-.187-.188-.258-.125-.082-.268-.175-.245-.395.02-.216.183-.34.413-.318a.703.703 0 0 1 .243.072l.006.003-.043.183-.01-.005a.47.47 0 0 0-.208-.074c-.038-.003-.108-.003-.158.036a.147.147 0 0 0-.051.106c-.01.101.075.157.173.224Zm.68.834-.181-.014.094-1.285v-.008l.182.013-.094 1.292v.002Zm1.191-1.058-.358-.015-.05 1.117-.182-.008.05-1.118-.359-.015.007-.17v-.008l.9.04-.008.177Zm1.226-.159-.45.74v.544h-.183v-.542c-.001-.004-.449-.743-.449-.743l-.007-.014h.213l.338.567.332-.565h.213l-.007.013Zm1.52 1.087a.53.53 0 0 1-.37.171c-.344.02-.58-.229-.604-.636-.024-.4.187-.682.523-.702.338-.02.58.236.604.636.013.218-.041.406-.153.531Zm.65.069-.182.018-.13-1.29.619-.063h.009l.017.176-.446.044c0 .016.034.34.036.356.015 0 .427-.043.427-.043l.017.178-.427.042c0 .018.058.58.058.58l.002.002Zm2.058-.276s-.238.038-.245.036l-.588-.524.094.605-.18.027-.2-1.282.18-.027s.078.502.083.542c.059-.091.39-.614.395-.617l.218-.034.019-.004-.45.69.691.585-.017.003Zm.628-.1c-.336.066-.605-.147-.686-.547-.079-.393.09-.703.422-.768.33-.066.607.154.686.547.08.398-.086.7-.422.768Zm1.444-.35-.283-.394c-.077-.104-.123-.092-.21-.072l-.088.023.137.552-.177.044-.314-1.258.283-.07c.129-.032.275-.055.384.01.07.043.119.117.145.224a.29.29 0 0 1-.153.34c.048.01.08.034.132.098l.343.453-.2.05h.001Zm.451-.12-.363-1.245.629-.183h.009l.05.17s-.448.13-.464.133l.1.344a86.9 86.9 0 0 1 .422-.122l.05.171s-.405.118-.423.121c.006.016.11.375.114.39l.463-.133.05.17-.639.185.002-.001Zm1.732-.544-.214-.268-.526.176-.007.343-.182.062.058-1.388.17-.058h.005l.883 1.07-.188.063h.001ZM12.88 2.42a.32.32 0 0 0 .242-.082c.09-.082.147-.224.156-.391a.563.563 0 0 0-.118-.407.315.315 0 0 0-.229-.104.318.318 0 0 0-.236.08.573.573 0 0 0-.162.391c-.011.228.072.498.347.511v.002Zm6.816 11.285.413-.139-.4-.5-.013.639ZM22.573 2.41a.852.852 0 0 0-.328-.283C19.06.76 15.097 0 11.407 0 7.718 0 3.754.76.57 2.128a.863.863 0 0 0-.325.283c-.112.166-.13.452-.134.636v10.608c.003.185.024.469.134.636.092.14.22.226.303.272C3.74 15.937 7.711 16.7 11.41 16.7c3.698 0 7.668-.764 10.86-2.138a.858.858 0 0 0 .304-.272c.11-.168.13-.451.134-.636V3.047c-.004-.183-.024-.468-.134-.636Zm-.297 11.25c0 .223-.026.283-.06.362-.05.114-.185.186-.185.186-3.152 1.384-7.089 2.073-10.622 2.073-3.533 0-7.468-.689-10.622-2.073 0 0-.137-.072-.185-.186-.034-.079-.06-.139-.06-.363V3.054c0-.224.026-.284.06-.362a.46.46 0 0 1 .185-.187C3.94 1.121 7.876.431 11.41.431c3.533 0 7.468.69 10.622 2.074 0 0 .135.072.185.187.034.078.06.138.06.362V13.66Zm-9.01.72a.314.314 0 0 0-.238-.078.319.319 0 0 0-.226.106c-.084.092-.125.24-.117.407.01.167.069.309.16.39a.317.317 0 0 0 .241.078.322.322 0 0 0 .232-.108c.08-.09.122-.239.112-.405a.567.567 0 0 0-.163-.391v.002Zm-5.404-.254s-.134-.019-.149-.02l-.05.369c.016.001.132.018.132.018.083.012.151 0 .2-.037a.176.176 0 0 0 .066-.12l.002-.029c0-.097-.07-.162-.2-.18v-.001Zm8.96-.234a.312.312 0 0 0-.247-.045.312.312 0 0 0-.21.135.563.563 0 0 0-.057.42c.044.223.192.464.463.411a.319.319 0 0 0 .212-.139c.067-.1.088-.252.055-.417a.557.557 0 0 0-.214-.363l-.002-.002Zm.86-.269-.146.036c.003.016.085.346.09.361l.13-.033c.124-.03.193-.102.193-.194a.174.174 0 0 0-.007-.05c-.027-.111-.123-.155-.26-.121v.002ZM5.811 1.97l-.1.632.428-.082c-.01-.019-.305-.513-.327-.55Z"/>
    <path fill="#60513A" d="M.28 23.199H0v-.113h.688v.113h-.28v.782H.28V23.2Zm.545-.113h.129v.374h.43v-.374h.129v.895h-.129v-.408h-.43v.408H.825v-.895Zm.933 0h.505v.113h-.376v.261h.341v.113h-.341v.296h.376v.112h-.505v-.895Zm1.695.149a.355.355 0 0 0-.185-.05c-.208 0-.345.149-.345.35a.34.34 0 0 0 .338.351c.063 0 .15-.017.195-.043l.007.125a.589.589 0 0 1-.206.032c-.284 0-.473-.182-.473-.466 0-.284.2-.46.475-.46.07 0 .137.01.202.04l-.01.124.002-.003Zm.453-.149h.135l.38.895h-.142l-.09-.225h-.441l-.091.225H3.52l.385-.895Zm.063.121-.178.445h.358l-.178-.445h-.002Zm.669-.008h-.28v-.113h.688v.113h-.28v.782h-.128V23.2Zm.545-.113h.129v.374h.43v-.374h.129v.895h-.129v-.408h-.43v.408h-.129v-.895Zm1.312-.016c.273 0 .433.198.433.463s-.158.464-.433.464c-.274 0-.432-.192-.432-.464 0-.271.16-.463.432-.463Zm0 .814c.208 0 .297-.171.297-.35 0-.18-.098-.353-.297-.35-.199 0-.296.168-.296.35 0 .18.089.35.296.35Zm.618-.798h.128v.783h.376v.112h-.504v-.895Zm.648 0h.128v.895h-.128v-.895Zm.981.149a.355.355 0 0 0-.185-.05c-.208 0-.345.149-.345.35 0 .202.153.351.34.351.063 0 .15-.017.195-.043l.007.125A.58.58 0 0 1 8.55 24c-.285 0-.473-.182-.473-.466 0-.284.2-.46.475-.46.07 0 .137.01.202.04l-.01.124-.002-.003Zm1.228.375c0 .252-.127.387-.35.387-.223 0-.35-.135-.35-.386v-.525h.13v.508c0 .172.053.29.22.29.166 0 .22-.118.22-.29v-.508h.13v.525h.001Zm.232-.524h.175l.396.721h.003v-.721h.13v.895h-.166l-.406-.736h-.003v.736h-.13v-.895Zm.934 0h.129v.895h-.129v-.895Zm.754.897h-.162l-.338-.895h.144l.276.783h.002l.285-.783h.135l-.343.895Zm.474-.897h.505v.113h-.374v.261h.341v.113h-.341v.296h.374v.112h-.505v-.895Zm.706 0h.219c.178 0 .35.029.35.243 0 .109-.08.186-.185.205.04.017.058.037.087.092l.17.357h-.148l-.137-.31c-.04-.088-.082-.088-.15-.088h-.078v.398h-.129v-.897Zm.128.386h.11c.122 0 .194-.055.194-.14 0-.08-.062-.132-.18-.132h-.124v.272Zm1.077-.252a.395.395 0 0 0-.168-.037c-.072 0-.158.026-.158.12 0 .173.386.132.386.427 0 .192-.147.267-.327.267a.558.558 0 0 1-.184-.038l.012-.12a.579.579 0 0 0 .187.043c.074 0 .177-.04.177-.145 0-.2-.386-.145-.386-.424 0-.159.127-.244.288-.244.058 0 .13.01.192.032l-.019.118v.002Zm.239-.134h.128v.895h-.128v-.895Zm.54.113h-.28v-.113h.688v.113h-.28v.782h-.128V23.2Zm.791.408-.352-.521h.151l.268.402.26-.402h.151l-.35.521v.374h-.128v-.374Zm1.356-.537c.273 0 .433.198.433.463s-.158.464-.433.464c-.274 0-.432-.192-.432-.464 0-.271.16-.463.432-.463Zm0 .814c.208 0 .297-.171.297-.35 0-.18-.098-.353-.297-.35-.199 0-.296.168-.296.35 0 .18.089.35.296.35Zm.611-.798h.479v.113h-.35v.261h.334v.113h-.334v.408h-.13v-.895Zm1.022 0h.129v.395l.384-.395h.171l-.422.424.457.471h-.189l-.4-.439v.44h-.128v-.896h-.002Zm1.242-.016c.273 0 .432.198.432.463s-.158.464-.432.464c-.275 0-.432-.192-.432-.464 0-.271.16-.463.432-.463Zm0 .814c.207 0 .297-.171.297-.35 0-.18-.098-.353-.297-.35-.2 0-.297.168-.297.35 0 .18.09.35.297.35Zm.61-.798h.22c.178 0 .35.029.35.243 0 .109-.08.186-.185.205.04.017.06.037.087.092l.17.357h-.146l-.137-.31c-.04-.088-.082-.088-.151-.088h-.077v.398h-.129v-.895l-.002-.002Zm.13.386h.109c.122 0 .194-.055.194-.14 0-.08-.062-.132-.18-.132h-.124v.272Zm.674-.386h.503v.113h-.375v.261h.341v.113h-.341v.296h.375v.112h-.504v-.895Zm.995 0h.136l.38.895h-.142l-.092-.225h-.441l-.09.225H22.1l.384-.895h.001Zm.064.121-.178.445h.358l-.178-.445h-.002ZM4.3 21.329h2.34v.167H4.3v.83h2.77v-.319H4.797v-.195H7.07v-.801H4.3v.318Zm1.643-1.009h1.155v-.307H4.772v-.156h2.27v-.307h-2.27v-.163h2.326v-.307h-2.82v1.242h.494v-.002h.676v.175H4.024v.369h3.324v-.37H5.943v-.174Zm16.134-.876v2.124h.582v-2.493h-2.895l-.049.061.237.308h2.125Zm-14.088.396v1.145l2.446-.198v.224h.581V18.99h-.581v1.47l-1.865.135v-.405h1.38v-1.092H7.842l-.048.06.237.31h1.336v.373H7.989Zm-4.902-.85h-.581v3.404h.581V20.34h.409v-.37h-.409v-.98Zm15.721 0h-.581v1.999h.581v-.65h.552v-.369h-.552v-.98Z"/>
    <path fill="#60513A" d="M21.695 21.835v-1.371h-.492v1.37h-.43v-1.37h-.491v1.37h-.733l-.048.062.237.308h3.18v-.37h-1.223ZM8.01 21.257l.237.307h2.19v.826h.581v-1.195H8.056l-.046.062Zm7.777 0 .236.307h2.197v.826h.582v-1.195h-2.967l-.049.062ZM14.41 19.97h-.268v-.98h-.513v2.037l-1.256.126v-1.687h.899v-.369h-1.48v2.466l1.837-.186v1.017h.513V20.34h.267v2.054h.513v-3.405h-.513v.981Zm2.354 1.058c.593 0 1.072-.42 1.072-.942a.875.875 0 0 0-.281-.634h.36v-.369h-.846v-.328h-.581v.328h-1.026l-.048.062.237.307h.319a.875.875 0 0 0-.282.634c0 .52.48.942 1.072.942h.004Zm0-1.518c.314 0 .57.253.57.566a.57.57 0 0 1-1.14 0c0-.314.256-.566.57-.566ZM2.04 19.119H.163l-.048.061.237.308h1.08s-.027.383-.28.846c-.36.655-.737.887-1.033 1.046l.111.256c.286-.12.727-.369 1.033-.724.816-.95.777-1.795.777-1.795v.002Z"/>
    <path fill="#0C2E86" d="M21.748 2.628c-3.142-1.314-6.91-1.98-10.339-1.98-3.428 0-7.198.666-10.339 1.98-.206.101-.303.192-.303.423v10.6c0 .233.1.322.303.423 3.14 1.314 6.91 1.98 10.34 1.98 3.428 0 7.198-.666 10.338-1.98.204-.1.303-.191.303-.422V3.05c0-.231-.099-.322-.303-.423Zm-3.103.17c.105-.378.424-.573.776-.475a.595.595 0 0 1 .238.123l.005.003-.067.186-.008-.01a.422.422 0 0 0-.208-.13.41.41 0 0 0-.316.034.525.525 0 0 0-.235.323.516.516 0 0 0 .037.399.4.4 0 0 0 .243.19c.072.02.187.028.254.006l.014-.005-.043.193h-.005a.596.596 0 0 1-.27-.026c-.362-.099-.523-.42-.413-.815l-.002.004Zm-1.502-.992v-.008l.18.036-.257 1.271-.179-.036.256-1.263ZM15.03 1.47v-.01l.182.024s-.144 1.092-.148 1.11l.479.063-.024.176-.66-.088.169-1.276h.002Zm-2.69.43c.01-.215.088-.398.215-.51a.516.516 0 0 1 .384-.129c.338.017.55.298.53.698-.01.218-.086.4-.211.512a.522.522 0 0 1-.388.128.524.524 0 0 1-.372-.167c-.111-.125-.168-.313-.156-.532h-.002Zm-2.24-.634.018.535.535-.018-.017-.535.175-.006h.008l.043 1.296-.182.007-.019-.583-.535.017.019.583-.182.007-.043-1.296.182-.005-.002-.002Zm-.348 1.791a28.631 28.631 0 0 1 1.66-.05c2.465 0 5.97.394 8.132 1.156H9.752V3.057Zm0 1.7H20.05l.003.07v.292H10.88v2.5h4.223v.362h-5.35V4.756Zm1.72 2.269v-.362h8.581v.362h-8.58Zm8.581.591v.362h-4.358v-.362h4.358Zm-8.58-1.545V5.71h8.58v.362h-8.58Zm3.629 2.499v2.271h-7.31v-.362h6.042V8.935H7.792V4.16H3.295c1.559-.547 3.81-.904 5.866-1.062v5.475h5.94V8.57ZM8.44 1.38h.009l.02.176-.356.041c0 .015.125 1.11.125 1.11l-.182.021-.125-1.11c-.016 0-.357.04-.357.04l-.02-.177.886-.1V1.38Zm-2.753.402.177-.035h.005l.73 1.18-.195.037-.176-.295-.546.104c0 .012-.055.338-.055.338l-.188.036.245-1.367.003.002Zm-2.46.746a.602.602 0 0 1 .37-.282.585.585 0 0 1 .269-.017h.005l.04.195-.014-.005a.422.422 0 0 0-.244-.005.403.403 0 0 0-.252.193.516.516 0 0 0-.032.398c.077.275.307.426.545.36a.533.533 0 0 0 .221-.126l.01-.012.064.188-.005.004a.646.646 0 0 1-.244.116.596.596 0 0 1-.46-.043c-.15-.083-.26-.236-.317-.439a.688.688 0 0 1 .047-.526l-.002.001Zm-.455 2.296c0-.023 0-.048.003-.076h4.422v4.184H2.772V4.825Zm0 4.701h10.467v.363H7.197v1.545h8.498V8.57h4.358v3.023c-.001.122-.017.308-.1.417a.634.634 0 0 1-.23.178c-1.08.403-2.53.71-4.028.914v-1.309H2.791a1.522 1.522 0 0 1-.02-.202v-2.07.004Zm12.33 2.861v.793a32.276 32.276 0 0 1-3.69.232c-2.317 0-5.546-.35-7.728-1.025h11.418Zm-12.408 1.68a.429.429 0 0 1-.257-.21c-.06-.121-.056-.279.007-.467l.245-.709.004-.008.171.06-.238.693c-.055.156-.062.272-.02.354.027.056.075.094.147.12a.243.243 0 0 0 .19-.004c.083-.04.148-.135.203-.292l.238-.694.173.058-.247.718c-.118.342-.336.477-.616.381Zm1.446.427s-.193-1.082-.204-1.133l-.288.991-.175-.05.36-1.238v-.009l.232.067.197 1.107.283-.969.175.052-.364 1.244-.216-.063v.001Zm.757.199-.177-.045.317-1.247v-.009l.179.045-.32 1.256Zm.648.153-.153-1.348v-.012l.198.043.106 1.153.59-1.001.187.04-.715 1.172-.215-.047h.002Zm1.727-.805-.475-.083-.062.352.433.075-.031.176-.433-.075c-.003.015-.066.383-.07.398l.475.084-.03.176-.654-.115.225-1.268v-.008l.655.114-.031.174h-.002Zm.978.317a.294.294 0 0 1-.27.26c.042.028.064.06.086.138l.151.547-.206-.028-.116-.468c-.033-.125-.08-.132-.168-.143l-.091-.012-.077.562-.18-.024.174-1.277v-.008l.29.04c.132.016.276.049.354.151.037.05.056.111.056.188 0 .024 0 .048-.005.075l.002-.001Zm.602.232c.134.089.285.191.26.434-.023.246-.195.373-.466.345a.721.721 0 0 1-.233-.076l-.005-.004.036-.186.01.007c.03.017.135.075.23.083a.238.238 0 0 0 .17-.047.183.183 0 0 0 .066-.13c.012-.127-.08-.187-.188-.258-.125-.082-.268-.175-.245-.395.02-.216.183-.34.413-.318a.703.703 0 0 1 .243.072l.006.003-.043.183-.01-.005a.47.47 0 0 0-.208-.074c-.038-.003-.108-.003-.158.036a.147.147 0 0 0-.051.106c-.01.101.075.157.173.224Zm.68.834-.181-.014.094-1.285v-.008l.182.013-.094 1.292v.002Zm1.191-1.058-.358-.015-.05 1.117-.182-.008.05-1.118-.359-.015.007-.17v-.008l.9.04-.008.177Zm1.226-.159-.45.74v.544h-.183v-.542c-.001-.004-.449-.743-.449-.743l-.007-.014h.213l.338.567.332-.565h.213l-.007.013Zm1.52 1.087a.53.53 0 0 1-.37.171c-.344.02-.58-.229-.604-.636-.024-.4.187-.682.523-.702.338-.02.58.236.604.636.013.218-.041.406-.153.531Zm.65.069-.182.018-.13-1.29.619-.063h.009l.017.176-.446.044c0 .016.034.34.036.356.015 0 .427-.043.427-.043l.017.178-.427.042c0 .018.058.58.058.58l.002.002Zm2.058-.276s-.238.038-.245.036l-.588-.524.094.605-.18.027-.2-1.282.18-.027s.078.502.083.542c.059-.091.39-.614.395-.617l.218-.034.019-.004-.45.69.691.585-.017.003Zm.628-.1c-.336.066-.605-.147-.686-.547-.079-.393.09-.703.422-.768.33-.066.607.154.686.547.08.398-.086.7-.422.768Zm1.444-.35-.283-.394c-.077-.104-.123-.092-.21-.072l-.088.023.137.552-.177.044-.314-1.258.283-.07c.129-.032.275-.055.384.01.07.043.119.117.145.224a.29.29 0 0 1-.153.34c.048.01.08.034.132.098l.343.453-.2.05h.001Zm.451-.12-.363-1.245.629-.183h.009l.05.17s-.448.13-.464.133l.1.344a86.9 86.9 0 0 1 .422-.122l.05.171s-.405.118-.423.121c.006.016.11.375.114.39l.463-.133.05.17-.639.185.002-.001Zm1.732-.544-.214-.268-.526.176-.007.343-.182.062.058-1.388.17-.058h.005l.883 1.07-.188.063h.001ZM12.88 2.42a.32.32 0 0 0 .242-.082c.09-.082.147-.224.156-.391a.563.563 0 0 0-.118-.407.315.315 0 0 0-.229-.104.318.318 0 0 0-.236.08.573.573 0 0 0-.162.391c-.011.228.072.498.347.511v.002Zm6.816 11.285.413-.139-.4-.5-.013.639ZM22.573 2.41a.852.852 0 0 0-.328-.283C19.06.76 15.097 0 11.407 0 7.718 0 3.754.76.57 2.128a.863.863 0 0 0-.325.283c-.112.166-.13.452-.134.636v10.608c.003.185.024.469.134.636.092.14.22.226.303.272C3.74 15.937 7.711 16.7 11.41 16.7c3.698 0 7.668-.764 10.86-2.138a.858.858 0 0 0 .304-.272c.11-.168.13-.451.134-.636V3.047c-.004-.183-.024-.468-.134-.636Zm-.297 11.25c0 .223-.026.283-.06.362-.05.114-.185.186-.185.186-3.152 1.384-7.089 2.073-10.622 2.073-3.533 0-7.468-.689-10.622-2.073 0 0-.137-.072-.185-.186-.034-.079-.06-.139-.06-.363V3.054c0-.224.026-.284.06-.362a.46.46 0 0 1 .185-.187C3.94 1.121 7.876.431 11.41.431c3.533 0 7.468.69 10.622 2.074 0 0 .135.072.185.187.034.078.06.138.06.362V13.66Zm-9.01.72a.314.314 0 0 0-.238-.078.319.319 0 0 0-.226.106c-.084.092-.125.24-.117.407.01.167.069.309.16.39a.317.317 0 0 0 .241.078.322.322 0 0 0 .232-.108c.08-.09.122-.239.112-.405a.567.567 0 0 0-.163-.391v.002Zm-5.404-.254s-.134-.019-.149-.02l-.05.369c.016.001.132.018.132.018.083.012.151 0 .2-.037a.176.176 0 0 0 .066-.12l.002-.029c0-.097-.07-.162-.2-.18v-.001Zm8.96-.234a.312.312 0 0 0-.247-.045.312.312 0 0 0-.21.135.563.563 0 0 0-.057.42c.044.223.192.464.463.411a.319.319 0 0 0 .212-.139c.067-.1.088-.252.055-.417a.557.557 0 0 0-.214-.363l-.002-.002Zm.86-.269-.146.036c.003.016.085.346.09.361l.13-.033c.124-.03.193-.102.193-.194a.174.174 0 0 0-.007-.05c-.027-.111-.123-.155-.26-.121v.002ZM5.811 1.97l-.1.632.428-.082c-.01-.019-.305-.513-.327-.55Z"/>
    <path fill="#60513A" d="M.28 23.199H0v-.113h.688v.113h-.28v.782H.28V23.2Zm.545-.113h.129v.374h.43v-.374h.129v.895h-.129v-.408h-.43v.408H.825v-.895Zm.933 0h.505v.113h-.376v.261h.341v.113h-.341v.296h.376v.112h-.505v-.895Zm1.695.149a.355.355 0 0 0-.185-.05c-.208 0-.345.149-.345.35a.34.34 0 0 0 .338.351c.063 0 .15-.017.195-.043l.007.125a.589.589 0 0 1-.206.032c-.284 0-.473-.182-.473-.466 0-.284.2-.46.475-.46.07 0 .137.01.202.04l-.01.124.002-.003Zm.453-.149h.135l.38.895h-.142l-.09-.225h-.441l-.091.225H3.52l.385-.895Zm.063.121-.178.445h.358l-.178-.445h-.002Zm.669-.008h-.28v-.113h.688v.113h-.28v.782h-.128V23.2Zm.545-.113h.129v.374h.43v-.374h.129v.895h-.129v-.408h-.43v.408h-.129v-.895Zm1.312-.016c.273 0 .433.198.433.463s-.158.464-.433.464c-.274 0-.432-.192-.432-.464 0-.271.16-.463.432-.463Zm0 .814c.208 0 .297-.171.297-.35 0-.18-.098-.353-.297-.35-.199 0-.296.168-.296.35 0 .18.089.35.296.35Zm.618-.798h.128v.783h.376v.112h-.504v-.895Zm.648 0h.128v.895h-.128v-.895Zm.981.149a.355.355 0 0 0-.185-.05c-.208 0-.345.149-.345.35 0 .202.153.351.34.351.063 0 .15-.017.195-.043l.007.125A.58.58 0 0 1 8.55 24c-.285 0-.473-.182-.473-.466 0-.284.2-.46.475-.46.07 0 .137.01.202.04l-.01.124-.002-.003Zm1.228.375c0 .252-.127.387-.35.387-.223 0-.35-.135-.35-.386v-.525h.13v.508c0 .172.053.29.22.29.166 0 .22-.118.22-.29v-.508h.13v.525h.001Zm.232-.524h.175l.396.721h.003v-.721h.13v.895h-.166l-.406-.736h-.003v.736h-.13v-.895Zm.934 0h.129v.895h-.129v-.895Zm.754.897h-.162l-.338-.895h.144l.276.783h.002l.285-.783h.135l-.343.895Zm.474-.897h.505v.113h-.374v.261h.341v.113h-.341v.296h.374v.112h-.505v-.895Zm.706 0h.219c.178 0 .35.029.35.243 0 .109-.08.186-.185.205.04.017.058.037.087.092l.17.357h-.148l-.137-.31c-.04-.088-.082-.088-.15-.088h-.078v.398h-.129v-.897Zm.128.386h.11c.122 0 .194-.055.194-.14 0-.08-.062-.132-.18-.132h-.124v.272Zm1.077-.252a.395.395 0 0 0-.168-.037c-.072 0-.158.026-.158.12 0 .173.386.132.386.427 0 .192-.147.267-.327.267a.558.558 0 0 1-.184-.038l.012-.12a.579.579 0 0 0 .187.043c.074 0 .177-.04.177-.145 0-.2-.386-.145-.386-.424 0-.159.127-.244.288-.244.058 0 .13.01.192.032l-.019.118v.002Zm.239-.134h.128v.895h-.128v-.895Zm.54.113h-.28v-.113h.688v.113h-.28v.782h-.128V23.2Zm.791.408-.352-.521h.151l.268.402.26-.402h.151l-.35.521v.374h-.128v-.374Zm1.356-.537c.273 0 .433.198.433.463s-.158.464-.433.464c-.274 0-.432-.192-.432-.464 0-.271.16-.463.432-.463Zm0 .814c.208 0 .297-.171.297-.35 0-.18-.098-.353-.297-.35-.199 0-.296.168-.296.35 0 .18.089.35.296.35Zm.611-.798h.479v.113h-.35v.261h.334v.113h-.334v.408h-.13v-.895Zm1.022 0h.129v.395l.384-.395h.171l-.422.424.457.471h-.189l-.4-.439v.44h-.128v-.896h-.002Zm1.242-.016c.273 0 .432.198.432.463s-.158.464-.432.464c-.275 0-.432-.192-.432-.464 0-.271.16-.463.432-.463Zm0 .814c.207 0 .297-.171.297-.35 0-.18-.098-.353-.297-.35-.2 0-.297.168-.297.35 0 .18.09.35.297.35Zm.61-.798h.22c.178 0 .35.029.35.243 0 .109-.08.186-.185.205.04.017.06.037.087.092l.17.357h-.146l-.137-.31c-.04-.088-.082-.088-.151-.088h-.077v.398h-.129v-.895l-.002-.002Zm.13.386h.109c.122 0 .194-.055.194-.14 0-.08-.062-.132-.18-.132h-.124v.272Zm.674-.386h.503v.113h-.375v.261h.341v.113h-.341v.296h.375v.112h-.504v-.895Zm.995 0h.136l.38.895h-.142l-.092-.225h-.441l-.09.225H22.1l.384-.895h.001Zm.064.121-.178.445h.358l-.178-.445h-.002ZM4.3 21.329h2.34v.167H4.3v.83h2.77v-.319H4.797v-.195H7.07v-.801H4.3v.318Zm1.643-1.009h1.155v-.307H4.772v-.156h2.27v-.307h-2.27v-.163h2.326v-.307h-2.82v1.242h.494v-.002h.676v.175H4.024v.369h3.324v-.37H5.943v-.174Zm16.134-.876v2.124h.582v-2.493h-2.895l-.049.061.237.308h2.125Zm-14.088.396v1.145l2.446-.198v.224h.581V18.99h-.581v1.47l-1.865.135v-.405h1.38v-1.092H7.842l-.048.06.237.31h1.336v.373H7.989Zm-4.902-.85h-.581v3.404h.581V20.34h.409v-.37h-.409v-.98Zm15.721 0h-.581v1.999h.581v-.65h.552v-.369h-.552v-.98Z"/>
    <path fill="#60513A" d="M21.695 21.835v-1.371h-.492v1.37h-.43v-1.37h-.491v1.37h-.733l-.048.062.237.308h3.18v-.37h-1.223ZM8.01 21.257l.237.307h2.19v.826h.581v-1.195H8.056l-.046.062Zm7.777 0 .236.307h2.197v.826h.582v-1.195h-2.967l-.049.062ZM14.41 19.97h-.268v-.98h-.513v2.037l-1.256.126v-1.687h.899v-.369h-1.48v2.466l1.837-.186v1.017h.513V20.34h.267v2.054h.513v-3.405h-.513v.981Zm2.354 1.058c.593 0 1.072-.42 1.072-.942a.875.875 0 0 0-.281-.634h.36v-.369h-.846v-.328h-.581v.328h-1.026l-.048.062.237.307h.319a.875.875 0 0 0-.282.634c0 .52.48.942 1.072.942h.004Zm0-1.518c.314 0 .57.253.57.566a.57.57 0 0 1-1.14 0c0-.314.256-.566.57-.566ZM2.04 19.119H.163l-.048.061.237.308h1.08s-.027.383-.28.846c-.36.655-.737.887-1.033 1.046l.111.256c.286-.12.727-.369 1.033-.724.816-.95.777-1.795.777-1.795v.002Z"/>
  </g>
  <defs>
    <clipPath id="a">
      <path fill="#fff" d="M0 0h24v24H0z"/>
    </clipPath>
  </defs>
</svg>
