<svg xmlns="http://www.w3.org/2000/svg" width="24" height="24" fill="none" viewBox="0 0 24 24">
  <g clip-path="url(#a)">
    <path fill="#92837B" d="M2.842 8.418a.264.264 0 1 0 .02-.527.264.264 0 0 0-.02.527Zm5.535-6.496.08.29c.032.121.048.226.048.226L7.09 3.07l.102.23.836-.375c.015.032.132.295.145.327l-.604.27.103.227 1.26-.563.201.446.27-.12-.301-.674-.656.293-.147-.327.907-.406-.1-.227-.334.15a2.16 2.16 0 0 0-.083-.394l-.113-.367-1.575.705.103.227 1.273-.57ZM5.762 4.749c-.164.05-.343.17-.546.368-.204.199-.329.375-.381.539-.055.167-.037.299.052.39.09.092.221.113.392.061.162-.045.347-.168.547-.364.199-.192.327-.375.38-.54.053-.167.035-.299-.054-.39l-.001-.001c-.09-.091-.223-.111-.39-.063Zm.151.494a1.17 1.17 0 0 1-.25.332 1.165 1.165 0 0 1-.342.245c-.097.04-.166.04-.205 0a.108.108 0 0 1-.03-.08.307.307 0 0 1 .036-.127c.045-.102.131-.215.253-.332.122-.12.237-.2.338-.243.098-.04.167-.04.207 0 .04.04.038.11-.007.205Zm-1.188-.414.137.143-.68.665.172.176 1.58-1.54-.172-.176-.686.667-.14-.142.5-.487-.172-.177-.99.966-.18-.186.972-.946-.173-.176-1.177 1.15.524.536.485-.473Zm17.26 7.033c-.384-.005-.864.085-.868.57-.007.45.44.58.855.585.348.004.855-.055.861-.566.005-.482-.462-.586-.848-.59Zm-.01.822c-.213-.002-.616-.007-.611-.25.001-.247.404-.243.616-.24.211.003.609.004.606.255-.003.244-.402.237-.611.236ZM2.108 14.056c.501-.051.82-.376.77-.896-.053-.525-.426-.774-.933-.723-.505.05-.831.365-.777.896.052.523.44.773.94.723Zm-.68-.75c-.034-.338.254-.494.554-.524.29-.03.602.076.634.404.034.33-.25.494-.542.524-.298.03-.612-.066-.646-.404Zm1.942 3.49-.23.122.167.31-.382.206a1.035 1.035 0 0 1-.125-.182c-.167-.313-.042-.618.256-.776.3-.16.633-.097.816.245.062.118.115.278.125.42l.258-.114a1.698 1.698 0 0 0-.172-.463c-.265-.497-.71-.652-1.211-.384-.495.265-.557.723-.302 1.196.084.157.203.301.33.434l.789-.422-.319-.593Zm.068-1.571-1.186.367.997-.976-.122-.393-1.588.493.096.305 1.193-.371-1.003.982.12.389 1.586-.492-.093-.304Zm-1.533-3.15c.655.065.868-.365.92-.872l.046-.452-1.653-.165-.045.453c-.05.506.075.97.732 1.036Zm-.477-.946.017-.185 1.131.112-.017.185a.543.543 0 0 1-.62.488.54.54 0 0 1-.511-.6Zm20.339 2.181c-.386-.062-.78-.022-.853.435-.059.37.147.583.502.64.304.047.529-.09.578-.4a.356.356 0 0 0-.114-.343l.007-.004c.24.048.489.186.444.47a.722.722 0 0 1-.112.278l.26.084c.056-.105.094-.218.113-.336.084-.53-.38-.754-.825-.824Zm-.007.563c-.024.157-.183.2-.342.174-.146-.023-.284-.112-.26-.264.027-.16.174-.205.329-.18.164.026.3.11.273.27ZM4.385 18.311l-.206.164.223.273-.337.274a.954.954 0 0 1-.156-.156c-.223-.276-.157-.598.106-.81.264-.214.604-.211.847.09.085.103.167.25.2.388l.233-.16a1.61 1.61 0 0 0-.254-.423c-.354-.439-.82-.51-1.263-.152-.435.354-.41.814-.072 1.232.112.139.256.257.404.364l.695-.562-.42-.522ZM19.14 5.45l.199.197c.601-.413.945-.744.945-.744l-1.251-1.225-.174.181 1.026 1.003s-.32.302-.745.588Z"/>
    <path fill="#92837B" d="m19.449 6.087-.6-.589c.028-.027.517-.529.517-.529l-.205-.205-.52.533-.2-.197.518-.53-.206-.205-.522.533-.362-.354-.172.177 1.577 1.544.175-.178Zm-3.176-4.239-.704-.293-.088.212.703.294.089-.213Zm.17 1.62.22-.526.285.118.098-.236-.284-.117.23-.549-.264-.109-.546 1.31.261.11Zm4.638 7.173a1.052 1.052 0 0 0-.01.354c.075.533.585.608 1.03.544.387-.054.752-.209.688-.665-.052-.373-.312-.514-.669-.463-.304.042-.476.24-.434.55a.36.36 0 0 0 .211.295l-.005.005c-.245.026-.522-.033-.563-.319a.704.704 0 0 1 .024-.296l-.272-.005m1.137.092c.146-.02.305.022.326.176.023.161-.105.246-.26.269-.165.023-.32-.018-.342-.178-.021-.158.117-.245.276-.267Zm-1.159-2.315a.264.264 0 0 0 0-.527.264.264 0 1 0 0 .527ZM16.445 2.28l-1.303-.543-.09.212 1.304.546.088-.215Zm-4.457.355v-.256c-.338.044-.678.035-.678.035v-.95h.595l-.002-.253h-.877v1.463s.54.009.962-.04Zm3.884 1.45.272.112.268-.642-1.513-.633-.094.217 1.246.52-.179.425Zm-3.501-2.04h.236v1.098h.28l.002-2.18h-.281v.816h-.238v-.82h-.28v2.073h.28v-.987Zm3.015.934c.174.073.325.099.455.074.128-.026.213-.09.256-.19.04-.097.026-.202-.046-.311-.07-.106-.191-.195-.37-.268a.82.82 0 0 0-.447-.074c-.135.022-.22.083-.263.184a.28.28 0 0 0-.023.11c0 .066.026.138.075.208a.8.8 0 0 0 .363.267Zm-.132-.466c.018-.042.054-.066.108-.072.06-.01.138.007.235.047.095.04.162.085.196.13.033.044.04.085.024.126-.019.043-.055.068-.11.077a.44.44 0 0 1-.231-.044.474.474 0 0 1-.197-.133c-.034-.047-.043-.09-.025-.13Z"/>
    <path fill="#92837B" d="M12.001 0C5.383 0 0 5.383 0 12c0 6.616 5.383 12 12.001 12 6.617 0 12-5.384 12-12 0-6.617-5.383-12-12-12Zm0 23.546C5.635 23.546.455 18.366.455 12 .455 5.633 5.635.453 12.002.453c6.366 0 11.545 5.18 11.545 11.547 0 6.367-5.179 11.546-11.546 11.546Z"/>
    <path fill="#92837B" d="m6.36 19.274-.621.73c-.184.217-.372.3-.567.135-.194-.165-.141-.365.042-.58l.62-.73-.254-.218-.687.809c-.287.34-.215.643.11.918.325.276.637.3.923-.04l.688-.808-.254-.216Zm10.466 1.57v-.005a.379.379 0 0 0 .125-.499c-.212-.41-.584-.204-.902-.041l-.318.166.762 1.476.295-.154-.316-.613.095-.048c.124-.066.185-.043.284.044l.415.37.33-.17-.535-.455c-.063-.05-.151-.107-.235-.071Zm-.376.048-.099.05-.205-.398.098-.05c.147-.076.32-.147.413.031.095.184-.062.292-.207.367Zm-1.173 1.223-.15-.442.562-.188-.083-.248-.56.188-.132-.388.612-.206-.083-.248-.93.313.533 1.573.933-.314-.084-.248-.618.208Zm4.233-4.305-.199-.172-.843.968.196.171.314-.358 1.054.92.219-.25-1.055-.92.314-.359Zm-1.974 2.15c-.106-.147-.016-.274.076-.341a.885.885 0 0 1 .315-.142l-.136-.238a1.256 1.256 0 0 0-.356.184c-.238.173-.39.453-.17.752.322.445.834-.089 1.02.166.09.12-.01.273-.112.347a.803.803 0 0 1-.364.138l.15.261c.158-.063.237-.091.384-.198.27-.198.422-.479.207-.774-.327-.45-.844.078-1.014-.154Zm.527-1.004 1.12 1.226.246-.226-1.122-1.225-.244.225Zm-5.799 2.265.069 1.66.333-.014-.07-1.658-.332.012Zm1.527 1.16h-.004l-.636-1.216-.353.059.84 1.545.402-.069.277-1.73-.326.054-.2 1.357Zm5.446-10.996a.617.617 0 0 0-.436 1.05.616.616 0 1 0 .436-1.05ZM12 6.485A5.521 5.521 0 0 0 6.484 12a5.521 5.521 0 0 0 5.517 5.516A5.523 5.523 0 0 0 17.517 12a5.523 5.523 0 0 0-5.516-5.516Zm0 10.76A5.251 5.251 0 0 1 6.754 12 5.251 5.251 0 0 1 12 6.753 5.252 5.252 0 0 1 17.247 12 5.252 5.252 0 0 1 12 17.246Z"/>
    <path fill="#92837B" d="M12.002 7.351A4.656 4.656 0 0 0 7.351 12a4.655 4.655 0 0 0 4.651 4.648A4.653 4.653 0 0 0 16.65 12a4.653 4.653 0 0 0-4.647-4.649Zm0 9.03A4.385 4.385 0 0 1 7.62 12a4.386 4.386 0 0 1 4.383-4.382A4.386 4.386 0 0 1 16.383 12a4.385 4.385 0 0 1-4.38 4.381Z"/>
    <path fill="#92837B" d="M12.002 8.22A3.786 3.786 0 0 0 8.22 12a3.786 3.786 0 0 0 3.783 3.78 3.785 3.785 0 0 0 3.78-3.78 3.785 3.785 0 0 0-3.78-3.78Zm.14.275a3.49 3.49 0 0 1 1.805.585h-1.805v-.585Zm0 1.48h1.35c.03 0 .248.075.248.335h-1.598v-.335m0 .618h1.6c0 .273-.225.334-.25.334h-1.35v-.334Zm-.282-2.099v.586h-1.805a3.495 3.495 0 0 1 1.805-.586Zm-1.872 4.943v1.434a3.5 3.5 0 0 1-.293-5.514h2.165v.336h-1.401s-.503.029-.503.769c0 .739.503.745.503.745h1.4v.335h-1.266a.616.616 0 0 0-.437.187c-.168.175-.168.403-.168.427v.473c0 .08.066.145.147.145a.145.145 0 0 0 .144-.145v-.49c0-.015.003-.135.088-.22.065-.068.147-.096.269-.098h1.224v1.002h-1.267a.618.618 0 0 0-.437.185c-.168.176-.168.404-.168.429m.273-3.127c0-.26.218-.336.248-.336h1.35v.336h-1.598Zm1.599.282v.335h-1.35c-.027 0-.25-.062-.25-.335h1.6Zm-.817 4.782a3.489 3.489 0 0 1-.764-.318V13.42c0-.015.003-.135.088-.22.065-.068.147-.096.269-.098h.407v2.272Zm1.631.07a3.567 3.567 0 0 1-1.348-.001v-2.341h1.348v2.341Zm1.048-.387a3.507 3.507 0 0 1-.764.319v-2.274h.408c.12.002.201.03.267.098a.336.336 0 0 1 .089.22v1.637Zm.292-.184v-1.436c0-.024 0-.252-.169-.428a.621.621 0 0 0-.438-.186h-1.265v-1.002h1.224c.12.003.201.03.267.098a.337.337 0 0 1 .089.221v.49a.145.145 0 0 0 .248.102.147.147 0 0 0 .044-.103v-.473c0-.024 0-.252-.169-.427a.619.619 0 0 0-.438-.186h-1.265v-.336h1.4s.503-.006.503-.745c0-.74-.503-.769-.503-.769h-1.4v-.335h2.164A3.5 3.5 0 0 1 15.51 12a3.508 3.508 0 0 1-1.496 2.873Z"/>
    <path fill="#92837B" d="M20.378 12c0-4.618-3.759-8.377-8.377-8.377-4.621 0-8.378 3.759-8.378 8.377s3.757 8.377 8.378 8.377c4.618 0 8.377-3.76 8.377-8.377ZM12 20.149c-4.495 0-8.151-3.656-8.151-8.149 0-4.495 3.656-8.15 8.15-8.15 4.495 0 8.15 3.655 8.15 8.15 0 4.493-3.655 8.149-8.15 8.149Zm8.64-5.135.225.58.258-.09-.134-.339 1.222.392.101-.317-1.58-.507-.091.281Zm-9.15 7.442-.527-1.293-.408-.036-.145 1.655.32.028.108-1.246.529 1.302.405.035.145-1.654-.318-.028-.109 1.237Z"/>
    <path fill="#92837B" d="M17.117 7.499a.615.615 0 1 0 .001-1.23.615.615 0 0 0 0 1.23Zm-5.116-2.12a.617.617 0 0 0 .616-.615.617.617 0 0 0-1.233 0c0 .34.277.615.617.615ZM9.65 21.904c-.075.273-.211.428-.456.36-.246-.067-.283-.27-.21-.543l.256-.924-.321-.09-.282 1.024c-.117.43.076.673.486.785.412.114.704.004.822-.424l.282-1.023-.322-.09-.255.925Zm-1.934-1.747-.877.317.359-.618-.289-.167-.831 1.438.288.167.385-.668.005.003.13.966.377.218-.176-1.116.983-.335-.354-.205ZM6.45 7.32a.616.616 0 0 0 .87-.872.62.62 0 0 0-.872 0 .614.614 0 0 0 0 .87l.002.002Z"/>
    <path fill="#92837B" d="M12.001 5.625A6.382 6.382 0 0 0 5.626 12a6.383 6.383 0 0 0 6.375 6.375A6.382 6.382 0 0 0 18.375 12a6.381 6.381 0 0 0-6.374-6.375Zm0 12.482A6.114 6.114 0 0 1 5.892 12a6.114 6.114 0 0 1 6.11-6.108A6.114 6.114 0 0 1 18.107 12 6.114 6.114 0 0 1 12 18.107Zm-7.237-6.722a.616.616 0 1 0 0 1.232.616.616 0 0 0 0-1.232Zm15.386 4.923-.184.301.382.706-.8-.034-.205.333 1.173.013.558.345.175-.283-.558-.346-.541-1.035Z"/>
    <path fill="#92837B" d="M16.684 16.683a.612.612 0 0 0 .434 1.047.616.616 0 0 0 .569-.849.604.604 0 0 0-.135-.198.612.612 0 0 0-.868 0ZM6.45 16.68l-.001.002a.612.612 0 0 0 .435 1.048.62.62 0 0 0 .57-.379.614.614 0 0 0-1.004-.67Zm5.551 1.94a.617.617 0 0 0-.617.614.617.617 0 0 0 1.233 0 .617.617 0 0 0-.615-.614Z"/>
  </g>
  <defs>
    <clipPath id="a">
      <path fill="#fff" d="M0 0h24v24H0z"/>
    </clipPath>
  </defs>
</svg>
