<svg xmlns="http://www.w3.org/2000/svg" width="24" height="24" fill="none" viewBox="0 0 24 24">
  <g clip-path="url(#a)">
    <path fill="#912642" d="M9.95 15.195a.414.414 0 0 0 .412-.412v-2.2h.51v2.2a.412.412 0 0 0 .823 0v-2.2h.605v2.2a.41.41 0 0 0 .411.429.412.412 0 0 0 .411-.428v-2.2h.512v2.2a.412.412 0 0 0 .823 0l.007-2.412c0-.308-.269-.558-.605-.558h-1.257l-.418-.541-.051-.068a.19.19 0 0 0-.257 0l-.052.068-.418.54h-1.254c-.336 0-.608.25-.608.559l-.005 2.412a.411.411 0 0 0 .412.411Zm.005-4.127a.411.411 0 0 0 .411-.411V8.63h3.283v2.026a.411.411 0 1 0 .823 0V7.434a.411.411 0 1 0-.823 0v.475h-3.281v-.475a.411.411 0 0 0-.823 0v3.223a.412.412 0 0 0 .41.411Z"/>
    <path fill="#912642" d="M10.864 7.769h2.286a.336.336 0 1 0 0-.672h-2.286a.336.336 0 0 0 0 .672Zm1.982.92a.41.41 0 0 0-.384.269h-.898a.41.41 0 0 0-.796.142v1.42a.411.411 0 0 0 .412.411h1.665a.412.412 0 0 0 .412-.41V9.1a.412.412 0 0 0-.411-.411Zm-1.254 1.56v-.618h.846v.619h-.846Z"/>
    <path fill="#912642" d="M10.825 18.398c.355.144.669.374.915.668.035.042.067.086.102.134a.245.245 0 0 0 .15.055.257.257 0 0 0 .179-.078l.006-.01a2.345 2.345 0 0 1 2.22-.912c.414.063.803.236 1.127.501l.027.023a.243.243 0 0 0 .297.015.229.229 0 0 0 .081-.214l-.015-.06a2.572 2.572 0 0 0-.18-.517c1.463-.095 2.622-1.638 2.622-3.125 0-.035-.004-.068-.005-.102a2.794 2.794 0 0 0 .551-3.951 2.793 2.793 0 0 0-1.654-3.564 2.803 2.803 0 0 0-3.283-2.095 2.802 2.802 0 0 0-3.941 0 2.802 2.802 0 0 0-3.283 2.096 2.794 2.794 0 0 0-1.654 3.563 2.793 2.793 0 0 0 .557 3.948c0 .034-.006.068-.006.102 0 1.487 1.159 3.03 2.622 3.125a2.658 2.658 0 0 0-.18.517c-.003.02-.01.04-.014.06a.227.227 0 0 0 .08.214.242.242 0 0 0 .298-.015l.027-.022a2.328 2.328 0 0 1 2.353-.356Zm6.965-4.793a1.76 1.76 0 0 1-.649.48l-.015.006a.127.127 0 0 0-.071.114.12.12 0 0 0 .008.042l.003.01a1.734 1.734 0 0 1 .027.8c-.161.807-.874 1.742-1.724 1.742-.287 0-.57-.07-.824-.206-.022-.011-.042-.023-.063-.035a2.476 2.476 0 0 0-1.477-.293 2.448 2.448 0 0 0-.211.036l-.553-.814-.067-.1a.23.23 0 0 0-.341 0l-.068.1-.554.816a2.55 2.55 0 0 0-.504-.054c-.42 0-.832.106-1.2.309-.02.012-.04.024-.062.035a1.749 1.749 0 0 1-.824.206c-.852 0-1.563-.937-1.723-1.742a1.718 1.718 0 0 1 .026-.8l.003-.01a.125.125 0 0 0 .009-.042.127.127 0 0 0-.072-.114l-.016-.007a1.749 1.749 0 0 1-.403-2.972l.024-.019a.126.126 0 0 0 .033-.086.116.116 0 0 0-.008-.04l-.037-.057a1.744 1.744 0 0 1 1.245-2.675h.012a.128.128 0 0 0 .118-.118v-.021A1.76 1.76 0 0 1 9.54 6.348h.05c.26 0 .515.059.749.171l.007.003c.015.006.031.01.047.01a.13.13 0 0 0 .096-.044l.028-.046a1.748 1.748 0 0 1 2.988.046.13.13 0 0 0 .139.029l.007-.003c.233-.112.489-.17.748-.172h.05a1.756 1.756 0 0 1 1.708 1.75v.02a.128.128 0 0 0 .12.119h.01a1.748 1.748 0 0 1 1.208 2.732.116.116 0 0 0-.008.04c0 .032.012.063.034.086l.023.019a1.748 1.748 0 0 1 .249 2.493l-.003.004Z"/>
    <path fill="#912642" d="M3.78 11.989a8.215 8.215 0 1 1 16.43 0 8.215 8.215 0 0 1-16.43 0Zm8.215 8.45a8.451 8.451 0 1 0 0-16.902 8.451 8.451 0 0 0 0 16.902Z"/>
    <path fill="#912642" d="M.254 12a11.746 11.746 0 1 1 23.492 0A11.746 11.746 0 0 1 .254 12ZM12 24.003a12 12 0 1 0 0-24 12 12 0 0 0 0 24Z"/>
    <path fill="#912642" d="M3.362 11.995a8.639 8.639 0 1 1 17.278 0 8.639 8.639 0 0 1-17.278 0Zm8.637 8.717a8.718 8.718 0 1 0 0-17.437 8.718 8.718 0 0 0 0 17.437Z"/>
    <path fill="#912642" d="M.515 11.995a11.485 11.485 0 1 1 22.97 0 11.485 11.485 0 0 1-22.97 0ZM11.999 23.56a11.564 11.564 0 1 0 0-23.13 11.564 11.564 0 0 0 0 23.13Z"/>
    <path fill="#912642" d="M21.81 9.899a.292.292 0 1 0 .002-.585.292.292 0 0 0-.001.585Zm-19.577 0a.292.292 0 1 0 .001-.585.292.292 0 0 0-.001.585Zm.255 1.867c.129.005.336.024.379-.06h.008l-.015.412c-.014.384-.371.61-.93.59-.558-.02-.932-.288-.921-.665l.015-.403h.008c.092.087.227.082.393.088l1.063.038Zm-1.247.127a.37.37 0 0 0-.024.122c-.01.251.202.483.687.5.486.018.744-.139.754-.42a.407.407 0 0 0-.025-.152l-1.392-.05Zm.953 2.399c-.568.08-1.019-.145-1.065-.477-.047-.332.31-.664.881-.744.529-.073 1.009.14 1.044.492.052.35-.36.66-.86.729Zm-.135-1.034c-.389.054-.767.276-.73.538.036.262.366.372.78.315.416-.058.778-.27.74-.53-.037-.261-.367-.381-.788-.323H2.06Zm-.226 1.79c-.15.049-.257.082-.311.195h-.008l-.095-.283h.008c.111.057.218.021.367-.029l1.063-.353c.15-.05.257-.086.31-.196h.007l.077.234a.214.214 0 0 0-.058.046l-.046.04-1.037.996 1.009-.336c.15-.05.256-.084.308-.195h.008l.093.281H3.52c-.107-.056-.213-.02-.363.03l-1.495.497c.026-.135.098-.213.226-.336l.977-.935-1.032.343Zm1.918 1.589v-.005a.328.328 0 0 0 .02-.344c-.115-.236-.46-.29-.867-.093-.407.199-.62.542-.503.782a.538.538 0 0 0 .15.187l.364-.177c.116-.057.239-.119.252-.209l.007-.004.113.232-.007.004a.542.542 0 0 0-.113.045l-.58.283a.503.503 0 0 0-.11.063 1.375 1.375 0 0 1-.258-.323c-.19-.388.053-.79.56-1.037.543-.264 1.009-.17 1.186.197a.793.793 0 0 1 .074.258l-.288.14Zm.216.493c.106-.074.28-.182.269-.276l.006-.005.237.336c.22.315.071.71-.386 1.03-.458.32-.918.33-1.134.021l-.231-.332.006-.004c.127.014.232-.071.368-.166l.865-.604Zm-.917.851a.37.37 0 0 0 .054.112c.143.206.451.264.85-.014.399-.277.511-.558.35-.789a.427.427 0 0 0-.113-.106l-1.141.797Zm1.27 1.629a.37.37 0 0 1-.394-.084.348.348 0 0 1-.067-.357c.057-.177.197-.303.344-.442l.547-.512c.093-.087.25-.219.23-.318l.006-.006.22.233-.006.006c-.097-.024-.24.123-.332.21l-.547.512c-.27.257-.336.444-.217.571.068.068.178.095.312.045a.572.572 0 0 0 .21-.149l.618-.579c.092-.086.249-.219.23-.317l.006-.005.218.233-.004.006c-.098-.026-.24.122-.336.21l-.769.725c-.092.087-.248.22-.228.319l-.007.006-.169-.181.135-.126Zm1.421-.4c.08-.097.217-.25.184-.346l.005-.007.252.202-.005.007c-.1-.015-.222.153-.302.251l-.665.824c-.082.1-.219.253-.185.349l-.006.006-.251-.201.005-.007c.1.013.224-.155.303-.253l.665-.824Zm.32.266c.126-.067.314-.14.279-.276l.005-.007.236.19-.822.404-.202.793a.693.693 0 0 0-.008.336l-.006.007-.123-.1a.214.214 0 0 1-.072-.214l.231-.892.481-.241Zm.968 2.442c-.058-.234-.08-.222-.005-.507l.269-1.02c.039-.153.095-.329.06-.451l.004-.008.222.107a.78.78 0 0 0-.067.19l-.336 1.287.639-.874c.103-.14.212-.29.163-.404v-.007l.214.102a.924.924 0 0 0-.1.269L7.778 21.8l.617-.844c.097-.131.245-.313.16-.438l.003-.008.234.112-1.156 1.59c-.063-.227-.08-.22-.006-.505l.251-.951-.851 1.162Zm2.885-.043c-.156.551-.543.874-.866.783-.323-.09-.483-.55-.327-1.105.146-.513.538-.868.874-.758.34.093.457.594.32 1.08Zm-1.001-.293c-.107.379-.057.813.198.885.255.072.49-.186.605-.589.117-.403.068-.818-.187-.89-.255-.072-.5.185-.616.594Zm2.467-.243a.774.774 0 0 0 .043-.17l.29.029v.008c-.041.016-.062.095-.067.16l-.032 1.383c0 .134 0 .209.056.294v.008l-.323-.033v-.008c.062-.025.08-.108.09-.202l.044-1.357-.54 1.562a.769.769 0 0 1-.117-.355l-.188-1.293-.216 1.19c-.03.169-.055.29.018.358v.008l-.273-.028v-.008c.08-.097.105-.232.134-.382l.217-1.16c.015-.078.045-.188-.025-.266v-.008l.293.03a.498.498 0 0 0 .01.128l.188 1.265.398-1.153Zm1.047 1.449.215.023c.112.012.225-.052.304-.18h.004l-.058.371-.702.033v-.009c.084-.054.064-.262.058-.387l-.049-1.057c-.006-.129-.005-.336-.093-.384v-.008l.538-.025c.029 0 .058 0 .078-.017h.005l.016.328h-.006a.19.19 0 0 0-.201-.104.622.622 0 0 0-.171.028l.024.523.202-.01a.11.11 0 0 0 .073-.02h.005l.013.297h-.005c-.03-.08-.101-.075-.153-.072l-.124.006.027.664Zm1.17-.233c.027.155.046.268.149.336v.008l-.293.053v-.009c.072-.102.052-.212.024-.367l-.202-1.103c-.027-.155-.048-.265-.15-.336v-.008l.243-.044a.22.22 0 0 0 .037.068l.034.05.837 1.169-.19-1.049c-.028-.154-.046-.265-.149-.332v-.008l.292-.054v.01c-.071.097-.05.208-.023.363l.28 1.551c-.13-.044-.197-.127-.299-.269l-.786-1.1.196 1.07Zm.95-1.725.075-.022.157.543-.074.021-.157-.542Zm1.17-.05a.328.328 0 0 0-.31-.07c-.09.034-.182.134-.112.316.138.36.677.146.863.631.108.28.032.611-.214.705a.573.573 0 0 1-.312.03l-.17-.31c.146.097.306.134.43.084a.27.27 0 0 0 .12-.358c-.157-.41-.673-.128-.884-.684-.126-.33.028-.534.22-.605a.538.538 0 0 1 .257-.033l.111.294Zm2.388.213a.367.367 0 0 1-.154.372.348.348 0 0 1-.364 0c-.162-.09-.261-.25-.37-.42l-.403-.632c-.067-.106-.168-.286-.269-.284l-.004-.007.269-.173.004.007c-.042.09.077.258.145.364l.403.633c.202.314.375.41.52.316.08-.05.126-.156.102-.297a.577.577 0 0 0-.107-.235l-.455-.712c-.067-.107-.17-.285-.269-.285l-.005-.007.27-.172.005.006c-.044.091.075.259.144.367l.57.893c.068.106.17.284.27.283l.004.007-.209.135-.097-.159Zm.675-.72c.103.119.176.205.3.212l.006.006-.225.196-.006-.007c.01-.124-.063-.21-.166-.328l-.735-.846c-.104-.118-.177-.202-.299-.21l-.005-.006.186-.161a.21.21 0 0 0 .067.036l.054.028 1.317.575-.698-.807c-.104-.118-.176-.201-.299-.21l-.005-.005.224-.195.005.006c-.01.121.063.207.166.325l1.032 1.194c-.135.028-.235-.008-.396-.08l-1.237-.544.714.82Zm.25-1.722c-.095-.088-.238-.236-.336-.209l-.006-.005.217-.235.006.006c-.018.097.142.23.234.316l.779.718c.093.086.237.232.336.207l.006.006-.217.234-.006-.005c.02-.096-.14-.23-.233-.315l-.78-.718Zm.902-.922c-.134-.157-.282-.341-.403-.3l-.007-.005.15-.201 1.278 1.516c-.174.017-.215.035-.422-.06l-1.071-.487c-.135-.06-.28-.138-.4-.134l-.007-.006.148-.197.025.022c.076.046.155.087.237.12l1.138.521-.666-.79Zm1.409-.143.134-.17c.067-.087.077-.217.012-.352v-.004l.28.249-.346.608-.006-.005c0-.1-.187-.194-.297-.257l-.918-.528c-.111-.067-.284-.175-.374-.128l-.007-.004.269-.47c.014-.024.034-.047.027-.076v-.004l.286.164v.004a.19.19 0 0 0-.197.117.565.565 0 0 0-.067.158l.453.261.1-.174a.11.11 0 0 0 .017-.066v-.005l.258.149v.004c-.084-.017-.117.045-.142.091l-.062.108.58.33Zm-.874-1.851c.089-.208.318-.244.553-.143.235.101.354.294.348.442l.564-.022c.16-.01.319-.041.47-.096l-.061.143c-.035.082-.09.119-.206.124l-.471.021-.426-.014c.023-.134-.011-.322-.254-.426-.185-.08-.336-.03-.372.076a.595.595 0 0 0-.024.114l1.156.497c.118.052.303.142.383.083h.008l-.127.296H22c-.013-.099-.208-.17-.324-.22l-.974-.419c-.118-.05-.302-.142-.385-.085h-.008l.158-.371Zm.771-1.194a.326.326 0 0 0-.244.201c-.028.092-.004.226.182.281.369.11.529-.447 1.027-.298.288.086.503.347.428.599a.571.571 0 0 1-.166.265l-.35-.054c.165-.054.29-.16.328-.286a.269.269 0 0 0-.212-.315c-.42-.125-.51.452-1.08.283-.336-.102-.404-.348-.348-.545a.551.551 0 0 1 .13-.223l.305.092Zm.177-.49c-.128-.024-.327-.076-.395 0h-.009l.063-.313h.008c.036.093.242.124.366.15l1.038.205c.124.025.323.075.392 0h.008l-.062.314h-.008c-.033-.092-.24-.123-.363-.147l-1.038-.208Zm1.235-.954c.16.01.268.018.36-.067h.01l-.02.336h-.007c-.048-.087-.253-.089-.38-.096l-1.25-.07-.009.147a.233.233 0 0 0 .1.207v.005l-.33-.08v-.005a.17.17 0 0 0 .023-.062v-.043l.036-.627a.121.121 0 0 0-.015-.079v-.004l.33.072v.005a.135.135 0 0 0-.118.139l-.01.15 1.28.072Zm.013-1.216c.168-.012.252-.018.349-.113h.009l.025.328h-.01c-.075-.077-.257-.052-.388-.042l-.415.031-.727.336c-.12.055-.21.096-.277.182l-.012-.153a.123.123 0 0 1 .068-.135l.71-.323-.537-.17c-.072-.022-.21-.051-.279.048h-.001l-.022-.294 1.067.336.44-.03ZM3.491 7.597a.336.336 0 1 1 .331-.585.336.336 0 0 1-.33.585ZM3.48 6.335l-.041.073-.218-.12a.234.234 0 0 0-.319.09l-.485.874-.164-.092.65-1.167-.287-.16-.83 1.492.534.297a.234.234 0 0 0 .319-.092l.482-.864.134.075-.645 1.157.288.16.196-.354a.69.69 0 1 0 .605-1.09l.067-.117a.165.165 0 0 0-.288-.16l.002-.002ZM4.8 4.52l-.234-.27.361-.316-.217-.247-.64.56.471.538a.297.297 0 0 0 .419.028l.693-.605-.217-.248-.636.56Z"/>
    <path fill="#912642" d="M5.165 3.122a.186.186 0 0 0-.017.264l.045.052-.265.232.217.248.269-.233.435.502.281-.246-.7-.801a.188.188 0 0 0-.265-.018Zm6.692-1.282a.368.368 0 0 1-.142-.255v-.332h.46V.924H10.92v.33h.422v.324a.374.374 0 0 1-.113.255.44.44 0 0 1-.355.085v.33a.654.654 0 0 0 .653-.215s.225.301.695.21v-.325a.544.544 0 0 1-.364-.078Zm1.052-.815h-.265V.992a.187.187 0 0 0-.374 0V3.03h.374V1.354h.265v-.329Zm3.652.764a.188.188 0 0 0-.245.1l-.013.031-.16-.067.013-.03a.186.186 0 0 0-.344-.142l-.36.854-.556-.234.26-.62.418.175.128-.303-.76-.32-.397.942a.305.305 0 0 0 .163.403l.617.26-.302.717.345.143.647-1.541.159.067-.647 1.541.344.145.79-1.876a.187.187 0 0 0-.1-.245Zm3.311 2.536L19.7 4.17l.022-.025a.187.187 0 1 0-.28-.25l-.75.846.279.249.509-.573.174.155.218-.246ZM6.307 4.142a.202.202 0 0 0-.28-.02L4.854 5.15l.217.248 1.04-.911.367.422.281-.247-.453-.52Zm12.428.722a.26.26 0 0 1 .022.365l-.39.438-.28-.249.341-.385-1.046-.932.219-.245 1.134 1.008ZM8.566 1.333a.187.187 0 0 0-.11.24l.036.1-.227.082a.758.758 0 1 0 .378.947l.202-.074.314.856.351-.129-.702-1.911a.187.187 0 0 0-.242-.111Zm-.225 1.13a.409.409 0 1 1-.134-.336l.403-.149.125.336-.394.149Zm10.77 1.082-.38.428a.273.273 0 1 1-.023-.386l.079.067a.098.098 0 0 0 .138-.008l.148-.167a.188.188 0 0 0-.28-.248l-.039.043-.414-.368-.219.246.091.08a.633.633 0 1 0 .8.965l.369-.415-.27-.237ZM20.693 8.1l-.012-.022 1.193-.682a.248.248 0 0 0 .092-.336l-.706-1.235-.283.163.643 1.124-1.122.642-.126-.211.68-.39a.186.186 0 0 0 .028-.315.187.187 0 0 0-.213-.008l-.68.388-.068-.115.68-.388a.187.187 0 1 0-.18-.328l-.681.39-.143-.251-.287.163.899 1.573a.165.165 0 1 0 .286-.164V8.1Z"/>
  </g>
  <defs>
    <clipPath id="a">
      <path fill="#fff" d="M0 0h24v24H0z"/>
    </clipPath>
  </defs>
</svg>
