<svg xmlns="http://www.w3.org/2000/svg" width="24" height="24" fill="none" viewBox="0 0 24 24">
  <g clip-path="url(#a)">
    <path fill="#002968" d="m19.62 19.362.366.358c.08.079.155.161.226.248.056.06.097.133.118.213l.145-.148a.765.765 0 0 0-.104-.226 1.533 1.533 0 0 0-.197-.245s-.374-.367-.377-.372a.192.192 0 0 0-.133-.05.227.227 0 0 0-.136.066l-.81.827.128.125.775-.796Z"/>
    <path fill="#002968" d="m20.328 20.419-.553-.542-.166.168.553.544h-.002l-.143.145-.55-.542-.168.168.553.544-.231.235.122.12v.003l1.165-1.188-.122-.122-.458.467Zm-7.884 1.985v.49h-.247v-.499h-.226v1.002a.636.636 0 0 1-.263.052h-.374v-.82h.428v-.164h-.68v.97a.186.186 0 0 0 .057.143c.04.033.092.051.145.05h.4a.56.56 0 0 0 .16-.02.402.402 0 0 0 .117-.057v.68h.227v-1.133h.256v1.133h.227v-1.813l-.227-.014Zm-4.084-.68.226.111s-.764 1.646-.761 1.648l-.227-.109s.764-1.647.762-1.65Zm-.635-.05-.077.166a.73.73 0 0 0-.064.471.56.56 0 0 0 .2.35l-.159.063a.68.68 0 0 1-.272-.578.68.68 0 0 1-.292.159.775.775 0 0 1-.329 0l-.052-.164a.535.535 0 0 0 .394-.07.744.744 0 0 0 .32-.356l.086-.159-.322-.147.068-.147.896.412-.068.15-.329-.15Zm9.386 1.004a.191.191 0 0 0-.104-.113.209.209 0 0 0-.152 0l-1.054.401.064.168 1.013-.383.19.499.227-.086-.184-.486Zm-.349-.92-.142-.376-.23.086.38.997.228-.086-.179-.467.274-.102-.059-.156-.272.104Zm-.573.084.097-.038-.056-.15-.386.145-.059-.16-.226.09.03.075.031.086-.383.145.056.152.098-.039.15-.057a.44.44 0 0 0-.078.184.38.38 0 0 0 .245.422.496.496 0 0 0 .612-.227.39.39 0 0 0-.093-.483.418.418 0 0 0-.17-.08l.148-.056-.016-.009Zm-.075.574a.213.213 0 0 1-.122.127.202.202 0 0 1-.173-.016.258.258 0 0 1-.127-.14.274.274 0 0 1 .046-.269.199.199 0 0 1 .25-.033c.058.03.102.08.124.142.024.06.025.128.002.189Zm-10.758-2.41-.188-.193-.136.136-.213-.226.104-.102-.637-.646-.478.478a.19.19 0 0 0-.061.134.202.202 0 0 0 .066.138l.494.508.118-.116.213.227-.186.183.186.188s.716-.711.718-.709Zm-1.115-.075-.265-.27.38-.373.266.27-.381.373Zm.52.28-.214-.228.138-.136.213.227-.138.136Zm-.357.475a.54.54 0 0 0-.163-.342.53.53 0 0 0-.512-.154.379.379 0 0 0-.258.41c.01.129.065.25.156.342a.54.54 0 0 0 .342.168.377.377 0 0 0 .32-.107.383.383 0 0 0 .115-.317Zm-.487.209a.202.202 0 0 1-.175-.062.208.208 0 0 1-.059-.174.287.287 0 0 1 .089-.184.286.286 0 0 1 .186-.086.21.21 0 0 1 .176.06.206.206 0 0 1 .057.176.274.274 0 0 1-.09.183.279.279 0 0 1-.184.087Z"/>
    <path fill="#0086D1" d="M10.334 6.664a1.701 1.701 0 0 0 .471-1.52C10.6 4.294 9.672 3.91 9.672 3.91s-.65.791-.43 1.696c.178.773.976 1.085 1.092 1.058Zm4.853-1.423a1.695 1.695 0 0 0-1.442.68c-.494.723-.145 1.673-.145 1.673s1.025-.055 1.542-.828c.442-.66.133-1.462.045-1.525Zm-8.546 6.65a1.7 1.7 0 0 0-.859-1.342c-.78-.387-1.677.08-1.677.08s.186 1.008 1.02 1.42c.71.354 1.464-.053 1.516-.158Zm-.217 5a1.698 1.698 0 0 0 1.16-1.09c.227-.838-.387-1.634-.387-1.634s-.954.367-1.21 1.263c-.216.763.324 1.43.437 1.462Zm10.656-4.823a1.7 1.7 0 0 0 1.387.78c.873-.023 1.446-.857 1.446-.857s-.646-.8-1.566-.777c-.794.022-1.27.736-1.267.854Zm-1.14 2.14a1.7 1.7 0 0 0-.146 1.586c.379.787 1.374.98 1.374.98s.472-.907.068-1.748c-.344-.727-1.19-.868-1.296-.818Zm-4.833-3.416a1.698 1.698 0 0 0-1.505.517c-.56.68-.318 1.652-.318 1.652s1.023.054 1.621-.655c.513-.61.295-1.44.202-1.514Z"/>
    <path fill="#002968" d="M6.184 7.707a1.698 1.698 0 0 0-.431 1.532c.227.841 1.174 1.2 1.174 1.2s.63-.808.385-1.705c-.208-.766-1.015-1.059-1.128-1.027Zm13.321 7.274a1.706 1.706 0 0 0-.725-1.42c-.74-.453-1.678-.083-1.678-.083s.087 1.02.875 1.514c.674.422 1.465.088 1.528-.011Zm-7.287-5.41a1.698 1.698 0 0 0 1.46.63c.865-.112 1.36-1 1.36-1s-.715-.733-1.637-.615c-.798.11-1.2.868-1.183.984Zm5.49 1.357a1.7 1.7 0 0 0 1.183-1.066c.256-.834-.351-1.643-.351-1.643s-.964.347-1.238 1.235c-.234.76.294 1.438.406 1.474ZM6.55 12.694a1.705 1.705 0 0 0-1.553.36c-.626.607-.485 1.61-.485 1.61s1.011.16 1.68-.486c.57-.562.437-1.41.358-1.484Zm2.044 1.908a1.705 1.705 0 0 0-.618 1.469c.124.864 1.017 1.337 1.017 1.337s.723-.725.594-1.645c-.11-.787-.877-1.177-.993-1.16Zm-.48-1.639a1.701 1.701 0 0 0 .782-1.387c-.025-.87-.857-1.444-.857-1.444s-.805.635-.787 1.564c.03.796.744 1.272.862 1.267Zm3.688-3.55a1.699 1.699 0 0 0 .55-1.493c-.163-.857-1.078-1.29-1.078-1.29s-.68.757-.517 1.67c.15.78.93 1.136 1.045 1.114Zm-.875.187a1.695 1.695 0 0 0-1.144-1.11c-.848-.2-1.614.453-1.614.453s.41.937 1.317 1.15c.773.188 1.415-.381 1.442-.494Zm-1.23-1.773a1.69 1.69 0 0 0-.836-1.36c-.773-.401-1.68.05-1.68.05s.17 1.01.995 1.44c.705.369 1.467-.023 1.521-.13Zm5.019.456a1.693 1.693 0 0 0 1.564.301c.818-.297 1.097-1.27 1.097-1.27s-.857-.56-1.737-.24c-.74.27-.965 1.1-.925 1.209Zm-1.843 2.47a1.7 1.7 0 0 1 1.57.27c.662.567.58 1.575.58 1.575s-.999.227-1.704-.383c-.605-.519-.521-1.373-.446-1.462Zm3.085 1.358a1.695 1.695 0 0 0 1.06-1.188c.164-.857-.53-1.586-.53-1.586s-.907.453-1.092 1.36c-.15.775.446 1.394.562 1.414Zm-1.893 5.23a1.692 1.692 0 0 0 1.059-1.188c.163-.857-.529-1.587-.529-1.587s-.906.453-1.094 1.36c-.148.775.448 1.392.564 1.414ZM12.292 6.786a1.705 1.705 0 0 0 .923-1.297c.068-.87-.703-1.528-.703-1.528s-.863.549-.936 1.478c-.061.791.598 1.337.716 1.347Z"/>
    <path fill="#002968" d="M16.56 12.982c-.02-.16-.133-.252-.258-.227-1.45.528-2.348.623-3.767.752l-.227-.054a.2.2 0 0 1-.179-.17l-.063-2.908c0-.256-.105-.454-.227-.454-.122 0-.227.207-.227.454l-.138 2.883a.475.475 0 0 1-.483.37c-1.274.027-1.92.045-3.243-.309-.184-.045-.327-.081-.329.05a.478.478 0 0 0 .345.385c1.514.617 2.25.501 3.644.837l-.317 5.052c-.027.345-.227.424-.227.424h1.762c-.096-.045-.186-.26-.227-.38l-.25-5.132a24.832 24.832 0 0 0 4.221-1.265.287.287 0 0 0 .19-.308Zm-15.998.326H.453l.052-.018.06-.02 1.092-.4-.016-.204-1.188-.242H.408h.057l1.151-.184-.03-.258h-.031L0 12.24l.025.324 1.07.213.124.019-.138.043-1.006.371.025.32 1.614.016-.018-.227-1.134-.011ZM.247 9.556v.05l-.036.227.555.394.107.073-.123.034-.646.209-.05.292 1.036-.367.63.095.037-.25-.624-.092-.886-.665Zm1.566-2.144a1.018 1.018 0 0 0-.603-.075.594.594 0 0 0-.43.383c-.148.372.059.717.532.894a.947.947 0 0 0 .66.047.59.59 0 0 0 .358-.358.565.565 0 0 0 0-.453.805.805 0 0 0-.517-.438Zm.338.812a.367.367 0 0 1-.25.226 1.16 1.16 0 0 1-.523-.097.852.852 0 0 1-.358-.227.36.36 0 0 1 .252-.571c.162.002.323.037.471.104.252.095.338.175.39.263a.304.304 0 0 1 .011.302h.007Zm.18-3.319-.119.177.735.478.267.161-.195-.032-1.122-.124-.147.226 1.333.891.14-.21-.775-.506-.227-.134.247.032 1.08.116.135-.202-1.332-.891-.02.018ZM4.23 3.853l.186.12.226-.21.284.317a.453.453 0 0 1-.12.186.453.453 0 0 1-.359.131.848.848 0 0 1-.387-.256c-.093-.092-.17-.2-.227-.317a.354.354 0 0 1 .09-.422.528.528 0 0 1 .311-.138h.03l-.028-.197h-.02a.648.648 0 0 0-.433.19.596.596 0 0 0-.2.404.836.836 0 0 0 .284.646c.143.174.35.285.574.31a.657.657 0 0 0 .5-.197.866.866 0 0 0 .243-.399v-.016l-.53-.555-.424.403Zm2.053-.875L5.567 1.88l-.027.016-.18.118.722 1.101a.597.597 0 0 1 .117.243.345.345 0 0 1-.068.209L6.11 3.6l.197.065.014-.016a.501.501 0 0 0 .115-.33.512.512 0 0 0-.063-.2l-.089-.14ZM7.1 1.052l-.192.088.668 1.46.22-.1-.668-1.46-.028.012ZM11.56 0h-.03l-.196.02.09 1.082a.363.363 0 0 1-.043.258.301.301 0 0 1-.24.104c-.159.014-.265-.036-.297-.14a1.173 1.173 0 0 1-.034-.227L10.724.07l-.24.02.09 1.107c0 .098.027.195.08.279a.482.482 0 0 0 .503.2.608.608 0 0 0 .403-.164c.095-.098.114-.181.095-.41L11.56 0Zm2.285 1.025s-.018.174-.018.31l-.054-.188-.4-1.065-.253-.037v.032l-.216 1.557.25.034.118-.918.022-.258c.025.08.055.163.08.227l.367 1.022.24.032.227-1.587-.25-.025-.113.864Zm1.852-.41-.503 1.493.229.077.512-1.523-.229-.077-.009.03Zm1.666 1.822s-.088.084-.156.154c.018-.07.04-.157.054-.227l.193-1.058-.227-.127v.04l-.297 1.628.2.109 1.258-1.134-.227-.122-.798.737Zm2.192.53.476.408.168-.138-.68-.594-.02.023-1.032 1.187.705.606.143-.168-.517-.453.326-.379.404.345.143-.168-.404-.336.288-.333Zm2.076 2.047a.605.605 0 0 0-.165-.39l-.227-.308-.023.018-1.269.961.15.193.546-.42c.012.019.02.04.023.062a.342.342 0 0 1-.014.081c-.027.114-.07.259-.136.454l-.102.226.011.018.175.227.15-.453.034-.105.031-.106c.017-.056.03-.114.037-.172.065.077.156.13.256.147a.453.453 0 0 0 .34-.104.426.426 0 0 0 .183-.329Zm-.535.213a.342.342 0 0 1-.215-.16l-.082-.107.408-.318.1.118c.04.048.07.103.088.163a.181.181 0 0 1 0 .05.225.225 0 0 1-.088.182.285.285 0 0 1-.21.072Zm1.154 2.346a.538.538 0 0 0 .025-.32l-.027-.185c-.03-.202.018-.27.102-.309a.202.202 0 0 1 .16-.013.3.3 0 0 1 .162.167c.055.118.07.252.043.379v.032l.213.02v-.027a.854.854 0 0 0-.068-.503.478.478 0 0 0-.646-.284.394.394 0 0 0-.202.213.598.598 0 0 0 0 .322l.025.161c.027.182 0 .29-.125.345a.227.227 0 0 1-.226 0 .342.342 0 0 1-.154-.18.637.637 0 0 1-.057-.412v-.034l-.227-.016v.03a.932.932 0 0 0 .082.521c.05.119.137.219.247.286a.482.482 0 0 0 .453.034.453.453 0 0 0 .22-.227ZM23.542 8.7l-.03.009-1.52.417.063.231 1.548-.424-.06-.233Zm-1.206 2.192.02.238 1.386-.134c0 .052.04.417.04.417h.227l-.102-1.081h-.03l-.185.018.038.412-1.394.13Zm1.632 2.062L24 12.66l-.045.018-.975.392-.632-.068-.028.25.621.067.92.626.03-.279-.571-.37-.109-.067.12-.041.637-.234ZM2.285 16.903a.32.32 0 1 1-.64-.005.32.32 0 0 1 .64.005Zm20.08 0a.32.32 0 1 1-.64-.005.32.32 0 0 1 .64.005Z"/>
  </g>
  <defs>
    <clipPath id="a">
      <path fill="#fff" d="M0 0h24v24H0z"/>
    </clipPath>
  </defs>
</svg>
