<svg xmlns="http://www.w3.org/2000/svg" width="24" height="24" fill="none" viewBox="0 0 24 24">
  <g clip-path="url(#a)">
    <path fill="#C9C9C4" d="M12 0C5.373 0 0 5.459 0 12.193s5.374 12.193 12 12.193c6.625 0 12-5.46 12-12.193C24 5.459 18.627 0 12 0Zm0 24.143c-6.496 0-11.762-5.35-11.762-11.95S5.504.243 11.999.243c6.496 0 11.762 5.35 11.762 11.95S18.496 24.143 12 24.143Z"/>
    <path fill="#C9C9C4" d="M12 .503C5.644.503.493 5.737.493 12.193c0 6.456 5.15 11.687 11.505 11.687 6.356 0 11.506-5.233 11.506-11.69C23.505 5.731 18.354.502 12 .502Z"/>
    <path fill="#fff" d="M17.05 12.193c0 2.834-2.261 5.13-5.05 5.13-2.79 0-5.053-2.296-5.053-5.13s2.26-5.131 5.048-5.131c2.789 0 5.055 2.297 5.055 5.13Z"/>
    <path fill="url(#b)" d="M20.846 12.193c0-4.697-3.547-8.551-8.067-8.953a9.16 9.16 0 0 0-.78 2.879 9.133 9.133 0 0 0-.778-2.879c-4.518.402-8.066 4.256-8.066 8.953a9.085 9.085 0 0 0 .824 3.791 8.794 8.794 0 0 0 2.844-.754 8.965 8.965 0 0 0-2.062 2.124 8.765 8.765 0 0 0 14.482 0 8.977 8.977 0 0 0-2.063-2.124 8.78 8.78 0 0 0 2.844.754 9.07 9.07 0 0 0 .822-3.791Zm-8.847 1.336a8.695 8.695 0 0 0-3.605.78 8.914 8.914 0 0 0 2.468-2.784 9.043 9.043 0 0 0 1.137-3.563 9.08 9.08 0 0 0 1.135 3.563 8.89 8.89 0 0 0 2.47 2.783 8.705 8.705 0 0 0-3.604-.78Z"/>
    <path fill="#002C76" d="M14.48 2.356c-.069.326-.204.652-.782.527-.45-.1-.597-.358-.52-.72l.184-.85c.024-.108.024-.169-.075-.19l.015-.066.39.087-.198.918c-.06.278-.108.589.252.669.392.087.466-.193.518-.434l.21-.977.217.048-.21.988Zm1.356-.384c.045-.095.06-.16-.03-.203l.028-.062.448.212.192 1.58.567-1.22.182.086-.693 1.52-.313-.148-.201-1.653-.587 1.282-.18-.085.587-1.309Zm2.33 1.258c.064-.089.09-.145.007-.206l.04-.054.325.237-.962 1.352-.233-.172.824-1.157Zm4.594 8.75c.109 0 .17-.013.17-.116h.065v.407l-1.645.01v-.292l1.41-.01Zm-3.578-7.964c.049-.108.07-.168-.01-.25l.047-.05.294.3-.598 1.321h.005l1.303-.597.155.159-1.617.715-.2-.196.62-1.402Zm1.564 1.781c.089-.058.138-.108.081-.19l.055-.037.65 1.015-.24.159-.037-.059c.1-.065.062-.165 0-.26l-.198-.306c-.065-.101-.084-.118-.172-.059l-.381.252.217.344c.08.124.126.15.193.108l.04.062-.302.201-.04-.063c.067-.043.064-.1-.015-.223l-.217-.343-.434.286c-.093.062-.091.078-.026.18l.228.355a.17.17 0 0 0 .173.096.169.169 0 0 0 .066-.023l.037.06-.258.17-.6-.94 1.18-.785Zm1.147 2.279c.13-.05.16-.042.223.126.078.208.065.402-.159.488-.257.099-.39-.132-.45-.295l-.056-.146.442-.173Zm-1.35.204.102.274.663-.255.066.176-.504.682.117.325.523-.737c.109.196.302.326.564.227.41-.156.258-.608.172-.839l-.199-.536-.064.024c.033.088-.02.12-.118.16l-1.322.499Zm2.209 5.41.027-.18c.03-.201 0-.3-.109-.318l.011-.068.293.06-.204 1.347-.304-.034.011-.068c.119.018.172-.069.202-.27l.027-.18-1.481-.23.05-.29 1.477.232ZM1.628 15.209c-.014.171.004.344.053.508.045.141.14.254.281.207.337-.108.036-.977.556-1.151.332-.109.554.162.672.53.047.163.079.331.095.5l-.218.072a1.28 1.28 0 0 0-.028-.559c-.053-.166-.146-.325-.346-.265-.377.124-.067.985-.558 1.148-.255.085-.486-.097-.605-.471a2.895 2.895 0 0 1-.096-.457l.194-.062Zm21.076-4.363c.041-.158.05-.323.027-.485-.023-.14-.1-.276-.25-.251-.351.058-.182.94-.716 1.03-.346.058-.522-.234-.583-.6a2.291 2.291 0 0 1-.013-.48l.227-.038a1.148 1.148 0 0 0-.067.524c.027.167.094.339.302.304.396-.067.217-.943.72-1.028.264-.046.466.174.527.55.02.146.028.293.023.441l-.197.033ZM1.362 13.252l.669-.361.052.576-.72-.215Zm1.396.613-.018-.208-.5-.146-.062-.693.466-.233-.03-.326-1.576.828.034.405h.069c-.007-.065.045-.09.127-.064l1.49.437ZM1.26 11.196c-.108-.016-.167-.013-.182.083l-.064-.011.062-.397.702.108.128-.842-.703-.109.044-.288 1.628.258-.043.289-.773-.123-.128.842.773.122-.046.289-1.398-.22Zm.619-2.83c-.096-.045-.155-.06-.199.03l-.06-.027.226-.502 1.383.109-.977-.977.178-.39 1.492.708-.122.26-1.314-.63 1.097 1.098-.109.234-1.537-.109 1.303.62-.085.185-1.276-.608Zm2.316-2.548-.929-.168a.16.16 0 0 0-.172.057l-.052-.043.249-.303.892.175-.325-.869.137-.169.398 1.078.509.434-.2.245-.507-.437Zm17.344 9.478.927-.181a.157.157 0 0 0 .14-.117l.064.022-.123.374-.895.163.607.696-.07.209-.75-.869-.627-.217.1-.301.627.22ZM5.414 4.307c-.202-.266-.405-.586-.078-.843.327-.258.574.04.77.3.195.258.407.565.081.822-.326.257-.587-.036-.773-.279Zm.868.4c.453-.354.392-.723.074-1.14-.318-.417-.66-.58-1.112-.226-.471.37-.4.74-.078 1.161.32.423.658.566 1.115.206h.001Zm1.155-1.76c-.134-.306-.257-.667.12-.838.379-.171.55.178.68.475.13.298.267.652-.108.82-.376.168-.567-.176-.692-.457Zm.752.598c.522-.237.542-.61.336-1.085-.206-.476-.507-.723-1.028-.492-.543.246-.561.62-.345 1.11.216.488.509.707 1.037.467ZM9.464 1.56c-.02-.109-.045-.164-.138-.146l-.013-.066.389-.077.147.77h.006l.542-.909.262-.052-.523.874.905.75-.361.074-.814-.683.155.813-.283.056-.274-1.404Zm3.243 20.136h-.146a.063.063 0 0 0-.062.063v.307a.064.064 0 0 1-.062.063h-.018a.062.062 0 0 1-.06-.063v-.308a.06.06 0 0 0-.018-.045.062.062 0 0 0-.043-.018h-.141a.063.063 0 0 0-.062.061v.977a.063.063 0 0 1-.062.062h-.557a.061.061 0 0 1-.06-.063v-.78a.062.062 0 0 1 .037-.057.063.063 0 0 1 .024-.005h.392a.06.06 0 0 0 .024-.005.06.06 0 0 0 .034-.033.063.063 0 0 0 .005-.024v-.02a.063.063 0 0 0-.063-.064h-.678a.061.061 0 0 0-.058.04.064.064 0 0 0-.004.023v1.072a.063.063 0 0 0 .062.063h.843a.063.063 0 0 1 .062.063v.325a.06.06 0 0 0 .017.044.062.062 0 0 0 .044.02h.144a.062.062 0 0 0 .061-.064v-.97a.063.063 0 0 1 .063-.063h.015a.063.063 0 0 1 .063.063v.963a.063.063 0 0 0 .06.063h.15a.062.062 0 0 0 .06-.063v-1.566a.062.062 0 0 0-.066-.061Zm-5.109-.729-.109-.071a.065.065 0 0 1-.02-.087l.094-.148a.063.063 0 0 0-.018-.087l-.138-.089a.062.062 0 0 0-.085.019l-.387.616a.065.065 0 0 0 .018.087l.14.09a.06.06 0 0 0 .083-.02l.15-.237a.061.061 0 0 1 .063-.028.06.06 0 0 1 .022.01l.109.07a.06.06 0 0 0 .046.009.06.06 0 0 0 .039-.028l.011-.019a.063.063 0 0 0-.018-.087Zm-.559.408-1.097-.71a.06.06 0 0 0-.085.019l-.313.5a.064.064 0 0 0 .02.086l1.096.711a.063.063 0 0 0 .085-.02l.31-.498a.064.064 0 0 0-.016-.088Zm-.462.315a.062.062 0 0 1-.087.019l-.615-.399a.063.063 0 0 1-.018-.085l.168-.269a.062.062 0 0 1 .063-.028.06.06 0 0 1 .023.009l.619.398a.064.064 0 0 1 .018.087l-.171.268Zm-.237-1.284a.07.07 0 0 1 .06 0 .077.077 0 0 1 .028.057.9.9 0 0 0 .264.523c.027.025.044.023.064.013l.057-.034a.05.05 0 0 0 .024-.037.05.05 0 0 0-.014-.041.71.71 0 0 1-.078-.734c.015-.027.01-.053-.025-.078l-.157-.103a.056.056 0 0 0-.043-.014.054.054 0 0 0-.039.022.674.674 0 0 1-.687.237.048.048 0 0 0-.022-.002.048.048 0 0 0-.036.023.049.049 0 0 0-.007.022l-.006.068c0 .022 0 .038.038.052a.878.878 0 0 0 .579.026Zm9.245.954-.126.04a.063.063 0 0 1-.047-.007.063.063 0 0 1-.03-.037l-.055-.188a.061.061 0 0 0-.029-.037.06.06 0 0 0-.047-.006l-.162.049a.066.066 0 0 0-.042.078l.217.73a.063.063 0 0 0 .03.037.062.062 0 0 0 .047.006l.161-.05a.065.065 0 0 0 .044-.078l-.082-.278a.064.064 0 0 1 .005-.048.065.065 0 0 1 .036-.03l.126-.039a.063.063 0 0 0 .043-.077l-.007-.021a.063.063 0 0 0-.082-.044Zm-.058.721-1.308.387a.064.064 0 0 0-.043.079l.007.018a.062.062 0 0 0 .075.043l1.028-.308a.063.063 0 0 1 .077.043l.119.407a.065.065 0 0 0 .03.038.062.062 0 0 0 .048.005l.16-.049a.063.063 0 0 0 .043-.078l-.16-.543a.06.06 0 0 0-.076-.042Zm-.657-.334a.385.385 0 0 0-.17-.192c-.03-.017-.027-.04.007-.05l.08-.024a.065.065 0 0 0 .043-.078l-.005-.019a.062.062 0 0 0-.077-.042l-.29.087a.063.063 0 0 1-.077-.043l-.014-.052a.065.065 0 0 0-.078-.043l-.16.049a.063.063 0 0 0-.037.03.063.063 0 0 0-.004.048l.015.05a.062.062 0 0 1-.042.078l-.291.087a.065.065 0 0 0-.041.079v.018a.062.062 0 0 0 .077.043l.081-.025c.033-.01.048.008.033.039a.377.377 0 0 0-.04.254c.06.208.31.316.6.229.288-.087.447-.315.39-.523Zm-.718.203a.239.239 0 0 1 .154-.305.232.232 0 0 1 .29.172.238.238 0 0 1-.153.305.233.233 0 0 1-.292-.172Zm4.218-.947-.032.02a.062.062 0 0 1-.047.008.061.061 0 0 1-.038-.028l-.614-.988a.061.061 0 0 0-.038-.027.062.062 0 0 0-.047.008l-1.142.736a.064.064 0 0 0-.02.085l.01.017a.059.059 0 0 0 .061.028.06.06 0 0 0 .023-.009l.9-.576a.06.06 0 0 1 .084.018l.543.869a.063.063 0 0 1-.002.07.06.06 0 0 1-.018.017l-.087.055a.06.06 0 0 1-.046.008.06.06 0 0 1-.038-.028l-.28-.448a.06.06 0 0 0-.038-.027.06.06 0 0 0-.046.008l-.123.078a.063.063 0 0 0-.02.087l.28.449a.065.065 0 0 1-.019.086l-.096.062a.062.062 0 0 1-.047.008.062.062 0 0 1-.039-.028l-.279-.45a.061.061 0 0 0-.085-.02l-.122.08a.065.065 0 0 0-.02.086l.28.45a.065.065 0 0 1-.02.086l-.122.08a.065.065 0 0 0-.02.085l.012.019a.062.062 0 0 0 .085.02l1.346-.869a.063.063 0 0 0 .02-.087l-.01-.018a.065.065 0 0 0-.017-.019.063.063 0 0 0-.072-.001Zm-8.356 1.248-1.695-.503a.06.06 0 0 0-.048.005.063.063 0 0 0-.03.038l-.005.022a.063.063 0 0 0 .042.078l.205.062a.063.063 0 0 1 .043.077l-.023.08a.062.062 0 0 1-.076.043l-.089-.026a.063.063 0 0 0-.076.043v.013a.065.065 0 0 0 .043.08l1.194.352a.063.063 0 0 1 .042.078l-.096.326a.064.064 0 0 0 .043.079l.155.046a.062.062 0 0 0 .047-.006.062.062 0 0 0 .028-.038l.136-.466a.065.065 0 0 0-.043-.079l-.097-.028a.064.064 0 0 1-.043-.078l.024-.08a.06.06 0 0 1 .076-.043l.212.062a.06.06 0 0 0 .047-.005.06.06 0 0 0 .03-.037l.006-.023a.064.064 0 0 0-.052-.072Zm-.633.12a.063.063 0 0 1-.03.037.063.063 0 0 1-.047.005l-.478-.141a.065.065 0 0 1-.043-.078l.023-.08a.062.062 0 0 1 .053-.045c.008 0 .016 0 .024.002l.479.142a.064.064 0 0 1 .042.078l-.023.08Zm-.194-.445c.393.116.736.074.797-.143.06-.218-.203-.44-.595-.556-.392-.116-.734-.074-.797.142-.063.216.2.448.595.557Zm.16-.56c.262.079.387.218.354.332-.034.114-.218.165-.474.088-.256-.077-.386-.217-.353-.332.034-.116.211-.162.474-.084v-.003ZM4.21 18.69a.23.23 0 1 1-.458-.015.23.23 0 0 1 .458.015Zm16.04.004a.23.23 0 1 1-.459-.01.23.23 0 0 1 .46.01Z"/>
    <path fill="#fff" d="M10.346 18.095c0-.06-.017-.108-.096-.108a.75.75 0 0 0-.109.016v-.048l.318-.131h.08v1.136h-.193v-.865Zm.75.087c0-.12.034-.268.182-.268.2 0 .2.294.2.39a.23.23 0 0 1-.197.134c-.126 0-.185-.11-.185-.256Zm-.165.766c.095.023.193.035.29.037.31 0 .453-.194.453-.602 0-.295-.052-.555-.39-.555-.252 0-.383.127-.383.358 0 .232.108.337.32.337a.31.31 0 0 0 .258-.109c0 .217-.02.484-.36.484a.654.654 0 0 1-.188-.03v.08Zm1.226-.547c0-.223 0-.487.217-.487s.217.262.217.487c0 .226 0 .498-.217.498s-.217-.27-.217-.498Zm.217.584c.334 0 .417-.238.417-.584 0-.345-.086-.573-.417-.573-.331 0-.417.238-.417.573 0 .336.091.584.417.584Zm.903-.477a.242.242 0 0 1 .2-.132c.123 0 .183.109.183.254 0 .12-.034.27-.179.27-.204 0-.204-.295-.204-.392Zm.484-.652a1.366 1.366 0 0 0-.225-.023c-.309 0-.455.195-.455.6 0 .3.056.557.393.557.251 0 .38-.127.38-.36 0-.232-.108-.335-.318-.335a.317.317 0 0 0-.259.108c0-.217.02-.484.362-.484a.658.658 0 0 1 .122.016v-.079Z"/>
  </g>
  <defs>
    <radialGradient id="b" cx="0" cy="0" r="1" gradientTransform="matrix(8.85843 0 0 9.07989 11.678 11.772)" gradientUnits="userSpaceOnUse">
      <stop offset=".2" stop-color="#00AFEC"/>
      <stop offset=".32" stop-color="#00A2E1"/>
      <stop offset=".56" stop-color="#007FC4"/>
      <stop offset=".87" stop-color="#004895"/>
      <stop offset=".96" stop-color="#003686"/>
    </radialGradient>
    <clipPath id="a">
      <path fill="#fff" d="M0 0h24v24H0z"/>
    </clipPath>
  </defs>
</svg>
