<svg xmlns="http://www.w3.org/2000/svg" width="24" height="24" fill="none" viewBox="0 0 24 24">
  <g clip-path="url(#a)">
    <path fill="#002968" d="m19.62 19.183.365.355c.098.094.177.177.234.245.059.07.097.139.118.213l.145-.146a.76.76 0 0 0-.105-.22 1.526 1.526 0 0 0-.213-.25l-.376-.365a.17.17 0 0 0-.131-.05.205.205 0 0 0-.137.065l-.811.818.127.123.782-.788h.002Z"/>
    <path fill="#002968" d="m20.325 20.23-.55-.537-.166.166.553.539h-.002l-.143.144-.553-.537-.166.166.554.54-.232.233h-.002l.125.12 1.165-1.176-.123-.119-.46.46Zm-7.885 1.967v.494h-.246v-.494h-.231v.992a.66.66 0 0 1-.265.052h-.375v-.824h.429v-.162h-.669v.961c0 .06.02.108.057.142a.21.21 0 0 0 .145.05h.401a.565.565 0 0 0 .159-.021.435.435 0 0 0 .118-.056V24h.23v-1.134h.248V24h.231v-1.806h-.231v.003Zm-4.082-.674.24.11s-.764 1.63-.761 1.633l-.238-.108s.761-1.633.759-1.635Zm-.635-.05-.077.165a.718.718 0 0 0-.063.467c.034.16.102.274.2.343l-.16.065c-.067-.06-.15-.13-.206-.251a.7.7 0 0 1-.068-.323.687.687 0 0 1-.29.157.779.779 0 0 1-.329.006l-.052-.161c.12.029.252.007.395-.072a.728.728 0 0 0 .317-.35l.077-.164-.322-.146.068-.149.896.411-.068.146-.32-.148.002.005Zm9.387.997a.185.185 0 0 0-.103-.112.21.21 0 0 0-.152.005l-1.057.397.064.167 1.013-.38.19.496.23-.085-.186-.485.002-.002Zm-.349-.913-.142-.373-.23.087.38.989.228-.088-.179-.463.274-.1-.058-.153-.273.1Zm-.573.083.098-.036-.057-.15-.385.143-.061-.16-.236.09.027.075.032.085-.383.144.056.15.098-.036.152-.056a.436.436 0 0 0-.08.182.374.374 0 0 0 .25.418.48.48 0 0 0 .349 0 .472.472 0 0 0 .263-.23.38.38 0 0 0-.095-.478.464.464 0 0 0-.168-.08l-.011-.005.147-.056h.004Zm-.077.568a.205.205 0 0 1-.122.126.212.212 0 0 1-.172-.014.25.25 0 0 1-.125-.141.247.247 0 0 1 0-.189.208.208 0 0 1 .12-.126.217.217 0 0 1 .175.014c.059.031.1.078.124.141a.242.242 0 0 1 0 .187v.002ZM5.354 19.82l-.188-.188-.136.135-.213-.213.102-.102-.637-.64-.478.465a.18.18 0 0 0-.064.133c0 .047.023.092.066.134l.499.506.118-.117.213.216-.186.18.186.186s.71-.694.714-.692l.004-.002Zm-1.115-.073-.265-.268.38-.37.266.267-.381.37Zm.528.276-.213-.216.138-.134.213.215-.138.133v.002Zm-.365.474a.55.55 0 0 0-.163-.342.533.533 0 0 0-.34-.166.382.382 0 0 0-.32.104.385.385 0 0 0-.11.316.54.54 0 0 0 .162.34c.1.098.213.154.34.166a.383.383 0 0 0 .32-.106.37.37 0 0 0 .111-.315v.003Zm-.487.206a.204.204 0 0 1-.175-.06.212.212 0 0 1-.059-.173.29.29 0 0 1 .089-.182.285.285 0 0 1 .186-.085.204.204 0 0 1 .233.233.276.276 0 0 1-.09.182.28.28 0 0 1-.184.085Z"/>
    <path fill="#0086D1" d="M10.33 6.602c.086-.02.66-.74.472-1.506-.207-.84-1.143-1.222-1.143-1.222s-.65.784-.428 1.68c.188.765.986 1.075 1.1 1.048Zm4.847-1.41c-.072-.05-.997.018-1.442.672-.485.716-.138 1.66-.138 1.66s1.023-.057 1.542-.82c.442-.654.136-1.449.038-1.512ZM6.64 11.781c.039-.079-.147-.98-.86-1.33-.779-.383-1.679.08-1.679.08s.186.996 1.02 1.407c.712.35 1.467-.054 1.519-.157Zm-.218 4.954c.084.025.943-.323 1.16-1.08.239-.831-.385-1.621-.385-1.621s-.956.366-1.21 1.25c-.218.757.322 1.42.435 1.449v.002Zm10.658-4.779c0 .085.59.795 1.387.775.872-.022 1.446-.849 1.446-.849s-.637-.795-1.567-.77c-.793.022-1.27.73-1.267.844Zm-1.14 2.123c-.08.038-.49.862-.146 1.571.379.78 1.374.96 1.374.96s.471-.901.068-1.732c-.345-.71-1.19-.849-1.297-.8Zm-4.832-3.387c-.066-.056-.993-.088-1.505.514-.562.663-.318 1.635-.318 1.635s1.023.056 1.621-.649c.51-.602.293-1.426.202-1.5Z"/>
    <path fill="#002968" d="M6.182 7.635c-.084.023-.64.76-.43 1.519.228.833 1.176 1.19 1.176 1.19s.628-.802.385-1.689c-.209-.759-1.016-1.049-1.129-1.02h-.002Zm13.321 7.209c.045-.074-.05-.988-.724-1.406-.739-.458-1.68-.083-1.68-.083s.089 1.01.878 1.498c.673.418 1.464.088 1.526-.011v.002Zm-7.287-5.363c.012.088.671.733 1.46.632.864-.11 1.351-.99 1.351-.99s-.714-.726-1.636-.61c-.79.102-1.188.854-1.172.968h-.003Zm5.489 1.346c.084.024.952-.304 1.183-1.056.256-.826-.351-1.628-.351-1.628s-.964.344-1.236 1.226c-.233.752.293 1.424.404 1.458Zm-11.158 1.74c-.061-.063-.98-.189-1.55.36-.626.599-.486 1.594-.486 1.594s1.011.16 1.68-.48c.571-.549.437-1.389.356-1.472v-.002Zm2.047 1.9c-.087.011-.73.674-.62 1.453.123.856 1.019 1.325 1.019 1.325s.723-.716.591-1.628c-.11-.78-.875-1.166-.993-1.15h.003Zm-.483-1.624c.086-.002.803-.588.782-1.374-.022-.865-.857-1.433-.857-1.433s-.802.631-.777 1.552c.02.788.734 1.258.852 1.255Zm3.691-3.517c.086-.015.698-.707.549-1.48-.164-.848-1.08-1.277-1.08-1.277s-.689.75-.514 1.655c.147.772.93 1.123 1.045 1.102Zm-.878.184c.02-.085-.37-.918-1.142-1.097-.848-.198-1.616.458-1.616.458s.412.927 1.317 1.138c.773.18 1.414-.386 1.441-.498ZM9.695 7.754c.041-.076-.131-.981-.836-1.343-.773-.397-1.68.05-1.68.05s.17 1.001.995 1.426c.705.361 1.467-.03 1.521-.133Zm5.018.454c.03.081.816.568 1.564.299.818-.294 1.1-1.26 1.1-1.26s-.858-.555-1.733-.238c-.748.27-.97 1.09-.931 1.2Zm-1.841 2.448c.056-.067.968-.247 1.57.265.663.561.581 1.563.581 1.563s-1 .218-1.705-.382c-.603-.512-.521-1.358-.444-1.446h-.002Zm3.083 1.345c.086.016.911-.404 1.06-1.177.164-.848-.528-1.58-.528-1.58s-.92.446-1.094 1.351c-.15.773.448 1.384.562 1.406Zm-1.891 5.181c.086.016.911-.404 1.059-1.177.163-.848-.529-1.58-.529-1.58s-.92.446-1.095 1.351c-.15.773.45 1.384.565 1.406ZM12.289 6.726c.088.007.861-.5.922-1.287.069-.862-.7-1.513-.7-1.513s-.864.543-.936 1.462c-.061.783.598 1.327.716 1.336l-.002.002Z"/>
    <path fill="#002968" d="M16.56 12.861c-.02-.157-.134-.249-.26-.215-1.451.523-2.347.617-3.768.745l-.238-.054c-.12-.006-.164-.105-.18-.168l-.065-2.881c0-.252-.102-.458-.23-.458-.126 0-.23.204-.23.458l-.136 2.858c-.13.402-.483.366-.483.366v.01c-1.274.026-1.918.044-3.242-.306-.183-.045-.326-.083-.329.05.003.134.152.334.343.381 1.514.611 2.25.496 3.645.829l-.317 5.003c-.028.344-.232.42-.232.42h1.782c-.095-.045-.183-.258-.226-.375l-.25-5.086c1.605-.342 2.605-.638 4.223-1.253.127-.032.209-.167.193-.324Zm-16 .324H.456l.052-.018.059-.02 1.092-.396-.015-.2-1.2-.242-.043-.007.057-.007 1.152-.181-.019-.243-.031.004-1.56.256.025.32 1.07.213.125.018-.139.042-1.006.364.025.317 1.612.016-.019-.236H.56ZM.245 9.468l-.007.05-.034.226.556.389.106.072-.122.033-.646.207-.043.29 1.038-.364.628.094.038-.247-.616-.092-.893-.658H.245Zm1.56-2.125c-.238-.09-.431-.114-.603-.074a.59.59 0 0 0-.431.38c-.143.368.066.71.54.89.251.094.48.11.66.044a.593.593 0 0 0 .357-.355.564.564 0 0 0 0-.438c-.081-.206-.238-.339-.523-.447Zm.337.804c-.043.113-.152.212-.249.227-.113.018-.315-.018-.524-.096-.174-.065-.285-.133-.358-.216a.336.336 0 0 1-.045-.341.335.335 0 0 1 .295-.225c.113-.009.262.023.473.103.25.095.336.173.39.261a.3.3 0 0 1 .018.287Zm.186-3.287-.118.175.726.474s.152.09.267.161c-.095-.015-.195-.033-.195-.033l-1.124-.121-.145.215 1.33.883.141-.207-.775-.503-.222-.132.247.031 1.079.115.133-.2-1.33-.883-.016.025h.002Zm1.9-1.033.184.119s.185-.175.22-.21c.033.037.267.28.29.302a.445.445 0 0 1-.12.184c-.105.099-.252.153-.359.13-.113-.024-.251-.114-.385-.254a1.135 1.135 0 0 1-.22-.314c-.086-.19 0-.332.09-.418.08-.076.162-.112.311-.137l.03-.004-.027-.195h-.028a.672.672 0 0 0-.433.188.593.593 0 0 0-.2.4c-.02.22.073.433.284.651.19.198.372.294.571.308a.66.66 0 0 0 .501-.196.863.863 0 0 0 .243-.397v-.016l-.526-.55-.426.402v.007Zm2.054-.877-.72-1.088-.024.015-.18.117.722 1.092c.084.128.113.188.118.24.006.06-.02.14-.066.207l-.023.031.197.065.014-.016a.476.476 0 0 0 .116-.325.47.47 0 0 0-.064-.198l-.086-.141-.004.002Zm.816-1.906-.193.086.669 1.448.218-.099-.667-1.448-.027.013ZM11.564 0h-.03l-.213.02.09 1.071c.012.137.005.19-.03.247-.037.059-.123.095-.241.104-.159.013-.266-.036-.297-.142a1.16 1.16 0 0 1-.034-.227L10.725.067l-.243.02.093 1.096c.016.176.03.21.073.277.093.152.256.218.503.197.19-.015.32-.065.413-.16.093-.096.113-.179.093-.406L11.566 0h-.002Zm2.28 1.015-.03.308-.054-.189-.38-1.053-.261-.036-.005.03-.215 1.542.25.034.117-.91s.011-.14.023-.256c.025.079.054.164.08.236l.366 1.01.24.034.22-1.572-.24-.034-.11.854v.002Zm1.852-.406-.503 1.482.229.074.512-1.51-.229-.073-.009.027Zm1.664 1.805-.156.153c.018-.07.04-.153.054-.234l.198-1.037-.232-.126-.006.04-.295 1.613.197.108 1.258-1.13-.222-.121-.796.736v-.002Zm2.195.526c.04.036.476.406.476.406l.165-.137-.691-.588-.02.022-1.02 1.177.704.6.143-.167-.517-.44.327-.377.401.341.143-.166s-.36-.308-.401-.341c.031-.038.253-.294.287-.33h.003Zm2.076 2.028c.005-.117-.045-.232-.166-.384l-.238-.308-.022.018-1.247.952.15.193.544-.415c.009.018.022.038.022.058 0 .02-.004.047-.013.08-.027.113-.07.26-.136.446l-.102.235.009.016.177.227.15-.44.033-.106.034-.105c.012-.043.027-.106.037-.171a.433.433 0 0 0 .256.146.45.45 0 0 0 .34-.103.427.427 0 0 0 .174-.34h-.002Zm-.537.21c-.07-.008-.134-.056-.216-.161l-.081-.106c.04-.031.37-.28.41-.312l.09.117c.046.058.076.11.09.162a.191.191 0 0 1 .006.051.23.23 0 0 1-.09.178c-.076.058-.15.083-.21.072Zm1.156 2.325c.041-.088.048-.177.025-.326l-.025-.184c-.03-.2.018-.267.1-.305a.205.205 0 0 1 .16-.014c.064.023.121.081.162.166.054.113.063.205.04.375l-.004.03.213.022.005-.027a.826.826 0 0 0-.07-.498c-.137-.283-.402-.393-.658-.272a.392.392 0 0 0-.202.211c-.034.09-.03.175-.007.319l.025.16c.028.177-.01.285-.124.338a.231.231 0 0 1-.22-.004c-.068-.034-.107-.079-.154-.177a.625.625 0 0 1-.057-.41l.007-.033-.227-.016v.03a.877.877 0 0 0 .088.518.612.612 0 0 0 .248.283.492.492 0 0 0 .457.034.453.453 0 0 0 .218-.222v.002Zm1.29 1.118-.03.007-1.519.413.064.23 1.548-.42-.064-.23Zm-1.206 2.169.023.237s1.328-.126 1.385-.13l.038.41.215-.004-.102-1.072h-.029l-.186.02.039.41c-.057.004-1.386.13-1.386.13h.003Zm1.634 2.044.032-.292-.048.018-.975.389c-.013 0-.632-.067-.632-.067l-.027.247.621.067c.011.009.92.62.92.62l.03-.277-.571-.366-.11-.067.12-.04.638-.232h.002ZM2.283 16.746a.318.318 0 0 1-.32.317.318.318 0 0 1-.32-.317c0-.175.143-.316.32-.316.177 0 .32.141.32.316Zm20.082 0a.318.318 0 0 1-.32.317.318.318 0 0 1-.319-.317c0-.175.143-.316.32-.316.177 0 .32.141.32.316Z"/>
  </g>
  <defs>
    <clipPath id="a">
      <path fill="#fff" d="M0 0h24v24H0z"/>
    </clipPath>
  </defs>
</svg>
