<svg xmlns="http://www.w3.org/2000/svg" width="24" height="24" fill="none" viewBox="0 0 24 24">
  <path fill="#4C5C66" d="m8.468 16.169-.09.174a.227.227 0 0 0-.148-.057.111.111 0 0 0-.063.018c-.022.013-.033.031-.033.053 0 .035.033.063.1.083l.057.016a.38.38 0 0 1 .15.08.206.206 0 0 1 .062.156c0 .104-.03.181-.09.232a.365.365 0 0 1-.243.08.52.52 0 0 1-.303-.098l.096-.18c.068.06.134.09.199.09a.133.133 0 0 0 .076-.023.074.074 0 0 0 .032-.065c0-.027-.017-.05-.05-.067a.421.421 0 0 0-.086-.03.467.467 0 0 1-.169-.075c-.042-.037-.064-.093-.064-.169 0-.087.028-.157.084-.21a.298.298 0 0 1 .213-.079c.097 0 .187.024.27.07Zm.963.813-.324-.861h-.244l-.331.86h.237l.06-.149h.307l.056.15h.24Zm-.449-.595h.003l.091.274H8.89l.092-.274Zm.742.595H9.5v-.861h.224l.41.526h.002v-.526h.224v.86h-.224l-.41-.527h-.002v.528Zm1.197-.305V16.5h.444a.987.987 0 0 1-.017.177.41.41 0 0 1-.427.332.45.45 0 0 1-.33-.126.44.44 0 0 1-.128-.328.45.45 0 0 1 .129-.336.46.46 0 0 1 .338-.128c.185 0 .314.08.388.241l-.213.09c-.034-.092-.096-.138-.186-.138a.196.196 0 0 0-.166.087.304.304 0 0 0-.057.185c0 .072.019.133.058.185a.201.201 0 0 0 .169.084c.05 0 .092-.012.124-.038a.151.151 0 0 0 .056-.111h-.182Zm.903.305H11.6l.146-.861h.22l.175.46.185-.46h.223l.13.86h-.224l-.063-.495h-.002l-.206.496h-.09l-.197-.496h-.002l-.072.496Zm1.117 0v-.414l-.317-.447h.268l.161.234.16-.234h.27l-.318.447v.414h-.224Zm1.115-.408v-.453h.224v.484c0 .07-.004.124-.012.162a.288.288 0 0 1-.078.142c-.065.063-.16.095-.285.095-.125 0-.22-.032-.286-.096a.286.286 0 0 1-.078-.141.79.79 0 0 1-.012-.162v-.484h.223v.453c0 .073.008.126.022.159.023.05.066.075.13.075s.108-.025.13-.075a.425.425 0 0 0 .022-.159Zm.59.408h-.224v-.861h.223l.41.526h.002v-.526h.224v.86h-.224l-.41-.527h-.002v.528Zm1.196-.305V16.5h.444a1.027 1.027 0 0 1-.016.177.408.408 0 0 1-.427.332.452.452 0 0 1-.332-.126.442.442 0 0 1-.127-.328.45.45 0 0 1 .129-.336.46.46 0 0 1 .338-.128c.185 0 .314.08.388.241l-.213.089c-.034-.091-.096-.137-.186-.137a.197.197 0 0 0-.166.087.302.302 0 0 0-.057.185.3.3 0 0 0 .058.185.202.202 0 0 0 .169.084c.05 0 .091-.013.124-.038a.152.152 0 0 0 .056-.111h-.182Zm-6.93 1.222v-.453h.224v.484a.82.82 0 0 1-.013.162.29.29 0 0 1-.077.142c-.066.064-.161.095-.286.095-.125 0-.22-.031-.285-.095a.29.29 0 0 1-.078-.142.81.81 0 0 1-.013-.162v-.484h.224v.453c0 .073.007.126.022.16.023.05.066.075.13.075s.107-.026.13-.076a.425.425 0 0 0 .022-.159Zm.589.408h-.224v-.861H9.5l.41.526h.002v-.526h.224v.861h-.224l-.41-.528H9.5v.528Zm.84-.861h.224v.861h-.224v-.861Zm.339 0h.243l.208.523.208-.523h.244l-.368.86h-.174l-.361-.86Zm1.507 0v.19h-.266v.143h.252v.19h-.252v.148h.266v.19h-.49v-.861h.49Zm.782.422a.258.258 0 0 0 .048-.157c0-.088-.028-.155-.085-.201a.332.332 0 0 0-.214-.064h-.334v.86h.223v-.33h.003l.21.33h.28l-.271-.352a.214.214 0 0 0 .14-.086Zm-.185-.144c0 .072-.052.108-.155.108h-.022v-.215h.022c.103 0 .155.036.155.107Zm.937-.23-.089.173a.227.227 0 0 0-.148-.057.11.11 0 0 0-.063.019c-.022.013-.033.031-.033.053 0 .035.033.063.1.083l.056.017c.067.02.117.046.151.078a.21.21 0 0 1 .062.157c0 .104-.03.181-.09.232a.365.365 0 0 1-.243.08.518.518 0 0 1-.303-.098l.095-.18c.068.06.135.089.2.089a.132.132 0 0 0 .075-.022.073.073 0 0 0 .033-.065c0-.027-.017-.05-.05-.067a.403.403 0 0 0-.086-.03.472.472 0 0 1-.17-.075c-.041-.036-.063-.093-.063-.17 0-.086.028-.155.084-.208a.296.296 0 0 1 .213-.08c.096 0 .186.024.27.07Zm.2-.048h.224v.86h-.224v-.86Zm.956.19h-.184v.67h-.224v-.67h-.185v-.19h.593v.19Zm.362.67v-.413l-.317-.447h.268l.162.234.16-.234h.269l-.318.447v.414h-.223Zm-7.942-4.429.001.002h.48l-.004-.006-.672-1.185.001-.253v-.004h-.376v.262l-.66 1.18-.005.006h.48l.001-.002.377-.74.377.74Zm3.085-1.446v.279h-.368v.34h.368v.174h-.368v.34h.368v.32h.375V12.43h-.375Zm-2.203.5v-.496h-.375v1.443h.375v-.607h.367v-.34H8.18Zm7.335-.006v-.494h-.376v1.445h.376v-.61h.367v-.34h-.367Zm-2.666-.497h-.005v.54h-.26v-.54h-.375v3.063h.375v-2.18h.26v2.18h.375v-3.063h-.37Zm-1.713.044h-.004v1.392h.976v-.336h-.592v-.715h.596v-.34h-.975Zm4.373 1.638h-1.733v.34h1.363v1.04h.377v-1.38h-.007Zm-5.966-.584h-.467v-.714h.467v.714Zm.371.341v-1.396H8.697v1.396h1.216Zm-2.496 1.304a.37.37 0 0 1-.275-.118.39.39 0 0 1-.113-.28.405.405 0 0 1 .117-.282.374.374 0 0 1 .276-.115c.107 0 .2.04.273.12a.406.406 0 0 1 0 .56.372.372 0 0 1-.278.115Zm.769-.402a.77.77 0 0 0-.224-.552.74.74 0 0 0-.55-.23.734.734 0 0 0-.544.23.773.773 0 0 0-.224.556.78.78 0 0 0 .224.558.731.731 0 0 0 .545.232.744.744 0 0 0 .552-.232.776.776 0 0 0 .225-.558v-.004h-.004Zm1.803.4c-.108 0-.2-.04-.275-.117a.39.39 0 0 1-.114-.28.405.405 0 0 1 .118-.282.371.371 0 0 1 .275-.115c.108 0 .2.04.274.119.073.08.11.173.11.28a.39.39 0 0 1-.11.28.37.37 0 0 1-.278.115m.769-.401a.772.772 0 0 0-.224-.552.74.74 0 0 0-.55-.23.734.734 0 0 0-.544.23.772.772 0 0 0-.224.556.78.78 0 0 0 .224.558.73.73 0 0 0 .545.232.743.743 0 0 0 .551-.232.776.776 0 0 0 .226-.558v-.004h-.004Zm3.524-1.257a.266.266 0 0 1-.187-.453.265.265 0 1 1 .187.453Zm0 .355a.62.62 0 0 0 .538-.93h.211v-.344h-.569v-.243h-.373v.243h-.559v.344h.215a.621.621 0 0 0 .537.93m3.099.004v.005h.376v-1.369h-1.793v.34h1.417v1.024Zm.529 1.249h-.687v-1.24h-.376v1.24h-.175v-1.24h-.376v1.24h-.299v.339h1.917v-.34h-.004ZM2.099 16.704c-.097-.182-.232-.418-.304-.616-1.035.037-1.28-.577-1.746-.77.55-.127 1.29.266 1.645.529-.076-.162-.095-.224-.196-.54-.637.126-1.228-.566-1.498-.82.626-.138 1.097.22 1.419.547-.102-.31-.133-.484-.207-.822.096.042.19.065.257.065.082.325.192.829.38 1.232-.134-.506.055-1.09.325-1.511.118.422.177 1.636-.21 1.789.117.236.242.509.377.762-.186-.422.103-1.404.441-1.69.118.438.01 1.815-.328 1.882.177.25.225.394.501.719-.202-.524.215-1.285.469-1.69.168.506-.113 1.647-.366 1.815.077.09.625.648.828.827-.371-.405-.125-1.376.128-1.646.22.32.344 1.528.04 1.78.157.124.776.576 1.063.677-.406-.32-.495-1.14-.292-1.596.371.456.722 1.36.545 1.72.458.225.759.306 1.272.464-.371-.237-.889-.783-.793-1.396.546.31 1.146.852 1.113 1.477.445.093.751.145 1.26.216-.54-.355-1.034-.691-1.068-1.265.681.326 1.344.648 1.462 1.324.57.07.763.142 1.396.267-.506-.084-1.394-.483-1.344-1.107.715.275 1.49.679 1.659 1.185.692.136.883.31 1.447.48.48.144.897.45 1.581.772-.186 0-.257.05-.376.152-.546-.255-.86-.436-1.369-.617a18.61 18.61 0 0 0-1.16-.377c-.218.625-1.495.633-2.12.7.406-.709 1.182-.793 1.79-.81-.621-.106-1.025-.197-1.413-.282-.338.405-1.44.518-2.132.57.27-.575 1.317-.744 1.84-.609-.59-.078-1.098-.21-1.57-.315-.71.624-1.784.32-2.364.214.304-.456 1.539-.34 2.078-.29a8.31 8.31 0 0 1-1.426-.538c-.49.355-1.861.024-2.374-.235.49-.389 1.492-.18 2.094.093-.3-.164-.75-.463-1.062-.698-.556.166-1.515-.2-1.988-.487.439-.354 1.208-.005 1.764.3a10.65 10.65 0 0 1-.743-.763c-.507.305-1.24-.179-1.747-.584.422-.306 1.004.015 1.59.387a12.65 12.65 0 0 1-.442-.651c-.81.118-1.182-.36-1.688-.715.574-.152 1.055.107 1.562.495Z"/>
  <path fill="#4C5C66" d="M23.463 16.202c-.506.355-.878.833-1.688.715-.113.182-.278.423-.441.651.585-.372 1.167-.693 1.589-.386-.506.405-1.24.888-1.747.584-.25.286-.457.492-.743.763.556-.305 1.325-.655 1.764-.3-.473.287-1.432.653-1.988.487-.313.235-.762.534-1.062.698.601-.274 1.604-.482 2.093-.094-.512.259-1.883.59-2.373.236a8.29 8.29 0 0 1-1.426.537c.539-.05 1.774-.165 2.078.29-.58.107-1.654.41-2.363-.214-.473.105-.98.237-1.571.316.523-.135 1.57.034 1.84.608-.692-.05-1.794-.164-2.132-.57-.388.085-.792.177-1.413.283.608.016 1.384.101 1.79.81-.625-.068-1.901-.075-2.12-.7-.406.118-.722.22-1.16.376-.51.182-.823.362-1.37.617-.118-.1-.19-.152-.375-.152.684-.323 1.1-.628 1.58-.772.565-.17.756-.344 1.448-.48.169-.506.944-.91 1.659-1.185.05.625-.838 1.024-1.344 1.108.633-.125.825-.197 1.396-.268.118-.675.78-.998 1.462-1.324-.034.574-.529.91-1.069 1.265.51-.071.815-.123 1.261-.216-.033-.625.567-1.167 1.113-1.477.096.614-.422 1.16-.793 1.396.513-.158.814-.238 1.272-.463-.177-.36.174-1.265.545-1.72.203.456.114 1.275-.292 1.596.287-.101.906-.554 1.063-.677-.304-.253-.18-1.46.04-1.78.253.27.5 1.24.128 1.645.203-.179.752-.737.828-.826-.253-.17-.535-1.309-.365-1.816.253.406.67 1.167.468 1.69.276-.325.324-.47.5-.718-.337-.068-.445-1.444-.327-1.883.338.287.627 1.269.441 1.69.135-.253.26-.526.378-.762-.388-.152-.33-1.367-.211-1.79.27.423.46 1.006.324 1.513.19-.403.299-.908.381-1.232a.695.695 0 0 0 .257-.066c-.074.338-.105.513-.207.822.322-.326.793-.685 1.419-.546-.27.253-.86.945-1.498.82-.101.315-.12.377-.196.54.355-.263 1.095-.657 1.646-.53-.466.194-.712.807-1.747.77-.072.198-.207.435-.304.616.507-.388.988-.646 1.562-.495Z"/>
  <path fill="#004896" d="M8.438 11.577h7.125V2H8.438v9.577Z"/>
  <path fill="#fff" d="M12.046 5.17h-.826l-.787-1.303-.788 1.303H8.82l1.28-2.094V2.54h.663v.535l1.282 2.094ZM11.4 6.306v.586h-.646v1.06h-.646V5.436h.646v.871h.646Zm-.992 1.928a1.34 1.34 0 0 0-.946.403s-.402.346-.402.968c0 0-.04.53.402.973 0 0 .353.402.969.402 0 0 .547.022.971-.402 0 0 .403-.372.403-.973 0 0 .028-.539-.401-.968 0 0-.347-.402-.973-.402l-.023-.001Zm-.023.653.046.001c.326 0 .51.212.51.212.212.212.208.505.208.505 0 .317-.21.51-.21.51-.221.221-.508.21-.508.21-.32 0-.507-.21-.507-.21-.23-.23-.21-.51-.21-.51 0-.32.21-.506.21-.506a.673.673 0 0 1 .46-.212Zm2.225-1.471v-.585h.645v-.32h-.646v-.585h.646v-.49h.646v2.517h-.646v-.537h-.646Zm-.256-4.753v2.474h2.456V2.663h-2.456Zm.653.585h1.164v1.304h-1.164V3.248Zm.544 4.986a1.34 1.34 0 0 0-.945.403s-.402.346-.402.968c0 0-.04.53.402.973 0 0 .353.402.969.402 0 0 .547.022.971-.402 0 0 .403-.372.403-.973 0 0 .028-.539-.402-.968 0 0-.346-.402-.972-.402l-.024-.001Zm-.023.653.047.001a.71.71 0 0 1 .51.212c.211.212.208.505.208.505 0 .317-.21.51-.21.51-.221.221-.508.21-.508.21-.32 0-.507-.21-.507-.21-.23-.23-.21-.51-.21-.51 0-.32.21-.506.21-.506a.673.673 0 0 1 .46-.212Z"/>
</svg>
