<svg xmlns="http://www.w3.org/2000/svg" width="24" height="24" fill="none" viewBox="0 0 24 24">
  <g clip-path="url(#a)">
    <path fill="#6F7271" d="M11.945 3.813h.101v16.311h-.1V3.814Z"/>
    <path fill="#6F7271" d="M12.372 20.116 11.52 3.828l.101-.006.853 16.288-.102.006Z"/>
    <path fill="#6F7271" d="M12.8 20.087 11.092 3.864l.103-.012L12.9 20.075l-.1.012Z"/>
    <path fill="#6F7271" d="m13.222 20.032-2.555-16.11.105-.016 2.55 16.11-.1.016Z"/>
    <path fill="#6F7271" d="M13.64 19.956 10.25 4.002l.1-.02 3.39 15.954-.1.02Z"/>
    <path fill="#6F7271" d="M14.056 19.86 9.836 4.105l.1-.026 4.218 15.755-.098.026Z"/>
    <path fill="#6F7271" d="M14.466 19.741 9.428 4.228l.096-.032 5.041 15.514-.099.031Z"/>
    <path fill="#6F7271" d="M14.87 19.6 9.026 4.374l.097-.037 5.845 15.228-.097.037Z"/>
    <path fill="#6F7271" d="M15.266 19.441 8.634 4.54l.09-.043 6.637 14.902-.095.043Z"/>
    <path fill="#6F7271" d="M15.653 19.26 8.248 4.724l.09-.045 7.407 14.532-.092.047Z"/>
    <path fill="#6F7271" d="M16.029 19.057 7.876 4.93l.086-.051 8.155 14.126-.088.05Z"/>
    <path fill="#6F7271" d="M16.395 18.836 7.512 5.158l.085-.057 8.883 13.68-.085.055Z"/>
    <path fill="#6F7271" d="M16.748 18.598 7.161 5.401l.084-.061 9.586 13.196-.083.062Z"/>
    <path fill="#6F7271" d="M17.088 18.338 6.824 5.663l.08-.065 10.264 12.678-.08.062Z"/>
    <path fill="#6F7271" d="m6.5 5.941.077-.068L17.49 17.995l-.075.069L6.5 5.94Z"/>
    <path fill="#6F7271" d="M17.727 17.771 6.193 6.24l.071-.074L17.798 17.7l-.071.072Z"/>
    <path fill="#6F7271" d="M18.023 17.464 5.9 6.55l.07-.075 12.12 10.913-.068.077Z"/>
    <path fill="#6F7271" d="M18.301 17.14 5.628 6.878l.06-.08 12.679 10.265-.066.079Z"/>
    <path fill="#6F7271" d="M18.564 16.804 5.368 7.216l.06-.081 13.195 9.585-.06.084Z"/>
    <path fill="#6F7271" d="M18.809 16.453 5.129 7.57l.054-.085 13.68 8.883-.054.085Z"/>
    <path fill="#6F7271" d="M19.032 16.09 4.908 7.935l.051-.088 14.125 8.154-.052.089Z"/>
    <path fill="#6F7271" d="M19.239 15.716 4.705 8.312l.047-.093 14.532 7.408-.045.09Z"/>
    <path fill="#6F7271" d="m19.425 15.333-14.9-6.636.04-.093L19.47 15.24l-.044.093Z"/>
    <path fill="#6F7271" d="M19.59 14.94 4.365 9.093l.035-.096 15.228 5.846-.036.095Z"/>
    <path fill="#6F7271" d="M19.736 14.537 4.223 9.497l.032-.097 15.513 5.04-.032.097Z"/>
    <path fill="#6F7271" d="M19.86 14.13 4.104 9.906l.026-.099 15.755 4.222-.025.1Z"/>
    <path fill="#6F7271" d="M19.962 13.714 4.007 10.322l.02-.099 15.957 3.391-.022.1Z"/>
    <path fill="#6F7271" d="m20.042 13.294-16.11-2.55.016-.101 16.109 2.55-.015.101Z"/>
    <path fill="#6F7271" d="M20.1 12.872 3.879 11.167l.011-.103 16.22 1.708-.01.1Z"/>
    <path fill="#6F7271" d="m20.135 12.448-16.287-.855.005-.102 16.288.853-.006.104Z"/>
    <path fill="#6F7271" d="M3.84 11.918h16.31v.102H3.84v-.102Z"/>
    <path fill="#6F7271" d="m3.853 12.448-.005-.104 16.289-.853.004.102-16.288.855Z"/>
    <path fill="#6F7271" d="m3.89 12.872-.011-.1 16.22-1.707.012.102-16.22 1.705Z"/>
    <path fill="#6F7271" d="m3.948 13.294-.016-.1 16.111-2.552.015.103-16.11 2.55Z"/>
    <path fill="#6F7271" d="m4.026 13.715-.02-.1 15.956-3.392.022.1-15.958 3.392Z"/>
    <path fill="#6F7271" d="m4.13 14.13-.026-.1L19.86 9.808l.027.099L4.13 14.129Z"/>
    <path fill="#6F7271" d="m4.255 14.538-.032-.099L19.736 9.4l.032.097-15.513 5.04Z"/>
    <path fill="#6F7271" d="m4.4 14.94-.036-.096 15.227-5.846.036.096-15.228 5.845Z"/>
    <path fill="#6F7271" d="m4.565 15.334-.042-.093 14.902-6.636.042.092-14.902 6.637Z"/>
    <path fill="#6F7271" d="m4.75 15.718-.045-.091 14.534-7.408.045.093-14.533 7.406Z"/>
    <path fill="#6F7271" d="m4.96 16.092-.052-.09 14.124-8.155.051.088-14.124 8.157Z"/>
    <path fill="#6F7271" d="m5.183 16.455-.057-.086 13.68-8.884.056.085-13.68 8.885Z"/>
    <path fill="#6F7271" d="m5.427 16.805-.06-.083 13.197-9.587.059.08-13.196 9.59Z"/>
    <path fill="#6F7271" d="m5.689 17.142-.065-.078L18.3 6.797l.064.08L5.688 17.142Z"/>
    <path fill="#6F7271" d="M5.969 17.466 5.9 17.39 18.02 6.474l.067.075-12.12 10.917Z"/>
    <path fill="#6F7271" d="m6.264 17.773-.072-.073L17.727 6.165l.07.074L6.265 17.773Z"/>
    <path fill="#6F7271" d="m6.576 18.065-.075-.07L17.415 5.873l.076.068L6.576 18.065Z"/>
    <path fill="#6F7271" d="m6.901 18.34-.079-.064L17.087 5.598l.08.065L6.9 18.34Z"/>
    <path fill="#6F7271" d="m7.243 18.598-.084-.06L16.747 5.34l.084.06-9.588 13.198Z"/>
    <path fill="#6F7271" d="m7.595 18.838-.086-.057 8.885-13.68.086.057-8.885 13.68Z"/>
    <path fill="#6F7271" d="m7.96 19.06-.09-.053 8.157-14.126.09.05L7.96 19.06Z"/>
    <path fill="#6F7271" d="m8.337 19.26-.09-.048L15.652 4.68l.089.045L8.337 19.26Z"/>
    <path fill="#6F7271" d="M8.724 19.441 8.63 19.4l6.636-14.904.094.043-6.636 14.902Z"/>
    <path fill="#6F7271" d="m9.118 19.603-.094-.038L14.87 4.336l.094.038-5.847 15.229Z"/>
    <path fill="#6F7271" d="m9.524 19.741-.099-.031 5.041-15.514.097.032-5.04 15.513Z"/>
    <path fill="#6F7271" d="m9.932 19.861-.097-.027L14.056 4.08l.098.026-4.222 15.756Z"/>
    <path fill="#6F7271" d="m10.35 19.958-.1-.02L13.64 3.98l.1.02-3.39 15.957Z"/>
    <path fill="#6F7271" d="m10.77 20.032-.103-.015L13.22 3.906l.102.015-2.551 16.111Z"/>
    <path fill="#6F7271" d="m11.193 20.087-.101-.01 1.704-16.224.102.01-1.705 16.224Z"/>
    <path fill="#6F7271" d="m11.62 20.117-.104-.006.854-16.29.103.007-.853 16.29Z"/>
    <path fill="#6F7271" d="M11.997 0C5.38.001-.003 5.385 0 12.003c0 6.618 5.387 12.002 12.001 12C18.621 24 24 18.616 24 11.995 24 5.38 18.615-.002 11.997 0Zm0 23.565a11.565 11.565 0 1 1 0-23.13 11.565 11.565 0 0 1 0 23.13Z"/>
    <path fill="#fff" d="m11.098 4.195-.33.147c-.084.035-.173.06-.264.075l-.088.013-.117.321.153.001c-.048.135-.196.534-.196.534-.003.001-.018.047-.028.065l-.137.022-.039.08-.102.246h.74l.126-.312-.151-.022.433-1.17Zm.87.252a.33.33 0 0 0-.269-.12h-.001c-.255 0-.509.232-.566.517a.672.672 0 0 0-.007.093.37.37 0 0 0 .084.24.296.296 0 0 0 .102.08.596.596 0 0 1-.259.12l-.112.024-.028.326h.163c.09-.01.179-.03.264-.06a1.118 1.118 0 0 0 .704-.823c.017-.092.035-.269-.074-.397Zm-.335.27a.22.22 0 0 1-.008.058l-.039.116a.144.144 0 0 1-.024.01V4.9c0-.014 0-.027.004-.04a.27.27 0 0 1 .067-.143Z"/>
    <path fill="#fff" d="M12.736 4.775a.569.569 0 0 1 .095-.058l.27-.081.022-.11.016-.242-.19.037-.036.006-.202.049a1.064 1.064 0 0 0-.753.92.153.153 0 0 1-.012.017l.011-.004c0 .004-.005.01-.005.012-.004.1.029.196.092.273a.353.353 0 0 0 .277.125c.267 0 .524-.234.579-.532a.819.819 0 0 0 .009-.098.385.385 0 0 0-.08-.247.336.336 0 0 0-.093-.067Zm-.262.341a.175.175 0 0 1-.005.046.286.286 0 0 1-.088.18c0-.026.004-.051.01-.076a.466.466 0 0 1 .042-.134.226.226 0 0 1 .041-.019v.003Zm1.428-.677a.315.315 0 0 0-.251-.112h-.003c-.403 0-.648.563-.698.835-.032.134-.046.32.058.446a.312.312 0 0 0 .25.111c.404 0 .65-.57.706-.846.028-.13.04-.309-.062-.434Zm-.364.373a1.883 1.883 0 0 1-.164.413c.04-.143.094-.282.164-.413Z"/>
    <path fill="#6F7271" d="m10.176 5.547.016-.037c.14-.016.152-.025.205-.17l.23-.623c.038-.1.032-.108-.051-.11l-.064-.002.014-.041a.984.984 0 0 0 .303-.086l-.317.862c-.055.145-.044.154.091.17l-.015.037h-.412Zm1.49-1.015c.156 0 .122.2.108.271a.95.95 0 0 1-.066.202.322.322 0 0 1-.157.051c-.12 0-.158-.097-.134-.224.028-.152.128-.3.249-.3Zm.032-.054c-.178 0-.374.18-.413.395-.034.158.05.273.177.273a.236.236 0 0 0 .092-.025l.129-.061a.92.92 0 0 1-.603.467l-.004.047a.807.807 0 0 0 .212-.049.956.956 0 0 0 .607-.708c.03-.155-.001-.339-.196-.339h-.001Zm.78.484c.15 0 .158.128.14.228-.036.19-.14.325-.256.325-.13 0-.145-.142-.12-.278a.77.77 0 0 1 .072-.22.368.368 0 0 1 .163-.055Zm.499-.492a1.492 1.492 0 0 0-.22.05.927.927 0 0 0-.643.715c-.036.193.043.334.207.334.186 0 .386-.173.43-.411.03-.154-.037-.284-.189-.284a.332.332 0 0 0-.102.029l-.113.054-.002-.002a.87.87 0 0 1 .432-.379.884.884 0 0 1 .196-.057l.004-.049Zm.655.062c.112 0 .094.15.072.253-.033.16-.22.73-.427.73-.104 0-.091-.147-.068-.261.036-.169.218-.723.423-.723Zm.016-.054c-.291 0-.503.467-.555.715-.038.18-.021.376.164.376.29 0 .507-.47.558-.726.036-.17.022-.365-.164-.365h-.003Z"/>
    <path fill="#fff" d="M16.275 13.194c-1.176-3.038-.077-5.55-.077-5.55L14.842 6.16H9.164L7.808 7.643s1.097 2.512-.08 5.55c-.202.521-.627 2.003.159 3.281.897 1.46 3.057 2.397 4.117 2.95v-.015l.002.014c1.056-.552 3.214-1.488 4.114-2.948.787-1.279.357-2.76.155-3.281Z"/>
    <path fill="#6F7271" d="M1.88 11.086c-.205.056-.625.233-.64.57-.004.207.146.34.364.35.229.007.379-.127.519-.383.179-.327.403-.561.745-.547.4.015.705.306.685.786-.01.16-.05.316-.114.463-.136.008-.301.024-.55.047l-.023-.136c.223-.06.508-.155.518-.428.008-.207-.145-.324-.339-.331-.186-.007-.325.109-.469.388-.175.343-.407.57-.776.555-.435-.018-.747-.349-.727-.843a.988.988 0 0 1 .072-.344 1.34 1.34 0 0 1 .092-.2 6.24 6.24 0 0 1 .602-.08l.042.133Zm1.255 2.697c.064.33-.257.58-.833.69-.548.104-.839-.026-.888-.29-.067-.35.307-.61.821-.708.495-.095.85.025.9.303v.005Zm.148.016c-.118-.624-.722-.82-1.203-.728-.554.104-.92.539-.816 1.085.098.516.584.834 1.211.714.577-.108.903-.573.808-1.068v-.003Zm-.548 3.38c-.086.036-.168.08-.246.13a2.093 2.093 0 0 1-.363-.51c-.258-.569-.07-1.096.488-1.35.629-.286 1.16.022 1.393.534.07.163.12.335.147.51-.089.05-.226.129-.453.253l-.06-.096c.3-.232.306-.46.214-.654-.137-.304-.526-.406-1.016-.187-.43.198-.76.554-.57.963a.186.186 0 0 0 .088.106.187.187 0 0 0 .171-.019l.248-.111c.18-.083.193-.106.102-.373l.106-.048.34.75-.103.049c-.086-.11-.1-.124-.272-.044l-.214.097Zm1.08.836c.208-.076.413-.153.63-.228l.004.007-.385.544-.249-.323Zm.148.459a8.633 8.633 0 0 1-.192.3c-.076.119-.108.127-.232.005l-.089.07.474.612.088-.07c-.071-.129-.088-.178.07-.421.172-.26.387-.575.602-.885l.334-.489-.129-.098-1.563.51c-.26.084-.306.06-.421-.056l-.09.069.382.497.09-.07c-.109-.17-.08-.19.063-.251.114-.048.236-.095.31-.119l.303.396Zm1.504.54c.121-.152.169-.21.175-.297.005-.089-.037-.148-.114-.228l.07-.088.392.317-.046 1.676.005.005.334-.411c.108-.13.21-.267.303-.408.058-.098.035-.183-.1-.312l.07-.087.543.44-.074.089c-.106-.076-.187-.083-.272-.002-.123.12-.239.247-.347.38l-.747.92-.142-.116.095-1.8-.006-.004-.399.495a3.621 3.621 0 0 0-.298.407c-.065.1-.041.181.095.306l-.073.089-.544-.444.071-.088c.115.08.196.09.28.007.123-.117.238-.243.344-.376l.385-.47Zm2.58 2.886c-.044.08-.08.166-.107.254a2.264 2.264 0 0 1-.604-.163c-.564-.275-.75-.806-.477-1.354.304-.622.908-.717 1.417-.47.156.08.302.181.434.299-.037.098-.097.245-.187.483l-.111-.034c.087-.37-.055-.55-.248-.646-.299-.145-.666.022-.903.504-.207.424-.236.907.167 1.106a.18.18 0 0 0 .136.026c.04-.008.08-.04.121-.122l.12-.245c.087-.18.085-.205-.156-.353l.05-.102.74.362-.052.104c-.135-.033-.153-.033-.237.136l-.103.215Zm2.005-.91c.04-.334.014-.364-.23-.418l.018-.137 1.008.122-.019.14c-.246-.007-.284.017-.325.35l-.095.781c-.065.549.063.87.42.915.383.046.593-.256.667-.857l.045-.357c.023-.183.032-.367.029-.552-.002-.128-.074-.186-.293-.229l.015-.138.844.104-.017.138c-.17-.011-.253.033-.29.16a5.27 5.27 0 0 0-.097.54l-.046.372c-.044.366-.138.684-.347.875a.818.818 0 0 1-.66.192c-.225-.029-.433-.101-.582-.271-.153-.176-.2-.448-.148-.874l.103-.855Zm2.626.592c-.027-.192-.039-.263-.1-.327-.064-.065-.132-.075-.245-.073l-.02-.111.5-.073 1.205 1.166h.007l-.077-.522a4.274 4.274 0 0 0-.097-.502c-.03-.108-.108-.15-.294-.134l-.018-.114.691-.101.017.114c-.132.028-.19.083-.187.2.005.173.021.344.047.514l.17 1.17-.182.026-1.26-1.285h-.006l.092.63c.024.167.056.333.097.496.034.112.11.15.29.136l.017.112-.692.103-.019-.114c.135-.028.196-.082.195-.198a3.638 3.638 0 0 0-.043-.512l-.088-.601Zm2.135-.587c-.08-.236-.113-.25-.31-.204l-.037-.106.79-.269.036.11c-.187.083-.204.112-.123.35l.37 1.086c.08.236.111.25.307.202l.038.109-.788.269-.037-.11c.186-.084.204-.112.123-.35l-.37-1.087Zm2.395.69a144.35 144.35 0 0 0-1.249-1.125c-.187-.166-.236-.166-.38-.108l-.058-.1.708-.396.058.1c-.167.118-.158.14-.065.23.114.113.57.526.895.811l.008-.004a22.026 22.026 0 0 0-.212-1.097c-.044-.197-.073-.23-.272-.137l-.057-.103.577-.319.056.098c-.136.102-.165.14-.125.44.033.228.154.986.267 1.625l-.15.084Zm.577-2.258c-.164-.188-.2-.188-.361-.069l-.075-.088.97-.852c.038.035.194.192.333.33l-.079.086a.567.567 0 0 0-.25-.123c-.07-.009-.148.03-.26.13l-.084.07c-.07.064-.075.078-.01.152l.397.45.137-.12c.178-.157.175-.176.05-.368l.083-.076.439.497-.087.075c-.18-.154-.197-.16-.377-.004l-.139.122.351.397c.095.11.149.153.209.135a.599.599 0 0 0 .19-.13c.09-.081.166-.179.16-.275a.956.956 0 0 0-.085-.318l.102-.053a5.9 5.9 0 0 1 .268.45l-1.056.926-.073-.085c.167-.176.171-.208.008-.395l-.76-.864Zm1.396-1.59c-.048-.037-.07-.059-.073-.086 0-.04.015-.077.042-.106.085-.113.286-.193.527-.01a.462.462 0 0 1 .204.323.356.356 0 0 1-.093.25l-.043.056-.564-.428Zm.8 1.063c.197.15.201.185.088.365l.094.068.502-.662-.091-.07c-.14.153-.175.16-.375.008l-.35-.264.037-.047c.053-.07.102-.08.197-.059.168.043.34.075.511.095.216.016.338-.007.562-.276.023-.027.04-.05.062-.072l-.077-.075a.364.364 0 0 1-.194.054 2.505 2.505 0 0 1-.4-.023c-.16-.013-.38-.06-.47-.077a.518.518 0 0 0-.205-.579.453.453 0 0 0-.421-.089c-.124.04-.24.142-.383.33l-.46.608.09.07c.139-.145.17-.154.364-.005l.92.7Zm1.014-1.821c.174.027.548.033.672-.215.074-.152.005-.305-.158-.383-.17-.086-.327-.033-.517.11-.245.193-.49.29-.745.168-.295-.146-.427-.467-.255-.821.061-.117.143-.222.242-.31.105.04.236.081.43.149l-.027.109c-.19-.03-.434-.053-.534.15-.074.151.005.29.145.36.139.068.281.026.484-.136.244-.2.492-.294.767-.159.324.16.448.512.267.874a.8.8 0 0 1-.17.239 1.122 1.122 0 0 1-.135.119c-.082-.014-.282-.077-.48-.137l.014-.117Zm-.18-1.95c-.24-.076-.269-.057-.35.129l-.11-.035.257-.793.107.035c-.044.197-.03.232.208.306l1.093.35c.239.075.266.058.35-.131l.107.037-.254.793-.108-.035c.042-.198.03-.23-.209-.305l-1.092-.35Zm.122-1.562-.01.07c-.03.206.002.28.043.324a.872.872 0 0 0 .276.152l-.016.11c-.238-.044-.442-.09-.592-.117l.008-.064a.132.132 0 0 0 .094-.133l.155-1.099a.15.15 0 0 0-.053-.155l.006-.063c.129.017.38.037.594.052l-.008.112c-.168.01-.267.03-.32.066-.058.038-.09.125-.11.272l-.015.104 1.392.196c.25.036.275.011.33-.229l.112.016-.124.899-.113-.018c.008-.23-.005-.263-.253-.298l-1.396-.197Zm1.182-1.976a.332.332 0 0 0-.17.053c-.166.086-.353.2-.676.396-.189.115-.202.15-.217.293l-.113.009-.053-.775.113-.008c.04.181.068.175.16.127.201-.11.424-.242.616-.358a6.965 6.965 0 0 0-.649-.236c-.11-.032-.138-.026-.147.18l-.116.01-.047-.656.117-.008c.03.17.072.212.263.3.2.1.403.187.612.263a.416.416 0 0 0 .245.04l.347-.027c.267-.018.284-.04.29-.285l.113-.01.064.894-.116.008c-.036-.23-.056-.252-.323-.231l-.313.02ZM11.757 2.793c-.104.043-.104.058-.194.06a.282.282 0 0 1-.119-.01l-.112-.027c-.07-.02-.245-.045-.25-.295-.008-.27-.026-.532.02-.582.043-.052.024-.098.029-.137.003-.04.054-.055.082-.051.05.013.102.02.154.021.04-.01.08-.019.12-.025a.194.194 0 0 0 .167-.046s.136-.106.14-.184c.005-.08-.017-.179-.19-.178a2.907 2.907 0 0 1-.394-.022 5.952 5.952 0 0 0-.187-.022.218.218 0 0 0-.22.052c-.072.072-.057.119-.033.16.039.065.178.117.168.148-.009.034-.076.078-.09.104-.019.025-.052.065-.035.108a.13.13 0 0 1-.04.135.268.268 0 0 0-.043.177l.01.583s-.067.423.62.429c.155 0 .31-.014.463-.042.049-.016.063-.06.097-.096a.222.222 0 0 0-.006-.204.14.14 0 0 0-.157-.056Zm1.542-.677a6.006 6.006 0 0 0-.075-.72c-.003-.015.01-.209-.073-.218a.264.264 0 0 0-.133.01.094.094 0 0 0-.102.109c.007.118-.032.233-.03.323 0 .047.016.568.03.76-.077.004-.18.005-.245.006-.007-.4-.033-.977-.15-1.057-.09-.06-.117-.095-.191-.077a.093.093 0 0 0-.076.048.207.207 0 0 0-.002.16c.025.095.012.921.022 1.098.01.177.005.577.047.602a.113.113 0 0 0 .148-.013c.06-.05.167-.012.218-.06.022-.02 0-.235-.007-.33a.331.331 0 0 1-.003-.046l.065-.028a.355.355 0 0 1 .191-.012c.012.17.02.353.023.362a.161.161 0 0 0 .05.112.158.158 0 0 0 .113.044c.185.002.211-.05.245-.217.034-.168-.056-.602-.065-.856ZM7.491 3.27c.163-.103.196-.314.186-.476-.007-.161-.091-.54-.256-.592-.124-.04-.17-.012-.187-.003-.037.02-.088.071-.12.084a1.406 1.406 0 0 0-.248.104c-.128.063-.26.115-.397.155a.816.816 0 0 1-.162.007c-.05.005-.08.088-.08.088s-.067.196-.022.287c.043.092.112.137.294.063a.55.55 0 0 0 .255-.193c.06-.06.245-.286.365-.268.12.017.168.422.113.89-.004.001.01-.017.14-.1.057-.037.082-.022.12-.046Zm1.584-1.367a.246.246 0 0 1-.057-.07.234.234 0 0 0-.05-.051c-.052-.044-.168.026-.21.038a.778.778 0 0 0-.172.079.58.58 0 0 1-.174.096c-.066.022-.128.055-.186.076a.569.569 0 0 0-.08.032 1.884 1.884 0 0 0-.092-.137c-.028-.03-.17-.317-.336-.239-.048.023-.048.085-.06.108a.701.701 0 0 0 .048.338c.088.198.186.391.296.578a.179.179 0 0 0 .145.089c.05-.005.096-.025.133-.031a.131.131 0 0 0 .1-.093c.033-.084.018-.092-.007-.16a5.125 5.125 0 0 0-.118-.263.695.695 0 0 1 .085-.03c.095-.033.207.007.282.014a.726.726 0 0 0 .282-.085c.05-.037.073-.089.116-.126.12-.099.075-.145.055-.163Zm-.692 1.04-.203.058a.133.133 0 0 0-.07-.057.107.107 0 0 0-.09.057c-.01.024-.165.104-.215.174a.616.616 0 0 0-.134.147c-.052.087-.204.393.05.791.21.324.615.247.708.22.15-.044.506-.214.629-.45.133-.264.038-.481-.068-.661-.106-.189-.39-.329-.607-.279Zm.366.716c-.06.205-.305.311-.492.308-.205-.003-.325-.188-.318-.384a.327.327 0 0 1 .151-.277c.167-.092.174-.081.174-.081.208-.048.254.006.307.034.032.015.247.16.178.4Zm7.348-1.73a.162.162 0 0 0 .238.002c.094-.105.05-.21.032-.274a.287.287 0 0 0-.262-.15s-.138.026-.117.15c.017.097.054.19.11.272ZM15.405 3.5c.07.018.144.026.217.023a.481.481 0 0 1 .17-.008.373.373 0 0 0 .3-.157.721.721 0 0 0 .04-.735c-.046-.072-.1-.14-.159-.203-.071-.062.105.001.137.014.028.014.128.078.2.014.076-.067.046-.053.097-.079.04-.022.052-.066.011-.142a.348.348 0 0 0-.16-.162c-.084-.045-.3-.145-.374-.185l-.32-.165s-.193-.11-.257.04c-.063.15-.085.238.03.343.067.06.14.11.218.154a.79.79 0 0 0-.445.195c-.16.13-.302.411-.18.657a.798.798 0 0 0 .475.396Zm-.049-.746a.254.254 0 0 1 .322-.139c.266.093.294.31.262.423-.042.144-.109.172-.14.17a1.097 1.097 0 0 0-.14-.015c-.044.003-.044.036-.104.02a.239.239 0 0 1-.165-.119c-.046-.078-.12-.166-.035-.34Zm2.141.692c-.094-.135-.207-.166-.418-.286a.603.603 0 0 1-.249-.23c.058-.126.107-.238.125-.29.053-.14.182-.364.145-.565-.03-.185-.145-.106-.148-.102a.674.674 0 0 1-.108.112c-.034.019-.102.073-.103.109 0 0-.28.626-.414.964-.167.428-.197.52-.118.55a.22.22 0 0 0 .189-.013.275.275 0 0 0 .186-.195 3.8 3.8 0 0 1 .144-.344c.08.046.089.058.135.17.05.144.155.263.292.331.203.1.288.048.317.012a.17.17 0 0 0 .025-.223Zm-.912.624-.095-.035a.5.5 0 0 1-.162-.091 3.227 3.227 0 0 0-1.065-.416c-.148-.03-.166.041-.18.059 0 0-.085.116.104.19.143.057.207-.013.405.08.198.09.516.166.623.234.11.07.134.112.09.22-.044.111-.152.332-.152.332s-.038.124.056.158a.27.27 0 0 0 .216-.014c.086-.038.17-.25.194-.3.025-.05.138-.263-.034-.417ZM4.335 5.327s-.08.05-.105-.02c0 0-.072-.244-.217-.344 0 0-.109-.106-.213-.09-.066.008-.06.043-.065.051.002.033.012.027.03.08.03.09.04.118.02.489-.019.33-.009.289-.02.394-.011.076-.025.38.099.49.107.095.225.104.31-.014.077-.11.052-.219.064-.302a.756.756 0 0 1 .033-.201.29.29 0 0 1 .296-.177c.14.013.19.08.22.277.016.029.028.06.035.092a1.036 1.036 0 0 1-.097.371c-.066.115-.091.076-.129.12a.562.562 0 0 0-.053.32c.024.077.057.11.198.094.099-.011.16-.07.245-.246.07-.142.162-.519.125-.736a.914.914 0 0 0-.328-.593.412.412 0 0 0-.448-.055Zm1.632-.364c-.203-.176-.715-.684-.715-.684-.256-.243-.51-.285-.589-.279a.15.15 0 0 0-.097.135c-.011.111.092.2.14.245.048.046.062.044.096.103.036.057.045.065.22.229.035.036.03.112-.037.176-.066.066-.217.246-.217.246s.011-.022-.026.039c-.036.058.046.073.087.092a.193.193 0 0 0 .158.008.592.592 0 0 0 .191-.085c.06-.054.147-.15.147-.15.047-.022.058-.037.094-.014.035.024.536.5.626.54a.144.144 0 0 0 .168-.024c.035-.024.091-.002.093-.155.002-.196-.138-.243-.339-.421ZM19.505 4.7c.059.058.042.072.074.108.068.065.14.124.216.179.085.064.269.25.266.312-.006.056.005.154-.235.417-.263.294-.299.333-.303.416-.003.085-.002.074.033.125.04.057.085.097.221.008.083-.067.17-.13.259-.186a.845.845 0 0 0 .29-.293c.09-.14.155-.356-.032-.635-.109-.16-.12-.14-.167-.212-.05-.071-.26-.26-.335-.347-.071-.086-.155-.201-.195-.242-.026-.025-.08-.005-.112.018a.115.115 0 0 0-.07.116.32.32 0 0 0 .09.216Zm-1.145.22a.19.19 0 0 0 .05.106c.037.032.107.01.138.018.05.01.101.013.152.009.038-.008.048-.025.047-.056-.003-.033.062-.12.088-.172a.233.233 0 0 0-.025-.195c-.028-.036-.073-.04-.144.016a.26.26 0 0 1-.132.058.214.214 0 0 0-.17.126.16.16 0 0 0-.004.09Z"/>
    <path fill="#6F7271" d="M20.077 6.947c-.03-.046-.033-.076-.065-.122-.03-.05-.378-.367-.464-.45-.046-.047-.275-.312-.589-.625.025.005.05.006.074.003a.496.496 0 0 1 .165.009c.027.004.245-.139.256-.25a1.117 1.117 0 0 0-.008-.263.121.121 0 0 0-.195-.05.26.26 0 0 1-.119.04.352.352 0 0 0-.172.134c-.03.059-.065.115-.103.168a.93.93 0 0 0-.043.068 7.261 7.261 0 0 0-.635-.554.476.476 0 0 1-.13-.123c-.04-.06-.007-.135-.11-.172a.576.576 0 0 0-.117.005c-.054.007-.059.036-.08.043-.026.007-.102.027-.068.106.032.08.041.133.08.167.034.034.063.104.107.144.05.04.188.114.267.175.08.061.785.665.915.812.13.145.652.698.73.806a.196.196 0 0 0 .173.109.2.2 0 0 0 .174-.055c.02-.028-.011-.076-.043-.125Z"/>
    <path fill="#B60005" d="M16.106 14.24a1.24 1.24 0 0 0-.025-.126 13.596 13.596 0 0 0-.201-.697c-.258-.862-.603-1.84-.603-3.262 0-.82.168-1.48.37-2.436-.23-.247-.85-.891-1.05-1.105h-5.19c-.2.214-.822.858-1.05 1.105.203.957.373 1.615.373 2.436 0 1.422-.345 2.4-.607 3.263-.072.243-.143.473-.2.696 0 0-.012.044-.025.122L12 10.249l4.106 3.99Z"/>
    <path fill="#B60005" d="M8.14 15.96c.09.197.203.382.335.553.63.837 1.747 1.485 2.643 1.956.36.187.65.282.881.435v.001h.007v-.001c.228-.153.519-.248.88-.435.896-.472 2.01-1.119 2.64-1.956.133-.17.246-.355.336-.552L12 12.313 8.14 15.96Z"/>
    <path fill="#fff" d="M9.41 7.896c0-.098-.01-.133-.103-.14v-.034h.464v.037c-.094.007-.104.04-.104.143v1.26c0 .099.007.132.1.14v.038h-.46v-.036c.093-.007.103-.039.103-.14V7.895Zm1.653.533v-.525c0-.1.007-.134-.077-.141v-.04h.432v.04c-.094.007-.104.04-.104.141v1.254c0 .103.01.134.103.144v.038h-.457v-.036c.096-.007.103-.039.103-.141v-.62h-.617v.62c0 .102.005.134.094.14v.037h-.448v-.032c.093-.008.103-.042.103-.14V7.9c0-.102-.006-.135-.104-.142v-.037h.43v.033c-.081.008-.075.043-.075.141v.533h.617Zm.562.612c.025.065.187.236.444.236a.263.263 0 0 0 .276-.287c0-.165-.118-.271-.298-.363-.19-.098-.43-.237-.43-.484 0-.243.195-.452.54-.452.11.002.22.02.325.054.01.097.02.15.03.224l-.044.006c-.028-.074-.112-.19-.353-.19a.244.244 0 0 0-.249.258c0 .148.114.24.294.329.216.104.441.238.441.514 0 .284-.236.488-.576.488a.806.806 0 0 1-.229-.031.979.979 0 0 1-.17-.055 1.99 1.99 0 0 1-.041-.237l.04-.01Zm1.577 6.166-.118.344c.081.011.161.027.24.047l-.201.543s-.395-.066-.774-.086l.021-.586c.067 0 .133.004.2.012l.04-.344a7.545 7.545 0 0 0-1.202 0l.04.344c.064-.008.13-.012.194-.012l.024.586c-.377.02-.77.086-.77.086l-.206-.543a3.69 3.69 0 0 1 .242-.047l-.118-.344c-.423.067-.839.17-1.244.307.507.7.997 1.67.997 1.67a7.541 7.541 0 0 1 2.88 0c.29-.58.625-1.139.998-1.67a7.27 7.27 0 0 0-1.243-.307Z"/>
    <path fill="#6F7271" d="M21.448 8.506a.284.284 0 1 1-.567-.031.284.284 0 0 1 .567.031Zm-18.431.072a.283.283 0 1 1-.566-.032.283.283 0 0 1 .566.032Z"/>
  </g>
  <defs>
    <clipPath id="a">
      <path fill="#fff" d="M0 0h24v24H0z"/>
    </clipPath>
  </defs>
</svg>
