<svg xmlns="http://www.w3.org/2000/svg" width="24" height="24" fill="none" viewBox="0 0 24 24">
  <path fill="#6FBA2C" d="M8.255 12.004c.434-.709.718-1.58.998-2.426.31-.953.63-1.938 1.173-2.737 1.994-3.17 4.634-3.987 7.103-4.475-2.594.431-5.51 1.25-7.553 4.498C8.97 8.361 8.752 10.506 7.82 12.03c-.415.674-1.303 2.085-3.404 2.227 1.296.037 2.732-.45 3.84-2.252Z"/>
  <path fill="#6FBA2C" d="M21.042 1.912c-3.201.942-7.418.497-10.288 5.058-1.006 1.497-1.224 3.643-2.16 5.166-.612.993-2.439 3.702-7.153 1.527-.087-.044-.555-.289-.771-.555a1.566 1.566 0 0 1-.222-.33L0 13.08l.477.253c.3.181.609.345.927.492 1.417.652 3.895 1.393 6.037-.086l.017-.013c2.57-.56 7.038.824 9.325-.95C19.995 10.58 23.88 3.55 24 1a18.39 18.39 0 0 1-2.958.912Z"/>
  <path fill="#fff" d="M13.48 9.926a36.135 36.135 0 0 1-2.012 1.484c1.564-.017 5.255.843 5.508.905.008 0 0 .016 0 .016s-5.083-.843-5.792-.548c-.507.21-.793.92 0 1.824h-.02c.003 0-.965-.83-.839-1.463-.935.559-1.537.8-2.276 1.218 3.024-1.824 8.36-6.183 10.936-8.093-2.254 2.048-3.387 3.079-5.505 4.657Z"/>
  <path fill="#231815" d="M4.009 23.056a.228.228 0 0 1 .083.196.307.307 0 0 1-.108.227.374.374 0 0 1-.26.1.354.354 0 0 1-.291-.12.382.382 0 0 1-.1-.247h.16a.214.214 0 0 0 .138.215c.029.012.06.017.091.016a.203.203 0 0 0 .164-.062.19.19 0 0 0 .054-.13.121.121 0 0 0-.062-.11 1.257 1.257 0 0 0-.13-.071 4.724 4.724 0 0 0-.249-.106.208.208 0 0 1-.143-.2.288.288 0 0 1 .105-.22.368.368 0 0 1 .261-.096.33.33 0 0 1 .254.102c.062.06.1.14.107.225h-.166a.244.244 0 0 0-.048-.12.173.173 0 0 0-.152-.071.195.195 0 0 0-.186.109.167.167 0 0 0-.014.064c0 .055.04.097.119.124.08.027.143.053.194.076.063.026.123.06.179.099Zm.332.49v-1.077h.709v.13h-.547v.32h.533v.13h-.533v.366h.56v.13h-.722Zm1.9-.941a.567.567 0 0 1-.399.965.567.567 0 0 1-.217-1.089.564.564 0 0 1 .616.124Zm-.104.694a.416.416 0 0 0-.295-.712.417.417 0 1 0 .295.712Zm1.109.247-.434-.48v.48h-.166v-1.078h.16v.482l.435-.482h.202l-.492.538.498.54h-.203Zm.94-.391v.39h-.16v-.39l-.392-.69h.177l.295.521.295-.52h.18l-.394.689Zm.603.39V22.47h.709v.13H8.95v.32h.533v.13H8.95v.366h.563v.13H8.79Zm1.897-.94a.56.56 0 1 1-.798.787.56.56 0 0 1 .798-.787Zm-.104.694a.416.416 0 1 0-.588-.589.416.416 0 0 0 .588.59Zm1.19.247-.521-.825v.826h-.158V22.47h.177l.521.828v-.83h.157v1.077h-.176Zm1.53-.562a.564.564 0 0 1-.964.419.567.567 0 1 1 .944-.557h-.156a.508.508 0 0 0-.13-.175.368.368 0 0 0-.253-.086.413.413 0 0 0-.386.256.416.416 0 0 0 .383.58.37.37 0 0 0 .278-.102.464.464 0 0 0 .13-.2h-.47v-.13l.624-.005Zm1.7.182a.4.4 0 1 1-.803 0v-.7h.147v.712a.283.283 0 0 0 .065.17.26.26 0 0 0 .38 0 .283.283 0 0 0 .064-.17v-.713h.146v.701Zm.912.38-.522-.825v.826h-.157V22.47h.176l.52.828v-.83h.157v1.077h-.174Zm.43.006v-1.078h.161v1.078h-.16Zm.997.005h-.153l-.455-1.079h.174l.358.858.358-.858h.171l-.453 1.08Zm.659-.011v-1.077h.709v.13h-.547v.32h.533v.13h-.533v.366h.56v.13H18Zm1.564 0-.435-.522h.251a.214.214 0 0 0 .196-.126.194.194 0 0 0 .015-.082.2.2 0 0 0-.064-.155.215.215 0 0 0-.147-.06h-.267v.955h-.151V22.48h.443a.337.337 0 0 1 .23.093.313.313 0 0 1 .103.243.299.299 0 0 1-.106.234.37.37 0 0 1-.22.097l.333.412-.181-.013Zm1.074-.49a.229.229 0 0 1 .083.196.306.306 0 0 1-.108.227.372.372 0 0 1-.26.1.354.354 0 0 1-.291-.12.382.382 0 0 1-.1-.247h.16a.208.208 0 0 0 .06.164.225.225 0 0 0 .169.067.203.203 0 0 0 .164-.062.19.19 0 0 0 .054-.13.121.121 0 0 0-.062-.11 1.136 1.136 0 0 0-.13-.071 4.712 4.712 0 0 0-.249-.106.207.207 0 0 1-.138-.21.288.288 0 0 1 .106-.22.37.37 0 0 1 .26-.095.338.338 0 0 1 .26.102c.061.06.099.14.106.225h-.16a.243.243 0 0 0-.048-.12.173.173 0 0 0-.153-.071.196.196 0 0 0-.2.112.165.165 0 0 0-.013.065c0 .055.039.096.118.124.08.027.144.053.195.075a.973.973 0 0 1 .177.105Zm.35.496v-1.078h.162v1.078h-.162Zm.867-.936v.93h-.138v-.924h-.3v-.13h.738v.13l-.3-.006Zm1.082.539v.39h-.162v-.39l-.391-.69h.176l.296.521.293-.52h.178l-.39.689Zm-6.833-6.84a.185.185 0 0 1 .066.158.249.249 0 0 1-.086.184.304.304 0 0 1-.215.08.287.287 0 0 1-.23-.098.312.312 0 0 1-.081-.2h.13a.176.176 0 0 0 .048.13.18.18 0 0 0 .137.054.158.158 0 0 0 .13-.05.146.146 0 0 0 .044-.099.098.098 0 0 0-.049-.09.826.826 0 0 0-.105-.056c-.059-.028-.13-.057-.201-.086a.168.168 0 0 1-.112-.169.23.23 0 0 1 .086-.179.299.299 0 0 1 .206-.076.273.273 0 0 1 .206.082.28.28 0 0 1 .085.182h-.13a.197.197 0 0 0-.041-.096.13.13 0 0 0-.123-.059.155.155 0 0 0-.15.087.132.132 0 0 0-.011.053c0 .044.032.078.096.1a.976.976 0 0 1 .3.147Zm.272.402v-.872h.13v.872h-.13Zm.868-.002-.42-.667v.669h-.13v-.87h.142l.425.668v-.67h.13v.87h-.147Zm1.069-.607a.67.67 0 0 0-.1-.108.28.28 0 0 0-.2-.066.314.314 0 0 0-.241.103.328.328 0 0 0-.096.234.329.329 0 0 0 .095.235.316.316 0 0 0 .242.101.288.288 0 0 0 .202-.066.43.43 0 0 0 .095-.11h.13a.464.464 0 0 1-.427.297.457.457 0 1 1 0-.912.423.423 0 0 1 .267.088.473.473 0 0 1 .162.21l-.13-.006Zm.31.604v-.871h.573v.108h-.441v.26h.43v.11h-.43v.288h.452v.108l-.584-.003Zm1.577.017v-.77h-.222v-.102h.34v.872H20.2Zm.873-.807a.287.287 0 0 1 .089.213.26.26 0 0 1-.031.13l-.261.46h-.13l.183-.321a.291.291 0 0 1-.242-.037.288.288 0 0 1-.11-.338.305.305 0 0 1 .503-.107Zm-.08.337a.19.19 0 0 0 .041-.205.19.19 0 0 0-.172-.118.189.189 0 1 0 .07.364.182.182 0 0 0 .06-.04Zm.872.346v.112h-.13v-.112h-.403v-.097l.41-.666h.118v.652h.089v.11h-.084Zm-.13-.538-.268.43h.268v-.43Zm.99-.111-.379.762h-.13s.057-.121.172-.356c.115-.234.184-.368.202-.408h-.448v-.108h.582v.11ZM9.466 18.285a1.26 1.26 0 0 0 .073-.364.39.39 0 0 0-.062-.227c-.074-.107-.224-.167-.456-.174H7.624v.36H8.81a.262.262 0 0 1 .222.104.207.207 0 0 1 .027.106.652.652 0 0 1-.068.243c-.293.586-.936.687-1.485.696v.346c1.03-.024 1.707-.404 1.96-1.09Zm.26.989a1.317 1.317 0 1 0 .003 2.634 1.317 1.317 0 0 0-.004-2.634h.001Zm0 2.239a.92.92 0 1 1 .352-.07.92.92 0 0 1-.353.07h.001Zm-2.95-4.038h-.13v.683h-1.16v.374h1.16v1.336h-.4a1.353 1.353 0 0 1-1.342-1.312v-1.08h-.447v1.082a1.35 1.35 0 0 1-1.261 1.303v.416a1.777 1.777 0 0 0 1.418-.794l.067-.102.067.102a1.784 1.784 0 0 0 1.499.805h.398v1.275h.433v-3.788a.3.3 0 0 0-.302-.3Zm3.787 1.97h.435v-1.654a.3.3 0 0 0-.298-.3h-.13v.32h-.797v.331h.798v.38h-.798v.332h.798l-.008.592Zm12.47.973V18.44c0-.595-.477-.906-.948-.906h-2.079v.39h2.079a.498.498 0 0 1 .501.423v2.07h-.625V19.18a.298.298 0 0 0-.3-.299h-.148v1.537h-.522V19.18a.298.298 0 0 0-.3-.299h-.13v1.537h-.79v.33h3.65v-.33h-.388Zm-4.007-2.643a.3.3 0 0 0-.3-.3h-.147v2.247h.447v-1.117h.551v-.375h-.551v-.455Zm-4.32-.26h-.13v.71h-.522v-.41a.3.3 0 0 0-.298-.3h-.149v1.99h-1.443a.26.26 0 0 1-.224-.26v-1.364H13v-.361h-1.477v1.774a.588.588 0 0 0 .597.573h1.471v1.694h.449v-2.968h.52v2.972h.432v-3.746a.299.299 0 0 0-.29-.3l.005-.005Zm3.425 2.512h-2.138v.375h2.138c.285 0 .409.119.427.415v.745h.447v-.745c0-.39-.103-.79-.874-.79Zm-.344-1.395a1.067 1.067 0 0 0-.287-.723h.378v-.375h-.957v-.077a.3.3 0 0 0-.3-.3h-.13v.377h-.956v.375h.378a1.062 1.062 0 0 0-.287.724 1.081 1.081 0 1 0 2.163 0h-.002Zm-1.771 0a.69.69 0 1 1 1.379-.01.69.69 0 0 1-1.38.01Z"/>
</svg>
