<svg xmlns="http://www.w3.org/2000/svg" width="24" height="24" fill="none" viewBox="0 0 24 24">
  <g clip-path="url(#a)">
    <path fill="#fff" d="M20.383 3.709A11.765 11.765 0 0 0 12.02.225a11.766 11.766 0 0 0-8.375 3.453 11.758 11.758 0 0 0-3.481 8.358 11.768 11.768 0 0 0 3.451 8.378 11.762 11.762 0 0 0 8.363 3.483 11.766 11.766 0 0 0 8.375-3.454 11.764 11.764 0 0 0 3.481-8.364v-.023a11.75 11.75 0 0 0-3.45-8.347Z"/>
    <path fill="#565353" d="m6.846 2.507-.937.54a.004.004 0 0 0-.002.003.004.004 0 0 0 0 .003l.116.2c0 .002.003.003.005.002l.69-.398c.012-.007.022-.01.028-.008.003.001.01.006.02.023l.409.71a.006.006 0 0 0 .007.001l.235-.135c.003-.002.004-.005.002-.008l-.53-.918c-.014-.025-.036-.02-.043-.015Z"/>
    <path fill="#565353" d="m7.804 3.645.273.474c.001.002.003.002.005.001l.236-.136c.002 0 .003-.003.002-.005L7.733 2.96l.241-.14c.002 0 .004-.003.003-.005l-.115-.2a.006.006 0 0 0-.003-.002h-.003l-.243.14-.388-.673a.005.005 0 0 0-.006-.002l-.236.136a.004.004 0 0 0-.001.006l.703 1.218-.655.378-.324-.563c-.001-.001-.004-.002-.006 0l-.235.135c-.002 0-.003.004-.002.005l.324.563-.346.2c-.001 0-.002.003-.001.005l.116.2c0 .002.003.003.005.002l1.244-.717m10.507-.703-.002-.003-.222-.133a.005.005 0 0 0-.006.002l-.362.603-.126-.076.362-.603v-.004l-.001-.002-.222-.133-.006.001-.723 1.205-.617-.37a.03.03 0 0 1-.014-.019c-.002-.008 0-.018.007-.03l.489-.814.474.285c.002 0 .005 0 .006-.002l.119-.198c0-.001 0-.004-.002-.005l-.714-.428c-.002-.002-.005-.001-.006 0l-.591.987c-.055.091-.076.172-.064.238.013.066.059.123.136.17l.359.215.295.177-.28.467-.001.001v.004h.002l.221.135h.003c.002 0 .002-.001.003-.002l.642-1.07.127.076-.643 1.069c0 .002 0 .004.002.005l.221.135h.003c.002 0 .003-.001.003-.002l1.127-1.879.001-.003m3.357 4.091-.76-1.259a.005.005 0 0 0-.005-.002l-.198.12a.005.005 0 0 0-.001.005l.61 1.012a.043.043 0 0 1 .007.025c-.001.01-.011.017-.021.023l-.947.571a.006.006 0 0 0-.002.003v.004l.143.237a.005.005 0 0 0 .007.002l1.154-.696c.026-.02.014-.044.014-.045Z"/>
    <path fill="#565353" d="M20.42 8.045s0-.002-.002-.003l-.37-.614.732-.442c.002-.001.003-.004.001-.005l-.137-.228a.005.005 0 0 0-.006-.001l-.732.441-.097-.161.732-.442c.002-.001.002-.004.001-.006l-.137-.227c-.001-.002-.004-.002-.005-.001l-.733.441-.244-.405a.004.004 0 0 0-.006-.001l-.2.12c-.001.001-.002.004 0 .006l.995 1.65c.001.002.004.003.006.001l.2-.12v-.002m-4.803-5.478-1.832-.52h-.002a.007.007 0 0 0-.003.003l-.062.218c0 .002.001.004.003.005l.767.217-.033.115-.568-.161a.005.005 0 0 0-.006.003l-.06.212c0 .003 0 .005.003.005l1.144.325-.032.11-1.143-.324h-.004l-.001.002-.091.32c-.019.064-.032.135.005.186.022.032.058.054.113.07l1.241.352c.002 0 .004 0 .005-.003l.062-.217v-.003a.004.004 0 0 0-.003-.003l-1.13-.32c-.005-.002-.01-.007-.008-.013l.025-.09 1.094.31c.019.006.033.005.045-.004a.068.068 0 0 0 .022-.035l.126-.446c.005-.017 0-.038-.02-.044l-.52-.147.033-.116.766.218h.003l.002-.002.062-.218c0-.002 0-.004-.003-.005m-.036-.323a.937.937 0 0 1-.127-.052c-.236-.116-.472-.32-.392-.61l.041-.145a.005.005 0 0 0-.002-.006l-.294-.083a.005.005 0 0 0-.005.003l-.041.146c-.084.288-.393.338-.653.313a.895.895 0 0 1-.137-.022c-.018-.002-.015.019-.015.019l.049.188s.004.006.01.007c.15.043.309.059.462.031a.869.869 0 0 0 .247-.087c.03-.016.062-.032.087-.054.01.032.03.063.047.092a.85.85 0 0 0 .164.204c.116.103.258.173.41.217.005.001.01-.002.012-.002l.141-.134s.014-.017-.004-.025ZM2.63 9.104a.347.347 0 1 1-.694-.009.347.347 0 0 1 .694.009Zm19.445.01a.346.346 0 1 1-.694 0 .346.346 0 1 1 .695 0Z"/>
    <path fill="#565353" d="M20.501 3.53A11.925 11.925 0 0 0 12.021 0 11.923 11.923 0 0 0 3.53 3.5 11.92 11.92 0 0 0 0 11.977a11.926 11.926 0 0 0 3.5 8.494A11.922 11.922 0 0 0 11.98 24a11.927 11.927 0 0 0 8.492-3.5A11.927 11.927 0 0 0 24 12.018v-.024c0-3.194-1.242-6.2-3.499-8.465Zm-.252 16.745a11.608 11.608 0 0 1-8.27 3.409 11.607 11.607 0 0 1-8.256-3.438 11.609 11.609 0 0 1-3.408-8.27 11.598 11.598 0 0 1 3.438-8.252A11.607 11.607 0 0 1 12.02.316a11.613 11.613 0 0 1 8.257 3.437 11.6 11.6 0 0 1 3.408 8.265 11.61 11.61 0 0 1-3.437 8.257"/>
    <path fill="#B4131D" d="M14.474 5.617H9.478a.026.026 0 0 0-.025.026v5.022h1.312l1.212-1.684 1.212 1.684h1.313V5.643c0-.014-.013-.026-.028-.026Z"/>
    <path fill="#173A79" d="M9.453 10.665H4.43a.027.027 0 0 0-.026.027v3.338h1.683v1.683H9.43c.014 0 .023-.01.023-.021v-5.027Z"/>
    <path fill="#9E9C9D" d="M19.55 14.03h-1.683v-1.683h1.683v-1.661a.02.02 0 0 0-.014-.02.02.02 0 0 0-.008-.001h-5.026v5.024l.001.01a.026.026 0 0 0 .005.007.024.024 0 0 0 .008.005.022.022 0 0 0 .01.002h5a.023.023 0 0 0 .024-.024V14.03Z"/>
    <path fill="#565353" d="m5.72 19.13-.024-.024a.247.247 0 0 0-.03-.027.252.252 0 0 0-.03-.022l-.009-.005-.632.661.31-.97-.003-.005a.309.309 0 0 0-.048-.055.226.226 0 0 0-.026-.023l-.02-.015-.017-.012-.007.007-.885.925.005.008.02.028.004.003.024.025.025.021.003.004.03.021.008.005.63-.659-.307.969.02.027.005.006c.008.01.017.018.026.026.009.01.018.017.027.024l.03.021.008.004.891-.932-.027-.035Zm3.477 1.97-.039-.01-.038-.005h-.009l-.003.008-.366 1.229.043.019.026.01.012.004.034.008.006.002.014.001.033.004.001-.01.367-1.227-.043-.02a.572.572 0 0 0-.038-.013Zm-2.964-1.543a.633.633 0 0 0-.14-.11l-.006-.004-.005.004-1.07.79.006.008a.472.472 0 0 0 .058.055c.01.01.022.017.032.023a.282.282 0 0 0 .035.02l.006.004.238-.184c.013.01.293.23.305.241l-.123.275.004.006c.009.01.018.02.028.028l.03.026.036.027.035.02.011.007.005-.012.52-1.219-.005-.005Zm-.466.677-.232-.184.482-.372-.25.556ZM8 20.672a.563.563 0 0 0-.14-.07l-.01-.003-.326.654c-.027.056-.059.11-.094.16a.358.358 0 0 1-.088.094.154.154 0 0 1-.088.03.218.218 0 0 1-.102-.025.23.23 0 0 1-.082-.065.16.16 0 0 1-.028-.09.356.356 0 0 1 .02-.127 1.28 1.28 0 0 1 .074-.172l.327-.653-.008-.005a.518.518 0 0 0-.14-.07l-.008-.003-.005.01-.336.673a1.2 1.2 0 0 0-.086.215.512.512 0 0 0-.017.185.323.323 0 0 0 .06.152.409.409 0 0 0 .147.116c.063.03.123.046.18.046.056 0 .11-.014.157-.042a.477.477 0 0 0 .138-.125c.041-.053.081-.117.12-.197l.343-.683L8 20.672Zm-.17 1.346h-.001Zm1.056-1.001-.026-.014L8.854 21a.199.199 0 0 0-.032-.016l-.006-.002-.032-.01-.046-.01-.004.008-.321.849-.093-1.015-.005-.003c-.01-.007-.022-.013-.031-.018a.233.233 0 0 1-.012-.005l-.021-.01-.035-.01a.214.214 0 0 0-.037-.009h-.008l-.003.007-.453 1.198.007.005.03.018.037.015c.01.005.022.008.036.01l.032.009.012.002.323-.852c.007.087.095 1.012.095 1.012l.037.02.003.001c.01.005.02.01.03.012.01.005.02.008.034.013l.03.005.015.004.003-.009.453-1.198-.007-.005Zm-2.156-1.1a.625.625 0 0 0-.06-.049.393.393 0 0 0-.069-.036l-.008-.003-.005.007-.71 1.067.492.328.006-.007a.605.605 0 0 0 .049-.066.485.485 0 0 0 .041-.07l.004-.008-.347-.231.614-.925-.007-.007Zm-2.347-2.256a.377.377 0 0 0-.04-.067l-.02-.027-.004-.005-.022-.022-.012-.012-.008.006-1.034.755.003.008c.005.01.01.021.019.034l.022.033.025.032c.008.01.017.018.027.027l.006.006 1.042-.76-.004-.008Zm18.445-4.659a.395.395 0 0 0-.033-.16.434.434 0 0 0-.126-.158.677.677 0 0 0-.202-.103 1.225 1.225 0 0 0-.262-.051 1.23 1.23 0 0 0-.267 0 .684.684 0 0 0-.22.065.399.399 0 0 0-.224.331.399.399 0 0 0 .16.367c.053.043.12.077.202.104a1.249 1.249 0 0 0 .529.051.675.675 0 0 0 .218-.065.412.412 0 0 0 .153-.13.498.498 0 0 0 .071-.25Zm-.18.033a.216.216 0 0 1-.043.119.261.261 0 0 1-.104.076.532.532 0 0 1-.159.038 1.124 1.124 0 0 1-.207-.002 1.1 1.1 0 0 1-.203-.036.515.515 0 0 1-.149-.067.224.224 0 0 1-.108-.22.218.218 0 0 1 .045-.12.252.252 0 0 1 .103-.076.505.505 0 0 1 .158-.038c.063-.005.132-.005.206.003.073.006.142.018.205.036.059.018.108.04.15.067a.268.268 0 0 1 .085.094.218.218 0 0 1 .02.126ZM1.24 12.249h.01a.605.605 0 0 0 .08-.004l.009-.002.005-.445.412.003-.002.347.008.001.038.005h.008l.036.002h.04l.04-.005.008-.002.004-.346.343.003-.004.434.009.002.04.004.041.002a.715.715 0 0 0 .08-.005h.01l.004-.61-1.293-.01v.01l-.005.61h.009a.301.301 0 0 0 .04.005l.03.001m1.27.554a.42.42 0 0 0-.068-.201.427.427 0 0 0-.153-.133.654.654 0 0 0-.217-.066 1.257 1.257 0 0 0-.53.044.672.672 0 0 0-.204.101.417.417 0 0 0-.127.156.415.415 0 0 0-.033.21.42.42 0 0 0 .067.201.428.428 0 0 0 .151.132c.06.032.134.055.218.066a1.294 1.294 0 0 0 .53-.044.636.636 0 0 0 .204-.1.424.424 0 0 0 .128-.156.4.4 0 0 0 .034-.21Zm-.203.14a.265.265 0 0 1-.088.094.522.522 0 0 1-.15.064 1.094 1.094 0 0 1-.41.034.482.482 0 0 1-.158-.039.242.242 0 0 1-.103-.078.22.22 0 0 1-.043-.119.219.219 0 0 1 .023-.126.25.25 0 0 1 .088-.093.549.549 0 0 1 .15-.065 1.133 1.133 0 0 1 .411-.034.54.54 0 0 1 .157.04.251.251 0 0 1 .102.077c.026.035.04.077.043.12a.232.232 0 0 1-.022.125Zm1.708 4.547.013-.007a.206.206 0 0 0 .031-.016c.01-.004.019-.01.027-.015l.01-.005a.733.733 0 0 0 .006-.004l.027-.02.029-.024.007-.007-.005-.007-.388-.604-.008.004a.444.444 0 0 0-.06.032l-.01.005-.034.024-.028.022-.011.01.006.008.143.224-.935.602.004.008a.465.465 0 0 0 .083.13l.006.008.937-.6.15.232Zm-2.303-3.127c.07 0 .147-.008.23-.024l.75-.143v-.01a.593.593 0 0 0-.03-.157l-.003-.009-.718.138c-.061.013-.123.02-.185.023a.35.35 0 0 1-.128-.014.158.158 0 0 1-.078-.053.225.225 0 0 1-.04-.098.224.224 0 0 1 .003-.107.165.165 0 0 1 .053-.079.403.403 0 0 1 .114-.06c.05-.018.11-.033.18-.047l.719-.138v-.01a.56.56 0 0 0-.029-.154l-.003-.01-.01.003-.74.141a1.093 1.093 0 0 0-.223.065.468.468 0 0 0-.158.099.311.311 0 0 0-.084.143.418.418 0 0 0-.004.19.417.417 0 0 0 .07.175.326.326 0 0 0 .13.102.48.48 0 0 0 .184.034Zm-.158-2.974c.05.005.095.003.136-.005a.306.306 0 0 0 .106-.043.375.375 0 0 0 .082-.074.85.85 0 0 0 .07-.101l.046-.08a.863.863 0 0 1 .036-.056.22.22 0 0 1 .042-.043.147.147 0 0 1 .05-.027.141.141 0 0 1 .063-.006c.058.005.098.023.123.057.025.034.035.08.03.14a.456.456 0 0 1-.025.116.704.704 0 0 1-.038.088l-.006.01.01.005a.632.632 0 0 0 .147.047l.008.002.004-.008a.667.667 0 0 0 .072-.247.365.365 0 0 0-.07-.274.353.353 0 0 0-.251-.118.395.395 0 0 0-.12.005.308.308 0 0 0-.093.034.266.266 0 0 0-.07.059.507.507 0 0 0-.054.076l-.05.08a2.562 2.562 0 0 1-.052.084.273.273 0 0 1-.05.056.156.156 0 0 1-.06.031.24.24 0 0 1-.082.004.193.193 0 0 1-.146-.07c-.035-.04-.048-.098-.041-.178a.476.476 0 0 1 .072-.224l.006-.01-.012-.005-.077-.03a.44.44 0 0 0-.081-.02l-.008-.002-.003.008-.029.059a.453.453 0 0 0-.04.13.618.618 0 0 0-.01.081l-.002.003a.419.419 0 0 0 .082.312.4.4 0 0 0 .285.134Zm21.309.412a.967.967 0 0 0-.011-.08.438.438 0 0 0-.046-.145l-.003-.006h-.007l-.63.001-.002.011a.36.36 0 0 0 .001.15l.003.008.497-.001a.368.368 0 0 1 .018.13v.004a.288.288 0 0 1-.114.238.46.46 0 0 1-.149.07.81.81 0 0 1-.214.026.857.857 0 0 1-.213-.024.464.464 0 0 1-.156-.068.281.281 0 0 1-.127-.239.456.456 0 0 1 .039-.202l.005-.01-.012-.004a1.216 1.216 0 0 0-.071-.022l-.002-.001a.489.489 0 0 0-.079-.011h-.007l-.003.007a.498.498 0 0 0-.037.112.66.66 0 0 0-.013.146.437.437 0 0 0 .185.36.623.623 0 0 0 .214.1.976.976 0 0 0 .279.035.986.986 0 0 0 .275-.035.605.605 0 0 0 .208-.1.43.43 0 0 0 .13-.161.496.496 0 0 0 .045-.214.905.905 0 0 0-.003-.075ZM2.814 14.582v-.01a.274.274 0 0 0-.005-.036v-.001a.366.366 0 0 0-.024-.084l-.018-.036-.008.003-1.235.347.16.568.009-.001a.754.754 0 0 0 .079-.018l.012-.004.027-.008a.346.346 0 0 0 .038-.014l.009-.004-.113-.403 1.07-.299Zm.814 1.895-.016-.035-.003-.004a1.299 1.299 0 0 0-.05-.076l-.004-.005-.007.001-1.295.3.003.011a.435.435 0 0 0 .032.074c.006.01.011.023.02.034l.022.03.006.008.291-.075.185.342-.221.204.001.006a.382.382 0 0 0 .078.145l.008.01.969-.922-.019-.048Zm-.679.48c-.012-.023-.13-.24-.141-.263l.591-.15-.45.412Zm.396-.982a.378.378 0 0 0-.058-.138l-.005-.008s-.764.32-.844.355l.673-.767-.001-.005a.227.227 0 0 0-.01-.036l-.012-.033-.002-.006-.013-.027a.233.233 0 0 0-.02-.032l-.005-.007-.008.003-1.18.495v.009l.008.03.001.004a.295.295 0 0 0 .015.038l.015.033.019.032.005.008.008-.005.832-.348-.667.766v.005c.002.011.006.023.01.035l.012.034v.002l.015.03a.214.214 0 0 0 .02.032l.005.008 1.188-.5-.001-.007m1.552 2.368a.404.404 0 0 0-.094-.19.41.41 0 0 0-.173-.125.451.451 0 0 0-.2-.019.69.69 0 0 0-.216.073c-.08.042-.154.093-.221.152-.07.057-.131.122-.184.193a.65.65 0 0 0-.107.201.428.428 0 0 0-.013.2c.012.065.044.13.096.19.05.06.108.102.171.125a.415.415 0 0 0 .2.02.659.659 0 0 0 .216-.074 1.15 1.15 0 0 0 .22-.15c.074-.063.136-.13.185-.194a.66.66 0 0 0 .107-.2.434.434 0 0 0 .013-.202Zm-.195.169a.506.506 0 0 1-.083.14 1.116 1.116 0 0 1-.314.268.574.574 0 0 1-.151.06.26.26 0 0 1-.13-.004.229.229 0 0 1-.104-.072.224.224 0 0 1-.056-.146.27.27 0 0 1 .019-.098.53.53 0 0 1 .084-.139 1.137 1.137 0 0 1 .313-.267.51.51 0 0 1 .151-.06.26.26 0 0 1 .129.004.219.219 0 0 1 .104.072.223.223 0 0 1 .038.242Zm17.809-3.845a.416.416 0 0 0-.086-.182.693.693 0 0 0-.176-.146 1.158 1.158 0 0 0-.244-.107 1.198 1.198 0 0 0-.26-.058.678.678 0 0 0-.228.013.428.428 0 0 0-.179.093.408.408 0 0 0-.113.18.401.401 0 0 0 .073.394.664.664 0 0 0 .175.146 1.25 1.25 0 0 0 .505.166c.085.008.16.003.227-.014a.4.4 0 0 0 .29-.274.458.458 0 0 0 .023-.125.334.334 0 0 0-.007-.086Zm-.185.156a.224.224 0 0 1-.07.105.251.251 0 0 1-.117.053.527.527 0 0 1-.164.001 1.075 1.075 0 0 1-.201-.048 1.044 1.044 0 0 1-.19-.08.478.478 0 0 1-.13-.099.22.22 0 0 1-.057-.238.226.226 0 0 1 .07-.106.247.247 0 0 1 .117-.052c.054-.01.11-.01.164-.002a1.14 1.14 0 0 1 .39.129c.054.03.098.062.13.097a.252.252 0 0 1 .065.113.196.196 0 0 1 .006.058.275.275 0 0 1-.013.069Zm-2.918 4.889-.132-.02c-.011-.126-.069-.268-.182-.447l-.008-.01-.116.101.005.009c.083.125.133.23.153.322a17.557 17.557 0 0 1-.407-.076.601.601 0 0 0 .04-.2.306.306 0 0 0-.08-.211.28.28 0 0 0-.19-.102.25.25 0 0 0-.184.066.277.277 0 0 0-.1.213c0 .08.033.158.087.219a.467.467 0 0 0 .24.134.537.537 0 0 0-.023.151c0 .1.034.19.103.268a.369.369 0 0 0 .235.127c.095.01.188-.02.268-.09a.445.445 0 0 0 .154-.316l.07.008.081.011.004-.003.147-.13-.165-.024Zm-.812-.144a.36.36 0 0 1-.195-.105.202.202 0 0 1-.054-.126v-.009a.108.108 0 0 1 .04-.077v-.001c.061-.054.138-.021.188.034a.193.193 0 0 1 .047.134c0 .044-.01.094-.026.15Zm.446.472h-.002c-.094.083-.228.068-.32-.036a.267.267 0 0 1-.067-.182c0-.026.004-.054.01-.082.175.034.36.065.472.083v.002a.282.282 0 0 1-.094.215m-.576.618-.022-.035a.627.627 0 0 0-.048-.063l-.006-.007-.37.25-.231-.34.286-.194-.004-.01a.543.543 0 0 0-.04-.07l-.004-.006-.02-.027-.018-.02-.015-.017-.007.006-.279.189-.192-.283.359-.244-.004-.009a.496.496 0 0 0-.09-.132l-.007-.008-.008.006-.496.336.727 1.07.513-.348-.004-.008a.2.2 0 0 0-.02-.036Zm.964-2.374-.006-.008a.408.408 0 0 0-.026-.028v-.002l-.03-.029a8.27 8.27 0 0 1-.03-.027.251.251 0 0 0-.033-.022l-.008-.005-.006.007-.487.527.032.037.007.007.023.022c.009.009.02.017.031.026l.033.024.008.005.186-.203.818.756.007-.006a.614.614 0 0 0 .105-.114l.006-.009s-.8-.74-.818-.755l.188-.203Zm3.245-4.746-.037-.007a.533.533 0 0 0-.042-.004h-.01l-.002.009-.075.4-1.092-.203-.003.009a.217.217 0 0 0-.012.036l-.01.04-.004.033v.005l-.002.002-.001.045.01.001 1.26.236.109-.58-.01-.003a.465.465 0 0 0-.079-.02Zm-1.903 4.75-.031-.025a.54.54 0 0 0-.066-.046l-.008-.005-.276.35c-.017-.013-.308-.243-.325-.255l.215-.272-.006-.007a.314.314 0 0 0-.023-.022L20.244 18l-.03-.028a.335.335 0 0 0-.033-.023.213.213 0 0 0-.035-.02l-.007-.005-.215.271-.268-.212.268-.34-.006-.007a.226.226 0 0 0-.03-.028l-.03-.026a.703.703 0 0 0-.065-.046l-.01-.005-.005.007-.371.47 1.015.802.384-.486-.005-.007a.291.291 0 0 0-.03-.028m-3.153 2.753-.01-.007-.006.01a.435.435 0 0 1-.154.14.325.325 0 0 1-.137.043.291.291 0 0 1-.136-.023.421.421 0 0 1-.132-.096.754.754 0 0 1-.127-.175.698.698 0 0 1-.105-.366.278.278 0 0 1 .15-.229l.06-.03a.328.328 0 0 1 .048-.018l.044-.01.01-.002.046-.008-.002-.011-.016-.076a.434.434 0 0 0-.026-.074l-.004-.007-.008.001a.67.67 0 0 0-.249.084.447.447 0 0 0-.234.343.664.664 0 0 0 .017.235c.02.083.055.17.105.26.05.088.105.163.163.22a.618.618 0 0 0 .19.134.455.455 0 0 0 .414-.027.538.538 0 0 0 .21-.187l.004-.007-.005-.006a.577.577 0 0 0-.11-.11m3.458-5.986-.018.03-.002.001-.014.03a.21.21 0 0 0-.014.037.265.265 0 0 0-.01.038l-.002.009.84.362-1.017.049-.003.003a.218.218 0 0 0-.019.031.182.182 0 0 0-.016.033l-.013.034-.008.028-.003.016.008.004 1.177.506.013-.02.011-.018.006-.012.01-.023a.276.276 0 0 0 .013-.035.185.185 0 0 0 .01-.035l.002-.01-.837-.359 1.014-.052.003-.003a.322.322 0 0 0 .02-.032c.006-.01.01-.02.016-.033l.003-.008.009-.025a.275.275 0 0 0 .01-.036l.001-.01-1.185-.508-.005.008Zm-.388.914-.022.03-.001.001-.013.02-.009.015-.017.037a.296.296 0 0 0-.013.034l-.003.009.46.25c-.011.017-.198.361-.208.38l-.458-.25-.006.006a1.956 1.956 0 0 0-.044.065v.002a.162.162 0 0 0-.017.035l-.014.036-.003.008.008.005 1.125.612.006-.007a.33.33 0 0 0 .023-.03l.021-.035.018-.036.005-.012.011-.033-.009-.004-.507-.276.207-.38.515.28.006-.006a.362.362 0 0 0 .023-.031l.02-.032.001-.003a.767.767 0 0 0 .018-.037l.012-.033.004-.01-1.134-.618-.005.008m.452 1.45-.012-.002-.001.011a.458.458 0 0 1-.063.2.322.322 0 0 1-.096.105.271.271 0 0 1-.13.047.4.4 0 0 1-.162-.014.823.823 0 0 1-.198-.087c-.139-.082-.231-.17-.274-.264a.31.31 0 0 1-.03-.112.286.286 0 0 1 .044-.162l.005-.008a.57.57 0 0 1 .095-.118l.024-.019.021-.017-.008-.008a.861.861 0 0 0-.111-.109l-.007-.004-.006.005a.657.657 0 0 0-.173.198.45.45 0 0 0-.03.414.63.63 0 0 0 .134.194c.059.062.134.12.221.171a.936.936 0 0 0 .254.109.618.618 0 0 0 .23.02.464.464 0 0 0 .343-.233.56.56 0 0 0 .087-.267v-.008l-.006-.003a.56.56 0 0 0-.15-.04m-6.523 3.75h-.01l-.028.004-.01.002a.33.33 0 0 0-.039.008c-.013.003-.026.008-.038.012a.313.313 0 0 0-.035.015l-.008.004.33 1.247h.01a.475.475 0 0 0 .038-.005l.011-.002.028-.008a.255.255 0 0 0 .053-.017l.03-.012-.003-.01-.33-1.239Zm-3.067.769a.645.645 0 0 0-.064-.218.399.399 0 0 0-.332-.223.407.407 0 0 0-.21.032.422.422 0 0 0-.156.127.706.706 0 0 0-.104.203 1.239 1.239 0 0 0-.048.53.64.64 0 0 0 .065.218.418.418 0 0 0 .13.153.418.418 0 0 0 .202.068.427.427 0 0 0 .21-.03.43.43 0 0 0 .156-.127.65.65 0 0 0 .103-.204c.025-.079.043-.167.051-.262a1.22 1.22 0 0 0-.003-.267Zm-.179.25a1.2 1.2 0 0 1-.036.206.554.554 0 0 1-.066.148.265.265 0 0 1-.095.088.214.214 0 0 1-.125.02.217.217 0 0 1-.12-.043.256.256 0 0 1-.076-.104.546.546 0 0 1-.04-.158 1.071 1.071 0 0 1 .003-.207c.007-.075.019-.143.036-.203a.506.506 0 0 1 .066-.148.244.244 0 0 1 .095-.087.223.223 0 0 1 .125-.023c.048.005.087.02.119.045a.244.244 0 0 1 .078.102.556.556 0 0 1 .038.158c.005.06.005.13-.002.206Zm-1.13-.815-.007-.002-.034-.009a.596.596 0 0 0-.083-.012l-.007-.001-.486.97-.023-1.084-.007-.003a.546.546 0 0 0-.041-.015l-.042-.011-.032-.006-.012-.002a.356.356 0 0 0-.041-.004h-.012l.06 1.336.033.012.015.005.032.01.011.002.045.008a.351.351 0 0 0 .044.005h.008l.628-1.18-.011-.005c-.012-.006-.026-.01-.039-.014Zm2.113.224-.005-.04h-.58v.01l-.001 1.281.008.002.038.005a.393.393 0 0 0 .081 0l.037-.005.01-.001-.001-.01.001-.57h.34l.004-.05.002-.04v-.03l-.002-.011-.003-.037-.002-.014h-.34l.001-.35h.406l.006-.05a.622.622 0 0 0 .002-.041c0-.014 0-.027-.002-.041v-.009m1.12.615a.337.337 0 0 0-.152-.162.82.82 0 0 0-.113-.048l-.086-.03a.414.414 0 0 1-.062-.025.185.185 0 0 1-.087-.078.175.175 0 0 1-.018-.059c-.007-.057.005-.1.033-.132a.2.2 0 0 1 .131-.056.393.393 0 0 1 .118.001.673.673 0 0 1 .094.021l.012.004.002-.011a.658.658 0 0 0 .018-.153v-.008l-.009-.002a.618.618 0 0 0-.256-.023c-.115.013-.198.052-.255.122a.347.347 0 0 0-.067.269.416.416 0 0 0 .028.116c.014.032.031.06.052.084a.262.262 0 0 0 .07.058.548.548 0 0 0 .085.04l.09.03.092.037a.275.275 0 0 1 .065.039.133.133 0 0 1 .04.052c.011.02.018.047.021.08a.196.196 0 0 1-.04.157c-.034.04-.09.066-.167.074a.495.495 0 0 1-.233-.028l-.012-.003-.016.094a.407.407 0 0 0-.005.083v.008l.045.012.026.007.064.011a.709.709 0 0 0 .157-.003c.13-.014.228-.061.29-.14a.398.398 0 0 0 .077-.305.475.475 0 0 0-.032-.133Zm2.348-.16-.008-.023a.953.953 0 0 0-.029-.073l-.004-.01-.424.141-.13-.391.329-.11-.011-.049-.01-.037-.001-.002-.015-.038a.337.337 0 0 0-.016-.036l-.005-.008-.329.109c-.006-.02-.1-.305-.108-.324l.412-.138-.001-.01a.26.26 0 0 0-.01-.038l-.012-.04a.543.543 0 0 0-.03-.074l-.003-.009-.01.004-.568.189.41 1.227.588-.195-.01-.049-.006-.016m-5.712.39c-.067-.013-.125.03-.137.1a.123.123 0 0 0 .018.094.11.11 0 0 0 .071.045h.003a.113.113 0 0 0 .088-.017.128.128 0 0 0 .05-.083.127.127 0 0 0-.02-.095.11.11 0 0 0-.073-.045Zm4.332-.086-.007-.01-.01.008a.452.452 0 0 1-.19.084.298.298 0 0 1-.264-.066.45.45 0 0 1-.097-.133.775.775 0 0 1-.065-.206.942.942 0 0 1-.02-.186.48.48 0 0 1 .035-.194.279.279 0 0 1 .214-.17.652.652 0 0 1 .117-.013h.003l.08.01.018.003.002-.012.008-.076a.435.435 0 0 0-.002-.079l-.001-.008-.008-.002a.718.718 0 0 0-.263.002.456.456 0 0 0-.33.254.643.643 0 0 0-.056.229c-.007.086 0 .18.019.279.02.1.048.187.086.262a.625.625 0 0 0 .138.184.448.448 0 0 0 .402.104.612.612 0 0 0 .257-.113l.007-.004-.003-.008a.523.523 0 0 0-.07-.14Zm1.873-1.852-.034.01a.267.267 0 0 0-.034.012l-.036.017-.033.02-.008.005.004.01.367.83-.784-.66-.012.002a.187.187 0 0 0-.029.009l-.016.005-.017.007s-.002 0-.003.002l-.03.014c-.012.008-.023.013-.031.02l-.008.005.522 1.182.015-.004a.31.31 0 0 0 .099-.038.197.197 0 0 0 .03-.02l.008-.005-.368-.834.782.656.005-.002.03-.007.006-.002.034-.013.033-.015a.391.391 0 0 0 .031-.02l.007-.005-.521-1.183-.01.002Zm5.147-9.803a1.265 1.265 0 0 0 .007.082l.003.006.009.04h.006l.625.18-.587.298-.001.048.002.043.005.044.001.001.01.042.002.015.013-.008.77-.411.47-.044.001-.01.002-.037-.002-.04v-.01l-.006-.03-.005-.026-.005-.022h-.01l-.461.044-.846-.261-.001.013-.002.031v.012ZM4.596 3.945a.546.546 0 0 0-.36.166.538.538 0 0 0-.167.359.43.43 0 0 0 .126.345.432.432 0 0 0 .346.127.538.538 0 0 0 .359-.164.547.547 0 0 0 .167-.36.438.438 0 0 0-.471-.473Zm.21.506a.22.22 0 0 1-.141.217.22.22 0 0 1-.09.015.254.254 0 0 1-.17-.076.246.246 0 0 1-.062-.26.22.22 0 0 1 .217-.142.248.248 0 0 1 .172.077.243.243 0 0 1 .074.17Zm.816-.296L4.277 5.498c-.002.001-.002.004 0 .006l.162.163c.002.002.005.002.005 0 0 0 .559-.556.564-.563l.084.086-.418.417c-.001.002-.001.005.001.006l.156.157h.005l.841-.84c.005.007.068.07.074.075l-.84.838c-.002.003-.002.004 0 .007l.245.245c.05.051.09.082.14.085.055.002.093-.025.136-.068l.911-.91c.002 0 .002-.003.001-.005l-.156-.157c-.002 0-.004-.002-.006 0l-.831.829c-.003.003-.01.005-.015 0l-.071-.072.803-.801c.013-.013.02-.027.018-.041a.061.061 0 0 0-.02-.038l-.323-.324c-.026-.022-.046-.005-.048-.004l-.383.383-.084-.086.563-.562c0-.002.002-.003 0-.005l-.163-.164h-.006M2.917 5.79l-.135.236.001.007.475.268-.235.414c-.002.003-.001.006 0 .007l.208.118c0 .001.002.002.003.001l.002-.002.237-.415 1.215.69c.002 0 .005 0 .006-.002l.134-.236c.001-.002.001-.005-.002-.006L2.922 5.788c-.002 0-.005 0-.005.002Z"/>
    <path fill="#565353" d="m3.726 6.8-.01.008a.74.74 0 0 1-.367.162c-.171.034-.355-.006-.548-.116l-.366-.207c-.002-.001-.006 0-.007.001l-.139.245c-.001.002 0 .006.002.006l.367.209c.192.11.32.248.38.41a.747.747 0 0 1 .048.4l-.002.013c-.001.006 0 .01.002.011a.02.02 0 0 0 .01.006l.017-.003.21-.03c.003 0 .012-.003.014-.014a.748.748 0 0 0-.01-.334.789.789 0 0 0-.133-.322.802.802 0 0 0 .345-.05.755.755 0 0 0 .292-.164c.008-.007.006-.014.004-.018l-.082-.196-.006-.015a.02.02 0 0 0-.01-.007.027.027 0 0 0-.01.004m8.515-5.597h-.975l-.003.003v.232c0 .003.002.004.003.004h.708c0 .341-.086.57-.253.726-.17.158-.359.262-.56.313l-.013.002c-.001.001-.008.003-.01.01a.008.008 0 0 0 0 .005c0 .003 0 .006.002.009l.01.01.115.145c0 .002.005.007.013.005.217-.034.44-.156.66-.355.221-.202.334-.489.334-.899v-.176s.001-.018-.006-.026c-.008-.008-.022-.008-.025-.008Zm.646-.183h-.27c-.002 0-.003.003-.003.004v2.19c0 .001 0 .003.003.003h.27c.003 0 .004-.002.004-.004V1.023c0-.001-.001-.004-.004-.004Zm-2.577 1.517-1.312.336c-.002 0-.004.002-.002.004l.057.224c0 .002.002.004.004.004l1.07-.274c.007 0 .015.005.016.012l.131.513c0 .002.003.003.004.003l.276-.07c.002 0 .003-.003.002-.004l-.18-.703c-.004-.018-.011-.03-.023-.038a.049.049 0 0 0-.043-.006m-.729-1.08-.461.118a16.282 16.282 0 0 0-.045-.174c0-.002-.002-.003-.004-.002l-.28.071c-.002 0-.003.003-.003.005l.045.173-.459.118c-.002 0-.003.002-.003.004l.058.224c0 .002.002.003.004.002l.177-.044a.435.435 0 0 0 .217.543c.119.063.25.076.388.041a.534.534 0 0 0 .32-.222.422.422 0 0 0 .067-.356.45.45 0 0 0-.136-.224c.065-.019.175-.046.175-.046.002 0 .003-.002.003-.004l-.058-.225c0-.002-.002-.003-.005-.003Zm-.283.756a.212.212 0 0 1-.138.108.212.212 0 0 1-.173-.03.246.246 0 0 1-.108-.148.269.269 0 0 1 .02-.192.215.215 0 0 1 .228-.112.21.21 0 0 1 .083.033.26.26 0 0 1 .11.158.244.244 0 0 1-.022.183Zm1.1-.675-.27.068-.114-.444c0-.003-.003-.004-.005-.003l-.263.067c-.002 0-.003.003-.003.005l.315 1.233c.001.003.003.004.005.004l.263-.067c.003 0 .004-.002.003-.005l-.136-.535.27-.07c.002 0 .004-.001.003-.003l-.063-.249-.006-.001Zm8.784 4.085-.933-.983c0-.002-.004-.002-.005 0l-.168.16v.004l.761.802c.003.005.001.013-.003.018l-.384.366c-.002 0-.002.004 0 .006l.194.206h.006l.526-.5a.066.066 0 0 0 .021-.04.047.047 0 0 0-.015-.039Zm.587-1.163-.328-.347c.006-.004.13-.122.13-.122.002-.002.001-.004 0-.006l-.199-.208c-.001-.004-.004-.004-.006-.001l-.13.123a111.1 111.1 0 0 1-.327-.343h-.003l-.168.158v.007l.125.131a.444.444 0 0 0-.368.455.534.534 0 0 0 .153.36.53.53 0 0 0 .35.171.425.425 0 0 0 .344-.115.45.45 0 0 0 .13-.23c.045.05.124.131.124.131.002.003.005.003.006.001l.167-.159c.002-.003.002-.005 0-.006Zm-.797.12a.215.215 0 0 1-.21-.144.242.242 0 0 1 .067-.255.263.263 0 0 1 .176-.075.217.217 0 0 1 .221.233.27.27 0 0 1-.085.172.242.242 0 0 1-.169.07Zm1.125.632s-.187-.197-.193-.201l.334-.317c.001-.003.002-.005 0-.005l-.187-.198c-.002-.001-.005-.003-.006 0l-.924.877c-.002.002-.001.004 0 .005l.187.197c.002.002.004.002.006 0l.4-.38c.005.007.192.203.192.203h.006l.185-.175a.005.005 0 0 0 0-.006Z"/>
    <path fill="#9E9C9D" d="M10.86 18.37c.15-.002.255-.054.318-.154.06-.1.093-.213.095-.33l-.006-.003a.385.385 0 0 1-.335.156c-.335-.009-.503-.168-.504-.479a.579.579 0 0 1 .142-.41c.095-.1.239-.15.434-.152.12.002.219.023.296.061a.43.43 0 0 1 .178.164c.078.145.114.314.11.506a1.22 1.22 0 0 1-.144.603c-.105.185-.293.28-.567.286-.125 0-.248-.021-.365-.063l.045-.248a.72.72 0 0 0 .303.063Zm.331-.655a.381.381 0 0 0 .052-.206.343.343 0 0 0-.053-.193c-.038-.054-.1-.081-.186-.082-.081 0-.138.028-.175.083a.358.358 0 0 0-.055.196c0 .075.018.144.056.2.039.06.098.09.18.092.085-.001.145-.03.181-.09Zm1.64-.685h.304v1.563h-.345v-1.208l-.293.214-.173-.204.506-.365m-3.523-.002h.304v1.563h-.345v-1.207l-.292.214-.173-.204.506-.366Zm4.888 1.511a.484.484 0 0 1-.184-.199.85.85 0 0 1-.081-.263 1.731 1.731 0 0 1-.02-.26c0-.1.01-.199.03-.295a.88.88 0 0 1 .098-.26.554.554 0 0 1 .185-.19.554.554 0 0 1 .288-.068.624.624 0 0 1 .31.075c.08.05.14.116.182.195a.84.84 0 0 1 .088.262 1.8 1.8 0 0 1 0 .559.841.841 0 0 1-.092.26.505.505 0 0 1-.184.192.593.593 0 0 1-.307.077.564.564 0 0 1-.313-.085Zm.468-.211a.362.362 0 0 0 .074-.151.844.844 0 0 0 .03-.189v-.349a.9.9 0 0 0-.031-.187.361.361 0 0 0-.073-.153.202.202 0 0 0-.152-.06c-.06 0-.11.021-.145.06a.356.356 0 0 0-.076.152 1.277 1.277 0 0 0-.028.187 3.876 3.876 0 0 0 0 .35c.003.065.013.127.026.189a.4.4 0 0 0 .076.15.181.181 0 0 0 .144.06c.068.001.118-.018.155-.06Z"/>
  </g>
  <defs>
    <clipPath id="a">
      <path fill="#fff" d="M0 0h24v24H0z"/>
    </clipPath>
  </defs>
</svg>
