<svg xmlns="http://www.w3.org/2000/svg" width="24" height="24" fill="none" viewBox="0 0 24 24">
  <g clip-path="url(#a)">
    <path fill="#fff" fill-rule="evenodd" d="M19.908 2.148c-.093.078-.63.565-.69.662.46.492 1.054.964 1.523 1.448.134-.035.692.007.802-.086-.046-.16-.44-.913-.539-1.044-.408-.413-.665-.598-1.096-.98ZM3.871 19.074c-.557.443-1.154 1.042-2.97 2.877-.148.141-.327.42-.218.636.102.288.626.539.894.154.962-.873 2.326-2.182 3.269-3.076-.22-.203-.742-.41-.975-.591Z" clip-rule="evenodd"/>
    <path fill="#231F20" d="M1.38 0C1.101.01.826.112.594.285a.08.08 0 0 0-.048.022.078.078 0 0 0-.018.032A1.434 1.434 0 0 0 0 1.482c.005.136.032.266.079.387a.078.078 0 0 0-.009.034c0 .036.024.065.057.075.058.114.135.218.229.305l2.632 2.45A11.194 11.194 0 0 0 .59 11.668a11.2 11.2 0 0 0 2.963 7.598l.108.116.077-.074-.077.075c.213.225.435.441.665.648l-2.828 2.705a.461.461 0 0 1-.656-.015.46.46 0 0 1-.13-.331.457.457 0 0 1 .144-.325l2.805-2.682-.108-.117L.748 21.95a.618.618 0 0 0-.15.676.617.617 0 0 0 .329.345.614.614 0 0 0 .477.01.62.62 0 0 0 .204-.13l2.838-2.714a11.2 11.2 0 0 0 7.392 2.778c2.595 0 4.987-.884 6.893-2.366l.034-.027 1.573 1.743.045-.01c.006-.001.579-.117 1.505.687.017.016.469.434.841.355.152-.032.266-.138.34-.315l.009-.02-.002-.02c-.003-.017-.029-.174-.26-.444l-2.97-2.942a11.209 11.209 0 0 0 3.24-7.888c0-2.665-.933-5.116-2.487-7.045l.29-.29.697-.087a.08.08 0 0 0 .068-.096.08.08 0 0 0-.02-.038l-.158-.16a31.298 31.298 0 0 0-.202.174l.12-.015a13.854 13.854 0 0 1-.276.034l-.237.03-1.43-1.474.157-.142.153-.139.054.055.042-.099-.042.1 1.43 1.466.11.113c.04-.033.082-.07.121-.104l.116-.1c.2.08 1.207.43 1.94-.26.433-.407.586-1.174.372-1.866-.176-.571-.562-.945-1.058-1.023a6.117 6.117 0 0 0-.995 0l-.116.007c-.762.052-1.71.117-2.184-.4a.08.08 0 0 0-.134.028.08.08 0 0 0 .002.054c.013.035.29.754.645 1.096-.255.027-.71.054-.944-.062a.079.079 0 0 0-.114.07.08.08 0 0 0 .016.048c.016.021.375.492.73.67l-.008.022-.068.162.067-.162a.074.074 0 0 0-.032.017l-.773.7a11.195 11.195 0 0 0-7.1-2.531c-2.611 0-5.018.895-6.93 2.394L2.859.905a.08.08 0 0 0-.08-.078l-.004.001-.57-.53A1.139 1.139 0 0 0 1.38 0Z"/>
    <path fill="#fff" d="M11.838.579c2.644 0 5.074.93 6.98 2.48.573.465 1.098.985 1.568 1.553.034.04.067.082.1.123a11.036 11.036 0 0 1 2.44 6.933c0 3.042-1.231 5.802-3.222 7.808l.084.083-.084-.083a11.113 11.113 0 0 1-1.088.962 11.032 11.032 0 0 1-6.778 2.318 11.04 11.04 0 0 1-7.277-2.729l-.119-.106c-.23-.206-.453-.423-.666-.648l-.107-.116a11.047 11.047 0 0 1-2.92-7.49 11.037 11.037 0 0 1 3.232-7.815c.037-.038.075-.074.113-.11a11.314 11.314 0 0 1 .932-.818A11.035 11.035 0 0 1 11.838.579Z"/>
    <path fill="#231F20" d="M11.838 4.301c-4.061 0-7.366 3.305-7.366 7.367a7.33 7.33 0 0 0 1.887 4.916c.278.31.581.596.908.855l.115-.11a7.296 7.296 0 0 1-.909-.854 7.181 7.181 0 0 1-1.786-3.923 2.11 2.11 0 0 0 1.967 1.39H17.06c.85 0 1.584-.519 1.915-1.263-.494 3.497-3.506 6.196-7.137 6.196a7.173 7.173 0 0 1-4.456-1.546l-.115.11a7.33 7.33 0 0 0 4.571 1.595c4.062 0 7.366-3.305 7.366-7.366 0-4.062-3.304-7.367-7.366-7.367Zm0 .159c3.749 0 6.838 2.876 7.177 6.538a2.107 2.107 0 0 0-1.955-1.36H6.654c-.936 0-1.731.63-2.003 1.497.273-3.727 3.392-6.675 7.187-6.675ZM6.654 9.8h5.1a2.088 2.088 0 0 0-1.74 2.055c0 .868.534 1.614 1.29 1.927h-4.65c-1.071 0-1.943-.893-1.943-1.991s.872-1.992 1.943-1.992Zm5.79 0h4.616c1.071 0 1.943.893 1.943 1.99 0 1.099-.872 1.992-1.943 1.992h-4.168a2.087 2.087 0 0 0 1.29-1.927c0-1.032-.753-1.89-1.739-2.056Zm-.346.125c1.064 0 1.93.865 1.93 1.93 0 1.029-.81 1.872-1.824 1.927h-.211a1.933 1.933 0 0 1-1.825-1.927c0-1.065.866-1.93 1.93-1.93Z"/>
    <path fill="#fff" d="m19.736 19.666 2.966 2.938c.152.178.2.294.213.338-.053.116-.124.183-.218.203-.243.052-.591-.212-.704-.318-.858-.744-1.435-.748-1.598-.73l-1.508-1.672c.284-.23.557-.472.817-.727l.032-.032Z"/>
    <path fill="#231F20" d="M13.536 19.16a.227.227 0 1 0 0 .454.227.227 0 0 0 0-.453Zm-3.261 0a.226.226 0 1 0 0 .453.226.226 0 0 0 0-.452Zm7.79-.542a.227.227 0 0 0-.226.226.227.227 0 0 0 .453 0 .227.227 0 0 0-.227-.226Zm-12.252 0a.228.228 0 0 0-.24.226.227.227 0 1 0 .24-.226Z"/>
    <path fill="#231F20" d="M6.138 17.794c-.048 0-.096.002-.144.008 0 0 1.993 1.722 1.857 1.812-.136.09-2.717-.045-2.717-.045.996 1.223 2.944.996 3.94.951.997-.045 1.812.453 1.812.453-.724.407-1.404 1.223-1.404 1.223l1.133-.045s.724-1.178 1.313-1.087c.588.09 1.313 1.132 1.313 1.132l.907-.09c-.272-.544-1.269-1.178-1.269-1.178.227-.318 1.812-.725 3.443-.498 1.63.226 2.446-1.042 2.446-1.042-.725.317-2.809.317-2.809.317l1.721-1.857c-1.63-.046-1.811.77-3.396 1.766-1.586.996-2.628.86-2.628.86-1.178-.362-2.129-.996-2.129-.996-1.73-1.546-2.98-1.686-3.39-1.684Zm14.42-2.392a.227.227 0 1 0 0 .453.227.227 0 0 0 0-.453Zm-17.236 0a.226.226 0 1 0-.001.452.226.226 0 0 0 0-.452Z"/>
    <path fill="#231F20" d="M19.742 14.768c-1.45.905-1.087 3.578-1.087 3.578 2.083-.272 2.853-2.582 2.853-2.582-.86.408-2.174 1.494-2.174 1.494.362-.452.408-2.49.408-2.49Zm-15.605 0s.045 2.038.408 2.49c0 0-1.314-1.086-2.175-1.494 0 0 .77 2.31 2.854 2.582 0 0 .362-2.673-1.087-3.579Zm17.326-3.036c-1.178 1.179-.725 3.217-.725 3.217 1.268-.997.725-3.216.725-3.216Zm-19.047 0s-.544 2.22.724 3.217c0 0 .453-2.038-.724-3.216Zm.072-3.831a.02.02 0 0 0-.013.002c-.024.012-.057.067-.098.166l-.085.2c.382.161.686.355.912.582.217.215.357.455.419.719.046-.03.1-.061.163-.094a2.01 2.01 0 0 1 .167-.084 1.438 1.438 0 0 0-.25-.493 1.968 1.968 0 0 0-.323-.338c.117.025.28.02.489-.014a1.49 1.49 0 0 0 .512-.165 1.13 1.13 0 0 1-.075-.187 1.53 1.53 0 0 1-.055-.194c-.156.125-.37.204-.645.238-.263.03-.479.01-.647-.061l-.213-.093a.79.79 0 0 1-.175-.11l-.029-.032c-.022-.027-.04-.04-.054-.042Zm16.77-.564-.31.125.927 2.301.31-.124-.344-.853.606-.245a.125.125 0 0 1 .044-.009l.039.001c.031.005.047 0 .048-.016a.508.508 0 0 0-.049-.165l-.08-.2-.743.298-.117-.29.609-.244a.16.16 0 0 1 .042-.011.122.122 0 0 1 .039-.002c.03 0 .044-.009.046-.024a.622.622 0 0 0-.052-.164l-.076-.188-.743.299-.197-.489Z"/>
    <path fill="#231F20" d="m20.907 6.932-.31.125.597 1.48a3.59 3.59 0 0 1-.623.182 3.543 3.543 0 0 1-.46.066l.12.377a4.4 4.4 0 0 0 .683-.125c.22-.057.467-.14.74-.25l-.747-1.855ZM2.843 6.645a.025.025 0 0 0-.013.005.688.688 0 0 0-.093.179l-.081.192.79.334-.17.403.296.125.17-.402 1.196.506.149-.35-2.078-.88a.295.295 0 0 1-.067-.04.291.291 0 0 1-.044-.04c-.022-.023-.04-.033-.055-.032Zm14.525-1.739-.229.226 1.06 1.077-.357.35.268.272.585-.575-1.327-1.35Zm2.245-.087-1.066 1.048.267.272.256-.252.23.234.24-.237-.229-.234.415-.407a.322.322 0 0 1 .107-.069.128.128 0 0 0 .042-.023c.008-.008.01-.019.007-.033a.215.215 0 0 0-.04-.062 3.77 3.77 0 0 0-.103-.11l-.126-.127Zm-1.654-.432a.303.303 0 0 0-.216.088c-.078.077-.108.18-.088.307.023.142.105.284.246.428.145.148.289.235.433.263.129.026.233 0 .313-.08.079-.076.105-.18.08-.307-.027-.141-.113-.286-.259-.433-.14-.144-.28-.23-.419-.258a.462.462 0 0 0-.09-.008Zm.136.326c.012 0 .024.002.035.004a.36.36 0 0 1 .166.106c.06.063.1.122.113.178.013.05.003.091-.03.124a.127.127 0 0 1-.128.032.38.38 0 0 1-.178-.116.326.326 0 0 1-.1-.168.134.134 0 0 1 .037-.124.121.121 0 0 1 .085-.036ZM5.506 3.855a.593.593 0 0 0-.18.037c-.19.067-.402.215-.635.444-.233.23-.384.439-.455.629-.064.174-.05.309.041.402.09.09.223.106.4.045.192-.065.404-.213.637-.442.232-.229.383-.439.453-.63.063-.177.05-.31-.04-.4a.287.287 0 0 0-.22-.085Zm-.133.324a.095.095 0 0 1 .08.026c.038.038.03.105-.023.201-.056.1-.159.225-.31.374-.15.147-.274.247-.374.3-.095.05-.16.055-.198.017-.04-.04-.035-.107.016-.2a1.87 1.87 0 0 1 .31-.367c.152-.15.277-.253.375-.308a.326.326 0 0 1 .124-.043Zm.895-.011-1.767 1.74.207.209.75-.737.072.073L4.974 6l.18.183 1.114-1.098.084.084-1.116 1.098.454.46 1.422-1.4-.181-.185-1.156 1.139-.094-.096 1.122-1.106-.44-.447-.563.555-.072-.074.747-.735-.207-.21Zm12.426-.265-.198.195.543.552.197-.194-.542-.553Zm-.52-.035-.198.194 1.086 1.105.197-.194-1.086-1.105Zm-14.15-.195.038.037-.038-.037Z"/>
    <path fill="#fff" d="m3.474 3.345.395.395c-.068.069-.136.138-.202.209l-.025.027c-.058.06-.114.122-.17.184-.033.036-.064.073-.096.11l-.1.113c-.063.074-.125.15-.186.225l-.001.001-1.325-1.232 1.71-.032Z"/>
    <path fill="#231F20" d="M8.748 2.95a.523.523 0 0 0-.165.05l-.2.08.3.743-.29.116-.245-.608a.18.18 0 0 1-.013-.08c-.001-.03-.01-.045-.025-.047a.623.623 0 0 0-.163.053l-.188.076.3.742-.489.197.125.309 2.3-.93-.125-.308-.852.344-.245-.605a.13.13 0 0 1-.01-.044l.001-.04c.005-.03 0-.047-.016-.049Z"/>
    <path fill="#fff" d="m19.333 2.808 1.408 1.45-.242.242a11.386 11.386 0 0 0-1.438-1.446l.272-.246Z"/>
    <path fill="#231F20" d="m10.728 2.423-.002.284.665.005-.001.202-.406-.004-.002.323 1.575.013-.005.586.383.004.007-.91-.403-.003.002-.201.664.005.002-.284-2.48-.02Zm1.046.292.385.003-.002.202-.385-.003.002-.202Zm4.302-.427-.914 2.15.342.145.388-.913.173.074-.426 1.003.346.147.898-2.115a.3.3 0 0 1 .027-.05.823.823 0 0 1 .032-.036c.025-.026.033-.045.025-.058a.469.469 0 0 0-.142-.077l-.217-.092-.417.982-.173-.074.33-.78a.22.22 0 0 1 .031-.051.294.294 0 0 1 .034-.033c.025-.024.033-.04.027-.05a.386.386 0 0 0-.13-.073l-.234-.1Z"/>
    <path fill="#fff" d="M19.9 2.273c.154.052.6.178 1.024.078a1.36 1.36 0 0 0-.016.28c.033.694.35 1.01.535 1.139l-.078.068-1.484-1.521.019-.044ZM2.109 1.98l.59.59v.012a.08.08 0 0 0 .08.08l.01-.003.53.53-1.709.033-.01.002L.465 2.168a.937.937 0 0 1-.152-.186h1.785l.011-.002Z"/>
    <path fill="#231F20" d="m14.798 1.926-.683 1.61.227.097c.135.058.271.111.41.16.183.067.35.117.497.15l.074-.314a4.041 4.041 0 0 1-.643-.212l-.085-.036.429-1.01.61.26.127-.296-.963-.41Zm-5.781-.052-1.854.75.125.308 1.48-.598c.073.182.134.39.182.623.036.182.058.336.066.46l.377-.12a4.447 4.447 0 0 0-.124-.683 6.245 6.245 0 0 0-.252-.74Z"/>
    <path fill="#fff" d="m2.857 1.121 1.927 1.794c-.135.109-.267.221-.396.336l-.015.013c-.133.119-.264.24-.391.365L2.857 2.505V1.12Zm16.83-.506c.554.348 1.375.299 2.059.252l.116-.008c.594-.04.959 0 .963 0 .43.068.77.4.928.913.193.626.055 1.343-.329 1.704-.672.633-1.647.279-1.788.223l-.002-.002c-.021-.007-.527-.215-.568-1.073-.017-.373.136-.718.41-.92.263-.195.607-.237.944-.116.367.131.506.582.424.924-.033.136-.15.448-.533.4-.355-.045-.501-.264-.52-.453-.018-.18.071-.341.218-.39a.08.08 0 0 0-.05-.15c-.217.072-.35.3-.326.556.025.25.211.538.659.594.349.044.62-.156.706-.52.098-.409-.075-.95-.524-1.11-.388-.14-.786-.09-1.092.137-.203.15-.348.366-.421.614a.078.078 0 0 0-.04-.001c-.467.127-1.032-.086-1.038-.088-.203-.077-.426-.296-.573-.46.405.067.938-.018.966-.022a.079.079 0 0 0 .065-.065l.001-.013a.08.08 0 0 0-.04-.07c-.245-.136-.478-.565-.614-.856ZM.608.48l1.345 1.345H.232a1.042 1.042 0 0 1-.073-.348A1.274 1.274 0 0 1 .607.479Zm.778-.32a.983.983 0 0 1 .712.255l.602.56v1.372L.734.381C.93.246 1.157.167 1.385.16Z"/>
    <path fill="#231F20" d="M11.974 1.361c-.324-.003-.58.043-.766.138-.17.089-.255.201-.256.339-.001.134.083.248.25.34.185.102.44.154.763.157.322.003.578-.045.766-.144.17-.09.255-.202.256-.336.001-.138-.082-.252-.25-.343-.185-.098-.44-.148-.763-.15Zm-.008.29c.21 0 .37.02.482.058.105.035.157.082.157.14 0 .057-.053.103-.158.138a1.546 1.546 0 0 1-.485.056 1.499 1.499 0 0 1-.476-.064c-.102-.036-.152-.084-.152-.14 0-.059.052-.105.154-.139.11-.035.27-.052.478-.05Z"/>
  </g>
  <defs>
    <clipPath id="a">
      <path fill="#fff" d="M0 0h24v24H0z"/>
    </clipPath>
  </defs>
</svg>
