<svg xmlns="http://www.w3.org/2000/svg" width="24" height="24" fill="none" viewBox="0 0 24 24">
  <path fill="#003380" d="M5.552 12.194h-.737v.933h.737v-.933ZM2.33 19.249c1.063 1.404 2.933 1.084 2.933 1.084.227-1.988-.577-2.633-.577-2.633-.5 1.056.255 2.33.255 2.33-1.136-1.05-2.61-.781-2.61-.781M4.27 8.338l-.358-.334c-.864.22-1.493.986-1.493.986.406-.971.186-1.88.005-2.362l-.26-.214c-.75 1.422.08 2.982.08 2.982C3.4 9.12 3.983 8.664 4.27 8.338ZM6.683 21.31c-.038-.617-.15-1.067-.29-1.427h-.71c.192.676.629 1.185.629 1.185-1.302-.837-2.708-.317-2.708-.317 1.292 1.2 3.079.56 3.079.56Zm-.175-10.54v8.098h4.012c.453.012.92.368.92.368v-6.478c-2.43-.053-2.92-1.988-2.92-1.988H6.51Zm1.899 4.923h-.302v1.568h-.38v-1.568h-.298v-.357h.98v.357Zm1.892 1.598a.59.59 0 0 1-.327-.096v-.364c.09.063.176.104.29.104.12 0 .219-.083.219-.21 0-.148-.119-.204-.225-.281-.22-.148-.355-.29-.355-.571 0-.304.177-.568.503-.568.122 0 .232.034.337.095v.37a.437.437 0 0 0-.276-.122c-.118 0-.192.072-.192.189 0 .316.58.335.58.855 0 .342-.196.6-.554.6Zm.283-4.298h.38v1.925h-.38v-1.925Zm-1.197 0h.384c.242 0 .675.025.675.551 0 .212-.084.393-.272.497l.334.876h-.401l-.334-.888h-.005v.888h-.38v-1.924h-.001Zm.4 4.268h-.404l-.072-.324h-.386l-.07.324h-.377l.447-1.925h.4l.463 1.925Zm-.477-4.268v.357h-.386v.418h.34v.358h-.34v.435h.39v.356h-.77v-1.922l-.533 1.922h-.311l-.557-1.924h.408l.23.924c.034.11.046.22.069.329h.005c.02-.112.028-.22.059-.334l.233-.919h1.163Zm6.513-6.407L14.62 7.895l.012 2.09s-.037.345-.111.516h.773l2.209-2.21-1.68-1.704ZM5.576 16.6h-.737v.931h.737v-.93Zm1.202-9.044 1.547 1.522V7.9L6.778 6.354v1.202Zm-1.22 13.036a.175.175 0 0 0 0-.35.175.175 0 0 0 0 .35Zm-2.8-12.46a.175.175 0 1 0 .35-.002.175.175 0 0 0-.35.002ZM5.57 19.316c.005.08.021-.017.021-.017v-1.138l-.188.209c.107.287.144.699.166.946M8.325 9.66v-.239L7.184 8.28H4.51l1.51 1.38h2.305ZM2.523 6.412s-.1-.623.55-1.556H.876s.093.255 1.646 1.556ZM.619 9.84c-.392 1.717 1.056 2.944 1.056 2.944 1.667-1.104 1.643-2.135 1.643-2.135-1.128.295-1.62 1.694-1.62 1.694C1.773 10.795.62 9.84.62 9.84Zm1.294.795c.34-1.51-.629-2.652-.629-2.652-.686 1.623.528 3.083.528 3.083 1.835-.798 1.99-1.816 1.99-1.816-1.163.093-1.89 1.385-1.89 1.385Zm.154.72a.176.176 0 0 0-.272-.145.176.176 0 0 0-.026.268.175.175 0 0 0 .298-.123Zm8.946 8.854h1.151s.076-.5.402-.5h4.78v-8.412l-.475-.5v8.336h-4.28s-.577.05-1.028.6c0 0-.35-.526-1.1-.575h-4.18V10.87l-.514.513v8.324h4.668s.576.024.576.5M3.522 4.75c-1.2 1.29-.56 3.078-.56 3.078 1.999-.122 2.492-1.027 2.492-1.027-1.125-.31-2.249.656-2.249.656.837-1.302.317-2.707.317-2.707Zm5.635 11.373-.044-.292h-.005l-.041.292-.082.512h.269l-.097-.512Zm11.045 3.62c.317-.196.588-.456.798-.764 0 0-.633-.082-1.373.168l.575.596Zm1.216-7.633s-.523-1.388-1.658-1.656c0 0-.001 1.032 1.693 2.097 0 0 1.419-1.261.986-2.97 0 0-1.13.985-1.02 2.528Zm-2.127 4.139s-.663.79-.05 2.695c0 0 1.897-.055 2.663-1.64 0 0-1.498.026-2.407 1.28 0 0 .49-1.4-.206-2.335Zm2.082-2.42s-.276-1.457-1.347-1.917c0 0-.18 1.015 1.304 2.357 0 0 1.617-.994 1.486-2.752 0 0-1.284.773-1.443 2.312m-1.337-.437s-.353.97.875 2.55c0 0 1.764-.699 1.941-2.453 0 0-1.399.538-1.822 2.026 0 0-.02-1.483-.994-2.123Zm1.123 1.302a.176.176 0 0 0 .123-.299.175.175 0 0 0-.299.123c0 .097.079.177.175.177m-1.022 2.99a.173.173 0 0 0-.107-.16.174.174 0 0 0-.191.037.175.175 0 0 0 .124.299.174.174 0 0 0 .174-.175ZM5.356 7.27c-.07.055-.555.499-1.296.59l.253.236 2.65-.012-.823-.822-.416-.417s-.296.376-.369.425ZM15.6 15.845h-.006l-.04.29-.081.514h.267l-.098-.513-.042-.291Zm-5.526-2.297c0-.138-.066-.25-.257-.24h-.052v.512l.068.004c.173 0 .241-.117.241-.276Zm1.636-.839v6.528s.369-.367.884-.367h4.05v-8.098H14.46s-.62 1.91-2.749 1.937Zm.488.298h.38v1.567h.398v.356H12.2v-1.924Zm1.234 4.268-.091-1.387h-.006l-.061.475-.163.912h-.294l-.186-.922-.064-.429v-.036h-.005l-.057 1.387H12.1l.168-1.925h.5l.187 1.136h.005l.153-1.136h.51l.202 1.925h-.39Zm2.435 0-.07-.325h-.387l-.068.325h-.377l.445-1.925h.401l.462 1.925h-.406Zm-1.158-4.268h.428l.11.268c.033.095.072.193.092.292h.005c.02-.099.052-.195.087-.292l.115-.268h.411l-.41.93.44.993h-.44l-.122-.305c-.036-.098-.06-.191-.086-.288h-.005c-.028.096-.05.19-.083.288l-.113.305h-.429l.408-.992-.408-.931Zm.103 2.343v.357h-.385v.418h.34v.359h-.34v.433h.391v.358h-.77V15.35h.764Zm-.978-.734c.186 0 .186-.14.188-.282v-1.327h.38v1.403c0 .204-.022.551-.571.551-.354 0-.566-.165-.566-.525v-1.43h.38v1.246c0 .146-.018.364.19.364ZM6.54 6.14s-.172.252-.828.393l.828.766V6.14Zm2.103 3.35c0 2.038 1.278 2.978 2.852 2.978 1.577 0 2.855-.937 2.855-2.977V3.683H8.643V9.49Zm1.376-4.114v-.859h2.675v1.228h.882v.883h-.857v.393h.857v.957h-.857v2.872h-.738l-1.018-1.02-.931.932-.675-.673L10.9 8.54l.798.798V5.375h-1.681Zm-3.814 4.5.682.6h1.537c-.074-.121-.05-.587-.05-.587l-2.169-.012Zm12.365 7.678s-.124.13-.165.329l.37.383a1.833 1.833 0 0 0-.205-.712Zm-14.533 1.57c.568-1.919-.113-2.691-.113-2.691-.675.95-.153 2.337-.153 2.337-.937-1.232-2.436-1.223-2.436-1.223.804 1.568 2.702 1.577 2.702 1.577ZM3.94 6.409c1.988.227 2.63-.578 2.63-.578-1.052-.5-2.328.255-2.328.255 1.051-1.137.783-2.61.783-2.61C3.62 4.537 3.94 6.408 3.94 6.408Zm4.161 14.062c.095 1.164 1.386 1.89 1.386 1.89-1.509-.341-2.652.628-2.652.628 1.624.685 3.084-.527 3.084-.527-.798-1.836-1.818-1.991-1.818-1.991Zm-5.065-2.753c.892-1.79.356-2.67.356-2.67-.831.818-.556 2.276-.556 2.276C2.127 15.948.65 15.695.65 15.695c.52 1.684 2.387 2.023 2.387 2.023Zm4.01 2.171-.247-.002c-.014 1.1 1.045 1.966 1.045 1.966-1.429-.597-2.722.16-2.722.16 1.48.956 3.128.014 3.128.014-.32-1.337-.884-1.91-1.203-2.138Zm-3.683.83s.272-.161.667-.22l-.438-.104-.042.055c.024-.034.042-.055.042-.055L1.65 22.439s-.221.32-.012.529c0 0 .195.16.466-.024l1.892-1.656c-.19-.099-.61-.447-.632-.568m-1.068-4.56c1.19-1.608.815-2.568.815-2.568-.96.663-.943 2.146-.943 2.146-.46-1.478-1.87-1.984-1.87-1.984.218 1.75 1.998 2.407 1.998 2.407m.998-11.513-2.3-2.301s-.963.69-.215 2.301h2.515Zm1.04-.837L2.982 2.445C2.143 1.608 1.15 2.16 1.15 2.16l2.665 2.653c.178-.68.52-1.002.52-1.002ZM1.843 14.742c0 .097.078.175.175.175a.174.174 0 0 0 .161-.242.173.173 0 0 0-.16-.108.175.175 0 0 0-.176.175m-.004-.242c1.45-1.379 1.248-2.388 1.248-2.388-1.061.486-1.302 1.949-1.302 1.949C1.59 12.525.286 11.782.286 11.782.198 13.543 1.838 14.5 1.838 14.5Zm1.274 3.388a.175.175 0 1 0 .35 0 .175.175 0 0 0-.35 0Zm14.635 2.552a.175.175 0 1 0-.123-.05.175.175 0 0 0 .124.05m.929-.227-.616-.501c.014.157.034.322.063.499 0 0 .221.026.553.002m1.72-3.096s.24-1.463-.61-2.262c0 0-.514.893.42 2.661 0 0 1.86-.381 2.339-2.077 0 0-1.472.287-2.148 1.678ZM8.734 22a.175.175 0 1 0-.35 0 .175.175 0 0 0 .35 0Zm8.277-1.055s.38-.455.566-1.094l-.711-.01a4.978 4.978 0 0 0-.219 1.355s1.536.51 2.767-.38l-.474-.382a3.103 3.103 0 0 0-1.928.51Zm.518-2.835v.932l4.172 3.46h.834l-4.246-4.392h-.76Zm-6.111 4.024v.436c-.202-.317-.987-1.467-1.875-1.523 0 0 .302 1.027 1.631 1.631 0 0-1.669.11-2.349 1.023 0 0 1.454.132 2.593-1v.71h.442v-1.277h-.442Zm.737.54c1.325-.613 1.62-1.643 1.62-1.643-1.031.072-1.915 1.62-1.915 1.62 1.153 1.177 2.65 1.03 2.65 1.03-.687-.909-2.355-1.007-2.355-1.007Zm1.712-.364s1.275-.757 1.341-1.92c0 0-1.015.179-1.77 2.032 0 0 1.487 1.177 3.095.456 0 0-1.165-.944-2.666-.568Zm1.631-.546s.99-.85 1-1.912l-.354.014c-.32.28-.788.877-1.048 2.083 0 0 1.67.901 3.126-.09 0 0-1.31-.725-2.724-.095Zm-.877.169a.175.175 0 1 0 .35 0 .175.175 0 0 0-.35 0ZM20.803 9.18s.902-1.67-.09-3.128c0 0-.724 1.311-.094 2.726 0 0-.965-1.124-2.124-.989 0 0 .352.97 2.308 1.39Zm-4.244-3.904.53-.547c-.451-.105-1.298-.256-1.983.255 0 0 .352.399 1.453.292Zm3.522 2.832a.175.175 0 1 0 0-.35.175.175 0 0 0 0 .35Zm1.196 2.73s1.178-1.489.454-3.096c0 0-.942 1.166-.566 2.668 0 0-.756-1.276-1.92-1.342 0 0 .179 1.015 2.032 1.77m-2.547-8.38c.551.273.996-.013.996-.013a.953.953 0 0 1 1.058.116c.428.335.358.775.358.775 0 .338-.098.36-.098.36-.204.14-.153-.096-.153-.096a2.05 2.05 0 0 0 .047-.166c.08-.762-.604-.872-.604-.872-.726-.127-.906.543-.906.543a1.281 1.281 0 0 0-.03.494l-.906-.907.042.767 2.025 2.024h.724l-.734-.735c.236.074.48.12.728.135 1.034-.063 1.142-1.052 1.142-1.052.273-1.033-.706-1.868-.706-1.868-.653-.56-1.642-.606-1.642-.606-1.405-.164-1.904-1.061-1.904-1.061-.164.408-.122 1.013-.122 1.013.094.931.685 1.149.685 1.149Zm2.298 8.666a.175.175 0 1 0 .35 0 .175.175 0 0 0-.35 0Zm-3.836-6.53.428-.434c-.181-.612-.55-1.35-1.46-1.79 0 0-.038 1.31 1.032 2.224Zm1.074 12.093h-.737v.933h.737v-.933Zm.572-9.24a5.17 5.17 0 0 0 1.212.182s.221-.66.126-1.463l-.638.612c.068.161.155.325.264.485 0 0-.176-.144-.458-.3l-.506.484ZM4.85 5.456a.175.175 0 1 0 .35 0 .175.175 0 0 0-.35 0Zm15.401.21-1.89-1.889-1.693 1.84 1.816 1.792 1.767-1.742Zm-4.011.061-.38.455 2.06 2.062.418-.417-2.098-2.1Zm1.988 6.393h-.737v.933h.737v-.933ZM9.407 3.216s.58.383 1.597-.318c0 0-1.26-.518-1.597.318Zm6.566.66s-.573-.172-1.296.073l-.001.66c.44-.009.887-.115 1.695-.542 0 0-.382-1.86-2.077-2.338 0 0 .286 1.471 1.679 2.147m-7.6.821.014-.641c-.714-.21-1.436-.073-1.436-.073 1.375-.71 1.628-2.187 1.628-2.187-1.684.518-2.023 2.386-2.023 2.386.777.387 1.381.505 1.817.515Zm-.53.372c-.95-.676-2.338-.154-2.338-.154C6.737 3.978 6.728 2.48 6.728 2.48c-1.568.804-1.577 2.7-1.577 2.7 1.919.57 2.693-.111 2.693-.111ZM7.736 3.66a.175.175 0 1 0 .35 0 .175.175 0 0 0-.35 0Zm.424-.185 1.32-.018c-.41-.247-.86-.238-.86-.238a2.98 2.98 0 0 0 1.9-1.778c-1.748.219-2.406 2-2.406 2l.046.034Zm7.046.09a.174.174 0 1 0-.349 0 .175.175 0 1 0 .35 0Zm-.926-.346s-.45-.009-.859.238l1.32.018c.023-.017.024-.017.046-.035 0 0-.657-1.78-2.406-1.998 0 0 .422 1.317 1.899 1.777Zm-2.837-.202a.235.235 0 1 0-.001-.47.235.235 0 0 0 0 .47Zm2.049.121c-.369-.823-1.608-.257-1.608-.257 1.044.662 1.608.257 1.608.257Z"/>
</svg>
