<svg xmlns="http://www.w3.org/2000/svg" width="24" height="24" fill="none" viewBox="0 0 24 24">
  <g clip-path="url(#a)">
    <path fill="#662C91" d="m2.653 14.451.096.234a3.088 3.088 0 0 1-.312.153c.291.05.517.217.69.638.279.68-.002 1.276-.68 1.547-.642.257-1.319.027-1.613-.692-.264-.643-.046-1.052.243-1.262l.13.315c-.173.164-.292.43-.12.85.22.54.721.67 1.21.475.515-.206.774-.645.557-1.176-.184-.449-.519-.612-.949-.44l-.064.026.286.698-.261.104-.406-.992 1.193-.478Zm-1.272-1.888c-.614.351-.906.517-1.058.586v.003c.157.033.576.146 1.157.322l-.099-.911Zm.393.981.74.225.038.338-2.445-.744-.044-.397 2.225-1.283.039.358-.674.384.121 1.12Zm.546-2.15L0 11.02l.064-.387c.81-.4 1.887-.985 2.146-1.076l.002-.007c-.305-.025-.673-.088-1.05-.149l-.872-.14.05-.304 2.32.374-.06.365c-.52.267-1.92.963-2.218 1.084l-.001.007c.303.032.63.085 1.041.151l.948.153-.05.303Zm1.447-4.573-.108.228a3.099 3.099 0 0 1-.326-.123c.161.245.19.523-.007.934-.316.663-.95.863-1.612.554-.626-.291-.913-.94-.578-1.64.3-.628.751-.747 1.104-.68l-.147.308c-.239-.014-.518.08-.713.489-.252.527-.01.98.466 1.201.503.235 1.006.126 1.253-.392.209-.438.103-.792-.316-.987l-.063-.03-.325.681-.254-.119.462-.967 1.164.543Zm-.048-1.06c.267.115.545.088.845-.257.302-.347.283-.597.117-.737-.175-.15-.367-.145-.843.245-.55.452-.828.435-1.071.228-.314-.266-.238-.71.097-1.095.499-.573.92-.448 1.117-.315l-.218.25c-.155-.067-.38-.129-.705.243-.22.253-.274.492-.096.643.145.124.3.13.718-.213.663-.541.95-.474 1.199-.263.283.241.332.671-.13 1.202-.427.491-.872.545-1.252.325l.222-.256Zm2.843-3.065-1.152.803.47.658 1.27-.886.125.253-1.507 1.05-1.355-1.898L5.9 1.641l.16.224-1.212.845.4.562L6.4 2.468l.162.228Zm.939-.586c.17.468.616.793 1.165.598.542-.193.677-.7.505-1.175-.166-.455-.611-.777-1.166-.58-.517.184-.673.692-.504 1.157Zm1.997-.7c.225.616-.006 1.296-.748 1.56-.713.253-1.343-.093-1.577-.737-.22-.606.047-1.293.757-1.545.707-.252 1.347.112 1.568.722ZM11.771.012l-.05 1.318c-.024.612.334.792.688.805.433.016.7-.177.721-.752l.05-1.318.332.012-.05 1.315c-.03.755-.438 1.041-1.073 1.018-.632-.024-1.027-.347-1-1.07L11.441 0l.33.012Zm2.314 2.504.75-2.201.377.125c.267.856.677 2 .725 2.268l.006.002c.076-.292.198-.641.32-.998l.282-.828.295.098-.75 2.202-.355-.118c-.182-.551-.65-2.03-.722-2.34l-.006-.002c-.082.29-.188.6-.32.991l-.307.9-.295-.099Zm4.198-.738-1.2 1.997-.287-.169 1.2-1.997.287.169Zm-.126 2.755.75-2.425.276.235-.41 1.286c-.151.475-.232.683-.283.812l.005.004c.103-.063.345-.181.718-.374l1.28-.616.272.23-2.324 1.089-.284-.24Zm3.101 1.864-.826-1.13-.66.472.912 1.246-.256.126-1.08-1.477 1.905-1.362 1.065 1.456-.225.161-.87-1.188-.563.403.826 1.13-.228.163Zm.761 1.09.253.654c.132.34.317.462.58.363.238-.09.294-.304.167-.631l-.258-.666-.742.28Zm-.253.096-.947.358-.117-.303 2.196-.83.401 1.036c.172.444.084.82-.306.968-.266.1-.506.04-.68-.199.016.159-.017.396-.404.542l-.095.036c-.168.063-.353.133-.436.193l-.121-.312c.083-.07.252-.127.438-.197l.07-.027c.326-.123.38-.287.231-.669l-.23-.596Zm.44 2.465c-.267.116-.435.335-.383.787.052.456.25.611.467.587.23-.026.358-.168.391-.778.039-.706.24-.897.56-.932.41-.047.689.311.746.815.087.751-.291.971-.525 1.024l-.038-.329c.156-.066.355-.187.299-.675-.038-.332-.178-.534-.412-.508-.19.022-.301.13-.33.667-.049.848-.293 1.01-.62 1.047-.371.042-.724-.215-.804-.91-.074-.645.189-1.003.61-1.13l.04.335Zm1.76 2.96-2.343-.186.026-.329 2.344.186-.027.33Zm-.522 1.46.212-.862.274.066-.503 2.04-.274-.065.212-.858-2.01-.484.078-.321 2.01.484Zm-2.638 1.36.808.38a.081.081 0 0 0 .063.004l1.686-.289-.17.355c-.48.076-1.17.198-1.393.213.13.187.473.78.715 1.197l-.157.328-.845-1.476c-.014-.017-.02-.027-.044-.038l-.805-.378.142-.295Zm.128 1.831-.013.02c-.279.42-.588.819-.924 1.195l-.016.018.195.17.016-.017c.345-.386.66-.795.947-1.225l.013-.02-.218-.141Zm-16.91 1.193a10.57 10.57 0 0 1-.92-1.197l-.014-.02-.218.14.014.02c.284.43.599.84.942 1.227l.016.018.196-.17-.017-.018Zm6.837 4.183.053-1.257h.994v-.262h-1.32l-.06 1.78h1.43v-.261h-1.097Zm1.333.166V24h.337v-1.577h.417V24h.334v-2.689h-.334v.862h-.417v-.862h-.337v1.89Zm-5.06-3.381-.256-.212-1.128 1.31.255.213.453-.531.36.299.17-.201-.36-.3.505-.578Zm1.048.836s-.522.67-1.455 1.07l.138.262s.808-.293 1.33-.87l-.128 1.545.326.003.128-1.848-.339-.162Zm1.214 1.077-.512-.194-.096.252.518.195-.644 1.616.305.115.978-2.493-.311-.117-.238.626Zm5.56 1.302 1.56-.606.255.65.32-.122-.349-.895-1.88.727.095.246Zm1.145-2.595-.308.116.562 1.446.307-.117-.249-.641.446-.17-.097-.25-.446.17-.215-.554Zm2.53-1.055.07.086a4.317 4.317 0 0 1 .351.531c.067.124.129.253.183.384l.01.024.024-.012a1.22 1.22 0 0 0 .12-.063.783.783 0 0 0 .125-.067l.016-.01-.006-.019a2.556 2.556 0 0 0-.29-.597 10.015 10.015 0 0 0-.17-.261 5.605 5.605 0 0 1-.158-.213l-.072-.089-.048-.058-.071-.084-1.62 1.344.174.203 1.347-1.118.015.02Z"/>
    <path fill="#662C91" d="m19.424 20.858-.495-.582-.247.205.495.582-.375.31-.495-.581-.247.205.495.582-.455.378.173.203 2.087-1.733-.173-.203-.763.634Zm-14.77.558c-.255-.212-.342-.48-.2-.648.144-.168.426-.13.682.082.255.213.342.48.2.649-.144.168-.426.13-.682-.083Zm.647-.76c-.407-.338-.866-.389-1.107-.105-.241.283-.112.722.295 1.06.407.338.866.388 1.107.105.241-.284.112-.722-.295-1.06Zm9.169 1.4c-.074-.188.056-.386.304-.48.249-.094.479-.033.552.156.073.189-.056.386-.305.48-.248.094-.478.033-.551-.155Zm1.162-.44a.554.554 0 0 0-.413-.343l.362-.137-.085-.22-.692.263-.1-.258-.328.124.1.258-.698.265.085.22.376-.143a.543.543 0 0 0-.076.528c.131.336.528.45.955.288.426-.162.645-.509.514-.845Zm-9.413-2.1.014-.052-.612-.509-.584-.485-.171.201.88.73s-.465.278-1.19.264l-.027.32s1.006.055 1.69-.47ZM18.61 6.265l-.02-.15-.001-.004h-.015c-1.738-.437-4.887-.732-6.56-.708-1.677-.025-4.84.272-6.574.712l-.022.153c-.003.027-.352 2.643.28 5.686.371 1.791 1.005 3.38 1.883 4.723a10.702 10.702 0 0 0 4.405 3.842l.024.012.04-.019a10.701 10.701 0 0 0 4.397-3.84c.878-1.342 1.512-2.93 1.884-4.722.632-3.043.283-5.66.28-5.685Z"/>
    <path fill="#fff" d="M11.724 8.424h.648v-.12h-.648v.12Zm1.166-.366a1.054 1.054 0 0 0-.455-.05.799.799 0 0 0-.38.154.983.983 0 0 0-.871-.103c-.062.025-.205.082-.307.05l.001-1.39c.12.022.268-.038.333-.065l.01-.003a.96.96 0 0 1 .402-.043.881.881 0 0 1 .395.154l.037.028.037-.028a.7.7 0 0 1 .359-.155.962.962 0 0 1 .402.044l.01.003c.065.027.213.087.333.064v1.39c-.101.033-.244-.025-.306-.05M9.546 9.964a.683.683 0 0 0-.14-.325.956.956 0 0 0-.272-.203 4.944 4.944 0 0 0-.309-.133c.004-.016.009-.02.014-.035.01-.03.046-.111.05-.115.007-.008.028-.043.035-.051.122-.13.12-.116.12-.123a.04.04 0 0 0-.014-.028.23.23 0 0 0-.116-.048.419.419 0 0 0-.151.034.366.366 0 0 1-.011-.004c-.032-.01-.086-.03-.14-.01-.077.027-.151.07-.215.11-.023-.014-.049-.024-.072-.034l-.018-.007a6.276 6.276 0 0 0-.384-.132.805.805 0 0 0-.241-.021c-.346.014-.643.309-.74.406-.09.09-.223.241-.31.353l-.026.032-.023.052.124-.034c.46-.086.831-.061 1.107-.019l.06.008c-.2.139-.498.381-.54.415l-.01.012.002.014c.01.05.397.215.47.24.056.018.08.02.095.007a.263.263 0 0 0 .027-.029l.067-.065.336-.342s.056-.058.068-.052l.013.007c.053.03.103.063.15.1.258.2.446.392.62.64l.137.232c.08-.05.151-.178.202-.352.049-.166.061-.339.036-.5Zm7.634-.614c-.024-.22-.234-.375-.488-.359a1.256 1.256 0 0 0-.43.128 1.255 1.255 0 0 0-.464-.13c-.238 0-.43.151-.452.361-.026.24.056.504.226.725.169.22.41.378.663.434l.028.005.027-.005c.253-.056.494-.214.664-.434.17-.22.252-.485.226-.725m-3.584 4.166a24.35 24.35 0 0 1-.279-.756h1.08c.006 0-.8.756-.8.756Zm-1.903-1.385c-.005 0 .34-.892.34-.892s.322.888.317.888l-.657.004Zm3.766.457-.475-.467-1.902.006-.698-1.888h-.72s-.714 1.898-.714 1.892l-2.229.002c.035 0 .01.616.01.616l1.992.005c-.002-.002-1.27 3.199-1.406 3.42l.698.258c.158-.316 1.444-3.68 1.444-3.68h1.122c.003 0 .452 1.29.452 1.29.02-.017-1.084 1.02-1.084 1.02.04.033.44.373.552.466l.785-.783c.003-.003.567 1.56.566 1.677l.71-.208-.349-.984-.367-1.04 1.533-1.52.08-.082Zm-4.392 5.606a.203.203 0 0 0 .137-.068h.051v.488h-.086v-.366h-.102v-.054Zm.556.18c.085 0 .122-.043.142-.058a.133.133 0 0 0-.139-.115c-.067 0-.12.028-.12.087 0 .05.044.087.117.087m-.11.117c.003.021.04.059.106.059.074 0 .146-.043.149-.153a.247.247 0 0 1-.151.049c-.135 0-.202-.075-.202-.156 0-.096.079-.165.21-.165.126 0 .238.075.238.242 0 .114-.06.257-.243.257-.138 0-.194-.082-.197-.133h.09Zm.889-.28h-.317l-.007.104a.264.264 0 0 1 .139-.035c.124 0 .21.057.21.168 0 .092-.057.176-.225.176-.2 0-.22-.12-.22-.145h.092c0 .018.03.07.13.07.082 0 .133-.04.133-.1 0-.06-.057-.097-.13-.097-.08 0-.113.035-.123.045H12l.008-.26h.394v.074Zm.37.118c.07 0 .124-.014.124-.065 0-.06-.082-.064-.123-.064-.041 0-.123.005-.123.064 0 .05.054.065.123.065Zm0 .22c.077 0 .133-.018.133-.075 0-.06-.065-.073-.132-.073-.068 0-.132.013-.132.073 0 .057.056.076.132.076Zm-.133-.187c-.048-.02-.077-.052-.077-.105 0-.075.066-.132.21-.132.149 0 .213.063.213.131 0 .062-.04.09-.078.105v.002a.126.126 0 0 1 .088.119c0 .102-.099.142-.222.142-.124 0-.223-.04-.223-.142 0-.071.057-.111.09-.12Zm-2.514-.753-.186.214h-.148l.264-.294-.244-.275h.145l.17.195.167-.195h.144l-.244.275.262.294h-.146l-.184-.214Zm.781-.102c.065 0 .122-.005.122-.08 0-.072-.057-.077-.122-.077h-.235v.157h.236Zm-.349-.253h.325c.098 0 .26 0 .26.175 0 .174-.162.174-.26.174h-.21v.22h-.115v-.569Zm.707 0h.113v.57h-.113v-.57Zm.27 0h.532v.096h-.346l.116.187-.116.19h.355v.096h-.531l.168-.283-.179-.286Zm2.13 0h.532v.096h-.346l.117.187-.117.19h.356v.096h-.532l.168-.283-.178-.286Zm-1.248.096h-.26v-.096h.634v.096h-.26v.473h-.114v-.474Zm1.013.187c0-.137-.1-.201-.233-.201s-.233.064-.233.2c0 .162.124.206.233.206.11 0 .233-.044.233-.205Zm-.233-.297c.256 0 .347.147.347.303 0 .118-.071.295-.347.295-.275 0-.346-.177-.346-.295 0-.156.09-.303.346-.303Z"/>
  </g>
  <defs>
    <clipPath id="a">
      <path fill="#fff" d="M0 0h24v24H0z"/>
    </clipPath>
  </defs>
</svg>
