<svg xmlns="http://www.w3.org/2000/svg" width="24" height="24" fill="none" viewBox="0 0 24 24">
  <g clip-path="url(#a)">
    <path fill="#1965B6" d="M12 24C5.382 24 0 18.617 0 12S5.383 0 12 0s12 5.383 12 12-5.383 12-12 12Z"/>
    <path fill="#fff" d="M12 .26C5.525.26.26 5.527.26 12c0 6.474 5.266 11.74 11.74 11.74 6.473 0 11.74-5.266 11.74-11.74C23.74 5.527 18.473.26 12 .26Z"/>
    <path fill="#1965B6" d="m22.023 14.935-.224-.224-.223.224.223.224.224-.224Zm-19.6 0L2.2 14.71l-.224.224.224.224.223-.224Zm7.211 2.023v-.31h.567v1.405h-.366v-1.095h-.2Zm1.424.155c0 .129.097.23.225.23a.232.232 0 0 0 .234-.23.232.232 0 0 0-.234-.231.225.225 0 0 0-.225.23Zm-.128.94.4-.472-.003-.004a.47.47 0 0 1-.198.042c-.276 0-.451-.236-.451-.495 0-.345.283-.531.604-.531.136 0 .293.033.4.121a.51.51 0 0 1 .188.388c0 .202-.104.398-.225.558l-.3.393h-.415Zm1.334-1.095v-.31h.567v1.405h-.365v-1.095h-.202Zm1.479.047c0 .088.069.158.155.158a.157.157 0 0 0 .143-.098.155.155 0 0 0 .011-.06.156.156 0 0 0-.154-.159.158.158 0 0 0-.144.099.155.155 0 0 0-.011.06Zm-.013.634a.169.169 0 0 0 .168.17.169.169 0 0 0 .167-.17.17.17 0 0 0-.167-.176.172.172 0 0 0-.168.175Zm.647-.645a.335.335 0 0 1-.222.318v.004c.167.056.28.184.28.37 0 .29-.296.424-.537.424-.243 0-.537-.134-.537-.425 0-.185.112-.313.28-.369v-.004a.335.335 0 0 1-.222-.319c0-.268.239-.4.479-.4s.479.132.479.4Zm1.513-9.423h-.74v4.054l-.527-.113v-3.94h-.965v3.734l-.505-.105V7.57h-1.222v3.37l-.396-.085V7.57h-1.51v2.963l-.32-.068V7.571H8v2.534l.16.033v4.211h.738v-4.052l.528.111v3.941h.964v-3.736l.505.108v3.628h1.222V10.98l.397.085v3.284h1.511v-2.964l.32.07v2.894h1.704v-2.533l-.159-.034v-4.21ZM5.247 8.633v5.716h.256V9.291a1.6 1.6 0 0 0 .567.357v4.701h.385V9.771c.066.017.131.034.198.047l.387.084v4.447h.547v-4.332l.138.029V7.57H6.94c-1.206 0-1.694.459-1.694 1.062Zm13.298-1.062v5.06a1.597 1.597 0 0 0-.565-.358V7.57h-.386v4.578a4.772 4.772 0 0 0-.197-.047l-.387-.082V7.571h-.547v4.333l-.138-.03v2.475h.782c1.208 0 1.696-.459 1.696-1.06V7.57h-.258ZM5.16 18.822l-.176-.197-.195.175.177.197-.869.782.194.216 1.38-1.243-.194-.215-.317.285Zm-.28-.523.212-.19-.195-.216-.211.19-.034.02-1.023.363.201.224.685-.257-.326.654.2.222.466-.979.025-.031Zm2.146 1.657c.095.059.128.177.074.264-.054.085-.175.108-.269.049-.094-.06-.128-.178-.074-.264.054-.086.175-.108.27-.049Zm.289.398c.096-.154.065-.356-.063-.498l.057-.092-.22-.137-.054.089c-.189-.063-.394-.005-.493.154a.386.386 0 0 0-.042.31l-.393-.247-.124.197.551.344-.075.12-.425-.266-.106.17.873.547-.065.105-.874-.546-.28.45 1.091.682.108-.17-.877-.548.068-.108.876.547.279-.446-.425-.265.075-.12.55.343.123-.197-.394-.246a.382.382 0 0 0 .259-.172Zm1.929 2.399.276.085.544-1.776-.278-.085-.542 1.776Zm-.096-1.674.083-.271-.278-.085-.083.27-.018.037-.69.837.286.088.456-.573.056.73.286.087-.103-1.08.005-.04Zm3.287 1.772h-.678v-.113h.678v.113Zm0-.841h-.865v-.15h.646v-.627h-.924v.243h.646v.14h-.646v.638h1.143v.25h-.678v-.147h-.278v.733h1.234v-1.857h-.277v.777Zm2.705-.88-.133.039-.116-.396-.256.075.3 1.026-.461.135-.229-.783.33-.096-.07-.244-.608.178.372 1.272.738-.216.149.51.257-.075-.327-1.116.132-.038.326 1.115.256-.074-.522-1.782-.254.074.115.396Zm2.249-1.617-.236.147.598.957-.78.487.139.221.779-.487.248.397.235-.148-.648-1.038.188-.117-.138-.222-.189.118-.196-.315Z"/>
    <path fill="#1965B6" d="M16.737 20.571c-.055-.088-.024-.208.07-.267a.195.195 0 0 1 .27.054c.057.09.025.209-.069.268a.196.196 0 0 1-.271-.055Zm.563-.352a.413.413 0 0 0-.306-.19l.163-.101-.122-.194-.296.185-.081-.13-.247.155.08.13-.297.185.121.194.164-.102a.415.415 0 0 0 .036.359c.126.201.403.255.62.12.217-.136.291-.41.165-.61Zm3.022-1.403-1.126-1.031-.855.933.196.18.662-.722.928.852-.13.143-.475-.436-.189.205.475.436-.093.102-.475-.436-.188.205.476.436-.12.131.191.176 1.004-1.096-.192-.175-.09.097ZM1.038 10.278l.761.078c.175.018.346.043.463.19.1.126.122.308.105.466-.016.158-.074.331-.197.433-.145.121-.318.11-.492.093l-.761-.078.036-.352.713.073c.176.018.37.025.392-.201.024-.226-.167-.258-.343-.277l-.713-.073.036-.352Zm.192-.973.107-.337.988-.367.001-.004-.793-.25.107-.338 1.297.41-.107.338-.99.366v.004l.794.25-.107.338-1.297-.41Zm2.18-1.86-.16.315-1.213-.617.16-.316 1.214.618Zm.26-1.424-.477-.751.224-.312.765 1.267-.161.223-1.439-.332.225-.312.863.217Zm.764-1.699.16.162.284-.279.21.214-.285.28.164.167.3-.294.21.214-.553.542-.953-.972.554-.543.21.214-.301.295Zm1.45-.819.028-.02c.095-.066.189-.158.104-.279-.085-.121-.204-.065-.299.001l-.028.02.195.278Zm1.068.17-.36.252-.575-.237-.003.002.3.429-.29.203-.78-1.116.434-.303c.22-.154.46-.166.627.072.108.154.115.347-.023.486l.67.212Zm.775-1.515a.37.37 0 0 0-.25.018c-.06.027-.122.098-.09.167.033.071.133.059.197.05l.093-.013c.195-.03.368-.004.461.195.057.123.086.262.027.391a.595.595 0 0 1-.295.28.843.843 0 0 1-.499.061l.017-.322a.485.485 0 0 0 .344-.005c.075-.035.137-.11.097-.197-.042-.09-.182-.062-.26-.05-.228.037-.385.046-.496-.193-.117-.25-.014-.496.232-.611a.934.934 0 0 1 .433-.079l-.011.308Zm1.582.505-.338.104-.399-1.3.338-.104.399 1.3Zm1.247-.268-.35.057-.172-1.046-.289.048-.049-.296.926-.153.049.295-.289.048.174 1.047Zm.768-1.467h.425l.254.37.254-.37.425.001-.503.707v.654l-.354-.001v-.653l-.5-.708Zm3.55 1.057c-.073.222.038.44.239.505.2.066.418-.043.491-.266.059-.178-.053-.395-.253-.46-.2-.066-.419.042-.477.22Zm1.08.352a.722.722 0 0 1-.948.478.721.721 0 0 1-.48-.947c.127-.39.56-.552.932-.43.371.122.624.508.496.899Zm1.196.204-.11.2.341.186-.144.262-.34-.186-.256.469-.31-.17.652-1.193.686.375-.144.263-.375-.206Zm2.573 2.026a.372.372 0 0 0-.104-.228c-.046-.045-.134-.08-.188-.025-.055.056-.009.145.021.202l.046.083c.096.172.133.343-.021.5-.095.096-.215.173-.357.162a.596.596 0 0 1-.365-.179.84.84 0 0 1-.232-.445l.308-.097a.483.483 0 0 0 .125.32c.06.058.151.09.218.022.07-.07-.005-.192-.044-.26-.114-.201-.178-.345.006-.532.194-.197.46-.188.654.003a.929.929 0 0 1 .226.377l-.293.097Zm.931 1.031-.183.135.236.321-.24.178-.237-.321-.19.139.25.338-.242.178-.458-.624 1.096-.806.459.623-.242.178-.249-.339Zm.55 1.527a.39.39 0 0 0-.2.522c.092.19.322.272.534.17.169-.082.248-.312.156-.502-.091-.19-.321-.272-.49-.19Zm.495 1.023a.723.723 0 0 1-1.003-.352.723.723 0 0 1 .35-1.004c.37-.179.787.02.957.374.17.353.067.804-.304.982Zm1.177 1.743-.741.186c-.17.042-.34.077-.5-.022-.136-.084-.218-.247-.257-.401-.038-.154-.043-.337.038-.474.095-.163.261-.212.431-.255l.742-.185.086.343-.695.173c-.172.043-.356.102-.3.323.054.22.245.186.416.143l.695-.174.085.343Zm-.902 1.385.032.423-.3.021-.056-.775 1.356-.1.026.353-1.058.078Z"/>
  </g>
  <defs>
    <clipPath id="a">
      <path fill="#fff" d="M0 0h24v24H0z"/>
    </clipPath>
  </defs>
</svg>
