<svg xmlns="http://www.w3.org/2000/svg" width="24" height="24" fill="none" viewBox="0 0 24 24">
  <g clip-path="url(#a)">
    <path fill="#0C3388" d="M10.187 7.198v.1c.313 0 .322.346.322.346v.952H9.462l-.382-.778.149-.473H8.18v.108c.192 0 .387.113.302.424l-.918 3.176h.495l.788-2.51 1.345 2.508h.322v.2h.558V7.198h-.886Zm-.515 1.829h.845v1.716l-.845-1.716Zm3.712.125v.403h1.141v.987h-2.187v.247h2.563l-.219.399h-2.91v-.664s-.053-.263-.252-.263v-.074h2.438v-.241h-2.176l-.175-.39h1.202v-.404h-1.5l-.217-.38h1.154c-.252-.172-.41-.42-.41-.692 0-.44.41-.806.967-.911v-.034a.162.162 0 0 0-.131-.08V6.99h.592s.122.063.131.145v.031c.564.098.98.469.98.914 0 .273-.162.52-.412.691H15.1l-.2.381-1.516-.001Zm-.278-.442c.38 0 .689-.282.689-.631 0-.35-.308-.63-.69-.63-.38 0-.69.282-.69.63 0 .347.31.631.69.631Zm-2.902 3.097v.121s.347.049.347.266H9.045a1.338 1.338 0 0 0-.08-.024 2.217 2.217 0 0 0-.106-.363h-.65v.096a.22.22 0 0 1 .207.143.22.22 0 0 1 .013.088v.016a1.341 1.341 0 0 0 .22 2.655 1.296 1.296 0 0 0 1.163-.744h.74v2.026h.57v-4.28h-.918Zm.347 1.87h-.622a1.356 1.356 0 0 0-.306-1.096h.928v1.096Zm-2.587-.222c0-.484.316-.875.708-.875.392 0 .706.392.706.875s-.317.874-.706.874c-.39 0-.708-.391-.708-.874Zm3.32-1.34v.104s.302-.013.302.375v2.257l1.682-.473v1.231h.575v-1.9h.534v1.898h.57v-3.733h-.858v.08s.29.08.29.34v1.005h-.546v-1.425h-.824v.08s.261.036.261.411v1.553l-1.114.339v-1.723h.698l.242-.419h-1.812ZM8.898 1.137a.36.36 0 1 0 0-.719.36.36 0 0 0 0 .719Zm.655 2.284a.359.359 0 1 0 0-.717.359.359 0 0 0 0 .717Zm5.998-1.428c-1.604 0-1.376.483-2.418.575-1.174.105-2.993-1.376-3.406-1.682.322.028 4.007.79 4.942 1.003v-.15c-1.055-.267-3.807-.76-5.01-1.028 1.43-.654 2.554-.725 3.381-.36.547.241 1.108.867 1.416 1.107.17.135.613.254.988.268l-.094-.161c-.254 0-.548-.067-.694-.161-.333-.212-.895-.92-1.577-1.201C11.759-.34 9.82.337 9.326.71a8.08 8.08 0 0 0 1.055.909c-.147.227-.694.774-1.002.935.761-.04 2.165 1.162 3.674.386 1.51-.775 1.71-.814 2.564-.787l-.066-.161Zm-5.01-.254s.442.281.681.415c-.242.04-1.336.227-1.336.227.27-.268.592-.522.656-.642Zm-.547.806c.214-.027 1.176-.173 1.455-.255.403.148.962.495 1.591.469-1.137.597-1.991.142-3.046-.218v.004Z"/>
    <path fill="#0C3388" d="M14.494 1.068a.359.359 0 1 0 .358-.622.359.359 0 0 0-.358.622Zm-.574 2.306a.359.359 0 1 0 .358-.622.359.359 0 0 0-.358.622Zm1.417-2.11c.265.186 3.079 2.685 3.783 3.337l.073-.127c-.782-.759-2.918-2.563-3.826-3.394 1.564.146 2.572.644 3.108 1.375.353.484.526 1.306.672 1.668.08.202.403.527.726.725v-.185c-.22-.126-.442-.332-.523-.484-.182-.352-.314-1.246-.765-1.83-.872-1.127-2.888-1.51-3.505-1.434.116.45.27.89.46 1.315-.241.123-.988.322-1.334.31.68.345 1.294 2.088 2.99 2.17 1.694.082 1.888.148 2.615.599l.021-.173c-1.387-.8-1.432-.27-2.381-.71-1.072-.496-1.908-2.688-2.114-3.162Zm.279 1.147s.241.464.384.7c-.228-.086-1.27-.472-1.27-.472.364-.096.769-.157.886-.228Zm-.874.42c.199.081 1.104.438 1.389.509.273.327.585.908 1.142 1.199-1.284-.047-1.798-.868-2.531-1.707Z"/>
    <path fill="#0C3388" d="M19.376 3.805a.36.36 0 1 0 .622-.362.36.36 0 0 0-.622.362Zm-1.649 1.71a.358.358 0 1 0 .62-.357.358.358 0 0 0-.62.357Zm4.55 1.44C22.085 5.54 20.53 4.2 19.96 3.961a8.088 8.088 0 0 0-.257 1.37c-.271-.013-1.02-.213-1.312-.399.416.64.081 2.456 1.505 3.374.65.418 1.034.678 1.295.908l.215-.014c-.429-.451-.708-.39-1.145-1.012-.68-.967-.31-3.28-.251-3.788.141.286 1.39 3.724 1.672 4.641l.127-.074c-.297-1.048-1.311-3.546-1.684-4.717 1.283.909 1.905 1.845 2.006 2.744.066.595-.196 1.395-.25 1.781-.01.144.006.288.047.426l.136-.014a.983.983 0 0 1-.037-.265c.02-.396.352-1.236.252-1.967Zm-2.6-1.426s-.022.522-.016.797l-.866-1.043c.365.098.744.246.883.246Zm.374 2.67c-1.09-.682-1.129-1.65-1.342-2.74.13.171.739.93.95 1.133.074.42.055 1.077.392 1.607ZM4.099 3.976a.36.36 0 1 0-.356-.624.36.36 0 0 0 .356.624Zm1.704 1.656a.36.36 0 1 0-.356-.625.36.36 0 0 0 .356.625Zm4.493-4.224c-1.39.797-.954 1.1-1.811 1.701-.967.676-3.281.297-3.793.236.292-.137 3.869-1.312 4.786-1.592l-.074-.127C8.356 1.92 5.723 2.86 4.548 3.224 5.462 1.946 6.4 1.325 7.299 1.23c.595-.065 1.395.2 1.78.256.216.03.66-.086.991-.26l-.161-.093c-.22.126-.509.215-.683.207-.395-.02-1.234-.354-1.965-.259-1.417.189-2.761 1.74-3.004 2.313.449.127.907.214 1.37.262-.014.27-.216 1.018-.402 1.31.644-.414 2.455-.07 3.38-1.493.924-1.425 1.076-1.557 1.832-1.96l-.141-.105ZM5.824 3.68s.522.024.797.02l-1.047.861c.1-.364.252-.744.25-.88Zm-.075.968c.171-.13.933-.737 1.135-.942.42-.072 1.081-.05 1.612-.387C7.811 4.405 6.843 4.433 5.75 4.65ZM1.35 8.827a.36.36 0 1 0-.62-.363.36.36 0 0 0 .62.363Zm2.302.587a.359.359 0 1 0-.62-.362.359.359 0 0 0 .62.362Z"/>
    <path fill="#0C3388" d="M5.445 3.515c-.806 1.383-.278 1.43-.725 2.377-.501 1.067-2.698 1.89-3.172 2.096.184-.264 2.702-3.063 3.358-3.763l-.126-.076c-.764.778-2.58 2.901-3.416 3.808.157-1.563.662-2.569 1.393-3.1.484-.351 1.31-.52 1.671-.664.203-.08.53-.403.73-.719h-.185c-.128.22-.335.441-.49.52-.351.18-1.247.309-1.833.755-1.136.867-1.531 2.883-1.45 3.498.45-.115.89-.267 1.315-.457.122.242.322.99.303 1.337.348-.677 2.095-1.283 2.187-2.976.09-1.693.16-1.888.613-2.613l-.173-.023ZM2.923 8.6c-.096-.365-.153-.77-.224-.886 0 0 .465-.242.702-.38-.087.226-.478 1.266-.478 1.266Zm.192-.011c.085-.198.443-1.103.516-1.386.329-.272.912-.58 1.21-1.136-.058 1.284-.883 1.792-1.726 2.522Z"/>
    <path fill="#0C3388" d="M1.773 8.001s.31.752-.911 1.513c-1.1.686-.722 1.343-.182 1.814.252-.761.732-1.612 1.224-2.982l.13.01c-.21.692-.782 1.663-1.253 3.062 1.262-.52 1.624-1.482 1.704-1.904-.34-.69-.311-1.182-.281-1.672l.15-.05c-.258 1.572.944 2.374.984 2.955.015.237-.252.541-.612.806-.2-.11-.542-.444-.771-.764-.291.33-.791.68-1.233.764-.992-.732-.952-1.557.06-2.127 1.012-.571.872-1.184.862-1.367l.13-.058Zm.892 3.357a4.874 4.874 0 0 0-.323-1.062 4.49 4.49 0 0 1-.301.411c.178.245.388.464.625.651h-.001Zm.512-.591c0-.23-.371-.751-.582-1.048 0 .129-.15.5-.15.5.15.271.31 1.012.322 1.152.059-.063.41-.374.41-.604Zm5.721 11.211a.358.358 0 1 1 0 .717.358.358 0 0 1 0-.717Zm.655-2.285a.359.359 0 1 1 0 .718.359.359 0 0 1 0-.718Zm3.58.854c1.042.092.814.573 2.418.573l.066-.161c-.854.026-1.054-.014-2.564-.789-1.51-.774-2.913.427-3.674.388.308.161.855.709 1.002.935a7.938 7.938 0 0 0-1.055.913c.494.374 2.433 1.053 3.753.509.682-.282 1.244-.99 1.576-1.204.147-.093.441-.16.695-.16l.094-.162c-.375.015-.818.135-.988.268-.308.242-.87.87-1.416 1.11-.827.363-1.951.294-3.38-.362 1.202-.266 3.954-.761 5.01-1.029v-.146c-.936.214-4.623.975-4.943 1.002.413-.31 2.232-1.792 3.406-1.685Zm-2.591.827c-.068-.12-.389-.374-.656-.641l1.336.227c-.24.134-.68.414-.68.414Zm-.548-.801c1.055-.362 1.91-.815 3.046-.214-.63-.026-1.19.322-1.59.468-.28-.08-1.242-.228-1.456-.255Z"/>
    <path fill="#0C3388" d="M14.494 22.045a.359.359 0 1 1 .358.622.359.359 0 0 1-.358-.622Zm-.574-2.305a.358.358 0 1 1 .359.62.358.358 0 0 1-.36-.62Zm5.227-.75c-.145.362-.322 1.186-.672 1.668-.536.725-1.544 1.228-3.108 1.377.908-.833 3.045-2.635 3.826-3.394l-.073-.128c-.704.652-3.518 3.154-3.783 3.337.206-.472 1.043-2.665 2.11-3.16.95-.439.994.092 2.382-.71l-.021-.172c-.726.45-.922.516-2.616.599-1.694.083-2.31 1.823-2.99 2.17.347-.014 1.094.187 1.335.31a8.14 8.14 0 0 0-.46 1.314c.616.081 2.632-.303 3.505-1.435.451-.584.583-1.477.765-1.83.08-.154.303-.36.523-.483v-.186c-.316.196-.64.522-.723.723Zm-1.873-.415c-.558.29-.87.872-1.143 1.2-.285.07-1.19.424-1.39.507.734-.84 1.248-1.66 2.532-1.707Zm-2.544 1.897 1.27-.47c-.142.235-.384.698-.384.698-.117-.067-.522-.127-.886-.228Z"/>
    <path fill="#0C3388" d="M19.376 19.31a.36.36 0 0 1 .657.088.359.359 0 1 1-.657-.088Zm-1.649-1.712a.359.359 0 1 1 .62.361.359.359 0 0 1-.62-.36Zm4.3-3.406a1.02 1.02 0 0 1 .038-.264l-.136-.015a1.25 1.25 0 0 0-.048.426c.055.386.316 1.186.25 1.78-.1.9-.724 1.836-2.005 2.745.372-1.175 1.386-3.67 1.683-4.717l-.126-.074c-.285.917-1.536 4.352-1.674 4.647-.059-.512-.428-2.83.25-3.789.438-.621.717-.564 1.146-1.011l-.215-.015c-.261.23-.645.49-1.295.909-1.426.919-1.09 2.735-1.505 3.373.292-.185 1.041-.385 1.312-.398.046.463.132.921.257 1.37.571-.242 2.129-1.578 2.319-2.995.1-.736-.231-1.576-.25-1.973Zm-3.232 3.64.866-1.043c-.006.274.017.796.017.796-.139-.002-.518.146-.883.246Zm.863-1.31c-.21.203-.819.961-.95 1.133.219-1.094.253-2.062 1.343-2.74-.337.53-.318 1.19-.393 1.607ZM4.1 19.138a.36.36 0 1 1-.357.623.36.36 0 0 1 .357-.623Zm1.704-1.655a.359.359 0 1 1-.358.622.359.359 0 0 1 .358-.622Zm2.682 2.522c.857.6.42.904 1.81 1.702l.139-.106c-.756-.403-.91-.537-1.832-1.96-.923-1.424-2.74-1.08-3.38-1.493.187.291.39 1.039.402 1.31a8.122 8.122 0 0 0-1.37.263c.242.57 1.587 2.123 3.003 2.308.731.096 1.57-.242 1.966-.258.174-.009.463.08.683.207l.161-.093c-.332-.174-.775-.291-.99-.26-.387.055-1.186.323-1.781.256-.9-.096-1.838-.715-2.752-1.995 1.179.367 3.812 1.311 4.86 1.601l.074-.127c-.917-.28-4.494-1.45-4.786-1.591.512-.06 2.827-.44 3.793.236Zm.011-.209c-.531-.335-1.191-.314-1.612-.386-.202-.21-.967-.815-1.135-.945 1.094.213 2.062.245 2.747 1.331Zm-2.672-.363c0-.137-.15-.518-.249-.882 0 0 .858.708 1.048.862-.277-.003-.799.02-.799.02Zm-4.473-5.146a.36.36 0 1 1-.62.362.36.36 0 0 1 .62-.362Zm2.302-.586a.359.359 0 1 1-.618.364.359.359 0 0 1 .618-.364Z"/>
    <path fill="#0C3388" d="M4.723 17.221c.445.947-.086.993.725 2.378l.172-.023c-.454-.725-.52-.918-.613-2.613-.093-1.695-1.84-2.294-2.186-2.976.016.346-.181 1.095-.303 1.337a8.093 8.093 0 0 0-1.317-.454c-.073.616.319 2.63 1.451 3.498.586.448 1.481.575 1.834.755.154.081.36.3.489.52h.184c-.201-.317-.527-.64-.73-.72-.362-.145-1.188-.312-1.671-.664-.729-.528-1.234-1.536-1.388-3.1.838.904 2.653 3.03 3.416 3.807l.127-.075c-.656-.7-3.174-3.499-3.359-3.761.471.202 2.667 1.025 3.169 2.091Zm-2.024-1.82c.07-.118.128-.523.225-.886l.477 1.27a15.802 15.802 0 0 0-.702-.384Zm.416-.877c.844.73 1.668 1.238 1.721 2.522-.293-.555-.876-.864-1.209-1.137-.069-.281-.427-1.187-.512-1.385Z"/>
    <path fill="#0C3388" d="M1.644 15.052c.01-.18.15-.792-.862-1.363-1.012-.57-1.048-1.395-.06-2.127.442.08.942.434 1.233.764.23-.322.57-.653.771-.764.36.265.627.565.612.806-.04.581-1.243 1.383-.983 2.957l-.15-.05c-.03-.493-.06-.983.28-1.675-.08-.42-.44-1.382-1.703-1.903.47 1.402 1.042 2.375 1.253 3.063l-.13.01C1.413 13.4.933 12.545.68 11.782c-.54.472-.919 1.129.182 1.813 1.222.765.91 1.516.91 1.516l-.13-.06Zm.403-2.645c.107.13.207.266.299.408a4.85 4.85 0 0 0 .322-1.063c-.237.19-.446.41-.624.655h.003Zm.725-.662c-.01.141-.17.882-.322 1.152 0 0 .15.372.15.501.21-.3.581-.82.581-1.051 0-.232-.355-.541-.415-.602h.006Zm19.662-2.988a.358.358 0 1 0 .621-.358.358.358 0 0 0-.62.358Zm.1 5.892a.36.36 0 1 0 .624-.361.36.36 0 0 0-.624.36Zm-3.977-2.34h.8l-.009-.14-.13-.08-1.062-2.324-.27.199.08.28-.781 1.835a.234.234 0 0 1-.21.13v.1h.651v-.1a.657.657 0 0 1-.22-.1l.191-.43h.914l.217.53h-.17l-.002.1Zm-.853-.87.371-.833.338.832h-.71Z"/>
    <path fill="#0C3388" d="m23.68 9.3-.267-.253h-3.102c-.167 0-.45.467-.45.467 0-.18-.25-.467-.34-.467h-.047c.032.099.063.2.092.301a.468.468 0 0 1 .222.355v3.886a1.46 1.46 0 0 0-.214-.22l-.025-.021c-.021-.016-.042-.032-.064-.046-.009-.007-.02-.012-.027-.019-.031-.018-.062-.038-.096-.055a1.054 1.054 0 0 0-.096-.042c-.01 0-.021-.006-.032-.01l-.076-.021-.032-.006a.734.734 0 0 0-.108-.01h-2.559V9.26h.946c-.03-.072-.066-.142-.098-.214h-.967l-.267.254h-.322v4.502h1.668c.024-.063.053-.124.076-.187h-1.517v-4.11l.335-.228v3.981h2.591a.919.919 0 0 1 .68.427c.008.015.02.026.028.041h.528a.914.914 0 0 1 .707-.468h2.592V9.274l.335.227v4.115h-2.7c-.546 0-.427.468-.76.468h-.85l-.076.213h1.128c.242 0 .106-.494.801-.494h2.685V9.301h-.322Zm-.387 3.837h-2.551c-.323 0-.628.253-.775.453V9.702c0-.242.293-.44.44-.44h2.886v3.875Z"/>
    <path fill="#0C3388" d="M20.981 12.06a.593.593 0 0 1-.34.1v.139h.771v-.161a1.58 1.58 0 0 1-.451-1.102c0-.692.311-1.073.762-1.073.452 0 .764.382.764 1.079 0 .412-.162.807-.45 1.101v.162h.771v-.14a.593.593 0 0 1-.34-.1 1.409 1.409 0 0 0 .437-1.023c0-1.032-.81-1.263-1.182-1.263-.37 0-1.182.231-1.182 1.263a1.409 1.409 0 0 0 .44 1.018Zm-1.417-2.71a.372.372 0 0 0-.047-.03l-.02-.01-.038-.019-.031-.012-.027-.009a.228.228 0 0 0-.055-.007h-1.941c-.03-.073-.065-.143-.098-.215a6.036 6.036 0 1 0 .112 4.756c.025-.063.054-.124.077-.187h1.181c.547 0 .428.467.761.467h.025c-.023.071-.05.143-.075.214a8.045 8.045 0 1 1 .176-4.949Zm-13.68 5.945c-.173.132-.242.403-.052.654.189.25.469.255.644.123.176-.132.248-.397.054-.653-.195-.255-.485-.249-.646-.124Zm.503.231a.26.26 0 1 1-.37-.057.25.25 0 0 1 .367.057h.003Zm-2.102-4.323c-.007.306.207.492.426.497.205 0 .44-.156.448-.477.007-.32-.22-.494-.427-.497-.207-.004-.44.167-.447.477Zm.177.004a.26.26 0 1 1 .254.275.25.25 0 0 1-.254-.274v-.001Zm1.65-3.045-.12-.284a.6.6 0 0 0-.234-.296.317.317 0 0 0-.267-.018.398.398 0 0 0-.19.179c-.1.174-.087.384.1.492a.291.291 0 0 0 .409-.09.312.312 0 0 0 .038-.12l.132.363.131-.226Zm-.6-.136a.143.143 0 0 0 .196-.047.145.145 0 1 0-.268-.092.14.14 0 0 0 .072.14v-.001Zm2.88-1.948-.8-1.009-.23.184.02.023a.109.109 0 0 1 .15.021l.189.237-.271.216-.254-.116-.055-.148-.271.214.021.029a.094.094 0 0 1 .162.042l.388.979.126-.1-.289-.788.843.348.081-.067.04.05.15-.115Zm-.242-.013-.558-.253.215-.17.343.423Zm1.596-.797-.766.366-.033-.07.653-.313-.135-.28-.34.16-.057-.116.454-.217.007-.137-.34.162a.268.268 0 0 0 .028-.257c-.06-.128-.236-.175-.417-.121a.02.02 0 0 0-.005-.008c-.014-.023-.059-.025-.059-.025l-.178.081.01.019a.054.054 0 0 1 .05.004l.005.01c-.153.109-.225.272-.161.399a.273.273 0 0 0 .218.14l-.345.16.117.081.448-.213.055.115-.359.172.105.085.644-.307.034.07-.726.35.01.02c.06-.028.112.04.112.04l.091.193.869-.417.011-.146Zm-1.122-.42a.23.23 0 1 1 .293.081.215.215 0 0 1-.293-.08Zm5.955 12.609.39.757.189-.096-.162-.31.056-.027c.102-.052.207.08.37.198l.209-.106c-.221-.168-.292-.249-.39-.248a.219.219 0 0 0 .034-.252.255.255 0 0 0-.36-.09l-.336.174Zm.509.022c.032.065-.008.113-.06.14l-.1.052-.089-.172.095-.049c.075-.037.128-.027.157.03h-.003Zm-.014-11.968c.18.12.408.097.508-.052a.306.306 0 0 0 .026-.274l.138.091.13-.07-.336-.224.066-.1-.242-.16-.025.029c.095.063.041.124.041.124l-.332-.222-.02.145.145.096a.302.302 0 0 0-.242.13c-.1.148-.034.368.146.487h-.003Zm.075-.105a.201.201 0 1 1 .15.024.197.197 0 0 1-.146-.024h-.004Zm-3.98-.242-.256-1.248-.297.06.008.037s.115-.007.128.06l-.488.102h-.028a.88.88 0 0 0-.058-.106l-.208.041.007.03a.072.072 0 0 1 .086.057v.005a.424.424 0 0 0 .242.81.43.43 0 0 0 .33-.308l.241-.049.113.548.18-.039ZM9.995 4.64a.238.238 0 1 1 .458-.095.239.239 0 0 1-.276.32.237.237 0 0 1-.182-.225Zm.644-.13a.489.489 0 0 1 .008.067l.201-.041-.068-.34-.303.06a.423.423 0 0 1 .162.257v-.002ZM6.476 7.068a.292.292 0 0 0-.415.055.283.283 0 0 0-.046.116l-.103-.374-.15.212.095.295a.588.588 0 0 0 .205.316.322.322 0 0 0 .264.042.416.416 0 0 0 .206-.161c.115-.165.12-.377-.056-.5Zm-.294.433a.144.144 0 0 1-.034-.2.144.144 0 0 1 .236.166.143.143 0 0 1-.202.034ZM4.718 9.752c.287.08.367-.348.491-.313.042.01.054.065.034.138a.649.649 0 0 1-.145.242l.161.044a.701.701 0 0 0 .141-.26c.053-.19-.008-.339-.149-.378-.295-.08-.362.35-.496.312-.05-.013-.065-.063-.043-.141a.484.484 0 0 1 .184-.252l-.177-.048a.587.587 0 0 0-.162.273c-.051.183.004.341.16.383Zm-.38.76.154.024.065-.41.202.032-.061.384.154.024.062-.384.176.03-.064.402.154.025.098-.612-.845-.134-.096.618Zm.441 2.208.479-.064-.028-.21-.47.062a.197.197 0 0 1-.237-.187.191.191 0 0 1 .167-.232l.483-.063-.028-.21-.484.062c-.26.034-.352.226-.322.472.038.23.16.409.44.372v-.002Zm.01.886-.114-.42.671-.178-.053-.205-.824.217.166.628.154-.042Zm11.364 2.89.104.117.23-.205.465.518.161-.142-.464-.517.23-.206-.096-.103.557.03.308.254.134-.161-.308-.253-.134-.548-.162.197.087.314-.322-.028-.161.195-.009-.01-.62.549Zm-.242.198.484.701.174-.12-.484-.702-.174.121Zm-.516.597c.169.255.502-.029.578.086.029.043.008.09-.06.134a.488.488 0 0 1-.303.072l.102.152a.574.574 0 0 0 .303-.102c.157-.105.218-.261.128-.396-.166-.247-.506.025-.578-.081-.024-.035 0-.085.065-.127a.652.652 0 0 1 .267-.087l-.093-.138a.712.712 0 0 0-.276.105c-.16.108-.214.258-.133.382Zm-1.52.44.299.798.589-.219-.056-.147-.388.147-.073-.192.363-.137-.053-.146-.365.136-.063-.168.38-.144-.055-.148-.578.22Zm-.931.242.603.742.09-.022.18-.932-.222.054-.094.523-.333-.42-.224.055Zm-.288.028.12.843.212-.029-.122-.843-.21.03Zm-1.028.065.03.852.214-.009-.02-.545.49.529.178-.006-.027-.857-.212.007.019.52-.477-.503-.195.012Zm-.664.806c.232.026.435-.049.466-.329l.056-.483-.212-.024-.054.472a.197.197 0 0 1-.242.184.194.194 0 0 1-.143-.067.193.193 0 0 1-.044-.151l.056-.484-.212-.024-.054.484c-.022.249.139.386.38.415l.003.007Zm-1.44-.967c-.089.294.34.37.3.503-.014.049-.065.063-.142.04a.483.483 0 0 1-.247-.19l-.052.175c.072.082.165.14.27.169.182.054.34.004.387-.153.087-.284-.339-.376-.302-.498.012-.041.066-.053.14-.032.088.033.17.085.237.15l.047-.16a.7.7 0 0 0-.258-.148c-.188-.062-.338-.005-.38.136v.008Zm-.252-.057.101.04.088-.145.055-.143-.161-.06-.054.141-.03.167Zm-.833-.694-.379.753.189.096.242-.488.176.7.161.08.382-.762-.19-.095-.233.467-.173-.67-.175-.08Zm-1.2.215.512.365.09-.128-.339-.242.12-.167.316.225.09-.127-.316-.225.106-.153.333.236.09-.128-.505-.36-.496.704Zm-.355-1.475-.587.616.151.147.368-.385-.018.352.023.023.353-.036-.367.385.153.147.59-.62-.135-.125-.416.04.02-.417-.135-.127ZM5.31 14.332l.333-.389-.102-.2-.6.725.04.08.616-.014-.378.484.042.08.94-.057-.102-.2-.51.035.322-.408-.08-.153-.52.017Zm.516-5.642-.793-.377-.1.204.795.378.098-.205Zm1.158-1.743-.664-.573-.153.161.668.582.15-.17Zm5.804-2.584h-.23V3.91h-.29v.031s.104.032.104.08v.977l-.419-.814.027-.067h.242l.06-.128h-.828l.071.128h.255l-.334 1.011h.162l.268-.725.37.725h.122v.046h.187v-.682h.144l.088-.128Zm1.821.067-.268-.094-.008.023s.08.057.054.133l-.105.302-.176-.06.15-.427-.257-.09-.008.024s.076.04.039.152l-.162.464-.457-.046.18-.515.218.076.118-.1-.564-.2-.01.03s.095.03.054.148l-.236.674.65.07-.152.434.18.062.22-.633.17.058-.223.634.177.063.416-1.182Zm1.057 1.538-.957-.645-.014.157.737.494-.146.22.161.104.219-.33Zm.16-.242.121.08.141-.058-.19-.127.253-.378-.242-.16-.018.025s.069.08.042.126c-.026.045-.233.347-.403.6l.157.104.14-.212Zm.892 1.337.726-.673-.8-.756-.04.133.61.576-.631.598-.111-.106.44-.468-.195-.185-.02.021c.063.06.028.106.028.106l-.382.403-.124-.116.443-.47-.19-.18-.023.023c.066.062.026.108.026.108l-.38.403-.192-.182-.044.143.865.818.139-.054-.145-.142Zm1.07.432a.248.248 0 1 0 0 .497.248.248 0 0 0 0-.497Zm.268 7.126a.249.249 0 1 0 0 .498.249.249 0 0 0 0-.498Z"/>
  </g>
  <defs>
    <clipPath id="a">
      <path fill="#fff" d="M0 0h24v24H0z"/>
    </clipPath>
  </defs>
</svg>
