<svg xmlns="http://www.w3.org/2000/svg" width="24" height="24" fill="none" viewBox="0 0 24 24">
  <g clip-path="url(#a)">
    <path fill="#032E86" d="M13.54 2.916c-.376-.844-1.649-.266-1.649-.266 1.068.681 1.65.266 1.65.266Zm-2.1-.125c.132 0 .24-.109.24-.24a.241.241 0 0 0-.24-.24.242.242 0 0 0-.24.24c0 .131.11.24.24.24Zm2.91.208s-.46-.01-.88.243l1.353.019a.397.397 0 0 1 .047-.035s-.674-1.826-2.467-2.05c0 0 .431 1.35 1.947 1.823Zm.949.354a.179.179 0 1 0-.358 0 .179.179 0 0 0 .358 0Zm-7.224-.089 1.352-.02c-.422-.252-.883-.242-.883-.242a3.056 3.056 0 0 0 1.947-1.822c-1.793.224-2.468 2.049-2.468 2.049.023.016.026.016.048.035m-.431.189a.179.179 0 1 0 .357 0 .179.179 0 0 0-.357 0Zm.112 1.441c-.975-.693-2.398-.156-2.398-.156C6.617 3.775 6.607 2.24 6.607 2.24 5 3.066 4.99 5.01 4.99 5.01c1.966.582 2.762-.115 2.762-.115Zm.543-.38.013-.659c-.732-.214-1.474-.076-1.474-.076 1.41-.726 1.669-2.241 1.669-2.241-1.726.53-2.075 2.445-2.075 2.445.796.397 1.416.518 1.864.528m7.793-.838s-.588-.179-1.326.074v.674c.447-.01.907-.118 1.735-.556 0 0-.393-1.905-2.128-2.398 0 0 .294 1.51 1.72 2.203m-6.733-.675s.595.394 1.637-.326c0 0-1.292-.53-1.637.326Zm9.043 9.13h-.757v.956h.757v-.956Zm-2.04-6.553-.389.467 2.113 2.113.428-.429-2.151-2.151Zm4.115-.064-1.937-1.937-1.736 1.886 1.864 1.838 1.809-1.787ZM4.683 5.291a.179.179 0 1 0 .357 0 .179.179 0 0 0-.357 0Zm14.34 2.042a5.23 5.23 0 0 0 1.243.186s.227-.678.128-1.5l-.652.627c.07.166.16.332.272.499 0 0-.18-.15-.47-.31l-.518.498h-.003Zm-.588 9.472h-.755v.956h.755v-.956Zm-1.1-12.4.438-.444c-.185-.627-.563-1.384-1.496-1.835 0 0-.038 1.343 1.058 2.28Zm3.932 6.697a.179.179 0 1 0 .357 0 .179.179 0 0 0-.357 0ZM18.91 2.219c.566.281 1.02-.013 1.02-.013a.971.971 0 0 1 1.083.121c.438.342.368.796.368.796 0 .346-.1.371-.1.371-.21.144-.156-.099-.156-.099.007 0 .048-.17.048-.17.083-.783-.62-.894-.62-.894-.741-.128-.93.559-.93.559a1.263 1.263 0 0 0-.029.505l-.93-.93.045.786 2.074 2.075h.742l-.755-.755c.4.125.748.138.748.138 1.062-.064 1.17-1.077 1.17-1.077.279-1.059-.725-1.915-.725-1.915-.668-.576-1.682-.624-1.682-.624C18.841.927 18.33.007 18.33.007c-.17.418-.124 1.039-.124 1.039.096.955.703 1.18.703 1.18m2.615 8.582s1.208-1.525.466-3.174c0 0-.965 1.195-.581 2.736 0 0-.774-1.307-1.97-1.375 0 0 .183 1.04 2.085 1.816m-1.228-2.8a.179.179 0 1 0 0-.358.179.179 0 0 0 0 .358Zm-3.609-2.906.544-.562c-.46-.106-1.33-.26-2.033.262 0 0 .36.409 1.49.3Zm4.35 4.002s.928-1.71-.089-3.206c0 0-.745 1.343-.096 2.794 0 0-.99-1.154-2.18-1.013 0 0 .361.994 2.366 1.425Zm-6.338 13.074a.179.179 0 1 0 .357.001.179.179 0 0 0-.357 0Zm.898-.172s1.017-.873 1.026-1.96l-.361.016c-.33.288-.809.898-1.074 2.136 0 0 1.713.923 3.206-.093 0 0-1.346-.745-2.794-.096m-1.675.556s1.308-.777 1.375-1.969c0 0-1.042.182-1.816 2.084 0 0 1.525 1.209 3.174.467 0 0-1.195-.965-2.733-.582Zm-1.755.374c1.359-.63 1.66-1.684 1.66-1.684-1.055.073-1.963 1.659-1.963 1.659 1.183 1.208 2.717 1.054 2.717 1.054-.703-.93-2.414-1.029-2.414-1.029Zm-.754-.553v.448c-.208-.326-1.013-1.506-1.924-1.564 0 0 .31 1.052 1.671 1.672 0 0-1.71.112-2.407 1.052 0 0 1.49.134 2.66-1.026v.729h.454v-1.31h-.454Zm6.265-4.127v.956l4.277 3.548h.857l-4.354-4.504h-.78Zm-.53 2.906s.39-.467.582-1.119l-.73-.012a5.187 5.187 0 0 0-.223 1.39s1.576.524 2.835-.39l-.486-.39c-.537-.029-1.278.048-1.978.521Zm-8.487 1.084a.179.179 0 1 0-.358 0 .179.179 0 0 0 .358 0Zm11.958-5.006s.246-1.5-.623-2.318c0 0-.528.914.428 2.727 0 0 1.905-.39 2.398-2.132 0 0-1.51.294-2.203 1.723Zm-1.764 3.174-.63-.515c.013.16.032.33.064.512 0 0 .227.025.566 0m-.953.236a.179.179 0 1 0 0-.357.179.179 0 0 0 0 .357ZM2.9 18.035a.179.179 0 1 0 .358.001.179.179 0 0 0-.358 0Zm-1.307-3.471c1.49-1.413 1.279-2.449 1.279-2.449-1.087.499-1.333 1.998-1.333 1.998C1.34 12.537.004 11.777.004 11.777c-.09 1.806 1.589 2.787 1.589 2.787Zm.006.25a.179.179 0 1 0 .358 0 .179.179 0 0 0-.358 0ZM4.152 3.605l-1.387-1.4c-.86-.86-1.876-.291-1.876-.291l2.733 2.72c.182-.697.53-1.029.53-1.029Zm-1.064.857-2.36-2.36s-.987.707-.22 2.36h2.58ZM2.065 16.265c1.221-1.65.834-2.635.834-2.635-.984.678-.965 2.2-.965 2.2C1.46 14.318.013 13.8.013 13.8c.224 1.793 2.049 2.468 2.049 2.468m1.096 4.673s.278-.166.684-.227l-.447-.105-.045.054a.532.532 0 0 1 .045-.054l-1.992 2.097s-.227.326-.012.54c0 0 .2.163.476-.026l1.94-1.697c-.195-.102-.623-.457-.649-.582Zm3.779-.853h-.253c-.013 1.125 1.07 2.014 1.07 2.014-1.463-.614-2.79.163-2.79.163 1.519.98 3.206.015 3.206.015-.329-1.37-.904-1.959-1.233-2.192Zm-4.114-2.225c.914-1.835.367-2.74.367-2.74-.853.841-.572 2.334-.572 2.334-.729-1.41-2.24-1.669-2.24-1.669.533 1.726 2.445 2.072 2.445 2.072m5.194 2.825c.096 1.193 1.42 1.938 1.42 1.938-1.548-.349-2.721.645-2.721.645 1.665.7 3.161-.54 3.161-.54-.818-1.88-1.863-2.04-1.863-2.04M3.75 6.269c2.039.23 2.698-.594 2.698-.594-1.08-.511-2.388.262-2.388.262 1.077-1.166.802-2.678.802-2.678C3.42 4.348 3.75 6.266 3.75 6.266M3.849 19.3c.581-1.966-.115-2.758-.115-2.758-.694.975-.157 2.397-.157 2.397-.962-1.263-2.497-1.253-2.497-1.253.825 1.608 2.769 1.617 2.769 1.617m14.899-1.61s-.128.134-.17.335l.381.393a1.878 1.878 0 0 0-.211-.732M6.07 9.823l.7.617h1.576c-.076-.124-.05-.6-.05-.6L6.07 9.826v-.004Zm3.91-4.616v-.882h2.742v1.26h.905v.904h-.879v.403h.88v.981h-.88v2.945h-.754l-1.046-1.046-.955.956-.69-.69 1.585-1.586.818.818V5.207H9.98Zm-1.41 4.22c0 2.087 1.307 3.053 2.925 3.053 1.617 0 2.928-.962 2.928-3.053V3.475h-5.85v5.952M6.416 5.991s-.176.259-.85.402l.85.787V5.99Zm7.476 8.691c.192 0 .192-.144.192-.29v-1.36h.39v1.44c0 .21-.022.565-.585.565-.364 0-.582-.17-.582-.54v-1.464h.39v1.275c0 .15-.019.374.195.374Zm1.004.755v.364H14.5v.428h.348v.368H14.5v.444h.402v.368h-.79v-1.972h.784Zm-.105-2.404h.438l.111.275c.032.095.074.198.093.3h.003c.023-.102.055-.201.09-.3l.118-.275h.422l-.422.956.45 1.016h-.45l-.125-.313c-.038-.1-.06-.198-.086-.294h-.006c-.029.099-.051.195-.087.294l-.115.313h-.438l.42-1.017-.42-.955h.004Zm1.186 4.376-.074-.333h-.396l-.07.333h-.387l.457-1.972h.412l.473 1.972h-.415Zm-2.497 0-.093-1.423h-.006l-.064.486-.166.937h-.3l-.193-.946-.063-.442v-.038h-.007l-.057 1.423h-.42l.173-1.973h.515l.192 1.164h.003l.157-1.164h.524l.208 1.973h-.4l-.003.003Zm-1.263-4.376h.39v1.608h.406v.364h-.799v-1.972h.003Zm-.502-.304v6.69s.378-.373.905-.373h4.153v-8.302h-2.241s-.636 1.96-2.82 1.988m-1.675.857c0-.14-.067-.256-.265-.246h-.051v.524h.067c.179 0 .246-.118.246-.278m5.67 2.353h-.006l-.041.297-.083.524h.275l-.1-.524-.044-.297ZM5.202 7.15c-.07.054-.57.511-1.33.601l.259.243 2.717-.013-.844-.84-.428-.429s-.3.387-.377.438m15.155 10.68a.179.179 0 1 0-.358 0 .179.179 0 0 0 .358 0Zm1.048-3.066a.179.179 0 1 0 0-.357.179.179 0 0 0 0 .357Zm-1.15-1.336s-.362.994.898 2.615c0 0 1.809-.716 1.991-2.516 0 0-1.432.553-1.867 2.078 0 0-.019-1.522-1.02-2.177m1.369.448s-.282-1.496-1.378-1.966c0 0-.185 1.039 1.336 2.416 0 0 1.66-1.02 1.525-2.822 0 0-1.317.792-1.48 2.372m-2.139 2.48s-.677.812-.05 2.762c0 0 1.943-.054 2.73-1.681 0 0-1.538.028-2.469 1.313 0 0 .502-1.435-.21-2.394Zm2.184-4.242s-.537-1.422-1.7-1.697c0 0 0 1.058 1.735 2.148 0 0 1.454-1.295 1.01-3.043 0 0-1.157 1.01-1.045 2.592Zm-1.25 7.826a2.74 2.74 0 0 0 .818-.784s-.649-.083-1.406.173l.588.61ZM9.097 16.229l-.044-.3h-.007l-.041.3-.083.525h.275l-.1-.525ZM3.321 4.57c-1.23 1.323-.572 3.154-.572 3.154C4.795 7.6 5.303 6.672 5.303 6.672c-1.154-.317-2.305.67-2.305.67.857-1.335.326-2.777.326-2.777M11 20.414h1.18s.077-.512.412-.512h4.9v-8.624l-.485-.512v8.545h-4.39s-.59.051-1.05.617c0 0-.359-.54-1.13-.588H6.15v-8.494l-.527.528v8.531h4.785s.591.026.591.512m-9.17-9.079a.179.179 0 1 0-.358 0 .179.179 0 0 0 .357 0Zm-.157-.738c.348-1.547-.646-2.717-.646-2.717-.703 1.665.54 3.161.54 3.161 1.883-.818 2.04-1.863 2.04-1.863-1.193.096-1.937 1.42-1.937 1.42M.345 9.784c-.403 1.761 1.08 3.02 1.08 3.02 1.71-1.13 1.685-2.189 1.685-2.189-1.157.3-1.662 1.736-1.662 1.736C1.525 10.766.342 9.785.342 9.785m1.953-3.513s-.102-.64.563-1.595H.608s.095.262 1.687 1.595ZM8.244 9.6v-.243l-1.17-1.17H4.331L5.88 9.6h2.365Zm-2.826 9.903c.007.083.023-.02.023-.02v-1.166l-.192.214c.108.294.147.72.17.972ZM2.538 8.036a.179.179 0 1 0 .358.001.179.179 0 0 0-.358 0Zm2.87 12.774a.179.179 0 1 0 .001-.357.179.179 0 0 0 0 .357Zm1.25-13.365 1.586 1.557V7.797L6.658 6.21v1.234Zm-1.23 9.27h-.755v.956h.755v-.956ZM15.932 6.451l-1.234 1.34.013 2.141s-.039.355-.115.53h.792l2.264-2.266-1.723-1.748.003.003ZM9.254 13.02v.368h-.396v.428h.348v.367h-.348v.445h.4v.367h-.79v-1.969l-.547 1.97h-.32l-.569-1.973h.416l.237.95c.035.111.048.223.07.335h.003c.022-.115.029-.227.06-.342l.237-.943h1.193l.006-.003Zm.49 4.373h-.416l-.074-.333h-.396l-.07.333H8.4l.457-1.972h.409l.473 1.972h.003Zm-.41-4.373h.393c.25 0 .694.026.694.566 0 .217-.086.402-.281.508l.342.898h-.413l-.342-.91h-.006v.91h-.39V13.02h.003Zm1.224 0h.39v1.972h-.39V13.02Zm-.287 4.405a.59.59 0 0 1-.336-.1v-.37a.495.495 0 0 0 .297.105c.125 0 .224-.083.224-.214 0-.15-.121-.207-.23-.287-.227-.15-.365-.298-.365-.585 0-.31.18-.579.515-.579.125 0 .24.035.345.096v.38a.454.454 0 0 0-.28-.124c-.122 0-.2.073-.2.191 0 .327.595.342.595.876 0 .352-.2.614-.565.614m-1.94-1.64h-.31v1.605h-.39v-1.605h-.308v-.367h1.004v.367h.003Zm-1.947-5.047v8.301h4.114c.466.01.943.374.943.374v-6.642c-2.49-.054-2.996-2.036-2.996-2.036H6.384v.003Zm.179 10.804a4.853 4.853 0 0 0-.294-1.464h-.73c.199.694.646 1.215.646 1.215-1.333-.857-2.774-.326-2.774-.326 1.323 1.23 3.155.572 3.155.572M4.088 8.247l-.364-.342c-.885.224-1.531 1.01-1.531 1.01.415-.994.192-1.927.003-2.422l-.265-.218c-.77 1.458.083 3.056.083 3.056 1.183-.284 1.784-.751 2.074-1.087M2.1 19.432c1.09 1.439 3.008 1.113 3.008 1.113.234-2.04-.591-2.701-.591-2.701-.512 1.08.262 2.387.262 2.387-1.164-1.077-2.676-.799-2.676-.799m3.3-7.234h-.755v.956h.754v-.956Z"/>
  </g>
  <defs>
    <clipPath id="a">
      <path fill="#fff" d="M0 0h23.137v24H0z"/>
    </clipPath>
  </defs>
</svg>
