<svg xmlns="http://www.w3.org/2000/svg" width="24" height="24" fill="none" viewBox="0 0 24 24">
  <g clip-path="url(#a)">
    <path fill="#0066B5" d="M14.524.08c.964.205 1.756.791 2.074 1.501.74-.231 1.701-.034 2.495.544.796.579 1.282 1.436 1.287 2.214.771.086 1.57.66 2.058 1.508.334.58.486 1.22.451 1.792-.015.26-.076.516-.18.755.672.392 1.17 1.241 1.27 2.218.022.199.024.394.016.587-.047.755-.34 1.432-.802 1.85.312.44.463 1.037.424 1.677a3.489 3.489 0 0 1-.164.866c-.308.94-.968 1.666-1.71 1.908.036.178.05.363.04.554a3.16 3.16 0 0 1-.84 1.87c-.656.736-1.556 1.128-2.334 1.05-.166.757-.817 1.491-1.714 1.893-.902.399-1.887.397-2.56.009-.464.623-1.359 1.028-2.337 1.028-.985 0-1.886-.404-2.344-1.032-.677.383-1.657.39-2.556-.009-.899-.4-1.555-1.132-1.72-1.895-.771.075-1.67-.319-2.328-1.047-.581-.642-.883-1.444-.842-2.148.006-.097.02-.191.037-.283-.739-.245-1.395-.973-1.699-1.904a3.404 3.404 0 0 1-.168-1.26c.027-.493.174-.94.423-1.287-.542-.494-.852-1.358-.794-2.277.002-.054.008-.103.014-.154.098-.98.595-1.83 1.27-2.223a2.329 2.329 0 0 1-.176-1.087c.035-.513.19-1.01.451-1.453.492-.855 1.293-1.43 2.062-1.516 0-.033 0-.07.004-.103.041-.747.52-1.55 1.279-2.105.794-.583 1.758-.778 2.503-.542C7.732.871 8.522.29 9.482.082c.979-.214 1.945.006 2.524.535.579-.525 1.54-.743 2.518-.538Z"/>
    <path fill="#fff" d="M14.433.502c.944.2 1.691.8 1.857 1.49l.045.18.162-.088c.624-.332 1.57-.178 2.346.386.78.568 1.219 1.418 1.09 2.117l-.036.185.185-.016c.708-.054 1.508.472 1.988 1.307.48.837.538 1.793.134 2.38l-.105.148.172.065c.67.24 1.184 1.043 1.287 1.999.103.962-.24 1.857-.845 2.228l-.16.099.133.127c.515.49.659 1.436.359 2.35-.296.919-.969 1.598-1.674 1.694l-.185.02.07.17c.267.66.016 1.58-.626 2.295-.646.72-1.539 1.067-2.222.866l-.175-.056-.006.185c-.022.71-.628 1.45-1.504 1.84-.884.397-1.84.35-2.38-.112l-.144-.12-.078.169c-.307.636-1.161 1.067-2.123 1.067-.967.002-1.82-.43-2.126-1.071l-.082-.166-.14.123c-.541.455-1.495.5-2.374.11-.884-.391-1.49-1.132-1.51-1.842l-.006-.187-.174.054c-.682.199-1.572-.15-2.216-.862-.649-.716-.903-1.642-.63-2.298l.071-.17-.184-.023c-.7-.097-1.375-.776-1.672-1.689-.304-.919-.156-1.867.359-2.36l.13-.123-.153-.098c-.603-.373-.944-1.266-.843-2.222.096-.963.615-1.769 1.282-2.009l.175-.062-.103-.15c-.398-.588-.349-1.54.135-2.373.476-.838 1.279-1.365 1.989-1.312l.184.017-.035-.185c-.127-.697.31-1.545 1.086-2.113.784-.57 1.728-.725 2.353-.384l.16.084.046-.178c.166-.69.913-1.287 1.852-1.49.959-.205 1.888.041 2.321.622l.11.154.116-.156c.43-.573 1.36-.823 2.314-.616Z"/>
    <path fill="#0066B5" d="M2.14 11.898c0 5.43 4.42 9.85 9.85 9.85s9.848-4.42 9.848-9.85c0-5.431-4.417-9.849-9.849-9.849a9.86 9.86 0 0 0-9.848 9.85Zm.15 0a9.71 9.71 0 0 1 9.7-9.697 9.71 9.71 0 0 1 9.699 9.697 9.708 9.708 0 0 1-9.7 9.697 9.708 9.708 0 0 1-9.699-9.697Z"/>
    <path fill="#0066B5" d="M21.48 11.898a9.486 9.486 0 0 1-9.49 9.488 9.488 9.488 0 1 1 9.49-9.488Z"/>
    <path fill="#fff" d="M18.5 11.898a6.51 6.51 0 1 1-13.019 0 6.51 6.51 0 1 1 13.02 0Z"/>
    <path fill="#0066B5" d="M17.7 11.931a.05.05 0 0 0-.05.033l-.012.037c-.008.03-.012.053-.035.074a1.292 1.292 0 0 1-.254.158c-.074.04-.152.076-.22.127l.013-.172c.006-.074.006-.144.006-.216a.083.083 0 0 1 .02.006c.206.045.452-.18.54-.307.168-.255.109-.612.076-.754a1.148 1.148 0 0 0-.133-.359c-.013-.016-.035-.026-.054-.02a.052.052 0 0 0-.04.043v.041c0 .03 0 .053-.021.078-.052.082-.13.148-.205.215a1.53 1.53 0 0 0-.22.232 6.284 6.284 0 0 0-.053-.381c.03.02.063.04.102.047a.225.225 0 0 0 .111-.01c.183-.06.273-.33.291-.501.031-.291-.18-.568-.273-.677a1.15 1.15 0 0 0-.274-.246c-.021-.013-.041-.009-.06.006a.051.051 0 0 0-.014.033l.004.022.016.035c.01.02.02.039.02.064v.008a1.145 1.145 0 0 1-.081.283.951.951 0 0 0-.056.158 2.659 2.659 0 0 0-.189-.39.342.342 0 0 0 .041-.053.484.484 0 0 0 .056-.238.632.632 0 0 0-.08-.308c-.15-.267-.5-.374-.644-.406a1.248 1.248 0 0 0-.382-.048.06.06 0 0 0-.047.041c-.004.021.004.046.024.056l.035.016c.027.017.048.029.062.054.047.088.076.184.102.287.025.096.05.195.099.287a.783.783 0 0 0 .314.314c.127.074.246.09.338.053.058.11.136.288.218.52a1.565 1.565 0 0 0-.294-.117l-.13-.045c-.079-.031-.165-.103-.173-.17a.042.042 0 0 0-.016-.03.043.043 0 0 0-.031-.01.043.043 0 0 0-.041.041v.004c.024.242.061.493.21.678.091.11.303.254.469.238a.246.246 0 0 0 .156-.093c.04.185.082.382.104.595a.792.792 0 0 0-.045.144 1.41 1.41 0 0 0-.174-.17l-.12-.11c-.065-.069-.118-.184-.094-.256a.05.05 0 0 0 0-.036.05.05 0 0 0-.026-.025c-.027-.008-.052 0-.062.026-.098.255-.176.528-.115.786a.86.86 0 0 0 .152.302.028.028 0 0 0-.008.012c-.136.228-.259.474-.259.739l.002.047a.833.833 0 0 0 .06.246.8.8 0 0 0-.322.206l-.008.008c-.216.188-.275.543-.24.806.015.131.054.258.114.376.035.061.074.117.113.162l.05.047c-.13.187-.266.37-.409.548l-.002.002a15.893 15.893 0 0 1-.037-.686c0-.137.051-.231.152-.303a.047.047 0 0 0 .02-.058c-.006-.02-.024-.035-.05-.035-.021 0-.553.042-.752.542-.182.447-.123 1.001.048 1.233-.222.226-.37.353-.37.353l.14.058c.119-.08.268-.206.433-.37a.253.253 0 0 0 .071-.039c.097.017.796.154 1.238-.092.451-.248.636-.552.644-1.038a.053.053 0 0 0-.035-.051.049.049 0 0 0-.057.022c-.007.008-.152.236-.544.226a1.661 1.661 0 0 0-.575.092l.212-.308c.01 0 .02-.01.026-.016a.527.527 0 0 0 .169-.259l.09.007a.954.954 0 0 0 .72-.15.724.724 0 0 0 .318-.487 2.47 2.47 0 0 0 .01-.519.05.05 0 0 0-.037-.045c-.02-.006-.04.002-.055.02-.125.177-.23.191-.445.22h-.029a.777.777 0 0 0-.123.029c.036-.088.07-.177.103-.267a.307.307 0 0 0 .086.013.765.765 0 0 0 .507-.16c.225-.206.254-.567.256-.71 0-.13 0-.255-.041-.38a.05.05 0 0 0-.047-.037m-1.09-2.436-.012.017c-.023-.062-.03-.127-.066-.187-.053-.094-.143-.17-.211-.254a.98.98 0 0 0-.21-.21c-.024-.016-.053-.028-.081-.043-.02-.012-.054-.028-.062.002-.008.041.062.048.084.06.074.04.14.096.189.164.037.047.07.099.109.144.078.084.152.162.18.277.006.02.013.065.025.084-.086.055-.218-.008-.267-.035a.673.673 0 0 1-.275-.275 1.132 1.132 0 0 1-.09-.267c-.029-.102-.057-.211-.11-.31-.003-.002-.007-.002-.01-.008.069.008.136.02.206.037.13.03.447.127.579.36a.544.544 0 0 1 .061.256.4.4 0 0 1-.04.186m-1.281 5.807-.002-.135.014-.259.008-.117a.928.928 0 0 1 .017-.137c.006-.023.014-.062.022-.082a.918.918 0 0 1 .052-.115c.008-.02.012-.045 0-.056-.01-.008-.06.046-.068.07l-.03.082a.772.772 0 0 0-.038.136l-.002.096-.012.113s-.01.117-.01.213v.282c0 .02 0 .049.004.071a.482.482 0 0 0-.031.271.187.187 0 0 1-.123.045c-.086-.102-.154-.332-.154-.6 0-.19.035-.377.105-.553a.757.757 0 0 1 .513-.45.46.46 0 0 0-.074.263c0 .15.03.616.039.745-.017.015-.035.02-.052.033a.726.726 0 0 0-.178.164v-.082m1.227-.308a.775.775 0 0 0 .527-.166c-.037.372-.21.61-.585.817a1.127 1.127 0 0 1-.268.098 1.725 1.725 0 0 1-.513.029 3.214 3.214 0 0 1-.35-.041c-.007 0-.01-.01-.016-.03a.42.42 0 0 1-.004-.095c.02-.131.113-.23.218-.304a.387.387 0 0 1 .051-.03.045.045 0 0 0 .035-.027c.27-.171.585-.258.905-.25Zm.527-3.406.002-.033a.688.688 0 0 1 .12-.36c.053-.075.122-.134.194-.2.084-.069.159-.147.224-.234.006-.006.006-.012.006-.014.06.158.092.325.096.495a.672.672 0 0 1-.096.375c-.086.131-.3.297-.44.269l-.04-.017h-.004a.195.195 0 0 1-.041-.04.122.122 0 0 0 .049-.003l.045-.016c.156-.051.244-.259.244-.259l.041-.094a.735.735 0 0 0 .041-.095l.084-.301c.009-.041.003-.07-.008-.07-.014 0-.035.029-.04.07l-.083.281-.04.094a1.44 1.44 0 0 0-.042.097l-.156.18-.057.052c-.002 0-.054.014-.074.016-.002 0-.008 0-.01.006a.553.553 0 0 1-.019-.094v-.008c0-.031 0-.066.004-.097Zm-.178-1.01a.188.188 0 0 1-.066-.007.42.42 0 0 1-.098-.04 1.28 1.28 0 0 0-.09-.053l-.091-.074s-.068-.067-.119-.137a.997.997 0 0 0-.047-.072c-.027-.029-.056-.047-.066-.041-.008.014.002.047.029.078.073.11.163.207.267.287l.092.056a.548.548 0 0 0 .152.055.165.165 0 0 1-.088.053c-.122.013-.304-.098-.392-.205a.945.945 0 0 1-.17-.455.431.431 0 0 0 .122.076l.136.045c.109.037.234.076.328.14l.082.247.02.042-.001.008m.07-.088a.708.708 0 0 1-.064-.288c0-.024 0-.051.006-.078.017-.088.043-.174.078-.256.042-.098.07-.2.084-.306v-.008c.05.04.097.088.14.141.08.09.252.316.252.552 0 .017 0 .033-.004.05-.014.143-.096.373-.22.418-.02.006-.035.006-.05.006.03-.032.044-.106.05-.15.015-.09.018-.181.01-.272-.006-.113-.006-.23-.024-.34l-.012-.065c-.01-.043-.027-.082-.054-.071-.047.02.03.172.031.205.006.05.004.096.006.148.004.065.008.133.008.199 0 .063 0 .129-.016.19-.014.05-.037.095-.053.144-.058-.027-.111-.1-.169-.22Zm.092 1.522a3.663 3.663 0 0 1-.066.48.475.475 0 0 0-.072.107c-.047-.068-.094-.138-.141-.197l-.095-.133c-.05-.076-.082-.19-.057-.261a.45.45 0 0 0 .135.088c.099.033.226-.014.296-.084Zm-.56-.402a.869.869 0 0 1-.019-.172c0-.124.029-.247.062-.37a.549.549 0 0 0 .088.132l.127.117a.984.984 0 0 1 .222.235l-.004.023v.064l-.004.045c0 .076.01.152.053.211a.197.197 0 0 1-.027.041v.004c-.004 0-.004-.006-.008-.008l-.051-.06a.69.69 0 0 1-.078-.108l-.037-.074a1.68 1.68 0 0 1-.041-.095l-.043-.086a1.27 1.27 0 0 0-.056-.131l-.02-.045c-.012-.037-.035-.06-.05-.053-.012.006-.008.04.007.075l.02.041c.017.035.04.095.054.132l.04.09.042.09.07.126c.014.024.04.059.053.073l.053.056.006.006c-.047.033-.115.051-.16.035-.127-.045-.265-.246-.3-.394Zm-.156 2.384V14a1.502 1.502 0 0 0-.031.238.695.695 0 0 1-.035.148l-.006-.002c-.008 0-.029-.016-.029-.027-.004 0-.01-.02-.02-.03l-.015-.035a.635.635 0 0 1-.049-.117.775.775 0 0 1-.01-.127v-.232l.002-.095.002-.096v-.062c0-.02.012-.082.018-.102.009-.02.009-.048 0-.06-.008-.012-.053.027-.057.062-.006.033-.008.078-.01.098v.064l-.005.096-.002.097v.23c0 .04.015.174.031.205l.035.065c.02.035.04.07.058.105a.065.065 0 0 0 .026.033.447.447 0 0 1-.068.094 2.798 2.798 0 0 1-.094-.088.572.572 0 0 1-.098-.142.973.973 0 0 1-.107-.338c-.006-.041-.006-.088-.006-.133 0-.216.06-.45.211-.59l.013-.008c.04-.038.084-.074.129-.108l-.006.07c0 .034.004.067.006.096v.014a.91.91 0 0 0 .067.288.64.64 0 0 1 .05.383m-.015-.679-.004-.014-.004-.089c0-.04.008-.078.027-.11l.047-.04a.537.537 0 0 0 .185.206.266.266 0 0 0 .174.02c-.035.091-.074.18-.115.27a.609.609 0 0 0-.195.194.957.957 0 0 0-.055-.18.817.817 0 0 1-.062-.257m.64.232.031-.002c.177-.023.304-.041.425-.162a1.78 1.78 0 0 1-.016.371.626.626 0 0 1-.271.42.862.862 0 0 1-.65.134h-.007l-.072-.006c.004-.016.004-.035.004-.051.025.002.06.006.076.002a.768.768 0 0 0 .158-.041s.072-.02.134-.068a.226.226 0 0 1 .084-.047.393.393 0 0 0 .04-.02c.034-.023.085-.054.114-.077l.106-.078.167-.197c.022-.03.032-.061.018-.065-.014 0-.04.02-.068.051l-.143.17-.111.078a1.056 1.056 0 0 1-.11.074l-.032.014c-.034.017-.067.031-.096.058-.057.041-.107.06-.107.06-.04.014-.082.02-.092.024l-.115.016h-.02l.004-.008.02-.147v-.007a.819.819 0 0 1 .043-.155c.078-.185.255-.314.486-.345m-.14-.69a.46.46 0 0 0-.013.212l.002.022a1.135 1.135 0 0 1-.123-.2c-.015-.034-.033-.068-.035-.079l-.031-.065-.051-.103a.741.741 0 0 1-.046-.18c.003-.035.006-.069.007-.103 0-.019-.013-.035-.023-.035-.018 0-.027.014-.029.03l-.004.107.012.074a.475.475 0 0 0 .037.127l.052.103c.01.025.024.053.026.064.007.008.052.108.07.14.04.062.082.123.13.18 0 .006.006.008.008.012-.056.03-.138.045-.19.017-.122-.072-.225-.3-.235-.458v-.043c0-.172.061-.343.143-.507a.554.554 0 0 0 .07.154l.097.135c.053.074.115.156.16.238l-.033.158Zm.855-.507c-.005.13-.027.458-.226.637-.12.108-.304.133-.437.133-.017 0-.037 0-.047-.006a.091.091 0 0 1 .028-.012c.002-.002.02-.01.033-.021.03-.015.06-.03.09-.047l.068-.035a.309.309 0 0 0 .066-.056l.065-.088c.016-.02.033-.038.05-.057.014-.014.082-.078.096-.103l.05-.072c.008-.014.03-.057.05-.088 0 0 .027-.07.034-.106.004-.037-.003-.06-.015-.052a.225.225 0 0 0-.047.08l-.014.054-.052.088a.961.961 0 0 1-.076.107l-.061.059a.357.357 0 0 0-.052.06c-.014.016-.067.082-.088.098a.449.449 0 0 1-.096.068c-.044.02-.086.041-.127.065a.371.371 0 0 0-.033.017l-.015.008a.334.334 0 0 1-.018-.037c0-.055.004-.107.014-.166.013-.037.019-.068.027-.084a.66.66 0 0 1 .203-.322 1.11 1.11 0 0 1 .238-.144c.093-.05.191-.1.277-.177.002-.002.002-.008.008-.012l.007.152v.06Zm-3.56-4.553.316-.188.32.188-.082-.36.279-.243-.37-.035-.148-.342-.143.342-.37.035.275.242-.077.361Zm-4.906 0 .32-.188.318.188-.082-.36.28-.243-.369-.035-.147-.342-.144.342-.371.035.279.242-.085.361Zm2.441 8.382a.399.399 0 0 0-.23-.067.39.39 0 0 0-.377.264.43.43 0 0 0-.025.169.43.43 0 0 0 .111.307.36.36 0 0 0 .445.068.36.36 0 0 0 .132-.123v.033a.92.92 0 0 1-.023.195.503.503 0 0 1-.062.15.267.267 0 0 1-.088.088.237.237 0 0 1-.127.033.197.197 0 0 1-.144-.048.253.253 0 0 1-.071-.156l-.154.015c.009.09.05.173.117.234a.36.36 0 0 0 .248.082.41.41 0 0 0 .246-.072.444.444 0 0 0 .158-.226c.042-.125.061-.257.058-.39a.92.92 0 0 0-.058-.363.413.413 0 0 0-.156-.193Zm-.033.57a.238.238 0 0 1-.18.079.23.23 0 0 1-.18-.078.277.277 0 0 1-.079-.2.33.33 0 0 1 .08-.225.236.236 0 0 1 .357-.004c.05.06.075.137.07.215a.316.316 0 0 1-.068.214Zm2.063-.475a.332.332 0 0 0-.132-.123.407.407 0 0 0-.18-.04.376.376 0 0 0-.234.074.455.455 0 0 0-.144.216c-.035.12-.05.243-.047.367 0 .242.045.415.131.525a.358.358 0 0 0 .294.13.351.351 0 0 0 .232-.072.479.479 0 0 0 .141-.215c.033-.12.048-.245.045-.37a1.224 1.224 0 0 0-.029-.302.632.632 0 0 0-.078-.19Zm-.132.917a.21.21 0 0 1-.286.077.213.213 0 0 1-.079-.075c-.05-.07-.076-.21-.076-.423 0-.211.029-.355.082-.435a.204.204 0 0 1 .177-.094c.071 0 .135.037.184.109.047.067.072.209.072.42 0 .214-.025.353-.074.42ZM12 16.279h.633a1.78 1.78 0 0 0-.226.337 1.744 1.744 0 0 0-.164.416c-.036.12-.056.243-.06.367h.162c.042-.425.214-.827.495-1.149v-.123h-.837L12 16.28Zm-3.662-.946-.277-.072c-.037-.006-.102-.008-.141-.012l-.115-.002-.093-.002-.053.002c-.016 0-.07-.012-.086-.014l-.062-.023a.548.548 0 0 0-.053-.014l-.076-.017c-.033-.006-.123-.051-.127-.051l-.06-.045s-.06-.031-.061-.041c0-.006-.013-.02-.023-.027-.012-.008-.022-.006-.024.006-.005.008.012.041.034.066a.669.669 0 0 0 .11.084l.067.03s.033.021.07.03l.082.014.045.014a.46.46 0 0 0 .061.02c.017.009.048.011.066.015.032.002.063.002.094.002l.089.002.113.002.141.01.257.066c.037.013.073.013.082-.002.006-.01-.02-.03-.06-.043m6.515-.806.525-3.489s.103-.283-.131-.54a1.56 1.56 0 0 0-1.285-.498c-.478.029-.927.14-1.173.345l.022-.31h.041c.125 0 .23-.119.23-.267a.35.35 0 0 0-.026-.123c.123 0 .227-.115.227-.258 0-.148-.102-.267-.232-.267h-.061a.848.848 0 0 0 .227-.339c.144-.348.138-.833-.016-1.122-.195-.37-.047-.681-.045-.696a.078.078 0 0 0-.074-.113.078.078 0 0 0-.05.021c-.092.084-.175.18-.245.283l-.037.056-.015-.066a3.642 3.642 0 0 0-.24-.718.08.08 0 0 0-.131-.024.082.082 0 0 0-.023.046 1.47 1.47 0 0 1-.078.327l-.026.07-.029-.07c-.246-.608-.882-.821-.909-.83a.082.082 0 0 0-.096.038c-.017.03-.013.076.016.098.131.123.213.452.21.85v.061l-.046-.04c-.102-.093-.211-.16-.223-.17a.088.088 0 0 0-.085-.001.082.082 0 0 0-.04.07c0 .006 0 .463-.066.693a.601.601 0 0 1-.115.205c-.103.154-.232.343-.191.68.033.307.195.55.314.693h-.045c-.127 0-.23.119-.23.267 0 .143.102.258.226.258a.291.291 0 0 0-.025.123c0 .146.103.267.228.267h.04l.025.328c-.246-.205-.695-.336-1.175-.363a1.566 1.566 0 0 0-1.285.497c-.234.258-.133.54-.133.54s.472 3.139.53 3.488a.409.409 0 0 0 .373.36l2.043.159.023.322c0 .193.199.375.418.375.218 0 .42-.184.42-.375l.022-.322 2.047-.158s.314-.012.374-.361ZM12.8 8.115c.02-.193.02-.4-.006-.62v-.008l.002-.002a.98.98 0 0 1 .09-.187l.05-.082.004.092a.972.972 0 0 0 .117.425c.067.123.102.306.102.499 0 .168-.03.335-.092.492-.056.14-.164.32-.374.386a.074.074 0 0 0-.024.012h-.277c.205-.078.336-.398.406-1.005m-.382-1.301.029-.08.029.08c.08.25.178.63.178 1.026.001.085-.004.171-.014.256-.082.704-.23.852-.312.874-.076.023-.176-.04-.295-.178-.12-.138-.144-.361-.144-.52 0-.307.094-.676.22-.84a2.18 2.18 0 0 0 .31-.618Zm-.898.54.045-.136.006-.029c.012-.05.018-.1.02-.152l.002-.13c0-.229-.028-.45-.082-.623l-.024-.074.068.042c.217.143.492.393.57.8l.008.02v.006l-.006.009a1.8 1.8 0 0 1-.152.246c-.22.304-.402 1.17-.066 1.563a.68.68 0 0 0 .288.226h-.35c-.053-.035-.416-.295-.424-1.02v-.063c0-.44.052-.573.097-.686Zm-.696 1.054-.006-.098a.759.759 0 0 1 .172-.47.882.882 0 0 0 .138-.255c.03-.115.053-.297.063-.523l.004-.06.046.037a.971.971 0 0 1 .151.15l.013.013-.035.094c-.052.127-.113.285-.103.81 0 .538.191.852.337 1.016h-.405a1.237 1.237 0 0 1-.375-.712m.107 1.077c-.035 0-.068-.045-.068-.1 0-.056.033-.103.068-.103h1.867c.037 0 .068.047.068.103 0 .055-.031.1-.068.1h-1.867Zm.2.386c-.032 0-.067-.05-.067-.103 0-.055.035-.102.068-.102h1.465c.037 0 .067.047.067.102 0 .054-.03.103-.067.103H11.13Zm-1.489 4.71s.425-.167.889-.134c.46.035.771.205.75.301-.016.095-1.627-.016-1.639-.168Zm.088-.323c-.209-.006-.217-.144-.238-.226 0 0-.517-3.119-.492-3.32.006-.05.185-.533.977-.533.586.004 1.02.328 1.25.554l.282 3.73c-.44-.314-1.532-.2-1.779-.205Zm2.47 1.196s.005.123-.209.123c-.21 0-.256-.2-.256-.2l-.373-5.344h1.093l-.254 5.421Zm.502-.706c-.021-.098.293-.266.755-.301a2.31 2.31 0 0 1 .888.133c-.014.152-1.623.263-1.642.17m1.552-.492c-.246.006-1.338-.109-1.777.205l.28-3.728c.33-.34.778-.539 1.25-.554.793 0 .969.48.975.531.027.204-.492 3.318-.492 3.318-.02.086-.027.224-.236.228Zm1.333 1.116c.007.015.041.015.08.002l.257-.065c.037-.007.103-.009.141-.01h.113l.09-.005h.091a.186.186 0 0 0 .066-.016.284.284 0 0 0 .061-.02l.045-.015.082-.014a.278.278 0 0 0 .072-.027c.037-.017.068-.029.07-.033 0 0 .086-.06.109-.082.02-.027.035-.06.032-.068-.002-.01-.014-.014-.024-.006a.058.058 0 0 0-.023.029c0 .008-.061.04-.061.04a.345.345 0 0 0-.058.046c-.004 0-.096.045-.131.05l-.076.016a.93.93 0 0 0-.051.014l-.062.023c-.014.002-.07.014-.088.014h-.144l-.114.002-.144.01-.275.072c-.037.012-.062.03-.058.041m-6.64.445c.175-.232.23-.785.052-1.23-.203-.503-.735-.542-.755-.544-.02 0-.045.014-.05.034-.01.02 0 .048.021.058a.334.334 0 0 1 .152.302c0 .13-.027.512-.037.687a8.417 8.417 0 0 1-.41-.55c.014-.014.03-.029.045-.05a.777.777 0 0 0 .115-.16c.061-.116.1-.244.117-.375.032-.264-.027-.615-.238-.806l-.01-.008a.8.8 0 0 0-.323-.206.948.948 0 0 0 .062-.246v-.05c0-.262-.123-.508-.26-.738l-.009-.012a.817.817 0 0 0 .152-.3c.061-.26-.017-.531-.113-.786a.05.05 0 0 0-.062-.028c-.024.012-.037.037-.028.061.028.072-.03.19-.093.259l-.119.107c-.057.05-.123.104-.176.17a.779.779 0 0 0-.045-.144 4.12 4.12 0 0 1 .108-.595c.04.05.093.088.152.095.167.016.382-.128.47-.238.15-.185.189-.435.21-.678v-.004c0-.02-.017-.039-.042-.04a.042.042 0 0 0-.045.04c-.008.066-.094.138-.174.169l-.13.045c-.096.03-.2.065-.295.115.082-.228.164-.41.218-.517.092.037.213.02.34-.054a.78.78 0 0 0 .314-.314 1.4 1.4 0 0 0 .099-.287c.028-.103.053-.199.102-.287.017-.025.037-.037.062-.054l.037-.016a.053.053 0 0 0 .02-.055.057.057 0 0 0-.043-.041c-.133-.013-.258.016-.386.045-.143.035-.492.143-.644.408a.632.632 0 0 0-.078.308.458.458 0 0 0 .095.291 2.375 2.375 0 0 0-.185.39 2.098 2.098 0 0 0-.058-.158A1.293 1.293 0 0 1 7 9.551v-.008c0-.025.009-.041.02-.066l.017-.033c.002-.008.006-.014.006-.022a.053.053 0 0 0-.078-.041 1.262 1.262 0 0 0-.272.25c-.095.107-.304.384-.271.675.016.17.106.441.287.5a.205.205 0 0 0 .11.01.254.254 0 0 0 .108-.048 4.363 4.363 0 0 0-.054.383 1.508 1.508 0 0 0-.22-.232 1.16 1.16 0 0 1-.209-.215c-.018-.025-.018-.047-.018-.08l-.002-.039a.053.053 0 0 0-.037-.045c-.023-.006-.045.006-.058.023a1.162 1.162 0 0 0-.129.358c-.035.142-.092.5.074.754.088.127.332.352.542.307l.018-.006.004.216.013.172c-.068-.051-.142-.088-.216-.127a1.304 1.304 0 0 1-.256-.16c-.023-.02-.03-.041-.037-.072l-.013-.037c-.004-.02-.024-.035-.047-.035a.046.046 0 0 0-.045.037c-.041.123-.041.248-.041.38.004.143.033.504.257.71.114.102.29.158.504.16a.284.284 0 0 0 .089-.015l.102.27a.694.694 0 0 0-.123-.03h-.033c-.21-.028-.316-.043-.441-.22-.014-.016-.037-.024-.053-.02-.023.006-.037.023-.037.045a2.3 2.3 0 0 0 .01.518c.03.198.14.369.314.488a.962.962 0 0 0 .722.15l.09-.007a.533.533 0 0 0 .167.259c.008.006.016.014.028.014.07.105.142.206.216.308a1.666 1.666 0 0 0-.58-.09c-.39.008-.534-.218-.543-.226-.012-.02-.034-.029-.057-.02a.054.054 0 0 0-.037.049c.012.486.2.788.644 1.038.442.246 1.143.109 1.242.092.02.017.045.03.067.037.165.165.314.292.433.37l.142-.056s-.15-.127-.371-.353Zm-1.55-6.77c.133-.23.449-.33.578-.358.068-.016.137-.029.207-.037l-.008.008c-.05.098-.088.202-.11.31a1.384 1.384 0 0 1-.093.267.657.657 0 0 1-.275.275c-.051.027-.18.09-.267.037.013-.02.019-.066.025-.086.027-.115.102-.191.18-.277.04-.045.074-.097.107-.144a.585.585 0 0 1 .189-.164c.027-.01.096-.016.086-.06-.008-.03-.041-.014-.062 0-.026.013-.057.023-.082.042-.082.053-.143.133-.207.209-.072.084-.162.16-.215.254-.031.06-.041.123-.062.185l-.012-.014a.404.404 0 0 1-.045-.187c0-.09.026-.193.065-.26Zm-.39 2.632v-.054a.349.349 0 0 0-.007-.053v-.023a.97.97 0 0 1 .218-.238l.127-.117a.546.546 0 0 0 .088-.129c.037.123.066.246.066.37a.702.702 0 0 1-.02.17c-.035.148-.17.349-.3.394-.045.016-.113-.002-.162-.035.004 0 .006 0 .006-.006l.053-.056a.622.622 0 0 0 .058-.073c.014-.03.06-.107.063-.123a.652.652 0 0 0 .043-.093l.041-.09.056-.133.02-.04c.013-.036.017-.07.005-.075-.01-.007-.037.016-.05.053l-.02.045a1.761 1.761 0 0 0-.054.131l-.04.087-.046.094a.856.856 0 0 1-.113.185c-.014.012-.037.04-.053.057l-.006.008-.002-.006a.117.117 0 0 1-.023-.04.382.382 0 0 0 .052-.21Zm.09-1.155a.753.753 0 0 0 .055-.165l.033-.082c.086-.063.213-.102.324-.14l.14-.046a.568.568 0 0 0 .12-.076.948.948 0 0 1-.172.455c-.086.109-.272.218-.394.205a.164.164 0 0 1-.088-.05.523.523 0 0 0 .154-.058l.09-.054a.876.876 0 0 0 .089-.072s.086-.078.137-.153c.029-.048.045-.062.045-.062.023-.033.035-.066.027-.078-.012-.008-.041.012-.062.041 0 0-.024.025-.05.07-.05.07-.124.137-.124.137a.86.86 0 0 1-.09.074c-.02.01-.06.037-.086.054a.343.343 0 0 1-.163.049l-.002-.006c.002-.015.01-.029.017-.043Zm-.255.178c-.016-.05-.04-.094-.05-.143-.017-.062-.017-.126-.017-.191 0-.066.002-.134.006-.197.002-.052 0-.1.004-.148.006-.035.08-.185.033-.205-.027-.015-.041.026-.052.07a.348.348 0 0 0-.014.065c-.02.109-.02.226-.027.339-.004.092 0 .184.013.275.006.04.02.115.051.15-.014 0-.03 0-.05-.007-.126-.047-.209-.275-.223-.418l-.002-.052c0-.236.172-.461.252-.552a1.53 1.53 0 0 1 .138-.141v.008c.012.11.051.21.088.306.03.088.066.17.076.256a.373.373 0 0 1 .006.08.71.71 0 0 1-.065.288c-.054.116-.11.192-.167.217Zm.37 1.387a.437.437 0 0 0 .137-.088c.025.072-.006.185-.057.26l-.097.134c-.048.064-.093.13-.137.197a.599.599 0 0 0-.074-.107 3.611 3.611 0 0 1-.066-.48c.072.07.197.119.294.084Zm-.372-.226-.045.017c-.137.029-.35-.14-.439-.269a.677.677 0 0 1-.094-.375c0-.123.02-.232.037-.296.013-.069.032-.136.057-.201.066.093.144.176.232.248.07.066.14.126.193.2a.665.665 0 0 1 .119.362l.002.031.002.097v.008a.544.544 0 0 1-.014.092c-.005 0-.01 0-.013-.006a.38.38 0 0 1-.072-.016.41.41 0 0 1-.055-.052l-.16-.18a1.32 1.32 0 0 0-.041-.097 1.164 1.164 0 0 0-.041-.092l-.078-.283c-.012-.041-.03-.068-.041-.068-.017 0-.02.029-.01.068l.082.304c.031.06.059.124.082.188 0 0 .09.206.244.257l.047.016c.008.006.029.006.045.002l-.002.002a.117.117 0 0 1-.037.041m.228 1.176c-.002.014-.01.025-.016.037l-.01-.008-.038-.017a.186.186 0 0 1-.036-.02l-.09-.045a.601.601 0 0 1-.097-.068c-.02-.016-.072-.082-.088-.098a.285.285 0 0 0-.052-.062l-.061-.057a.761.761 0 0 1-.074-.11l-.053-.085-.015-.056a.222.222 0 0 0-.047-.078c-.012-.008-.019.015-.012.052a.455.455 0 0 0 .035.106l.047.088.047.07c.018.027.086.09.096.105.018.018.035.038.052.057l.065.086s.017.023.066.058l.068.033c.033.02.072.04.09.05l.037.02.025.012a.124.124 0 0 1-.048.006c-.133 0-.318-.027-.439-.133-.195-.179-.221-.507-.221-.636v-.058c0-.05 0-.102.004-.152.006.002.006.008.01.01.082.077.183.128.275.175.088.043.166.086.238.144a.676.676 0 0 1 .205.324c.028.08.04.166.037.252m.05-.349c.044-.082.106-.164.16-.238l.096-.135a.549.549 0 0 0 .068-.152 1.1 1.1 0 0 1 .147.505c0 .014 0 .029-.004.043-.008.158-.113.388-.234.457-.051.03-.133.015-.189-.016.007 0 .009-.006.01-.012.027-.029.087-.109.091-.115a.503.503 0 0 0 .037-.066c.018-.03.061-.13.068-.137l.028-.062a1.22 1.22 0 0 0 .052-.107.475.475 0 0 0 .04-.127l.011-.074c-.004-.039-.004-.086-.004-.106-.002-.017-.017-.031-.027-.031-.014 0-.026.016-.026.033l.002.104a.628.628 0 0 1-.041.183l-.05.103a.318.318 0 0 0-.03.061l-.037.082a.739.739 0 0 1-.11.18c-.003 0-.01.009-.011.021l.002-.022a.548.548 0 0 0-.013-.214 24.36 24.36 0 0 1-.037-.158Zm.383 1.609h-.006a.87.87 0 0 1-.653-.133.627.627 0 0 1-.27-.421 1.754 1.754 0 0 1-.021-.27l.002-.1c.123.118.25.138.427.16l.029.003c.231.03.41.158.486.345.02.049.035.098.045.155v.007l.023.147v.008h-.02l-.116-.016a.477.477 0 0 1-.088-.027s-.053-.016-.107-.06c-.03-.024-.065-.038-.098-.055l-.031-.014c-.03-.02-.082-.051-.11-.074-.03-.02-.08-.053-.112-.078l-.143-.17c-.023-.03-.054-.053-.068-.051-.012.006-.006.035.016.065l.169.197.108.076.111.078s.006 0 .041.02c.03.012.058.028.082.048a.685.685 0 0 0 .294.109.47.47 0 0 0 .076-.002v.051c-.031 0-.066.006-.066.006m.088-.737a.93.93 0 0 0-.053.183.622.622 0 0 0-.2-.195 4.475 4.475 0 0 1-.112-.269c.062.01.127.007.179-.022a.533.533 0 0 0 .18-.205l.045.04a.18.18 0 0 1 .029.111.897.897 0 0 1-.006.087v.014a.903.903 0 0 1-.062.259m.212.976a.448.448 0 0 1-.07-.092.09.09 0 0 0 .027-.035c.012-.024.026-.048.04-.072l.017-.033.035-.063a.789.789 0 0 0 .03-.205v-.23l-.003-.097v-.096l-.003-.066-.008-.098c-.006-.035-.051-.072-.06-.06a.119.119 0 0 0 0 .06c.009.02.017.082.017.102l.004.062.002.096v.325a.8.8 0 0 1-.01.127c-.006.03-.045.117-.045.119a.432.432 0 0 1-.02.035.194.194 0 0 1-.017.03c-.004.009-.023.03-.029.025l-.008.002a.707.707 0 0 1-.03-.148 1.24 1.24 0 0 0-.036-.236v-.008a.649.649 0 0 1 .048-.382.918.918 0 0 0 .067-.287v-.016a.965.965 0 0 0 .006-.097l-.006-.07c.046.035.09.07.132.11l.01.008c.154.14.215.373.215.588 0 .165-.038.326-.113.472a.954.954 0 0 1-.098.144l-.094.086Zm.829 1.15c-.002.02-.007.032-.01.032a2.758 2.758 0 0 1-.352.041 1.662 1.662 0 0 1-.513-.03 1.134 1.134 0 0 1-.266-.1c-.378-.204-.548-.442-.587-.816a.77.77 0 0 0 .53.166c.319-.006.633.081.902.253.008.014.019.02.035.025l.055.03c.103.074.197.175.218.304a.634.634 0 0 1-.012.096m.104.037a.538.538 0 0 0-.03-.273v-.07l.001-.094v-.129s.005-.014.005-.06c0-.096-.015-.21-.015-.21a2.508 2.508 0 0 0-.012-.114l-.002-.096a.632.632 0 0 0-.037-.136.595.595 0 0 1-.029-.082c-.01-.026-.06-.08-.07-.072-.008.013-.008.035.002.058a.838.838 0 0 1 .074.195c.007.02.01.11.015.137l.008.117.01.26v.214a.66.66 0 0 0-.174-.164.272.272 0 0 1-.052-.033c.017-.247.03-.495.037-.742a.439.439 0 0 0-.076-.265.759.759 0 0 1 .518.451c.073.18.102.372.102.55 0 .269-.068.5-.156.603a.174.174 0 0 1-.119-.045Zm1.683.546c-.07.06-.149.11-.232.15v.152a.956.956 0 0 0 .316-.193v1.01h.16v-1.293h-.103a.608.608 0 0 1-.141.174Z"/>
    <path fill="#fff" d="M4.609 8.367a.218.218 0 0 0-.218.222.22.22 0 1 0 .422-.085.221.221 0 0 0-.204-.137Zm14.73 0a.218.218 0 0 0-.217.222.217.217 0 1 0 .435 0 .218.218 0 0 0-.218-.222ZM6.6 6.674l.033.242c-.098.029-.222.066-.382.066a1.118 1.118 0 0 1-.322-.041c.095.23.126.48.09.726l-.25.031a1.12 1.12 0 0 0-.033-.56 1.19 1.19 0 0 0-.365-.513l-.24-.211.17-.193.24.213c.128.107.362.273.583.294.195.02.347-.013.476-.054Zm.706.037-.162.185-.815-.714-.248.283-.18-.158.248-.283-.462-.405.164-.188 1.455 1.28Zm.712-2.423c.12.185-.06.437-.435.681-.382.24-.687.291-.804.107-.107-.169.057-.441.437-.681.377-.24.697-.275.802-.107Zm.523.435-.677.43.074.116.476-.306.267.416-.965.61.062.094.997-.636.109.168-1.225.784-.267-.414.96-.61-.057-.092-.958.61-.11-.173.483-.308-.071-.113-.684.435-.113-.178 1.586-1.008.113.175Zm-.753-.283c-.047-.076-.262-.03-.474.108-.215.138-.35.304-.303.382.043.064.23.04.472-.113.242-.154.348-.312.307-.377m2.149-.675-1.145.332-.062-.195 1.15-.336.057.199Zm-.36-.218-.603.175-.055-.195.601-.175.058.195Zm.42.644c.048.17-.103.38-.424.472-.301.089-.56-.006-.607-.174-.053-.183.12-.39.42-.478.32-.09.559 0 .61.18Zm-.26.07c-.024-.082-.137-.102-.293-.061-.158.049-.244.127-.217.213.02.082.135.107.295.057.16-.045.242-.123.216-.209Zm1.047.708-1.334.39-.15-.517.25-.074.09.304 1.082-.314.062.211Zm-.115-1.12-.254.074.176.611-.236.068-.4-1.363.238-.071.156.533.255-.076.065.224Zm1.381-.575.451-.008V3.01l.247-.007.016 1.129h-.246l-.006-.265-.458.006a.523.523 0 0 1-.416.201c-.306.002-.526-.215-.532-.486a.5.5 0 0 1 .513-.507.533.533 0 0 1 .431.193Zm.747 1.301c.006.23-.248.396-.724.404-.472.006-.73-.15-.739-.381 0-.226.252-.398.728-.407.472-.008.733.154.735.384Zm-1.17-1.272c-.176 0-.268.13-.266.279.004.148.102.273.275.269.174 0 .266-.13.266-.277-.004-.15-.102-.273-.275-.271Zm-.014 1.293c.002.108.185.184.46.184.268-.008.455-.086.451-.199 0-.117-.187-.186-.46-.184-.272.006-.455.08-.451.199Zm.538-.936.359-.006-.004-.17-.36.006a.377.377 0 0 1 .009.082c0 .028 0 .06-.004.088Zm1.904 1.139a3.503 3.503 0 0 1-.443-.097l-.323-.092.362-1.243.646.184-.066.23-.408-.115-.228.782.18.053a3.6 3.6 0 0 0 .35.072l-.07.226Zm.64.654-.23-.07.275-.95-.201-.055-.248.864-.232-.068.503-1.732.23.064-.185.636.2.058.198-.678.23.07-.54 1.861Zm1.62.967-.214-.136.21-.328-.964-.616.12-.182 1.175.749-.326.513Zm.173-1.158c-.1.158-.349.167-.628-.012-.26-.166-.377-.406-.277-.562.099-.156.36-.15.628.023.277.178.376.396.277.551Zm.257-.287-1.006-.644.11-.168 1.005.638-.11.174Zm-.478.144c.04-.066-.02-.16-.16-.25-.14-.089-.259-.107-.302-.042-.041.07.02.175.162.263.14.09.257.097.3.029Zm.398-.546-.532-.336.111-.175.53.337-.11.174Zm.505.985-.218-.138-.258.405-.21-.134.663-1.04.21.133-.284.444.218.14-.122.19Zm.824 2.304L16.752 6.45l.168-.147.277.318.49-.433.167.189-.489.43.15.173.489-.433.168.189-.49.43.48.548-.167.148Zm1.002-1.137a8.271 8.271 0 0 1-.868.58l-.162-.186c.02-.016.46-.27.68-.453l-.801-.911.166-.148.985 1.118Zm-15.6 3.495c.05-.255.22-.448.55-.386l-.04.205c-.198-.04-.29.07-.325.242-.025.134.012.24.127.263.09.016.168-.02.246-.158l.105-.193c.068-.115.18-.258.41-.213.21.039.335.223.284.48-.05.248-.238.41-.495.361l.04-.203c.15.029.237-.053.266-.195.024-.133-.025-.22-.131-.242-.09-.017-.14.02-.187.102l-.123.214c-.12.211-.236.293-.448.248-.225-.041-.334-.228-.279-.525Zm-.145 1.738.037-.833 1.319.055-.033.823-.201-.008.025-.618-.333-.014-.026.574-.2-.006.025-.576-.384-.015-.026.628-.203-.01Zm.045.974c-.037-.312.178-.587.615-.636.44-.055.714.164.753.476.037.314-.18.59-.62.64-.436.054-.711-.166-.748-.48Zm1.17-.137c-.027-.22-.226-.328-.528-.296-.304.037-.472.191-.445.41.026.222.225.333.527.3.302-.037.472-.192.447-.414m-.23 1.902c-.315.094-.547.012-.642-.304-.096-.32.058-.513.374-.605l.786-.234.057.197-.763.226c-.255.078-.308.205-.265.357.045.152.162.238.415.16l.767-.226.057.195-.785.234Zm.038 1.305-.337-.712 1.198-.564.084.186-1.011.478.246.528-.18.084Zm1.218 1.742-.127-.158.464-.377-.345-.423-.464.373-.127-.16 1.026-.83.13.161-.411.329.347.426.41-.332.125.16-1.028.831Zm.747.252-.318.185-.164-.15 1.21-.69.148.134-.554 1.278-.164-.147.15-.333-.308-.277Zm.394.082.201-.439-.414.249.213.19Zm1.05 1.427-.172-.11.046-1.095-.513.796-.169-.11.714-1.113.173.111-.045 1.092.508-.792.173.108-.714 1.113Zm1.825-.61-.702.56-.21.487-.188-.082.213-.487-.067-.894.205.088.039.652.503-.412.207.088Zm.318 1.486c-.302-.076-.482-.376-.376-.805.111-.427.41-.605.716-.529.304.076.487.38.376.806-.107.431-.41.608-.716.53m.291-1.143c-.215-.053-.392.092-.466.388-.073.295.01.509.226.562.216.053.39-.095.466-.388.074-.293-.01-.507-.226-.562Zm1.695.894c-.027.329-.185.515-.515.493-.33-.027-.455-.24-.43-.569l.065-.816.205.014-.064.798c-.022.267.082.36.24.374.156.012.275-.066.298-.332l.062-.797.205.017-.066.818Zm1.406.417-.201.016-.634-.896.082.944-.206.016-.11-1.315.205-.02.632.892-.08-.938.2-.016.112 1.317Zm1.512-.35-.168.044-.035-.12c-.043.116-.132.194-.296.237-.332.088-.61-.098-.72-.521-.11-.423.037-.726.373-.815.263-.067.487.023.614.314l-.205.056c-.058-.148-.17-.226-.361-.173-.24.062-.292.308-.224.565.078.297.246.439.476.381.205-.055.27-.193.234-.39l-.308.08-.047-.192.492-.134.175.667Zm1.715-1.374c.164.288.136.532-.152.692-.287.164-.508.061-.673-.226l-.404-.716.179-.098.396.697c.127.23.266.246.406.17.135-.075.193-.205.06-.436l-.395-.698.179-.099.404.714Zm1.4-.445-.158.131-1.026-.39.595.74-.156.124-.833-1.027.16-.128 1.02.384-.591-.733.158-.129.83 1.028Zm.488-.496-.14.145-.952-.917.144-.148.948.92ZM18.176 16l.798 1.133-.119.153-1.3-.478.133-.172.966.373-.611-.837.133-.172Zm1.66-.252-.406.728-1.156-.64.4-.723.175.099-.3.542.294.16.279-.5.176.095-.279.503.337.187.305-.55.175.099Zm.458-1.143a.852.852 0 0 1-.222-.025c-.168-.045-.312-.084-.374.076l-.102.283.507.185-.068.193-1.24-.452.177-.478c.078-.223.236-.349.488-.256a.33.33 0 0 1 .226.266c.08-.071.172-.086.326-.039.117.033.238.046.36.037l-.078.21Zm-1.14-.142-.102.277.355.131.103-.277c.043-.127.024-.221-.103-.266-.131-.048-.205.012-.252.135Zm1.429-.884c-.051.256-.222.451-.552.383l.04-.203c.198.041.29-.067.325-.24.025-.135-.01-.24-.123-.262-.095-.017-.17.016-.25.155l-.103.191c-.068.117-.185.265-.41.22-.212-.043-.335-.226-.284-.484.048-.249.236-.41.493-.36l-.04.202c-.15-.03-.235.053-.266.195-.024.133.025.22.136.242.09.016.135-.017.184-.103l.123-.213c.12-.212.238-.292.45-.249.22.041.334.228.277.526Zm-1.219-.998 1.317.103.017-.205-1.318-.103-.016.206Zm.211-1.387.013.366 1.12-.033.008.203-1.122.033.01.363-.201.006-.029-.931.201-.007Zm-.386-1.11.854.271.52-.092.036.203-.523.092-.706.55-.04-.221.52-.392-.622-.193-.039-.218Z"/>
  </g>
  <defs>
    <clipPath id="a">
      <path fill="#fff" d="M0 0h24v24H0z"/>
    </clipPath>
  </defs>
</svg>
