<svg xmlns="http://www.w3.org/2000/svg" width="24" height="24" fill="none" viewBox="0 0 24 24">
  <g clip-path="url(#a)">
    <path fill="#fff" d="M12 24.022c6.627 0 12-5.377 12-12.01C24 5.377 18.627 0 12 0S0 5.378 0 12.011c0 6.634 5.373 12.011 12 12.011Z"/>
    <path fill="#231F20" d="M18.573 3.4c.099-.13.032-.348-.149-.486-.181-.136-.407-.14-.507-.01-.099.131-.032.348.148.485.182.138.409.142.508.01m-1.935 14.215H7.187l10.86-9.665v4.759h-.161V8.32l-7.337 7.757h3.061l3.028 1.536Z"/>
    <path fill="#231F20" d="M7.187 17.614h9.451L5.99 7.85v4.758h.161V8.222l7.126 7.856h-3.061l-3.028 1.536Z"/>
    <path fill="#231F20" d="m4.733 13.75 1.334-1.55L7.4 13.75H4.733Zm11.899.135 1.334-1.551 1.333 1.551h-2.667Z"/>
    <path fill="#fff" d="M10.652 17.26v-.5h-.206v-.072a.37.37 0 0 0 .167-.034.124.124 0 0 0 .066-.094h.096v.7h-.123Zm.865-.641c-.115 0-.197.065-.197.158s.082.158.197.158.194-.066.194-.158-.079-.158-.194-.158Zm.311.482c-.054.11-.156.173-.317.173-.169 0-.301-.094-.315-.195h.124c.01.052.08.118.197.118a.192.192 0 0 0 .187-.108.259.259 0 0 0 .028-.148.371.371 0 0 1-.24.077c-.18-.006-.301-.114-.301-.241 0-.132.136-.234.32-.234.175 0 .275.076.325.18a.52.52 0 0 1-.008.378Zm.538.159v-.5h-.206v-.072c.063 0 .122-.01.166-.034a.124.124 0 0 0 .066-.094h.097v.7h-.123Zm.966-.561-.327.353h.327v-.353Zm.12.427v.133h-.12v-.133h-.444v-.098l.441-.468h.124v.492h.146v.074h-.146Z"/>
    <path fill="#231F20" d="m12.008 5.809-.579-.685.006 1.363h1.146l.007-1.363-.58.685ZM9.07 8.078l-.685.579 1.363-.007V7.504l-1.363-.006.685.58Zm5.866 0 .685.579-1.363-.007V7.504l1.363-.006-.685.58Zm-1.116 3.44h-3.742v-.186h3.743v.186Z"/>
    <path fill="#231F20" d="M11.822 10.632h.256v.793h-.256v-.793ZM10.27 8.543v-.759h.267v.63h.664v.129h-.931Zm1.175-.765h.288v.414c0 .066.004.108.01.128.013.031.043.057.089.076a.52.52 0 0 0 .19.028.485.485 0 0 0 .185-.027c.041-.018.066-.04.075-.066a.467.467 0 0 0 .013-.13v-.423h.288v.402a.572.572 0 0 1-.023.194.21.21 0 0 1-.087.096.549.549 0 0 1-.168.063c-.07.015-.161.023-.274.023-.136 0-.24-.009-.31-.026a.52.52 0 0 1-.167-.065.205.205 0 0 1-.08-.085.513.513 0 0 1-.029-.194v-.408Zm1.258.765.452-.4-.41-.365h.312l.266.246.26-.246h.309l-.411.372.452.393h-.322l-.294-.264-.294.264h-.32Zm-1.273-.992v-.764h.359l.216.521.213-.521h.36v.764h-.223V6.95l-.236.602h-.231l-.236-.602v.602h-.223Zm.005 1.983V8.77h.284l.592.511v-.51h.272v.764h-.293l-.584-.498v.498h-.271Zm.285.356v.507h.204c.077 0 .132-.003.166-.007a.348.348 0 0 0 .11-.033.168.168 0 0 0 .072-.073.293.293 0 0 0 .028-.14.28.28 0 0 0-.028-.137.19.19 0 0 0-.078-.073.365.365 0 0 0-.127-.037 2.283 2.283 0 0 0-.224-.007h-.123Zm-.274-.13h.5a1.7 1.7 0 0 1 .258.015c.08.013.148.037.205.07a.37.37 0 0 1 .13.125.348.348 0 0 1 .044.18.307.307 0 0 1-.042.163.379.379 0 0 1-.145.135.632.632 0 0 1-.193.061c-.06.01-.14.016-.242.016h-.515v-.764Zm8.687 8.153a.168.168 0 0 0-.136-.029.184.184 0 0 0-.119.077l-.104.152.453.31.103-.152c.03-.041.038-.087.03-.137a.175.175 0 0 0-.077-.117l-.15-.104ZM5.466 19.644a.175.175 0 0 0-.124.065l-.579.708a.18.18 0 0 0-.039.133.174.174 0 0 0 .067.126c.04.031.085.045.135.04a.182.182 0 0 0 .123-.066l.578-.708a.182.182 0 0 0-.161-.298Zm5.549 2.071a.18.18 0 0 0-.135.043.172.172 0 0 0-.064.123l-.079.912a.173.173 0 0 0 .043.131.173.173 0 0 0 .125.066.18.18 0 0 0 .134-.042.177.177 0 0 0 .065-.124l.08-.911a.179.179 0 0 0-.044-.133.177.177 0 0 0-.125-.065ZM9.15 2.043c.221-.04.367-.239.329-.442-.036-.204-.247-.335-.466-.293-.22.04-.367.237-.328.441.037.203.246.337.465.294ZM5.11 5.007c.158.174.533.094.836-.182.303-.275.42-.64.262-.813-.158-.175-.532-.094-.835.18-.304.275-.421.64-.263.815Z"/>
    <path fill="#231F20" d="M22.434 13.855c-.082.236-.228.328-.439.282l-.534-.12.08-.363.535.12a.168.168 0 0 0 .138-.025.18.18 0 0 0 .082-.115.187.187 0 0 0-.024-.14.168.168 0 0 0-.115-.08l-.534-.122.082-.362.535.12c.21.048.303.195.275.443l.713.16-.081.363-.713-.161Zm.332 1.5-1.393-.447-.113.353-.175-.055.34-1.06.173.056-.113.353 1.393.446-.112.353Zm-.423 1.118-1.523-.621.14-.345 1.523.623-.14.343Zm-.435.93-.085.165c-.058.108-.128.176-.21.204-.083.027-.177.012-.285-.045l.085-.164.026.016a.135.135 0 0 0 .129 0 .222.222 0 0 0 .092-.095c.03-.06.039-.109.025-.15a.201.201 0 0 0-.103-.101.185.185 0 0 0-.138-.01l-.567.147a.375.375 0 0 1-.28-.022l-.08-.043a.35.35 0 0 1-.178-.216.354.354 0 0 1 .025-.281l.085-.166c.108-.205.273-.259.497-.16l-.086.166c-.117-.043-.197-.02-.243.07-.03.057-.039.108-.028.15.013.044.046.08.1.109a.186.186 0 0 0 .14.01l.566-.147a.385.385 0 0 1 .28.023l.081.043a.348.348 0 0 1 .178.214.35.35 0 0 1-.026.283Zm-.72 1.234-.451-.31c-.042-.029-.088-.038-.137-.029a.18.18 0 0 0-.118.077l-.105.152.604.413-.21.306-1.357-.93.42-.612a.354.354 0 0 1 .236-.152.348.348 0 0 1 .274.055l.08.056a.39.39 0 0 1 .148.204c.03.09.007.19-.068.3l.104-.153a.18.18 0 0 1 .12-.078c.05-.01.095 0 .137.03l.534.365-.21.306Zm-1.371 1.7-1.214-1.11.626-.685.135.123-.376.41.405.37.252-.276.135.125-.253.275.406.37.375-.41.136.122-.627.685Zm-.648.345a.606.606 0 0 1-.233.423l-.373.299-1.028-1.285.29-.23.913 1.14.145-.115a.173.173 0 0 0 .066-.124.173.173 0 0 0-.037-.133l-.8-1 .29-.23.638.796c.107.133.15.286.13.459Zm-1.54 1.29-.82-1.428.323-.185.818 1.427-.322.185Zm-.725.372-1.28-.497.321.858-.175.064-.577-1.54.08-.03 1.28.497-.32-.858.174-.064.578 1.54-.08.03Zm-1.796.479a.35.35 0 0 1-.235.155l-.365.071c-.1.02-.19 0-.276-.057a.345.345 0 0 1-.156-.232l-.243-1.257.364-.07.243 1.258c.01.047.036.087.077.114a.176.176 0 0 0 .139.03.18.18 0 0 0 .117-.08c.029-.041.038-.086.029-.135l-.243-1.257.365-.07.242 1.257c.02.097 0 .188-.059.273Zm-3.2.41L11.9 21.59l.927-.005.001.182-.557.003.003.548.374-.001v.183h-.372l.001.55.557-.002v.182l-.928.003Zm-.434-.377a.354.354 0 0 1-.13.248.363.363 0 0 1-.27.084l-.369-.031a.352.352 0 0 1-.25-.13.344.344 0 0 1-.087-.266l.079-.91a.348.348 0 0 1 .13-.248.35.35 0 0 1 .27-.085l.368.031a.357.357 0 0 1 .25.13.35.35 0 0 1 .088.267l-.08.91Zm-1.627.2-.363-.073.146-.717-.362-.073-.144.715-.365-.073.329-1.612.363.074-.146.717.36.073.147-.717.363.074-.328 1.612Zm-1.16-1.563-.176-.06c.026-.12-.01-.198-.113-.234l-.175-.061a.178.178 0 0 0-.14.007.172.172 0 0 0-.095.104l-.302.864a.176.176 0 0 0 .008.14.177.177 0 0 0 .105.092c.112.034.191-.004.235-.111l.121-.346-.173-.06.06-.172.523.182-.182.52c-.04.113-.107.186-.202.218a.402.402 0 0 1-.267.004l-.35-.123a.358.358 0 0 1-.21-.187.347.347 0 0 1-.018-.28l.301-.862a.352.352 0 0 1 .186-.208.355.355 0 0 1 .284-.017l.35.123c.22.078.296.233.23.467Zm-2.055.585-.457-1.297-.44.802-.164-.09.795-1.44.074.04.457 1.297.441-.801.163.088-.794 1.442-.075-.041ZM5.09 21.015a.358.358 0 0 1-.272-.081l-.286-.235a.36.36 0 0 1-.133-.248.348.348 0 0 1 .078-.27l.58-.706a.343.343 0 0 1 .247-.131.352.352 0 0 1 .27.082l.287.235a.355.355 0 0 1 .133.249.344.344 0 0 1-.078.268l-.58.708a.35.35 0 0 1-.246.129Zm-1.253-.94-.227-.267.115-.853-.487.415-.24-.282 1.252-1.067.24.283-.523.446.924.024.2.233-1.107-.03-.147 1.098Zm-1.135-1.59a.411.411 0 0 1-.208-.169l-.191-.319a.359.359 0 0 1-.042-.278.35.35 0 0 1 .166-.226l.784-.47a.35.35 0 0 1 .276-.04c.1.024.175.08.229.17l.19.318c.119.2.078.367-.124.503l-.096-.158c.098-.074.118-.158.062-.251l-.095-.159a.175.175 0 0 0-.112-.084.177.177 0 0 0-.14.02l-.783.469a.174.174 0 0 0-.084.113.18.18 0 0 0 .02.139c.067.098.15.118.253.063l.313-.187-.094-.157.157-.094.286.476-.472.28c-.104.064-.203.077-.295.041Zm-.862-1.35.454-1.298-.846.35-.07-.171 1.52-.63.03.078-.451 1.298.845-.351.071.17-1.52.632-.033-.078Zm-.719-1.973-.095-.358a.355.355 0 0 1 .035-.28.347.347 0 0 1 .221-.17l1.238-.331.095.358-1.236.33a.174.174 0 0 0-.11.085.178.178 0 0 0-.02.14c.015.05.043.086.087.112a.18.18 0 0 0 .138.019l1.237-.33.096.358-1.239.33a.347.347 0 0 1-.275-.038.356.356 0 0 1-.172-.225Zm-.34-1.58-.026-.184c-.016-.122 0-.218.052-.288.052-.07.138-.113.26-.13l.024.183-.03.003a.13.13 0 0 0-.105.074.231.231 0 0 0-.02.132c.01.067.031.111.066.135.036.024.084.031.142.024a.185.185 0 0 0 .12-.072l.375-.45a.375.375 0 0 1 .242-.143l.089-.012a.346.346 0 0 1 .271.071.36.36 0 0 1 .143.244l.026.184c.033.23-.071.37-.31.418l-.026-.183c.118-.033.171-.1.157-.198-.009-.065-.031-.111-.067-.14-.034-.028-.083-.037-.143-.03a.19.19 0 0 0-.12.072l-.375.45a.385.385 0 0 1-.241.143l-.092.014a.354.354 0 0 1-.27-.073.36.36 0 0 1-.142-.243Zm.818-6.696s.72.315 1.01-.17l.202.12s-.211.465-.764.59c0 0 .184.382-.178.985l-.217-.13s.47-.56-.283-1.01l.23-.385Zm.623-1.199 1.71 1.022c.357.964-.432 1.562-.63 1.739-.197.178-.956.27-.845-.527.109-.765.692-1.157.692-1.157l-.587-.35-.14.236-.285-.17.15-.252L2 6.058l.221-.37Zm3.032-3.195c.152-.138.352.155.352.155l.485.535.086-.079.172.189-.233.21c.2-.016.372.032.484.155.27.299.07.923-.449 1.393-.518.472-1.16.61-1.43.311-.111-.123-.143-.299-.107-.496l-.022.02-.217.198-.178-.195.735-.667.009-.012-.281-.308.304-.276.264.292c.07-.06.143-.114.215-.161l.325-.293-.488-.534-1.394 1.265-.23-.252 1.598-1.45ZM8.691.802 9.138.72h.005l.029.153.654-.12.063.345-.313.059a.571.571 0 0 1 .318.396c.053.284-.144.567-.463.706l.074.4.846-.157L10 .64l.413-.078L10.869 3l-.422.079-.059-.318-2.016.378-.05-.27.749-.14-.072-.382c-.36-.004-.662-.201-.717-.492a.572.572 0 0 1 .153-.486l-.256.048-.064-.345.606-.114-.03-.156Zm12.22 11.16a8.893 8.893 0 0 1-8.895 8.893 8.894 8.894 0 1 1 8.894-8.893ZM13.168.554l.977.141-.054.368-.483-.07-.202 1.38.841.124.256-1.748.453.065-.09.628.192.029.089-.62.436.064-.357 2.445-.434-.063.214-1.47-.184-.026-.213 1.469-.454-.067.054-.376-1.15-.168s-.182-.037-.176-.144L13.17.554Zm4.026 2.617 1.58 1.198.892-1.177.348.266-.4.528.249.19-.165.218-.25-.19-.937 1.238-.35-.264.424-.56-1.579-1.198.188-.249Zm.385-.522c.088-.116.237-.168.412-.16l-.186-.141.186-.228.45.342.124-.163.397.301-.118.156.53.399-.183.243-.193-.147c.055.166.046.324-.042.44-.184.242-.641.205-1.021-.082-.381-.288-.54-.717-.356-.96Zm3.21 3.693.259.427-.769.463.106.176.769-.465.257.426-.761.458.188.31 1.387-.837-.948-1.571.241-.146 1.125 1.863c.083.156-.166.272-.166.272l-1.396.842.06.1-.267.162-1.387-2.298.268-.161.266.443.769-.464ZM12.017.09C5.46.09.144 5.407.144 11.962c0 6.557 5.316 11.872 11.872 11.872 6.557 0 11.872-5.315 11.872-11.872C23.888 5.407 18.573.09 12.016.09Z"/>
    <path fill="#231F20" d="M2.942 7.415c-.188.315-.206.65-.039.75.165.1.454-.076.642-.39.187-.316.204-.652.038-.75-.167-.1-.453.076-.641.39Z"/>
  </g>
  <defs>
    <clipPath id="a">
      <path fill="#fff" d="M0 0h24v24H0z"/>
    </clipPath>
  </defs>
</svg>
