<svg xmlns="http://www.w3.org/2000/svg" width="24" height="24" fill="none" viewBox="0 0 24 24">
  <g clip-path="url(#a)">
    <path fill="#9D9D9E" d="m19.67 18.932-.217.229.464.441-.247.26-.464-.442a48.83 48.83 0 0 0-.232.244l.463.441-.328.345.216.206 1.605-1.684a33.099 33.099 0 0 1-.217-.207l-.563.592-.464-.441-.015.016Z"/>
    <path fill="#9D9D9E" d="m20.327 18.686-.955-.911-.015.016-1.375 1.443.216.206 1.158-1.216s.712.68.74.705l.23-.243Zm-16.506.709a.622.622 0 0 0 .018.876.622.622 0 0 0 .874.077.656.656 0 0 0-.892-.953Zm.216.226a.346.346 0 0 1 .472.503.347.347 0 0 1-.472-.503Zm1.944-.476-.208-.221-.27.252-.262-.281-.209.196.262.28-.354.332c.021.023.199.214.222.237l.833-.78-.014-.015Zm-.992-1.07-1.228.051.022.326.88-.05-.108.827.322.044.137-1.2-.025.002Zm9.756 5.03.322-.055-.365-2.123-.022.004-.3.051.113.653-.19.033-.112-.653-.325.057.232 1.348-1.021.175-.179-1.037.754-.13-.045-.268h-.005l-1.07.185.274 1.591 1.34-.23.085.49.325-.056-.204-1.187.19-.032.203 1.184Zm-6.563-1.634-.1-.053.4-.751-.019-.01-1.716-.913-.137.258 1.443.768-.261.493-1.575-.838-.137.258.619.329-.18.339.294.157.181-.34.263.14-.18.34.295.157.18-.339.512.273.137-.258-.019-.01Zm-1.774-.386-.291-.155-.36.677 1.77.943.139-.258-1.48-.788.222-.42Zm3.173 1.307-.021-.003-.305-.047-.119.758 1.997.313.045-.289-1.67-.262.073-.47Zm1.81-.733.059-.373a.533.533 0 0 1-.02-.002l-.305-.048-.138.88-.33-.052.132-.841-.021-.004-1.364-.213-.046.29 1.06.166-.087.551a54.965 54.965 0 0 1-.327-.051l.048-.308-.02-.003-.31-.049-.048.308-.504-.079-.045.29 1.818.284-.053.337.324.051.133-.848.335.053.044-.287-.334-.052Zm5.892-2.007-.266.147.616 1.109.284-.158-.297-.535.289-.16a22.049 22.049 0 0 0-.139-.25l-.288.16-.18-.324-.02.011Zm.685 1.241-1.774.984.14.253 1.51-.836.214.387c.028-.016.256-.142.284-.159l-.356-.639-.018.01Zm-1.227-.896-.528.293h-.002l-.096-.174-.29.16.098.175-.537.298.134.242.194-.108a.596.596 0 0 0 .072.337.662.662 0 0 0 1.157-.641.603.603 0 0 0-.247-.24l.18-.1-.135-.242Zm-.22 1.167a.3.3 0 1 1 .13-.416.309.309 0 0 1-.13.416Zm6.655-8.297-.248-.157a.46.46 0 0 0 .27-.382.299.299 0 0 0-.285-.35c-.23.001-.315.205-.413.441-.105.254-.268.52-.59.54-.392.024-.655-.322-.636-.797a.905.905 0 0 1 .338-.684l.294.135a.695.695 0 0 0-.439.634.36.36 0 0 0 .366.39c.232-.002.314-.199.409-.428.106-.257.226-.549.595-.552.36-.002.577.283.556.726a.751.751 0 0 1-.216.484Zm-21.604 3.24.291.032a.46.46 0 0 0-.075.462.298.298 0 0 0 .409.19c.207-.102.193-.323.178-.578-.016-.274.013-.584.295-.743.342-.193.73.002.92.438a.905.905 0 0 1-.004.763l-.325.008a.694.694 0 0 0 .118-.763.359.359 0 0 0-.5-.19c-.208.103-.195.316-.18.564.017.278.036.593-.293.756-.322.16-.643 0-.817-.409a.75.75 0 0 1-.017-.53Zm-.316-7.31-.022.02a1.41 1.41 0 0 0-.342.703c-.14.678.175 1.181.797 1.31.636.131 1.1-.185 1.237-.848a2.37 2.37 0 0 0 .03-.792l-.004-.026-.774-.16-.065.315.652.134c.03.137.03.278 0 .415-.106.512-.468.732-1.02.617-.515-.107-.778-.447-.68-.918a.893.893 0 0 1 .397-.578l.014-.009-.22-.184Zm1.953-4.033-.18.257.457.957-1.056-.105-.23.327 1.376.08.688.482.185-.263-.71-.497-.53-1.238Zm18.823 12.62.126-.288-.636-.848 1.057-.104.162-.366-1.365.191-.77-.34-.13.295.793.349.763 1.111ZM2.576 7.576 2.149 6.33l-.145.293.403 1.172-.787-.388-.143.289 1.808.887.142-.289-.876-.43 1.237-.303.18-.366-1.392.38Zm6.027-5.418L9.198.984l-.312.1-.558 1.105c-.02-.057-.27-.835-.27-.835l-.308.1.624 1.915.306-.1-.302-.928 1.08.676.388-.127-1.243-.732Zm1.68.636.24-.024.379-1.591.65 1.488.276-.027.468-2.07-.277.027-.379 1.637-.67-1.533-.183.018-.375 1.635L9.78.821l-.338.033.841 1.94ZM13.408.718l-.142-.017-1.103 1.921.275.035.406-.722.617.075.213.797.376.045-.642-2.134Zm-.16.441c.035.118.14.573.163.654l-.49-.06.328-.594Zm6.386 5.476 1.667-1.128.18.265L19.814 6.9l-.18-.265Zm1.54 7 .05-.316 1.987.318-.05.316-1.987-.318Zm-2.883-9.716c-.28.41-.577.477-.893.261-.355-.244-.367-.489-.07-.923l.634-.927-.264-.18-.65.95c-.137.206-.265.442-.207.682.067.23.219.427.425.55.446.305.863.23 1.174-.226l.676-.988-.189-.13-.636.931Zm-13.007.348c.348.355.357.658.084.926-.308.302-.55.267-.919-.109l-.787-.802-.228.224.807.821c.176.175.381.346.629.336a.948.948 0 0 0 .622-.31c.385-.38.392-.803.006-1.196l-.84-.854-.163.16.79.804Zm-3.37 9.498c.484-.116.748.033.837.406.1.42-.055.609-.567.731l-1.093.26.074.312 1.12-.268c.24-.061.493-.149.612-.367a.947.947 0 0 0 .065-.694c-.126-.525-.495-.747-1.031-.62l-1.166.278.053.224 1.096-.262Zm18.354-6.11.084.162 2.177-.17-.134-.26-1.714.169 1.133-1.297-.165-.319-1.38 1.715Zm.777 1.233.702-.223.211.666.195-.062-.211-.666.634-.2.23.725.165-.052-.326-1.03-1.92.609.332 1.047.223-.072-.235-.742Z"/>
    <path fill="#9D9D9E" d="m23.135 14.32-.162-.045-.168.602-1.777-.498-.086.307 1.775.498-.16.577.163.044.415-1.484Zm-1.989-4.304.04.317.97-.129-.856.986.046.339.856-.98c.057.327.322.586.612.548.33-.044.47-.272.412-.716l-.083-.63-1.997.265Zm1.2.163.666-.088.041.302c.033.251-.1.377-.28.393-.19.018-.344-.06-.39-.344l-.037-.263ZM6.687 1.94l-.194.124.768 1.21c-.707-.183-1.94-.464-1.94-.464l-.138.087L6.26 4.595l.195-.123-.808-1.273 2.003.513.117-.073-1.08-1.699ZM.636 11.32l.004.23 1.433-.03C1.55 12.03.67 12.94.67 12.94l.003.162 2.012-.042-.005-.23-1.507.031 1.477-1.447-.003-.138-2.012.044ZM16.44 1.524l-.219-.074-.456 1.358a90.13 90.13 0 0 0-.861-1.8l-.155-.052-.64 1.907.217.074.48-1.43.863 1.88.13.045.64-1.908Zm4.46 3.393-.156-.169-1.049.976c.05-.73.102-1.993.102-1.993l-.11-.12-1.475 1.37.157.17 1.104-1.027-.14 2.063.094.1 1.473-1.37Z"/>
    <path fill="url(#b)" d="M12.723 9.484a2.969 2.969 0 0 1 4.087-2.763 6.694 6.694 0 0 0-9.665 9.224 10.856 10.856 0 0 1 2.308-2.286c.747-.526 1.786-1.055 2.62-1.135.791-.075 1.968 0 2.681.342a20.138 20.138 0 0 1-1.434-1.596 2.966 2.966 0 0 1-.597-1.786Z"/>
    <path fill="url(#c)" d="M12.515 11.661 9.368 5.62a6.676 6.676 0 0 0-1.622 1.105l4.748 4.928.02.008Z"/>
    <path fill="url(#d)" d="m12.531 11.667.406-6.678a6.733 6.733 0 0 0-1.63.038l1.218 6.638.006.002Z"/>
    <path fill="url(#e)" d="M12.494 11.653 6.024 9.26a6.704 6.704 0 0 0-.41 1.776l6.896.635-.016-.018Z"/>
    <path fill="url(#f)" d="M5.657 12.621c.068.469.186.93.352 1.373l6.483-2.306-6.835.933Z"/>
    <path fill="#004483" d="M7.022 17.582a6.466 6.466 0 0 1-.827-.868c-1.369-1.532-2.935-5.552-.341-9.204a7.578 7.578 0 0 1 11.694-.859.3.3 0 0 1 .015.433c-.156.13-.296.063-.61-.027a3.211 3.211 0 0 0-1.36-.116c-1.047.135-1.953 1.107-1.826 2.463.117 1.238 1.073 2.132 1.744 2.721 2.358 2.07 1.572 4.295 1.381 4.783-.65 1.66-2.316 2.83-4.48 2.833a6.641 6.641 0 0 1-3.504-1.057c-.05-.022-.1-.09-.039-.2.193-.422.425-.824.695-1.201.65.748 1.745 1.452 2.96 1.495 1.663.06 2.733-.842 3.124-1.984.439-1.283-.032-2.59-1.275-3.767-1.072-1.015-2.029-1.955-2.086-3.568-.073-2.065 1.723-3.294 3.395-3.214.05.002-2.313-1.698-5.342-.68A6.286 6.286 0 0 0 7.546 7.44a.122.122 0 0 0-.002.167l1.08 1.503-1.86-.426a.11.11 0 0 0-.115.045c-.59 1.02-1.456 3.965.491 6.645 0 0 1.652-2.625 4.938-2.853.219-.014.191.064.048.116-2.935 1.083-4.09 3.238-4.837 4.9a.162.162 0 0 1-.267.045Z"/>
    <path fill="#9D9D9E" d="M10.047 15.555s.183-.082.235-.11l.002 1.273h.23l-.002-1.498-.037-.025-.012.006c-.159.08-.32.153-.484.221l.068.133Zm1.223.413c.187 0 .278.096.278.293a.305.305 0 0 1-.32.334.37.37 0 0 1-.27-.135l-.028-.033-.055.198.018.009a.732.732 0 0 0 .332.076c.328 0 .566-.2.566-.476a.34.34 0 0 0-.313-.346.38.38 0 0 0 .246-.352c0-.21-.166-.34-.432-.34a.442.442 0 0 0-.34.146l.099.171.016-.048a.236.236 0 0 1 .217-.156c.095 0 .205.063.205.24 0 .138-.038.302-.218.302l-.12-.01v.142a.51.51 0 0 1 .12-.015Zm.835.444.062.242c.071.036.15.055.23.054.384-.002.652-.361.65-.878 0-.575-.35-.637-.501-.636a.467.467 0 0 0-.496.48.409.409 0 0 0 .438.447.392.392 0 0 0 .323-.155c-.015.322-.143.616-.405.618a.347.347 0 0 1-.3-.172Zm.418-.416c-.16 0-.239-.106-.239-.322 0-.218.104-.365.26-.366.156 0 .26.125.261.31 0 .185-.096.377-.282.377Zm1.44-.15a.347.347 0 0 0 .215-.318c0-.155-.113-.336-.431-.336a.389.389 0 0 0-.423.363.324.324 0 0 0 .217.303.423.423 0 0 0-.291.41c0 .262.2.44.499.439a.477.477 0 0 0 .499-.49.368.368 0 0 0-.285-.371Zm-.418-.289c0-.059.014-.25.204-.25.188 0 .208.174.208.25 0 .058-.014.25-.207.25-.19 0-.205-.191-.205-.25Zm.204 1.034c-.159 0-.266-.134-.266-.334s.107-.335.265-.336c.158 0 .265.134.265.335 0 .203-.103.335-.264.335Z"/>
  </g>
  <defs>
    <linearGradient id="b" x1="13.529" x2="8.029" y1="12.106" y2="9.005" gradientUnits="userSpaceOnUse">
      <stop stop-color="#fff"/>
      <stop offset=".2" stop-color="#E8EC8F"/>
      <stop offset=".76" stop-color="#ABCD03"/>
      <stop offset="1" stop-color="#8FC31F"/>
    </linearGradient>
    <linearGradient id="c" x1="13.068" x2="7.939" y1="10.062" y2="6.641" gradientUnits="userSpaceOnUse">
      <stop stop-color="#E6EB91"/>
      <stop offset=".018" stop-color="#E2E989"/>
      <stop offset=".089" stop-color="#D3E16E"/>
      <stop offset=".152" stop-color="#CADD5E"/>
      <stop offset=".2" stop-color="#C7DB58"/>
      <stop offset=".4" stop-color="#A3C910"/>
      <stop offset=".746" stop-color="#7DBB23"/>
      <stop offset="1" stop-color="#66B22F"/>
    </linearGradient>
    <linearGradient id="d" x1="13.765" x2="8.636" y1="9.017" y2="5.596" gradientUnits="userSpaceOnUse">
      <stop stop-color="#E6EB91"/>
      <stop offset=".018" stop-color="#E2E989"/>
      <stop offset=".089" stop-color="#D3E16E"/>
      <stop offset=".152" stop-color="#CADD5E"/>
      <stop offset=".2" stop-color="#C7DB58"/>
      <stop offset=".4" stop-color="#A3C910"/>
      <stop offset=".746" stop-color="#7DBB23"/>
      <stop offset="1" stop-color="#66B22F"/>
    </linearGradient>
    <linearGradient id="e" x1="11.24" x2="6.111" y1="12.803" y2="9.382" gradientUnits="userSpaceOnUse">
      <stop stop-color="#E6EB91"/>
      <stop offset=".018" stop-color="#E2E989"/>
      <stop offset=".089" stop-color="#D3E16E"/>
      <stop offset=".152" stop-color="#CADD5E"/>
      <stop offset=".2" stop-color="#C7DB58"/>
      <stop offset=".4" stop-color="#A3C910"/>
      <stop offset=".746" stop-color="#7DBB23"/>
      <stop offset="1" stop-color="#66B22F"/>
    </linearGradient>
    <linearGradient id="f" x1="10.61" x2="5.481" y1="13.748" y2="10.327" gradientUnits="userSpaceOnUse">
      <stop stop-color="#E6EB91"/>
      <stop offset=".018" stop-color="#E2E989"/>
      <stop offset=".089" stop-color="#D3E16E"/>
      <stop offset=".152" stop-color="#CADD5E"/>
      <stop offset=".2" stop-color="#C7DB58"/>
      <stop offset=".4" stop-color="#A3C910"/>
      <stop offset=".746" stop-color="#7DBB23"/>
      <stop offset="1" stop-color="#66B22F"/>
    </linearGradient>
    <clipPath id="a">
      <path fill="#fff" d="M0 0h24v24H0z"/>
    </clipPath>
  </defs>
</svg>
