<svg xmlns="http://www.w3.org/2000/svg" width="24" height="24" fill="none" viewBox="0 0 24 24">
  <g clip-path="url(#a)">
    <path fill="#C2072E" d="M12 0C5.383 0 0 5.384 0 12c0 6.614 5.383 11.999 12 11.999 6.619 0 12-5.385 12-12S18.619 0 12 0Zm0 .504C18.34.504 23.496 5.66 23.496 12c0 6.337-5.155 11.494-11.496 11.494C5.661 23.494.503 18.337.503 12 .503 5.66 5.66.504 12 .504Zm-1.104.73v.107c.09.007.146.012.162.015l.042.023.019.04a.68.68 0 0 1 .007.125l.007.37v.411a5.015 5.015 0 0 1-.024.513l-.016.047-.025.016c-.013.005-.071.007-.172.015v.11a8.81 8.81 0 0 1 .338-.01c.02 0 .113 0 .276.004v-.104l-.025.001-.121-.011-.045-.015-.017-.023a.913.913 0 0 1-.016-.18c-.004-.141-.006-.28-.006-.415v-.635c.507.615.896 1.078 1.173 1.388.072.007.146.02.219.032l.015-.012a16.683 16.683 0 0 1-.015-1.033c0-.074 0-.185.003-.336a1.63 1.63 0 0 1 .026-.294l.015-.02a.59.59 0 0 1 .186-.022v-.108a6.882 6.882 0 0 1-.615 0v.108c.114.002.183.012.2.025l.025.062c.007.081.013.35.013.81v.295a8.312 8.312 0 0 1-.447-.508 19.053 19.053 0 0 1-.638-.792l-.118.005-.186.002c-.051 0-.13-.002-.24-.007Zm-.458.07-.278.072-.034.01-.274.053.024.105a.444.444 0 0 1 .19-.016l.035.022a.76.76 0 0 1 .063.187l.096.405.058.259c.044.177.058.303.041.375a.356.356 0 0 1-.112.19.58.58 0 0 1-.265.125.61.61 0 0 1-.261.012.303.303 0 0 1-.173-.083.389.389 0 0 1-.104-.177 2.94 2.94 0 0 1-.071-.282l-.037-.147-.069-.293a2.103 2.103 0 0 1-.062-.347l.014-.052c.022-.022.078-.041.169-.063l-.027-.106-.046.013-.168.042-.17.045-.412.087.027.104.168-.022.037.027.033.075c.029.096.055.198.083.319l.074.32.057.24c.031.135.05.213.063.245l.084.142a.49.49 0 0 0 .15.112c.061.033.136.05.222.057a1.21 1.21 0 0 0 .37-.034 1.11 1.11 0 0 0 .28-.101.722.722 0 0 0 .192-.153.595.595 0 0 0 .103-.188.55.55 0 0 0 .019-.224 1.514 1.514 0 0 0-.04-.239l-.068-.298c-.02-.084-.044-.206-.074-.357a1.706 1.706 0 0 1-.04-.26l.014-.045c.018-.018.066-.036.143-.052l-.024-.105Zm2.888.036-.015.109c.089.017.14.028.155.033l.027.019.007.027a2.3 2.3 0 0 1-.014.195 8.09 8.09 0 0 1-.045.317l-.076.513c-.013.09-.03.18-.052.27-.016.068-.023.14-.027.15l-.013.017-.04.01c-.012 0-.064-.004-.145-.015l-.018.108a9.25 9.25 0 0 1 .78.118l.017-.107a.866.866 0 0 1-.146-.033l-.034-.017-.013-.028a.997.997 0 0 1 .013-.203l.03-.226.073-.495c.004-.013.02-.125.055-.325l.022-.12.024-.077.016-.017.035-.01a.75.75 0 0 1 .147.013l.019-.108a28.482 28.482 0 0 1-.427-.057 12.26 12.26 0 0 1-.355-.06Zm1.186.204-.033.1c.074.028.12.052.138.073.014.013.026.056.037.126.01.071.028.288.057.644l.035.463c.012.169.026.35.037.537l.182.061c.093-.12.26-.323.504-.603l.289-.329.15-.17c.121-.142.197-.214.224-.226a.356.356 0 0 1 .14.023l.035-.106-.259-.078-.298-.106-.034.102.127.052.041.019.012.021-.004.032-.011.03a3.192 3.192 0 0 1-.129.169c-.096.118-.146.184-.158.198l-.482.565-.058-.832v-.025l-.008-.134a.996.996 0 0 1-.004-.253l.02-.026.041-.005a.711.711 0 0 1 .148.036l.036-.104-.43-.132c-.041-.013-.156-.055-.345-.122Zm2.172.77-.055.095a.68.68 0 0 1 .144.11l.008.028a.742.742 0 0 1-.07.156c-.07.122-.11.196-.121.213l-.283.488a10.46 10.46 0 0 1-.165.265 2.095 2.095 0 0 1-.096.14l-.142.003-.034.058c.227.124.348.193.364.204.066.036.185.105.352.207l.174.107c.085.05.152.083.202.104l.02-.005a3.92 3.92 0 0 1 .23-.34l-.087-.052c-.073.09-.124.148-.157.175l-.026.009c-.02.002-.065-.013-.133-.048a3.791 3.791 0 0 1-.425-.244l.073-.134.266-.46c.047.023.107.056.178.094.076.046.14.088.184.123l.032.054a.425.425 0 0 1-.076.166l.093.054.134-.242.144-.235-.09-.05a.538.538 0 0 1-.096.129l-.026.012-.074-.03a6.638 6.638 0 0 1-.182-.102l-.151-.09.13-.225c.071-.126.139-.228.196-.301.067.034.137.066.202.106.066.04.136.083.201.134l.079.067v.03a1.682 1.682 0 0 1-.083.162l.084.048c.06-.089.095-.14.102-.147l.111-.145v-.02l-.034-.027a1.71 1.71 0 0 0-.154-.095l-.222-.124a16.985 16.985 0 0 1-.331-.188l-.144-.082-.246-.155Zm-9.964.397a1.452 1.452 0 0 0-.291.08 1.95 1.95 0 0 0-.615.375 1.004 1.004 0 0 0-.185.232.91.91 0 0 0-.105.277.766.766 0 0 0-.001.307.91.91 0 0 0 .133.324.98.98 0 0 0 .302.314.878.878 0 0 0 .579.119c.158-.025.316-.085.476-.19a1.7 1.7 0 0 0 .277-.212c.086-.081.18-.19.284-.323l-.115-.159c-.022-.035-.055-.095-.106-.18l-.026-.066.06-.086-.044-.07-.32.206-.32.196.052.084c.116-.062.187-.097.217-.103h.04a.486.486 0 0 1 .084.116l.062.1.064.111-.107.133-.129.1a.65.65 0 0 1-.534.075c-.19-.054-.351-.186-.483-.397-.121-.197-.164-.38-.126-.558a.672.672 0 0 1 .325-.435.804.804 0 0 1 .428-.129l.092.018.06.074.07.097.084-.052a2.953 2.953 0 0 1-.163-.364l-.02-.014Zm11.565.56-.063.078c.073.073.114.12.125.138v.029a.923.923 0 0 1-.107.153l-.163.208-.296.358-.242.278-.104.101-.028.023-.026-.005a.822.822 0 0 1-.14-.096l-.07.084c.097.073.19.148.284.225.113.093.223.188.331.28l.07-.083a.956.956 0 0 1-.108-.1l-.02-.034-.002-.022.049-.079c.014-.02.073-.096.18-.233l.25-.308c.052-.062.155-.18.306-.36.069-.079.115-.128.135-.154l.098.07c.071.056.115.1.134.136.029.048.04.106.039.168a.317.317 0 0 1-.081.181.413.413 0 0 1-.171.124.259.259 0 0 1-.18.018.448.448 0 0 1-.195-.12l-.038.023.009.114c-.007.09-.02.21-.04.354l-.076.512-.021.073.156.123c.047.037.115.099.214.18l.065-.08-.056-.056-.012-.05.007-.188.015-.148.036-.35.003-.028.009-.084.018-.134a.617.617 0 0 0 .347.032.423.423 0 0 0 .247-.153.339.339 0 0 0 .088-.21.306.306 0 0 0-.054-.195 1.108 1.108 0 0 0-.21-.211c-.052-.044-.12-.095-.201-.158a2.499 2.499 0 0 1-.178-.14 3.537 3.537 0 0 1-.182-.154 8.692 8.692 0 0 0-.151-.13Zm-6.256.375c-4.082 0-7.596 3.011-8.226 7.023-.081.224-.345 1.09.073 1.997 0 0-.396-.206-.57-.226 0 0-.119.727.329 1.247 0 0-.363-.068-.76.155 0 0 .414.881 1.348 1.175 0 0 .068.171.138.294 0 0-.621-.105-1.227.157 0 0 .5.552.692.64 0 0 .465.292.708.328l-.192.067s.866 1.158 1.644 1.297c0 0-.55.151-.76.415 0 0 .986.915 2.281.64 0 0-.278.293-.415.588 0 0 .863.24 1.728-.073l-.088.211s.57.118 1.402-.433l.344.243s-1.001.17-1.658.413l.691.502s.07-.072.536-.292c0 0 1.298.264 1.982.24.685.024 1.982-.24 1.982-.24.468.22.536.292.536.292l.69-.502c-.656-.242-1.658-.413-1.658-.413l.345-.243c.83.55 1.4.433 1.4.433l-.088-.21c.867.313 1.73.072 1.73.072a2.658 2.658 0 0 0-.416-.589c1.297.276 2.283-.64 2.283-.64-.212-.263-.761-.414-.761-.414.777-.14 1.643-1.297 1.643-1.297l-.191-.067c.242-.036.71-.328.71-.328.189-.088.69-.64.69-.64-.603-.262-1.226-.157-1.226-.157.068-.123.137-.294.137-.294.933-.294 1.348-1.175 1.348-1.175-.4-.223-.76-.155-.76-.155.449-.52.328-1.247.328-1.247-.173.02-.571.226-.571.226.444-.963.124-1.875.066-2.025-.643-4-4.147-6.995-8.217-6.995Zm-7.264.26c-.067.086-.136.17-.206.253-.06.064-.124.137-.199.21l.08.07c.079-.083.129-.13.153-.133l.06.024c.068.045.275.22.62.522l.222.195c-.17.01-.395.01-.676.002a20.45 20.45 0 0 1-1.016-.044l-.076.093-.12.14c-.031.04-.088.098-.165.175l.083.072c.063-.064.104-.101.12-.111l.042-.017.043.013.096.074.285.241.308.273a3.866 3.866 0 0 1 .37.354l.025.043-.004.03c-.006.012-.04.06-.103.137l.082.074c.09-.11.163-.196.217-.26.014-.014.076-.084.184-.206l-.078-.067-.016.02-.087.084-.038.024-.03-.003a.863.863 0 0 1-.148-.108c-.11-.092-.216-.18-.315-.267L4 5.391c.797.028 1.404.04 1.816.035.057-.05.112-.096.17-.142l.001-.022c-.098-.071-.36-.292-.786-.667a11.827 11.827 0 0 1-.25-.226 1.46 1.46 0 0 1-.203-.213l-.005-.023c.002-.023.04-.073.104-.155l-.08-.071Zm7.264.194c3.9 0 7.25 2.908 7.792 6.768h.004a1.706 1.706 0 0 0-.276.297l-.181.305c-.324.675-.242 1.421-.242 1.421-.691-.623-1.78-.118-1.78-.118.034.118.398.395.398.395.016 1.309.794 1.574.794 1.574-.275.206-.345.432-.345.432-.399-.503-1.28-.397-1.28-.397 0 .914.969 1.364.969 1.364-.088.397-.035.59-.035.59-.328.154-.69.604-.69.604.102-.97-.243-1.298-.243-1.298-.588.347-.829 1.003-.829 1.003a2.33 2.33 0 0 0-1.522.812l.07-.312c-1.833.398-1.816 1.692-1.816 1.692l-.085-.033c-.097-.589-.645-.575-.703-.57-.058-.005-.604-.019-.703.57l-.087.033s.017-1.294-1.814-1.692l.068.312s-.535-.71-1.52-.812c0 0-.242-.656-.83-1.003 0 0-.345.327-.241 1.298 0 0-.363-.45-.69-.604 0 0 .05-.194-.036-.59 0 0 .967-.45.967-1.364 0 0-.881-.106-1.278.397 0 0-.07-.226-.346-.432 0 0 .778-.266.795-1.575 0 0 .362-.276.398-.394 0 0-1.09-.505-1.78.118 0 0 .148-1.324-.713-2.036l.016.002C4.78 7.003 8.13 4.1 12.03 4.1Zm-.028.587v.007l-.325.339-.018.606c-.826.146-2.806.756-2.051 3.254 0 0-2.94 1.347-2.772 3.803 0 0-.168 2.647 2.667 2.792 0 0 2.225.094 1.765-1.879h-.945s.65 1.018-.506 1.185c0 0-1.345.231-1.26-1.91 0 0 .147-2.477 2.038-3.947 0 0-.632-.715-.295-1.575 0 0 .277-.967 1.345-1.21l-.095 3.385.452.276v.008l.004-.005.007.005v-.008l.45-.276-.095-3.382c1.058.246 1.334 1.207 1.334 1.207.337.86-.295 1.575-.295 1.575 1.891 1.47 2.039 3.946 2.039 3.946.084 2.143-1.261 1.911-1.261 1.911-1.155-.167-.505-1.185-.505-1.185h-.945c-.462 1.973 1.766 1.88 1.766 1.88 2.834-.146 2.668-2.793 2.668-2.793.166-2.456-2.774-3.803-2.774-3.803.752-2.486-1.207-3.103-2.041-3.25l-.018-.61-.323-.339v-.007l-.007.002-.004-.002Zm7.888.247a.504.504 0 0 0-.125.012.528.528 0 0 0-.244.11l-.13.14a.416.416 0 0 0-.059.171.476.476 0 0 0 .032.196 5 5 0 0 0 .128.283c.046.1.072.172.08.22l-.016.126-.088.107-.162.073a.313.313 0 0 1-.176-.04.544.544 0 0 1-.27-.378.386.386 0 0 1 .008-.218c.065-.063.121-.112.17-.15l-.066-.083c-.154.12-.28.198-.37.235a1.118 1.118 0 0 0 .227.51.94.94 0 0 0 .27.252.707.707 0 0 0 .422.087.591.591 0 0 0 .267-.121l.118-.122.06-.123.005-.133a.618.618 0 0 0-.047-.168c-.013-.027-.04-.075-.082-.156-.04-.076-.07-.14-.092-.183a.575.575 0 0 1-.046-.15l.02-.11.09-.105a.284.284 0 0 1 .22-.05c.083.017.159.07.23.162a.58.58 0 0 1 .097.196.32.32 0 0 1 .005.167c-.029.032-.082.076-.156.139l.062.081c.07-.05.13-.088.174-.118l.144-.076.017-.026a.854.854 0 0 0-.078-.215 1.378 1.378 0 0 0-.139-.22 1.093 1.093 0 0 0-.177-.186.639.639 0 0 0-.206-.114.377.377 0 0 0-.117-.022Zm1.088 1.132-.095.061c.045.078.07.125.073.137l.005.034-.014.024a4.905 4.905 0 0 1-.428.283l-.442.276a4.108 4.108 0 0 1-.239.137c-.06.032-.121.072-.132.077l-.022.002-.03-.026c-.01-.01-.04-.05-.088-.12l-.092.055a8.474 8.474 0 0 1 .417.672l.093-.06c-.041-.07-.066-.11-.071-.129l-.007-.038.013-.03c.018-.02.09-.075.16-.12l.192-.123.427-.264.28-.168.105-.06.076-.035.025.003.03.019c.01.012.04.052.087.124l.092-.06c-.08-.119-.157-.24-.234-.36a9.063 9.063 0 0 1-.18-.31Zm-17.554.036a.752.752 0 0 0-.248.033.767.767 0 0 0-.254.13 1.366 1.366 0 0 0-.279.316c-.082.129-.141.26-.175.394a.78.78 0 0 0-.007.33c.02.119.067.23.137.329.072.102.17.192.3.275.168.11.33.168.484.175a.77.77 0 0 0 .429-.104 1.03 1.03 0 0 0 .35-.359 1.14 1.14 0 0 0 .182-.435.854.854 0 0 0-.008-.323.758.758 0 0 0-.129-.292 1.2 1.2 0 0 0-.557-.423.755.755 0 0 0-.225-.046Zm-.266.334a.88.88 0 0 1 .27.042c.096.032.195.082.292.144.146.098.255.194.33.297a.52.52 0 0 1 .11.305.549.549 0 0 1-.092.282.552.552 0 0 1-.226.206.565.565 0 0 1-.343.026 1.273 1.273 0 0 1-.453-.193 1.184 1.184 0 0 1-.282-.255.486.486 0 0 1-.113-.294c0-.107.03-.21.096-.31a.527.527 0 0 1 .187-.19.514.514 0 0 1 .224-.06Zm18.413.6-.107.059-.264.12.04.097c.068-.028.13-.05.19-.062l.047-.003.029.041c.032.06.066.134.102.216l.072.167c-.021.012-.127.06-.316.138l-.697.3c-.167.072-.27.112-.306.119l-.06-.02a.491.491 0 0 1-.09-.155l-.097.042a7.658 7.658 0 0 1 .327.76l.095-.042a.664.664 0 0 1-.052-.176l.028-.053c.032-.024.13-.07.298-.143l.696-.298c.185-.08.29-.125.32-.134l.07.165c.034.076.063.154.09.232l.007.042-.042.037c-.053.03-.107.062-.168.091l.042.095c.164-.067.251-.1.256-.105l.13-.04.007-.018-.055-.103c-.03-.063-.087-.196-.17-.39l-.203-.469a16.5 16.5 0 0 1-.162-.386l-.042-.118-.015-.005Zm-19.55.847a10.681 10.681 0 0 1-.282.8l.106.038.06-.16.03-.042.027-.008a.608.608 0 0 1 .15.036c.085.028.175.06.277.093l.934.33c.02.006.11.041.277.107.083.03.136.056.16.07l.046.06-.007.075-.042.07-.102.072.004.033c.092.032.164.059.218.083l.05-.09a.332.332 0 0 0 .018-.152.797.797 0 0 0-.12-.37.68.68 0 0 0-.175-.191 1.206 1.206 0 0 0-.294-.144l-.512-.175-.431-.153a3.483 3.483 0 0 1-.27-.106l-.055-.039-.007-.054c.003-.017.018-.066.045-.146l-.104-.037Zm18.626 1.15-.1.025.073.28.062.284.103-.023a.5.5 0 0 1-.022-.182l.039-.03a.81.81 0 0 1 .224.012l.161.018.152.632-.246.171-.092.05-.04-.01a.894.894 0 0 1-.058-.163l-.101.024.11.428.077.344.1-.024-.006-.054-.008-.076.008-.027.028-.031.1-.076.15-.118 1.149-.855-.04-.177-.307-.04-.867-.134c-.166-.023-.275-.038-.33-.047a2.5 2.5 0 0 1-.207-.039l-.046-.017-.023-.03a.61.61 0 0 1-.043-.116ZM1.629 9.12l-.02.004-.015.038c-.028.088-.039.149-.047.179l-.05.248-.084.372-.038.16-.074.283.106.021a.799.799 0 0 1 .061-.169l.024-.014a.657.657 0 0 1 .172.022c.137.029.216.046.237.049l.548.129c.066.015.167.044.303.082.078.02.131.037.165.05l.04.136.067.016c.053-.253.084-.391.088-.411.015-.071.05-.205.098-.397l.049-.196a2.29 2.29 0 0 0 .042-.224l-.013-.02a3.816 3.816 0 0 1-.39-.117l-.025.1c.107.041.177.072.212.097l.018.02a.392.392 0 0 1-.007.144c-.012.076-.03.157-.047.246a3.857 3.857 0 0 1-.062.232c-.043-.01-.092-.017-.15-.032l-.517-.12c.009-.053.02-.118.037-.197.022-.088.043-.157.065-.212l.042-.046a.487.487 0 0 1 .179.022l.023-.107-.267-.055-.266-.067-.024.1a.56.56 0 0 1 .15.054l.02.023-.007.079a8.71 8.71 0 0 0-.04.202c-.017.062-.032.12-.05.17l-.248-.056a3.577 3.577 0 0 1-.347-.098c.013-.076.026-.152.043-.223a2.03 2.03 0 0 1 .068-.234l.044-.092.026-.012a1.6 1.6 0 0 1 .18.03l.021-.093c-.102-.032-.16-.051-.171-.053l-.17-.063Zm19.712.32.692.1-.57.412a8.069 8.069 0 0 1-.065-.249c-.022-.099-.043-.186-.057-.263Zm-10.604.414a2.108 2.108 0 0 0-1 .257l-.863 2.922s1.45-.8 2.857.168h.002a.51.51 0 0 0 .268.066.504.504 0 0 0 .266-.066h.006c1.408-.969 2.856-.168 2.856-.168l-.862-2.922c-1.302-.68-2.236.202-2.266.23a1.95 1.95 0 0 0-1.264-.487Zm.04.191c.336.011.752.106 1.224.38v.003-.003c1.26-.73 2.12-.185 2.12-.185l.63 2.392c-1.413-.455-2.72.401-2.75.42-.026-.019-1.337-.875-2.748-.42l.628-2.392s.337-.213.896-.195Zm1.908.514-.01.09.072.01.021.012.009.018.003.046-.005.163-.01.202-.024.379c-.007.141-.018.27-.027.383l-.013.08-.01.013-.089.011-.006.096c.054 0 .113 0 .171.004.055.005.138.01.245.021l.005-.096-.086-.012-.02-.016-.006-.017a6.006 6.006 0 0 1 .014-.433l.024-.405.015-.212c.004-.084.012-.149.016-.194l.079-.01.113.08a.457.457 0 0 1 .027.226.449.449 0 0 1-.053.211l-.105.069-.021-.008-.025-.011-.015.021.017.078.038.014.04.005.156-.056a.4.4 0 0 0 .113-.165.705.705 0 0 0 .023-.425l-.076-.108-.13-.04-.285-.007-.185-.017Zm-1.654.002c-.06 0-.11.008-.161.026l-.14.084a.653.653 0 0 0-.122.152.889.889 0 0 0-.081.22 1.28 1.28 0 0 0-.029.295c0 .133.014.256.045.365a.73.73 0 0 0 .083.197c.038.06.08.11.132.15a.428.428 0 0 0 .253.083.577.577 0 0 0 .176-.03c.058-.024.128-.056.208-.105l-.007-.17c0-.034 0-.094.004-.178l.005-.056.05-.038v-.069l-.193.003-.189-.003v.086a.425.425 0 0 1 .121.02l.017.02a.73.73 0 0 1 .006.123l-.003.098-.003.112-.077.044-.084.015c-.099 0-.181-.061-.248-.188-.066-.123-.1-.292-.1-.506 0-.193.032-.345.096-.458.063-.111.148-.167.254-.167l.121.027.096.072.034.055.006.082.004.102h.05c.009-.16.019-.273.03-.337l-.006-.019a.748.748 0 0 0-.147-.075.614.614 0 0 0-.201-.032Zm.93.02-.055.242-.167.694c-.032.133-.053.219-.061.263l-.047.166-.013.033-.019.013-.058.013v.088l.145-.006.146.006v-.088l-.09-.02-.01-.036c0-.026.01-.087.03-.185l.028-.133h.327l.057.24.013.086-.01.033-.086.015v.088l.223-.006.175.006v-.088l-.026-.007-.038-.008-.014-.011-.01-.03-.028-.098-.038-.146-.283-1.124h-.09Zm1.564.034-.014.091.087.033.009.018a3.346 3.346 0 0 1-.043.353l-.07.479a9.57 9.57 0 0 1-.044.267c-.012.065-.02.114-.028.144l-.07.052-.01.058c.131.015.202.023.212.023.039.006.107.02.207.036l.101.017.114.011.01-.015a5.86 5.86 0 0 1 .066-.347l-.053-.007a1.25 1.25 0 0 1-.053.192l-.009.018-.073.012-.129-.012-.12-.023.019-.133.065-.45.102.007.11.028.023.032a.73.73 0 0 1-.012.155l.053.007.032-.233.037-.235-.052-.007c-.009.064-.02.107-.027.135l-.013.021h-.041a.76.76 0 0 1-.105-.013l-.089-.016.031-.216c.02-.127.035-.228.055-.307l.115.009.121.03.048.024.002.024c0 .019-.003.068-.014.153l.049.01c.015-.093.025-.144.029-.154l.033-.153-.002-.014-.019-.009-.093-.018-.128-.013a5.35 5.35 0 0 1-.192-.026l-.083-.01-.144-.029Zm-3.44.095-.088.01-.038.247-.111.702c-.018.136-.036.223-.042.268a2.505 2.505 0 0 1-.03.167l-.01.035-.015.016-.061.014.007.09.144-.018.148-.005-.008-.089-.092-.014-.013-.033a1.013 1.013 0 0 1 .017-.187l.018-.132.326-.026.073.232.022.087-.008.032-.085.022.007.088.221-.025.177-.008-.006-.088-.03-.003-.036-.005-.016-.011-.013-.026-.034-.099-.05-.143-.373-1.098Zm-7.67.194a.477.477 0 0 0-.167.022l-.124.056-.088.098a.63.63 0 0 0-.068.165l-.038.17a7.397 7.397 0 0 1-.04.203.63.63 0 0 1-.06.144l-.084.072-.136.025a.27.27 0 0 1-.201-.098.384.384 0 0 1-.08-.267.524.524 0 0 1 .05-.216.294.294 0 0 1 .1-.135c.042-.005.111-.007.209-.007l.002-.106a1.885 1.885 0 0 1-.206-.019l-.162-.03-.03.011a.806.806 0 0 0-.076.217 1.285 1.285 0 0 0-.01.51.665.665 0 0 0 .091.222.47.47 0 0 0 .183.162.58.58 0 0 0 .449.038.397.397 0 0 0 .15-.095.449.449 0 0 0 .1-.174c.017-.047.04-.148.076-.299a.96.96 0 0 1 .077-.22l.094-.091.135-.029a.37.37 0 0 1 .17.047.284.284 0 0 1 .112.142.563.563 0 0 1-.026.467.403.403 0 0 1-.143.162c-.09.008-.167.01-.229.007v.105c.197.006.341.024.439.053.043-.085.079-.174.106-.265.019-.08.031-.173.033-.278a.94.94 0 0 0-.05-.364.657.657 0 0 0-.11-.186.644.644 0 0 0-.165-.146.63.63 0 0 0-.284-.073Zm1.519.005c1.143.858.737 2.145.737 2.145s-.337-1.346-.484-1.56c0 0-.065-.086-.125-.055-.025.013-.046.041-.065.104 0 0 .205.585.346 1.051a4.2 4.2 0 0 1 .123.504c-.932-.802-.532-2.189-.532-2.189Zm16.19 0s.397 1.387-.53 2.19a3.43 3.43 0 0 1 .122-.505l.002-.007c.139-.465.341-1.044.341-1.044-.016-.063-.04-.09-.063-.104-.06-.03-.126.055-.126.055-.148.214-.485 1.56-.485 1.56s-.406-1.287.74-2.145Zm-8.173.046.136.557h-.267l.131-.557Zm10.322.037a.557.557 0 0 0-.07 0 .52.52 0 0 0-.187.038.42.42 0 0 0-.147.107.407.407 0 0 0-.086.179c-.014.046-.032.149-.06.302a.987.987 0 0 1-.062.226l-.087.096-.134.034a.368.368 0 0 1-.174-.037.296.296 0 0 1-.121-.132.577.577 0 0 1 0-.467.4.4 0 0 1 .134-.17c.087-.014.162-.023.222-.023l-.003-.105a1.94 1.94 0 0 1-.44-.023c-.04.085-.07.175-.09.268a1.293 1.293 0 0 0-.018.28.99.99 0 0 0 .073.357c.03.068.07.13.122.182.054.057.11.103.175.136a.601.601 0 0 0 .452.025l.12-.065.082-.105a.618.618 0 0 0 .058-.166c.003-.028.015-.085.023-.174l.031-.204a.574.574 0 0 1 .051-.146l.08-.08.134-.033a.266.266 0 0 1 .206.085.39.39 0 0 1 .098.263.535.535 0 0 1-.038.22.344.344 0 0 1-.092.14 2.14 2.14 0 0 1-.206.02l.003.105.207.002.163.021.03-.01a.825.825 0 0 0 .06-.22 1.309 1.309 0 0 0-.022-.512.65.65 0 0 0-.102-.215.543.543 0 0 0-.385-.2v.001Zm-12.258.101.18.544-.13.013-.135.008.085-.565Zm-4.132 1.689c.057.002.117.007.18.015 0 0-.802.242-1.193.545 0 0 .16-.594 1.013-.56Zm12.29 0c.854-.034 1.014.56 1.014.56-.388-.303-1.194-.545-1.194-.545.06-.008.12-.013.18-.015Zm-14.502.021c.75.27.932 1.16.932 1.16l-.278-.154c-.438-.536-.654-1.006-.654-1.006Zm16.718 0s-.218.47-.657 1.006l-.278.155s.183-.89.935-1.16ZM6.2 12.978s-.474.412-1.069.443c0 0 .553-.331 1.07-.443Zm11.655 0c.519.112 1.07.443 1.07.443-.594-.031-1.07-.443-1.07-.443Zm-14.304.024c.189.418.465.702.465.702h-.088c-.372-.355-.377-.702-.377-.702Zm16.958 0s-.01.347-.38.702h-.086s.278-.284.466-.702Zm-18.586.134a.472.472 0 1 0 0 .944.472.472 0 0 0 0-.944Zm20.202.066a.472.472 0 1 0 .002.944.472.472 0 0 0-.002-.944Zm-16.034.096s.04.892-.641 1.232c0 0 .25-.518.354-1.057l.287-.175Zm11.878 0 .285.175c.105.54.355 1.057.355 1.057-.684-.34-.64-1.232-.64-1.232Zm-6.45.065v2.073c.586.293 1.005 0 1.005 0v-2.073c-.63.4-1.005 0-1.005 0Zm-5.95.177s-.164.71-.308.89c0 0-.062-.51.035-.82l.272-.07Zm12.917 0 .277.07c.095.31.036.82.036.82-.148-.18-.313-.89-.313-.89Zm-13.425.121s-.052.535 0 .742l-.208-.242s-.085-.405-.13-.491l.338-.009Zm13.937 0 .336.009c-.045.086-.13.491-.13.491l-.206.242c.051-.207 0-.742 0-.742Zm-15.389.216c.974-.005 1.305.708 1.305.708-.572-.336-1.538-.658-1.538-.658-.087-.024-.147.096-.147.096l-.077-.096c.166-.034.318-.05.457-.05Zm16.838 0c.139 0 .29.016.457.05l-.075.096s-.06-.12-.148-.096c0 0-.966.322-1.539.658 0 0 .332-.713 1.305-.708Zm-17.123.259c.716.19 1.563.68 1.563.68-.941.209-1.563-.68-1.563-.68Zm17.409 0s-.62.889-1.564.68c0 0 .849-.49 1.564-.68Zm.502.497-.1.268c-.01.024-.032.074-.067.149l.1.099c.027.027.097.1.208.224l.2.216c.054.059.126.138.22.247l-.703.049-.16.007-.208.01c-.02.063-.043.125-.069.187-.017.047-.055.128-.107.252l.076.03.055-.1.022-.027.023-.003c.022 0 .077.02.173.055l.321.127c.135.053.231.093.286.118.113.047.185.084.218.1l.03.024.005.02a.62.62 0 0 1-.032.13l.076.03c.017-.058.043-.129.081-.22.028-.07.058-.137.087-.205l-.075-.031a.767.767 0 0 1-.055.106l-.026.02h-.035a2.507 2.507 0 0 1-.173-.063 4.038 4.038 0 0 1-.263-.102l-.441-.175.574-.043.4-.023c.102-.005.184-.009.242-.009l.024-.062-.125-.13-.194-.208-.168-.183-.337-.376.652.261c.124.05.197.08.219.098l.032.038a.488.488 0 0 1-.038.132l.077.03.108-.281.118-.281-.075-.032-.053.108-.022.015-.025.002a1.344 1.344 0 0 1-.145-.044l-.134-.051-.313-.127-.252-.105-.112-.049-.074-.055c-.008-.022 0-.062.026-.126l.004-.01-.076-.031Zm-18.873.115a.757.757 0 0 0-.686.439.643.643 0 0 0-.05.249.995.995 0 0 0 .074.364c.037.09.076.164.114.215.039.055.093.11.163.17l.109.007.011-.034a.805.805 0 0 1-.143-.148.8.8 0 0 1-.145-.425.564.564 0 0 1 .18-.37.788.788 0 0 1 .24-.146c.16-.066.3-.07.423-.023a.48.48 0 0 1 .274.288c.03.077.047.147.044.204 0 .06-.014.117-.039.174a1.56 1.56 0 0 1-.155.074l.027.07A6.4 6.4 0 0 1 3 15.797l.117-.02.01-.01a1.445 1.445 0 0 0-.027-.25 1.476 1.476 0 0 0-.07-.228c-.097-.24-.23-.396-.402-.478a.637.637 0 0 0-.266-.063Zm3.01.191s.587.182.647 1.685l-.086-.025s-.37-.623-.405-1.08c0 0-.087-.502-.156-.58Zm13.313 0c-.07.078-.154.58-.154.58-.035.457-.407 1.08-.407 1.08l-.087.025c.06-1.503.648-1.685.648-1.685Zm-13.513.044s.208.597.183.743c0 0 .198.674.293.762l-.232-.038s-.398-.595-.244-1.467Zm13.712 0c.157.872-.242 1.467-.242 1.467l-.234.038c.095-.088.295-.762.295-.762-.027-.146.181-.743.181-.743ZM4.956 15s-.042.362-.006.572l-.33-.225-.154-.302s.37.025.49-.045Zm1.687 0c-.2.122-.606.483-.606.483l-.043-.13c.243-.369.649-.353.649-.353Zm10.772 0s.406-.016.648.354l-.043.129s-.406-.36-.605-.483Zm1.685 0c.12.07.493.045.493.045l-.156.302-.328.225c.033-.21-.009-.572-.009-.572Zm-12.234.097c-.094.51-.707.803-.707.803l-.035-.208c.182-.235.742-.595.742-.595Zm10.324 0s.563.36.744.595l-.037.208s-.612-.293-.707-.803Zm-13.1.393c.907.007 1.007.746 1.007.746-.546-.553-1.347-.7-1.347-.7-.198 0-.078.163-.078.163.863.241 1.192.623 1.192.623-.657-.07-1.366-.752-1.366-.752a2.32 2.32 0 0 1 .592-.08Zm15.879 0a2.32 2.32 0 0 1 .592.08s-.708.682-1.365.752c0 0 .329-.382 1.194-.623 0 0 .12-.163-.08-.163 0 0-.804.146-1.347.7 0 0 .099-.739 1.006-.746Zm-16.758.336-.07.039c.035.071.05.117.052.137l-.01.02a.539.539 0 0 1-.122.079l-.18.1-.32.173-.255.125-.106.044-.027.008-.017-.011a.546.546 0 0 1-.072-.112l-.076.042c.048.08.093.162.136.245.054.099.106.198.155.3l.077-.04-.047-.103-.005-.027.006-.02.058-.042a9.16 9.16 0 0 1 .198-.111c.09-.054.18-.103.274-.149a9.145 9.145 0 0 1 .471-.24l.048.078a.563.563 0 0 1 .057.136l-.023.133-.111.11-.161.037-.136-.04a.418.418 0 0 1-.106-.145l-.031.004-.03.085a2.051 2.051 0 0 1-.134.244l-.204.346-.039.046.077.134c.02.042.054.105.098.195l.071-.038-.02-.059.006-.038a1.74 1.74 0 0 1 .06-.133c.002-.001.02-.04.054-.104l.13-.24.01-.02.032-.059.052-.09a.502.502 0 0 0 .245.127.35.35 0 0 0 .222-.037.273.273 0 0 0 .125-.127l.018-.156a.856.856 0 0 0-.09-.212 4.583 4.583 0 0 0-.097-.176c-.026-.041-.052-.093-.086-.153l-.086-.165c-.04-.079-.062-.127-.07-.14Zm7.222.15c-.17.062-.294.108-.374.135-.08.025-.188.061-.324.098l-.002.007.014.072.011.073.014.008c.04-.025.134-.066.28-.13l.05-.02.018.012.007.045.003.098.003.304v.272c0 .203-.005.333-.013.394l-.023.06-.051.018-.215.025v.094a14.529 14.529 0 0 1 .882 0v-.094l-.073-.006a.62.62 0 0 1-.16-.02l-.024-.024a.63.63 0 0 1-.013-.17 4.227 4.227 0 0 1-.008-.34v-.17c.004-.271.008-.44.01-.503 0-.017.003-.056.007-.115l.008-.107-.027-.017Zm2.513.004c-.014 0-.062.008-.148.028l-.134.026a3.083 3.083 0 0 0-.158.235 7.088 7.088 0 0 0-.267.48c-.077.148-.126.25-.145.308l.014.096c.138-.006.273-.006.41-.006h.15c-.004.119-.004.185-.007.197l-.02.069-.036.016c-.018.006-.087.01-.21.018v.094l.392-.007.29.005.09.002v-.094l-.146-.014-.046-.02-.02-.036a2.22 2.22 0 0 1-.007-.23h.213l-.008-.084.008-.101-.008-.012-.162.006h-.043v-.255a15.123 15.123 0 0 1 .018-.703l-.02-.018Zm-1.503.024a.47.47 0 0 0-.362.15.565.565 0 0 0-.144.406c0 .14.036.247.102.324a.324.324 0 0 0 .245.111l.163-.027.04-.026c.026-.021.073-.064.148-.13a1.542 1.542 0 0 1-.042.261.852.852 0 0 1-.095.203.494.494 0 0 1-.162.145.432.432 0 0 1-.209.056l-.082-.014-.028.043.088.072a.752.752 0 0 0 .31-.061.855.855 0 0 0 .453-.463c.047-.111.07-.247.07-.406a.929.929 0 0 0-.052-.34.48.48 0 0 0-.164-.22.435.435 0 0 0-.28-.084Zm2.452 0a.541.541 0 0 0-.173.027l-.142.088a.47.47 0 0 0-.11.144.571.571 0 0 0-.066.197 2.549 2.549 0 0 0-.008.682.61.61 0 0 0 .085.24.414.414 0 0 0 .157.148.51.51 0 0 0 .227.048c.073 0 .135-.01.185-.032l.14-.086a.696.696 0 0 0 .179-.4 2.63 2.63 0 0 0 .02-.33 1.47 1.47 0 0 0-.047-.413.47.47 0 0 0-.153-.233.482.482 0 0 0-.294-.08Zm-2.48.123c.075 0 .132.035.168.106.038.07.057.17.057.297a.392.392 0 0 1-.02.15l-.073.081-.103.03-.114-.04-.084-.108a.559.559 0 0 1-.031-.203c0-.114.018-.193.057-.24a.173.173 0 0 1 .143-.073Zm2.452 0 .095.03.068.092c.02.042.033.106.043.19.02.156.031.312.031.47 0 .244-.022.394-.06.459-.04.06-.091.092-.152.092l-.132-.065c-.037-.045-.065-.135-.082-.271a4.01 4.01 0 0 1-.025-.463c0-.167.01-.29.035-.373a.253.253 0 0 1 .072-.125l.107-.036Zm-1.186.06-.005.21-.003.146-.004.412h-.409a5.36 5.36 0 0 1 .194-.387c.046-.083.12-.21.227-.38Zm-5.476.152c.83.665.888 1.76.888 1.76-.335-.147-.767-1.508-.767-1.508-.017-.131-.164-.09-.164-.09.01-.094.043-.162.043-.162Zm9.65 0s.033.068.042.163c0 0-.146-.042-.164.089 0 0-.43 1.36-.768 1.508 0 0 .06-1.095.89-1.76Zm3.638.017-.11.187-.013.023a4.53 4.53 0 0 1-.116.174l.07.043a.32.32 0 0 1 .091-.107l.03-.008a.713.713 0 0 1 .134.068l.267.166.169.105a.77.77 0 0 1 .222.179c.03.044.043.097.043.158a.44.44 0 0 1-.08.209.459.459 0 0 1-.129.146l-.138.05-.15-.04a3.713 3.713 0 0 1-.19-.113l-.096-.06-.19-.118a1.58 1.58 0 0 1-.223-.154l-.017-.035c-.001-.022.018-.064.055-.124l-.068-.042-.02.032-.067.112-.067.114-.173.267.07.042.077-.102.034-.005.06.021c.064.035.134.078.213.124l.209.133.159.101c.086.051.14.087.163.095l.12.03.14-.018.148-.089a.936.936 0 0 0 .181-.215.753.753 0 0 0 .096-.204.464.464 0 0 0-.026-.338l-.108-.129-.147-.11-.194-.117a6.21 6.21 0 0 1-.393-.272l-.015-.03.049-.104-.07-.045Zm-15.507.258c1.371.014 1.805.932 1.805.932-.96-.644-1.772-.863-1.772-.863-.155-.06-.148.114-.148.114a.628.628 0 0 1-.172-.173 3.07 3.07 0 0 1 .287-.01Zm14.087 0c.096-.001.192.002.287.01 0 0-.086.127-.172.173 0 0 .008-.174-.146-.113 0 0-.814.218-1.772.862 0 0 .432-.918 1.803-.932Zm-11.954.026c.586 1.702.986 1.73.986 1.73v.067c-1.254-.485-.986-1.797-.986-1.797Zm9.822 0s.269 1.312-.986 1.797v-.067s.398-.028.986-1.73Zm-12.007.216s.577.13 1.726.846c0 0-1.011.046-1.726-.846Zm14.192 0c-.717.892-1.727.846-1.727.846 1.149-.715 1.727-.846 1.727-.846Zm-15.289.127-.068.048c.04.063.064.105.068.124l-.004.02a.523.523 0 0 1-.102.092c-.089.065-.139.103-.153.111l-.358.256c-.043.027-.11.074-.203.136l-.114.068-.102-.044-.042.031c.119.161.184.25.195.26l.182.262.09.13c.044.063.08.11.107.14l.019.004a2.5 2.5 0 0 1 .271-.168l-.045-.067a1.23 1.23 0 0 1-.168.076h-.023l-.078-.079-.12-.154a5.3 5.3 0 0 1-.103-.155L3.181 18l.336-.239.096.123.091.148.005.049a.336.336 0 0 1-.106.092l.05.068.173-.126.177-.122-.048-.066-.109.062h-.024l-.041-.046c-.055-.073-.089-.117-.096-.13l-.078-.116.162-.117a3.34 3.34 0 0 1 .236-.151l.11.142c.037.051.07.105.1.162l.034.07-.01.022a.728.728 0 0 1-.11.088l.044.064c.072-.045.11-.07.122-.074l.123-.069.007-.012-.014-.029a5.55 5.55 0 0 0-.079-.118l-.119-.16c-.066-.086-.124-.168-.176-.24l-.072-.105-.128-.187Zm4.344.298s.086.009.197.053c0 0-.104.06-.025.19 0 0 .684.611 1.245 1.284 0 0-.699-.059-1.417-1.527Zm7.697 0c-.716 1.468-1.417 1.527-1.417 1.527.561-.673 1.245-1.285 1.245-1.285.078-.129-.027-.189-.027-.189a.857.857 0 0 1 .2-.053Zm-7.316.137c.725.199 1.053 1.09 1.053 1.09-.033-.105-1.053-1.09-1.053-1.09Zm6.936 0s-1.019.985-1.052 1.09c0 0 .327-.891 1.052-1.09Zm4.185.2a5.169 5.169 0 0 1-.201.27c-.064.086-.123.157-.176.222l.066.052.083-.092.024-.011.022.004c.018.008.061.036.129.083l.2.15.322.25c.051.041.108.086.166.139l.069.061.009.018-.01.03-.068.094.07.054c.053-.078.108-.153.166-.226l.21-.266-.066-.051-.078.087-.026.017-.026-.004-.109-.071-.142-.106-.313-.241c-.01-.005-.076-.06-.202-.16l-.075-.06-.043-.048-.004-.016.006-.03.065-.096-.068-.052Zm-9.99.188c1.383.467 1.365 1.46 1.365 1.46-.18-.059-1.072-1.19-1.072-1.19-.233-.104-.146.138-.146.138.337.414.83 1.003.83 1.003-.805-.155-.977-1.411-.977-1.411Zm4.672 0s-.173 1.256-.977 1.41c0 0 .492-.588.832-1.002 0 0 .085-.242-.149-.138 0 0-.89 1.131-1.071 1.19 0 0-.018-.993 1.365-1.46Zm-6.062.105s.284.422.362.51l-.224.024s.016-.136-.13-.172l-.008-.362Zm7.452 0-.006.362c-.148.036-.131.172-.131.172l-.223-.024c.075-.088.36-.51.36-.51Zm-9.337.002c.458-.014.839.146.839.146.017.06.347.335.347.335-.521-.156-1.512-.318-1.512-.318-.184.05-.036.179-.036.179.786.148 1.59.373 1.59.373-1.201.34-2.067-.432-2.067-.432.263-.204.565-.275.84-.283Zm11.224 0a1.4 1.4 0 0 1 .836.283s-.863.771-2.064.432c0 0 .804-.225 1.59-.373 0 0 .147-.129-.034-.18 0 0-.995.163-1.512.32 0 0 .326-.276.345-.336 0 0 .382-.16.839-.146Zm1.645.227-.06.072-.227.235-.276.284c-.11.113-.186.19-.227.228l-.072.067.002.013.072.058c.013.009.067.061.164.153l.059-.058-.101-.117-.016-.032.02-.03.123-.14.098-.102c.017.01.08.074.195.184l.419.409c.1.097.159.16.173.184l.008.048-.085.11.056.056c.08-.091.153-.168.217-.236.06-.06.136-.133.228-.22l-.058-.056-.108.088-.049-.005a1.935 1.935 0 0 1-.187-.169l-.42-.406c-.112-.11-.175-.17-.19-.187l.096-.103.14-.132.027-.016.039.017.113.092.059-.058c-.1-.098-.15-.145-.154-.152l-.066-.079h-.012Zm-14.365.234-.223.084-.636.236c-.12.046-.2.075-.241.088a2.38 2.38 0 0 1-.154.052l-.037.004-.028-.01-.07-.063-.061.054.158.164.146.17.06-.056a.437.437 0 0 1-.081-.114l.014-.035a.677.677 0 0 1 .156-.076l.116-.046.337.369-.1.206-.045.069-.03.01c-.012-.005-.044-.035-.102-.088l-.06.053.237.25.177.2.06-.05-.025-.036-.034-.048-.003-.022.005-.031.04-.09.059-.135.459-1.008-.094-.1Zm-.263.218-.231.491c-.04-.04-.088-.087-.137-.146l-.138-.155.506-.19Zm3.829.057a1.25 1.25 0 0 1 .514.1s-1.263.38-1.398.45c0 0-.079.026-.063.11l-.12-.005s.389-.635 1.067-.655Zm7.085 0c.678.02 1.065.655 1.065.655l-.12.005c.017-.084-.06-.11-.06-.11-.14-.07-1.4-.45-1.4-.45.186-.076.358-.104.515-.1Zm-10.246.207-.05.078-.14.18.064.05.108-.108.03-.023.034.018.148.113.11.086a4.08 4.08 0 0 1-.168.21l-.367.453a1.342 1.342 0 0 1-.168.19l-.047.015a.512.512 0 0 1-.118-.078l-.05.063c.096.071.18.133.252.193l.245.206.049-.059a.435.435 0 0 1-.098-.102l.001-.048c.011-.026.061-.094.15-.203l.37-.454c.097-.12.152-.189.17-.205l.107.087c.05.04.099.082.145.127l.02.025-.017.04-.082.123.066.05c.086-.105.13-.162.136-.165l.075-.073-.004-.014-.074-.05a6.887 6.887 0 0 0-.257-.204l-.306-.251c-.125-.1-.208-.17-.249-.205l-.072-.065h-.013Zm3.934.04.095.05s-.595.408-1.468.363c0 0 1.142-.38 1.373-.412Zm5.537 0c.235.034 1.375.413 1.375.413-.873.045-1.47-.362-1.47-.362l.095-.05Zm-5.234.147.225.043c-.241.218-.65.276-.65.276.157-.12.425-.319.425-.319Zm4.932 0s.268.199.424.319c0 0-.407-.058-.65-.276l.226-.043Zm3.882.013a9.09 9.09 0 0 1-.472.402l.056.066.098-.075.027-.004.018.008a.956.956 0 0 1 .11.11l.163.188.264.312.134.17.053.077.005.017-.016.026-.084.08.055.068a6.438 6.438 0 0 1 .472-.403l-.053-.065-.095.07-.03.01-.023-.01-.09-.09-.12-.138-.254-.299c-.008-.007-.062-.075-.165-.198l-.06-.074-.034-.056v-.017l.013-.026.084-.081-.056-.068Zm-.496.445-.173.12-.21.133.046.069.093-.052.033-.013.018.002.018.018.013.018.041.16c.026.119.04.18.042.197l.113.566-.537-.367-.016-.014-.085-.058a.878.878 0 0 1-.156-.122l-.007-.026.018-.026.094-.073-.047-.07-.289.195c-.028.02-.11.07-.242.152l.047.071.111-.053.095.04c.049.028.189.122.421.279l.298.201c.11.077.226.155.345.239l.125-.081a12.114 12.114 0 0 1-.12-.6l-.062-.336-.032-.176a.869.869 0 0 1-.03-.242l.081-.08-.046-.07Zm-5.852.06a5.18 5.18 0 0 1 1.446.26 6.932 6.932 0 0 1-1.44.138h-.011a6.929 6.929 0 0 1-1.442-.138s.671-.24 1.447-.26Zm-5.703.11-.047.07a.77.77 0 0 1 .098.075l.014.021-.005.023a1.07 1.07 0 0 1-.072.135 5.98 5.98 0 0 1-.134.212l-.222.342c-.037.055-.08.115-.125.178l-.055.072-.017.009-.03-.009c-.01 0-.043-.021-.102-.054l-.046.072c.071.042.15.088.238.148.101.065.196.128.282.19l.047-.072-.095-.07-.017-.027v-.023l.063-.115.095-.153.213-.33.144-.212.055-.079.042-.05.017-.01.028.007.103.057.048-.071a6.891 6.891 0 0 1-.52-.336Zm.545.386-.037.075.098.07c.008.013.014.046.014.103-.003.056-.013.224-.034.505l-.028.36c-.011.129-.022.268-.036.415l.134.066c.084-.079.237-.214.46-.4l.261-.221.135-.11c.111-.096.177-.145.2-.149.012 0 .05.008.106.032l.04-.075-.192-.091-.217-.119-.039.075.092.056.032.02.005.018-.005.024-.013.021c-.02.021-.06.06-.12.116a2.633 2.633 0 0 1-.147.13l-.437.382.056-.65.001-.017c.002-.007.004-.043.009-.106a.801.801 0 0 1 .03-.195l.017-.018.032.002.11.044.039-.077-.315-.15-.25-.136Zm9.58.36a.788.788 0 0 0-.217.08 2.965 2.965 0 0 0-.178.094c-.041.023-.095.05-.155.08-.072.033-.125.063-.168.082-.08.035-.126.06-.14.066l.034.07a.61.61 0 0 1 .14-.047l.02.009a.706.706 0 0 1 .075.127l.095.183.162.322.117.26.044.107.004.03-.012.015a.684.684 0 0 1-.111.068l.038.079c.075-.043.159-.09.248-.132.101-.05.204-.099.307-.146l-.037-.076-.104.046h-.031l-.019-.004-.04-.06c-.008-.015-.047-.083-.106-.202a11.993 11.993 0 0 1-.299-.609c-.036-.075-.057-.125-.068-.143l.082-.05a.4.4 0 0 1 .137-.052l.13.027.107.116.034.162-.045.134a.392.392 0 0 1-.147.1l.004.031.082.033c.066.03.144.08.241.14l.34.216.047.038.136-.07c.039-.022.106-.05.197-.094l-.037-.074-.058.02-.04-.004-.132-.065-.101-.056-.236-.139-.02-.01-.056-.036-.09-.056a.504.504 0 0 0 .135-.235.367.367 0 0 0-.03-.226.287.287 0 0 0-.124-.128l-.156-.022Zm-8.223.33-.03.08.111.05.02.02v.022a.82.82 0 0 1-.043.15c-.012.035-.04.113-.087.234l-.145.38a2.05 2.05 0 0 1-.085.2l-.038.085-.016.008h-.027a.668.668 0 0 1-.113-.032l-.03.077c.078.028.165.058.264.095.113.042.22.085.315.128l.03-.082a2.773 2.773 0 0 1-.106-.047l-.023-.02-.004-.025a.508.508 0 0 1 .038-.126l.06-.167.138-.368c.006-.012.038-.09.095-.24l.038-.089.031-.058.015-.01h.03c.01 0 .05.012.112.034l.03-.08c-.101-.033-.205-.072-.318-.112-.1-.041-.186-.075-.262-.108Zm7.257.097-.033.005-.139.04-.185.067c-.104.037-.198.068-.282.097l-.123.039-.216.063.025.08a.52.52 0 0 1 .14-.025l.018.009c.011.013.03.054.055.124l.064.178.134.42a4.185 4.185 0 0 1 .103.361l-.074.084.017.05c.19-.065.293-.103.307-.107.056-.018.16-.049.304-.097l.152-.044c.056-.02.111-.04.166-.063l.007-.017a3.075 3.075 0 0 1-.076-.306l-.078.022c.014.086.02.147.02.18l-.006.018-.098.056c-.055.023-.115.043-.183.067-.068.022-.13.04-.18.055l-.04-.116-.13-.392a1.79 1.79 0 0 1 .314-.097l.05.011c.014.011.035.055.056.128l.08-.027-.07-.2-.064-.206-.075.023a.446.446 0 0 1 .024.123l-.004.022-.058.027-.152.054-.134.041-.062-.192a1.893 1.893 0 0 1-.075-.272c.058-.02.111-.042.168-.06a.915.915 0 0 1 .182-.048l.079-.008.017.011a.82.82 0 0 1 .053.133l.073-.025c-.02-.083-.034-.124-.036-.137l-.025-.137-.01-.012Zm-6.6.142-.011.007-.016.092a5.938 5.938 0 0 0-.059.218l.078.021.057-.141.021-.028h.04c.05.015.112.027.178.047l.133.038c-.003.02-.027.106-.073.257l-.164.562a1.453 1.453 0 0 1-.079.24l-.04.03a.548.548 0 0 1-.137-.024l-.023.076a4.675 4.675 0 0 1 .614.179l.022-.079a.468.468 0 0 1-.13-.052l-.017-.045c.002-.032.02-.112.06-.246l.165-.562a4.64 4.64 0 0 1 .077-.257l.132.04c.073.023.134.041.184.06l.03.016v.045l-.028.14.076.025.063-.207.04-.095-.007-.011-.089-.018c-.054-.015-.16-.046-.318-.089l-.378-.112a10.131 10.131 0 0 1-.31-.093l-.09-.034Zm5.27.243a1.13 1.13 0 0 0-.201.018 1.037 1.037 0 0 0-.185.059.522.522 0 0 0-.153.105.442.442 0 0 0-.1.37l.054.136.099.1a.293.293 0 0 0 .145.047c.04.003.117.006.238.01a.6.6 0 0 1 .178.02l.086.055.041.1-.008.134-.084.108a.409.409 0 0 1-.157.064.4.4 0 0 1-.201-.008.306.306 0 0 1-.146-.08 1.062 1.062 0 0 1-.044-.17l-.077.015c.025.15.037.261.03.34.082.02.154.033.219.036a1.05 1.05 0 0 0 .214-.017.83.83 0 0 0 .267-.1l.123-.116.081-.146a.45.45 0 0 0 .01-.228l-.045-.12-.06-.086-.092-.05-.136-.022h-.132c-.07 0-.121.003-.16 0l-.12-.02-.07-.05-.04-.101a.204.204 0 0 1 .042-.167c.04-.054.101-.088.19-.104a.392.392 0 0 1 .169 0l.117.056c.014.027.026.08.044.155l.077-.016c-.011-.065-.016-.12-.021-.159l-.004-.127-.013-.02a.59.59 0 0 0-.175-.02Zm-3.628.11-.12.206-.356.576c-.066.11-.113.184-.135.221l-.089.136-.027.026-.03.009-.093-.008-.014.082.224.03.221.044.012-.08a.456.456 0 0 1-.135-.038l-.01-.038a.728.728 0 0 1 .076-.155l.062-.11.495.08.049.227.007.083-.02.025a.734.734 0 0 1-.132-.008l-.014.08.34.05.265.051.015-.082-.043-.012-.055-.016-.018-.013-.015-.03-.022-.094-.039-.14-.262-1.077-.137-.024Zm1.396.113a.789.789 0 0 0-.196.018.569.569 0 0 0-.17.071.358.358 0 0 0-.122.141.44.44 0 0 0-.048.2l.023.147.076.116a.28.28 0 0 0 .134.076l.23.06a.67.67 0 0 1 .173.052l.07.071.02.109-.033.13-.105.089a.378.378 0 0 1-.167.03.407.407 0 0 1-.196-.05.28.28 0 0 1-.124-.107 1.373 1.373 0 0 1-.01-.176h-.081a1.419 1.419 0 0 1-.036.338.865.865 0 0 0 .418.106.735.735 0 0 0 .28-.045l.145-.088.11-.127a.441.441 0 0 0 .055-.22l-.016-.126-.049-.097-.074-.066-.13-.051c-.018-.006-.063-.012-.13-.024-.064-.014-.12-.024-.156-.034l-.113-.044-.057-.064-.02-.106c0-.06.025-.111.076-.155a.29.29 0 0 1 .206-.064.408.408 0 0 1 .165.035l.106.077c.004.033.007.085.007.16l.081.004.011-.163.022-.122-.008-.024a.652.652 0 0 0-.165-.059 1.321 1.321 0 0 0-.202-.018Zm-1.467.22.123.533c-.06-.01-.125-.017-.198-.032a20.357 20.357 0 0 1-.205-.035l.28-.465Z"/>
  </g>
  <defs>
    <clipPath id="a">
      <path fill="#fff" d="M0 0h24v24H0z"/>
    </clipPath>
  </defs>
</svg>
