<svg xmlns="http://www.w3.org/2000/svg" width="24" height="24" fill="none" viewBox="0 0 24 24">
  <g clip-path="url(#a)">
    <path fill="#0A2C83" fill-rule="evenodd" d="M0 12c0 6.617 5.383 12 12 12s12-5.383 12-12S18.617 0 12 0 0 5.383 0 12Z" clip-rule="evenodd"/>
    <path fill="#fff" fill-rule="evenodd" d="M2.877 12c0 5.03 4.092 9.123 9.123 9.123 5.03 0 9.123-4.093 9.123-9.123 0-5.03-4.093-9.123-9.123-9.123-5.03 0-9.123 4.092-9.123 9.123Z" clip-rule="evenodd"/>
    <path fill="#1F5FA9" fill-rule="evenodd" d="m5.912 14.505-.334.577.462.26.665-.384-.793-.453Zm.212 1.522h.666l.005-.913-.665.384-.006.53Zm11.735-8.036-.667.001-.004.914.665-.384.006-.53Zm.212 1.523.334-.578-.462-.259-.664.385.792.452Zm-.793 5.434.666.385.46-.26-.333-.577-.793.452Zm-.09.156.004.914h.667l-.006-.53-.665-.384ZM6.705 9.052l-.665-.384-.462.26.334.577.793-.453Zm.09-.156-.005-.913h-.666l.006.529.665.384Zm5.75-3.991-.455.27v.768l.788-.46-.333-.578Zm-.635.27-.456-.27-.333.578.789.46v-.768Zm0 1.164-.959-.57-.33.573 1.289.764V6.34Zm1.137-.57-.957.57v.766l1.288-.763-.331-.573Zm-.957 13.048.455.269.333-.578-.788-.46v.769Zm-.636.269.456-.27v-.768l-.79.46.334.578Zm.83-14.649c0 .232-.127.42-.284.42-.157 0-.284-.188-.284-.42 0-.232.127-.42.284-.42.157 0 .284.188.284.42Zm0 15.126c0 .232-.127.42-.284.42-.157 0-.284-.188-.284-.42 0-.232.127-.42.284-.42.157 0 .284.188.284.42Zm6.408-11.098c-.201.116-.427.1-.506-.036-.079-.137.02-.341.221-.457.201-.116.428-.1.507.036.078.137-.021.341-.222.457Zm-13.1 7.563c-.2.116-.427.1-.506-.036-.078-.137.021-.34.222-.457.2-.116.428-.1.506.037.078.136-.02.34-.221.456Zm0-8.056c.201.116.3.32.222.457-.079.135-.305.152-.506.036-.202-.116-.3-.32-.222-.457.08-.136.305-.152.506-.036Zm13.1 7.563c.2.116.3.32.222.457-.08.136-.306.152-.507.036-.201-.116-.3-.32-.22-.456.078-.136.304-.153.505-.037Zm-2.538-1.493 1.252-.706-.328-.573-1.256.708.332.571Zm-.974.528.015 1.454.662-.003-.016-1.451h-.661Zm-7.003-1.081-1.272-.717-.328.574 1.27.715.33-.572Zm-.035 1.08-.015 1.461.66.003.016-1.463h-.66Zm8.056-6.581-.016 1.439h.104l.56-.324.013-1.114h-.66Zm.738 1.27-.586.339-.039.068 1.266.712.33-.573-.97-.545Zm.641 4.375-1.252.704.054.093.557.32.972-.544-.33-.573Zm-.731 1.274-.583-.337h-.081l.016 1.451h.661l-.013-1.114Zm-4.983 2.006-1.243.736.331.573.959-.57v-.657l-.047-.082Zm.227.08v.66l.957.569.331-.573-1.242-.736-.046.08ZM7.737 14.57l-.6.347-.014 1.114h.661l.017-1.461h-.064Zm-.06-.214-1.271-.714-.33.573.972.546.592-.343.036-.062ZM7.65 9.598l-.604-.349-.972.545.33.574L7.68 9.65l-.03-.052Zm.15-.171-.017-1.448h-.66l.013 1.114.577.334H7.8Zm3.563 6.617-1.247.738.332.571 1.244-.735-.329-.574Zm.943.574 1.242.735.333-.57-1.242-.736-.333.571Zm3.834-6.657-.329.572 1.266.713.328-.573-1.265-.712Zm-.3-.534.015-1.438-.66-.003-.016 1.44h.66ZM12.63 7.95l1.252-.74-.333-.572-1.25.74.33.572Zm-.93-.572-1.25-.74-.333.571 1.253.741.33-.572ZM7.852 9.946l-1.275.718.328.573 1.276-.719-.33-.572Zm.95-.52-.014-1.45-.66.003.014 1.448h.66Zm6.515 3.179.333.571 1.258-.709-.228-.394h-.421l-.942.532ZM14.034 8.27l.23-.4-.211-.368-1.253.742.321.554.913-.528Zm.147 1.156h.659l.015-1.442h-.456l-.218.377v1.065Zm1.461 1.402-.315.548.906.523h.468l.207-.358-1.266-.713Zm-1.46 3.74v1.035l.24.417.433.004-.016-1.455h-.658Zm-1.04.615-.33.569 1.24.735.221-.378-.235-.408-.896-.518Zm-3.204.515-.225.389.233.4 1.249-.74-.334-.58-.923.531Zm-.15-1.13h-.644l-.016 1.465h.417l.244-.422V14.57Zm-2.043-2.496h-.44l-.23.404 1.272.717.336-.58-.938-.54Zm.924-.707-.318-.552-1.277.718.213.368h.46l.922-.534Zm1.513-2.953.692.398.325-.566-1.253-.742-.225.392.215.373.246.145ZM9.79 9.427v-1.07l-.22-.38-.44-.001.015 1.45h.645Zm.26-.292a.31.31 0 0 1 .226-.013l.355.112.157-.274-.826-.474v.724a.236.236 0 0 1 .089-.075Zm3.606.032.099.007s.146.006.254.11v-.798l-.8.462.126.219h.32Zm-3.397 5.793a.662.662 0 0 1-.098.006l-.029-.001a.275.275 0 0 1-.149-.067l-.02-.024v.612l.813-.469-.078-.136c-.162.04-.314.066-.44.079Zm3.588.005s-.02.007-.03.006c-.014 0-.028 0-.041-.002-.027-.002-.055-.004-.075-.008a2.906 2.906 0 0 1-.307-.05l-.08-.02-.083.14.779.452v-.632a.26.26 0 0 1-.163.114Z" clip-rule="evenodd"/>
    <path fill="#0A2C83" fill-rule="evenodd" d="M12.976 14.792a2.396 2.396 0 0 1-.353-.163 1.932 1.932 0 0 1-.197-.13l-.011-.008a1.69 1.69 0 0 1-.433-.48 1.625 1.625 0 0 1-.448.49l-.005.005a2.025 2.025 0 0 1-.21.134l-.062.034-.068.034a2.74 2.74 0 0 1-.32.124l1.13 1.97 1.13-1.96a2.758 2.758 0 0 1-.153-.05Z" clip-rule="evenodd"/>
    <path fill="#1F5FA9" fill-rule="evenodd" d="m15.228 12.452.811-.465-.798-.46-.275.477.262.448Zm-6.473-.935-.813.47.827.477.266-.46-.28-.487Z" clip-rule="evenodd"/>
    <path fill="#0A2C83" fill-rule="evenodd" d="M16.147 9.6h-2.022v.025c-.004.262-.018.274-.047.489a4.91 4.91 0 0 1-.07.393l-.004.012a3.496 3.496 0 0 1-.224.687c.105.16.23.326.382.49a.217.217 0 0 1 .076.164.215.215 0 0 1-.067.155l-.006.007a.253.253 0 0 1-.331.003l-.003.002s-.138-.135-.312-.358c-.165.23-.298.322-.298.322l-.004-.002a.25.25 0 0 1-.164.06.24.24 0 0 1-.227-.153.244.244 0 0 1-.203.103.253.253 0 0 1-.144-.044l-.003-.003a.219.219 0 0 1-.06-.064c-.097-.126-.27-.452-.209-1.144v-.005a.198.198 0 0 1 .032-.084.239.239 0 0 1 .205-.11.242.242 0 0 1 .206.11.208.208 0 0 1 .032.112.186.186 0 0 1-.006.045c-.004.05-.04.494.153.855a.214.214 0 0 1 .02.04.256.256 0 0 1 .048-.054c.123-.128.231-.269.323-.42a3.193 3.193 0 0 1-.324-.714c-.001-.004-.001-.008-.004-.012a2.397 2.397 0 0 1-.054-.23l-.002-.014a1.752 1.752 0 0 1-.028-.266v-.01c0-.121.107-.22.239-.22.125 0 .227.089.237.203a2.249 2.249 0 0 0 .065.293c0 .005.003.01.003.014.02.068.044.145.076.23l.005.012c.014.04.031.082.05.124l.036-.124.003-.012c.02-.08.037-.156.052-.23v-.014c.01-.051.018-.1.025-.15a2.14 2.14 0 0 0 .03-.393c-.017-.104-.103-.095-.103-.095h-.505l-.031.002a.23.23 0 0 1-.228-.227c0-.03 0-.066.007-.093a.189.189 0 0 1 .186-.143l.044.003h.134l-1.135-1.96-1.2 2.084c.11.057.167.172.127.274-.043.117-.194.175-.334.129l-.297-.093H7.853l1.383 2.403-1.383 2.392h2.549a2.22 2.22 0 0 0 .261-.066c.228-.073.485-.172.669-.36.043-.045.083-.085.12-.138l.008-.013a1.08 1.08 0 0 0 .114-.223l.005-.013a1.35 1.35 0 0 0 .054-.215h-1.38c-.155 0-.28-.117-.28-.26v-.024c0-.142.125-.26.28-.26h1.434v-.338c0-.142.132-.26.293-.26h.027c.162 0 .294.118.294.26v.339h1.424c.154 0 .28.117.28.26v.023c0 .143-.126.26-.28.26h-1.394a1.168 1.168 0 0 0 .054.215 1.152 1.152 0 0 0 .127.248.812.812 0 0 0 .12.145c.227.207.47.295.731.37l.173.05h2.611l-1.38-2.392 1.38-2.403Zm-6.267.33a.208.208 0 0 1 .087-.103.3.3 0 0 1 .248-.026l.551.178c.08.026.139.08.168.142.022.047.024.1.008.149l-.001.002c0 .005-.003.008-.003.012-.05.109-.195.161-.331.117l-.365-.117-.04-.014-.147-.047a.284.284 0 0 1-.162-.13.199.199 0 0 1-.013-.163Zm.897.894c.028.6-.487 1.13-.524 1.168a.258.258 0 0 1-.193.085.255.255 0 0 1-.134-.037.232.232 0 0 1-.104-.122v-.002a.224.224 0 0 1 .075-.242l.015-.014c.396-.405.375-.89.375-.89h.006a.2.2 0 0 1 .056-.114.26.26 0 0 1 .187-.078.26.26 0 0 1 .188.078.201.201 0 0 1 .053.168Zm.46 1.065a.205.205 0 0 1-.063.067.256.256 0 0 1-.143.044c-.132 0-.24-.099-.24-.22a.22.22 0 0 1 .034-.112c.194-.361.157-.804.152-.855a.207.207 0 0 1 .028-.157.24.24 0 0 1 .205-.11.24.24 0 0 1 .205.11.204.204 0 0 1 .031.085l.001.003c.06.693-.111 1.02-.21 1.145Zm.878-1.381v1.362c0 .147-.13.268-.29.268h-.004c-.16 0-.29-.121-.29-.268v-1.521h-.206a.333.333 0 0 1-.226-.085.197.197 0 0 1-.064-.142v-.007c.005-.12.134-.219.29-.219h.206v-.731a.25.25 0 0 1 .054-.155.295.295 0 0 1 .236-.113h.004c.16 0 .29.121.29.268v.077h.279c.158 0 .29.1.29.226 0 .124-.132.226-.29.226h-.28v.202h.302c.156 0 .284.098.288.219l.001.007a.198.198 0 0 1-.064.142l-.016.014a.324.324 0 0 1-.21.07h-.3v.16Z" clip-rule="evenodd"/>
    <path fill="#fff" fill-rule="evenodd" d="m5.225 20.027-1.108-1.313-.139.117.472.56-.11.093-.43-.51-.139.118.855 1.014-.294.248.18.214.434-.366-.426-.505.11-.093.468.554.139-.117-.012-.014Zm-.007-.963-.15-.177-.01.002c-.314.056-.605-.232-.686-.322l-.011-.012-.016.01-.124.104.012.014c.313.354.56.448.717.462-.012.157.038.416.335.785l.01.014.14-.117-.012-.017c-.096-.122-.307-.438-.202-.728l.003-.01-.006-.008Zm2.684 1.847-.207-.132-.076.12-.29-.184.06-.093-.826-.523-.37.583.826.523.058-.092.29.183-.118.185a.876.876 0 0 0-.264-.255c-.29-.183-.62-.183-.737 0-.117.184.025.483.314.667.29.183.62.184.737.002l.619-.975-.016-.01Zm-.836-.276a43.47 43.47 0 0 1-.173.273c-.027-.017-.35-.222-.376-.24l.173-.271.376.238Zm.457.415c-.014.02-.047.074-.06.095l-.29-.184c.014-.02.048-.073.06-.094l.29.183Zm-1.038.327c.06-.095.24-.09.398.01.16.1.24.26.18.356-.06.095-.24.09-.398-.01-.16-.102-.24-.261-.18-.356Zm1.983.483c-.065.252.116.518.403.591a.562.562 0 0 0 .478-.087l.374.096-.186.725.262.067.368-1.432-.26-.068-.049.185-.377-.098a.561.561 0 0 0-.374-.302c-.287-.074-.574.07-.639.323Zm.264.068a.272.272 0 0 1 .326-.202.272.272 0 0 1 .188.334.272.272 0 0 1-.326.202.272.272 0 0 1-.188-.334Zm1.082.183-.046.175-.292-.075c.013-.028.027-.055.034-.083a.39.39 0 0 0 .01-.092l.294.075Zm4.522-.504-.596.159-.171.045.229.864.784-.208-.046-.174-.52.139-.137-.517.52-.138-.046-.174-.017.004Zm.747-.24-.245.066.092.345-.1.027-.092-.345-.262.07.38 1.43.261-.07-.242-.91.1-.028.243.911.262-.069-.38-1.43-.017.004Zm-3.052.635h-.96v.18h.347c-.043.421-.277.514-.377.533l-.014.003v.184l.019-.002a.642.642 0 0 0 .505-.326c.11.19.28.301.51.326l.019.003v-.184l-.014-.003c-.102-.018-.34-.108-.383-.533h.365v-.18h-.017Zm.524-.036h-.25v1.478h.267v-.943h.202v-.18h-.202v-.355h-.017Zm4.697-1.814-.208.137.44.665.222-.147-.175-.265.162-.107-.102-.155-.162.107-.162-.245-.015.01Zm.489.749-1.151.761.102.155.94-.62.22.332.226-.15-.323-.487-.014.009Zm-1.243-.285-.21.14.067.1-.367.242.095.143.104-.07a.281.281 0 0 0 .037.205c.11.166.4.17.646.008.245-.163.356-.43.245-.597a.28.28 0 0 0-.174-.114l.095-.061-.095-.143-.361.238-.067-.1-.015.009Zm-.048.604c-.056-.085-.007-.217.11-.293.115-.078.256-.07.312.014.056.086.008.218-.109.294-.116.077-.256.07-.313-.015Zm2.84-2.705-.972.955.127.129.788-.776.584.593.195-.19-.71-.723-.012.012Z" clip-rule="evenodd"/>
    <path fill="#fff" fill-rule="evenodd" d="m19.259 19.208-.182.18.454.461-.142.14-.454-.462-.195.192.454.461-.192.19.126.128 1.176-1.157-.126-.128-.453.444-.453-.461-.013.012ZM2.597 16.96c.03.272-.108.303-.114.304-.135.046-.211-.107-.215-.113-.073-.146-.014-.255-.013-.257l.001-.003-.018-.037-.227.115.007.008a.478.478 0 0 1 .063.162c.073.274.295.332.297.333.176.052.327-.096.329-.097.134-.142.104-.388.103-.398-.017-.225.109-.28.11-.28.19-.095.3.104.304.112.082.162 0 .308 0 .31l-.004.006.022.013c.007 0 .2-.114.2-.114.035-.102-.067-.306-.07-.315-.08-.136-.176-.22-.289-.246a.383.383 0 0 0-.28.047c-.245.124-.207.447-.206.45Zm-1.212-1.365c.126.392.461.564.854.438.38-.122.56-.473.439-.853-.126-.392-.461-.564-.854-.438-.393.126-.565.461-.439.853Zm.508-.636c.276-.088.535.028.614.276.085.266-.041.482-.339.578-.289.093-.53-.015-.612-.273a.433.433 0 0 1 .019-.337.517.517 0 0 1 .318-.244Zm-.95-1.168c.062.407.366.63.774.567.395-.06.628-.379.568-.773-.063-.407-.367-.63-.774-.567-.408.063-.63.366-.568.773Zm.602-.549c.287-.042.523.113.563.37.042.277-.117.47-.426.517-.3.046-.52-.097-.562-.365a.436.436 0 0 1 .072-.33.52.52 0 0 1 .353-.191Zm.442-1.822-.549.512-.466-.492a.308.308 0 0 1-.073-.144v-.007H.86v.008l-.001.418h.04l.002-.006c.005-.016.013-.026.022-.028a.02.02 0 0 1 .005-.001c.014 0 .03.013.036.018l.403.422H1c-.078-.001-.101-.073-.102-.076l-.002-.006H.858l-.001.396h.04v-.007c0-.078.097-.083.101-.084l1.008.003a.102.102 0 0 1 .108.085v.007h.04l.002-.396h-.04v.005c-.02.072-.106.075-.11.075l-.465-.001.483-.446c.12-.104.133-.174.133-.177l.001-.25h-.056l-.001.006a.56.56 0 0 1-.114.166Zm.314-2.193-1.215.043-.001.006-.005.026c.002.007.765.549.874.626l-1.042.243-.012.033v.006l1.108.488c.1.044.104.107.104.11v.006l.033.006.068-.345-.031-.006-.003.005c-.021.044-.061.044-.084.04a.08.08 0 0 1-.018-.006l-.65-.266.912-.22.012-.035c-.003-.007-.648-.46-.765-.542h.69l.036.003c.021.005.037.013.045.024a.044.044 0 0 1 .007.036l-.002.008.04.008.07-.354-.031-.007c-.058.064-.14.064-.14.064Zm-.629-1.471.027.01.004-.004s.014-.017.034-.019a.04.04 0 0 1 .019.003.07.07 0 0 1 .022.015l.284.364-.455.063s-.03.001-.045-.016l-.01-.036-.004-.004-.022-.009-.14.353.028.01.003-.005c0-.001.026-.048.173-.073l.6-.098.435.175a.091.091 0 0 1 .04.106l-.002.007.04.016.15-.374-.04-.016-.003.005s-.053.07-.11.048l-.433-.173-.36-.491c-.001-.002-.083-.098-.075-.173v-.006l-.027-.01-.003.006-.13.326Zm.796-1.526.025.015.004-.003c.072-.058.147-.008.15-.006l.609.354c.07.04.113.094.13.158a.326.326 0 0 1-.04.222.325.325 0 0 1-.173.144.255.255 0 0 1-.201-.034l-.608-.354c-.004-.003-.084-.044-.07-.134l.001-.005-.026-.015-.196.337.026.015.005-.004c.002-.002.064-.059.164 0l.621.361c.004.002.365.203.611-.22.087-.15.114-.286.078-.407a.408.408 0 0 0-.188-.235l-.62-.362c-.1-.058-.082-.14-.081-.143l.001-.006-.026-.015-.004.006-.192.331Zm1.114-1.59.005-.007c.046-.057.12-.013.122-.011l.566.46-1.238.064-.02.021-.005.006.874.712c.133.108.083.176.08.18l-.004.005.033.026.24-.294-.033-.027-.005.007a.058.058 0 0 1-.043.022c-.046.004-.1-.036-.114-.048l-.529-.431 1.236-.063.02-.022.005-.006-.915-.745c-.087-.07-.04-.14-.037-.142l.004-.006-.026-.021-.243.298.027.021Zm1.736-.864.005-.005c.003-.001.055-.038.132.022l.21.245c-.003-.002-.04.12-.197.234-.003.002-.305.21-.61-.093a.566.566 0 0 1-.155-.36.477.477 0 0 1 .162-.34.527.527 0 0 1 .32-.126l.017-.013.006-.005-.163-.19-.005.009s-.034.051-.144.104a.728.728 0 0 0-.383.451c-.001.003-.086.31.18.62a.651.651 0 0 0 .887.082c.002-.002.24-.184.324-.414l-.38-.448-.23.198.024.029Zm12.047-.968c-.156-.223-.05-.316-.046-.32.097-.104.236-.007.242-.003a.285.285 0 0 1 .134.216v.004l.034.023.143-.208-.01-.003a.464.464 0 0 1-.132-.112.452.452 0 0 0-.419-.148c-.178.039-.24.24-.24.242-.05.188.095.388.101.396.122.188.039.295.038.296-.12.174-.31.054-.319.048-.148-.102-.148-.268-.148-.27v-.007h-.024c-.007.003-.121.194-.121.194.019.106.205.235.213.24.134.082.258.108.369.078a.38.38 0 0 0 .22-.175c.155-.225-.033-.489-.035-.491ZM9.231 1.157c-.386.129-.553.462-.424.85.125.374.474.55.849.424.386-.128.553-.462.424-.849-.13-.387-.463-.554-.849-.425Zm.635.496c.09.272-.023.529-.267.61-.262.087-.477-.036-.575-.33-.095-.284.008-.522.263-.608a.428.428 0 0 1 .334.016.511.511 0 0 1 .245.312Zm2.27.288L11.783.78h-.006l-.027.002c-.006.005-.334.88-.38 1.006l-.502-.945-.035-.003h-.006l-.188 1.197c-.016.109-.076.128-.08.129l-.004.002.002.032.35-.022-.002-.032-.005-.002c-.048-.009-.058-.047-.06-.07v-.019l.091-.697.446.826.038.002c.006-.005.278-.744.328-.878l.176.667a.175.175 0 0 1 .006.036.071.071 0 0 1-.011.049c-.013.016-.032.016-.033.016h-.008l.002.04.36-.022-.002-.033a.205.205 0 0 1-.097-.119Zm3.023-.621.008.001c.072.02.061.106.06.11l-.197.708-.558-1.118-.029-.01-.007-.002-.304 1.094c-.047.167-.13.148-.133.147l-.008-.002-.011.04.369.104.011-.041-.007-.003a.057.057 0 0 1-.039-.03c-.022-.04-.006-.106 0-.125l.184-.662.557 1.116.028.01.007.002.319-1.145c.03-.11.113-.093.117-.092l.007.001.009-.032-.373-.104-.01.033Zm-7.098.182-.019-.033-.297.171.017.028.006-.002s.025-.01.047 0c.01.006.018.013.024.024a.11.11 0 0 1 .01.027l.135.75-.713-.591-.005.003-.027.015.152.916-.566-.476s-.025-.018-.038-.041a.055.055 0 0 1-.009-.028c0-.015.01-.028.027-.04l.006-.004-.017-.029-.32.186.016.028.007-.003s.044-.023.175.088l.936.777.04-.023-.15-.92.714.593.034-.019-.208-1.238c-.007-.037-.017-.135.017-.155l.006-.004Zm5.29.515-.293-.028c-.003 0-.058-.006-.053-.057l.035-.373.288.027s.102.018.118.099l.001.005.041.004.032-.349-.034-.003c-.01.008-.052.09-.151.08l-.28-.026.032-.347.357.034a.1.1 0 0 1 .084.08l.001.006.035.003.024-.253h-.008l-.781-.074-.003.032.007.002s.082.021.065.195l-.08.85c0 .003-.006.156-.1.165l-.006.001-.003.036.779.073.06-.258-.032-.002c-.01.007-.05.086-.134.078Zm2.868-.294-.174.505.121.048.225-.486-.008-.003-.164-.064Zm6.412 11.315c.098-.256.235-.22.24-.218.143.021.14.193.139.2-.002.163-.104.233-.105.234l-.003.002-.001.041.255.003-.003-.01c-.015-.054.018-.172.018-.174a.454.454 0 0 0-.11-.432c-.133-.128-.335-.066-.337-.065-.186.064-.271.296-.275.306-.089.208-.226.198-.227.198-.213-.002-.218-.23-.219-.24.002-.181.142-.274.143-.275l.007-.004-.014-.021a4.162 4.162 0 0 0-.23.008c-.079.075-.082.304-.082.313.007.159.054.277.142.352a.384.384 0 0 0 .27.087c.275.003.39-.302.392-.305Zm-2.727-8.85-.022.02.002.005c.034.085-.035.144-.039.146l-.52.484a.258.258 0 0 1-.19.078.33.33 0 0 1-.292-.313.258.258 0 0 1 .092-.183l.521-.483c.003-.003.067-.069.15-.028l.004.003.022-.021-.267-.288-.023.02.003.005c.001.003.038.08-.048.16l-.532.492c-.003.003-.302.293.034.656.118.127.242.193.37.194.167.002.277-.108.282-.112l.531-.493c.085-.08.159-.038.162-.036l.005.003.023-.02-.006-.007-.262-.283Zm1.274 1.44.005.006c.043.06-.018.12-.02.122l-.599.429.267-1.22-.016-.026-.004-.007-.924.662c-.14.1-.196.035-.199.033l-.005-.007-.03.023.222.311.032-.023-.005-.006a.058.058 0 0 1-.01-.047c.008-.046.064-.089.08-.1l.559-.4-.266 1.217.015.026.005.007.967-.692c.092-.067.146-.002.148 0l.005.007.027-.02-.226-.315-.028.02Zm.685 4.351-.073-.284c0-.002-.013-.056.037-.068l.36-.092.072.278c0 .001.018.102-.053.144l-.005.004.01.038.338-.086-.008-.033c-.01-.007-.102-.019-.126-.115l-.069-.27.336-.088.088.347c0 .003.015.064-.048.106l-.004.002.008.034.246-.062-.002-.008-.193-.757-.032.008.002.007s.007.084-.161.127l-.825.21c-.002 0-.148.045-.188-.039l-.003-.005-.034.008.192.755.261-.029-.007-.031c-.01-.007-.098-.02-.119-.1Zm-.162-3.536-.029.017.003.006c.002.003.034.075-.084.142l-.79.45c-.001.002-.108.07-.183.009l-.022.007-.007.004.196.344.027-.015-.003-.007c-.001-.003-.028-.08.1-.152l.8-.457c.001 0 .065-.038.114-.026a.066.066 0 0 1 .041.032l.004.007.03-.017-.004-.007-.193-.337Zm1.23 7.801-.033-.008-.002.007c-.001.003-.026.078-.158.047l-.886-.206c-.001 0-.126-.022-.14-.118l-.021-.01-.008-.002-.09.385.03.008.003-.007c.001-.003.034-.077.177-.044l.898.209s.073.015.1.058c.01.015.013.032.009.051l-.002.008.033.008.002-.008.087-.378Zm-.432-5.99-.032.012.002.007s.007.023-.005.039a.036.036 0 0 1-.018.012.087.087 0 0 1-.032.005l-.88-.052.617-.563a.183.183 0 0 1 .054-.033.057.057 0 0 1 .033-.004c.013.004.023.014.029.033l.003.007.032-.012-.132-.366-.032.011.003.008s.017.048-.112.17l-.899.868.01.04c.007.006 1.36.108 1.36.108s.071.013.085.052l.003.007.032-.011-.003-.007-.118-.33Zm-.513 3.552.49-.392c.016.05.104.272.351.254h.006a.373.373 0 0 0 .24-.114c.067-.074.096-.178.086-.308l-.04-.542v-.007l-.035.002.002.009a.06.06 0 0 1-.013.044c-.02.027-.063.043-.123.048l-.918.066c-.001 0-.135.016-.157-.067l-.002-.007-.03.003.028.392.03-.002.001-.007c0-.003.012-.08.128-.088l.941-.068c-.001 0 .03.024.037.119 0 .002.018.234-.143.29 0 0-.11.035-.19-.016a.246.246 0 0 1-.098-.19l-.01-.126-.033.002-.56.425c-.002.003-.073.062-.086.12l.012.168c0 .006.006.052.025.069h.035l-.005-.011c0-.001-.013-.028.03-.066Zm.416 4.298.002-.006.276-.789-.08-.05-.152-.053-.007.021c.002.009.066.087.04.161l-.057.164-.874-.305-.006-.002c-.025-.01-.117-.047-.12-.131l-.02-.012-.008-.003-.13.374.028.01.004-.006c.001-.003.042-.074.18-.025l.874.306-.056.16c-.026.075-.126.096-.126.096l-.01.019-.004.007.15.053.09.01h.006Zm-.743 1.631.15-.317-.03-.014-.005.006c-.006.01-.014.015-.023.015a.038.038 0 0 1-.016-.004.146.146 0 0 1-.046-.043l-.25-.356.483-.044a.052.052 0 0 1 .026.003.017.017 0 0 1 .008.008c.009.013 0 .038-.005.047l-.004.007.031.015.163-.345-.031-.015-.003.008c-.021.044-.087.052-.088.053l-.7.065-.353-.168c-.001 0-.118-.048-.112-.145l-.019-.014-.007-.003-.168.357.027.014.004-.006c.002-.003.05-.069.183-.006l.356.169.364.557c.055.082.034.142.034.142l-.003.007.03.014.004-.007Z" clip-rule="evenodd"/>
  </g>
  <defs>
    <clipPath id="a">
      <path fill="#fff" d="M0 0h24v24H0z"/>
    </clipPath>
  </defs>
</svg>
