<svg xmlns="http://www.w3.org/2000/svg" width="24" height="24" fill="none" viewBox="0 0 24 24">
  <g clip-path="url(#a)">
    <path fill="#5C5A5A" d="M8.785 0 3.216 3.214 0 8.782v6.432l3.217 5.569L8.786 24h6.43l5.569-3.217L24 15.215V8.783l-3.215-5.57-.01-.006L15.214 0h-6.43Z"/>
    <path fill="#fff" d="M8.811.097h6.379l5.524 3.188 3.189 5.523v6.38l-3.19 5.524-5.523 3.19H8.812l-5.524-3.19-3.19-5.523v-6.38l3.19-5.524L8.81.097Z"/>
    <path fill="#231815" d="m16.23 19.596.15.198 1.147-.876.733.957.25-.194-.881-1.155-1.4 1.07Z"/>
    <path fill="#231815" d="m17.276 21.206 1.66-1.27-.152-.2-.643.495-.506-.66-.248.191.505.658-.216.168-.505-.662-.248.19.506.659-.305.232.152.198Zm-1.971-1.176.351 1.035.3-.103-.165-.487.3-.102-.08-.237-.301.104-.105-.311-.3.101Zm.953 1.813-.27-.789-1.757.6.08.236 1.457-.499.189.555.3-.103Zm-2.316-.758a.432.432 0 0 0 .297.281.688.688 0 0 0 .452-.011.66.66 0 0 0 .357-.265.428.428 0 0 0 .06-.4.27.27 0 0 0-.069-.115.384.384 0 0 0-.108-.08l.237-.08-.077-.229-.565.194-.062-.182-.323.108.063.184-.574.196.077.225.26-.087a.364.364 0 0 0-.043.13.334.334 0 0 0 .018.131Zm.327-.29a.337.337 0 0 1 .178-.135.33.33 0 0 1 .313.05.222.222 0 0 1 .057.088.217.217 0 0 1-.035.194.32.32 0 0 1-.174.138.326.326 0 0 1-.225-.002.218.218 0 0 1-.143-.134.225.225 0 0 1 .029-.2Zm-1.015 1.868L13.2 20.64l-.3.008.017.645-.269.006-.016-.644-.29.006.05 2.026.293-.01-.029-1.13.268-.005.029 1.133.301-.012Zm-1.802-1.729.65-.017-.006-.25-.967.026.036 1.343a.14.14 0 0 0 .062.123c.044.02.094.03.142.025l.811-.021-.006-.25-.693.018-.029-.997ZM5.947 19.28l.767.573-.123.164c-.292-.166-.649-.169-.8.032-.17.229-.018.629.29.858l.073.055c.307.23.733.26.903.035.148-.2.052-.53-.18-.764l.125-.165.771.577.145-.195-1.824-1.367-.147.197Zm.832 1.507c-.093.128-.343.074-.513-.051-.17-.13-.29-.353-.196-.48.095-.125.343-.073.512.055.169.129.292.35.197.476Zm-.025-1.48c.163.08.345.11.525.09a.884.884 0 0 0 .232.474c.113.14.24.27.38.385l.196-.173a1.831 1.831 0 0 1-.413-.446c-.1-.157-.133-.317-.076-.393l-.263-.197c-.05.07-.219.087-.4.036a1.763 1.763 0 0 1-.545-.264l-.001.002-.105.233c.147.102.304.187.47.254Zm3.572 2.11.252-.857-.302-.09-.255.86.305.088Zm-1.82-.174 1.418.417-.04.14-1.42-.419-.124.429a.175.175 0 0 0 .006.146.21.21 0 0 0 .122.08l1.541.454.069-.232-1.405-.417.043-.143 1.404.415.176-.597-1.72-.51-.07.237Zm.685-.59a.86.86 0 0 0 .226.341c.112.096.238.175.373.235l.131-.223a.866.866 0 0 1-.436-.399.54.54 0 0 1 0-.367l-.328-.097a.542.542 0 0 1-.203.312.882.882 0 0 1-.586.097v.001l-.012.253c.143.021.288.023.432.005a.884.884 0 0 0 .403-.157ZM4.481 5.277a.572.572 0 0 0 .196-.146c.054-.066.057-.116.02-.146-.033-.029-.079-.013-.172.046a.313.313 0 0 1-.379.02c-.123-.101-.133-.287.015-.466a.608.608 0 0 1 .195-.162l.117.165a.491.491 0 0 0-.161.127c-.048.058-.053.105-.021.132.036.028.08.003.188-.057a.293.293 0 0 1 .367-.009c.121.104.147.281-.024.49a.689.689 0 0 1-.216.172l-.125-.166Zm1.37-1.087a.431.431 0 0 1-.64-.057.45.45 0 0 1 .023-.661.434.434 0 0 1 .643.052.441.441 0 0 1-.023.666h-.003Zm-.12-.152c.09-.08.065-.21-.045-.334-.105-.12-.239-.163-.328-.083-.088.08-.062.218.043.336.109.124.24.162.33.082Zm1.365-.764a.432.432 0 0 1-.618-.178.448.448 0 0 1 .144-.644.433.433 0 0 1 .622.168.44.44 0 0 1-.146.651l-.002.003Zm-.09-.174c.101-.06.101-.195.017-.337-.081-.135-.204-.2-.306-.14-.103.059-.103.202-.021.335.084.144.207.205.308.144l.001-.002Zm1.103-.37-.321-.861.272-.102.236.214c.087.08.17.164.246.253l.004-.003a3.671 3.671 0 0 1-.152-.355l-.077-.204.213-.078.32.861-.244.09-.252-.23a3.654 3.654 0 0 1-.261-.26l-.004.003c.05.115.1.242.151.382l.079.212-.21.078Zm2.222-.664a1.169 1.169 0 0 1-.302.112.535.535 0 0 1-.403-.049.446.446 0 0 1-.191-.3c-.059-.313.143-.52.435-.575a.692.692 0 0 1 .27-.006l-.011.2a.573.573 0 0 0-.221.006.247.247 0 0 0-.221.312.25.25 0 0 0 .307.218.287.287 0 0 0 .075-.024l-.03-.154-.121.022-.036-.187.354-.069.095.494Zm.734-.285a.55.55 0 0 0 .244.042c.084-.004.123-.034.12-.082-.002-.043-.045-.067-.15-.097-.158-.045-.266-.125-.276-.26-.01-.162.12-.294.352-.31a.6.6 0 0 1 .25.033l-.04.2a.453.453 0 0 0-.201-.03c-.075.003-.115.03-.113.073.004.047.054.062.172.098.17.05.246.136.255.263.01.158-.105.299-.373.315a.7.7 0 0 1-.273-.037l.033-.208Zm1.623-.7-.033.917-.245-.007.031-.918.247.008Zm.857.068.242.037-.105.704.35.052-.03.205-.593-.091.136-.907Zm2.414.91h-.003l-.192-.003.041-.183.276.004.183.086-.368.804-.216-.1.279-.608Zm1.47.58c.18.128.178.282.117.368a.213.213 0 0 1-.21.084l-.002.003a.232.232 0 0 1 0 .268c-.093.132-.27.142-.45.015-.196-.143-.201-.308-.134-.402a.224.224 0 0 1 .248-.088l.003-.005a.217.217 0 0 1 .011-.227.287.287 0 0 1 .416-.016h.001Zm-.437.61a.096.096 0 0 0 .132-.02.136.136 0 0 0-.021-.167.111.111 0 0 0-.134.038.106.106 0 0 0 .023.146v.003Zm.336-.482a.082.082 0 0 0-.096-.004.08.08 0 0 0-.024.024c-.028.038-.01.093.027.145a.1.1 0 0 0 .11-.032.09.09 0 0 0-.016-.133h-.001Zm.527 1.158c.017.02.032.036.06.063a.375.375 0 0 0 .15.09.226.226 0 0 0 .17-.015l-.001-.005a.227.227 0 0 1-.15-.08.27.27 0 0 1-.066-.305.267.267 0 0 1 .064-.09.33.33 0 0 1 .473.021.347.347 0 0 1-.025.522.521.521 0 0 1-.398.173.572.572 0 0 1-.35-.179.556.556 0 0 1-.06-.063l.133-.132Zm.569-.2c-.039-.041-.105-.035-.159.02a.108.108 0 0 0-.012.16.1.1 0 0 0 .093.034.092.092 0 0 0 .045-.032c.052-.046.09-.125.035-.182h-.002ZM19.71 4.99l-.121.095-.798.162-.16-.209.758-.128.003-.003-.24-.313.16-.121.398.517Z"/>
    <path fill="#009BCB" d="M9.108 17.38H6.78c.028 0 .112-.114.133-.135a1.78 1.78 0 0 0 .364-.607 2.24 2.24 0 0 0-.037-1.667c-.236-.51-.604-.957-.862-1.378-.418-.684-.713-1.452-.65-2.27a2.6 2.6 0 0 1 .626-1.473h2.24c-.634.602-.821 1.448-.595 2.32.123.481.435.932.674 1.299.265.382.5.784.702 1.202a2.794 2.794 0 0 1-.081 2.43c-.022.038-.136.279-.186.279Z"/>
    <path fill="#60C1C3" d="M10.4 15.18h3.862V8.815H9.178c-.383.338-.619 1.014-.45 1.708.132.543.525 1.032.875 1.497.556.738 1.164 1.568.994 2.551a2.01 2.01 0 0 1-.197.61Z"/>
    <path fill="#006694" d="M1.732 8.815v6.365h3.801a1.57 1.57 0 0 0-.007-1.179c-.367-.897-.964-1.382-1.296-2.165-.314-.74-.35-1.418-.078-2.392a5.36 5.36 0 0 1 .267-.63l-2.687.001Z"/>
    <path fill="#009BCB" d="M22.065 8.815h-3.156v5.05c.001.024-.005.147-.011.273-.035.79-.221.949-.418 1.043h3.585V8.815Z"/>
    <path fill="#006694" d="M15.121 9.857v6.31l.003.103a1.044 1.044 0 0 0 2.086.02l.002-.123v-6.31h-2.09Z"/>
  </g>
  <defs>
    <clipPath id="a">
      <path fill="#fff" d="M0 0h24v24H0z"/>
    </clipPath>
  </defs>
</svg>
