<svg xmlns="http://www.w3.org/2000/svg" width="24" height="24" fill="none" viewBox="0 0 24 24">
  <g clip-path="url(#a)">
    <path fill="#fff" d="M0 11.999c0 6.617 5.383 12 11.998 12C18.618 24 24 18.617 24 12S18.617 0 11.998 0C5.383 0 0 5.382 0 12Z"/>
    <path fill="#003378" d="M.356 11.998C.356 5.578 5.58.353 11.999.353c6.423 0 11.646 5.224 11.646 11.644 0 6.422-5.224 11.648-11.646 11.648C5.58 23.645.356 18.42.356 11.998"/>
    <path fill="#fff" d="M11.998 20.486a8.486 8.486 0 0 1 0-16.973 8.488 8.488 0 1 1 0 16.973Zm-9.813-5.732a.327.327 0 1 0 .328-.325h-.001a.329.329 0 0 0-.327.325m19.752.048a.332.332 0 0 1-.662-.002.332.332 0 0 1 .662 0v.002ZM3.133 9.115c-.117.369-.51.525-.956.383-.552-.175-.535-.513-.478-.697a.56.56 0 0 1 .282-.334c.177-.091.406-.1.644-.024.246.076.406.192.482.336a.447.447 0 0 1 .026.336Zm-.481-1.022c-.229-.072-.446-.062-.63.035-.2.105-.352.302-.438.57-.081.263-.07.509.037.713.103.2.292.356.518.428.4.127.918-.006 1.102-.591a.913.913 0 0 0-.043-.71.92.92 0 0 0-.546-.445Z"/>
    <path fill="#fff" d="m4.956 5.965-.303-.29.06-.061s.102.071.138.09c.166.085.291-.008.35-.07.123-.13.104-.28.025-.357-.076-.072-.171-.113-.385-.08l-.126.018c-.292.043-.475.004-.614-.13-.184-.175-.166-.452.048-.678.182-.19.282-.203.282-.203l.263.252-.064.068a.268.268 0 0 0-.173-.091c-.055-.006-.138 0-.227.091-.099.106-.106.229-.016.316.062.059.135.081.37.043l.076-.011c.336-.05.512-.017.666.13.07.067.18.21.139.43a.631.631 0 0 1-.18.322c-.09.096-.234.21-.329.21Zm14.39.389.348-.237.049.073s-.093.085-.119.117c-.118.143-.053.284-.004.356.099.147.251.16.343.097.086-.06.146-.143.16-.36l.007-.126c.02-.294.095-.466.255-.574.211-.143.478-.068.653.189.148.216.14.317.14.317l-.3.205-.054-.077a.269.269 0 0 0 .126-.152c.017-.051.03-.131-.043-.239-.083-.12-.203-.153-.304-.084-.072.05-.11.117-.121.354l-.003.076c-.022.341-.09.505-.268.626a.46.46 0 0 1-.449.045.633.633 0 0 1-.278-.242c-.074-.108-.155-.272-.136-.365M6.234 3.769c.088-.066.113-.038.183.055l.062-.047-.272-.365-.063.047c.068.093.09.124 0 .191l-.259.193-.34-.452.257-.19c.119-.088.173-.028.24.064l.065-.047-.208-.278-.871.652.047.064c.058-.045.167-.14.261-.014l.726.973c.11.146.055.17-.047.246l.052.067.89-.664-.227-.3-.064.048c.1.134.081.218-.01.287l-.28.207-.402-.54h-.001l.26-.197Zm11.577.094c.093.061.074.094.01.189l.064.046.253-.38-.065-.044c-.065.097-.088.126-.18.065l-.27-.183.316-.469.265.178c.123.084.084.153.02.248l.064.045.192-.286-.902-.607-.044.066c.062.041.186.112.1.243l-.676 1.009c-.1.15-.14.108-.247.036l-.047.07.923.618.207-.312-.067-.046c-.093.139-.179.15-.273.087l-.289-.194.376-.56v-.003l.27.184ZM7.171 2.456c-.05-.097-.004-.124.116-.184L7.25 2.2l-.615.315.037.07s.155-.11.221.014l.596 1.166c.05.096.002.125-.117.185l.037.07.661-.34-.034-.07c-.1.051-.208.123-.265.008-.06-.113-.6-1.163-.6-1.162Zm3.556-.41-.134-.672c-.02-.107.03-.119.16-.147l-.016-.076-.588.117.016.077s.18-.066.209.073l.142.712c.046.228.073.411-.015.545a.417.417 0 0 1-.262.17.403.403 0 0 1-.278-.034c-.096-.05-.196-.146-.264-.484l-.15-.744c-.02-.106.03-.119.163-.147l-.017-.077-.677.135.014.076s.182-.063.21.074l.153.756c.054.276.153.448.312.543.2.118.423.074.519.055a.668.668 0 0 0 .425-.252c.153-.194.128-.45.078-.7Zm3.92-.415c.025-.107.077-.099.207-.068l.019-.077-.674-.156-.016.076s.19.015.159.153l-.295 1.276c-.025.105-.08.096-.21.066l-.018.076.724.168.019-.075c-.11-.025-.237-.04-.208-.164l.293-1.275Zm7.037 5.836c.097-.048.123-.003.182.117l.071-.035-.303-.62-.071.035s.11.156-.019.219l-1.173.578c-.099.046-.126-.002-.185-.122l-.071.036.328.666.069-.034c-.05-.1-.119-.208-.003-.264l1.175-.576Zm.564.797-.345.05.024.086c.115-.018.197-.024.24.12.009.026.024.078.095.319l-1.297.383c-.104.031-.122-.023-.16-.151l-.076.021.212.716.075-.022c-.031-.108-.084-.228.04-.263.431-.129.863-.256 1.295-.383l.095.317c.042.145-.03.184-.137.232l.027.086.317-.143-.405-1.368Zm-2.758-3.44c-.137.14-.252.147-.308.138-.043-.005-.067-.02-.128-.079l-.11-.108.513-.52.075.075c.084.082.174.278-.042.494Zm.393-.202c-.03-.148-.13-.265-.227-.36l-.464-.458-.053.057s.154.113.056.213l-.922.93c-.075.076-.118.04-.213-.055l-.054.058.528.52.054-.052c-.079-.08-.181-.16-.09-.25l.348-.354.143.14-.063.378c-.032.216-.043.346-.01.448.019.066.053.116.14.203l.16.157.05-.052-.037-.046c-.02-.029-.068-.1-.067-.268.004-.162.026-.366.054-.624 0 0 .009-.082.013-.106.254.023.42-.021.548-.15a.385.385 0 0 0 .106-.329M2.266 10.906a.519.519 0 0 1-.207-.049 6.973 6.973 0 0 1-.649-.476.324.324 0 0 1-.093-.12.196.196 0 0 1-.015-.089 4.73 4.73 0 0 0 .006-.061l-.078-.009-.053.554.082.007.005-.057c.002-.016.019-.028.04-.026a.27.27 0 0 1 .102.039c.031.017.535.36.535.36s-.593.274-.648.294a.23.23 0 0 1-.067.018c-.009-.001-.019-.006-.019-.017a.313.313 0 0 0-.002-.013l.002-.05-.077-.008-.056.625.077.008s.004-.086.04-.138a.53.53 0 0 1 .165-.13c.123-.066.625-.313.658-.323.067-.022.112-.038.226-.03l.367.035c.14.012.136.09.127.196l.073.008.067-.737-.071-.005c-.01.122-.01.24-.174.224l-.359-.034m19.482.348c.068-.006.133-.014.211.012a6.9 6.9 0 0 1 .727.343c.063.042.089.061.112.1.019.025.03.055.033.086 0 .019.006.06.006.06l.078-.009-.054-.552-.082.008.006.056a.031.031 0 0 1-.009.023.032.032 0 0 1-.023.009.27.27 0 0 1-.108-.017c-.033-.013-.594-.255-.594-.255s.532-.383.582-.41a.177.177 0 0 1 .063-.031c.01-.002.018.004.021.013l.004.01a.506.506 0 0 1 .008.052l.077-.008-.063-.624-.076.008s.01.086-.014.142a.478.478 0 0 1-.138.158c-.107.088-.555.424-.584.44-.061.035-.104.06-.216.071l-.364.036c-.14.015-.152-.063-.162-.17l-.074.008.074.736.07-.009c-.012-.123-.034-.237.13-.251l.36-.037M4.529 6.572l-.058.097-1.623.365.793.49c.167.103.225-.027.283-.121l.068.042-.328.53-.07-.041c.053-.085.114-.164-.044-.263l-1.22-.753.055-.09 1.645-.36-.822-.509c-.146-.09-.21.03-.256.103l-.067-.041.303-.491.067.043c-.047.079-.102.149.043.24l1.231.759Zm8.547-3.707-.112-.007-1.088-1.256-.056.93c-.013.196.129.185.24.192l-.005.08-.624-.037.003-.082c.1.006.2.022.212-.163l.087-1.43.103.007c.186.213 1.069 1.244 1.098 1.277 0 0 .048-.792.057-.964.01-.172-.125-.173-.21-.177l.004-.078.576.035-.007.08c-.091-.006-.18-.02-.191.152l-.087 1.44Zm4.028-.422.018-.078-.503-.22-.032.075.058.025c.02.008.035.025.032.043-.008.028-.036.062-.063.097l-.47.472-.301.301c0-.043.03-.647.044-.91l.013-.231c.002-.013 0-.045.015-.06.004-.007.025-.018.054-.007l.058.026.031-.075-.586-.255-.03.07s.08.033.11.078a.335.335 0 0 1 .03.18l-.024 1.573.066.03.892-.823.32-.29s.107-.093.213-.045l.055.024ZM12.55 21.15v.516h-.137v-.516h-.35v.04c.035 0 .067.061.067.124v1.113h-.724v-.997h.481v-.234h-.852v.041c.035 0 .07.059.07.123v1.302h1.025v.374h.283V21.9h.137v1.136h.302v-1.887h-.302Zm8.157-2.847a308.96 308.96 0 0 0-1.16-.964h-.003l-.947 1.142c.015.01.167.138.18.15l.756-.91s.762.632.979.814l-.147.18s-.496-.411-.51-.424l-.186.222c.014.013.51.423.51.423l-.099.119-.511-.423c-.01.014-.202.245-.215.259.011.008.023.02.034.026.022-.027.09-.014.138.026l.384.318s-.203.246-.216.26l.181.152 1.13-1.362c-.014-.01-.168-.138-.182-.15-.003.007-.05.066-.116.142Zm-12.28 2.136c-.007.02-.779 1.696-.787 1.716l.275.126c.007-.02.78-1.696.79-1.715h-.003s-.256-.12-.275-.127Zm-.418-.192-.018.039h.003c.03.014.036.083.01.14l-.146.318-.288-.131c-.01.016-.09.197-.099.214l.288.132-.474 1.032.242.113c.01-.019.78-1.698.79-1.715a9.636 9.636 0 0 0-.308-.142"/>
    <path fill="#fff" d="m7.22 20.773-.009-.018.006-.006c.207-.155.371-.36.478-.596a79.29 79.29 0 0 0-.4-.183.3.3 0 0 1-.016.036c.004.004.078.062.013.201v.001c-.004.009-.218.474-.857.683.007.018.066.167.07.181h.002c.002 0 .215-.026.504-.19l.008-.005.006.01c.043.088.108.223.17.567l.247-.14a2.295 2.295 0 0 0-.222-.54Zm8.685 1.14 1.14-.546s.167.348.174.366c.02-.008.257-.123.274-.132a60.665 60.665 0 0 0-.278-.58l-1.415.68c.01.017.096.197.105.213Zm.772-2.011-.335.16.017.037c.034-.015.089.025.116.082 0 0 .388.81.398.828.017-.009.255-.122.272-.132l-.15-.31.268-.128-.09-.192-.268.13-.229-.475Zm-.638 1.315a.27.27 0 0 1-.357-.133.27.27 0 0 1 .12-.362.271.271 0 0 1 .358.133.27.27 0 0 1-.121.362Zm-.603-.014c.114.235.423.322.69.196.268-.13.392-.425.28-.661a.446.446 0 0 0-.294-.235c.117-.056.198-.095.203-.1a7.666 7.666 0 0 1-.1-.212l-.382.184s-.062-.127-.068-.143c0 0-.317.15-.335.16l.019.04v-.002c.028-.013.074.018.104.068l.008.009-.408.196.101.212a6.41 6.41 0 0 0 .185-.089.446.446 0 0 0-.003.377m-11.597-2.77-.245-.28-.032.028c.023.027 0 .09-.047.133l-.339.293.95 1.09.178-.155c-.013-.017-.751-.86-.751-.86l.286-.25Zm.304-.692c.126-.108.31-.105.413.013.103.117.082.3-.044.412-.126.109-.313.104-.413-.013-.1-.118-.081-.301.044-.412Zm.825.788-.124.107-.192-.22a.292.292 0 0 0 .047-.037.402.402 0 0 0 .07-.077l.2.227m-.556-.03.254.294-.368.323.199.227a299.19 299.19 0 0 0 1.026-.897 29.55 29.55 0 0 0-.244-.28c-.007.008-.022.02-.031.029.024.026 0 .092-.048.133l-.053.047s-.23-.261-.28-.32a.588.588 0 0 0-.146-.445c-.206-.235-.549-.273-.766-.084-.217.189-.226.534-.02.77a.574.574 0 0 0 .477.203"/>
    <path fill="#003378" d="M11.998 7.923a1.246 1.246 0 1 0-.022 2.493h.022c.689 0 1.249-.559 1.249-1.247 0-.687-.56-1.246-1.249-1.246ZM8.986 18.12c.783.68 1.767 1.327 3.014 1.902 1.248-.575 2.233-1.223 3.014-1.904L12 15.101l-3.015 3.02Z"/>
    <path fill="#003378" d="M12 11.605a2.436 2.436 0 1 1 0-4.871 2.438 2.438 0 0 1 2.439 2.435A2.438 2.438 0 0 1 12 11.605Zm6.135-.672V6.769s-3.55.114-6.135-1.873C9.418 6.883 5.868 6.77 5.868 6.77v4.164s-.024.893.132 1.87a33.301 33.301 0 0 1 12.003 0c.157-.977.133-1.87.133-1.87Z"/>
    <path fill="#003378" d="M6.062 13.152c.027.129.056.26.09.388.288 1.099.801 2.368 1.853 3.593L12 13.131l3.995 4.002c1.05-1.226 1.565-2.494 1.853-3.593.035-.128.064-.26.09-.388-3.926-.72-7.95-.72-11.876 0Z"/>
    <path fill="#fff" d="M7.836 10.144h.574c.02 0 .035-.015.035-.034V8.93a.034.034 0 0 0-.034-.035h-.467a.145.145 0 0 0-.146.143v1.07a.036.036 0 0 0 .036.035h.002Zm-.795 0h.574c.02 0 .035-.015.035-.034V9.04a.143.143 0 0 0-.143-.144h-.466a.035.035 0 0 0-.035.035v1.179c0 .02.014.034.034.035Z"/>
    <path fill="#fff" d="M8.712 9.1h-.12v1.17h-.726v.012a.14.14 0 0 1-.28 0l-.001-.013H6.86V9.1h-.121a.037.037 0 0 0-.038.036v1.241c0 .02.017.037.038.036h.727a.295.295 0 0 0 .519 0h.728c.02 0 .037-.017.037-.036v-1.24a.036.036 0 0 0-.038-.036c.001 0 .001 0 0 0Zm7.739.916h-.474c-.026 0-.044.017-.04.04l.154.991a.084.084 0 0 0 .083.072h.08a.085.085 0 0 0 .083-.073l.154-.99c.003-.023-.014-.04-.04-.04m.068-.435c.122-.107.407-.419.375-.593-.03-.191-.56-.462-.59-.67-.02-.092.019-.22.068-.32.007-.02-.013-.022-.032-.008-.01.007-.441.33-.445.553 0 .089.06.186.166.273.087.072.201.137.288.223a.343.343 0 0 1 .098.14c.043.12-.08.311-.155.402h-.17a.852.852 0 0 0 .174-.304c.07-.268-.597-.335-.497-.736.005-.016-.011-.02-.028-.009-.007.005-.264.255-.265.429-.002.15.303.289.447.493a.13.13 0 0 1-.002.127h-.27s-.065-.009-.038.054l.073.229s.012.03.058.03h.876c.045 0 .058-.03.058-.03l.078-.232c.019-.056-.044-.052-.044-.052h-.223v.001Zm-5.708 7.867c-.045.032-.27.18-.277.185a.033.033 0 0 0-.02.031.027.027 0 0 0 .025.03l.022-.007.038-.017c.026-.01.084-.037.094-.038.003.003.003.024.003.024v.35l-.003.269c-.004.036-.009.043-.035.048l-.091.008a.03.03 0 0 0-.027.03v.001c0 .013.005.026.036.026l.146-.002h.111l.15.002c.03 0 .035-.013.035-.026 0-.004 0-.007-.002-.011a.028.028 0 0 0-.025-.02l-.076-.007c-.023-.004-.032-.012-.032-.048l-.006-.269v-.222l.006-.297v-.017c0-.039-.022-.041-.03-.041l-.043.018Zm.564.191c0-.058.032-.125.13-.125.055 0 .115.041.115.13a.168.168 0 0 1-.1.161c-.107-.06-.145-.103-.145-.166Zm-.161.025c0 .113.084.18.159.221-.129.058-.205.157-.205.267 0 .158.126.254.319.254.222 0 .338-.141.338-.282 0-.145-.117-.221-.2-.269.054-.025.159-.094.159-.222 0-.124-.106-.202-.264-.202-.225 0-.306.14-.306.233Zm.124.482a.25.25 0 0 1 .125-.212c.1.06.186.112.186.219 0 .098-.063.164-.153.164-.089 0-.158-.074-.158-.17Zm.868-.507c0-.058.035-.125.13-.125.057 0 .114.041.114.13a.167.167 0 0 1-.099.161c-.106-.06-.146-.103-.146-.166Zm-.16.025c0 .113.084.18.159.221-.128.058-.206.157-.206.267 0 .158.128.254.322.254.22 0 .335-.141.335-.282 0-.145-.116-.221-.2-.269.057-.025.158-.094.158-.222 0-.124-.104-.202-.263-.202-.224 0-.304.14-.304.233Zm.125.482c0-.116.076-.18.123-.212.101.06.186.112.186.219 0 .098-.063.164-.152.164-.086 0-.157-.074-.157-.17Zm1.157-.702-.078.007h-.296c-.032 0-.039.019-.039.03l-.03.318c0 .013.002.037.037.043.082.01.29.079.29.269 0 .149-.098.203-.182.203-.1 0-.147-.048-.147-.144 0-.035-.016-.037-.027-.037-.022 0-.03.026-.031.035l-.005.138v.016c0 .026.002.048.03.064h.003c.039.015.08.021.12.021.283 0 .413-.184.413-.356 0-.205-.203-.313-.397-.348a2.01 2.01 0 0 1 .014-.118h.204c.086 0 .086.026.086.05 0 .03.025.032.03.032a.026.026 0 0 0 .025-.014.025.025 0 0 0 .002-.01v-.002l.018-.157c0-.013 0-.041-.029-.041h-.011Z"/>
    <path fill="#fff" d="M8.005 17.133c.302.353.63.682.981.986L12 15.1l3.014 3.02c.35-.305.68-.634.982-.986l-3.994-4.002-3.997 4.002Z"/>
    <path fill="#fff" d="M12 12.258c-2.013 0-4.02.182-6 .545.018.115.039.231.062.35 3.927-.72 7.951-.72 11.878 0 .023-.117.044-.234.062-.35a33.328 33.328 0 0 0-6.001-.545Zm-.002-1.84a1.246 1.246 0 1 1-.022-2.494h.022a1.248 1.248 0 1 1 0 2.493Zm2.44-1.25A2.437 2.437 0 0 0 12 6.735a2.436 2.436 0 1 0 0 4.871 2.437 2.437 0 0 0 2.439-2.436Z"/>
  </g>
  <defs>
    <clipPath id="a">
      <path fill="#fff" d="M0 0h24v24H0z"/>
    </clipPath>
  </defs>
</svg>
