<svg xmlns="http://www.w3.org/2000/svg" width="24" height="24" fill="none" viewBox="0 0 24 24">
  <g clip-path="url(#a)">
    <path fill="#006B3D" fill-rule="evenodd" d="M23.44 8.295c-.434-1.333-1.742-4.045-3.356-4.745-.834-.362-1.464-.175-2.12.287l-.041-.034c.239-.749.21-1.397-.39-2.078C16.37.406 13.387 0 11.981 0c-1.406 0-4.388.406-5.55 1.725-.602.681-.623 1.337-.384 2.104l-.039.026c-.637-.458-1.258-.633-2.093-.275-1.612.7-2.92 3.408-3.354 4.749-.435 1.337-.97 4.298-.076 5.81.464.783 1.08 1.006 1.883 1.014l.013.048c-.633.465-.995 1.006-.91 1.91.165 1.751 2.339 3.834 3.477 4.657 1.138.827 3.787 2.253 5.504 1.87.887-.202 1.29-.72 1.546-1.48l.05.005c.248.745.65 1.255 1.535 1.452 1.716.384 4.368-1.039 5.505-1.866 1.138-.827 3.311-2.905 3.476-4.656.085-.905-.283-1.449-.926-1.926l.018-.048c.786-.004 1.395-.231 1.858-1.01.896-1.512.36-4.477-.074-5.814Z" clip-rule="evenodd"/>
    <path fill="#fff" fill-rule="evenodd" d="M23.236 13.957c-.495 1.032-1.238 1.028-2.028.957l-.06.171c.682.406 1.309.842 1.102 1.967-.281 1.527-3.128 2.354-4.266 3.181-1.137.827-2.802 3.278-4.343 3.07-1.133-.15-1.36-.857-1.537-1.628l-.18-.004c-.177.771-.398 1.505-1.53 1.654-1.54.205-3.206-2.246-4.343-3.073s-3.984-1.654-4.265-3.181c-.207-1.125.396-1.56 1.077-1.967l-.053-.175c-.79.075-1.552.09-2.046-.942-.67-1.4 1.144-3.744 1.578-5.081.435-1.337.344-4.298 1.71-5.04 1.005-.543 1.603-.104 2.2.417l.144-.104c-.311-.73-.562-1.449.265-2.238 1.127-1.07 3.915-.064 5.32-.064 1.407 0 4.196-1.005 5.321.064.828.79.6 1.497.288 2.227l.148.108c.597-.521 1.205-.983 2.21-.44 1.366.742 1.273 3.703 1.708 5.04.434 1.337 2.25 3.68 1.58 5.08Z" clip-rule="evenodd"/>
    <path fill="#006B3D" fill-rule="evenodd" d="M12.008 2.38c-5.322 0-9.638 4.314-9.638 9.636a9.638 9.638 0 0 0 9.638 9.64c5.323 0 9.637-4.313 9.637-9.64a9.635 9.635 0 0 0-9.637-9.636m0 19.075a9.436 9.436 0 0 1-9.437-9.439c0-5.21 4.225-9.435 9.437-9.435s9.438 4.224 9.438 9.435a9.437 9.437 0 0 1-9.438 9.439Z" clip-rule="evenodd"/>
    <path fill="#006B3D" fill-rule="evenodd" d="M12.005 2.607a1.448 1.448 0 1 0 0 2.896 1.448 1.448 0 0 0 0-2.896Zm0 2.775a1.329 1.329 0 1 1 .002-2.654 1.329 1.329 0 0 1-.002 2.654Z" clip-rule="evenodd"/>
    <path fill="#006B3D" fill-rule="evenodd" d="M13.089 4.16c.038-.055.055-.115.123-.115l-.003-.004c-.067 0-.085-.06-.12-.111a.25.25 0 0 0-.223-.138.264.264 0 0 0-.177.082h-.526V3.34a.269.269 0 0 0 .078-.175.246.246 0 0 0-.135-.22c-.053-.037-.113-.056-.113-.123l-.004-.003c0 .07-.063.085-.117.123a.257.257 0 0 0-.135.223c0 .07.035.134.082.179v.529h-.532a.265.265 0 0 0-.173-.075.25.25 0 0 0-.223.13c-.035.057-.054.116-.12.116l-.003.004c.068 0 .085.063.123.115a.25.25 0 0 0 .223.138.262.262 0 0 0 .177-.082h.527v.525a.253.253 0 0 0-.076.175.26.26 0 0 0 .134.224c.055.037.117.052.117.12h.003c0-.068.06-.087.113-.124a.25.25 0 0 0 .134-.22.254.254 0 0 0-.08-.178V4.22h.53a.264.264 0 0 0 .173.075.246.246 0 0 0 .223-.134Zm-1.068 14.378a1.447 1.447 0 1 0-.002 2.894 1.447 1.447 0 0 0 .002-2.894m.663.783a.663.663 0 0 0-.662.663.664.664 0 1 1-1.33 0c0-.734.595-1.326 1.33-1.326.733 0 1.328.592 1.328 1.326 0-.365-.3-.663-.666-.663ZM5.794 5.569a.857.857 0 0 1 .116-.094c.058-.04.091-.055.102-.044l.014.04.027.057.516.499-.147.152-.629-.61Zm.33-.354a.878.878 0 0 1 .123-.097c.06-.037.094-.056.106-.041l.014.033.036.082.552.537c.041.037.059.09.053.156a.325.325 0 0 1-.098.19l-.247-.037L6.7 6l.07-.105-.048-.096-.599-.585Zm-.637.603.253.015-.1.153c-.034.048-.08.104-.132.171l.118.116.313-.324.14.141-.266.272a1.938 1.938 0 0 1 .46-.041l.016.168.13-.086.064-.019.013.034.027.074.077.075.662-.678.141.134-.53.548c.107-.008.238-.038.395-.094a2.34 2.34 0 0 0 .375-.186l.002.242a2.87 2.87 0 0 1-.39.157 1.586 1.586 0 0 1-.447.078l.335.328-.148.152-.33-.32c.01.142-.003.284-.039.421-.04.164-.108.31-.204.447h-.248c.107-.138.185-.283.237-.425a.742.742 0 0 0 .05-.376l-.54.555-.14-.138.672-.692-.174-.168a1.247 1.247 0 0 0-.358.007l.29.283-.148.153-.275-.268c.008.07.009.149.003.235-.006.1-.021.19-.045.264l-.218-.004c.037-.1.06-.206.066-.312a.913.913 0 0 0-.023-.298l-.295.305-.142-.138.343-.354-.1-.097a1.226 1.226 0 0 0-.084.101c-.05.063-.084.1-.1.12l-.227-.053.023-.026a3.952 3.952 0 0 0 .498-.652ZM8.15 4.604l.031-.015.142-.045c.058-.022.092-.022.101-.003l-.001.06.026.118.107.205a.687.687 0 0 0 .138-.115 1.86 1.86 0 0 0 .185-.201l.056-.086.034-.045c.007-.004.046.011.116.045.07.033.107.056.11.063l-.036.064-.062.055c-.1.112-.189.202-.265.265-.11.093-.167.141-.174.149l.222.425.071.026.05-.012.255-.134c.105-.056.159-.108.163-.16a3.17 3.17 0 0 1-.045-.223c.057.007.117.007.18.007l.071-.004c.059.138.057.257-.006.354a.674.674 0 0 1-.265.209l-.215.115a1.02 1.02 0 0 1-.237.09c-.076.007-.13-.019-.161-.079l-.59-1.128Zm-.459.205a.52.52 0 0 1 .168-.004l.089.03c-.016.056-.027.093-.033.119-.02.086-.024.134-.014.153l.025.015.03.018v.026l.01.049.46.879-.208.108-.384-.734-.02.07c-.014.044-.03.086-.047.127l-.016.053-.038.074-.201-.045c.047-.108.089-.238.124-.383a1.41 1.41 0 0 0 .054-.406l-.01-.093.011-.056Zm-.248-.589c.074-.04.134-.07.18-.09l.087.005-.004.03.009.066.055.108.348-.182-.115-.22.055-.03c.054-.026.094-.048.122-.06h.05l.013.05.01.044.059.115.586-.309.102.198-.377.182-.214.112.078.149-.194.104-.079-.153-.349.183.087.164-.199.104-.086-.164-.566.298-.096-.186.557-.29-.12-.228Zm8.196.6c.07-.056.122-.1.156-.134l.434.234a1.98 1.98 0 0 1-.234.224 1.408 1.408 0 0 1-.254.179 1.91 1.91 0 0 0-.139-.201 1.554 1.554 0 0 0-.14-.164c.049-.038.108-.082.177-.138Zm.335-.637a3.87 3.87 0 0 1-.234.23l-.633-.342-.1.183.573.313a1.8 1.8 0 0 1-.283.238 3.172 3.172 0 0 1-.337.197l.159.19.08-.04.082-.049c.04.041.086.093.138.16a.995.995 0 0 1 .112.171.8.8 0 0 1-.436.053 1.275 1.275 0 0 1-.437-.153l.056.29c.17.064.343.097.519.094.155 0 .3-.03.437-.082.053.074.105.171.156.286.051.116.092.224.124.332l.245-.067a4.01 4.01 0 0 0-.325-.66c.102-.059.194-.122.277-.19.116-.096.214-.197.292-.305l.44.242.102-.186-1.026-.559c.15-.123.278-.25.384-.387l-.166-.201a2.542 2.542 0 0 1-.2.242Zm2.624 1.624.034.033.097.127.006.09-.086.048-.078.04-.248.228.626.682-.156.145-.627-.682c-.153.168-.242.418-.269.738-.024.29.006.525.091.7l-.288-.018a2.063 2.063 0 0 1-.051-.593c.008-.253.046-.458.115-.603-.156.067-.358.093-.607.078a1.88 1.88 0 0 1-.615-.134l.014-.294c.202.126.442.193.72.197.31.004.554-.074.734-.242l-.628-.685.157-.142.628.682.431-.395ZM4.275 16.449l-.577-1.226 1.659-.778.57 1.207-.2.093-.464-.984-.507.239.427.909-.198.093-.428-.909-.554.26.471 1.003-.199.093Zm.712 1.028-.17-.198 1.08-1.557.176.202-.909 1.233.003.003 1.4-.66.175.206-.863 1.285.004.003 1.354-.715.177.209-1.705.827-.17-.198.881-1.307-.004-.004-1.429.67Zm3.528.685.207.134-1.014 1.527-.207-.137.473-.712-.797-.529-.473.712-.206-.138 1.013-1.524.207.134-.42.634.798.529.42-.63Zm.16 1.278.577-.637.005.003-.053.85-.528-.216Zm.529.45-.034.563.25.104.077-1.948-.26-.108-1.33 1.438.237.097.377-.421.683.276Zm6.867.045-.248.142-1.376-1.319.254-.149 1.076 1.099.005-.004-.36-1.516.257-.149 1.142 1.062.005-.004-.426-1.479.26-.148.464 1.847-.247.145-1.163-1.08-.005.004.362 1.55Zm1.573-1.404.182.201.217-.194-.18-.2-.219.193Zm.439-2.842.942.726c.297.227.39.626.051 1.066-.33.428-.723.42-.994.208l-.969-.745.167-.216.914.704c.315.246.565.097.714-.093.153-.197.241-.484-.074-.726l-.918-.708.167-.216Zm1.53.38.241.123.133-.257-.242-.127-.132.26ZM5.034 12.843l.038.253-1.358.205.067.447-.191.03c-.069-.31-.117-.432-.442-.462l-.028-.186 1.914-.287Zm-.952-.969c.004-.22.122-.398.384-.394.303.007.362.22.358.394-.005.336-.238.41-.391.406-.18 0-.357-.133-.351-.405Zm-.519-.6c-.225-.003-.5.157-.509.59-.009.461.32.592.521.595a.385.385 0 0 0 .382-.257c.08.209.229.332.466.34.093 0 .302.003.462-.19a.798.798 0 0 0 .157-.466c.009-.455-.288-.66-.599-.663a.487.487 0 0 0-.476.305c-.043-.086-.126-.25-.404-.253Zm.31.6c-.004.18-.12.336-.304.336-.124-.004-.302-.071-.297-.328.005-.287.177-.358.295-.358.176.004.309.142.305.35Zm.384-1.534c.047-.212.198-.369.454-.313.296.067.313.287.276.458-.071.328-.313.354-.464.324-.174-.04-.323-.2-.266-.47Zm-.392-.69c-.221-.044-.522.06-.614.481-.096.451.2.645.397.686a.388.388 0 0 0 .424-.175c.038.216.16.368.391.417.092.019.296.063.492-.097a.775.775 0 0 0 .243-.425c.096-.443-.156-.704-.46-.767a.49.49 0 0 0-.526.209.412.412 0 0 0-.347-.328Zm.188.653c-.038.171-.183.305-.363.268-.121-.03-.283-.127-.228-.38.06-.276.243-.317.36-.294.17.04.274.2.23.406Zm.815-.965c-.21-.09-.336-.283-.23-.529.12-.276.373-.264.53-.197.24.104.347.313.256.525-.113.26-.366.283-.556.201Zm-.363-1.24c-.37-.135-.608.108-.696.312-.23.533.276.902.666 1.07.232.1.463.163.675.13a.601.601 0 0 0 .456-.347c.108-.25.086-.387.023-.525a.65.65 0 0 0-.372-.361c-.424-.183-.71.093-.804.313-.105.242-.037.417.035.514l-.007.004c-.187-.079-.626-.358-.475-.708.083-.19.236-.224.405-.186l.094-.216ZM18.55 9.45l-.103-.239 1.263-.544-.178-.413.176-.078c.145.28.224.387.545.335l.075.171-1.778.768Zm1.123.7c-.038-.156-.047-.395.314-.48.252-.06.457.044.511.26.066.272-.096.428-.31.48-.373.086-.485-.137-.515-.26Zm-.22.015c.042.175.167.343.329.376l-.004.008c-.501.063-.75-.023-.814-.28-.046-.194.044-.335.232-.395l-.058-.234c-.182.044-.475.238-.368.681.157.648 1.024.473 1.225.425.306-.07.86-.268.714-.868-.096-.395-.45-.533-.792-.447-.375.09-.548.387-.465.734Zm1.133 1.624v.008l-.877.037-.026-.622.903.577Zm-1.064.577.21-.007-.012-.283 1.253-.056-.008-.197-1.264-.835-.237.011.036.842-.47.023.01.242.47-.023.012.283Z" clip-rule="evenodd"/>
    <path fill="#006B3D" fill-rule="evenodd" d="M20.117 12.891c.05.09.09.216.063.388-.046.313-.313.596-.707.536-.212-.03-.658-.197-.567-.797.038-.25.187-.555.622-.536l-.039.25c-.225-.012-.349.14-.382.353-.037.25.138.436.377.47.275.044.454-.123.49-.358a.453.453 0 0 0-.129-.384l.043-.205 1.004.302-.151.99-.234-.036.123-.812-.513-.16Zm-14.72-.871c0 3.643 2.967 6.608 6.611 6.608a6.617 6.617 0 0 0 6.61-6.608 6.618 6.618 0 0 0-6.61-6.612 6.618 6.618 0 0 0-6.61 6.612Zm.205 0a6.412 6.412 0 0 1 6.406-6.407 6.412 6.412 0 0 1 6.407 6.407 6.415 6.415 0 0 1-6.407 6.407 6.414 6.414 0 0 1-6.406-6.407Z" clip-rule="evenodd"/>
    <path fill="#006B3D" fill-rule="evenodd" d="m11.472 10.59.008-.034-.049-.045-.096-.018h-.072v.514c0 .093.03.137.087.167a.602.602 0 0 0 .245.034h1.033c.078 0 .15-.011.218-.056a.45.45 0 0 0 .177-.246l-.159-.138a.447.447 0 0 1-.152.19c-.055.034-.131.037-.231.037h-.886l-.088-.007-.05-.03v-.048c.02 0 .104-.004.252-.015.148-.011.31-.022.485-.045.215-.026.374-.056.478-.085l-.07-.22a4.282 4.282 0 0 1-.56.097c-.258.03-.452.048-.585.048v-.063l.015-.038Zm-.471 2.298.126.234a1.58 1.58 0 0 0 .387-.149.957.957 0 0 0 .24-.149l-.107-.164h.768l-.135.157c.12.097.226.171.317.223.08.045.16.082.242.105l.143-.227a1.415 1.415 0 0 1-.277-.12 1.483 1.483 0 0 1-.226-.138h.577v-.204H11.3v-.954l.012-.075.01-.044-.04-.056-.102-.026h-.074v1.36h.478c-.075.05-.156.092-.24.126a1.291 1.291 0 0 1-.343.1Zm1.009 1.218c-.803 0-1.388.655-1.458 1.456l-.238 2.66.25.063.177-2.1.684-.858.582.73.582-.73.691.865.176 2.09.25-.06-.237-2.66c-.072-.8-.654-1.456-1.46-1.456Zm-.003 1.613-.214-.269.214-.268.213.268-.213.269Zm.584-.727-.002.004-.003-.004-.23.29-.346-.435-.003.004-.003-.004-.347.436-.23-.29-.002.003-.003-.004-.648.812.021-.242c.057-.667.546-1.214 1.215-1.214.67 0 1.158.547 1.216 1.214l.022.25-.657-.82Zm3.46.004a.988.988 0 0 0 .033-.12h.407v-.23h-.898v-.116h.68v-.23h-.68v-.123h.86v-.228h-.572l.066-.134.053-.145-.218-.1c-.014.066-.031.13-.051.193-.02.067-.044.127-.075.186h-.41l.108-.082a1.355 1.355 0 0 0-.186-.309l-.176.134c.072.09.125.175.159.257h-.623v.228h.853v.122h-.674v.231h.674v.116h-.89v.23h.41l.049.116.027.127h-.524v.223h2.08v-.223H16l.051-.123Zm-.67.123h-.19a1.666 1.666 0 0 0-.034-.138l-.041-.104h.265v.242Zm.452-.116-.05.116h-.19v-.242h.274l-.034.126Z" clip-rule="evenodd"/>
    <path fill="#006B3D" fill-rule="evenodd" d="M14.813 16.17h.211v-.101h.92v.082h.216v-.69h-1.347v.708Zm.211-.489h.92v.168h-.92v-.168Zm-3.552-3.33h1.252v-1.046h-1.252v1.046Zm.193-.864h.865v.116h-.865v-.116Zm0 .29h.865v.113h-.865v-.112Zm0 .28h.865v.112h-.865v-.112Zm-2.976 3.39h.733v-.239h-.805v-.167h.866v-.235h-.866v-.16h.669v-.238h-.669v-.153h.836v-.239H8.94c.032-.06.06-.122.083-.186l.036-.119-.203-.112a2.628 2.628 0 0 1-.057.22 1.148 1.148 0 0 1-.078.197h-.444l.114-.104a1.5 1.5 0 0 0-.185-.313l-.171.13.097.146.068.142h-.624v.238h.832v.153h-.67v.238h.67v.16h-.87v.235h.87v.167H7.6v.239h.737c-.061.123-.18.23-.36.335-.163.093-.338.16-.524.194l.18.227c.168-.049.331-.127.489-.235.168-.115.299-.242.393-.383.085.145.21.272.377.383.156.105.33.18.524.231l.176-.22a1.494 1.494 0 0 1-.564-.193c-.178-.104-.292-.216-.34-.34" clip-rule="evenodd"/>
    <path fill="#006B3D" fill-rule="evenodd" d="M18.446 11.878H17.1l.006.522h-1.22v-.522h-.965v-.625c.272-.049.483-.101.606-.146.685-.264.855-.54.855-.54l-.091-.32s-.696-.063-.775-.1c-.081-.034-.787-.451-.88-.556l-.067-.279h-.237v-.924c.165-.044.403-.082.567-.149.365-.149.662-.283.662-.283l-.091-.298s-.833-.16-.913-.194c-.08-.033-.262-.365-.343-.48-.08-.112-.045-.227-.045-.227l-.149-.127s-.412.108-.764.157c-.49.067-1.246.055-1.246.055s-.756.012-1.246-.055c-.353-.049-.765-.157-.765-.157l-.148.127s.034.115-.046.227c-.08.115-.262.447-.342.48-.08.034-.913.194-.913.194l-.09.298s.295.134.661.283c.115.049.365.112.602.15v.923h-.271l-.068.28c-.093.104-.8.52-.88.554-.079.038-.775.1-.775.1l-.09.321s.17.276.854.54c.123.045.333.097.605.146v.625h-.97v.522H6.909l.007-.522H5.572v.239h1.095v.525h1.7v-.525h1.21v.525h1.171V12.4h-.925v-.522h-.41v-.48h1.335v-.354h.003V9.658h.193v.611h.195v-.61h.194v.61h.194v-.61h.194v.61h.194v-.61h.194v.61h.199v-.61h.194v.61h.194v-.61h.194v.61h.193l.002-.61h.193v1.385h-.004v.354h1.331v.48h-.413v.522h-.918v.242h1.163v-.525h1.21v.525h1.702v-.525h1.097v-.239ZM15.802 10.5h.193v.231l-.193.06v-.29Zm-.389-.048.194.048v.373l-.194.063v-.484Zm-.388-.242.194.123v.648l-.194.04v-.811Zm0-2.44.195.022v.175l-.194.041V7.77Zm-.388-.045.194.041v.324l-.194.041v-.406Zm-5.643.283-.194-.04v-.176l.194-.022v.238Zm.388.123-.194-.04v-.325l.194-.04v.405Zm-1.155 2.66-.194-.06v-.23h.194v.29Zm.389.145-.195-.063V10.5l.195-.048v.484Zm.388.086-.194-.041v-.648l.194-.123v.812Zm.387.022h-.193v-.927l.193-.138v1.065Zm.185-2.857v-.499l.195-.194v.693h-.195Zm.204 2.857h-.194V9.658h.194v1.386Zm.96-3.926h.194v1.151h-.193V7.118Zm-.387-.07h.194V8.25h-.194V7.047Zm-.388.208.102-.216h.09v1.192h-.192v-.976ZM9.94 8.567h.486v.745H9.94v-.745Zm.227 2.477h-.194V9.658h.194v1.386Zm.388 0h-.193V9.658h.193v1.386Zm.598-1.732h-.485v-.745h.485v.745Zm.169-1.017h-.194V7.167h.194v1.128Zm.194-1.128h.193v1.128h-.193V7.167Zm.364 2.145h-.484v-.745h.484v.745Zm.218-1.017h-.194V7.167h.194v1.128Zm.21-1.128h.194v1.128h-.194V7.167Zm.301 2.145h-.481v-.745h.481v.745ZM13.86 7.04h.091l.103.216v.976h-.194V7.04Zm-.387.007h.194V8.25h-.194V7.047Zm-.388.071h.194V8.27h-.194V7.12Zm-.389.048h.195v1.13h-.194v-1.13Zm.64 2.146h-.485v-.745h.485v.745Zm.329 1.732h-.193V9.658h.193v1.386Zm.389 0h-.195V9.658h.195v1.386Zm.01-1.732h-.485v-.745h.485v.745Zm.185-1.818.193.194v.5h-.193v-.694Zm.192 3.55h-.194V9.658h.194v1.386Zm.388 0h-.193V9.979l.193.112v.953Zm-3.149 5.755-.158-.12s-.142.202-.19.481c-.047.28.224.436.18.7-.04.235-.327.474-.327.474l.156.126c.09-.09.348-.369.386-.592.047-.276-.19-.48-.183-.67.006-.19.136-.4.136-.4Zm.698.287a.51.51 0 0 1 .104-.317l-.156-.1s-.168.141-.162.424c.006.198.463.391.472.756.004.242-.166.548-.166.548l.183.074c.062-.123.19-.45.18-.655-.017-.388-.452-.585-.455-.73" clip-rule="evenodd"/>
    <path fill="#006B3D" fill-rule="evenodd" d="m12.088 16.773-.154-.104s-.197.19-.197.473c0 .279.341.383.341.651 0 .239-.239.582-.239.582l.165.1c.056-.086.29-.462.29-.708 0-.283-.318-.44-.343-.625-.026-.19.137-.37.137-.37" clip-rule="evenodd"/>
  </g>
  <defs>
    <clipPath id="a">
      <path fill="#fff" d="M0 0h24v24H0z"/>
    </clipPath>
  </defs>
</svg>
