<svg xmlns="http://www.w3.org/2000/svg" width="24" height="24" fill="none" viewBox="0 0 24 24">
  <g clip-path="url(#a)">
    <path fill="#798086" d="m4.452 18.398-1.194 1.284c-.075.081-.083.109-.043.146.042.04.067.032.146-.05l1.194-1.285.244.228-1.143 1.23-.064.068a.647.647 0 0 1-.113.095c-.14.1-.308.077-.465-.07-.102-.094-.155-.205-.151-.308a.346.346 0 0 1 .047-.15.685.685 0 0 1 .088-.119l.064-.069 1.143-1.23.247.23Zm1.183 1.109.299.188-.429 1.03.587-.93.258.163-1.155 1.828-.296-.187.427-1.026-.585.927-.26-.165 1.154-1.828Zm1.742 1.053.293.154-1.006 1.914-.294-.155 1.007-1.913Zm1.203.546.316.083-.225 1.365.456-1.305.316.083-.78 2.03-.39-.101.306-2.155Zm1.989.255.626.003v.295l-.296-.001-.003.622.295.002-.002.291-.295-.001-.002.658.294.001v.296l-.626-.004.009-2.162Zm2.412 2.055.325-.066-.182-.905c.108-.022.134-.008.153.091l.119.588a.41.41 0 0 0 .075.193l.318-.063a.486.486 0 0 1-.07-.199l-.106-.53c-.026-.133-.068-.208-.141-.24a.304.304 0 0 0-.094-.027c.089-.067.116-.112.12-.196 0-.076-.008-.152-.024-.227l-.049-.248c-.041-.203-.085-.293-.161-.344-.084-.05-.158-.058-.323-.025l-.384.077.424 2.12Zm-.043-1.897c.11-.02.135-.003.155.095l.08.4c.02.1.002.126-.105.148l-.13-.643Zm2.512-.201.224.069c.187.053.25.113.335.3l.105.228.04.087a.71.71 0 0 1 .047.138c.038.164-.05.314-.237.402a.405.405 0 0 1-.335.018.294.294 0 0 1-.124-.1.966.966 0 0 1-.076-.125l-.039-.085-.13-.284.3-.137.162.35a.448.448 0 0 0 .034.066c.019.034.049.045.084.028.053-.024.054-.052.008-.153l-.109-.236c-.053-.117-.078-.14-.197-.173l-.225-.07c-.194-.057-.257-.11-.337-.281l-.09-.198-.04-.085a1.012 1.012 0 0 1-.045-.14c-.038-.165.051-.313.234-.396a.411.411 0 0 1 .333-.021.307.307 0 0 1 .12.1c.046.059.052.07.116.212l.11.239-.292.133-.14-.306c-.046-.1-.069-.118-.122-.093-.05.023-.05.052-.005.151l.092.2c.049.107.07.122.199.162Zm1.134-1.585.27-.193 1.26 1.756-.268.193-1.262-1.756Zm1.608-.765-.154.166-.217-.2.533-.576.217.2-.16.171 1.374 1.266-.22.238-1.373-1.265Zm.904-1.813.64.256-.505-.468.178-.28.995.97.677.43-.181.285-.686-.437-1.302-.468.184-.288ZM11.332 1.768v-.34c0-.036 0-.055-.002-.075a.063.063 0 0 0-.066-.061c-.058 0-.07.025-.07.135l-.002 1.346c0 .11.013.136.07.136.056 0 .069-.022.07-.137v-.424h-.065v-.295h.396l-.002 1.13h-.178l-.022-.086c-.046.075-.114.107-.222.107a.403.403 0 0 1-.298-.123.299.299 0 0 1-.07-.144.981.981 0 0 1-.017-.145v-.095l.002-1.195v-.095a.968.968 0 0 1 .017-.145c.036-.166.178-.262.386-.262.136 0 .253.042.317.12a.31.31 0 0 1 .072.142c.012.072.016.085.015.24v.266h-.33ZM6.236 4.677l-.269.193-.538-.744-.11.08.538.744-.269.193L4.323 3.39l.267-.194.559.773.11-.08-.558-.771.268-.194 1.267 1.753Zm3.344-1.38-.347.067L8.84 2.32l.21 1.08-.3.058-.41-2.123.345-.067.392 1.04-.208-1.075.303-.059.41 2.123Zm6.717 1.272-.302-.184.41-1.037-.57.939-.26-.158 1.124-1.847.299.182-.41 1.034.571-.936.262.16-1.124 1.847Zm-11.805.907.067.065c.035.039.068.075.093.113.098.143.07.313-.078.465-.096.1-.21.152-.312.145a.313.313 0 0 1-.151-.048 1.043 1.043 0 0 1-.117-.09l-.067-.064-.862-.831-.067-.065a1.187 1.187 0 0 1-.095-.113c-.096-.143-.064-.31.083-.462.096-.1.207-.155.309-.148a.31.31 0 0 1 .151.048c.04.024.077.055.116.089l.069.066.247.238-.234.243-.301-.29a.436.436 0 0 0-.056-.05c-.03-.025-.066-.022-.09.004-.04.042-.03.07.049.146l.968.934c.08.076.107.085.148.043.039-.04.032-.065-.052-.144l-.321-.31.234-.243.269.26Zm1.968-3.44.705 1.607c.043.1.066.118.116.097.054-.024.056-.05.011-.153L6.588 1.98l.306-.134.674 1.538.037.086c.02.045.035.092.045.14.034.169-.054.314-.25.4-.128.056-.25.06-.343.016a.35.35 0 0 1-.12-.104.701.701 0 0 1-.073-.126l-.039-.087-.673-1.537.308-.136Zm7.422 1.38.308.11.202-.45.178.063-.12.48.311.111.485-2.123-.425-.151-.94 1.96Zm.625-.602.323-.721-.192.768-.13-.047Zm3.811 1.577.226-.254a.453.453 0 0 0 .047-.058c.023-.031.019-.065-.008-.089-.043-.039-.07-.028-.143.054l-.895 1.005c-.073.082-.081.11-.038.149.041.036.066.028.142-.057l.283-.317-.05-.043.198-.22.295.263-.75.843-.134-.12.039-.077c-.084.025-.156.005-.235-.067a.398.398 0 0 1-.141-.29.298.298 0 0 1 .041-.154.982.982 0 0 1 .085-.12l.063-.07.796-.894.062-.07a1.09 1.09 0 0 1 .11-.098c.137-.1.307-.077.463.06.1.092.16.2.156.302a.302.302 0 0 1-.042.154c-.037.061-.044.074-.146.19l-.177.198-.247-.22ZM2.77 6.981a.232.232 0 1 1-.464.011.232.232 0 0 1 .463-.01Zm0 10.658a.231.231 0 1 1-.463.01.231.231 0 0 1 .462-.01ZM12.954 2.27l-.32-.053.045-.268.765.134-.045.27-.445-.082ZM1.047 15.873l.052.14-.226.083c-.073-.107-.163-.137-.32-.11l-.091-.25 2.028-.747.115.31-1.558.574Zm.456-2.033.207-.007c.16-.004.169-.004.24-.023a.326.326 0 0 0 .143-.075.413.413 0 0 0 .11-.318c-.006-.21-.11-.35-.277-.378a.678.678 0 0 0-.146-.012l-.094.003-1.196.035-.094.003a.665.665 0 0 0-.145.02.345.345 0 0 0-.14.073c-.077.07-.115.185-.11.324.005.214.104.35.272.381.049.01.098.014.148.012l.093-.003.54-.016c.209-.006.312-.113.307-.31a.31.31 0 0 0-.048-.171l.457-.014c.072 0 .092-.002.108.008.02.012.03.031.031.057.001.055-.024.072-.134.075l-.282.008.01.328Zm-1.077-.435.502-.015c.117-.004.14.006.142.063 0 .04-.021.063-.06.07-.019.001-.038.005-.078.005l-.502.016c-.068.002-.09 0-.107-.01a.08.08 0 0 1-.031-.057c-.002-.056.024-.069.134-.072Zm.064-2.118-.022.148-.238-.037c-.012-.13-.077-.198-.227-.25l.04-.263 2.138.324-.05.327-1.64-.249Zm.722-2.84-.122-.039c-.152-.05-.161-.053-.234-.06a.33.33 0 0 0-.16.023.414.414 0 0 0-.212.262c-.065.2-.014.367.134.45.04.023.083.044.133.06l.09.03 1.138.37.089.03a.667.667 0 0 0 .143.028.343.343 0 0 0 .157-.02c.095-.04.17-.136.213-.268.067-.203.02-.365-.128-.45a.63.63 0 0 0-.135-.062l-.089-.029-.514-.167c-.198-.065-.331 0-.393.188a.31.31 0 0 0-.013.178l-.435-.142C.806 8.806.788 8.8.775 8.785c-.014-.018-.017-.039-.01-.064.018-.051.047-.059.152-.026l.194.064.101-.312Zm.941.798-.477-.155c-.111-.036-.13-.053-.112-.108.012-.038.04-.052.08-.046.018.006.037.009.075.022l.478.155c.064.02.085.03.097.045a.078.078 0 0 1 .01.064c-.017.053-.046.057-.15.023Z"/>
    <path fill="#2C71BC" d="M12.004 11.796c.001-.001.49-.647.547-.716-.054.013-.025-.042-.02-.086.045-.009.383-.512.5-.614l.005-.031c.005-.001.092.274.145.33l-.229.624c-.034.173-.002.344-.055.51a.763.763 0 0 1-.446.432c-.094.029-.167.027-.256.07-.178.11-.355.222-.532.334-.24-.11.312-.634.341-.853Zm2.193-.512-.003.022c.032-.002.025-.008.02.023l-.02-.023c-.025.002-.016-.005.003-.022Zm-6.193 4.208.159-.076c.189-.013.3-.094.463-.153.048-.018.097-.034.145-.05l.024-.001c-.052.378-.32.753-.16 1.107l.1.15c.052.02.103.039.157.057.058.029.103.086.164.11.038-.003.04.021.064.037.109.071.192.028.302-.061l.003-.024c.097-.006.14.03.244-.016.01-.077-.017-.125.005-.21-.036.003.08-.067.11-.1.045-.002 0-.084-.007-.115-.033.002-.026.01-.022-.022l.033-.012.227-.393.255-.308a.188.188 0 0 0 .014-.135c.15-.01.198-.355.183-.453.054-.003.308-.268.388-.32l.242-.11.01-.007c.04-.002.029-.06.039-.095.005-.038-.011-.022-.046-.02l.003-.023c.047.003.094.007.14.012l.308-.11c.005-.032.055-.066.04-.083l.213-.016c.132-.03.502-.205.601-.307l.048-.003c-.003.032-.01.024.021.022.006-.037.053-.04.08-.051.005-.031-.003-.023.028-.025l-.003.023c.053-.004.028.498.11.597l.024-.002-.037.096c-.005 0 0 .093-.02.14h.025c-.011.079.234-.028.272-.041l.003-.024-.001.05a.31.31 0 0 1-.123.176c-.277.223-.152.528-.119.769l.013.245c.022.048.042.098.063.148l-.022.156a.715.715 0 0 0 .05.323l-.003.023c.025-.002.079-.15.172-.198l-.006.017c-.03.062-.06.123-.088.184-.044.16-.02.44.09.521-.016.118-.04.21.086.249l.01-.07c.008-.059.063-.118.09-.17l.084-.213c.052-.003-.039-.084-.057-.112-.034.003-.006-.078-.008-.116l.098-.006a.52.52 0 0 0-.091-.389c-.035.002.01-.016.027-.025l.003-.024c.036-.001.008.005.021.023l-.002.023c.03-.002.028-.002.036-.03.075-.216.156-.43.25-.639.04-.002.024-.02.023-.05l.031-.231c.017-.189.017-.41.09-.588-.029.002-.04-.2-.085-.25.005-.036.032-.05.059-.073l.029-.211c.007-.053.075-.11.117-.147.01-.08-.004-.145.008-.233-.04.002-.049-.017-.066-.041-.032.001-.025.009-.021-.022.048-.004.093-.072.11-.11l.053-.203c.144-.296.323-.346.591-.496l.117-.085c.007-.043-.053-.035-.09-.04l.004-.025c.072-.005.424-.311.479-.384.018-.048.038-.096.057-.143.058-.023.121.006.162.018l.003-.023c.053-.027.105-.053.156-.081.005-.035.02-.024.053-.027.005-.037-.036-.034-.067-.042.006-.041.046-.039.08-.05l.003-.024c-.022.001-.04 0-.045-.02.019-.14.1-.15.21-.131.003-.016.139-.22.155-.241.035-.002.04-.07.062-.098-.006.041.048.005.074-.005-.007.045.06-.05.082-.075-.037.003-.042-.023-.066-.041l.003-.024.125-.03.004-.024c.228-.015.348-.177.562-.223.006-.05.044-.07.085-.098l.01-.071-.048.002c-.006.043-.078.074-.11.102-.03.001-.08-.051-.113-.062l.003-.025c.092-.006.108-.121.205-.082l.024-.003c.004-.026-.003-.03-.017-.045.008-.058-.01-.028-.015-.068.005-.034-.25.075-.302.09.006-.038.037.02.009.002l.002-.023c.076-.005.118-.113.156-.164.004-.034-.026-.033-.053-.04-.151-.034-.68.18-.844.24l-.375.135c-.083.045-.167.092-.25.139-.277.125-.564.203-.835.34l.004-.023c-.028.002-.028-.004-.045-.02.012-.093.029-.162-.017-.232l.045-.12.08-.607c-.041.002.017-.044.035-.072.043-.003.009-.041 0-.066-.077-.193.02-.43.005-.656-.008-.131-.067-.2-.002-.347-.036.002-.026-.014-.033-.037-.06-.19-.141-.122-.3-.175a.824.824 0 0 0 .007-.046c.035-.003.077-.038.104-.053.014-.097-.154-.161-.215-.195-.003.025-.16.05-.199.066a.65.65 0 0 1-.3.071c-.07-.004-.13-.04-.213-.021-.22.053-.699.506-.897.685l.025-.001c-.006.04.056.037.09.04a1.85 1.85 0 0 1-.006.047c-.032.002-.023-.006-.027.024a.702.702 0 0 0-.278.117c-.108.098-.149.261-.238.375-.05.065-.154.082-.188.169l-.001.06-.003.023c-.239.015-.693 1.125-.924 1.268-.004.016-.005.03-.008.046l-.024.002c-.01.155-.103.219-.167.345-.038.078-.05.139-.103.207.041-.003.01.022-.006.046.034-.001-.023.057-.033.096-.032.127-.14.212-.198.325-.127.245-.265.456-.34.732-.145.01-.087.175-.03.212l-.003.023c-.16.01-.177.176-.185.29l-.024.002c.005-.035-.01-.021-.036-.014-.207.071-.384.127-.557.285-.045.003 0 .03.017.045l-.003.023a.664.664 0 0 0-.377.12c-.126.082-.287.28-.448.259l-.025.002-.004.022c-.04.003-.025.043-.034.072-.005.04-.095.095-.12.133-.039.06-.099.095-.144.151a.821.821 0 0 0-.174.346c-.016.097.308.176.398.16Zm15.722-4.881c-.136-.008-.257.084-.364.166l-.103.077-.448.263-.427.25a4.073 4.073 0 0 1-.655.25l-.135.048c-.034.017-.066.034-.127.048l-.008.002-.003.005-.023-.016-.024-.018c-.068-.042-.087-.147-.087-.27 0-.078.007-.16.014-.239.007-.08.014-.158.014-.226a.58.58 0 0 0-.008-.09c.086-.03.099-.219.11-.39a.906.906 0 0 1 .018-.17.349.349 0 0 1 .104-.115l.01-.008.004-.017-.005-.12c.07-.081.172-.42.173-.425a.214.214 0 0 0 .007-.056.29.29 0 0 0-.008-.061c.024-.012.033-.04.039-.057l.005-.015.003-.014.006-.002.048-.021-.013-.02.054-.118.023-.014.006-.018-.006-.018a.303.303 0 0 0 .081-.091l.032-.042.104-.102c.067-.064.13-.123.185-.199l.053-.134.025-.065.034-.045c.043-.055.092-.117.092-.197l-.002-.03c-.018-.124-.127-.17-.215-.207l-.018-.008.003-.024h-.028l-.017-.002a.612.612 0 0 1-.067-.005.304.304 0 0 0 .05-.122.078.078 0 0 0 .04-.024l.034-.035-.056-.01-.004-.012-.008-.031h-.019l-.08-.005-.029.08c-.023-.007-.04-.02-.055-.05l-.006-.013-.025-.003-.002-.002.001-.003.004-.02-.04-.016.013-.022-.036-.005.002-.008.003-.027-.009-.028-.02-.01a.074.074 0 0 0-.036-.046l-.006-.004.007-.025-.029-.009a.419.419 0 0 1-.109-.032c-.088-.033-.188-.07-.26-.027-.034.02-.054.06-.066.112-.012-.005-.024-.008-.037-.017l-.022-.014-.005-.021-.038-.012H21.3l-.004.023c-.01.087-.027.106-.09.15l-.06.038.054.006-.006.009-.034.064c-.097.18-.189.36-.189.46 0 .013.004.021.006.031l-.1-.006-.003.024c-.02.17-.068.231-.145.335l-.066.087-.082.156-.027.052c-.063.08-.108.177-.152.272-.044.094-.085.182-.144.26l-.123.131a1.44 1.44 0 0 0-.13.238c-.051.104-.104.213-.162.278l-.008.006-.082.062c-.138.13-.322.324-.385.528l-.023.005-.004.002c-.229.147-.434.387-.616.598l-.07.08-.094.117-.025.032-.105.075a.666.666 0 0 0-.14.104l-.112.146-.014.019c-.028.027-.079.02-.132.015-.05-.005-.104-.007-.147.02a2.94 2.94 0 0 1 .268-.917l.023-.015.007-.02-.006-.024-.003-.01a.14.14 0 0 1-.003-.032c0-.126.105-.42.168-.553l.008-.018-.016-.01.005-.008.018-.034.019-.105.022-.13c.03-.156.094-.448.199-.66l.032.003-.003-.031-.001-.017a.638.638 0 0 1 .066-.38l.034.002-.01-.05c-.057-.21-.259-.537-.565-.539-.38-.002-.767.958-.837 1.302l-.068.013-.018.004-.002.018c-.01.08-.04.145-.07.214l-.044.105-.126.327-.072.18.029.008.062.016-.107-.005-.003.024a.655.655 0 0 1-.06.182l-.036.093-.007.036-.028.169-.052.098-.026.053c-.045.116-.064.23-.085.349l-.022.125-.019.093a1.364 1.364 0 0 0-.037.268c0 .088.022.175.082.256v.005l-.1-.027-.01.069.02.01.04.017a.875.875 0 0 0 .201.692l.043.05c.043.05.076.088.1.157l.006.016.282.017v-.012l.171.066.01-.001.14-.014c.115-.006.242-.015.308-.067l.027.002-.003.018-.004.048h.027c.125.007.205-.063.282-.13l.092-.076.003-.01.001-.021c0-.025-.008-.042-.015-.06a.234.234 0 0 0 .07-.03l.047-.026-.003-.01-.01-.038-.019-.01a.446.446 0 0 0 .12-.028.224.224 0 0 0 .09-.066l.052-.047.118-.066c.107-.056.227-.12.294-.228.018-.005.05-.026.116-.104l.005-.006.001-.016a.088.088 0 0 0 .035-.038l.012-.02h.001c.148-.04.244-.193.336-.34.06-.099.124-.2.197-.26l.008-.007.001-.007.02.001.003-.026.004-.03-.015-.015-.013-.007a.14.14 0 0 1-.037-.025.251.251 0 0 0 .167-.134.156.156 0 0 0 .013-.063.164.164 0 0 0-.017-.068l.119-.01c.01.017.019.042.026.068.022.072.052.163.13.216l-.05-.003-.004.021h-.02l-.003.023-.002.03c0 .126.092.24.186.288l.003.001-.002.014-.01.004-.005.021c0 .029.024.064.054.11.032.047.073.11.073.152l-.002.01-.012.013-.002.011c0 .027.041.072.304.263l.029.021.057.067a.34.34 0 0 0 .07.077.142.142 0 0 1-.026.04l-.046.06.05.003c.026.002.089.046.14.081a.701.701 0 0 0 .14.085l.03.011.016-.137.159.01.04-.01.012-.038a.297.297 0 0 1 .065.046l.107.08.002-.045v-.003a.235.235 0 0 0 .118-.072l.071.002c.207.012.28-.093.37-.225l.037-.05.005-.058h-.027l-.02-.002-.011-.012c-.016-.01-.032 0-.049.01l-.021-.003v-.002c0-.01.007-.04.051-.11l.09.029.003-.032.005-.01c.014-.006.057.012.09.033l.01.025c.014.014.032.014.05.011a.13.13 0 0 0 .027.047c0 .012.002.024.01.033.012.012.027.01.038.01l.036-.002.006-.023.003-.024-.006-.017-.019-.007-.003-.017.005-.005.006-.015.047.004v-.001c.017.002.033-.009.045-.018l.003-.002.099-.014-.002-.047.005.006.002.006-.002.008c.006-.01.041-.039.209-.124l.012-.008.04.002.002-.024.006-.055-.032.003-.113.013.004-.034v-.007a.044.044 0 0 0-.012-.032c-.015-.017-.039-.02-.064-.02h.002v-.01l.006-.046c.098-.01.206-.108.256-.175l.032.002.011-.095h-.022l.006-.024.01-.003.028-.011.098-.045c.123-.054.204-.093.221-.128l.117-.275-.003-.003c.032-.044.219-.194.275-.207l.017-.004.002-.018v-.007c0-.038-.031-.085-.06-.126l-.018-.027a.572.572 0 0 0 .03-.048c.038-.06.125-.204.153-.22l.01-.007.01-.082-.027-.002Z"/>
    <path fill="#EB222C" d="M23.69 9.69h-3.895V5.797h3.894V9.69Zm.154-4.205h-4.36V10H24V5.485h-.155Z"/>
    <path fill="#2C71BC" d="M7.947 9.204a4.534 4.534 0 0 0-.458-.088l-.009.006-.051.038-.001.006a.164.164 0 0 0-.06.006l.001-.004-.02-.004-.092-.015c-.022-.004-.046.015-.07.033l-.014.01-.032-.043-.009.037-.003.011h-.007c-.003-.009-.016-.012-.068.04a.736.736 0 0 1-.043-.022l-.012.015a.25.25 0 0 1-.058.026l-.003-.003c-.005-.001-.012-.002-.023.01l-.021-.008-.017-.002-.008.01-.047.066h-.005l.001-.029-.054-.009-.012.04-.01-.002-.004.009-.044-.024-.005.023c-.001.004-.01.02-.077.043l-.009.003-.002.009c-.003.009-.017.018-.028.026l-.023.017-.001.004c-.059-.003-.116.021-.172.044l-.078.031-.003.009a.373.373 0 0 1-.074.152l-.014-.016.007-.024-.02-.003c-.029-.005-.05.037-.067.083v-.011l-.015-.002h-.002l.002-.008-.019-.009c-.018-.003-.03.007-.04.02L6.05 9.68l-.014-.005c-.02-.003-.067.017-.162.06l-.101.043-.005.008c-.011.038-.041.066-.073.096a.351.351 0 0 0-.07.077c-.062-.009-.104.001-.153.063l-.01.004c-.009.008-.011.02-.011.034l.002.024-.02-.003.013.03.002.007c-.003.007-.01.01-.029.011l-.01.002.013-.029V10.1l-.033-.013-.002.003c-.004.012-.027.03-.045.044l-.087.08.067-.016.013-.002a1.783 1.783 0 0 0-.008.049c-.069.038-.248.253-.25.256l-.023.042-.016.033c-.013.002-.036.013-.086.05v-.001l-.004-.01-.013-.01c-.031-.006-.039.019-.042.032l-.02.066c-.02.069-.025.084-.108.126l-.005-.065-.03.06-.066.12-.067-.05c-.016.01-.021.026-.025.047l-.018-.003-.004.014-.009-.002-.006.012-.054.092-.052.105-.06.076a.513.513 0 0 0-.134.237c-.068.02-.135.269-.34.634l-.123.209-.008.049v.004c0 .015-.002.02-.026.033l-.006.004-.003.007a.383.383 0 0 1-.084.162l-.006.014-.007.023.007.002a8.464 8.464 0 0 1-.04.07l-.003.02c0 .018.009.035.016.048l.014.03.017.005.008.002a.465.465 0 0 0-.053.166c0 .013.002.026.007.038.008.017.024.026.042.033a.513.513 0 0 0-.047.165l.012-.003-.008.03.019.008.038.007-.011.08.007.002-.008.022c0 .016.005.04.013.072l-.014-.008-.03.13-.01.04-.002.157a.265.265 0 0 1-.04.104l-.004.004v.02l.01.012.004.016.005.018-.005.002-.009.03.042-.009c.033-.008.086.072.114.115l.02.028-.001.002-.028.02.003.005v.003l.011.019v.017l.007.002-.008.063v.008l.036.002-.008.005-.009-.002.022.04.007.003-.001.009.008.022c.047.049.065.081.065.129a.64.64 0 0 1-.026.143l-.003.014-.008.009-.009.012-.001.002a8.88 8.88 0 0 0-.046.059l-.002.007-.002.027.016.007c.032.005.045-.028.055-.055l.023.017.006.017.009-.005.03-.012-.015.049-.003.01.014.007a.086.086 0 0 1-.005.08l-.001.015c0 .024.016.052.039.088l.013.023h-.005l-.006.02.056.01.007-.012.02-.04.016.005.06.007.005.033.016-.001h.098l.004-.012c.012-.037.022-.046.048-.062h.023c.016-.003.02-.002.024.005l.005.005h.003v.001a.3.3 0 0 1-.027.078l-.018.042.023.003.027.005.005-.013.009.002.006-.012.044-.07.005-.01v-.003l.012.006h.003l-.002.014-.014.08-.013.074.02.057.023.062v.002l-.008.021.012.004-.008.026.024-.007.044-.01c.022-.002.07-.001.079.022l.003.01.043.007.012-.014c.006-.018.041-.014.052-.012l.03.01-.005.018.02.003c.018.003.028-.007.035-.02.012.02.03.034.05.042l.02.018.025.023c.06.025.122.01.175-.002l.065-.013.029.049.011-.04c.01-.036.05-.051.121-.05.028.005.051-.033.081-.085l.01-.016.05-.01-.002.008.021.004-.023.057a.364.364 0 0 0-.043.127l-.001.018.045.007.004-.015a.237.237 0 0 1 .06-.089l.003.002h.006l.022.043.01.021.033.005.055-.09.003-.009.055-.01.058-.01.118.008.057-.02c.029-.015.048-.023.061-.013l.021.015.01-.03a.22.22 0 0 0 .053-.03l-.009.017.064.011.003-.009.018.008.036.016.005-.02.01-.03-.02-.006v-.017l.01.006.034.02.006-.023c.006-.02.026-.038.054-.047.033-.011.067-.01.079 0l.02.014.009-.024c.01-.036.08-.057.117-.064l.015-.003.183-.042.03-.004.005-.012.009-.03H6.68l.008-.01c.03-.001.148-.013.18-.025l.007-.004.01-.03.052-.01c.035.008.095-.04.114-.083h.002c.015.01.027-.006.047-.038l.008-.011v.005l.339-.176.02-.014h.021l.003-.015c.01-.049.033-.084.067-.101a.116.116 0 0 1 .11.002l.029.013-.003-.032a.859.859 0 0 1 .013-.155c.015-.016.033-.02.057-.023a.116.116 0 0 0 .074-.031l.022-.031.02-.03.055-.022c.03-.01.062-.019.085-.045a.264.264 0 0 0 .045-.114l.026-.08c.026-.048.234-.166.271-.152l.021.007.002-.011c.043-.025.197-.411.2-.415l.092.012.003-.01v-.004c.093-.016.162-.09.228-.164.06-.068.098-.218.17-.232l.013-.004.001-.015v-.011c0-.026-.007-.043-.021-.054-.028-.02-.069-.004-.102.01l-.027.01-.001.012a.545.545 0 0 0-.178.06v-.004l-.021.002c-.022.002-.043.019-.061.034l-.024.018-.063.025-.003-.005c-.015-.006-.026.005-.034.014l-.005.006c-.095.08-.316.247-.395.252h-.015l-.002.014h-.016l-.008.013c-.008.009-.059.016-.092.015h-.012l-.007.014c-.015.031-.237.167-.274.16-.027 0-.033.011-.035.022l-.039-.011-.01.018c-.002.021-.045.063-.294.122v-.004l-.028-.004-.016.001-.007.014a.23.23 0 0 1-.063.032l-.039.016v.005c-.013 0-.032.011-.065.033a.332.332 0 0 1-.085.046l-.013.001-.002.01a.29.29 0 0 0-.067.017l-.075.02-.005.011a.482.482 0 0 0-.243.065l-.001-.004-.025-.01-.006-.001-.02-.004-.012.014-.034.004-.021.001-.025-.035-.016.028a.332.332 0 0 1-.093.033l-.067.022-.018-.003-.007-.01c-.015-.008-.028.004-.045.026l-.029-.015-.015-.003-.016-.003-.006.015c-.003.01-.024.013-.039.015l-.029.005-.001.008a7.215 7.215 0 0 0-.053-.014l-.126.028-.069-.005-.087-.006c-.163-.036-.362-.196-.395-.39a.5.5 0 0 1-.007-.088c0-.046.005-.094.01-.146l.002-.01.003-.063a.523.523 0 0 1 .016-.132l.055-.134.034-.074.037-.123.052-.1.008-.076.002-.017.013-.053.008-.031v.013a.507.507 0 0 1-.004.064l-.003.018.044.007.005-.012.03-.062.055-.053.107-.134.07-.106a.601.601 0 0 1 .136-.178l.005-.003v-.001l.01.005.034.02.005-.023a.134.134 0 0 0 .006-.04c0-.022-.004-.043-.008-.064l-.002-.01c.01.015.024.03.049.03.057-.005.236-.168.287-.235l.02.014.025.027.016-.023.034-.044a.261.261 0 0 0 .067-.098l.078-.018a.086.086 0 0 0 .025.032l-.005.02.026.007.02.005.009-.025h-.002a.06.06 0 0 0 .023-.035l.006-.019.04-.036.003-.003.017.006h.005c.013.004.06.055.07.075l.02.044.014-.046a.06.06 0 0 1 .035-.041.11.11 0 0 1 .085.006l.01.005.013-.01a.94.94 0 0 1 .174-.053l.11.007a.41.41 0 0 0 .139.004.57.57 0 0 0 .182-.084l.097-.054.135-.045.137-.046c.09-.043.182-.09.252-.141l.15-.13.055-.034a.404.404 0 0 0 .11-.082.435.435 0 0 0 .08-.172l.036-.107.045-.075a.839.839 0 0 0 .022-.525l-.024-.077-.07-.092c-.062-.074-.12-.142-.12-.245a.32.32 0 0 1 .004-.05l.003-.02-.12-.001-.003.014-.005-.008c-.047-.042-.049-.065-.051-.112l-.007-.062.013-.043-.045-.008-.008.015-.003.011-.03-.005.016.036-.004.001c-.028.001-.072-.026-.078-.04l-.003-.009-.038-.007-.005.016-.007.011H8.24l-.016-.003-.002.004a.242.242 0 0 0-.05-.069h-.005l-.007-.013c-.014-.01-.052.025-.052.025a.77.77 0 0 1-.16-.145Z"/>
  </g>
  <defs>
    <clipPath id="a">
      <path fill="#fff" d="M0 0h24v24H0z"/>
    </clipPath>
  </defs>
</svg>
