<svg xmlns="http://www.w3.org/2000/svg" width="24" height="24" fill="none" viewBox="0 0 24 24">
  <g clip-path="url(#a)">
    <g clip-path="url(#b)">
      <path stroke="#231F20" stroke-miterlimit="9" stroke-width=".042" d="M12.03 3.74c-4.518 0-8.18 3.552-8.18 7.932 0 4.38 3.662 7.932 8.18 7.932s8.18-3.551 8.18-7.932c0-4.38-3.662-7.932-8.18-7.932Zm0 13.22c-3.012 0-5.453-2.367-5.453-5.288 0-2.92 2.441-5.288 5.453-5.288 3.012 0 5.453 2.368 5.453 5.288 0 2.92-2.441 5.288-5.453 5.288Z"/>
      <path stroke="#231F20" stroke-miterlimit="9" stroke-width=".068" d="M8.367 11.672h7.385"/>
      <path fill="#231F20" d="M11.212 11.702s.234 2.658-2.22 4.235h2.045s.643-1.022 1.87-.087h1.986s-1.928-.818-2.279-4.148h-1.402Z"/>
      <path stroke="#231F20" stroke-miterlimit="9" stroke-width=".042" d="M7.51 3.902s-.008 1.022.065 1.095m-.54-.788s.043 1.007.131 1.08m-.57-.76s.103.95.205 1.023m-.613-.715s.146.876.277.993m-.672-.628s.219.89.35.964m-.7-.643s.219.877.38.964m-.746-.555s.307.818.468.891m-.877-.38s.439.76.54.803m-.832-.364s.439.642.614.744m-.877-.336s.438.643.614.73m-.847-.248s.51.614.657.687m-.905-.234s.584.599.73.658m-.906-.22s.643.629.73.687m-.905-.132s.686.555.803.585m-.906-.16s.57.496.819.612m-.935.015s.642.409.832.438m-.905.103s.76.38.862.409m-.906.102s.788.336.905.35m-.905.176s.672.262.906.306m-.877.205s.658.204.92.248m-.861.205s.73.262.934.248m-.876.307s.789.19.964.131m-.818.35s.847.103.95.103m-.819.394s.804.073.965.03m-.819.452s.702.044.994.015m-.774.453s.745.029 1.007-.015m-.788.467s.862.044 1.037-.029m-.804.438s.877-.014 1.052-.043m-.745.525s.818-.058 1.066-.102m-.744.54s.89-.131 1.037-.19m-.745.556s.876-.175 1.022-.263m-.657.672s.847-.22 1.051-.321m-.613.7s.672-.262.891-.423m-.511.774s.832-.438.905-.511m-.51.803s.802-.453.86-.555m-.423.862s.833-.54.848-.613m-.395.876s.672-.511.774-.672m-.336.862s.73-.57.76-.672m-.307.905s.76-.598.803-.73m-.306.935s.7-.701.73-.803m-.204.949s.598-.701.628-.818m-.161.935.628-.862m-.102.979s.496-.76.496-.862m-.014.92s.482-.73.496-.876m.044.905s.424-.774.453-.92m.044.935s.438-.818.438-.95m.16.95s.307-.847.307-.979m.22.964s.248-.905.248-1.008m.292.906s.131-.803.131-1.008m.395.92s0-.876-.015-1.007m.482-.161s.059.73.015 1.037m.482-1.198s0 .994-.03 1.037M7.94 3.683s-.058 1.022.03 1.11m.438-1.3s-.059.92 0 1.051m.452-1.241s-.058.993 0 1.051m.453-1.212s-.087.935-.014 1.037m.525-1.154s-.146.95-.073 1.008m.57-1.11s-.117.818-.102.964m.57-1.052s-.132.964-.088 1.008m.628-1.08s-.22.963-.16 1.022m.671-1.037s-.277.847-.219.978m.818-.963s-.424.832-.38.949m.95-.95s-.468.891-.439.964m1.008-.847s-.555.804-.584.906m1.125-.804s-.628.79-.643.848m1.14-.716-.687.833m1.212-.672s-.76.7-.803.76m1.27-.57s-.744.671-.759.73m1.212-.497s-.7.628-.73.672m.424.22s.745-.687.788-.673m-.394.906s.789-.614.847-.614m-.467.848s.89-.526.95-.512m-.57.745s.89-.452.978-.438m-.555.774s.847-.453.92-.438m-.584.745s.935-.395 1.008-.365m-.643.657s.818-.336.95-.292m-.672.672s.934-.336 1.008-.307m-.672.672 1.007-.19m-.744.585s.934-.147.993-.117m-.774.51s.847-.101 1.022-.072m-.803.438s.95-.015 1.022.015m-.818.423s.965-.03 1.008 0m-.803.511s.935-.014.993.015m-.833.453.935-.015m-.847.438s.906.103.964.16m-.847.278s.89.19.92.249m-.89.16s.875.278.92.336m-.892.176s.877.219.92.307m-.905.146s.877.292.906.35m-.92.088s.846.409.876.467m-.906.058s.774.38.833.468m-.92-.059s.803.497.817.6m-.905-.162s.73.512.745.614m-.891-.175s.73.642.73.701m-.876-.234s.657.584.686.687m-.89-.248s.642.657.671.73m-.861-.336s.642.701.642.76m-.89-.322s.583.73.598.789m-.862-.365s.512.613.555.744m-.818-.394s.482.789.482.862m-.818-.511s.453.818.453.905m-.76-.57s.41.804.41.892m-.745-.585s.263.906.306.994m-.715-.643s.306.876.306.935m-.686-.657s.292.89.292.934m-.613-.745s.146.964.131 1.037m-.54-.774.029 1.052m-.467-.832.014 1.05"/>
      <path stroke="#231F20" stroke-miterlimit="9" stroke-width=".068" d="M8.013 8.328s1.71 1.533 3.9.306c0 0 2.235 1.446 3.988-.35 0 0 .964 5.959-3.988 8.544 0 0-4.119-1.928-3.9-8.5Z"/>
      <path stroke="#231F20" stroke-miterlimit="9" stroke-width=".042" d="M12 .683C5.819.683.806 5.603.806 11.672c0 6.07 5.013 10.99 11.196 10.99s11.196-4.92 11.196-10.99C23.197 5.603 18.184.683 12 .683Zm0 19.913c-5.019 0-9.088-3.995-9.088-8.924 0-4.928 4.07-8.923 9.089-8.923 5.02 0 9.089 3.995 9.089 8.923 0 4.929-4.07 8.924-9.09 8.924Z"/>
      <path fill="#231F20" d="M.564 9.22c.125 0 .227-.092.227-.206 0-.114-.102-.207-.227-.207-.126 0-.227.093-.227.207 0 .114.101.207.227.207Zm-.131.672c.125 0 .227-.092.227-.206 0-.114-.102-.207-.227-.207-.126 0-.228.093-.228.207 0 .114.102.206.228.206Zm-.19 2.673c.125 0 .227-.092.227-.206 0-.114-.102-.207-.227-.207-.126 0-.228.093-.228.207 0 .114.102.206.228.206Zm.935 3.886c.125 0 .227-.093.227-.207 0-.114-.102-.206-.227-.206-.126 0-.228.092-.228.206 0 .114.102.207.228.207Zm.292.628c.125 0 .227-.093.227-.207 0-.114-.102-.206-.227-.206-.126 0-.228.092-.228.206 0 .114.102.207.228.207Zm.715 1.14c.126 0 .228-.094.228-.208 0-.114-.102-.206-.228-.206-.125 0-.227.092-.227.207 0 .113.102.206.227.206Zm2.761 2.906c.125 0 .227-.093.227-.207 0-.114-.102-.206-.227-.206s-.227.092-.227.206c0 .114.101.207.227.207Z"/>
      <path fill="#00A650" d="M9.824 23.257c.126 0 .228-.092.228-.207 0-.113-.102-.206-.228-.206-.125 0-.227.093-.227.207 0 .114.102.206.227.206Z"/>
      <path fill="#231F20" d="M9.824 23.257c.126 0 .228-.092.228-.207 0-.113-.102-.206-.228-.206-.125 0-.227.093-.227.207 0 .114.102.206.227.206Z"/>
      <path fill="#00A650" d="M17.785 21.899c.125 0 .227-.093.227-.207 0-.114-.102-.206-.227-.206s-.227.092-.227.206c0 .114.102.207.227.207Z"/>
      <path fill="#00A650" d="M17.785 21.899c.125 0 .227-.093.227-.207 0-.114-.102-.206-.227-.206s-.227.092-.227.206c0 .114.102.207.227.207Z"/>
      <path fill="#231F20" d="M17.785 21.899c.125 0 .227-.093.227-.207 0-.114-.102-.206-.227-.206s-.227.092-.227.206c0 .114.102.207.227.207Zm3.988-3.593c.125 0 .227-.093.227-.207 0-.114-.102-.207-.227-.207-.126 0-.228.093-.228.207 0 .114.102.207.227.207Zm1.898-5.01c.126 0 .227-.093.227-.207 0-.114-.101-.207-.227-.207-.125 0-.227.093-.227.207 0 .114.102.207.227.207Zm.073-.687c.126 0 .228-.092.228-.207 0-.113-.102-.206-.228-.206-.125 0-.227.093-.227.207 0 .114.102.206.227.206Zm-.19 1.344c.126 0 .228-.093.228-.207 0-.114-.102-.206-.227-.206-.126 0-.228.092-.228.206 0 .114.102.207.227.207Zm-.131.672c.126 0 .227-.093.227-.207 0-.114-.101-.206-.227-.206s-.227.092-.227.207c0 .113.101.206.227.206Zm-.19.613c.125 0 .227-.092.227-.206 0-.114-.102-.207-.227-.207s-.227.093-.227.207c0 .114.102.206.227.206Zm-.22.658c.127 0 .228-.093.228-.207 0-.114-.101-.207-.227-.207-.125 0-.227.093-.227.207 0 .114.102.207.227.207Zm.425-6.617c.125 0 .227-.093.227-.207 0-.114-.102-.206-.227-.206-.126 0-.228.092-.228.206 0 .114.102.207.228.207Zm-.161-.628c.125 0 .227-.093.227-.207 0-.114-.102-.206-.227-.206-.126 0-.227.092-.227.206 0 .114.101.207.227.207Zm.307 1.314c.125 0 .227-.092.227-.206 0-.114-.102-.207-.227-.207-.126 0-.228.093-.228.207 0 .114.102.206.228.206Zm.087.658c.126 0 .227-.093.227-.207 0-.114-.101-.207-.227-.207-.125 0-.227.093-.227.207 0 .114.102.207.227.207Zm.059.657c.125 0 .227-.092.227-.207 0-.114-.102-.206-.227-.206-.126 0-.227.092-.227.206 0 .114.101.207.227.207Zm-1.55-5.083c.126 0 .228-.093.228-.207 0-.114-.102-.206-.227-.206-.126 0-.228.092-.228.206 0 .114.102.207.227.207Zm-.35-.599c.125 0 .227-.092.227-.206 0-.114-.102-.207-.227-.207-.126 0-.227.093-.227.207 0 .114.101.206.227.206Zm.672 1.198c.125 0 .227-.093.227-.207 0-.114-.102-.206-.227-.206-.126 0-.227.092-.227.206 0 .114.101.207.227.207Zm.307.584c.125 0 .227-.093.227-.207 0-.114-.102-.206-.227-.206-.126 0-.228.092-.228.207 0 .113.102.206.228.206Zm.233.628c.126 0 .227-.092.227-.206 0-.114-.101-.207-.227-.207-.125 0-.227.093-.227.207 0 .114.102.206.227.206Zm-2.935-4.44c.125 0 .226-.093.226-.207 0-.114-.101-.206-.226-.206-.126 0-.228.092-.228.206 0 .114.102.207.228.207Zm.89.993c.126 0 .228-.092.228-.207 0-.114-.102-.206-.228-.206-.125 0-.227.092-.227.207 0 .114.102.206.227.206Zm.439.511c.125 0 .227-.092.227-.206 0-.114-.102-.207-.227-.207-.126 0-.228.093-.228.207 0 .114.102.206.228.206Z"/>
      <path fill="#231F20" d="M22.503 6.796c.125 0 .227-.093.227-.207 0-.114-.102-.206-.227-.206-.126 0-.227.092-.227.206 0 .114.101.207.227.207Zm-1.943-2.76c.126 0 .227-.093.227-.207 0-.114-.101-.207-.227-.207-.125 0-.227.093-.227.207 0 .114.102.206.227.206Zm-2.074-1.71c.126 0 .227-.092.227-.206 0-.114-.101-.207-.227-.207-.125 0-.227.093-.227.207 0 .114.102.206.227.206Zm-.613-.365c.125 0 .227-.092.227-.207 0-.114-.102-.206-.227-.206-.126 0-.228.092-.228.207 0 .114.102.206.228.206Zm1.709 1.169c.125 0 .227-.093.227-.207 0-.114-.102-.206-.227-.206-.126 0-.228.092-.228.206 0 .114.102.207.228.207ZM15.332.88c.125 0 .226-.092.226-.206 0-.114-.101-.207-.227-.207-.125 0-.227.093-.227.207 0 .114.102.206.227.206Zm1.314.468c.125 0 .227-.093.227-.207 0-.114-.102-.207-.227-.207-.126 0-.228.093-.228.207 0 .114.102.207.228.207Zm.613.263c.126 0 .227-.093.227-.207 0-.114-.101-.207-.227-.207-.125 0-.227.093-.227.207 0 .114.102.207.227.207Zm1.797 1.08c.125 0 .227-.092.227-.206 0-.114-.102-.207-.227-.207-.126 0-.228.093-.228.207 0 .114.102.206.228.206ZM16.003 1.1c.125 0 .227-.092.227-.206 0-.114-.102-.207-.227-.207-.126 0-.227.093-.227.207 0 .114.102.206.227.206Zm7.04 6.91c.126 0 .227-.093.227-.207 0-.114-.101-.207-.227-.207-.125 0-.227.093-.227.207 0 .114.102.206.227.206Zm.73 3.958c.126 0 .228-.093.228-.207 0-.114-.102-.207-.228-.207-.125 0-.227.093-.227.207 0 .114.102.207.227.207Zm-1.022 4.557c.126 0 .227-.093.227-.207 0-.114-.101-.206-.227-.206-.125 0-.227.092-.227.206 0 .114.102.207.227.207Zm-.263.599c.126 0 .227-.093.227-.207 0-.114-.101-.207-.227-.207-.125 0-.227.093-.227.207 0 .114.102.207.227.207Zm-.35.57c.125 0 .227-.093.227-.208 0-.113-.102-.206-.227-.206-.126 0-.228.093-.228.207 0 .114.102.206.228.206Zm-.73 1.124c.125 0 .227-.093.227-.207 0-.114-.102-.206-.228-.206-.125 0-.227.092-.227.206 0 .114.102.207.227.207Zm-.453.54c.125 0 .227-.092.227-.206 0-.114-.102-.207-.227-.207-.126 0-.228.093-.228.207 0 .114.102.207.228.207Zm-.453.497c.125 0 .227-.093.227-.207 0-.114-.102-.206-.227-.206-.126 0-.228.092-.228.207 0 .113.102.206.228.206Zm-.468.438c.126 0 .227-.092.227-.206 0-.114-.101-.207-.227-.207-.125 0-.227.093-.227.207 0 .114.102.206.227.206Zm-.525.453c.125 0 .227-.093.227-.207 0-.114-.102-.206-.227-.206-.126 0-.228.092-.228.206 0 .114.102.207.228.207Zm-.555.409c.125 0 .227-.093.227-.207 0-.114-.102-.206-.228-.206-.125 0-.227.092-.227.206 0 .114.102.207.227.207Zm-.57.394c.125 0 .227-.092.227-.206 0-.114-.102-.207-.227-.207-.126 0-.227.093-.227.207 0 .114.101.206.227.206Zm-1.212.658c.125 0 .227-.093.227-.207 0-.114-.102-.207-.227-.207-.126 0-.228.093-.228.207 0 .114.102.207.228.207Zm-.614.277c.125 0 .227-.092.227-.207 0-.114-.102-.206-.227-.206-.126 0-.227.092-.227.207 0 .114.101.206.227.206Zm-.657.248c.125 0 .227-.092.227-.206 0-.114-.102-.207-.227-.207-.126 0-.227.093-.227.207 0 .114.101.206.227.206Zm-.643.22c.126 0 .227-.093.227-.207 0-.114-.101-.207-.227-.207-.125 0-.227.093-.227.207 0 .114.101.207.227.207Zm-.657.16c.125 0 .227-.092.227-.207 0-.113-.102-.206-.227-.206-.126 0-.228.093-.228.206 0 .115.102.207.228.207Zm-.687.132c.126 0 .228-.093.228-.207 0-.114-.102-.207-.228-.207-.125 0-.227.093-.227.207 0 .114.102.207.227.207Zm-.642.102c.125 0 .227-.093.227-.207 0-.114-.102-.206-.227-.206-.126 0-.228.092-.228.206 0 .114.102.207.228.207Zm-.672.058c.125 0 .227-.092.227-.206 0-.114-.102-.207-.227-.207-.126 0-.227.093-.227.207 0 .114.101.206.227.206Zm-.745.03c.125 0 .227-.093.227-.207 0-.114-.102-.207-.227-.207-.126 0-.227.093-.227.207 0 .114.101.207.227.207Zm-.672-.03c.125 0 .227-.092.227-.206 0-.114-.102-.207-.227-.207-.126 0-.227.093-.227.207 0 .114.101.206.227.206Zm-.701-.044c.125 0 .227-.092.227-.206 0-.114-.102-.207-.227-.207-.126 0-.227.093-.227.207 0 .114.101.206.227.206Zm-1.3-.248c.125 0 .227-.092.227-.207 0-.113-.102-.206-.227-.206-.126 0-.228.093-.228.206 0 .115.102.207.228.207Zm-.657-.16c.125 0 .227-.093.227-.207 0-.114-.102-.207-.227-.207-.126 0-.228.093-.228.207 0 .114.102.207.228.207Zm-.629-.263c.126 0 .228-.093.228-.207 0-.114-.102-.207-.228-.207-.125 0-.227.093-.227.207 0 .114.102.207.227.207Zm-.613-.19c.126 0 .227-.093.227-.207 0-.114-.101-.207-.227-.207-.125 0-.227.093-.227.207 0 .114.102.207.227.207Zm-.628-.307c.125 0 .227-.093.227-.207 0-.114-.102-.206-.227-.206-.126 0-.227.092-.227.206 0 .114.101.207.227.207Zm-.599-.322c.126 0 .227-.092.227-.206 0-.114-.101-.207-.227-.207s-.227.093-.227.207c0 .114.101.206.227.206Zm-.57-.335c.126 0 .228-.093.228-.207 0-.114-.102-.207-.228-.207-.125 0-.227.093-.227.207 0 .114.102.207.227.207ZM4.42 20.73c.126 0 .227-.092.227-.206 0-.114-.101-.207-.227-.207-.125 0-.227.093-.227.207 0 .114.102.206.227.206Zm-.511-.438c.125 0 .227-.092.227-.206 0-.114-.102-.207-.227-.207-.126 0-.227.093-.227.207 0 .114.101.206.227.206Z"/>
      <path fill="#00A650" d="M3.412 19.796c.126 0 .227-.093.227-.207 0-.114-.101-.207-.227-.207-.125 0-.227.093-.227.207 0 .114.102.207.227.207Z"/>
      <path fill="#231F20" d="M3.412 19.796c.126 0 .227-.093.227-.207 0-.114-.101-.207-.227-.207-.125 0-.227.093-.227.207 0 .114.102.207.227.207Zm-.438-.497c.126 0 .227-.093.227-.207 0-.114-.101-.206-.227-.206-.125 0-.227.092-.227.206 0 .114.102.207.227.207Zm-.394-.511c.125 0 .227-.093.227-.207 0-.114-.102-.206-.227-.206-.126 0-.228.092-.228.206 0 .114.102.207.228.207Zm-.76-1.11c.126 0 .227-.093.227-.207 0-.114-.101-.206-.227-.206-.125 0-.227.092-.227.206 0 .114.102.207.227.207Zm-.891-1.84c.126 0 .227-.093.227-.208 0-.114-.101-.206-.227-.206-.125 0-.227.092-.227.206 0 .115.102.207.227.207Zm-.628-2.6c.126 0 .227-.093.227-.207 0-.114-.101-.207-.227-.207-.125 0-.227.093-.227.207 0 .114.102.206.227.206Zm.088.671c.125 0 .227-.092.227-.207 0-.114-.102-.206-.227-.206-.126 0-.228.092-.228.206 0 .115.102.207.228.207Zm.16.658c.126 0 .228-.093.228-.207 0-.114-.102-.207-.227-.207-.126 0-.228.093-.228.207 0 .114.102.207.228.207Zm.161.642c.126 0 .227-.092.227-.207 0-.113-.101-.206-.227-.206-.125 0-.227.093-.227.207 0 .114.102.206.227.206Zm-.482-3.316c.126 0 .227-.092.227-.206 0-.114-.101-.207-.227-.207-.125 0-.227.093-.227.207 0 .114.102.207.227.207Zm.015-.657c.125 0 .227-.092.227-.207 0-.114-.102-.206-.227-.206-.126 0-.228.092-.228.207 0 .114.102.206.228.206Zm.087-.657c.126 0 .227-.093.227-.207 0-.114-.101-.206-.227-.206-.125 0-.227.092-.227.207 0 .113.102.206.227.206Zm2.702-6.062c.126 0 .228-.092.228-.207 0-.113-.102-.206-.228-.206-.125 0-.227.093-.227.207 0 .114.102.206.227.206Zm-.423.526c.125 0 .227-.092.227-.207 0-.114-.102-.206-.227-.206s-.227.092-.227.207c0 .114.102.206.227.206ZM1.192 7.322c.126 0 .227-.093.227-.207 0-.114-.101-.206-.227-.206-.125 0-.227.092-.227.206 0 .114.102.207.227.207ZM15.332.88c.125 0 .226-.092.226-.206 0-.114-.101-.207-.227-.207-.125 0-.227.093-.227.207 0 .114.102.206.227.206ZM.943 7.935c.125 0 .227-.092.227-.206 0-.114-.102-.207-.227-.207-.126 0-.227.093-.227.207 0 .114.101.206.227.206Zm-.205.672c.126 0 .227-.092.227-.207 0-.114-.101-.206-.227-.206-.125 0-.227.092-.227.206 0 .115.102.207.227.207Zm.745-1.884c.126 0 .227-.093.227-.207 0-.114-.101-.206-.227-.206-.125 0-.227.092-.227.206 0 .114.102.207.227.207Zm.336-.614c.126 0 .227-.092.227-.206 0-.114-.101-.207-.227-.207-.125 0-.227.093-.227.207 0 .114.102.206.227.206Zm.38-.526c.126 0 .227-.092.227-.206 0-.114-.101-.207-.227-.207s-.227.093-.227.207c0 .114.101.206.227.206Zm4.542-3.987c.126 0 .228-.092.228-.207 0-.114-.102-.206-.228-.206-.125 0-.227.092-.227.207 0 .114.102.206.227.206Zm-.598.336c.125 0 .227-.092.227-.207 0-.114-.102-.206-.228-.206-.125 0-.227.092-.227.207 0 .114.102.206.228.206ZM3.967 3.524c.126 0 .228-.092.228-.207 0-.114-.102-.206-.228-.206-.125 0-.227.092-.227.206 0 .115.102.207.227.207Zm-.467.482c.125 0 .227-.093.227-.207 0-.113-.102-.206-.227-.206-.126 0-.227.093-.227.206 0 .114.101.207.227.207Zm.993-.92c.126 0 .227-.093.227-.207 0-.114-.101-.206-.227-.206-.125 0-.227.092-.227.206 0 .114.102.207.227.207Zm.511-.424c.126 0 .227-.092.227-.206 0-.114-.101-.207-.227-.207-.125 0-.227.093-.227.207 0 .114.102.206.227.206Zm.57-.365c.126 0 .227-.092.227-.207 0-.114-.101-.206-.227-.206-.125 0-.227.092-.227.207 0 .114.102.206.227.206Zm5.711-1.87c.125 0 .227-.092.227-.206 0-.114-.102-.207-.227-.207s-.227.093-.227.207c0 .114.102.207.227.207Zm-.672.03c.126 0 .227-.093.227-.207 0-.114-.101-.206-.227-.206-.125 0-.227.092-.227.206 0 .114.102.207.227.207ZM8 1.099c.125 0 .227-.092.227-.206 0-.114-.102-.207-.227-.207-.126 0-.228.093-.228.207 0 .114.102.206.228.206Zm-.628.234c.125 0 .227-.092.227-.207 0-.114-.102-.206-.227-.206-.126 0-.228.092-.228.207 0 .114.102.206.228.206ZM8.64.866c.126 0 .228-.093.228-.207 0-.114-.102-.206-.228-.206-.125 0-.227.092-.227.206 0 .114.102.207.227.207Zm.643-.16c.126 0 .227-.094.227-.208 0-.113-.101-.206-.227-.206s-.227.093-.227.207c0 .113.101.206.227.206Zm.643-.132c.125 0 .227-.093.227-.207 0-.114-.102-.207-.227-.207-.126 0-.228.093-.228.207 0 .114.102.207.228.207Z"/>
      <path fill="#231F20" d="M6.742 1.596c.126 0 .228-.092.228-.207 0-.114-.102-.206-.228-.206-.125 0-.227.092-.227.207 0 .114.102.206.228.206Zm5.23-1.183c.125 0 .227-.093.227-.207 0-.114-.102-.206-.227-.206-.126 0-.228.092-.228.206 0 .114.102.207.228.207Zm.686 0c.126 0 .227-.093.227-.207 0-.114-.101-.206-.227-.206-.125 0-.227.092-.227.206 0 .114.102.207.227.207Zm2.016.292c.126 0 .227-.093.227-.207 0-.113-.101-.206-.227-.206s-.227.093-.227.206c0 .114.101.207.227.207Zm-.657-.131c.125 0 .227-.093.227-.207 0-.114-.102-.207-.227-.207-.126 0-.228.093-.228.207 0 .114.102.207.228.207ZM13.345.47c.125 0 .227-.092.227-.206 0-.114-.102-.207-.227-.207-.126 0-.228.093-.228.207 0 .114.102.207.227.207Zm-1.04.75-.278-.011.006-.157.666.024-.006.157-.278-.01-.045 1.239-.11-.004.045-1.239Zm.744-.113.11.014-.077.594.435.056.077-.593.11.014-.18 1.385-.11-.014.083-.636-.436-.056-.082.635-.11-.014.18-1.385Zm1.099.167.562.129-.035.153-.454-.104-.098.43.422.097-.035.153-.422-.096-.109.471.458.105-.035.153-.566-.13.312-1.36Zm.687.881c.06-.18.146-.33.258-.451.11-.12.229-.16.354-.117.126.042.197.145.213.308.017.162-.006.334-.067.515-.06.18-.146.331-.257.451-.111.12-.23.16-.356.117-.125-.042-.195-.144-.212-.307a1.227 1.227 0 0 1 .067-.516Zm.105.036c-.044.127-.064.26-.061.395.004.13.054.21.151.243.096.032.184-.003.266-.103.082-.101.146-.218.19-.352a1.08 1.08 0 0 0 .06-.395c-.003-.13-.054-.211-.15-.243-.096-.033-.185.001-.267.103a1.13 1.13 0 0 0-.189.352Zm1.163-.375.101.045-.504 1.133.405.18-.064.144-.507-.226.57-1.276Zm.295.884c.09-.168.2-.302.329-.402.129-.1.252-.12.368-.058.117.062.17.175.16.339-.01.163-.06.329-.15.497a1.23 1.23 0 0 1-.329.403c-.13.1-.252.12-.37.057-.116-.062-.17-.175-.158-.338.01-.163.06-.329.15-.498Zm.098.052a1.13 1.13 0 0 0-.125.38c-.018.129.019.217.109.265.089.047.182.028.28-.058.1-.09.183-.196.245-.316.064-.118.106-.247.125-.38.016-.129-.02-.217-.109-.264-.09-.048-.183-.029-.28.057-.1.09-.183.197-.245.316Zm1.029 1.185a.362.362 0 0 1-.192.062.262.262 0 0 1-.15-.046c-.1-.072-.138-.187-.112-.345a1.1 1.1 0 0 1 .196-.458 1.33 1.33 0 0 1 .391-.38c.142-.085.266-.09.373-.015a.308.308 0 0 1 .129.227c.011.098-.023.22-.105.363l-.09-.064a.398.398 0 0 0 .064-.242.219.219 0 0 0-.09-.156c-.081-.058-.176-.05-.283.025a1.213 1.213 0 0 0-.293.298.961.961 0 0 0-.164.36c-.025.12 0 .206.075.258.07.05.151.053.242.009a.624.624 0 0 0 .243-.226l-.22-.155.09-.125.299.212-.424.599-.058-.041.079-.16Zm1.118-.667.084.072-.911 1.059-.084-.072.91-1.06Zm.495.98a.399.399 0 0 0 .108-.21.196.196 0 0 0-.047-.164c-.068-.073-.16-.086-.274-.04a1.096 1.096 0 0 0-.334.217c-.119.11-.205.22-.26.33-.054.11-.047.202.02.275.05.054.117.07.201.049a.684.684 0 0 0 .26-.142l.073.08a.874.874 0 0 1-.375.198c-.115.022-.208-.006-.279-.083-.088-.096-.102-.215-.04-.358.06-.143.165-.283.314-.42.149-.138.299-.23.45-.28.152-.05.272-.027.359.068.06.064.082.146.07.247a.592.592 0 0 1-.171.315l-.075-.081Zm.833.124.074.098-.917 1.104-.074-.098.28-.328-.212-.281-.393.178-.068-.09 1.31-.583Zm-.703.427.171.227.434-.502v-.002l-.605.277Zm1.14.113.065.09-1.003.728.26.359-.127.092-.326-.449 1.13-.82Zm.379 2.11c-.153.089-.283.13-.391.127a.269.269 0 0 1-.24-.14.288.288 0 0 1-.013-.282c.044-.096.148-.19.31-.284L21.224 6l.055.096-.771.445a.555.555 0 0 0-.216.194.19.19 0 0 0 0 .198c.035.06.09.09.166.09a.577.577 0 0 0 .275-.093l.771-.445.054.095-.771.445Zm.972-.127.048.108-.858.861.001.002 1.036-.46.042.097-1.276.566-.05-.111.85-.853-.002-.004-1.026.455-.042-.095 1.277-.566Zm.418 1.01.037.104-1.317.467-.037-.105 1.317-.466Zm-1.09 1.185-.033-.12 1.267-.659.032.117-1.104.55v.004l1.233-.09.031.113-1.426.085Zm1.582.245.103.568-.155.027-.082-.458-.435.079.077.426-.155.028-.077-.427-.476.086.083.462-.154.028-.103-.57 1.374-.249Zm.154.968.033.39a.214.214 0 0 1-.084.194.472.472 0 0 1-.26.089.654.654 0 0 1-.222-.016.228.228 0 0 1-.144-.097h-.004c-.01.05-.04.084-.092.104a.873.873 0 0 1-.183.045c-.068.01-.137.02-.206.028a.417.417 0 0 0-.173.054l-.01-.125a.286.286 0 0 1 .14-.033 1.364 1.364 0 0 0 .373-.074c.048-.02.07-.057.065-.111l-.022-.271-.593.05-.01-.111 1.393-.117m-.615.396a.204.204 0 0 0 .06.131c.037.036.106.05.208.04a.356.356 0 0 0 .165-.049.12.12 0 0 0 .057-.119l-.023-.275-.486.041.02.23Zm.268 1.147a.376.376 0 0 0 .219-.062.18.18 0 0 0 .07-.142.188.188 0 0 0-.05-.127c-.033-.04-.096-.06-.189-.062-.085-.001-.14.026-.169.08a2.215 2.215 0 0 0-.08.182.586.586 0 0 1-.122.183c-.054.055-.149.082-.286.08-.149-.003-.256-.04-.32-.111a.322.322 0 0 1-.094-.223.307.307 0 0 1 .122-.239c.08-.066.205-.098.375-.095l-.002.102c-.115-.002-.2.022-.255.072a.226.226 0 0 0-.083.167.23.23 0 0 0 .05.144c.032.046.1.07.203.071.095.002.158-.025.19-.08.032-.054.061-.115.088-.181a.618.618 0 0 1 .11-.182c.047-.056.134-.083.26-.081.143.002.247.036.312.1a.284.284 0 0 1 .097.21.265.265 0 0 1-.11.213c-.074.056-.186.086-.338.087l.002-.106Zm.376.522-.01.11-1.392-.122.01-.11 1.392.122Zm-.239.688.044-.275.155.024-.103.66-.156-.025.044-.275-1.225-.192.017-.11 1.224.193Zm-.784.801-.555-.14.028-.108.555.14.878-.11-.032.128-.705.081.583.4-.031.121-.72-.512Zm-.853 1.263a.347.347 0 0 1-.08-.162.213.213 0 0 1 .021-.142c.056-.098.134-.136.235-.114a.828.828 0 0 1 .227.076.5.5 0 0 1 .197.176c.036.063.062.13.077.2l.162.02a.466.466 0 0 1 .167.061.407.407 0 0 1 .152.142c.034.056.036.11.007.163-.026.046-.07.074-.131.087-.062.012-.134-.005-.217-.052a.46.46 0 0 1-.165-.146.56.56 0 0 1-.076-.166l-.338-.02a.823.823 0 0 0 .176.131l-.046.083a1.465 1.465 0 0 1-.155-.108 1.95 1.95 0 0 1-.12-.112l-.354-.012.064-.114.197.009Zm.554.03a.67.67 0 0 0-.058-.148.35.35 0 0 0-.144-.13.28.28 0 0 0-.173-.042c-.055.006-.091.027-.111.062a.134.134 0 0 0-.01.111.35.35 0 0 0 .07.124l.426.023Zm.147.12a.8.8 0 0 0 .047.112.256.256 0 0 0 .107.104c.035.02.07.03.104.029.035-.002.06-.015.073-.04.013-.021.013-.046.003-.075-.01-.03-.039-.057-.085-.083a.29.29 0 0 0-.12-.036l-.129-.011Zm-.566 1.413c.09.043.164.06.222.049a.176.176 0 0 0 .13-.093.19.19 0 0 0 .015-.135c-.011-.051-.057-.099-.138-.144-.074-.04-.136-.043-.187-.008-.05.035-.102.076-.157.122a.583.583 0 0 1-.193.104c-.073.024-.17.002-.29-.064-.13-.072-.207-.155-.23-.248a.324.324 0 0 1 .021-.24.308.308 0 0 1 .22-.154c.103-.02.228.01.377.091l-.05.09c-.101-.056-.188-.074-.259-.056a.226.226 0 0 0-.152.108.235.235 0 0 0-.024.15c.008.057.056.11.146.159.083.046.152.053.206.02.053-.034.108-.074.162-.12a.619.619 0 0 1 .183-.11c.068-.026.158-.009.268.053.125.068.201.146.229.234a.286.286 0 0 1-.014.232.265.265 0 0 1-.198.134c-.09.016-.204-.01-.338-.08l.051-.094Zm.085.647-.323.477-.13-.088.26-.385-.365-.248-.243.358-.13-.088.243-.358-.4-.272-.263.389-.13-.089.325-.48 1.156.784Zm-.569.811-.098.116-1.066-.556.726.96-.1.116-1.066-.901.069-.082.887.75.002-.003-.72-.947.061-.072 1.055.55.002-.003-.886-.749.067-.08 1.067.901Zm-.845.947-.078.079-.988-.988.078-.078.988.987Zm-.374.37-.09.077-1.072-.571-.002.001.74.858-.08.068-.912-1.058.092-.078 1.062.566.004-.003-.733-.85.079-.07.912 1.06Zm-1.04.834-.101.07-1.073-.952.1-.071.319.29.288-.202-.165-.4.093-.064.538 1.329Zm-.404-.717-.233.164.488.45h.002l-.257-.614Zm-.255 1.156-.34.193a.213.213 0 0 1-.21.006.47.47 0 0 1-.191-.2.652.652 0 0 1-.08-.207.229.229 0 0 1 .028-.171l-.002-.004c-.048.012-.092-.001-.133-.04a.862.862 0 0 1-.117-.147 4.384 4.384 0 0 1-.112-.176.421.421 0 0 0-.122-.134l.109-.061a.281.281 0 0 1 .089.113 1.427 1.427 0 0 0 .225.307c.038.035.08.04.127.012l.237-.134-.295-.517.097-.054.69 1.214Zm-.616-.392a.202.202 0 0 0-.094.11c-.017.048 0 .116.05.205.034.06.072.103.115.13a.12.12 0 0 0 .132.001l.24-.136-.242-.424-.201.114Zm-.975.29-.234-.523.101-.045.234.523.633.62-.122.054-.5-.503.048.705-.114.051-.046-.882Zm-1.352.194.119-.018.027.184-.12.017-.026-.183Zm-5.295.06.119.025-.04.181-.118-.026.04-.18Zm-1.632.705-.336-.146a.209.209 0 0 1-.131-.177.587.587 0 0 1 .06-.302.601.601 0 0 1 .18-.253.205.205 0 0 1 .219-.025l.234.102.228-.525.102.044-.556 1.282Zm.164-.657-.2-.086c-.057-.026-.108-.025-.152.003a.352.352 0 0 0-.116.16.341.341 0 0 0-.036.191c.01.05.044.089.101.114l.2.087.203-.469Zm-1.09.233-.343-.189a.213.213 0 0 1-.115-.178.47.47 0 0 1 .07-.266.663.663 0 0 1 .137-.176.229.229 0 0 1 .16-.065l.002-.004c-.036-.035-.047-.08-.035-.134a.835.835 0 0 1 .065-.177c.029-.063.06-.126.09-.187a.42.42 0 0 0 .052-.174l.11.06a.29.29 0 0 1-.051.135 1.355 1.355 0 0 0-.145.353c-.01.05.008.089.055.115l.238.132.288-.52.097.053-.676 1.222Zm.012-.73a.201.201 0 0 0-.143-.023c-.05.01-.1.06-.149.15a.359.359 0 0 0-.05.165.12.12 0 0 0 .067.113l.241.134.236-.427-.202-.112Zm-.934.195-.477-.325.09-.13.384.263.249-.364-.358-.245.089-.13.358.245.272-.4-.387-.265.089-.13.479.328-.788 1.153Zm-.907-1.187c-.06.08-.089.15-.089.209a.178.178 0 0 0 .066.144.19.19 0 0 0 .131.041c.052-.001.108-.038.167-.109.054-.065.068-.126.043-.182a2.223 2.223 0 0 0-.091-.177.587.587 0 0 1-.067-.21c-.01-.075.03-.166.117-.272.095-.115.19-.175.287-.18a.324.324 0 0 1 .232.066c.071.059.108.14.11.245.001.104-.052.222-.16.352l-.079-.066c.074-.088.108-.17.104-.243a.227.227 0 0 0-.078-.17.235.235 0 0 0-.144-.052c-.057-.002-.118.036-.183.114-.06.074-.08.14-.057.2.023.058.052.119.088.181a.62.62 0 0 1 .073.2c.013.072-.02.156-.101.254-.09.11-.182.17-.273.18a.285.285 0 0 1-.225-.056.266.266 0 0 1-.096-.22c.002-.091.049-.198.143-.317l.082.068Zm-.66-.045-.214-.215a1.33 1.33 0 0 1-.078-.088.175.175 0 0 1-.044-.103c0-.039.01-.083.032-.131a.507.507 0 0 1 .106-.145.511.511 0 0 1 .16-.113.279.279 0 0 1 .152-.022l.003-.003a.198.198 0 0 1-.002-.164.528.528 0 0 1 .127-.185.589.589 0 0 1 .242-.15c.09-.027.163-.012.22.046l.286.287-.99.986Zm.8-.953-.194-.196a.132.132 0 0 0-.13-.035.345.345 0 0 0-.16.098c-.064.065-.095.121-.092.17.003.05.021.09.054.124l.18.18.342-.341Zm-.454.452-.156-.158c-.045-.044-.09-.063-.136-.056a.272.272 0 0 0-.145.086c-.07.07-.102.126-.095.168.009.043.03.083.063.114l.156.157.313-.311Zm-.661-1.059.443-.362.07.086-.443.362-.433.774-.084-.104.354-.614-.668.23-.08-.096.84-.276Zm-1.021-.253.156.23-.13.088-.374-.552.13-.088.156.23 1.026-.695.062.092-1.026.695Zm-.525-.526-.28-.504.138-.077.226.408.386-.215-.21-.378.137-.077.21.38.423-.236-.228-.41.138-.076.282.507-1.222.678Zm-.455-.86-.156-.358a.213.213 0 0 1 .017-.21.468.468 0 0 1 .218-.169.656.656 0 0 1 .215-.056.228.228 0 0 1 .167.046l.004-.002c-.007-.05.011-.092.054-.128a.882.882 0 0 1 .159-.1c.062-.033.124-.064.187-.094a.418.418 0 0 0 .146-.106l.05.114a.287.287 0 0 1-.122.076 1.404 1.404 0 0 0-.33.191c-.039.035-.048.076-.026.126l.108.25.546-.238.044.102-1.281.557Zm.455-.57a.202.202 0 0 0-.1-.106c-.045-.022-.115-.012-.208.028a.366.366 0 0 0-.142.1.12.12 0 0 0-.015.131l.11.254.447-.195-.092-.213Zm-.848-.4-.036-.104 1.32-.46.035.105-1.319.46Zm-.225-.716-.032-.12 1.263-.68.032.12-.382.198.091.34.432-.017.03.109-1.434.05Zm.811-.133-.073-.275-.59.303v.002l.663-.03Zm-.999-.64-.019-.118 1.048-.616v-.002l-1.119.182-.017-.103 1.379-.225.02.12-1.039.61.001.004 1.108-.181.017.103-1.379.225Zm.997-2.483a.366.366 0 0 1 .155.127c.031.05.046.1.044.15-.005.125-.08.219-.227.283-.147.064-.31.093-.49.087a1.328 1.328 0 0 1-.533-.12c-.149-.072-.221-.173-.216-.304a.309.309 0 0 1 .12-.232c.076-.064.196-.1.36-.11l-.004.11a.4.4 0 0 0-.238.078.216.216 0 0 0-.081.16c-.004.101.055.176.176.225.13.05.27.078.41.081a.96.96 0 0 0 .39-.058c.114-.045.173-.114.176-.205.003-.086-.039-.155-.126-.207a.619.619 0 0 0-.321-.08l-.01.268-.153-.005.013-.367.733.027-.002.07-.177.022Zm-1.174-.58.08-.571.155.021-.064.461.437.061.06-.43.155.022-.06.43.48.067.065-.466.155.022-.08.575-1.383-.192Zm.155-.968.028-.115 1.204-.16v-.002l-1.1-.267.024-.102 1.358.33-.028.117-1.194.158-.001.004 1.09.265-.024.101-1.357-.329Zm.288-1.08.191-.543.148.052-.154.439.417.146.143-.409.149.052-.144.41.457.16.155-.444.148.052-.192.548-1.318-.463Zm.341-.917.165-.355a.214.214 0 0 1 .169-.127c.08-.013.17.004.27.051a.66.66 0 0 1 .186.124c.049.048.074.1.076.155l.004.002c.032-.039.076-.053.132-.045a.851.851 0 0 1 .18.052c.066.024.13.05.194.077.064.028.123.04.177.039l-.053.113a.285.285 0 0 1-.138-.04 1.38 1.38 0 0 0-.362-.12c-.051-.006-.088.015-.11.064l-.115.247.54.25-.047.1-1.268-.587Zm.73-.04a.202.202 0 0 0 .012-.144c-.014-.049-.067-.094-.16-.137a.36.36 0 0 0-.168-.04.12.12 0 0 0-.108.076l-.116.25.442.206.098-.21ZM2.496 6.56l.063-.106 1.37.426-.063.106-.41-.134-.18.304.316.296-.058.097-1.038-.99Zm.663.487.144-.245-.63-.21v.002l.486.453ZM2.915 5.89l.064-.09 1.007.723.259-.36.128.091-.324.45-1.134-.814ZM4.19 4.318l.087-.087L5.5 4.98l-.087.087-.365-.23-.247.25.232.364-.079.08-.765-1.213Zm.524.634.2-.202-.56-.357v.001l.36.558Zm.672-1.173c-.068-.073-.131-.114-.19-.125a.177.177 0 0 0-.153.039.188.188 0 0 0-.064.12c-.008.052.018.113.077.185.054.065.111.09.17.075.06-.015.124-.034.192-.058a.596.596 0 0 1 .218-.027c.076.004.158.059.246.164.096.114.138.219.126.314a.324.324 0 0 1-.107.217.308.308 0 0 1-.26.064c-.104-.018-.21-.091-.318-.22L5.4 4.46c.075.089.148.137.222.146a.226.226 0 0 0 .18-.046.236.236 0 0 0 .077-.131c.013-.056-.013-.123-.079-.201-.061-.073-.123-.104-.185-.092-.066.012-.131.03-.195.053a.618.618 0 0 1-.209.036c-.074 0-.15-.048-.232-.145-.091-.11-.134-.21-.128-.302a.285.285 0 0 1 .096-.21.265.265 0 0 1 .233-.055c.09.018.186.084.287.198l-.082.068Zm.784-.575a.368.368 0 0 0-.176-.142.178.178 0 0 0-.157.025.19.19 0 0 0-.075.114c-.013.05.007.114.06.19.048.07.102.1.163.09.06-.009.126-.022.195-.039a.587.587 0 0 1 .22-.007c.075.012.152.074.23.187.085.122.117.23.095.324a.323.323 0 0 1-.126.206.308.308 0 0 1-.266.04c-.1-.028-.199-.11-.295-.25l.085-.058c.065.095.134.15.206.166a.226.226 0 0 0 .184-.03.235.235 0 0 0 .089-.123c.018-.054-.002-.123-.06-.207-.054-.079-.113-.115-.175-.11a1.392 1.392 0 0 0-.2.035.616.616 0 0 1-.211.016c-.073-.006-.146-.061-.218-.166-.08-.117-.114-.22-.1-.311a.286.286 0 0 1 .116-.201.265.265 0 0 1 .237-.033c.089.026.178.1.267.224l-.088.06Zm.215-.619.503-.283.076.137-.405.229.216.384.378-.212.077.137-.378.212.238.422.409-.23.077.136-.506.285-.685-1.217Zm.865-.47.138-.06.708.973-.223-1.182.14-.06.555 1.282-.098.042-.46-1.066-.004.002.223 1.168-.087.038-.699-.963-.004.002.461 1.066-.096.041-.554-1.282Zm1.2-.483.289-.089c.034-.01.072-.02.114-.029a.175.175 0 0 1 .112.01.307.307 0 0 1 .1.09.504.504 0 0 1 .08.16.51.51 0 0 1 .025.195.278.278 0 0 1-.052.145l.002.004c.053 0 .102.025.146.074a.53.53 0 0 1 .104.199.59.59 0 0 1 .02.284c-.017.091-.065.15-.143.173l-.387.12-.41-1.336Zm.47 1.153.264-.082a.131.131 0 0 0 .091-.098.34.34 0 0 0-.013-.187c-.026-.088-.062-.141-.107-.161a.188.188 0 0 0-.135-.01l-.243.075.143.463Zm-.189-.613.212-.065c.06-.019.098-.05.114-.094a.273.273 0 0 0-.009-.168c-.03-.095-.064-.15-.104-.162a.214.214 0 0 0-.13.002l-.212.065.13.422Zm.739-.831.108-.023.256 1.213.434-.091.032.154-.542.114L9.47 1.34Zm1.331.607.069.568-.11.014-.069-.569-.42-.78.132-.015.33.628.162-.688.124-.014-.218.856ZM5.893 9.971c.01.08.01.186 0 .316a1.712 1.712 0 0 1-.057.345l-1.139-.324.138-.484.162.046-.098.342.795.227a1.06 1.06 0 0 0 .034-.246c.004-.08.004-.161-.002-.242l.167.02Zm.665-.375-.04.14-.8-.23-.059.203.708.202-.04.14-1.646-.47.04-.14.777.222.057-.202-.837-.239.04-.14 1.8.514ZM6.287 6.95l-.248.269-.112-.103.249-.269.11.103Zm.383-.013-.607.659-.111-.103.607-.659.111.103Zm.584-.108-.152.165.43.397-.1.108-1.069-.985.1-.108.515.474.152-.165.124.114Zm-.826.508a.45.45 0 0 1 .234-.145c.083-.018.163.008.24.078.076.072.111.151.103.239a.424.424 0 0 1-.121.249.438.438 0 0 1-.24.143c-.086.016-.169-.01-.246-.082-.077-.071-.11-.15-.097-.236a.462.462 0 0 1 .127-.246Zm1.427.255-.7.76-.377-.349.098-.106.253.233.602-.652.124.114m-1.081.065a.265.265 0 0 0 .078-.152.146.146 0 0 0-.05-.126.13.13 0 0 0-.124-.034.29.29 0 0 0-.14.093.3.3 0 0 0-.083.149.127.127 0 0 0 .041.122c.036.034.08.045.132.036.052-.01.1-.04.146-.088ZM7.98 5.485c.104-.051.204-.027.301.073.098.1.184.225.26.377.074.153.12.293.135.422.015.13-.029.22-.132.27-.102.051-.197.032-.287-.055a1.29 1.29 0 0 1-.248-.358 1.567 1.567 0 0 1-.147-.441c-.023-.142.016-.238.118-.288ZM9.286 6.6l-.133.065-.258-.524-.177.087-.075-.15.178-.088-.145-.293-.175.087-.074-.15.176-.086-.212-.43.132-.065.763 1.547Zm.274-.044-.134.066-.829-1.679.135-.066.828 1.68Zm-1.088-.075c.057-.03.075-.09.052-.182a1.783 1.783 0 0 0-.288-.586c-.063-.083-.124-.11-.183-.081-.055.027-.07.09-.043.19.026.1.067.205.121.315.054.11.11.201.168.275.059.074.116.096.173.069Zm2.494-1.866a.954.954 0 0 0 .172.075.583.583 0 0 0 .2.032l-.066.164a.873.873 0 0 1-.167-.038 1.476 1.476 0 0 1-.153-.06 1.019 1.019 0 0 1-.127-.069 1.053 1.053 0 0 1-.154-.128 1.24 1.24 0 0 1-.072.164 1.179 1.179 0 0 1-.2.251 1.3 1.3 0 0 1-.121.093l-.153-.109a1.075 1.075 0 0 0 .289-.247.969.969 0 0 0 .108-.188.428.428 0 0 0 .02-.27l.16-.01v.072a.11.11 0 0 0 .01.057.32.32 0 0 0 .1.108c.046.036.098.07.154.103Zm.543.574-.615.112.147.811-.146.027-.148-.811-.613.111-.03-.165 1.374-.25.03.165Zm2.262-.592a5.512 5.512 0 0 1-.102.55c-.03.123-.063.245-.097.367l-.149-.044a5.183 5.183 0 0 0 .171-.728l-.961-.137.023-.166 1.115.158Zm-.067 1.361-1.385-.197.024-.167.369.053.082-.58.148.022-.082.579.214.03.082-.578.144.02-.082.579.51.072-.024.167Zm2.29.132-.194-.112-.19.329-.13-.075.567-.975.129.075-.291.5.193.112-.085.146Zm-.598-.425c.007.05.02.1.04.151.021.052.045.105.071.16l-.155.07a.632.632 0 0 1-.054-.125 1.3 1.3 0 0 1-.038-.143.868.868 0 0 1-.017-.127.629.629 0 0 1 .007-.137.49.49 0 0 1-.126.077l-.115.046a1.13 1.13 0 0 1-.313.047l-.027-.172c.061 0 .124-.003.191-.01a.593.593 0 0 0 .188-.047.606.606 0 0 0 .142-.083.738.738 0 0 0 .168-.19l-.302-.175.084-.145.696.404-.084.146-.262-.152a.878.878 0 0 0-.087.224.493.493 0 0 0-.007.18Zm-.195.41c.103.06.192.137.266.232.073.095.074.205.002.33-.072.123-.169.177-.289.163a.873.873 0 0 1-.593-.346c-.071-.096-.07-.206.002-.33.072-.124.167-.178.284-.162a.886.886 0 0 1 .328.113Zm-.275.474a.74.74 0 0 0 .243.093c.08.015.14-.01.177-.075.038-.065.03-.129-.022-.19a.773.773 0 0 0-.203-.164.736.736 0 0 0-.238-.092c-.076-.014-.134.012-.172.077-.037.064-.031.127.018.188.049.06.114.115.197.163Zm2.026.838-.272-.305.4-.356.545.61.154-.137-.544-.61.125-.113.642.721-.397.354-.546-.612-.157.14.559.63-.124.11-.286-.32-.31.277.413.464-.125.112-.928-1.04.126-.113.414.465.31-.277Zm1.435 2.092c-.086.034-.16.034-.222-.001a.38.38 0 0 1-.147-.149l-.2.08a5.865 5.865 0 0 0 .184.383l-.14.063a13.37 13.37 0 0 1-.216-.437 14.142 14.142 0 0 1-.218-.468l.15-.09a12.315 12.315 0 0 0 .177.412l.21-.082a.377.377 0 0 1 .005-.206c.021-.068.074-.118.159-.151.1-.04.184-.034.253.018a.455.455 0 0 1 .176.445c-.015.083-.072.144-.17.183Zm-.26-.268c.02.05.047.09.083.12.035.03.077.036.125.017.048-.02.075-.052.08-.1a.298.298 0 0 0-.021-.145.306.306 0 0 0-.084-.12.116.116 0 0 0-.127-.02c-.049.019-.075.053-.079.102a.322.322 0 0 0 .023.146Zm-.486.966-.053-.135 1.742-.69.053.135-1.742.69Zm1.145-.77-.317-.802.142-.056.318.801-.143.057Zm.161-.32-.14-.351.143-.057.14.352-.143.057ZM5.94 15.14c.048.095.084.208.108.337.025.13-.028.227-.158.292-.133.066-.244.053-.331-.042a1.26 1.26 0 0 1-.209-.295 1.213 1.213 0 0 1-.108-.339c-.021-.124.035-.22.168-.286.13-.065.24-.05.327.046.088.096.156.191.203.287Zm-.453.223c.044.087.094.163.152.228.057.065.119.082.184.049.066-.033.09-.092.071-.177a1.104 1.104 0 0 0-.091-.255 1.067 1.067 0 0 0-.147-.224c-.056-.064-.117-.08-.183-.046-.065.033-.09.09-.073.174a.98.98 0 0 0 .087.252Zm.863.358-.623-1.25.15-.075.28.559.187-.094.067.134-.189.093.278.558-.15.075Zm-.027-1.122a.67.67 0 0 0 .132.08c.05.023.104.032.157.027l-.207-.416.131-.066.5 1-.133.066-.207-.416a.232.232 0 0 0-.063.124.82.82 0 0 0 .008.312c.013.048.03.1.05.156l-.169-.007a1.129 1.129 0 0 1-.044-.34.89.89 0 0 1 .015-.136.505.505 0 0 1 .043-.133.517.517 0 0 1-.142-.037.669.669 0 0 1-.142-.08.801.801 0 0 1-.12-.11 1.95 1.95 0 0 1-.104-.122l.09-.15c.027.046.06.091.097.137a.827.827 0 0 0 .109.11m.657.315-.224-.449.132-.065.224.448-.132.066Zm1.848 2.355c.004.053.015.121.032.205a.573.573 0 0 0 .072.195l-.145.085a.86.86 0 0 1-.056-.162 1.778 1.778 0 0 1-.035-.168 4.796 4.796 0 0 1-.005-.29 1.082 1.082 0 0 1-.115.097 1.018 1.018 0 0 1-.275.155c-.062.03-.127.054-.193.073l-.056-.163a2.18 2.18 0 0 0 .233-.083c.08-.033.147-.067.203-.102.04-.024.096-.07.168-.14.071-.07.14-.171.203-.305l.136.087-.027.047-.028.05a.493.493 0 0 0-.094.215.96.96 0 0 0-.018.204Zm.213.975-.132-.064.624-1.273.132.064-.624 1.273Zm-.116.39-.948-.464.294-.6.134.065-.22.45.814.398-.074.152Zm3.357.136a1.826 1.826 0 0 1-.306.076 1.683 1.683 0 0 1-.35.03l.038-1.184.502.015-.005.169-.355-.012-.026.827a1.1 1.1 0 0 0 .246-.027c.097-.02.175-.04.234-.061l.022.167Zm.526.553-.145-.005.026-.832-.21-.007-.023.736-.146-.005.055-1.71.144.004-.025.807.21.007.028-.87.145.004-.059 1.87Zm2.521-2.726-.35.208-.074-.123.351-.208.073.123Zm.307.106-.758.449-.073-.123.759-.449.072.123Zm.612.013-.192.113.18.304-.127.075-.58-.98.127-.074.314.53.192-.113.086.145Zm-.942.275a.452.452 0 0 1 .256-.073c.08.005.146.05.198.138.052.088.061.17.029.247a.425.425 0 0 1-.184.194.442.442 0 0 1-.26.07c-.085-.007-.153-.054-.205-.142-.052-.088-.06-.17-.024-.243a.468.468 0 0 1 .19-.19Zm1.305.776-.127.075-.244-.413-.771.456-.086-.145.898-.531.33.558Zm-1.078-.392a.27.27 0 0 0 .117-.117.137.137 0 0 0-.01-.132.12.12 0 0 0-.106-.063.3.3 0 0 0-.156.05.312.312 0 0 0-.12.114.12.12 0 0 0 .002.124.138.138 0 0 0 .111.069.27.27 0 0 0 .162-.045Zm2.51-3.521c.196.114.353.214.471.302.12.087.22.163.304.228l-.096.12a6.831 6.831 0 0 0-.284-.216 3.839 3.839 0 0 0-.326-.217l-.49.84-.145-.085.567-.972Zm1.236.575-.705 1.208-.145-.085.188-.322-.506-.294.076-.13.505.295.11-.187-.506-.294.074-.128.505.295.259-.443.145.085Z"/>
      <path stroke="#231F20" stroke-miterlimit="9" stroke-width=".042" d="M4.44 11.906h.59v-.555h.427v.555h.555v.38h-.526v.526h-.438v-.497H4.44v-.409Zm13.558-.32h.59v-.555h.426v.555h.555v.38h-.525v.526h-.44v-.497h-.607v-.409Z"/>
      <path fill="#231F20" d="m9.076 10.196.009-.167a.783.783 0 0 1 .056-.245c.01-.02.058-.095.105-.095.048 0 .096.074.105.095a.783.783 0 0 1 .056.245l.009.167h-.34Zm.17-.566c-.106 0-.184.11-.214.161a.635.635 0 0 0-.083.242c-.025.16-.008.35.002.427a.67.67 0 0 0 .085.266c.078.122.163.143.21.143.048 0 .132-.021.21-.143a.667.667 0 0 0 .086-.266c.01-.077.026-.267.001-.427a.635.635 0 0 0-.082-.242c-.031-.05-.108-.161-.215-.161Zm.168.656-.008.183a.627.627 0 0 1-.069.259c-.025.043-.057.075-.09.075-.035 0-.067-.031-.092-.075a.629.629 0 0 1-.069-.26l-.008-.181h.336Zm.902.367a.215.215 0 0 1-.147.198.353.353 0 0 1-.34-.046.245.245 0 0 1-.073-.246c.03-.12.112-.146.148-.16-.075-.042-.106-.067-.126-.126a.228.228 0 0 1 .062-.235c.108-.105.284-.08.322-.06.028.014.068.033.093.08.031.057.014.111-.019.136-.013.009-.082.03-.104-.084a.104.104 0 0 0-.061-.078.105.105 0 0 0-.098.007c-.086.05-.08.174-.076.202.018.118.09.128.147.122l.076-.01c.056-.007.087.046.034.08-.034.02-.062.013-.094.007-.09-.02-.139.026-.157.101a.26.26 0 0 0 .012.165c.06.098.183.092.225.085.072-.01.113-.047.14-.15l.036.012Zm.371.023a.833.833 0 0 1-.027-.535c.037-.113.169-.192.277-.036.102.165.087.492.03.603-.083.158-.223.093-.28-.032Zm-.02.15c.128.08.27.054.358-.055.172-.203.162-.57-.028-.73-.154-.134-.322-.075-.41.056-.141.206-.128.551.08.728Zm.729-.984a.852.852 0 0 1 .037-.202c.06-.172.206-.083.244.038.096.314.122.663.175.888a.251.251 0 0 0 .059.122c.028.027.06.037.094.02.055-.028.058-.109.065-.135h.027c-.005.065-.003.137-.034.204-.027.06-.074.097-.117.093-.052-.003-.1-.058-.123-.12a3.695 3.695 0 0 1-.09-.55h-.003l-.24.64h-.129l.324-.872c-.02-.12-.043-.225-.077-.258-.025-.027-.064-.05-.115-.016-.057.038-.056.095-.07.147h-.027Zm1.056.834a.831.831 0 0 1-.028-.535c.037-.113.169-.192.277-.036.102.165.087.492.03.603-.083.158-.223.093-.28-.032Zm-.021.15c.128.08.27.054.358-.055.172-.203.162-.57-.028-.73-.154-.134-.322-.075-.41.056-.141.206-.129.551.08.728Zm1.34-.854-.286.764c.006.056.045.258.013.393-.02.082-.048.107-.089.104-.039-.004-.066-.053-.066-.123 0-.123.058-.291.085-.377a2.92 2.92 0 0 0-.059-.379.817.817 0 0 0-.068-.208c-.015-.023-.074-.079-.133-.018-.045.048-.042.11-.046.154H13.1c.001-.054-.006-.119.023-.219.035-.119.13-.103.158-.092.043.015.085.06.12.236.023.123.045.245.063.381h.003l.158-.616h.146Zm.252.63c0 .048 0 .1.026.143.024.04.037.047.071.035.048-.016.05-.093.056-.117h.027c-.007.043-.022.219-.167.207-.093-.008-.133-.116-.133-.162v-.417c0-.23-.078-.205-.123-.205v-.035c.126-.032.17-.06.244-.093v.645Zm.859-.008a.583.583 0 0 1-.083.169c-.031.033-.063.049-.087.047-.038-.004-.056-.014-.087-.053a.304.304 0 0 1-.055-.148 1.205 1.205 0 0 1-.01-.292.529.529 0 0 1 .062-.224c.03-.05.056-.079.139-.05.04.017.078.062.1.108.037.073.053.21.063.297l-.042.146Zm.17-.608-.089.312h-.003a.62.62 0 0 0-.053-.194c-.033-.067-.086-.124-.152-.138a.243.243 0 0 0-.185.045.42.42 0 0 0-.152.304c-.021.196.007.313.043.392.028.06.067.101.119.131.092.051.161.032.226.005.125-.05.155-.171.18-.222.033.118.056.178.09.218.024.03.055.044.093.006a.234.234 0 0 0 .054-.14l.002-.104H15.2c-.003.023-.004.08-.034.116-.043.054-.08.01-.094-.007a.33.33 0 0 1-.057-.167l.161-.558h-.123Zm-4.19 12.308-.12-.017.14-.986-.262-.037.018-.131a.36.36 0 0 0 .194-.024c.06-.026.104-.09.131-.191l.092.013-.193 1.373Zm.649-.274c0 .068.016.121.05.16a.17.17 0 0 0 .124.063c.075.005.134-.037.176-.124a1.19 1.19 0 0 0 .086-.399l-.002-.004a.332.332 0 0 1-.106.134.212.212 0 0 1-.14.044.267.267 0 0 1-.232-.144.618.618 0 0 1-.062-.34.524.524 0 0 1 .113-.319.286.286 0 0 1 .246-.11.31.31 0 0 1 .24.15c.062.095.086.272.07.532-.015.24-.053.423-.117.55-.062.125-.156.185-.28.177a.279.279 0 0 1-.207-.104.431.431 0 0 1-.082-.273l.123.007m.43-.565a.44.44 0 0 0-.04-.222.17.17 0 0 0-.15-.105.156.156 0 0 0-.159.09.548.548 0 0 0-.058.224.38.38 0 0 0 .043.208c.033.062.08.095.138.098.065.004.117-.023.158-.082a.408.408 0 0 0 .068-.211Zm.52.262a2.2 2.2 0 0 1 .027-.473c.026-.16.118-.244.277-.252.16-.008.26.066.3.222a2.285 2.285 0 0 1 .05.934c-.025.16-.117.245-.277.253-.158.009-.258-.066-.3-.223a2.203 2.203 0 0 1-.077-.461Zm.131-.01c.006.103.02.22.045.355.025.133.089.197.194.192.104-.005.162-.076.172-.212a2.84 2.84 0 0 0 .008-.356 2.755 2.755 0 0 0-.045-.355c-.024-.134-.089-.197-.194-.192-.104.006-.162.076-.172.21-.01.12-.013.24-.008.359Zm1.367.507-.121.02-.17-.98-.259.044-.023-.13a.353.353 0 0 0 .177-.083c.048-.042.07-.117.067-.222l.092-.016.237 1.367Z"/>
    </g>
  </g>
  <defs>
    <clipPath id="a">
      <path fill="#fff" d="M0 0h24v24H0z"/>
    </clipPath>
    <clipPath id="b">
      <path fill="#fff" d="M0 0h24v23.433H0z"/>
    </clipPath>
  </defs>
</svg>
