<svg xmlns="http://www.w3.org/2000/svg" width="24" height="24" fill="none" viewBox="0 0 24 24">
  <g clip-path="url(#a)">
    <path fill="#fff" d="M11.966 22.672c5.812 0 10.523-4.71 10.523-10.522 0-5.811-4.711-10.522-10.523-10.522-5.81 0-10.522 4.71-10.522 10.522 0 5.811 4.711 10.522 10.522 10.522Z"/>
    <mask id="b" width="30" height="30" x="-3" y="-3" maskUnits="userSpaceOnUse" style="mask-type:luminance">
      <path fill="#fff" d="M-2.559-2.557h29.111v29.11h-29.11v-29.11Z"/>
    </mask>
    <g mask="url(#b)">
      <path fill="#9E9E9F" d="M12 3.154a8.846 8.846 0 1 0 0 17.693 8.846 8.846 0 0 0 0-17.693ZM24 12c0 6.627-5.373 12-12 12S0 18.627 0 12 5.373 0 12 0s12 5.373 12 12Z"/>
      <path fill="#231916" d="M1.96 10.697c.107.008.178-.055.196-.176.026-.17-.189-.234-.364-.26-.17-.026-.377-.022-.402.145-.019.124.03.203.142.226l-.047.31c-.296-.04-.361-.312-.322-.57.05-.332.296-.478.688-.419.393.059.579.27.532.602-.038.258-.174.5-.47.451l.047-.31Zm-.886.676 1.185.015-.004.3-.47-.006-.004.365.47.006-.004.298-1.185-.014.003-.299.486.006.005-.367-.486-.006.004-.298Zm1.322 2.37-.744.095c-.327.039-.486-.183-.52-.453-.035-.269.063-.524.39-.569l.744-.094.038.296-.728.092c-.15.024-.235.107-.217.246.018.14.121.198.272.184l.727-.093.038.296Zm-.445 1.28-.058-.212.222-.06.137.498-.61.169c-.103-.223-.139-.261-.208-.511-.078-.327.094-.586.452-.685.357-.098.638.037.738.357.077.25.11.526-.222.621l-.08-.287c.108-.045.12-.133.093-.228-.053-.195-.26-.212-.446-.16-.225.061-.345.204-.288.411a.724.724 0 0 0 .06.145l.21-.058Zm.357 1.027.526-.677.137.317-.362.414.553.026.122.282-.858-.089-.397.172-.119-.274.398-.172Zm.097 1.216 1.018-.607.42.705-.197.118-.268-.449-.21.125.246.413-.197.118-.246-.413-.216.129.267.448-.197.118-.42-.705Zm2.744 1.696-.554.506c-.246.22-.503.13-.687-.07-.183-.2-.249-.465-.007-.69l.553-.506.202.22-.542.495c-.109.105-.13.222-.036.326.095.103.213.092.328-.007l.541-.494.202.22Zm.264.251.323.265-.281.912h.004l.558-.68.208.17-.752.916-.32-.263.294-.933-.003-.002-.575.701-.208-.17.752-.916Zm.473 1.862.65-.991.25.164-.65.99-.25-.163Zm1.884-.276.263.136-.894.872-.316-.165.207-1.227.293.152-.18.874.004.001.622-.643Zm.122 1.354.408-1.112.77.282-.079.215-.49-.18-.084.23.451.166-.079.215-.451-.165-.086.236.49.18-.079.215-.77-.282Zm1.528.489-.291-.067.266-1.155.486.112c.177.041.395.147.338.392-.04.172-.181.236-.333.22l-.001.007c.185.048.196.16.174.343a1.58 1.58 0 0 0-.017.291l-.315-.072a2.34 2.34 0 0 1 .024-.252c.02-.142.028-.201-.12-.235l-.11-.025-.101.44Zm.267-.64c.093.022.186.029.213-.09.028-.118-.06-.153-.152-.175l-.114-.026-.06.266.113.026Zm1.47.078a.13.13 0 0 0-.028-.108c-.023-.027-.06-.044-.11-.049-.069-.007-.133.037-.139.095-.008.087.084.124.16.155.175.068.434.113.403.432-.024.248-.259.344-.506.32-.25-.025-.462-.127-.435-.448l.297.03c-.012.11.056.178.163.189.068.007.16-.024.167-.102.016-.16-.207-.148-.429-.283-.103-.063-.146-.176-.134-.304.04-.278.27-.333.494-.31.221.021.44.13.394.413l-.297-.03Zm.716.872-.002-1.185h.298l.002 1.185h-.298Zm.944-.988-.328.032-.022-.228.96-.094.023.229-.336.033.093.95-.297.03-.093-.952Zm1.38.326-.567-.643.337-.076.34.433.127-.539.3-.068-.246.827.096.422-.291.066-.096-.422Zm2.213-.257-.273.12-.48-1.083.697-.309.093.21-.424.188.112.253.394-.175.093.21-.394.175.182.41Zm1.297-.646c.305-.186.36-.484.157-.817-.203-.335-.492-.424-.797-.239-.305.185-.36.484-.157.817.203.334.492.424.797.239Zm-.108-.65c.09.15.163.348-.01.453-.174.105-.317-.05-.408-.2-.097-.159-.168-.357.005-.462.174-.105.317.05.413.208Zm1.196-.135-.232.189-.746-.92.387-.315c.141-.114.358-.22.517-.026.111.138.074.288-.03.399l.004.005c.15-.117.246-.056.377.074.068.072.14.134.22.192l-.252.204a2.4 2.4 0 0 1-.184-.174c-.1-.103-.141-.146-.26-.05l-.086.07.285.352Zm-.34-.603c.075-.06.137-.13.06-.224-.076-.095-.157-.048-.231.012l-.09.074.171.211.09-.073Zm1.131-1.472-.211.253-.177-.147.619-.741.176.147-.216.259.733.612-.19.229-.734-.612Zm1.396-.225-.998-.639.161-.252.396.253.197-.308-.396-.253.161-.252.998.639-.16.251-.41-.262-.197.31.41.261-.162.252Zm.767-1.27-1.071-.507.35-.742.208.099-.223.472.22.104.206-.434.208.098-.205.434.227.108.223-.473.207.099-.35.742Zm.834-2.144-.208-.123.104-.424.241-.015.08-.328-1.252.133-.086.354 1.05.693.071-.29Zm-.413-.25-.444-.26.001-.004.511-.017-.068.28Zm.273-1.415.011-.112c.016-.151.075-.151.218-.148.084 0 .17 0 .254-.008l.033-.322a1.553 1.553 0 0 1-.291.02c-.185 0-.295.025-.32.215h-.006c-.004-.153-.084-.286-.26-.303-.25-.026-.328.203-.347.384l-.05.496 1.178.12.03-.296-.45-.046Zm-.229-.024-.27-.028.011-.116c.01-.095.034-.185.155-.173.12.013.126.106.116.201l-.012.116Zm-.204-1.224.007.33-.23.004-.018-.965.23-.005.006.337.955-.018.006.298-.955.019Zm-.005-1.538c-.046.005-.078.023-.098.054-.021.028-.029.068-.021.119.01.068.066.12.125.111.086-.012.1-.11.111-.192.025-.186.008-.449.325-.494.247-.036.395.17.43.416.036.248-.012.478-.33.528l-.043-.295c.111-.015.16-.097.146-.204-.01-.067-.062-.149-.14-.138-.159.023-.093.237-.172.485-.037.115-.137.183-.263.201-.28.028-.388-.182-.42-.405-.031-.22.023-.458.308-.481l.042.295ZM4.533 4.99l.412.36-.203.233-.412-.36.203-.233Z"/>
      <path fill="#231916" d="m3.838 5.636 1.037-1.19.114.1-1.036 1.19-.115-.1Zm-.464-.533.91-1.044-.112-.098-.91 1.045.112.097Z"/>
      <path fill="#231916" d="m3.908 4.4.784-.062c.003 0 .012 0 .015.006.004.006.002.013-.002.018l-.202.23c-.015.019-.026.023-.043.024l-.559.029.049.557c0 .017-.002.028-.018.046l-.201.23c-.004.006-.011.009-.018.006-.006-.003-.008-.011-.008-.014l-.044-.785m-.163-.156.196-.224s.039-.04.078-.009l.063.055-.233.269-.104-.091Zm15.33.332 1.104 1.105.107-.106-1.105-1.105-.106.106Z"/>
      <path fill="#231916" d="m20.606 4.869-.82-.822.104-.104.852.852a.109.109 0 0 1 .005.152l-.877.874-.203-.203.877-.877"/>
      <path fill="#231916" d="m19.58 4.557.135.137s.052.05-.008.11l-.384.385L19.136 5l.443-.444Zm.293.295.137.137s.05.05-.008.11l-.385.384-.187-.188.443-.443ZM6.084 2.885l-.066-.115.186-.107.066.115-.186.107Zm.012.373-.066-.116.338-.194.066.116-.338.194Z"/>
      <path fill="#231916" d="M5.779 2.81c.196.327.13.667-.08.931l.07.123c.28-.246.52-.72.248-1.244l-.002-.002c-.027-.047-.09-.062-.14-.033l-.597.342.073.129.55-.315m.182-.277.14-.082s.064-.035.105.037l.71 1.24-.203.117-.752-1.312Zm.278-.159.142-.082s.062-.036.104.037l.71 1.24-.204.117-.752-1.312Zm11.685 1.213-.323.442.23.17.27-.37a.178.178 0 0 0-.044-.247l-1.022-.747-.09.12 1.046.766m-.62-1.496.857.626.088-.121-.856-.626-.089.121Z"/>
      <path fill="#231916" d="M17.655 2.828A.235.235 0 0 1 17.6 2.5a.236.236 0 0 1 .329-.047c.106.077.13.225.054.327a.235.235 0 0 1-.328.048Zm.348-.479c-.222-.162-.498-.162-.617 0s-.035.425.187.588c.222.162.497.162.616 0 .12-.163.035-.426-.186-.588Zm.771 1.011.088-.12-.174-.126-.087.12.173.126Z"/>
      <path fill="#231916" d="m18.21 2.314-.145.198-.23-.169.145-.198.23.169Zm.413.416.172.124s.058.043.008.11l-.428.587-.23-.168.478-.654ZM8.992 1.58l-.024-.131.211-.038.024.13-.211.04Zm.058.324-.023-.131.211-.038.024.13-.211.039Z"/>
      <path fill="#231916" d="M8.736 2.184c-.096.017-.206-.148-.247-.37-.04-.22.006-.414.102-.432.096-.017.207.148.247.37.04.221-.005.415-.102.432Zm-.17-.945c-.242.044-.393.323-.338.623.054.301.294.51.534.466.241-.044.392-.323.338-.624-.055-.3-.294-.509-.535-.465Zm.56-.095.16-.029s.071-.013.086.07l.255 1.406-.232.042-.27-1.489Zm.316-.057.16-.029s.071-.013.086.07l.255 1.406-.231.042-.27-1.489Zm5.082.945.236-.944-.271-.068-.232.926v.002c-.014.054.021.107.077.121l.685.172.037-.146-.639-.16"/>
      <path fill="#231916" d="m14.554 1.191.625.157.036-.146-.578-.145-.083.134Zm.908.541.037-.149.208.052-.037.149-.208-.052Z"/>
      <path fill="#231916" d="m15.386 1.227.158.039s.07.017.05.098l-.347 1.387-.228-.058.367-1.466Zm.311.077.159.04s.07.017.05.098l-.348 1.387-.228-.057.367-1.468Zm-4.42.057h1.61v.143h-1.61V1.36Zm1.304.257h-1.202v.139h1.202v-.14Zm-.906.515v-.2h-.295v.18c0 .056.049.1.108.1h1.3v-.139h-1.25"/>
      <path fill="#231916" d="M12.58 1.851h-1.2v.14h1.202v-.14Z"/>
      <path fill="#231916" d="M12.788 1.718c0-.056-.049-.1-.108-.1h-.186v.373h.294v-.273Zm-.551-.02h-.318v-.313h.318v.313Zm.595-.493-.488-.484a.206.206 0 0 0-.158-.069h-.305l-.551.553a.008.008 0 0 0-.002.008.017.017 0 0 0 .016.013h.292a.07.07 0 0 0 .048-.023l.397-.398.393.398a.07.07 0 0 0 .047.023h.298a.016.016 0 0 0 .015-.013.009.009 0 0 0-.002-.008Zm-1.525 10.31.047-.63.016-.346-.031-.47-.012-.516.096-.48-.045-.403.035-.302.003-.428-.06-.418.046-.416-.036-.544-.41-.02-.348-.013-.33-.003-1.956.005-.37.032h-.365l-.369-.024-.371.002-.37.053-.375-.057-.37.02.042.41-.008.58-.036.425.021.428.027.427-.003.42.002.425-.003.429.025.418-.024.415-.002.577.364.004.368-.024.37.04.372.002.37-.021.354.004.38.005 1.956.041.362-.012.362-.015.276-.02Z"/>
      <path fill="#9E9E9F" d="m17.146 11.515.047-.63.017-.346-.033-.47-.01-.516.095-.48-.045-.403.036-.302.003-.428-.06-.418.045-.416-.035-.544-.41-.02-.349-.013-.328-.003-1.957.005-.37.032h-.365l-.369-.024-.371.002-.37.053-.376-.057-.37.02.042.41-.008.58-.035.425.021.428.028.427-.005.42.004.425-.005.429.025.418-.022.415-.004.577.364.004.37-.024.368.04.372.002.371-.021.353.004.38.005 1.956.041.363-.012.36-.015.277-.02Z"/>
      <path fill="#F9CD00" d="M9.249 8.395s.207.165.289.041c.082-.124.247-.124.206-.288-.042-.165-.124-.248-.288-.372-.166-.124-.702-.33-.868-.33-.165 0-.247-.041-.495.042-.247.081-.288.123-.618.37-.33.248-.66.413-.66.744 0 .33.288.742.33.99.04.247.412.701.536.784.123.082-.042 0 .372.082.412.082.37.082.7.082.33 0 .62 0 .744-.123.123-.124.123-.248.165-.33.04-.083.247-.372.164-.496-.082-.123-.454-.082-.577-.082a.376.376 0 0 0-.33.165c-.083.124-.248.082-.372.124-.124.04-.289-.042-.454-.083-.164-.04-.288-.247-.288-.413 0-.164.083-.495.248-.66.164-.164.04-.123.33-.247.288-.124.619-.124.619-.124l.247.124Z"/>
      <path fill="#fff" d="m14.042 7.206-.058.188.289.144.144.029.231-.144.029-.217s.088-.072-.087-.188a2.116 2.116 0 0 1-.288-.23h-.086l-.088.202-.028.144-.058.072Zm.413 1.079.124-.096s0-.097-.014-.137c-.013-.042.014-.097-.082-.166s-.151-.11-.206-.124c-.055-.014-.193-.097-.262-.11a1.095 1.095 0 0 0-.247-.027c-.11 0 0-.029-.193.013-.192.042-.098-.044-.228.095-.13.14-.143.167-.185.304-.041.138.042.371.083.495s.055.11.193.192c.137.083.22.098.33.152.11.055.179.11.303.11.123 0 .151.014.233-.013.083-.028.179-.042.179-.042L14.51 9l-.082.096s-.33.18-.413.192c-.083.014-.22.042-.317.084a.48.48 0 0 0-.233.233c-.056.17-.097.151-.137.316-.027.108-.11.345-.083.482.028.137.069.468.206.619.137.152.166.206.276.261.11.056.646.124.756.11.11-.013.235-.025.37-.041 0 0 .294-.07.373-.138.079-.068.206-.123.247-.178.042-.055.104-.194.166-.317.082-.165.04-.394.068-.481.041-.124-.027-.302-.027-.385 0-.082-.234-.22-.358-.234-.124-.014-.289.124-.344.248-.066.147-.014.344-.027.453-.009.069-.125.404-.33.441-.234.04-.469.054-.592-.014-.091-.051-.193-.316-.165-.386.028-.068-.023-.14.138-.302.164-.165.206-.261.288-.33.083-.069.262-.138.303-.179.118-.117.358-.371.399-.537a.548.548 0 0 0-.041-.398.342.342 0 0 0-.372-.179c-.151.027-.316.22-.357.234a.816.816 0 0 1-.344-.028c-.138-.04-.166-.055-.18-.15-.013-.097-.054-.193-.013-.262.042-.07.069-.124.165-.151.097-.027.276-.083.33-.027.055.054.09.082.142.15.05.069.133.083.133.083Z"/>
      <path fill="#E8470B" d="m17.688 16.237-.295-.555-.17-.3-.275-.38-.282-.43-.174-.454-.25-.315-.13-.274-.225-.36-.272-.322-.181-.374-.32-.44-.355.2-.3.173-.278.172-1.646 1.04-.295.223-.307.193-.324.175-.313.198-.281.241-.348.15-.3.213.25.323.301.492.196.377.245.35.249.347.218.354.228.357.223.363.243.338.2.363.301.487.31-.188.298-.216.332-.162.315-.195.302-.214.3-.184.322-.197 1.67-1 .3-.201.287-.21.23-.158Z"/>
      <path fill="#231916" d="M13.506 16.743c.03-.05.063-.117.1-.198l.017-.022.053-.082c.034-.067.06-.125.082-.173l.04-.04.048-.057c.035-.052.06-.09.072-.116l.03-.064a.54.54 0 0 0 .064 0c.01 0 .027-.004.05-.008l.139-.05.149-.046a.747.747 0 0 1 .198-.044.988.988 0 0 0 .14-.019l.117-.02-.041.163a1.654 1.654 0 0 0-.054.265l-.034.11-.034.111-.04.156-.04.125a.093.093 0 0 0-.004.024c-.001.024.008.036.028.037.097-.028.153-.072.17-.13l.015-.027a.875.875 0 0 0 .07-.145.432.432 0 0 1 .076-.136l.003-.06a.615.615 0 0 0 .064-.166.686.686 0 0 1 .062-.165l.038-.118.035-.102.07-.05a.183.183 0 0 0 .027-.066l.002-.014c0 .008-.01-.01-.03-.054l.027-.164.041-.102.022-.088a.218.218 0 0 0 .008-.048c0-.01 0-.02-.002-.03l-.002-.043.017-.05.02-.059.05-.26a.205.205 0 0 0-.035-.164.1.1 0 0 0-.042-.043l-.072-.039a.245.245 0 0 1-.062-.04c-.007-.005-.01-.013-.01-.024v-.006l.07-.108a1.257 1.257 0 0 0 .076-.134v-.003c0-.01-.008-.022-.027-.038a.128.128 0 0 0-.066-.023c-.02 0-.04.004-.06.014l-.075.043-.078.05-.068.017c-.036.082-.088.128-.157.14a.18.18 0 0 0-.08.03.603.603 0 0 0-.078.083c0 .015.004.03.014.049l.016.03-.018.016c-.086.048-.169.158-.25.33a1.06 1.06 0 0 1-.103.176c-.066.08-.112.15-.14.208l-.068.137a.87.87 0 0 0-.108.152 2.48 2.48 0 0 0-.06.082l-.018.028a.225.225 0 0 0-.194.089.567.567 0 0 0-.12.268c0 .005 0 .01.003.014.005.014.02.023.043.026a.097.097 0 0 1 .043-.005c-.007.021-.033.07-.08.147a.863.863 0 0 0-.085.175c-.014.003-.045.052-.092.15l-.034.068-.04.085-.027.069c-.002.012-.005.026-.005.042-.002.03.007.046.025.047a.456.456 0 0 0 .117-.02c.019-.005.046-.036.082-.093Zm1.136-1.103-.078.003-.085-.004-.084.003-.081.007-.067.014-.04-.012-.03-.012a.428.428 0 0 1 .125-.159c.008-.004.02-.022.038-.054 0-.004.006-.014.019-.032a1.602 1.602 0 0 0 .13-.208c.026-.033.048-.06.067-.081l.068-.077.06-.094a.684.684 0 0 1 .077-.097c.029-.03.055-.045.08-.044.035.002.068.024.098.065a.267.267 0 0 1 .048.113l.009.037.012.018-.044.147-.01.074v.046l-.031.065-.009.108a.424.424 0 0 1-.046.127l-.004.014a.6.6 0 0 0-.222.033Zm.514.705.023-.109.014-.056.053-.047.066-.061a.1.1 0 0 0 .031-.051l.058-.05.063-.056.06-.065a.311.311 0 0 1 .073-.067l.002-.053-.002-.025.004-.024.065-.043.08-.047a.247.247 0 0 1 .152-.056c.067.003.13.045.19.126.006.022.016.034.027.035.013.02.018.046.017.08.024.03.036.077.034.14a.766.766 0 0 1-.026.143 1.234 1.234 0 0 1-.11.213l-.103.172.005.034c.013 0 .04-.008.077-.027a.222.222 0 0 0 .032-.014l.167-.097c.033-.02.082-.051.144-.098.008-.01.015-.02.02-.024a.158.158 0 0 1 .017-.007c.007.001.011.003.014.008v.008l-.005.024-.004.02a.1.1 0 0 1 .004.04.274.274 0 0 1-.01.067l-.044.045a.197.197 0 0 0-.048.065c-.004 0-.059.03-.165.091l-.177.104a.695.695 0 0 0-.12.048l-.122.058a.226.226 0 0 1-.161-.011.093.093 0 0 1-.033-.072c.026-.055.04-.087.042-.095l.074-.126.12-.205a.684.684 0 0 0 .064-.158.653.653 0 0 0 .011-.084c0-.013 0-.03-.005-.051-.01-.049-.032-.075-.07-.076a.328.328 0 0 0-.115.047l-.123.112a.578.578 0 0 1-.06.06l-.055.043-.049.04-.048.038-.051.042-.064.057-.037.023.004-.028Z"/>
      <path fill="#231916" d="M16.593 16.674c.073-.275.164-.485.273-.633l.001-.026-.174.147-.187.145-.2.147.002-.057.018-.086a.163.163 0 0 1 .047-.093l.108-.09.093-.072a9.615 9.615 0 0 0 .473-.484.822.822 0 0 0 .125-.167l-.047-.002-.166-.01-.174-.01-.014.003a.366.366 0 0 1-.094-.034c-.027-.014-.04-.027-.04-.04.033-.128.068-.204.102-.225.016-.01.057-.012.126-.008l.32.02.03.009.074-.01a.1.1 0 0 1 .037.015.175.175 0 0 0 .122-.068l.122-.15a.39.39 0 0 1 .135-.116l.036.008.01.007c.03.015.046.04.045.072a.075.075 0 0 1-.005.025l-.024.065-.05.072-.032.05v.008a.041.041 0 0 0 .017.037c.013.01.019.021.019.035v.01c-.028.06-.05.13-.071.214-.005.023-.018.037-.038.042l-.077.006a.19.19 0 0 0-.064.014 1.448 1.448 0 0 1-.041.072l-.047.082-.315.596c-.01.02-.023.053-.042.092-.03.063-.05.117-.064.162v.04c-.002.008 0 .016.001.023a.213.213 0 0 0 .11-.025l.12-.096.103-.072.101-.06a.153.153 0 0 1 .046-.026.018.018 0 0 0 .008-.007c.012.001.017.008.017.022a.491.491 0 0 1-.068.184.615.615 0 0 1-.133.115l-.145.106-.055.028c-.204.153-.327.231-.368.236-.087-.046-.13-.103-.127-.17l.001-.022.02-.05Z"/>
      <path fill="#231916" d="m17.346 16.479.02-.04.02-.136a.242.242 0 0 1 .119-.125.737.737 0 0 1 .06-.035l.094-.067.095-.075.091-.073a.182.182 0 0 0 .056-.034l.1-.08.163-.135.09-.063a.132.132 0 0 1 .082-.021c.104.005.154.048.151.13a.467.467 0 0 1-.058.172l-.008.035a.924.924 0 0 1-.064.163.558.558 0 0 1-.046.088l-.082.137-.061.106a.929.929 0 0 0-.07.137l.011.021a.59.59 0 0 0 .135-.078l.124-.082c.097-.096.156-.143.174-.142l.013.014-.017.025-.017.033-.005.12c-.006.017-.028.04-.066.066l-.063.056a.884.884 0 0 1-.177.125l-.218.114a.536.536 0 0 0-.164.125l-.085.032-.03.016-.031.015c-.028 0-.046-.006-.052-.015a.084.084 0 0 1-.003-.025c0-.012.003-.025.006-.039a.432.432 0 0 1-.011-.126.804.804 0 0 1 .032-.189l-.003-.024.002-.02a.171.171 0 0 1 .079-.098c.04-.023.07-.035.092-.034.019 0 .028.013.03.035l.004.037.007-.007c.015 0 .042-.044.08-.134l.036-.11.043-.146.012-.047v-.009a.037.037 0 0 0-.012-.028L18 16.037a.146.146 0 0 0-.04.015l-.069.05-.056.039a14.16 14.16 0 0 0-.356.243 1.159 1.159 0 0 1-.112.082l-.02.012ZM2.53 7.838a.243.243 0 1 1-.487 0 .243.243 0 0 1 .486 0Zm19.376 0a.243.243 0 1 1-.486 0 .243.243 0 0 1 .486 0Z"/>
    </g>
  </g>
  <defs>
    <clipPath id="a">
      <path fill="#fff" d="M0 0h24v24H0z"/>
    </clipPath>
  </defs>
</svg>
