<svg xmlns="http://www.w3.org/2000/svg" width="24" height="24" fill="none" viewBox="0 0 24 24">
  <g clip-path="url(#a)">
    <mask id="b" width="24" height="24" x="0" y="0" maskUnits="userSpaceOnUse" style="mask-type:luminance">
      <path fill="#fff" d="M0 12c0 6.627 5.373 12 12 12 6.628 0 12-5.373 12-12 0-6.628-5.372-12-12-12C5.373 0 0 5.372 0 12Z"/>
    </mask>
    <g mask="url(#b)">
      <path fill="#fff" d="M0 12c0 6.627 5.373 12 12 12 6.628 0 12-5.373 12-12 0-6.628-5.372-12-12-12C5.373 0 0 5.372 0 12Z"/>
    </g>
    <path fill="#002843" d="m8.171 21.018-.084-.028-.161.388.06.026c.14.058.246.03.307-.117.051-.123.004-.216-.122-.269Zm8.935-.632-.071.052.219.359.056-.035c.13-.08.168-.182.085-.317-.07-.114-.172-.13-.289-.059Zm-.917.477c-.196.093-.18.33-.082.537.12.256.346.39.517.31.204-.097.17-.338.074-.545-.126-.267-.337-.383-.51-.302ZM2.16 13.119v-.004l-.439-.08.031.263.408-.179ZM13.511 2.101a.231.231 0 0 0 .205-.062.357.357 0 0 0 .112-.206.366.366 0 0 0-.034-.233.225.225 0 0 0-.17-.13.234.234 0 0 0-.2.062.346.346 0 0 0-.115.206.361.361 0 0 0 .034.233.227.227 0 0 0 .168.13Zm-.666 19.655c-.214.018-.282.246-.263.474.024.282.189.486.377.47.225-.018.277-.256.258-.484-.024-.295-.182-.476-.372-.46ZM6.825 3.038a.178.178 0 0 0 .214-.06.227.227 0 0 0 .007-.24.23.23 0 0 0-.204-.125.179.179 0 0 0-.076.022.175.175 0 0 0-.091.124.233.233 0 0 0 .025.166c.03.055.071.092.125.113ZM8.436 17.34c.059.04.119.078.18.116V15.78a8.529 8.529 0 0 1-.695-.277c.104.63.277 1.246.515 1.839Zm-.554-2.115a8.4 8.4 0 0 0 .733.3v-2.028a6.283 6.283 0 0 1-.773-.322 9.03 9.03 0 0 0 .04 2.05Zm9.461.37a6.372 6.372 0 0 0 1.072-3.9 6.327 6.327 0 0 1-.692 1.386c.003.796-.125 1.636-.38 2.514ZM6.13 14.369c.003.024.003.047.005.071l-.047.005a6.42 6.42 0 0 0 2.014 2.652 9.036 9.036 0 0 1-.426-1.709 6.942 6.942 0 0 1-1.545-1.019ZM6.875 9.8a3.973 3.973 0 0 1-.445-.886c-.357.637-.6 1.33-.722 2.05.138.213.289.416.452.61A7.702 7.702 0 0 1 6.875 9.8ZM5.66 11.298a6.397 6.397 0 0 0 .198 2.477l.024.026a8.332 8.332 0 0 1 .215-1.961 6.053 6.053 0 0 1-.436-.542Z"/>
    <path fill="#002843" d="M12 .293C5.534.293.293 5.534.293 12c0 6.466 5.24 11.707 11.707 11.707 6.466 0 11.707-5.241 11.707-11.707C23.707 5.534 18.466.293 12 .293ZM22.55 11.28c.17-.006.294.123.302.308a.449.449 0 0 1-.05.225l-.222.036-.001-.042c.146-.041.222-.1.217-.231-.005-.139-.116-.167-.181-.165-.087.003-.14.047-.21.17-.112.203-.19.258-.355.264-.143.005-.278-.096-.284-.252-.002-.069.014-.154.014-.213l.206-.024v.038c-.083.023-.17.065-.165.184.003.094.077.154.174.15.101-.003.14-.032.233-.208.102-.195.19-.235.323-.24Zm-.75-3.957.473 1.16.001.016-.012.009-.503.204a1.62 1.62 0 0 1-.286.093.6.6 0 0 1-.215.004l-.083-.203c.074.01.15.006.223-.012.078-.019.176-.053.294-.102l.313-.127.023-.018-.005-.03-.378-.93.155-.064Zm-.6.5c.07-.029.103-.082.136-.158l.118.29-.638.259.067.164.467-.19c.067-.027.104-.083.134-.157l.118.29-.637.26.229.561-.158.064-.617-1.519.157-.063.158.388.467-.19Zm-.854-2.595c.06-.052.073-.123.079-.218l.22.252-.265.234.16.182-.14.123-.16-.182-.35.307-.147-.168.603-.53Zm-1.028-.61a.347.347 0 0 1 .215-.09l-.136-.154.125-.11.277.316.02-.018a.25.25 0 0 0 .09-.181l.208.237-.16.14.278.319-.124.11-.138-.158a.37.37 0 0 1-.4.29.41.41 0 0 1-.274-.141.409.409 0 0 1-.105-.292.357.357 0 0 1 .124-.269Zm-.272.461.764.869.01.027-.014.025-.448.394-.154-.175.336-.295.008-.013-.006-.013-.622-.708.126-.11Zm-2.744-2.105.305-.542c.038-.067.032-.161.009-.244l.676.38-.082.146-.382-.215-.342.608-.004.03.017.02.31.175a.907.907 0 0 0 .123.058c.035.012.066.02.093.022l.395-.703c.026-.046.039-.119.011-.215l.269.15-.265.472.123.07.17-.304c.027-.048.04-.119.012-.215l.269.15-.84 1.497-.186-.104.493-.878-.123-.07-.493.878-.185-.104.268-.478a.468.468 0 0 1-.12-.035 1.774 1.774 0 0 1-.16-.081l-.279-.157c-.065-.037-.104-.08-.119-.13-.014-.052-.001-.111.037-.18Zm-3.22-1.277a.458.458 0 0 1 .202-.31.48.48 0 0 1 .369-.078.486.486 0 0 1 .41.487l.25.044.056-.321c.014-.08-.016-.15-.072-.23l.329.057-.3 1.69-.218-.04.175-.99-.253-.045a.465.465 0 0 1-.214.241.483.483 0 0 1-.33.054.484.484 0 0 1-.32-.2.46.46 0 0 1-.083-.36Zm-2.326-.216-.016-.096-.012-.026-.03-.003-1.016.165-.027-.166 1.26-.204.015.002.007.015.048.297A.75.75 0 0 1 11 1.64a.285.285 0 0 1-.032.107l.232-.038.026.166-.686.111.045.277.483-.079.015.002.007.013.095.59-.23.037-.068-.424-.007-.013-.014-.002-.985.159-.027-.165.484-.079-.045-.276-.688.112-.027-.166 1.17-.19a.307.307 0 0 0 .027-.126 1.213 1.213 0 0 0-.018-.175Zm-3.323.565.815 1.51-.197.105-.226-.42a.328.328 0 0 1-.097.106c-.06.041-.121.078-.185.112l-.774.417-.08-.148.432-.232a.307.307 0 0 0-.198-.167l.28-.15.114.211.212-.114a.674.674 0 0 0 .144-.097.334.334 0 0 0 .07-.089l-.41-.759c-.033-.061-.107-.1-.195-.126l.295-.16Zm-.954.682a.422.422 0 0 1 .208-.241.422.422 0 0 1 .456.025.363.363 0 0 1 .1.119c.052.096.06.197.024.303a.42.42 0 0 1-.209.242.418.418 0 0 1-.455-.026.364.364 0 0 1-.1-.12.366.366 0 0 1-.024-.302ZM4.406 4.206l.012-.008.015.008.222.201c.06.053.1.096.12.128a.283.283 0 0 1 .043.104l.158-.174.124.112-.467.516.208.187.329-.363.012-.007.014.006.442.4-.156.173-.318-.288-.013-.006-.013.008-.67.74-.123-.114.328-.363-.207-.188-.468.517-.124-.112.795-.88a.297.297 0 0 0-.058-.114 1.161 1.161 0 0 0-.125-.126l-.071-.065-.026-.013-.025.017-.692.763-.123-.112.857-.947Zm-.613 3.54-.37.867c-.02.047-.046.076-.078.09-.032.013-.072.01-.12-.01l-.196-.085c-.067-.028-.148-.002-.222.027l.135-.313.332.141.021.002.016-.016.328-.768.154.066Zm-1.567-.649.429.183.095-.222.154.065-.095.223.549.235-.089.206-.946-.405c-.068-.03-.149-.009-.229.024l.132-.309Zm-.333.754.206.088.167-.389.152.065-.083.194a.388.388 0 0 1 .25.015.368.368 0 0 1 .205.221.412.412 0 0 1-.009.315.413.413 0 0 1-.222.225.366.366 0 0 1-.408-.066.391.391 0 0 1-.077-.1l-.081.19-.152-.065.165-.385-.02-.008c-.09-.039-.145-.039-.216-.01l.123-.29Zm-.68 4.265h.054c.002.096.003.164.151.165l.513.003.004-.727-.512-.003c-.148 0-.15.068-.153.163h-.055c0-.087.005-.164.006-.243l-.003-.261h.055c.001.095.003.164.15.165l1.06.006c.147 0 .15-.067.152-.163h.055c-.002.085-.005.168-.005.249 0 .082 0 .165.002.256h-.054c-.002-.096-.004-.165-.151-.166l-.46-.002-.005.727.46.002c.148.001.15-.067.153-.162h.055l-.006.266c0 .078.003.157.003.238h-.055c-.002-.096-.003-.164-.151-.165l-1.06-.006c-.146-.001-.15.067-.152.162H1.21a9.73 9.73 0 0 0 .006-.243l-.002-.26Zm.114 1.425a6.496 6.496 0 0 0-.028-.2l.054-.006.003.022c.005.045.025.087.06.083l.068-.023.204-.09-.037-.305-.14-.023c-.028-.004-.102-.018-.14-.014-.05.006-.052.066-.048.1l.003.021-.055.007c-.005-.06-.01-.122-.017-.183a3.227 3.227 0 0 0-.022-.146l.055-.006c.01.09.058.112.103.121l.795.164.072.01.029-.007.077.13-.857.375c-.092.04-.116.07-.105.165l-.055.006c-.006-.068-.011-.134-.02-.2Zm.204 1.165.675-.778-.549.125c-.148.034-.179.06-.15.191l-.053.012a5.024 5.024 0 0 0-.037-.185c-.014-.06-.03-.118-.045-.178l.053-.012c.033.144.117.124.265.09l.572-.13c.093-.021.073-.128.065-.163l.053-.012c.008.043.015.083.024.124l.03.116-.613.704.539-.123c.141-.033.133-.08.112-.174l.053-.012a4.938 4.938 0 0 0 .075.332l-.053.012c-.019-.082-.032-.12-.134-.097l-.872.2-.01-.042Zm.315.752-.051.017a6.647 6.647 0 0 0-.136-.398l.051-.018c.028.08.055.122.131.096l.698-.24c.076-.026.072-.076.045-.156l.052-.018c.02.066.04.133.063.197.023.069.05.14.073.202l-.052.017c-.027-.08-.055-.121-.13-.095l-.699.24c-.076.026-.072.075-.045.156Zm.154.447-.052.018a1.918 1.918 0 0 0-.032-.107l-.045-.118.38-.518.444.165.055.004.021-.043-.013-.038.052-.018c.015.05.032.107.05.156.016.05.038.101.055.15l-.052.019c-.034-.101-.077-.128-.507-.29l-.308.45c-.037.053-.068.113-.048.17Zm.196.633c-.098-.209-.062-.378.16-.481l.526-.246c.069-.032.037-.1.016-.144l.05-.024a5.97 5.97 0 0 0 .167.36l-.05.023c-.023-.05-.049-.106-.114-.076l-.52.243c-.176.082-.204.207-.146.333.107.229.315.131.506.042l.226-.105c.191-.09.199-.113.148-.222l.05-.023.072.165c.021.045.043.089.067.133l-.05.024c-.026-.056-.055-.094-.18-.036l-.388.181c-.22.103-.43.091-.54-.147Zm.599.957-.047.029a6.546 6.546 0 0 0-.107-.186 5.165 5.165 0 0 0-.11-.175l.047-.029c.044.073.08.108.148.067l.634-.38c.068-.042.054-.09.011-.163l.047-.028a5.785 5.785 0 0 0 .216.36l-.047.03c-.043-.073-.08-.108-.148-.067l-.633.38c-.069.042-.055.09-.011.162Zm.255.23c-.026.059-.044.124-.012.176l-.047.029a1.788 1.788 0 0 0-.122-.204l.263-.587.47.069.054-.008.011-.046-.02-.034.047-.029.08.143c.027.045.06.09.086.135l-.047.029c-.054-.092-.102-.11-.556-.178l-.207.504Zm.707 1.262c-.191-.227-.177-.472.093-.708l.587-.5c.113-.095.07-.149.01-.223l.042-.035c.053.066.105.13.157.192l.168.192-.042.036c-.063-.072-.108-.123-.221-.027l-.547.465c-.192.163-.332.373-.15.587.192.228.417.075.528-.02l.459-.389c.264-.224.252-.228.153-.354l.042-.036c.047.06.094.118.143.176.04.047.081.09.12.136l-.041.036c-.093-.11-.154-.056-.35.111l-.464.394c-.22.186-.482.208-.687-.033Zm1.13 1.146.122-1.024-.384.413c-.103.111-.115.15-.016.242l-.037.04a5.781 5.781 0 0 0-.136-.132c-.044-.041-.09-.081-.136-.122l.037-.04c.108.1.167.037.27-.074l.399-.43c.065-.07-.011-.147-.038-.171l.038-.04c.03.03.059.06.089.088.028.026.062.055.091.079l-.113.928.377-.406c.099-.107.064-.141-.005-.206l.037-.04a4.023 4.023 0 0 0 .248.232l-.037.04c-.061-.058-.093-.082-.165-.005l-.609.657-.031-.03Zm.666.434-.033.043a6.73 6.73 0 0 0-.166-.135l-.165-.125.034-.043c.066.053.112.072.162.01l.455-.583c.05-.063.02-.103-.047-.155l.034-.044a6.252 6.252 0 0 0 .33.26l-.033.044c-.067-.053-.113-.073-.162-.01l-.456.583c-.05.063-.019.103.047.155Zm.455.42.233-.934c.02-.08.023-.104-.047-.15l.03-.046c.05.035.103.073.155.108l.169.107-.031.045-.036-.024c-.034-.023-.06-.025-.082.007l-.02.052-.179.69.526-.409a.267.267 0 0 0 .068-.066c.03-.046-.016-.077-.069-.111l.03-.046c.047.033.097.069.145.1.036.024.077.05.115.072l-.03.045c-.049-.031-.065-.042-.176.041l-.748.553-.053-.035Zm1.225.685a17.095 17.095 0 0 0-.646-.346l.026-.049c.074.04.123.052.16-.02l.349-.651c.038-.071 0-.105-.074-.145l.026-.048c.07.04.14.08.212.118.13.07.262.138.392.205l-.096.202-.034-.018c.05-.137.028-.162-.135-.25l-.117-.062-.188.352.131.07c.08.043.115.06.184-.069l.041.022c-.027.048-.056.097-.083.148l-.079.156-.041-.022c.055-.102.04-.125-.054-.175l-.131-.07-.145.272c-.043.08-.021.13.11.2.16.086.185.068.312-.022l.04.021-.16.18Zm1.202-.326c-.046.112-.14.16-.273.156.026.437.05.502.143.576l-.02.05a1.773 1.773 0 0 0-.099-.045 2.033 2.033 0 0 0-.109-.041c-.029-.113-.048-.357-.065-.559l-.056-.019-.055-.027-.132.316c-.033.08.014.106.087.137l-.02.05a7.074 7.074 0 0 0-.389-.162l.021-.05c.078.032.128.04.159-.035l.285-.683c.03-.074-.01-.104-.087-.137l.02-.05c.063.028.127.057.19.083.08.034.192.076.249.1.137.058.216.185.151.34Zm.71.183c.008-.086-.003-.183-.115-.219-.09-.028-.171.02-.201.113-.03.097-.018.144.116.29.148.163.155.26.115.386-.052.16-.215.235-.391.178a.445.445 0 0 1-.195-.122l.043-.222.039.013c-.01.152.018.243.143.284.132.042.196-.053.216-.115.027-.083.004-.148-.088-.255-.151-.175-.177-.268-.126-.424.044-.137.184-.23.333-.182.065.02.14.065.196.085l-.048.202-.036-.012Zm.719.036c-.082-.02-.132-.02-.151.059l-.177.718c-.019.078.025.102.107.122l-.013.053a6.65 6.65 0 0 0-.408-.1l.013-.053c.082.02.132.019.152-.06l.176-.717c.019-.078-.025-.102-.107-.122l.013-.054c.066.018.133.037.2.054.07.017.143.033.208.047l-.013.053Zm.879.336-.048-.008c.012-.135.002-.163-.07-.175l-.178-.03-.136.809c-.013.079.032.1.126.115l-.01.054a8.196 8.196 0 0 0-.22-.041c-.067-.012-.137-.021-.215-.032l.01-.054c.093.015.143.011.156-.068l.137-.809-.135-.022c-.108-.019-.132-.006-.186.13l-.046-.007.071-.27.035.005c-.006.04.033.057.07.063l.565.096c.04.007.062.01.103-.034l.035.006-.064.272Zm1.025-.092c-.059-.004-.091-.002-.175.108l-.256.34-.028.374c-.005.072.061.077.14.083l-.004.055a8.01 8.01 0 0 0-.218-.02 5.868 5.868 0 0 0-.22-.013l.003-.055c.09.007.14.01.146-.072l.024-.318-.251-.479c-.03-.05-.058-.07-.107-.073l.005-.055a5.772 5.772 0 0 0 .392.03l-.004.054c-.034-.002-.099-.007-.1.02-.002.02.006.03.02.06l.174.349.195-.271c.022-.029.042-.059.044-.084.002-.032-.004-.05-.1-.056l.004-.055c.053.006.118.013.171.017.045.003.097.003.15.006l-.005.055Zm.253-1.669-.08-.002H8.614v-.748a8.105 8.105 0 0 1 0-14.71v-.813h7.315v1.066a8.103 8.103 0 0 1 4.197 7.102 8.103 8.103 0 0 1-4.197 7.1v1.003h-3.828l-.08.002Zm.924 2.63c-.296.024-.51-.182-.537-.505-.027-.33.195-.557.459-.58.29-.023.499.192.524.495.022.262-.139.564-.446.59Zm.938-.724.166-.032c.088-.017.126-.026.102-.153l.046-.009a5.7 5.7 0 0 0 .065.339l-.046.009c-.025-.131-.05-.14-.155-.12l-.165.032.058.306c.02.11.064.125.147.109l.037-.007.01.054c-.07.011-.143.023-.239.041-.067.013-.135.029-.202.043l-.01-.053c.083-.016.128-.038.113-.117l-.139-.726c-.015-.08-.065-.083-.147-.067l-.01-.054.342-.061c.166-.032.27-.054.372-.076l.05.227-.035.007c-.05-.139-.089-.15-.246-.12l-.189.036.075.392Zm1.791-.455c-.068-.13-.085-.174-.234-.122l-.207.072.167.485c.049.14.114.12.204.09l.018.052c-.085.028-.164.053-.242.08-.077.026-.154.055-.24.087l-.018-.052c.148-.05.15-.088.084-.281l-.306-.887c-.057-.164-.087-.162-.223-.122l-.018-.052c.12-.042.246-.08.37-.124.154-.052.307-.107.46-.164l.107.279-.036.021c-.075-.164-.166-.195-.35-.131l-.201.07.195.567.2-.07c.14-.048.144-.076.117-.226l.039-.013a3.467 3.467 0 0 0 .148.43l-.034.011Zm.96.188c-.268.127-.54.007-.678-.285-.14-.3-.01-.59.228-.703.264-.124.535.005.664.28.111.237.066.576-.214.708Zm1.343-.782-.098.065c-.108-.043-.316-.17-.49-.274l-.048.034-.054.028.178.292c.045.074.095.052.162.01l.029.047a6.677 6.677 0 0 0-.359.22l-.029-.047c.072-.044.107-.08.065-.149l-.385-.63c-.042-.069-.09-.054-.162-.01l-.028-.047c.059-.034.12-.069.178-.105.073-.045.174-.111.226-.143.127-.078.277-.068.365.076.062.103.046.207-.034.313.368.235.435.254.55.22l.028.048a1.886 1.886 0 0 0-.094.052Zm.502-.36-.275.212-.033-.044c.068-.05.099-.09.05-.154l-.442-.592c-.048-.065-.094-.046-.162.005l-.033-.044c.066-.047.132-.093.197-.142.118-.089.236-.18.35-.269l.144.173-.03.022c-.104-.102-.136-.093-.284.018l-.106.08.239.32.119-.09c.072-.054.102-.08.015-.197l.037-.027.099.137c.034.046.07.092.108.138l-.038.028c-.07-.093-.096-.089-.18-.025l-.12.09.185.246c.054.073.109.074.228-.015.145-.11.14-.139.112-.293l.036-.027.096.221c-.105.076-.209.151-.312.23Zm.647-.523a5.923 5.923 0 0 0-.153.14l-.036-.042c.064-.055.092-.097.04-.157l-.485-.558c-.053-.06-.098-.038-.162.017l-.036-.041a6.92 6.92 0 0 0 .317-.277l.037.042c-.064.055-.092.097-.04.157l.485.558c.053.06.098.038.161-.018l.036.042a6.74 6.74 0 0 0-.164.137Zm.718-.643c-.2.208-.513.188-.726-.019-.242-.235-.24-.544-.043-.747.033-.033.064-.056.131-.108l.141-.094.19.165-.027.029c-.115-.05-.234-.102-.364.032-.136.14-.152.357.09.592.142.137.405.263.604.057a.278.278 0 0 0 .064-.115l-.114-.116c-.084-.082-.117-.094-.203-.005l-.04-.038c.05-.048.106-.1.154-.15.037-.038.079-.088.115-.128l.04.038c-.06.061-.064.084-.013.134l.097.095c.028.026.05.048.082.034l.029.028a1.21 1.21 0 0 1-.207.316Zm.947-1.122-1.03-.031.445.346c.12.094.16.102.242-.005l.044.034a5.563 5.563 0 0 0-.229.294l-.043-.034c.09-.116.022-.17-.098-.263l-.463-.36c-.074-.059-.144.024-.166.052l-.043-.034a2.445 2.445 0 0 0 .15-.195l.933.032-.436-.34c-.115-.09-.146-.053-.205.023l-.043-.034a4.668 4.668 0 0 0 .209-.269l.043.034c-.052.067-.073.1.01.166l.706.55-.026.034Zm.665-1.028a.576.576 0 0 1-.197.205l-.287-.12.02-.036c.154.05.337.039.41-.092.068-.12.021-.27-.124-.352-.342-.193-.502.329-.935.084-.238-.133-.28-.347-.172-.538.036-.065.088-.12.135-.176l.25.107-.021.036c-.138-.055-.255-.025-.318.088-.067.12-.004.245.13.32.342.193.52-.343.942-.105.24.135.27.394.166.579Zm.415-.895c-.028.062-.055.127-.086.2l-.05-.023c.04-.087.048-.136-.025-.17l-.746-.337-.056.124c-.046.1-.039.127.08.214l-.02.043-.244-.138.015-.033c.037.017.064-.017.08-.051l.236-.523c.016-.038.026-.058-.007-.108l.015-.033.246.132-.02.044c-.128-.046-.157-.043-.187.024l-.074.164.745.338c.073.033.105-.006.144-.093l.05.023a8.563 8.563 0 0 0-.096.203Zm.427-1.008c-.074.218-.216.317-.447.239l-.55-.185c-.072-.025-.096.047-.112.093l-.052-.018.07-.193c.02-.06.039-.123.056-.182l.052.018c-.017.05-.037.11.031.133l.544.184c.184.062.29-.01.334-.142.08-.24-.137-.312-.337-.38l-.236-.08c-.2-.066-.222-.055-.26.06l-.052-.018a3.15 3.15 0 0 0 .104-.312l.052.017c-.019.058-.024.106.106.15l.406.136c.23.078.374.23.29.48Zm.292-1.165c-.016.077-.039.165-.054.233l-.045.237-.054-.011c.018-.083.015-.133-.063-.15l-.723-.153c-.078-.017-.1.028-.118.111l-.053-.011a7.68 7.68 0 0 0 .048-.21c.02-.09.034-.181.053-.27.075-.353.364-.45.602-.4.39.083.461.367.407.624Zm.16-.981c-.009.068-.015.138-.021.206l-.055-.007c.01-.084.004-.133-.076-.143l-.733-.088c-.08-.01-.098.037-.108.121l-.054-.006.029-.205c.008-.072.015-.147.02-.213l.055.006c-.01.084-.003.134.077.143l.733.088c.08.01.098-.037.107-.12l.055.006-.03.212Zm.065-.77c-.005.115-.009.232-.012.347l-.055-.002c.004-.085-.006-.134-.087-.137l-.737-.035c-.08-.004-.095.045-.099.129l-.055-.002c.006-.081.012-.162.016-.243l.016-.442h.224l-.002.037c-.144.015-.158.045-.167.23l-.006.133.399.019.006-.15c.005-.09.004-.13-.141-.136l.002-.047c.055.005.111.009.168.012l.175.004-.002.047c-.116-.005-.13.017-.134.123l-.007.15.308.014c.09.004.126-.038.133-.187.008-.181-.019-.195-.154-.272l.002-.045.23.067c-.007.13-.015.257-.021.386Z"/>
    <path fill="#002843" d="M8.517 7.877c.033-.025.064-.053.098-.077V6.613a6.414 6.414 0 0 0-.784.581c.17.29.406.515.686.683Zm-.647 5.058c.24.124.49.23.745.32v-2.18a3.948 3.948 0 0 1-.268-.098 8.557 8.557 0 0 0-.477 1.958Zm7.653 2.319c-.087.627-.23 1.245-.428 1.847h.835v.004a6.457 6.457 0 0 0 1.003-.963c.336-.957.523-1.868.559-2.729a7.485 7.485 0 0 1-1.97 1.84Zm-7.382-4.367A3.135 3.135 0 0 1 7.022 10a7.528 7.528 0 0 0-.681 1.776c.385.412.83.763 1.32 1.042a8.79 8.79 0 0 1 .48-1.931Zm.474-.041v-.508a9.94 9.94 0 0 0-.19.437c.063.025.126.049.19.07ZM7.14 9.792c.283.38.654.687 1.08.892.116-.284.248-.561.395-.83V8.17l-.067-.031a6.026 6.026 0 0 0-1.407 1.653Zm10.357 3.232a6.284 6.284 0 0 0-.434-2.26 4.983 4.983 0 0 1-.368.594c-.326.447-.723.84-1.178 1.178.117.79.13 1.609.042 2.43a7.225 7.225 0 0 0 1.938-1.942Z"/>
    <path fill="#002843" d="M12.947 6.4h2.407V4.443H9.192V19.56h6.162v-1.883h-2.407V6.399Z"/>
    <path fill="#002843" d="M13.657 7.096a7.23 7.23 0 0 1 2.002 1.315c.229-.488.325-.981.284-1.436a.541.541 0 0 0-.013-.01v.011h-2.172c-.033.04-.066.081-.101.12Zm-.134 10.005h1.335c.186-.552.326-1.12.416-1.696-.542.316-1.13.56-1.75.706v.99Zm0-1.221a6.264 6.264 0 0 0 1.793-.757 9.412 9.412 0 0 0-.004-2.442 6.6 6.6 0 0 1-1.789.843v2.356Zm4.188-3.194a5.59 5.59 0 0 0 .645-1.587 6.362 6.362 0 0 0-.754-2.202 4.46 4.46 0 0 1-.405 1.602c.297.684.469 1.414.514 2.187Zm-.642-2.468.001.004a4.155 4.155 0 0 0 .311-1.689 6.445 6.445 0 0 0-1.205-1.368c.003.454-.113.934-.346 1.406.542.53.972 1.107 1.239 1.647Zm-3.546.292a4.85 4.85 0 0 0 .897-.564 8.22 8.22 0 0 0-.897-1.268v1.832Zm2.2-1.731c-.261.46-.607.872-1.015 1.222.17.315.315.642.434.98.147.425.26.86.337 1.303a5.268 5.268 0 0 0 1.035-1.059 4.64 4.64 0 0 0 .436-.726c-.027-.06-.053-.122-.083-.182-.248-.504-.646-1.04-1.144-1.538Zm-2.2 4.511a6.322 6.322 0 0 0 1.753-.855 8.298 8.298 0 0 0-.346-1.38 6.471 6.471 0 0 0-.401-.91 5.14 5.14 0 0 1-1.006.612v2.532Zm0-4.956a8.3 8.3 0 0 1 1.075 1.465 4.39 4.39 0 0 0 .958-1.18 6.97 6.97 0 0 0-2.033-1.338v1.053ZM8.34 8.017a2.18 2.18 0 0 1-.675-.674A6.433 6.433 0 0 0 6.58 8.66c.113.357.255.665.423.93A6.247 6.247 0 0 1 8.34 8.017ZM6.279 12.04a8.12 8.12 0 0 0-.168 1.996 6.51 6.51 0 0 0 1.53 1.067 9.239 9.239 0 0 1-.014-2.045A5.842 5.842 0 0 1 6.28 12.04ZM2.35 8.375a.245.245 0 0 0 .163.011.162.162 0 0 0 .116-.093.161.161 0 0 0-.011-.146.238.238 0 0 0-.12-.11.246.246 0 0 0-.166-.013.159.159 0 0 0-.114.092c-.019.045-.015.093.012.146a.23.23 0 0 0 .12.113Zm17.207-3.252a.233.233 0 0 0 .146-.061.246.246 0 0 0 .082-.138.153.153 0 0 0-.165-.19.224.224 0 0 0-.148.06.24.24 0 0 0-.081.137.153.153 0 0 0 .034.14.155.155 0 0 0 .132.052Zm2.614 8.684c-.254-.054-.475.004-.525.24l-.035.195.743.158c.12.025.142-.029.16-.114.036-.168.018-.402-.343-.479Z"/>
  </g>
  <defs>
    <clipPath id="a">
      <path fill="#fff" d="M0 0h24v24H0z"/>
    </clipPath>
  </defs>
</svg>
