<svg xmlns="http://www.w3.org/2000/svg" width="24" height="24" fill="none" viewBox="0 0 24 24">
  <g clip-path="url(#a)">
    <path fill="#296854" d="M12 24a11.957 11.957 0 0 1-8.485-3.515A11.951 11.951 0 0 1 0 12a11.951 11.951 0 0 1 3.515-8.486A11.957 11.957 0 0 1 12 0a11.959 11.959 0 0 1 8.485 3.515A11.951 11.951 0 0 1 24 12a11.953 11.953 0 0 1-3.515 8.485A11.96 11.96 0 0 1 12 24Z"/>
    <path fill="#fff" d="M12 .342C5.572.342.342 5.572.342 12c0 6.428 5.23 11.657 11.658 11.657 6.428 0 11.658-5.229 11.658-11.657S18.428.342 12 .342Z"/>
    <path fill="#296854" d="M7.686 7.664v6.466c0 .001-.007.163.074.42.085.271.231.546.436.815.423.557 1.07 1.064 1.925 1.507.263.137.552.26.86.368.343.12.776.32 1.013.622.238-.302.67-.502 1.014-.622.307-.107.597-.231.86-.368.854-.443 1.502-.95 1.925-1.507.204-.27.351-.544.436-.815.08-.257.074-.419.074-.42V7.664a6.6 6.6 0 0 1-3.17-.604 5.667 5.667 0 0 1-1.139-.695 5.632 5.632 0 0 1-1.138.695 6.597 6.597 0 0 1-3.17.604Zm4.308 10.513a.13.13 0 0 1-.115-.07c-.174-.328-.685-.547-.975-.648a6.96 6.96 0 0 1-.89-.38c-.885-.46-1.559-.99-2.002-1.573a2.953 2.953 0 0 1-.474-.887 1.576 1.576 0 0 1-.084-.498V7.415l.125.01c2.652.201 4.32-1.283 4.337-1.298l.078-.07.078.07c.005.003.425.38 1.167.726a6.37 6.37 0 0 0 3.17.572l.126-.01v6.706c0 .031.003.218-.085.498a2.906 2.906 0 0 1-.473.887c-.443.584-1.117 1.113-2.002 1.572a6.97 6.97 0 0 1-.89.381c-.29.101-.8.32-.975.649a.13.13 0 0 1-.116.07"/>
    <path fill="#296854" d="M13.077 8.14a1.083 1.083 0 1 0-2.166.001 1.083 1.083 0 0 0 2.166 0Zm1.446 5.821c-.025-1.025-.863-1.896-1.892-1.896h-1.274c-1.03 0-1.866.871-1.891 1.896h-.002v2.262H11.1v-2.56c0-.495.4-.792.895-.792.493 0 .894.297.894.791v2.561h1.635v-2.262Z"/>
    <path fill="#296854" d="M13.462 7.933a1.481 1.481 0 0 1-.505 1.336v.98c0 .493-.4.894-.894.894h-.138a.894.894 0 0 1-.894-.895v-.98a1.48 1.48 0 0 1-.505-1.335H9.465v2.262h.002c.025 1.025.862 1.896 1.891 1.896h1.274c1.03 0 1.867-.871 1.892-1.896h.001V7.933h-1.062Zm-4.368-.387v8.784l-1.037-.957-.414-.865V7.546h1.451Zm5.8 0v8.784l.99-.894.461-.928V7.546h-1.45ZM6.467 6.97a.105.105 0 1 1-.211 0 .105.105 0 0 1 .21 0Zm.454.383a.106.106 0 1 1-.21 0 .106.106 0 0 1 .21 0Zm10.656-.383a.106.106 0 0 0 .21 0 .105.105 0 1 0-.21 0Zm-.455.383a.105.105 0 1 0 .21 0 .105.105 0 0 0-.21 0ZM4.955 6.227c-.242-.015-.678-.056-.873-.164-.196-.11-.304-.258-.292-.312a.077.077 0 0 1 .036-.05c.046-.03.136-.027.276.008.031.007.071.012.088-.008.019-.023.012-.075-.02-.147a1.327 1.327 0 0 1-.096-.31c-.044-.253-.077-.517.015-.56-.1-.176-.215-.185-.277-.172a.07.07 0 0 0-.053.055C3.356 6.71 4.79 6.478 4.79 6.478l.114-.005c0-.012-.004-.025-.002-.038.008-.059.026-.131.054-.208Z"/>
    <path fill="#296854" d="M5.073 6.005a.952.952 0 0 1 .455-.34 1.512 1.512 0 0 0-.3-.621c-.33-.415-.993-.391-1.126-.337.004.01.01.017.015.027.11.236.669.925.956 1.271Z"/>
    <path fill="#296854" d="M4.116 4.734c-.004-.01-.01-.018-.014-.027-.09.036-.023.41-.002.533.017.098.048.197.094.303.037.084.042.143.016.175-.02.024-.059.03-.114.016a.792.792 0 0 0-.18-.028.143.143 0 0 0-.076.016.053.053 0 0 0-.025.035c-.007.033.081.173.28.283.19.106.632.147.871.16a.926.926 0 0 1 .107-.195c-.287-.346-.846-1.034-.957-1.27m15.851.51c-.017.1-.049.2-.096.309-.031.072-.038.125-.02.147.017.02.058.016.088.008.14-.035.23-.038.276-.01.02.012.032.03.037.052.012.054-.096.203-.293.312-.194.109-.63.149-.873.164a.971.971 0 0 1 .054.208.128.128 0 0 1-.002.039l.114.005s1.434.23 1.03-1.912a.07.07 0 0 0-.052-.055c-.062-.013-.178-.004-.278.173.092.042.06.306.015.56Z"/>
    <path fill="#296854" d="M18.968 6.005c.288-.346.847-1.035.957-1.271l.015-.027c-.133-.054-.797-.078-1.127.337a1.513 1.513 0 0 0-.3.622c.219.08.36.207.455.339Z"/>
    <path fill="#296854" d="M18.968 6.005c.044.06.08.127.108.196.24-.014.68-.055.87-.16.199-.111.288-.251.28-.285a.05.05 0 0 0-.024-.034c-.04-.024-.126-.02-.257.012-.055.013-.093.008-.114-.017-.026-.03-.02-.089.017-.174.046-.105.076-.204.094-.303.023-.136.086-.497-.002-.533l-.015.027c-.11.236-.67.925-.957 1.271ZM20.461 12c0 4.666-3.795 8.46-8.461 8.46S3.539 16.667 3.539 12a8.47 8.47 0 0 1 1.935-5.38l.004-.004h.094c.01.002.018.002.026.002a.247.247 0 0 0 .19-.088.244.244 0 0 0 .05-.225l-.014-.08.004-.004a8.46 8.46 0 0 1 2.753-1.959A8.365 8.365 0 0 1 12 3.54a8.38 8.38 0 0 1 3.443.733 8.456 8.456 0 0 1 2.763 1.986l.005.005-.007.04a.25.25 0 0 0 .264.314h.055l.004.004a8.468 8.468 0 0 1 1.934 5.38Zm-1.664-5.79.034-.041-.367-.31v-.005c0-.002 0-.067.02-.17a.15.15 0 0 0-.163.056.148.148 0 0 0-.025.06l-.02.111-.018-.017A8.68 8.68 0 0 0 12 3.25a8.686 8.686 0 0 0-6.223 2.607l-.017.018-.014-.075a.148.148 0 0 0-.073-.103.152.152 0 0 0-.076-.02.15.15 0 0 0-.04.006c.02.103.02.169.02.17v.007l-.004.003-.363.306c.021.026.035.04.035.04l-.212.259-.104.004a.14.14 0 0 0 .083.125.15.15 0 0 0 .063.015h.039l-.016.02A8.655 8.655 0 0 0 3.25 12c0 4.825 3.925 8.75 8.75 8.75s8.75-3.925 8.75-8.75a8.66 8.66 0 0 0-1.847-5.366l-.017-.022h.08a.15.15 0 0 0 .115-.054.144.144 0 0 0 .032-.086l-.105-.004-.211-.258Z"/>
    <path fill="#296854" d="m5.245 6.21-.035-.04-.078.064h-.005a3.79 3.79 0 0 1-.144-.005.995.995 0 0 0-.057.21c-.002.011.002.022.003.034l.104-.005.212-.258Zm-.155-.184.103.123.359-.302a1.08 1.08 0 0 0-.02-.155.927.927 0 0 0-.442.334Z"/>
    <path fill="#296854" d="m4.993 6.203.13.005.07-.06-.102-.122a.938.938 0 0 0-.098.177Zm.209-.044.008.01.363-.306.004-.004.001-.005c0-.002 0-.068-.021-.17-.003 0-.007 0-.01.002h-.002c.02.102.02.168.02.168l-.363.305Z"/>
    <path fill="#296854" d="m5.132 6.235.078-.066-.008-.01-.075.062-.139-.005-.005.012c.081.005.136.007.144.007h.005Zm.061-.086.009.01.363-.306s0-.064-.02-.167l-.012.006a1.1 1.1 0 0 1 .019.155l-.359.302Z"/>
    <path fill="#296854" d="m5.202 6.159-.009-.01-.07.06-.13-.007-.005.013.14.007.074-.063Zm13.708.076-.078-.066a7.027 7.027 0 0 1-.035.041l.212.258.104.004c0-.01.004-.021.002-.033a1.053 1.053 0 0 0-.057-.21 4.939 4.939 0 0 1-.143.006h-.005Zm-.062-.086.103-.123a.923.923 0 0 0-.442-.334 1.113 1.113 0 0 0-.02.155l.36.302Z"/>
    <path fill="#296854" d="M19.048 6.203a.935.935 0 0 0-.097-.177l-.103.123.07.06.13-.006Zm-.584-.343.367.309.009-.01-.363-.306s0-.064.02-.167h-.002c-.004-.002-.008 0-.01-.002-.02.103-.021.168-.021.17v.006Z"/>
    <path fill="#296854" d="m18.914 6.222-.074-.063-.008.01.078.066h.004l.145-.006a.125.125 0 0 1-.006-.014l-.139.007m-.074-.063.008-.01-.358-.302c0-.017.004-.075.019-.155l-.012-.006c-.02.102-.02.168-.02.168l.363.305Z"/>
    <path fill="#296854" d="m18.919 6.208-.07-.059-.009.01.074.062.14-.005a.288.288 0 0 0-.006-.013 2.569 2.569 0 0 1-.13.005ZM12.34 18.887c.066.003.189.012.346.038l.004-.01c.093-.175-.093-.261-.093-.261s-.013-.01-.03-.033a.05.05 0 0 0-.063-.015l-.117.064v.01a.48.48 0 0 1-.047.207m-.846-.266a.139.139 0 0 1-.03.032s-.186.087-.092.263l.004.008c.114-.018.23-.03.345-.037a.477.477 0 0 1-.048-.207l.002-.01-.117-.064a.049.049 0 0 0-.064.015Zm5.39-10.8c-.05-.032-.102-.065-.148-.106a.174.174 0 0 1-.05-.18.53.53 0 0 1-.184-.051l-1.03.806-.069.977 1.654-1.273-.004-.02c-.015-.052-.093-.103-.17-.152m-9.632-.107c-.046.04-.097.074-.148.107-.076.049-.154.1-.17.151l-.002.013L8.7 9.345l.046-.885-1.252-.98a.534.534 0 0 1-.191.054.174.174 0 0 1-.05.18Zm-.301 7.848.017-.002a.173.173 0 0 1 .15.086 1.2 1.2 0 0 1 .073.167c.02.053.042.106.066.145l1.29-1.052-.072-.8-1.533 1.27a.522.522 0 0 1 .009.186ZM5.634 16.77a.174.174 0 0 1-.073-.186.209.209 0 0 1 .074-.11c-.005-.001-.011 0-.016-.002l-.45.373a1.1 1.1 0 0 0-.256.304c-.09.241.055.417.308.375.127-.042.245-.106.349-.19l.462-.378a1.57 1.57 0 0 0-.211-.097 1.028 1.028 0 0 1-.187-.09Zm12.792-.186a.175.175 0 0 1-.073.186c-.048.033-.113.058-.187.088-.06.024-.123.052-.179.082l.483.394c.104.084.221.149.348.19.254.042.398-.133.308-.374a1.1 1.1 0 0 0-.254-.305l-.464-.384a.35.35 0 0 1-.056.013.209.209 0 0 1 .074.11Zm-1.556-.936a.173.173 0 0 1 .15-.088c.006 0 .012.002.017.003a.535.535 0 0 1 .02-.22l-1.218-1.01-.188.703 1.097.893a1.14 1.14 0 0 0 .048-.115c.021-.056.044-.113.074-.166Zm-7.303 2.58c.02.012.01.043-.013.043h-.003c-.128-.012-.266-.02-.392-.061-.02-.007-.211-.093-.27-.093-.012 0-.018.005-.016.014.013.043.042.186.31.396.052.04.094.076.13.107a.024.024 0 0 1-.015.042h-.002a1.77 1.77 0 0 0-.174-.009c-.212 0-.415.041-.554.131-.034.023-.105.126-.065.132.014.002.03.003.048.003.077 0 .192-.015.304-.015.138 0 .27.022.327.123a.728.728 0 0 0 .44.333c.042.01.09.015.137.015.148 0 .296-.057.305-.24a.282.282 0 0 0-.081-.202.043.043 0 0 1 .026-.073c.098-.013.2-.053.207-.162.01-.116-.013-.184-.065-.24a.043.043 0 0 1 .019-.071.289.289 0 0 0 .147-.09c.155-.18.016-.345-.115-.417a.638.638 0 0 0-.255-.063 1.346 1.346 0 0 0-.111-.004h-.038c-.047.001-.095.01-.142.01h-.014c-.166-.007-.284-.186-.412-.273a.011.011 0 0 0-.006-.002c-.026 0-.048.1-.042.135.03.194.19.391.385.53Zm-.876-.362a.044.044 0 0 1 .035-.066.29.29 0 0 0 .164-.055c.19-.139.093-.33-.02-.431a.654.654 0 0 0-.233-.119 1.669 1.669 0 0 0-.144-.037c-.051-.01-.104-.011-.155-.025-.16-.044-.235-.246-.339-.359a.01.01 0 0 0-.004-.003.012.012 0 0 0-.004 0c-.026 0-.067.088-.07.12-.013.198.098.426.257.605.014.016.001.04-.018.04-.002 0-.005 0-.008-.002-.122-.04-.255-.078-.367-.147-.02-.011-.205-.151-.251-.151-.007 0-.011.003-.01.01.001.044-.002.19.212.455.035.044.07.089.103.135a.024.024 0 0 1-.019.038l-.008-.001a1.505 1.505 0 0 0-.474-.086.766.766 0 0 0-.262.04c-.04.016-.131.1-.093.115.137.053.571.038.637.261.054.185.205.35.353.422.069.034.156.06.237.06.108 0 .207-.046.244-.178a.28.28 0 0 0-.034-.216.044.044 0 0 1 .038-.066h.004a.375.375 0 0 0 .048.002c.083 0 .164-.025.191-.112.036-.112.028-.184-.01-.249ZM6.99 16.47c.01.017-.004.035-.02.035a.023.023 0 0 1-.013-.003 3.49 3.49 0 0 1-.204-.132l-.241.196a4.03 4.03 0 0 1 .072.159.024.024 0 0 1-.01.03.023.023 0 0 1-.012.003.019.019 0 0 1-.013-.004 1.788 1.788 0 0 0-.16-.088l-.224.183c.067.05.119.108.123.184.012.193.12.388.249.491a.5.5 0 0 0 .29.12c.08 0 .154-.034.205-.127a.283.283 0 0 0 .016-.218.044.044 0 0 1 .041-.057c.005 0 .01 0 .014.002a.377.377 0 0 0 .117.022c.057 0 .108-.02.142-.075.058-.101.068-.173.045-.245a.044.044 0 0 1 .049-.056.282.282 0 0 0 .172-.017c.217-.093.165-.302.079-.425a.64.64 0 0 0-.202-.168 1.433 1.433 0 0 0-.132-.069c-.047-.021-.099-.034-.144-.058a.286.286 0 0 1-.097-.092l-.232.189c.023.075.052.15.09.22Z"/>
    <path fill="#296854" d="M6.63 16.275c-.016-.016-.173-.204-.213-.204-.005 0-.008.002-.01.008-.007.044-.043.185.104.487l.24-.196c-.042-.03-.084-.059-.12-.095Zm.338-.554c-.027 0-.083.072-.092.102a.741.741 0 0 0 .023.427l.232-.19c-.068-.098-.098-.236-.154-.334a.01.01 0 0 0-.004-.004.01.01 0 0 0-.005-.001Zm-1.053.82a.553.553 0 0 0-.074.005c-.041.005-.15.066-.116.09.082.055.3.112.438.213l.225-.183a1.134 1.134 0 0 0-.473-.125Zm.69-1.406a1.381 1.381 0 0 0-.113-.097c-.04-.032-.088-.056-.127-.09-.125-.11-.104-.324-.148-.471-.002-.006-.006-.009-.013-.009-.028 0-.093.054-.109.08-.098.17-.098.425-.034.655.005.017-.009.03-.023.03a.023.023 0 0 1-.016-.006c-.092-.09-.195-.182-.267-.294-.013-.02-.128-.248-.165-.248-.003 0-.005.003-.007.007-.018.041-.085.17-.01.502.015.065.026.118.035.166a.024.024 0 0 1-.024.029.026.026 0 0 1-.017-.007c-.193-.192-.432-.341-.641-.363h-.008c-.047 0-.152.033-.126.06.1.109.497.287.458.515-.032.19.03.405.132.535.074.093.192.188.311.188.06 0 .12-.024.173-.084a.281.281 0 0 0 .065-.21.044.044 0 0 1 .043-.046c.008 0 .016.002.023.006a.32.32 0 0 0 .149.052l.196-.163a.232.232 0 0 0 .018-.11.043.043 0 0 1 .043-.048.04.04 0 0 1 .017.004.315.315 0 0 0 .082.022l.293-.243a.422.422 0 0 0-.031-.154.636.636 0 0 0-.158-.208m-.064.609a.26.26 0 0 0 .05-.004c.155-.028.204-.134.203-.242l-.293.242a.258.258 0 0 0 .04.004Zm-.39.293a.144.144 0 0 0 .108-.048.418.418 0 0 0 .082-.116l-.196.162.006.002Zm-.545-1.665a.044.044 0 0 1 .044-.038c.008 0 .017.002.025.008a.289.289 0 0 0 .161.06l.02.001c.22 0 .26-.203.237-.348a.635.635 0 0 0-.106-.239 1.623 1.623 0 0 0-.09-.12c-.032-.04-.073-.074-.103-.116-.097-.135-.029-.339-.038-.492 0-.009-.008-.012-.017-.012a.24.24 0 0 0-.118.054c-.134.144-.191.392-.18.63a.024.024 0 0 1-.024.026l-.012-.003a.023.023 0 0 1-.008-.008c-.07-.108-.15-.221-.193-.347-.009-.022-.072-.278-.107-.278-.003 0-.006.002-.008.005-.026.036-.12.147-.121.487 0 .066-.003.121-.005.17 0 .014-.012.022-.024.022a.023.023 0 0 1-.02-.01c-.145-.23-.345-.43-.543-.499a.196.196 0 0 0-.054-.006c-.049 0-.104.011-.09.036.073.128.419.39.33.604a.727.727 0 0 0 .008.55c.058.123.172.26.31.26a.238.238 0 0 0 .14-.05.283.283 0 0 0 .109-.188.044.044 0 0 1 .043-.037c.011 0 .022.003.031.012.05.049.11.091.173.091a.144.144 0 0 0 .082-.026c.097-.065.138-.125.148-.2Zm-.42-1.524a.045.045 0 0 1 .04-.028.04.04 0 0 1 .032.015.297.297 0 0 0 .23.108c.165 0 .235-.163.243-.294a.632.632 0 0 0-.05-.256 1.453 1.453 0 0 0-.06-.137c-.023-.047-.055-.09-.075-.137-.063-.153.05-.337.074-.488.002-.012-.011-.018-.031-.018a.254.254 0 0 0-.11.029c-.163.11-.274.338-.318.573a.023.023 0 0 1-.023.02.024.024 0 0 1-.023-.016c-.043-.12-.095-.249-.11-.38-.003-.025-.007-.296-.042-.296a.01.01 0 0 0-.007.003c-.034.03-.151.117-.229.448-.014.064-.03.117-.042.164a.023.023 0 0 1-.023.017.024.024 0 0 1-.023-.016c-.09-.257-.239-.496-.418-.607a.25.25 0 0 0-.108-.025c-.025 0-.043.005-.038.021.042.14.32.474.186.663a.727.727 0 0 0-.116.539c.031.147.128.327.29.327.03 0 .064-.007.1-.022a.283.283 0 0 0 .15-.159.043.043 0 0 1 .04-.028c.015 0 .029.007.037.021.043.068.104.13.18.13a.157.157 0 0 0 .054-.01c.11-.04.162-.09.19-.161Zm-.288-1.465c.115-.015.178-.052.22-.114a.045.045 0 0 1 .036-.02c.016 0 .03.008.038.024a.293.293 0 0 0 .25.163c.133 0 .22-.127.253-.238a.643.643 0 0 0 .008-.261 1.446 1.446 0 0 0-.027-.147c-.012-.05-.034-.1-.042-.15-.028-.164.123-.318.181-.46.009-.02-.036-.028-.078-.028a.194.194 0 0 0-.061.008c-.184.07-.344.267-.44.487a.024.024 0 0 1-.022.015.024.024 0 0 1-.024-.022c-.014-.127-.036-.264-.02-.395.002-.025.061-.298.023-.298a.01.01 0 0 0-.006.002c-.04.02-.173.079-.323.384-.025.05-.051.101-.078.15a.022.022 0 0 1-.02.013.024.024 0 0 1-.025-.021c-.03-.27-.121-.537-.27-.686a.24.24 0 0 0-.122-.052c-.013 0-.022.005-.02.016.01.146.206.534.032.687a.721.721 0 0 0-.234.498c-.003.167.062.39.261.39a.28.28 0 0 0 .231-.127.044.044 0 0 1 .036-.017.042.042 0 0 1 .041.03c.03.086.085.17.18.17h.022m.324-1.604a.25.25 0 0 0 .186-.065.044.044 0 0 1 .03-.011c.018 0 .036.011.041.032a.293.293 0 0 0 .088.148.25.25 0 0 0 .165.071c.11 0 .203-.09.254-.18a.653.653 0 0 0 .067-.252c.005-.05.006-.1.006-.15 0-.05-.01-.103-.007-.155.01-.166.19-.281.28-.407.018-.026-.077-.052-.121-.052h-.01c-.195.028-.395.184-.537.377a.025.025 0 0 1-.02.01.024.024 0 0 1-.024-.027c.014-.127.024-.265.068-.39.008-.024.132-.286.088-.286l-.004.001c-.044.012-.187.038-.402.302a4.275 4.275 0 0 1-.117.135.023.023 0 0 1-.01.003.024.024 0 0 1-.024-.028c.032-.27.003-.55-.11-.728-.017-.028-.084-.08-.115-.08-.008 0-.013.004-.015.012-.023.145.08.567-.123.677a.722.722 0 0 0-.34.434c-.043.173-.024.43.216.445h.016a.286.286 0 0 0 .189-.077.042.042 0 0 1 .029-.012c.021 0 .04.015.043.04.011.098.05.2.158.21a.56.56 0 0 0 .055.003ZM6.42 7.76a.024.024 0 0 1-.038-.011.024.024 0 0 1 0-.016l.048-.135-.29-.223a3.33 3.33 0 0 1-.054.04.023.023 0 0 1-.014.005.024.024 0 0 1-.022-.033c.008-.022.012-.044.02-.067l-.253-.194a.197.197 0 0 1-.094.064.725.725 0 0 0-.429.345c-.081.16-.12.414.11.483.024.007.048.01.072.01a.31.31 0 0 0 .145-.04.043.043 0 0 1 .065.043c-.012.1.002.207.106.241a.42.42 0 0 0 .132.026.217.217 0 0 0 .116-.032.046.046 0 0 1 .022-.005c.023 0 .043.017.044.041 0 .06.017.115.052.165.057.081.124.112.19.112.092 0 .183-.059.242-.124a.644.644 0 0 0 .122-.23c.016-.048.029-.096.04-.145.012-.05.013-.104.028-.154a.208.208 0 0 1 .019-.043l-.268-.207a1.277 1.277 0 0 0-.11.084Z"/>
    <path fill="#296854" d="M6.107 6.652c-.011-.033-.071-.104-.1-.104-.005 0-.01.003-.012.01-.046.112-.05.427-.179.568l.253.195c.075-.237.1-.486.038-.669m1.037.941c.026-.023-.079-.076-.116-.08h-.042a.852.852 0 0 0-.455.163l.268.207c.068-.13.242-.198.345-.29Zm-.608-.225c.014-.021.2-.259.146-.259-.045.002-.191-.004-.46.205l-.081.061.289.223c.028-.08.06-.159.106-.23Zm1.11-.261c.026-.042.05-.086.072-.131.022-.048.035-.099.06-.144.083-.144.296-.169.43-.243.031-.016-.06-.092-.094-.103a.557.557 0 0 0-.175-.026c-.153 0-.322.05-.473.129a.024.024 0 0 1-.011.002.025.025 0 0 1-.024-.025l.003-.012c.069-.109.138-.228.232-.32.019-.02.255-.21.2-.22a.395.395 0 0 0-.099-.011.956.956 0 0 0-.393.107 4.566 4.566 0 0 1-.165.07.024.024 0 0 1-.02-.038c.147-.228.244-.494.221-.703-.004-.036-.05-.124-.077-.124a.012.012 0 0 0-.01.006c-.085.12-.177.545-.408.555a.722.722 0 0 0-.495.24c-.115.138-.211.377-.002.496a.26.26 0 0 0 .127.032c.03 0 .06-.004.091-.013a.043.043 0 0 1 .053.057.335.335 0 0 0-.022.144l.216.17c.01 0 .022.005.032.005a.24.24 0 0 0 .067-.01.047.047 0 0 1 .013-.002c.026 0 .048.024.043.051a.305.305 0 0 0-.006.072l.314.246a.45.45 0 0 0 .129-.06.645.645 0 0 0 .17-.197Z"/>
    <path fill="#296854" d="M6.739 6.947A.36.36 0 0 0 6.883 7l-.216-.169a.147.147 0 0 0 .072.115Zm.312.272c.047.116.13.157.214.157a.316.316 0 0 0 .08-.012l-.313-.246c0 .034.006.068.02.1m.878-1.68h.002c.035 0 .056.037.037.067-.053.083-.088.187-.01.263.077.075.14.104.21.104h.019c.031 0 .053.031.04.06a.29.29 0 0 0-.026.17c.026.159.132.21.241.21a.445.445 0 0 0 .153-.03.627.627 0 0 0 .21-.154c.036-.036.069-.073.1-.112.033-.04.057-.088.093-.126.111-.123.325-.098.473-.14.033-.009-.038-.103-.07-.122a.698.698 0 0 0-.357-.085 1.215 1.215 0 0 0-.303.04c-.02 0-.032-.025-.016-.04.09-.091.184-.192.298-.262.022-.013.295-.146.244-.169-.028-.012-.096-.048-.24-.048a1.32 1.32 0 0 0-.262.031c-.065.014-.12.023-.167.031h-.004a.024.024 0 0 1-.016-.04c.195-.19.348-.427.374-.636.004-.037-.023-.138-.05-.138a.015.015 0 0 0-.01.003c-.103.093-.275.452-.487.452-.011 0-.023 0-.034-.003a.725.725 0 0 0-.537.123c-.143.108-.29.32-.113.482a.276.276 0 0 0 .193.069h.015Zm1.53-.7c-.07.069-.128.162-.069.254.063.097.122.139.197.151.032.005.048.043.028.068a.29.29 0 0 0-.063.162c-.014.203.14.267.278.267a.424.424 0 0 0 .065-.004.636.636 0 0 0 .24-.103 1.24 1.24 0 0 0 .122-.087c.041-.032.076-.072.118-.102a.324.324 0 0 1 .19-.049c.094 0 .194.02.28.02h.023c.035-.002-.013-.11-.04-.135-.134-.13-.364-.192-.592-.192h-.036a.024.024 0 0 1-.012-.044c.109-.068.223-.145.348-.188.025-.007.321-.075.277-.109-.036-.027-.146-.123-.486-.13a3.449 3.449 0 0 1-.169-.007c-.024-.001-.03-.032-.01-.044.232-.14.435-.338.506-.535.014-.037.01-.146-.02-.146l-.007.001c-.114.063-.335.336-.532.336a.182.182 0 0 1-.077-.016.701.701 0 0 0-.278-.055c-.1 0-.196.02-.273.054-.164.073-.354.246-.218.444a.283.283 0 0 0 .187.114c.035.007.049.05.023.074Zm5.638 13.278c-.059 0-.25.086-.27.092-.125.043-.263.05-.391.061h-.003c-.022 0-.032-.03-.013-.043.195-.138.354-.336.385-.53.006-.035-.017-.135-.043-.135-.002 0-.004 0-.006.003-.127.086-.245.265-.412.273h-.013c-.047 0-.095-.01-.143-.01h-.037c-.037 0-.074 0-.111.003a.66.66 0 0 0-.255.063c-.131.073-.27.238-.115.416a.29.29 0 0 0 .147.091.044.044 0 0 1 .02.072c-.053.055-.075.123-.067.24.008.108.11.148.208.16a.044.044 0 0 1 .026.074.282.282 0 0 0-.08.203c.007.182.156.24.303.24a.594.594 0 0 0 .138-.016.723.723 0 0 0 .439-.332c.057-.102.19-.124.328-.124.111 0 .226.015.304.015.018 0 .034 0 .047-.003.041-.005-.03-.108-.065-.131-.139-.09-.341-.131-.553-.131a1.69 1.69 0 0 0-.174.009h-.002a.024.024 0 0 1-.016-.043c.037-.03.079-.066.131-.107.268-.21.297-.353.31-.396.002-.01-.004-.014-.017-.014Zm1.105-.73c-.113.069-.246.107-.367.147l-.009.001a.024.024 0 0 1-.017-.04c.159-.178.27-.406.256-.603-.002-.033-.044-.122-.07-.122l-.004.001a.01.01 0 0 0-.003.003c-.105.113-.18.315-.34.36-.05.013-.103.013-.154.024-.049.01-.097.023-.144.037a.663.663 0 0 0-.234.119c-.112.1-.21.292-.019.431a.29.29 0 0 0 .164.055c.032.002.05.038.035.066-.04.066-.046.137-.011.249.027.087.109.112.192.112.016 0 .032 0 .047-.002h.005c.033 0 .054.036.037.066a.278.278 0 0 0-.033.216c.037.132.136.178.244.178a.574.574 0 0 0 .237-.06.726.726 0 0 0 .353-.422c.065-.223.5-.208.636-.261.039-.015-.053-.1-.092-.114a.77.77 0 0 0-.262-.041 1.5 1.5 0 0 0-.474.086l-.008.001a.024.024 0 0 1-.02-.038c.034-.046.069-.09.104-.135.214-.264.21-.41.212-.455 0-.007-.003-.01-.01-.01-.046 0-.232.14-.25.151m.816-.881c-.016 0-.03-.018-.02-.035.044-.082.076-.169.1-.256l-.224-.182a.305.305 0 0 1-.115.12c-.046.025-.097.037-.145.06-.045.02-.09.044-.132.069a.642.642 0 0 0-.2.167c-.087.123-.14.332.078.425a.287.287 0 0 0 .18.016c.028 0 .05.029.04.057-.023.072-.013.144.046.245a.154.154 0 0 0 .141.075.378.378 0 0 0 .117-.022.04.04 0 0 1 .015-.002c.027 0 .05.027.04.057a.281.281 0 0 0 .017.218c.05.092.125.127.205.127a.499.499 0 0 0 .29-.12.724.724 0 0 0 .25-.491c.004-.086.067-.152.15-.205l-.217-.176a1.57 1.57 0 0 0-.195.102.027.027 0 0 1-.013.004c-.016 0-.03-.017-.022-.033.02-.045.041-.095.07-.155l.016-.036-.228-.185a2.963 2.963 0 0 1-.231.152.026.026 0 0 1-.013.004"/>
    <path fill="#296854" d="M17.58 16.08c0-.007-.003-.01-.008-.01-.04 0-.198.189-.214.205-.028.028-.062.05-.093.074l.227.186c.128-.28.096-.414.089-.456Zm-.467-.256c-.01-.03-.066-.103-.092-.103-.004 0-.007.001-.01.006-.05.087-.08.21-.135.305l.223.183a.72.72 0 0 0 .014-.391Zm1.15.811c.034-.023-.074-.084-.116-.09a.546.546 0 0 0-.073-.004 1.1 1.1 0 0 0-.438.11l.216.177c.14-.089.335-.141.412-.193m-.695-.918a.041.041 0 0 1 .016-.003.044.044 0 0 1 .032.014.043.043 0 0 1 .012.033.22.22 0 0 0 .001.054l.256.212a.37.37 0 0 0 .105-.044.043.043 0 0 1 .066.04.29.29 0 0 0 .05.187l.11.091a.22.22 0 0 0 .078.016c.12 0 .238-.095.312-.189a.725.725 0 0 0 .132-.534c-.038-.229.358-.406.457-.513.027-.03-.078-.063-.125-.063l-.008.001c-.21.022-.449.17-.642.362a.021.021 0 0 1-.007.006.021.021 0 0 1-.01.002.024.024 0 0 1-.023-.029l.034-.166c.076-.332.009-.461-.01-.502-.001-.005-.004-.007-.007-.007-.037 0-.152.228-.165.248-.071.112-.173.204-.265.294a.025.025 0 0 1-.017.007c-.004 0-.008-.001-.01-.003a.024.024 0 0 1-.013-.028c.064-.23.064-.484-.035-.655-.015-.026-.08-.08-.109-.08-.006 0-.01.003-.012.009-.044.146-.024.36-.148.47-.039.035-.086.059-.127.09-.04.031-.078.063-.114.098a.632.632 0 0 0-.158.209.438.438 0 0 0-.03.112l.334.275a.384.384 0 0 0 .04-.014Z"/>
    <path fill="#296854" d="M17.728 15.989c.032.034.07.047.109.047.016 0 .032-.005.049-.01l-.256-.21c.008.055.037.11.098.173Zm-.33-.25a.262.262 0 0 0 .13-.008l-.332-.275c-.015.122.025.253.201.284Zm.725.494a.25.25 0 0 0 .093.068l-.11-.091c.006.007.01.016.017.023Zm.768-3.083c-.035 0-.099.256-.107.278-.044.126-.123.239-.193.346a.025.025 0 0 1-.02.012.024.024 0 0 1-.024-.025c.01-.24-.046-.487-.18-.631a.237.237 0 0 0-.118-.054c-.01 0-.016.003-.017.011-.01.154.058.358-.038.493-.03.042-.071.076-.104.116a1.442 1.442 0 0 0-.089.12.64.64 0 0 0-.107.24c-.023.144.019.347.238.347h.019a.29.29 0 0 0 .162-.06.041.041 0 0 1 .025-.01c.02 0 .04.016.043.039.011.074.052.135.149.199a.145.145 0 0 0 .082.026c.063 0 .123-.042.173-.09a.042.042 0 0 1 .03-.013c.02 0 .04.014.044.037.013.08.048.145.11.189a.238.238 0 0 0 .14.048c.136 0 .25-.136.308-.258a.728.728 0 0 0 .009-.551c-.09-.214.257-.476.33-.604.014-.024-.041-.036-.09-.036a.17.17 0 0 0-.054.007c-.2.068-.398.267-.543.497a.023.023 0 0 1-.02.011.023.023 0 0 1-.025-.023 3.913 3.913 0 0 1-.004-.17c0-.34-.095-.45-.122-.487a.009.009 0 0 0-.007-.004Zm.141-1.604a.01.01 0 0 0-.007-.003c-.036 0-.04.271-.043.296-.014.131-.066.26-.11.38a.024.024 0 0 1-.023.016.023.023 0 0 1-.023-.02c-.043-.235-.154-.463-.318-.573a.255.255 0 0 0-.109-.028c-.02 0-.033.004-.031.016.024.152.137.335.074.488-.02.05-.053.091-.076.138a1.52 1.52 0 0 0-.06.137.625.625 0 0 0-.05.257c.009.13.078.293.244.293a.303.303 0 0 0 .23-.108.04.04 0 0 1 .031-.015c.017 0 .034.01.041.028.028.07.08.12.19.161.018.007.036.01.054.01.076 0 .136-.062.18-.13a.043.043 0 0 1 .036-.02c.017 0 .034.009.041.027.031.074.08.13.15.16.035.014.07.02.1.02.162 0 .258-.18.29-.327a.726.726 0 0 0-.116-.538c-.135-.188.144-.522.186-.662.005-.016-.013-.023-.038-.023a.264.264 0 0 0-.11.026c-.177.11-.328.35-.417.607a.023.023 0 0 1-.008.012.023.023 0 0 1-.014.004.023.023 0 0 1-.023-.018 3.44 3.44 0 0 1-.043-.164c-.077-.33-.194-.418-.228-.447Zm-.236-.273a.041.041 0 0 1 .037-.023c.014 0 .028.006.037.019.042.062.104.099.22.114a.146.146 0 0 0 .023.002c.093 0 .148-.085.178-.172a.043.043 0 0 1 .077-.01.282.282 0 0 0 .231.126c.2 0 .264-.224.262-.39a.72.72 0 0 0-.234-.498c-.174-.154.023-.542.033-.688 0-.012-.008-.016-.021-.016a.24.24 0 0 0-.122.052c-.149.149-.24.416-.27.685a.024.024 0 0 1-.008.016.024.024 0 0 1-.037-.007 3.5 3.5 0 0 1-.078-.15c-.15-.305-.284-.363-.323-.384a.01.01 0 0 0-.006-.002c-.039 0 .02.273.023.298.015.132-.007.268-.022.396a.023.023 0 0 1-.023.02.023.023 0 0 1-.022-.014c-.096-.22-.255-.417-.44-.488a.213.213 0 0 0-.06-.007c-.043 0-.087.008-.079.029.059.141.21.295.182.458-.008.051-.03.1-.042.151a1.413 1.413 0 0 0-.028.147.635.635 0 0 0 .01.261c.032.111.119.237.251.237a.29.29 0 0 0 .25-.163Zm-.246-1.57c.01 0 .021.004.03.012a.253.253 0 0 0 .186.065.56.56 0 0 0 .055-.003c.108-.01.146-.112.157-.21a.043.043 0 0 1 .043-.04c.01 0 .021.003.03.012.056.049.12.078.189.078l.016-.001c.24-.015.259-.272.216-.445a.726.726 0 0 0-.34-.434c-.204-.11-.1-.532-.124-.677 0-.008-.006-.012-.014-.012-.03 0-.098.052-.116.08-.112.178-.142.459-.11.728v.01a.025.025 0 0 1-.023.017.023.023 0 0 1-.018-.008 4.275 4.275 0 0 1-.11-.129c-.214-.264-.358-.29-.401-.302h-.004c-.044 0 .079.26.088.285.044.125.053.263.067.39l-.001.01a.024.024 0 0 1-.023.017.025.025 0 0 1-.019-.01c-.142-.193-.342-.349-.537-.376h-.01c-.044 0-.14.025-.122.05.09.127.27.242.281.408.003.052-.008.104-.008.156 0 .05.002.1.007.15a.652.652 0 0 0 .067.252c.051.089.144.18.254.18a.247.247 0 0 0 .165-.072.293.293 0 0 0 .088-.149.042.042 0 0 1 .041-.031Zm-.611-2.316a.025.025 0 0 1 .001.012.025.025 0 0 1-.012.018.024.024 0 0 1-.012.003.025.025 0 0 1-.014-.005 2.78 2.78 0 0 0-.048-.035l-.292.224.044.13c.007.017-.007.032-.022.032a.024.024 0 0 1-.015-.006 1.264 1.264 0 0 0-.106-.08l-.27.209c.005.012.012.024.016.038.015.05.016.102.027.154.012.048.024.096.04.143a.634.634 0 0 0 .123.232c.06.064.15.122.241.122.067 0 .134-.03.19-.11a.29.29 0 0 0 .053-.166c0-.025.021-.041.044-.041.007 0 .014.002.02.005.037.02.074.031.118.031a.42.42 0 0 0 .131-.025c.104-.034.118-.142.107-.24a.043.043 0 0 1 .043-.05.06.06 0 0 1 .022.006c.048.026.097.04.145.04a.249.249 0 0 0 .071-.01c.231-.07.191-.323.11-.483a.727.727 0 0 0-.428-.345.2.2 0 0 1-.09-.058l-.254.196c.005.02.01.04.017.06Z"/>
    <path fill="#296854" d="M17.766 7.314c-.268-.21-.414-.203-.458-.205h-.001c-.054 0 .132.237.146.26a1.1 1.1 0 0 1 .109.236l.292-.225-.088-.066Zm.215-.766c-.028 0-.088.071-.1.105-.063.183-.036.435.04.675l.256-.197c-.133-.137-.137-.46-.184-.574-.002-.006-.006-.009-.012-.009Zm-.978.964c-.014 0-.028 0-.042.002-.037.003-.142.057-.117.079.106.094.283.163.349.296l.27-.208a.85.85 0 0 0-.46-.17m.296-.823a.043.043 0 0 1 .041-.058l.012.001a.352.352 0 0 0 .091.013c.045 0 .088-.01.127-.033.21-.119.114-.358 0-.495a.725.725 0 0 0-.496-.24c-.232-.01-.323-.435-.407-.555-.004-.004-.007-.006-.011-.006-.028 0-.074.088-.078.124-.021.21.075.475.222.703a.024.024 0 0 1-.02.037c-.003 0-.006 0-.01-.002a4.119 4.119 0 0 1-.154-.067.957.957 0 0 0-.395-.108c-.05 0-.081.009-.099.012-.055.01.182.201.2.219.095.093.164.213.232.321.011.017-.003.037-.02.037-.004 0-.008 0-.011-.003a1.053 1.053 0 0 0-.473-.128.576.576 0 0 0-.175.025c-.035.012-.125.088-.095.105.135.073.348.097.43.242.025.045.039.097.062.144.022.044.045.088.07.13a.645.645 0 0 0 .172.199.433.433 0 0 0 .137.061l.306-.24a.345.345 0 0 0-.005-.08c-.007-.028.016-.051.042-.051.004 0 .008 0 .013.002a.24.24 0 0 0 .067.01c.014 0 .031-.005.046-.008l.198-.155a.31.31 0 0 0-.019-.156m-.575.688c.085 0 .166-.04.213-.157a.294.294 0 0 0 .02-.092l-.305.239a.29.29 0 0 0 .072.01Z"/>
    <path fill="#296854" d="M17.25 6.947a.141.141 0 0 0 .068-.103l-.198.154a.382.382 0 0 0 .13-.051Zm-1.23-1.342a.043.043 0 0 1 .037-.067h.018a.27.27 0 0 0 .191-.069c.178-.163.03-.374-.112-.482a.729.729 0 0 0-.537-.123.158.158 0 0 1-.035.003c-.211 0-.383-.359-.487-.451a.016.016 0 0 0-.01-.004c-.027 0-.053.1-.048.138.024.209.178.446.373.636a.024.024 0 0 1 .007.012.024.024 0 0 1-.01.024.024.024 0 0 1-.013.005l-.005-.001a3.903 3.903 0 0 1-.166-.03 1.243 1.243 0 0 0-.262-.031c-.145 0-.213.035-.24.048-.051.023.222.155.244.168.113.07.207.17.299.26.015.017.003.043-.017.043l-.006-.002a1.184 1.184 0 0 0-.297-.039.698.698 0 0 0-.358.085c-.032.02-.103.113-.07.122.149.042.362.018.474.14.035.039.06.086.093.126.03.04.064.076.099.112.06.06.13.123.211.155.046.017.1.029.152.029.11 0 .216-.051.241-.209a.29.29 0 0 0-.025-.17.043.043 0 0 1 .04-.061h.019c.07 0 .132-.028.21-.104.078-.077.043-.18-.01-.263Zm-1.62-.362c.076-.012.134-.054.198-.151.058-.092.002-.185-.07-.255a.044.044 0 0 1 .024-.074.283.283 0 0 0 .187-.114c.136-.198-.054-.37-.218-.444a.681.681 0 0 0-.273-.054.701.701 0 0 0-.278.055.183.183 0 0 1-.077.016c-.197 0-.419-.273-.533-.336a.016.016 0 0 0-.006-.001c-.03 0-.034.11-.02.146.071.197.274.394.507.535.02.012.012.043-.011.044a3.406 3.406 0 0 1-.17.008c-.34.006-.449.102-.485.13-.045.033.251.1.276.109.125.042.24.119.35.187.02.013.01.044-.013.044h-.036c-.228 0-.458.062-.592.192-.027.026-.075.133-.04.135h.023c.086 0 .186-.02.279-.02.07 0 .135.011.19.05.043.029.078.07.12.101.038.031.078.06.12.087.073.046.155.09.24.103a.463.463 0 0 0 .065.004c.139 0 .293-.064.28-.267a.29.29 0 0 0-.064-.162c-.02-.025-.004-.063.028-.068Zm-2.112 13.641.053.002a.475.475 0 0 0 .048-.207l-.001-.01-.018.01h-.082v-.193l.05-.023c-.063-.123-.176-.206-.307-.206-.13 0-.242.083-.305.206l.05.023v.193h-.083l-.018-.01v.01a.48.48 0 0 0 .047.207l.054-.002.121.176-.014.002c.046.025.095.04.148.04a.309.309 0 0 0 .15-.04l-.015-.002.122-.176Z"/>
    <path fill="#296854" d="M11.722 18.886a3.132 3.132 0 0 0-.346.038l-.003-.01c-.094-.175.092-.261.092-.261s.013-.01.03-.033a.05.05 0 0 1 .064-.015l.117.064a.473.473 0 0 1 .05-.205l-.124-.055a.04.04 0 0 1-.023-.042c.031-.227-.206-.393-.352-.413-.144-.02-.175-.114-.3-.073-.123.041-.071.259-.02.445.052.186.01.186-.197.237-.247.156-.113.249 0 .26.114.01.26.054.26.054l.074.116c-.36.094-.787.27-1.105.6-.009.008-.002.023.01.022l.39-.034a.052.052 0 0 1 .056.053v.336c0 .013.018.018.025.007.105-.181.558-.855 1.463-.915a.389.389 0 0 1-.16-.176Z"/>
    <path fill="#296854" d="m11.776 18.884-.054.002a.393.393 0 0 0 .161.176l.014-.002-.121-.176Zm-.083-.205h.082v-.193l-.049-.022a.48.48 0 0 0-.05.205l.017.01Zm2.12.659a2.674 2.674 0 0 0-.794-.345l.075-.116s.145-.044.258-.055c.114-.01.248-.103 0-.259-.207-.051-.248-.051-.196-.237.052-.186.103-.404-.02-.444-.125-.042-.156.05-.3.072-.145.02-.383.186-.352.413a.04.04 0 0 1-.023.042l-.123.055a.49.49 0 0 1 .05.206l.117-.065a.05.05 0 0 1 .063.015c.018.024.03.032.03.032s.186.087.093.263l-.004.008a3.294 3.294 0 0 0-.346-.037.385.385 0 0 1-.161.176c.906.06 1.358.734 1.463.915.007.011.024.006.024-.007v-.336c0-.03.027-.055.057-.053l.39.034c.012 0 .019-.014.01-.022-.023-.024-.048-.046-.072-.069a.397.397 0 0 1-.238-.186Z"/>
    <path fill="#296854" d="M14.051 19.524a1.992 1.992 0 0 0-.237-.186c.048.088.13.153.237.186Zm-1.71-.638-.054-.002-.121.176.014.002a.389.389 0 0 0 .161-.176m-.053-.207h.082l.018-.01a.473.473 0 0 0-.05-.205l-.05.022v.193Zm-1.14 1.469c-.007 0-.01-.002-.013-.004-.002-.003-.003-.007-.003-.014v-.473l-.051.049c-.009.008-.015.009-.02.003l-.05-.056c-.003-.004-.003-.007-.002-.01a.034.034 0 0 1 .01-.012l.127-.119a.032.032 0 0 1 .02-.007h.054c.012 0 .02 0 .022.004.002.003.003.011.003.025v.596c0 .005 0 .01-.003.014-.003.002-.006.004-.013.004h-.081Zm.557-.319c.031 0 .056-.01.073-.028a.108.108 0 0 0 .027-.077.148.148 0 0 0-.027-.087.097.097 0 0 0-.03-.026.08.08 0 0 0-.035-.01.091.091 0 0 0-.07.032c-.02.02-.028.048-.028.085 0 .036.008.063.024.083a.081.081 0 0 0 .066.028Zm.009-.33c.068 0 .12.026.154.077a.412.412 0 0 1 .052.23.6.6 0 0 1-.014.133.315.315 0 0 1-.046.11.225.225 0 0 1-.086.077.282.282 0 0 1-.131.028h-.026a.466.466 0 0 1-.029-.004l-.027-.004a.123.123 0 0 1-.024-.006.02.02 0 0 1-.01-.008.044.044 0 0 1 0-.01l.004-.08c0-.005.001-.008.005-.009.003 0 .008 0 .016.003l.025.006.021.005.022.002h.026a.135.135 0 0 0 .108-.044.209.209 0 0 0 .046-.119.117.117 0 0 1-.046.034.145.145 0 0 1-.055.012.197.197 0 0 1-.138-.056.206.206 0 0 1-.041-.066.266.266 0 0 1 0-.175.2.2 0 0 1 .195-.136Zm.726.1a7.77 7.77 0 0 1-.055.14l-.053.133-.053.128a7.422 7.422 0 0 0-.062.145.04.04 0 0 1-.015.002h-.08c-.01 0-.015-.001-.018-.004-.002-.003-.001-.01.003-.02l.203-.507h-.243a.027.027 0 0 1-.015-.004c-.003-.003-.004-.008-.004-.016v-.067c0-.01.001-.014.004-.017.002-.002.007-.003.015-.003h.35c.01 0 .016.001.02.004.003.002.005.008.005.016v.06l-.002.01Zm.539 0a7.093 7.093 0 0 1-.108.273l-.053.128a7.422 7.422 0 0 0-.061.145.039.039 0 0 1-.016.002h-.08c-.01 0-.016-.001-.018-.004-.002-.003 0-.01.004-.02l.202-.507h-.243a.027.027 0 0 1-.015-.004.028.028 0 0 1-.004-.016v-.067c0-.01.002-.014.004-.017.003-.002.008-.003.015-.003h.35c.01 0 .017.001.02.004.003.002.005.008.005.016v.06c0 .003 0 .006-.002.01ZM8.609 2.071a.811.811 0 0 0-.057-.183l-.124-.297-.02-.022-.027.002-1.262.524-.014.007.081.194 1.03-.43c.017-.006.021-.005.021-.005.001.001.005.002.011.017l.04.096c.03.07.05.13.062.176.01.04.01.082.004.123l-1.177.49.08.194.69-.287.103.248-.484.202.08.194 1-.416h.004l.002.003.182.437.259-.107-.251-.604-.019-.02h-.028l-.47.196-.103-.247.688-.286-.082-.194-.22.092a.324.324 0 0 0 .002-.097Zm3.491.122h-.288v-.212h.288v.212Zm-1.037-.423v.21h.478v.213h-.265v.21h1.075l.004.001v.351h.28V2.23l-.008-.026-.027-.01h-.23v-.212h.48v-.21h-1.787Zm.75-.66a.186.186 0 0 1 .143-.063c.057 0 .104.02.143.063a.22.22 0 0 1 .059.157c0 .06-.02.113-.059.156a.185.185 0 0 1-.143.064.185.185 0 0 1-.143-.064.224.224 0 0 1-.06-.156.22.22 0 0 1 .06-.157Zm-.194.465a.492.492 0 0 0 .337.126.49.49 0 0 0 .337-.126.403.403 0 0 0 0-.616.492.492 0 0 0-.337-.127.492.492 0 0 0-.337.127.4.4 0 0 0-.141.308c0 .12.047.223.141.308Zm-5.7 2.168a.255.255 0 0 1-.131-.102.238.238 0 0 1-.035-.162c.007-.058.03-.099.07-.124.042-.028.088-.03.143-.012a.254.254 0 0 1 .168.264.157.157 0 0 1-.07.125.156.156 0 0 1-.145.011Zm.46-.117a.408.408 0 0 0-.244-.49c.038-.023.178-.114.178-.114l-.112-.175-.382.245-.129-.2-.013.008-.227.146-.026.017s.025-.007.057.032l.098.152-.378.243.113.175.174-.112a.417.417 0 0 0 .064.24.412.412 0 0 0 .28.184.46.46 0 0 0 .343-.068.458.458 0 0 0 .204-.283m.059-1.203-.013.008-.215.138-.025.017s.024-.006.054.028l.7 1.088.227-.146-.345-.537.218-.14-.114-.177-.218.14-.269-.419Zm.125 1.86-.009-.008-.218-.34-.013.009-.204.13-.042.028s.026-.008.058.033l.213.33c.032.05.068.08.11.088.04.009.085-.003.134-.035l.86-.553-.113-.177-.765.491-.011.003Zm3.6-1.959a.415.415 0 0 1-.256-.132.577.577 0 0 1-.097-.146.833.833 0 0 1-.068-.22l-.023-.133.261-.047-.037-.207-.261.047-.053-.294-.016.002-.239.043-.02.004-.03.005s.025.003.04.047l.044.242-.262.047.038.207.26-.046.024.131c.016.085.02.16.014.225a.68.68 0 0 1-.036.169.392.392 0 0 1-.198.221l-.017.017c-.001.005-.003.016.012.027l.16.1.007-.003a.43.43 0 0 0 .158-.114.41.41 0 0 0 .116-.228c.05.078.116.135.195.171a.45.45 0 0 0 .182.054h.007l.118-.153h.002l.001-.018c-.002-.005-.008-.017-.027-.018Z"/>
    <path fill="#296854" d="m10.039 1.1-.03.006s.025.003.04.05l.115.64-.273.049.037.207s.246-.044.273-.05l.168.934.25-.046-.33-1.834-.015.002-.235.042Zm.334-.06-.031.006s.027.003.04.052l.32 1.778.25-.046-.329-1.835-.015.003-.235.042Zm4.255.157-.05-.01s.024.012.02.059l-.104.517-.119-.024.116-.57-.234-.048-.05-.01s.023.012.02.06l-.204 1.002a.417.417 0 0 1-.088.006.915.915 0 0 1-.142-.02l-.374-.075a.026.026 0 0 1-.014-.01c-.002 0-.005-.006-.002-.018 0 0 .14-.687.145-.717.029.007.46.094.46.094l.042-.206-.728-.148-.007.039a1.686 1.686 0 0 0-.031.154l-.143.702c-.018.087-.01.157.024.208.033.05.091.084.174.1l.334.068c.077.016.142.026.192.03a.5.5 0 0 0 .116 0l-.116.57.253.05.215-1.055.118.024-.214 1.056.253.051.372-1.832-.015-.002-.219-.045Zm.877 1.127a.249.249 0 0 1 .125-.277c.05-.024.095-.027.137-.009.046.02.074.056.087.108a.248.248 0 0 1-.017.161.24.24 0 0 1-.107.119.151.151 0 0 1-.225-.102Zm.343.313a.4.4 0 0 0 .269-.451l.195.086.083-.19-.414-.184.092-.208-.014-.006-.23-.102-.046-.02s.02.017.005.065l-.069.156-.41-.181-.085.19.192.085a.411.411 0 0 0-.08.062.396.396 0 0 0-.072.111.399.399 0 0 0 0 .33.453.453 0 0 0 .241.243c.113.05.228.054.343.014Zm.512.475-1.131-.5-.014-.005-.085.192.936.413.003.002-.001.004-.2.452.257.114.264-.6a.05.05 0 0 0 .002-.041.052.052 0 0 0-.03-.031m.516-1.035-.014-.007-.215-.094-.046-.02s.019.015.008.058l-.427.967.248.109s.19-.43.2-.457l.238.105.093-.211-.237-.105.152-.345Zm1.582 1.352s0 .005-.009.018l-.208.295-.02.029c-.07.097-.132.175-.185.23a.615.615 0 0 1-.19.136l-.024.012.221.156.008-.003a.667.667 0 0 0 .196-.132c.06-.058.13-.142.207-.251l.335-.474.009-.027-.017-.023-1.096-.773-.012-.009-.122.171.891.63c.014.01.015.015.015.015Z"/>
    <path fill="#296854" d="m17.672 4.246.424-.6-.012-.01-.204-.143-.025-.018s.016.021-.007.063l-.392.555-.13-.091.425-.6-.216-.153-.026-.018s.017.021-.007.064l-.391.554-.367-.259-.123.173 1.458 1.03.123-.173-.53-.374ZM2.847 9.107l-.073.289-.581-.145.46.633-.088.35-.508-.716-.922.422.092-.371.66-.294-.09-.123-.439-.11.072-.288 1.417.353ZM1.69 11.185l.076.008c.295.031.46-.109.48-.302.018-.176-.117-.354-.4-.384L1.77 10.5c-.302-.031-.471.114-.49.3-.019.175.125.356.41.386Zm.131-.986.032.003c.472.05.692.384.657.724-.035.33-.3.621-.79.57l-.035-.004c-.475-.05-.705-.396-.67-.73.035-.325.319-.614.806-.563Zm-.053 2.053c.005.145.079.255.224.25.127-.005.197-.105.191-.265l-.006-.163-.414.015.005.163Zm.654-.48.018.491c.012.327-.152.522-.428.532a.442.442 0 0 1-.42-.24l-.587.393-.012-.343.527-.313-.007-.194-.538.02-.01-.295 1.457-.052Zm.069 1.291.143.87-.263.043-.095-.578-.3.05.084.509-.249.04-.083-.508-.369.06.097.591-.26.044-.146-.885 1.44-.236Zm-.523 1.751.085.284.4-.277-.485-.007Zm.834-.236.085.277-1.245.925-.097-.32.288-.207-.134-.444-.351-.002-.096-.315 1.55.086Zm.53 1.447.17.312-.619.887.85-.465.14.254-1.281.701-.164-.3.632-.91-.87.477-.139-.255 1.28-.7Zm.221 2.039.178.236.28-.397-.458.16Zm.704-.508.174.232-.853 1.295-.201-.268.2-.292-.279-.372-.33.119-.198-.264 1.487-.45Zm-.115 2.114-.21-.218.856-.82-.278-.29.198-.189.766.798-.198.19-.279-.291-.855.82Zm1.507-.58.228.197-.951 1.107-.229-.197.952-1.106Zm.782 1.557.044-.064c.168-.243.123-.455-.037-.565-.146-.1-.366-.067-.529.17l-.043.061c-.171.25-.124.469.03.575.146.1.374.06.535-.177m-.804-.586.018-.026c.27-.392.669-.425.95-.232.273.188.403.56.123.967l-.019.027c-.27.395-.684.431-.96.241-.27-.186-.39-.573-.112-.977Zm1.662.222.32.156.005 1.081.425-.87.261.127-.641 1.312-.307-.15-.01-1.108-.434.89-.261-.127.642-1.311Zm1.357 1.537.281.091v-.486l-.281.395Zm.28-.82.277.088.051 1.55-.32-.103-.004-.354-.442-.143-.201.288-.314-.101.954-1.226Zm.912.269.293.053-.212 1.175.621.112-.047.26-.914-.165.259-1.435Zm1.702 1.595.075-.28a.81.81 0 0 0 .4.124c.173-.003.254-.072.253-.163-.002-.105-.057-.144-.212-.18l-.164-.04c-.19-.045-.343-.16-.348-.41-.003-.232.178-.426.516-.431a.881.881 0 0 1 .436.1l-.077.263a.667.667 0 0 0-.347-.097c-.135.002-.226.056-.224.142.001.081.032.135.17.168l.159.035c.221.055.385.15.39.41.004.271-.186.475-.525.48-.196.003-.4-.065-.502-.12Zm1.75-.737c.176-.023.264-.135.246-.267-.019-.148-.128-.202-.3-.18l-.158.022.058.444.153-.02Zm-.537-.641.5-.066c.325-.042.538.088.577.39.042.319-.154.519-.44.556l-.222.029.065.5-.291.038-.189-1.447Zm2.353.313-.02-.075c-.08-.285-.271-.386-.459-.334-.17.048-.285.239-.209.514l.02.072c.082.293.28.396.46.347.17-.048.285-.249.208-.524m-.965.24-.009-.03c-.128-.458.103-.785.432-.878.32-.088.687.05.82.526l.009.033c.129.46-.109.8-.431.89-.316.089-.69-.069-.821-.541Zm1.93-.708c.133-.059.208-.168.15-.3-.052-.117-.17-.144-.318-.08l-.149.066.168.38.15-.066Zm-.688-.429.45-.2c.3-.132.54-.052.652.2.08.18.038.366-.066.48l.583.399-.314.14-.486-.374-.178.078.217.493-.269.118-.59-1.334Zm2.449.392-.258.157-.615-1.014-.343.208-.142-.234.946-.574.142.235-.345.209.615 1.013Zm.818-1.29-.593-.643.219-.202.557.605c.2.217.338.202.457.091.114-.105.133-.23-.067-.448l-.559-.605.22-.204.586.635c.274.298.258.597.009.827-.255.234-.562.234-.829-.055Zm.415-1.597.224-.276 1.056.24-.753-.612.183-.225 1.133.921-.216.265-1.081-.242.77.626-.184.225-1.133-.922Zm.853-1.104.166-.252 1.22.8-.165.253-1.221-.8Zm.274-.38.149-.29 1.162.19-.827-.839.146-.282 1.064 1.123-.163.317-1.531-.219Zm.665-1.343.297-.83.25.09-.197.551.286.102.174-.486.238.085-.175.486.352.126.202-.564.249.089-.302.843-1.374-.492Zm1.125-1.375c.032-.142-.012-.267-.154-.298-.123-.027-.216.052-.25.21l-.036.158.405.09.035-.16Zm-.753.302.105-.481c.07-.32.278-.467.547-.408a.442.442 0 0 1 .348.336l.667-.233-.074.335-.588.171-.042.19.525.116-.062.287-1.426-.313Zm1.601-1.094-.27-.104a.806.806 0 0 0 .164-.386c.015-.171-.045-.258-.136-.267-.105-.009-.15.041-.2.192l-.058.159c-.064.185-.194.325-.443.304-.231-.02-.405-.221-.376-.558a.886.886 0 0 1 .145-.423l.254.104a.665.665 0 0 0-.133.335c-.012.135.034.23.119.238.08.007.137-.018.184-.152l.052-.155c.076-.214.187-.368.446-.345.27.023.454.233.424.571a1.118 1.118 0 0 1-.172.487Zm-1.266-1.359-.002-.302 1.46-.008v.302l-1.458.008Zm1.387-1.383.03.3-1.18.12.041.399-.273.027-.11-1.1.272-.028.04.402 1.18-.12Zm-.73-1.03-.771.69-.074-.312.544-.467-.693-.158-.073-.305.997.261.535-.128.07.292-.535.128ZM6.466 6.972a.105.105 0 1 1-.211 0 .105.105 0 0 1 .21 0Zm.454.383a.106.106 0 1 1-.21 0 .106.106 0 0 1 .21 0Zm10.656-.383a.106.106 0 0 0 .21 0 .105.105 0 1 0-.21 0Zm-.455.383a.105.105 0 1 0 .21 0 .105.105 0 0 0-.21 0Z"/>
  </g>
  <defs>
    <clipPath id="a">
      <path fill="#fff" d="M0 0h24v24H0z"/>
    </clipPath>
  </defs>
</svg>
