<svg xmlns="http://www.w3.org/2000/svg" width="24" height="24" fill="none" viewBox="0 0 24 24">
  <g clip-path="url(#a)">
    <path fill="#004098" d="M19.735 19.812a.232.232 0 1 1-.383-.263.232.232 0 0 1 .383.263Zm-9.71.05a.56.56 0 0 1-.056-.056.32.32 0 0 1-.079-.332.28.28 0 0 1 .078-.116.386.386 0 0 1 .409-.047c.09.034.17.086.237.154l-.067.177a.415.415 0 0 0-.218-.175.204.204 0 0 0-.182.008.143.143 0 0 0-.056.068c-.037.098.047.176.108.234l.065.059a.527.527 0 0 1 .122.165.305.305 0 0 1 0 .219.323.323 0 0 1-.087.125.44.44 0 0 1-.43.045.92.92 0 0 1-.208-.119.824.824 0 0 1-.065-.055l.071-.18c.013.018.026.037.041.054a.518.518 0 0 0 .203.15.189.189 0 0 0 .218-.024.186.186 0 0 0 .046-.062.159.159 0 0 0 .01-.064.272.272 0 0 0-.109-.168l-.051-.06Zm.446.7.22-.751.178.051-.22.754-.178-.053Zm.356-.887a.096.096 0 0 1-.068-.12.107.107 0 0 1 .025-.042.103.103 0 0 1 .156.025.1.1 0 0 1 .01.074.096.096 0 0 1-.085.068.082.082 0 0 1-.038-.005Zm.576 1.119.082-.396c0-.025.01-.052.014-.078a.153.153 0 0 0-.132-.206.322.322 0 0 0-.186.021l-.122.589-.18-.039.159-.767.18.037-.03.145.132-.118a.456.456 0 0 1 .16.007.245.245 0 0 1 .217.206.447.447 0 0 1-.009.125l-.107.512-.178-.038Zm1.066-.463a.292.292 0 0 0-.297-.074.273.273 0 0 0-.16.232.265.265 0 0 0 .243.305.516.516 0 0 0 .198-.023l-.104.147a.478.478 0 0 1-.318-.034.385.385 0 0 1-.218-.406.422.422 0 0 1 .159-.294.428.428 0 0 1 .312-.076.56.56 0 0 1 .203.064l-.018.159Zm.262.224c.002.04.01.08.023.119a.249.249 0 0 0 .256.149.59.59 0 0 0 .224-.047l-.094.157a.699.699 0 0 1-.186.024.456.456 0 0 1-.316-.116.407.407 0 0 1-.107-.298c0-.058.01-.115.029-.169a.362.362 0 0 1 .353-.24.328.328 0 0 1 .284.14c.05.086.073.186.065.286l-.53-.005Zm.343-.115a.324.324 0 0 0-.011-.076.152.152 0 0 0-.148-.105.177.177 0 0 0-.164.132.18.18 0 0 0-.016.05h.34Zm1.164.405-.132-.84-.153.116-.025-.158.333-.244.175 1.094-.198.032Zm.518-.088a.955.955 0 0 0 .132-.144c.075-.093.13-.2.161-.315 0-.025.01-.05.013-.074a.327.327 0 0 1-.568-.15.38.38 0 0 1-.01-.14.365.365 0 0 1 .29-.322.418.418 0 0 1 .17-.008.396.396 0 0 1 .31.32c.043.19.015.39-.08.56a.924.924 0 0 1-.132.201l-.286.072Zm.17-.992a.163.163 0 0 0-.11-.008.171.171 0 0 0-.072.035.23.23 0 0 0-.051.23.185.185 0 0 0 .148.161.183.183 0 0 0 .077-.002.181.181 0 0 0 .089-.053.264.264 0 0 0-.08-.363Zm1.094.612-.096-.256-.469.175-.017-.047.17-.877.211-.078.231.619.156-.059-.046.178-.057.022.096.256-.18.067Zm-.304-.82-.08.511.236-.088-.156-.422Zm.7.408a.45.45 0 0 0 .288-.034.263.263 0 0 0 .093-.073.208.208 0 0 0-.147-.33.432.432 0 0 0-.245.06c-.04.02-.077.042-.115.065l-.155-.498.5-.252.068.132-.347.181.067.218c.016-.01.036-.018.053-.025a.494.494 0 0 1 .285-.048c.036.005.07.017.102.036a.352.352 0 0 1 .18.297.397.397 0 0 1-.252.367.702.702 0 0 1-.288.073l-.087-.169Z"/>
    <path fill="url(#b)" d="M0 3.525v18.598c.884-.15 9.328-2.058 14.486-8.02V13.07a29.43 29.43 0 0 1-2.398 1.808v-3.073c-.806.204-1.567.395-2.423.595v3.937a25.25 25.25 0 0 1-4.71 1.934V5.749c.79.047 2.779.395 4.71.858v3.099c.857-.021 1.616-.043 2.423-.057V7.343c.815.208 1.616.468 2.398.78V7.089C10.52 4.126.25 3.403 0 3.525Z"/>
    <path fill="#002870" d="M4.179 5.968v12.071l.775.233V5.75l-.775.218Zm7.909 1.375-.622.157v2.16l.622-.014V7.343Zm-.622 4.618v2.757l.622.168v-3.08l-.622.155Z"/>
    <path fill="#004098" d="m9.34 3.65-.328-.765-.78.335.329.765-.31.132-.72-1.666.312-.132.286.66.78-.335-.288-.667.31-.132.72 1.673-.31.132Zm1.678-.462-.264-.402-.705.164-.066.478-.334.078.306-1.939.32-.074 1.102 1.617-.359.078Zm-.792-1.212c-.017-.03-.035-.06-.05-.09v.097l-.1.732.548-.132-.398-.607Zm2.664 1.07-1.242-1.262.068 1.319-.335.007-.08-1.818.317-.014 1.045 1.086-.06-1.128.324-.014.079 1.819-.116.005Zm.828-.747a1.114 1.114 0 0 1-.108-.068.515.515 0 0 1-.253-.491.497.497 0 0 1 .075-.212.63.63 0 0 1 .626-.233c.153.02.301.07.433.15l-.037.306a.678.678 0 0 0-.406-.208.328.328 0 0 0-.283.084.234.234 0 0 0-.063.131c-.02.17.143.264.264.326l.124.07c.101.054.19.126.264.214.07.1.1.222.084.343a.518.518 0 0 1-.088.233c-.2.283-.583.246-.66.235a1.34 1.34 0 0 1-.497-.168l.041-.31a.853.853 0 0 0 .464.226c.264.032.368-.125.381-.237a.227.227 0 0 0-.007-.105.426.426 0 0 0-.238-.221l-.116-.065Zm2.506.715a.822.822 0 0 1-.132.28c-.263.37-.758.227-.846.202a1.189 1.189 0 0 1-.275-.122.65.65 0 0 1-.322-.453.894.894 0 0 1 .044-.358l.32-1.083.328.096-.29.977a1.56 1.56 0 0 0-.06.246.363.363 0 0 0 .082.298.492.492 0 0 0 .249.157.447.447 0 0 0 .41-.06.66.66 0 0 0 .192-.375l.292-.988.322.1-.314 1.083Zm1.367 1.467-.429-1.715-.61 1.166-.295-.162.856-1.607.28.156.344 1.463.528-1.001.291.154-.856 1.607-.11-.061Zm2.395.028a1.043 1.043 0 0 0-.314-.46.753.753 0 0 0-.264-.15.671.671 0 0 0-.74.231.803.803 0 0 0-.162.34.734.734 0 0 0-.012.14.668.668 0 0 0 .264.504.76.76 0 0 0 .323.158l.264-.318-.36-.295.273-.098.495.407-.528.629a1.574 1.574 0 0 1-.658-.317 1.156 1.156 0 0 1-.284-.332.895.895 0 0 1 .107-1.042.943.943 0 0 1 .69-.348c.273 0 .536.099.741.278.146.122.27.267.37.429l-.205.244Zm1.152 2.596a.864.864 0 0 1-.264.147c-.437.132-.741-.28-.792-.355a1.119 1.119 0 0 1-.143-.263.66.66 0 0 1 .017-.557.924.924 0 0 1 .252-.264l.911-.66.202.275-.822.601c-.069.05-.135.102-.196.16a.36.36 0 0 0-.116.286c.005.1.04.197.102.276a.445.445 0 0 0 .362.202.66.66 0 0 0 .381-.182l.832-.61.196.276-.922.668Zm.207 1.997.696-1.628-1.187.56-.145-.307 1.651-.764.132.288-.61 1.374 1.022-.482.138.299-1.647.768-.05-.108Zm.101.366 1.74-.535.1.326-1.74.535-.1-.326Zm.273 1.03 1.657-1.047.069.368-1.303.774 1.497.264.062.333-1.925-.396-.057-.297Zm.164 1.032 1.82-.058.035 1.066-.264.009-.017-.73-.486.015.021.628-.264.01-.02-.63-.559.018.028.847-.264-.141-.03-1.034Zm-.09 2.33.84-.395c0-.06.005-.122.012-.182l.01-.098-.775-.088.039-.331 1.807.207-.078.69a.57.57 0 0 1-.264.428.494.494 0 0 1-.298.055.48.48 0 0 1-.343-.197.719.719 0 0 1-.077-.141l-.923.429.05-.376Zm1.08-.495a.414.414 0 0 0 .065.357.263.263 0 0 0 .169.082.27.27 0 0 0 .165-.028c.132-.066.132-.204.152-.327l.018-.167-.754-.086.184.169Z"/>
    <path fill="#004098" d="M22.43 14.824a.931.931 0 0 1 .082-.098.517.517 0 0 1 .528-.185.48.48 0 0 1 .2.107.626.626 0 0 1 .145.652c-.039.15-.11.289-.207.409l-.297-.078a.674.674 0 0 0 .264-.375.324.324 0 0 0-.042-.291.234.234 0 0 0-.12-.08c-.165-.044-.276.106-.357.214l-.088.114a.837.837 0 0 1-.246.225.506.506 0 0 1-.57-.082c-.252-.237-.163-.61-.144-.685a1.516 1.516 0 0 1 .234-.47l.303.083a.894.894 0 0 0-.298.434c-.069.264.073.381.182.41.034.01.07.012.104.007a.43.43 0 0 0 .252-.205l.075-.106Zm-1.061.643 1.714.637-.118.32-1.705-.639.108-.318Zm-.334.826 1.403.687.246-.5.23.114-.635 1.3-.232-.112.244-.498-1.404-.688.148-.303Zm-.715 1.264.563.395 1.307.11-.215.304-.944-.085.396.859-.19.283-.548-1.187-.563-.396.194-.283Zm-1.579 3.585.132-.08.175.295-1.743 1.04-.176-.292.293-.176-.406-.683.33-.197.406.681.16-.095-.407-.682.327-.194.405.68.173-.102.331-.195Zm-.046-.077-.72-1.203-1.487.88.174.294 1.153-.687.543.913.337-.197Zm-5.217.449v.6h-.09v-.6h-.341v1.227h-.692v-.792h.572v-.343h-.958v1.477h1.078v.425h.341v-1.055h.09V23.5h.35v-1.986h-.35Zm-6.03-.86a.46.46 0 0 1 .19-.186l-.133-.07.153-.285.408.22.084-.158.358.191-.085.159.415.215-.152.284-.132-.072a.458.458 0 0 1-.051.264c-.132.249-.477.324-.767.17-.29-.154-.422-.486-.289-.732Zm.313.178a.238.238 0 1 0 .302-.067.22.22 0 0 0-.302.064v.003Zm-.345.943 1.187.641-.161.298-1.533-.823.346-.644.339.184-.178.344Zm1.734-.396.228.123-.163.305-.228-.123-.264.49-.34-.181.659-1.22.339.181-.23.425Zm5.232.66a.437.437 0 0 1 0-.247l-.132.041-.094-.31.444-.132-.052-.171.395-.118.052.172.442-.132.092.31-.132.042a.421.421 0 0 1 .132.204c.08.264-.112.55-.426.645-.314.095-.642-.046-.725-.307l.004.003Zm.348-.097a.211.211 0 0 0 .274.1c.124-.038.202-.143.173-.235a.209.209 0 0 0-.272-.098c-.132.032-.204.132-.175.23v.003Zm-.057.594 1.63-.492.232.77-.369.113-.132-.444-1.26.379-.101-.326Zm1.372-1.343.25-.075.098.329-.248.075.125.417-.369.11-.313-1.037.369-.112.088.293Zm-4.774 1.835c-.06.276-.46.424-.895.329-.436-.095-.74-.396-.68-.67.06-.272.46-.423.896-.329.435.094.739.394.68.67Zm-.405-.088c.024-.114-.132-.242-.337-.288-.206-.046-.396.01-.426.123-.03.113.132.242.336.289.204.046.402-.01.427-.124Zm.362-1.536.376.08-.22 1.028-.378-.082.117-.543-.344-.074.069-.32.345.075.035-.164Zm-1.637.7-.132-.31a.765.765 0 0 0 .669-.567l.013-.058.396.084-.014.059a.768.768 0 0 0 .376.791l-.246.229a1.236 1.236 0 0 1-.444-.514c-.175.151-.39.25-.618.287Z"/>
  </g>
  <defs>
    <linearGradient id="b" x1="-.749" x2="12.213" y1="4.559" y2="16.612" gradientUnits="userSpaceOnUse">
      <stop stop-color="#0099D9"/>
      <stop offset=".26" stop-color="#0096D7"/>
      <stop offset=".44" stop-color="#008DD0"/>
      <stop offset=".6" stop-color="#007EC5"/>
      <stop offset=".74" stop-color="#0068B5"/>
      <stop offset=".87" stop-color="#004DA1"/>
      <stop offset=".92" stop-color="#004098"/>
    </linearGradient>
    <clipPath id="a">
      <path fill="#fff" d="M0 0h24v24H0z"/>
    </clipPath>
  </defs>
</svg>
