<svg xmlns="http://www.w3.org/2000/svg" width="24" height="24" fill="none" viewBox="0 0 24 24">
  <path fill="url(#a)" d="M12.41 1.288c-6.074 0-11 4.924-11 10.998 0 6.074 4.926 10.998 11 10.998 6.072 0 10.997-4.924 10.997-10.998 0-6.074-4.925-10.998-10.998-10.998Z"/>
  <path fill="url(#b)" d="M1.368 12.286c0 6.088 4.953 11.04 11.041 11.04 6.087 0 11.04-4.952 11.04-11.04 0-6.088-4.953-11.04-11.04-11.04-6.088 0-11.04 4.952-11.04 11.04Zm.085 0c0-6.041 4.915-10.956 10.956-10.956 6.04 0 10.955 4.915 10.955 10.956 0 6.041-4.914 10.956-10.955 10.956S1.453 18.327 1.453 12.286Z"/>
  <path fill="url(#c)" d="M12.409 1.722c-5.833 0-10.563 4.73-10.563 10.564S6.576 22.85 12.409 22.85s10.563-4.73 10.563-10.564-4.73-10.564-10.563-10.564Z"/>
  <path fill="url(#d)" d="M12.409 1.852c-5.761 0-10.433 4.671-10.433 10.434 0 5.763 4.672 10.434 10.433 10.434 5.762 0 10.433-4.671 10.433-10.434 0-5.763-4.671-10.434-10.433-10.434Z"/>
  <path fill="url(#e)" d="M12.41 5.004a7.282 7.282 0 0 0 0 14.564 7.281 7.281 0 0 0 7.279-7.282 7.281 7.281 0 0 0-7.28-7.282Z"/>
  <path fill="url(#f)" d="M12.41 5.135a7.104 7.104 0 0 0 0 14.206 7.102 7.102 0 0 0 7.1-7.103 7.103 7.103 0 0 0-7.1-7.103Z"/>
  <path fill="#062453" d="M17.314 10.376v-.902l-.051-.06h-.642v-.29l-.052-.062h-.963v.412h-4.257v-.35l-.052-.062h-1.015v.351H7.611v.901l.052.062h.803c-.557.244-.917.776-.917 1.552 0 1.042.98 1.635 1.77 1.635h2.947v-.317h.782v.255l.051.062h4.215v-.901l-.051-.061h-.642v-2.225h.693Z"/>
  <path fill="url(#g)" d="M17.263 10.314v-.9h-.694v-.352h-1.015v.351h-4.257v-.35h-1.014v.35H7.61v.901h.804c-.558.243-.917.775-.917 1.552 0 1.042.98 1.635 1.769 1.635h2.947v-.316h.834v.316h4.215v-.9h-.694v-2.287h.694Z"/>
  <path fill="url(#h)" d="M15.232 8.719v.366H11.67v-.363l-1.71-.003v.366H7.254v1.533h.262c-.27.341-.401.746-.401 1.273 0 .427.184.897.494 1.258.36.467.993.758 1.649.758h3.31v-.331h.189v.323l4.893.008-.003-1.589h-.704v-1.663h.707l.003-1.57h-.686v-.37l-1.735.004Zm1.647.084v.369h.686l-.003 1.396h-.707v1.838h.705l.002 1.414-4.718-.008v-.323h-.362v.33H9.258c-.63 0-1.236-.277-1.582-.725-.297-.348-.474-.797-.474-1.203 0-.54.137-.95.433-1.289l.063-.073-.357.002V9.17h2.707v-.365l1.536.003v.363h3.735v-.366l1.56-.003Z"/>
  <path fill="url(#i)" d="M14.267 10.712c0-.278-.179-.464-.4-.464-.219 0-.397.186-.397.464 0 .284.18.465.398.465.22 0 .4-.18.4-.465Zm.06 1.093c-.252 0-.477.162-.477.431 0 .267.225.43.476.43.252 0 .477-.163.477-.43 0-.269-.226-.43-.477-.43Zm-3.94-.782c0-.238-.164-.417-.366-.417-.202 0-.365.18-.365.417 0 .24.163.416.365.416.202 0 .365-.175.365-.416Zm-.769-1.026h.808v.237h-.808v-.237Zm-.35 1.026c0-.184.108-.346.28-.452h-.286v-.238h1.518v.238h-.286c.172.106.28.268.28.452 0 .318-.325.576-.753.576s-.752-.258-.752-.576Zm2.202 1.794-1.414-.001c-.292 0-.472-.168-.472-.445v-.55h.448v.758h1.438v.238Zm.31-1.891h-.336v1.01h-.413v-1.94h.413v.692h.336v.238Zm1.269-.214c0-.37.353-.67.819-.67.467 0 .82.3.82.67 0 .37-.353.669-.82.669-.466 0-.82-.299-.82-.67Zm2.517-.128h-.35v.342h.35v.237h-.35v1.073h-.001c-.003.364-.395.66-.889.66-.493 0-.886-.296-.889-.66.003-.363.396-.66.89-.66.175 0 .339.039.476.104V9.997h.412v.348h.35v.239Z"/>
  <path fill="url(#j)" d="M21.217 13.837a.93.93 0 0 1-.185.512s-.177-.232-.174-.516a.939.939 0 0 1 .186-.512s.176.233.173.516Z"/>
  <path fill="url(#k)" d="M21.676 14.87c-.343.387-.827.518-.827.518s.07-.497.413-.884c.342-.387.807-.47.807-.47s-.05.449-.393.836Z"/>
  <path fill="url(#l)" d="M20.739 14.552c.1.427-.023.784-.023.784s-.301-.295-.4-.723c-.098-.426.017-.724.017-.724s.307.235.406.663Z"/>
  <path fill="url(#m)" d="M21.119 16.312a1.893 1.893 0 0 1-.905.368s.156-.477.56-.8c.405-.322.877-.321.877-.321s-.128.432-.532.753Z"/>
  <path fill="url(#n)" d="M20.251 15.826c.024.44-.159.769-.159.769s-.245-.343-.268-.78c-.023-.438.142-.711.142-.711s.262.284.285.722Z"/>
  <path fill="url(#o)" d="M18.362 19.814c-.474.108-.918-.058-.918-.058s.327-.342.803-.451c.474-.108.875.085.875.085s-.284.314-.76.424Z"/>
  <path fill="url(#p)" d="M17.807 19.012c-.173.412-.485.636-.485.636s-.075-.423.097-.836c.172-.411.444-.59.444-.59s.115.379-.056.79Z"/>
  <path fill="url(#q)" d="M17.028 20.628c-.464-.002-.841-.252-.841-.252s.377-.247.843-.245c.464.001.795.266.795.266s-.332.232-.797.23Z"/>
  <path fill="url(#r)" d="M16.713 19.715c-.259.364-.614.51-.614.51s.023-.428.283-.791c.26-.363.566-.474.566-.474s.027.393-.235.755Z"/>
  <path fill="url(#s)" d="M14.095 20.274c-.072.144.159.403.402.523a.716.716 0 0 0 .337.079.69.69 0 0 0-.219.265c-.12.244-.146.59-.002.66.144.071.403-.16.522-.402a.706.706 0 0 0 .079-.337.7.7 0 0 0 .267.219c.242.12.588.145.659.001.071-.143-.159-.402-.403-.523a.702.702 0 0 0-.335-.077.715.715 0 0 0 .218-.266c.12-.244.146-.59.001-.66-.143-.072-.402.159-.522.403a.69.69 0 0 0-.078.335.715.715 0 0 0-.266-.219c-.244-.12-.59-.145-.66-.001Zm.758.375a.294.294 0 1 1 .528.259.294.294 0 0 1-.527-.26Z"/>
  <path fill="url(#t)" d="M19.302 16.467c-.163.024-.248.367-.208.642a.71.71 0 0 0 .128.328.71.71 0 0 0-.35-.03c-.276.038-.582.217-.559.379.023.162.367.248.642.207a.706.706 0 0 0 .329-.128.723.723 0 0 0-.03.353c.038.273.216.579.379.555.162-.023.247-.366.208-.64a.727.727 0 0 0-.128-.329c.095.037.22.05.35.03.275-.038.581-.217.557-.38-.023-.161-.367-.246-.641-.207a.712.712 0 0 0-.328.128.731.731 0 0 0 .031-.35c-.04-.276-.218-.581-.38-.558Zm.122.855a.3.3 0 1 1-.137.539.302.302 0 0 1 .137-.539Z"/>
  <path fill="url(#u)" d="M3.666 13.837c.004.284.185.512.185.512s.178-.232.175-.516c-.004-.283-.186-.512-.186-.512s-.176.233-.174.516Z"/>
  <path fill="url(#v)" d="M3.209 14.87c.342.387.826.518.826.518s-.07-.497-.413-.884c-.342-.387-.806-.47-.806-.47s.05.449.393.836Z"/>
  <path fill="url(#w)" d="M4.145 14.552c-.1.427.023.784.023.784s.301-.295.4-.723c.098-.426-.017-.724-.017-.724s-.308.235-.406.663Z"/>
  <path fill="url(#x)" d="M3.765 16.312c.405.322.904.368.904.368s-.155-.477-.56-.8c-.404-.322-.877-.321-.877-.321s.128.432.533.753Z"/>
  <path fill="url(#y)" d="M4.632 15.826c-.022.44.16.769.16.769s.245-.343.268-.78c.023-.438-.142-.711-.142-.711s-.262.284-.286.722Z"/>
  <path fill="url(#z)" d="M6.522 19.814c.474.108.918-.058.918-.058s-.327-.342-.803-.451c-.474-.108-.875.085-.875.085s.284.314.76.424Z"/>
  <path fill="url(#A)" d="M7.077 19.012c.173.412.485.636.485.636s.074-.423-.097-.836c-.172-.411-.444-.59-.444-.59s-.115.379.056.79Z"/>
  <path fill="url(#B)" d="M7.856 20.628c.464-.002.84-.252.84-.252s-.377-.247-.842-.245c-.465.001-.795.266-.795.266s.332.232.797.23Z"/>
  <path fill="url(#C)" d="M8.17 19.715c.26.364.615.51.615.51s-.023-.428-.283-.791c-.26-.363-.567-.474-.567-.474s-.026.393.235.755Z"/>
  <path fill="url(#D)" d="M10.13 20.275a.705.705 0 0 0-.267.219.694.694 0 0 0-.078-.335c-.12-.244-.379-.475-.523-.404-.144.071-.119.417.001.66a.718.718 0 0 0 .22.267.7.7 0 0 0-.336.077c-.245.12-.474.38-.404.523.072.144.417.119.66-.001a.7.7 0 0 0 .267-.219c-.005.1.02.22.078.336.12.243.379.474.523.402.144-.07.118-.415-.002-.66a.692.692 0 0 0-.219-.265.704.704 0 0 0 .336-.078c.244-.12.475-.379.404-.523-.071-.144-.417-.118-.66.001Zm-.233.766a.295.295 0 0 1-.395-.133.295.295 0 0 1 .458-.35.295.295 0 0 1 .085.314.293.293 0 0 1-.148.17Z"/>
  <path fill="url(#E)" d="M5.202 17.024a.722.722 0 0 0 .03.351.706.706 0 0 0-.327-.128c-.275-.04-.618.046-.642.207-.023.163.283.342.558.38.13.02.254.007.35-.03a.732.732 0 0 0-.128.329c-.04.274.046.617.209.64.161.024.34-.281.38-.555a.726.726 0 0 0-.032-.352.71.71 0 0 0 .329.127c.275.04.618-.045.642-.207.023-.162-.284-.34-.558-.379a.712.712 0 0 0-.351.03.707.707 0 0 0 .128-.328c.04-.275-.046-.618-.208-.642-.162-.023-.34.282-.38.557Zm.512.64a.3.3 0 0 1-.588.03.3.3 0 0 1 .111-.314.3.3 0 0 1 .223-.058.302.302 0 0 1 .254.341Z"/>
  <path fill="url(#F)" d="M12.778 21.259a.369.369 0 0 1-.738 0 .367.367 0 0 1 .37-.368.368.368 0 0 1 .368.368Z"/>
  <path fill="url(#G)" d="m2.736 11.173.737.096.048-.367-.743-.096.065-.351 1.827.239-.065.351-.757-.1-.048.368.756.1-.027.351-1.827-.24.034-.35Z"/>
  <path fill="url(#H)" d="m4.487 9.77.369.21-.098.336-1.632-.984.134-.39 1.875.253-.124.324-.42-.06-.104.31Zm-.168-.368-.38-.066c-.11-.017-.29-.053-.411-.076l-.003.007c.11.057.28.144.374.195l.337.186.083-.246Z"/>
  <path fill="url(#I)" d="m4.378 7.95-.016-.006 1.089.597-.141.28-1.603-.918.15-.284 1.337.211.003-.005-1.114-.594.166-.266 1.6.914-.176.275-1.295-.203Z"/>
  <path fill="url(#J)" d="m6.288 7.292-.536-.456-1.117-.424.234-.293.423.192c.121.055.24.114.357.178l.003-.004a5.147 5.147 0 0 1-.247-.32L5.143 5.8l.248-.268.58 1.025.548.465-.231.27Z"/>
  <path fill="url(#K)" d="m6.917 6.028.213.38-.254.238-.895-1.677.324-.274L7.783 5.88l-.279.213-.337-.277-.25.212Zm.046-.4-.291-.254c-.106-.09-.21-.184-.313-.278l-.006.006c.064.105.166.267.22.36l.192.332.198-.167Z"/>
  <path fill="url(#L)" d="m8.115 5.65-.892-1.61.277-.17.597.493c.115.097.306.257.428.371l.005-.002c-.102-.162-.277-.428-.44-.721l-.197-.358.278-.142.896 1.614-.29.14-.59-.476a5.185 5.185 0 0 1-.426-.392l-.005.003c.096.157.244.397.423.719l.203.367-.267.163Z"/>
  <path fill="url(#M)" d="M10.49 4.542a1.181 1.181 0 0 1-.34.178c-.198.063-.366.055-.519-.024-.195-.096-.358-.329-.449-.63-.194-.633.082-1.011.45-1.13a.735.735 0 0 1 .3-.039l.034.31a.479.479 0 0 0-.21.025c-.23.074-.362.29-.217.743.134.418.344.515.501.464a.228.228 0 0 0 .065-.029l-.135-.42-.154.05-.089-.276.467-.15.297.928Z"/>
  <path fill="url(#N)" d="m11.902 2.556.04 1.19c.009.267.093.345.185.342.102-.004.173-.08.163-.355l-.042-1.187.357.002.037 1.111c.016.468-.151.728-.502.74-.382.013-.539-.244-.555-.701l-.038-1.115.355-.027Z"/>
  <path fill="url(#O)" d="M14.075 3.96h.005l.174-1.241.307.064-.309 1.815-.315-.066-.249-1.313-.005-.001-.188 1.238-.31-.037.31-1.815.316.04.264 1.316Z"/>
  <path fill="url(#P)" d="M15.692 3.114 15.1 4.855l-.336-.114L15.356 3l.336.114Z"/>
  <path fill="url(#Q)" d="m17.045 3.714.336.194-1.206 1.43-.35-.179.468-1.81.356.161-.454 1.38.005.002.845-1.178Z"/>
  <path fill="url(#R)" d="m17.953 5.565-.333-.25-.296.392.375.283-.19.255-.658-.496 1.108-1.47.633.477-.192.252-.35-.264-.252.335.332.25-.177.236Z"/>
  <path fill="url(#S)" d="M19.25 5.365c.082.078.183.175.275.274.132.142.223.294.225.455.003.148-.065.255-.18.362a.486.486 0 0 1-.526.106l-.004.003c.049.124.006.249-.113.408a2.974 2.974 0 0 0-.292.447l-.244-.297c.023-.05.13-.205.259-.362.144-.178.152-.264.072-.351l-.035-.038-.533.495-.253-.249 1.35-1.253Zm-.363.821.043.046c.104.113.256.094.373-.015.113-.105.152-.226.047-.347a.257.257 0 0 0-.064-.055l-.4.371Z"/>
  <path fill="url(#T)" d="M19.15 7.507a.682.682 0 0 0 .103.29c.091.141.208.163.308.098.112-.071.122-.175.123-.358-.008-.292.102-.475.241-.565.246-.158.556-.126.763.195.064.1.098.213.1.276l-.287.118a.433.433 0 0 0-.074-.23c-.082-.127-.199-.139-.28-.086-.091.059-.11.135-.103.366.007.281-.1.455-.26.56-.28.18-.598.091-.792-.21a.797.797 0 0 1-.127-.332l.285-.122Z"/>
  <path fill="url(#U)" d="m21.332 8.391-1.66.774-.15-.322 1.662-.773.148.321Z"/>
  <path fill="url(#V)" d="m21.377 9.425-.103-.306.313-.095.292.957-.314.096-.085-.313-1.446.444-.104-.339 1.447-.444Z"/>
  <path fill="url(#W)" d="m21.24 11.168.001.006.856.092.029.363-1.153-.27-.704.089-.046-.353.693-.086 1.068-.535.062.376-.805.318Z"/>
  <path fill="#fff" d="M11.78 16.19c-.07.038-.205.08-.273.107a.573.573 0 0 1-.218.041.744.744 0 0 1-.185-.024.71.71 0 0 1-.185-.102.302.302 0 0 1-.108-.11.386.386 0 0 1-.049-.199.478.478 0 0 1 .201-.403.617.617 0 0 1 .2-.095.829.829 0 0 1 .22-.03.589.589 0 0 1 .443.194.642.642 0 0 1 .126.219.984.984 0 0 1-.006.602.702.702 0 0 1-.145.247.611.611 0 0 1-.224.157.893.893 0 0 1-.48.036.594.594 0 0 1-.13-.044c-.034-.017-.062-.034-.084-.046a.104.104 0 0 0-.052-.021c-.018 0-.002.03-.015.041l-.052-.044.149-.302.053.042c0 .01-.022-.005-.02.007a.092.092 0 0 0 .014.033.207.207 0 0 0 .066.062.44.44 0 0 0 .189.066.661.661 0 0 0 .089.007c.213 0 .343-.099.392-.297l.084-.145Zm-.537-.565a.29.29 0 0 0-.102.042.204.204 0 0 0-.07.076.248.248 0 0 0-.027.12c0 .046.01.086.026.118a.213.213 0 0 0 .071.078c.03.018.063.031.102.04a.595.595 0 0 0 .233 0 .328.328 0 0 0 .102-.04.243.243 0 0 0 .11-.203c0-.047.005-.067-.012-.098a.34.34 0 0 0-.2-.133.553.553 0 0 0-.233 0Zm1.023.725-.025.035c0 .043.002.048.038.081.037.033.08.061.13.085a.852.852 0 0 0 .298.07.642.642 0 0 0 .22-.045.275.275 0 0 0 .09-.068.171.171 0 0 0 .037-.112.154.154 0 0 0-.036-.106.237.237 0 0 0-.086-.062.372.372 0 0 0-.11-.029.795.795 0 0 0-.1-.008.363.363 0 0 0-.104.014c-.028.008-.038.062-.048.095l-.04-.034v-.374h.031l.04.036c.006.029-.015.027.013.037a.304.304 0 0 0 .108.018.542.542 0 0 0 .091-.008.325.325 0 0 0 .098-.03.235.235 0 0 0 .077-.06.145.145 0 0 0 .032-.097.138.138 0 0 0-.028-.089.2.2 0 0 0-.074-.053.407.407 0 0 0-.101-.027 1.11 1.11 0 0 0-.113-.006.551.551 0 0 0-.136.017.603.603 0 0 0-.127.044.417.417 0 0 0-.093.06c-.026.023-.038.044-.038.066l.003.026c.001.011.021.07.025.078l-.04-.032-.198-.28.03-.026a.07.07 0 0 0 .041.013c.01 0 .024-.01.046-.031a.591.591 0 0 1 .099-.07.8.8 0 0 1 .164-.072.821.821 0 0 1 .244-.03c.065 0 .13.006.194.02a.6.6 0 0 1 .176.07.415.415 0 0 1 .132.125c.034.05.05.111.05.182a.335.335 0 0 1-.052.184.225.225 0 0 1-.142.106l-.02.047c.07.018.149.013.194.067a.308.308 0 0 1 .068.205c0 .094-.021.17-.062.231a.475.475 0 0 1-.157.145.6.6 0 0 1-.206.072c-.07.01-.14.017-.211.017a1.017 1.017 0 0 1-.379-.078c-.05-.02-.09-.04-.122-.057a.18.18 0 0 0-.069-.026c-.008 0 .012.014.007.019-.006.003-.023.018-.03.023l-.038-.034.143-.396.027.016.039.036Zm-1.952-.535c-.015.002-.136.003-.152.007a.164.164 0 0 0-.04.02c-.012.008-.01.055-.015.07l-.04-.036v-.347h.03l.04.035c.014.006.01.01.024.01a.09.09 0 0 0 .07-.03c.02-.02.03-.042.03-.07 0-.026-.01-.026-.021-.033l-.039-.034v-.032h.4l.038.034c-.02.004-.074.01-.087.018a.05.05 0 0 0-.02.042v1.26c0 .032.007.053.02.063.013.01-.003.026.013.026l-.338.056-.04-.034v-.033a.064.064 0 0 0 .044-.015c.012-.01.019-.031.019-.062v-.846l.064-.069Z"/>
  <path fill="#062453" d="M10.676 16.872v.034h-.41l-.038-.03a.21.21 0 0 0 .082-.019c.012-.01.019-.03.019-.061v-.92a.321.321 0 0 0-.088.012.202.202 0 0 0-.04.018.072.072 0 0 0-.026.035h-.03l-.042-.035.041-.28c0 .017.039-.003.054.003a.11.11 0 0 0 .042.01.094.094 0 0 0 .07-.03.093.093 0 0 0 .03-.069c0-.027-.006-.042-.016-.05-.011-.007 0-.03-.018-.034l.331-.049.043.033v.033a.128.128 0 0 0-.05.02.049.049 0 0 0-.02.041v1.31c0 .03-.006-.01.006 0 .01.007.017-.005.03-.003l.03.03Zm.303-.366.01.026c0 .009.022.01.024.024a.083.083 0 0 0 .013.033.22.22 0 0 0 .067.062.454.454 0 0 0 .189.066.775.775 0 0 0 .088.006c.258 0 .395-.144.412-.434a1.824 1.824 0 0 1-.208.1.59.59 0 0 1-.219.041.714.714 0 0 1-.183-.024.541.541 0 0 1-.17-.078.386.386 0 0 1-.173-.332.48.48 0 0 1 .201-.403.615.615 0 0 1 .2-.096.824.824 0 0 1 .22-.03.57.57 0 0 1 .443.194.658.658 0 0 1 .126.22.968.968 0 0 1-.006.601.707.707 0 0 1-.144.247.625.625 0 0 1-.224.157.758.758 0 0 1-.291.054.832.832 0 0 1-.19-.018.547.547 0 0 1-.13-.044 1.158 1.158 0 0 1-.084-.046.105.105 0 0 0-.052-.021c-.018 0-.022-.005-.035.006l-.06-.067.176-.244Zm.331-.788a.286.286 0 0 0-.101.04.21.21 0 0 0-.072.077.255.255 0 0 0-.025.119.27.27 0 0 0 .025.12.22.22 0 0 0 .072.077.314.314 0 0 0 .101.04.5.5 0 0 0 .117.012.49.49 0 0 0 .116-.013.294.294 0 0 0 .102-.04.214.214 0 0 0 .07-.077.242.242 0 0 0 .026-.12.24.24 0 0 0-.026-.118.207.207 0 0 0-.07-.077.292.292 0 0 0-.102-.04.518.518 0 0 0-.233 0Zm.844 1.06-.022-.008-.037-.043.17-.379.032.034a.243.243 0 0 0-.005.044v.02c0 .042.018.079.054.112a.495.495 0 0 0 .13.084.759.759 0 0 0 .299.07.63.63 0 0 0 .105-.01.407.407 0 0 0 .113-.034.257.257 0 0 0 .09-.067.17.17 0 0 0 .037-.112.157.157 0 0 0-.035-.107.255.255 0 0 0-.087-.063.445.445 0 0 0-.11-.028.78.78 0 0 0-.099-.007.34.34 0 0 0-.104.012c-.017.007-.033.012-.043.046h-.03l-.042-.043.058-.315c.003.037.021.061.053.073a.287.287 0 0 0 .108.018.547.547 0 0 0 .092-.008.355.355 0 0 0 .097-.03.21.21 0 0 0 .077-.061.143.143 0 0 0 .032-.096.136.136 0 0 0-.028-.089.19.19 0 0 0-.074-.053.366.366 0 0 0-.101-.026.942.942 0 0 0-.113-.007.58.58 0 0 0-.262.06.427.427 0 0 0-.094.061c-.025.022-.038.044-.038.066l.003.027c.002.01.004.02.008.029l-.022.016-.198-.281.03-.025a.073.073 0 0 0 .04.014c.01 0 .024-.01.046-.032a.725.725 0 0 1 .263-.14.785.785 0 0 1 .245-.032c.063 0 .128.007.192.021a.62.62 0 0 1 .178.07.41.41 0 0 1 .131.124.32.32 0 0 1 .05.184.344.344 0 0 1-.051.182.226.226 0 0 1-.143.106v.005a.331.331 0 0 1 .174.11.306.306 0 0 1 .068.204c0 .094-.02.171-.063.232a.475.475 0 0 1-.156.144.58.58 0 0 1-.206.072 1.307 1.307 0 0 1-.211.018.918.918 0 0 1-.38-.078 1.277 1.277 0 0 1-.121-.058c-.032-.016-.06-.032-.073-.032l-.027.006Zm1.511-.272.01.026c0 .009.021.01.024.024a.075.075 0 0 0 .014.033.215.215 0 0 0 .066.062.448.448 0 0 0 .189.066.764.764 0 0 0 .088.006c.258 0 .395-.144.412-.434a1.79 1.79 0 0 1-.209.1.585.585 0 0 1-.218.041.716.716 0 0 1-.184-.024.545.545 0 0 1-.17-.078.383.383 0 0 1-.172-.332c0-.094.02-.174.056-.24a.5.5 0 0 1 .145-.163.614.614 0 0 1 .2-.096.829.829 0 0 1 .22-.03.568.568 0 0 1 .443.194.64.64 0 0 1 .126.22.976.976 0 0 1-.005.601.707.707 0 0 1-.145.247.63.63 0 0 1-.224.157.76.76 0 0 1-.291.054.835.835 0 0 1-.19-.018.56.56 0 0 1-.13-.044 1.505 1.505 0 0 1-.085-.046.098.098 0 0 0-.051-.021c-.018 0-.022-.005-.035.006l-.06-.067.176-.244Zm.33-.788a.294.294 0 0 0-.101.04.22.22 0 0 0-.071.077.248.248 0 0 0-.026.119c0 .048.01.087.026.12a.23.23 0 0 0 .071.077.3.3 0 0 0 .102.04.5.5 0 0 0 .233-.001.3.3 0 0 0 .102-.04.224.224 0 0 0 .07-.077.25.25 0 0 0 .026-.12.247.247 0 0 0-.025-.118.22.22 0 0 0-.071-.077.292.292 0 0 0-.102-.04.517.517 0 0 0-.233 0Z"/>
  <path fill="#fff" d="M14.466 16.19c-.071.038-.204.08-.274.107a.575.575 0 0 1-.218.041.753.753 0 0 1-.184-.024.702.702 0 0 1-.185-.102.299.299 0 0 1-.108-.11.384.384 0 0 1-.05-.199.475.475 0 0 1 .202-.403.608.608 0 0 1 .2-.095.83.83 0 0 1 .219-.03.59.59 0 0 1 .444.194.665.665 0 0 1 .126.219.969.969 0 0 1-.006.602.705.705 0 0 1-.145.247.614.614 0 0 1-.224.157.885.885 0 0 1-.48.036.582.582 0 0 1-.215-.09.104.104 0 0 0-.052-.021c-.018 0-.002.03-.015.041l-.052-.044.149-.302.054.042c0 .01-.023-.005-.02.007a.084.084 0 0 0 .013.033.214.214 0 0 0 .067.062.464.464 0 0 0 .188.067.673.673 0 0 0 .09.006c.213 0 .343-.099.391-.297l.085-.145Zm-.537-.565a.296.296 0 0 0-.102.042.215.215 0 0 0-.072.076.257.257 0 0 0-.025.12c0 .046.009.086.025.118a.225.225 0 0 0 .072.078c.03.018.064.031.102.04a.588.588 0 0 0 .233 0 .334.334 0 0 0 .101-.04.244.244 0 0 0 .11-.203c.001-.047.005-.067-.011-.098a.33.33 0 0 0-.2-.133.55.55 0 0 0-.233 0Z"/>
  <path fill="url(#X)" d="m10.951 16.447.03.017a.153.153 0 0 0 .017.066.22.22 0 0 0 .067.062.45.45 0 0 0 .188.066.657.657 0 0 0 .09.007c.257 0 .394-.145.411-.434a1.8 1.8 0 0 1-.209.1.587.587 0 0 1-.218.04.766.766 0 0 1-.184-.024.545.545 0 0 1-.17-.077.39.39 0 0 1-.172-.333.474.474 0 0 1 .201-.403.62.62 0 0 1 .2-.095.802.802 0 0 1 .219-.03.565.565 0 0 1 .444.194.634.634 0 0 1 .125.218.954.954 0 0 1-.006.601.712.712 0 0 1-.144.248.623.623 0 0 1-.224.157.882.882 0 0 1-.48.036.756.756 0 0 1-.214-.09.111.111 0 0 0-.052-.021.073.073 0 0 0-.047.017l-.02-.02.148-.302Zm.33-.788a.298.298 0 0 0-.101.041.206.206 0 0 0-.071.077.251.251 0 0 0-.026.119c0 .047.009.087.026.119a.214.214 0 0 0 .07.077.34.34 0 0 0 .102.04.553.553 0 0 0 .234 0 .31.31 0 0 0 .101-.04.209.209 0 0 0 .072-.077.253.253 0 0 0 .025-.12.253.253 0 0 0-.025-.118.204.204 0 0 0-.072-.077.297.297 0 0 0-.101-.04.57.57 0 0 0-.234 0Z"/>
  <path fill="url(#Y)" d="m13.637 16.447.03.017c0 .01.001.02.004.033a.073.073 0 0 0 .013.033.228.228 0 0 0 .067.062.458.458 0 0 0 .188.066.657.657 0 0 0 .09.007c.257 0 .394-.145.41-.434a1.971 1.971 0 0 1-.208.1.588.588 0 0 1-.218.04.771.771 0 0 1-.184-.024.546.546 0 0 1-.17-.077.391.391 0 0 1-.172-.333.476.476 0 0 1 .2-.403.625.625 0 0 1 .2-.095.802.802 0 0 1 .22-.03.562.562 0 0 1 .444.194.651.651 0 0 1 .126.218c.03.085.044.177.044.279a.96.96 0 0 1-.051.323.696.696 0 0 1-.144.248.626.626 0 0 1-.224.157.883.883 0 0 1-.48.036.729.729 0 0 1-.214-.09.112.112 0 0 0-.053-.022.074.074 0 0 0-.047.017l-.02-.02.15-.302Zm.33-.788a.297.297 0 0 0-.102.041.211.211 0 0 0-.07.077.255.255 0 0 0-.027.119.219.219 0 0 0 .097.196.33.33 0 0 0 .102.04.545.545 0 0 0 .233 0 .312.312 0 0 0 .102-.04.213.213 0 0 0 .071-.077.253.253 0 0 0 .026-.12.253.253 0 0 0-.026-.118.208.208 0 0 0-.07-.077.3.3 0 0 0-.103-.04.553.553 0 0 0-.233 0Z"/>
  <path fill="url(#Z)" d="m12.139 15.625.03-.025a.075.075 0 0 0 .041.013c.01 0 .024-.01.046-.031a.714.714 0 0 1 .263-.14.804.804 0 0 1 .244-.033c.065 0 .129.007.194.021a.58.58 0 0 1 .177.072.396.396 0 0 1 .13.123c.034.05.05.111.05.183a.336.336 0 0 1-.05.182.227.227 0 0 1-.142.107v.005a.322.322 0 0 1 .173.11.307.307 0 0 1 .068.204.394.394 0 0 1-.063.231.48.48 0 0 1-.157.145.584.584 0 0 1-.206.071 1.32 1.32 0 0 1-.21.018.91.91 0 0 1-.379-.078c-.05-.02-.09-.04-.122-.057a.197.197 0 0 0-.069-.026.04.04 0 0 0-.021.006.192.192 0 0 1-.018.01l-.023-.008.144-.395.027.016a.048.048 0 0 0-.003.02v.018c0 .042.019.08.055.113a.457.457 0 0 0 .13.084.813.813 0 0 0 .298.07c.03 0 .065-.002.106-.01a.412.412 0 0 0 .113-.034.283.283 0 0 0 .09-.067.17.17 0 0 0 .037-.112.156.156 0 0 0-.035-.107.247.247 0 0 0-.087-.063.407.407 0 0 0-.11-.028.834.834 0 0 0-.099-.007.364.364 0 0 0-.103.012c-.03.009-.048.029-.058.062h-.03v-.374h.03c.003.037.02.061.053.073a.286.286 0 0 0 .108.018.574.574 0 0 0 .091-.008.358.358 0 0 0 .097-.03.233.233 0 0 0 .078-.06.145.145 0 0 0 .032-.097.134.134 0 0 0-.029-.089.186.186 0 0 0-.073-.053.382.382 0 0 0-.101-.027 1.006 1.006 0 0 0-.113-.006.56.56 0 0 0-.136.017.535.535 0 0 0-.22.104c-.025.022-.038.044-.038.066l.003.026a.14.14 0 0 0 .007.03l-.022.016-.198-.281Z"/>
  <path fill="url(#aa)" d="M10.226 16.84a.063.063 0 0 0 .044-.014c.012-.01.019-.03.019-.062v-.92c-.013 0-.026 0-.041.003a.181.181 0 0 0-.087.028.064.064 0 0 0-.026.035h-.03v-.347h.03c0 .016.008.028.023.034a.102.102 0 0 0 .08.003.096.096 0 0 0 .033-.023.093.093 0 0 0 .028-.07c0-.025-.005-.041-.015-.048a.116.116 0 0 0-.044-.018v-.032h.4v.032a.152.152 0 0 0-.05.02.05.05 0 0 0-.02.042v1.26c0 .032.007.053.02.063a.07.07 0 0 0 .045.015v.033h-.409v-.033Z"/>
  <defs>
    <radialGradient id="a" cx="0" cy="0" r="1" gradientTransform="translate(7.718 6.734) scale(18.1167)" gradientUnits="userSpaceOnUse">
      <stop offset=".101" stop-color="#EFEFF0"/>
      <stop offset=".256" stop-color="#E7E8E8"/>
      <stop offset=".522" stop-color="#D3D4D4"/>
      <stop offset=".866" stop-color="#B0B0B1"/>
      <stop offset="1" stop-color="#9F9FA0"/>
    </radialGradient>
    <radialGradient id="b" cx="0" cy="0" r="1" gradientTransform="translate(7.465 6.977) scale(18.3506)" gradientUnits="userSpaceOnUse">
      <stop stop-color="#8786BB"/>
      <stop offset=".064" stop-color="#6A6CAC"/>
      <stop offset=".149" stop-color="#45529C"/>
      <stop offset=".227" stop-color="#284192"/>
      <stop offset=".297" stop-color="#0F398D"/>
      <stop offset=".35" stop-color="#04368B"/>
      <stop offset="1" stop-color="#092757"/>
    </radialGradient>
    <radialGradient id="d" cx="0" cy="0" r="1" gradientTransform="translate(8.297 7.562) scale(13.4367)" gradientUnits="userSpaceOnUse">
      <stop stop-color="#8786BB"/>
      <stop offset=".064" stop-color="#6A6CAC"/>
      <stop offset=".149" stop-color="#45529C"/>
      <stop offset=".227" stop-color="#284192"/>
      <stop offset=".297" stop-color="#0F398D"/>
      <stop offset=".35" stop-color="#04368B"/>
      <stop offset="1" stop-color="#092757"/>
    </radialGradient>
    <radialGradient id="f" cx="0" cy="0" r="1" gradientTransform="translate(7.718 6.686) scale(18.1163)" gradientUnits="userSpaceOnUse">
      <stop offset=".101" stop-color="#FCFCFC"/>
      <stop offset=".237" stop-color="#F5F5F5"/>
      <stop offset=".47" stop-color="#E2E2E2"/>
      <stop offset=".772" stop-color="#BFC0C0"/>
      <stop offset="1" stop-color="#9F9FA0"/>
    </radialGradient>
    <radialGradient id="g" cx="0" cy="0" r="1" gradientTransform="translate(8.297 7.562) scale(13.4359)" gradientUnits="userSpaceOnUse">
      <stop stop-color="#8786BB"/>
      <stop offset=".064" stop-color="#6A6CAC"/>
      <stop offset=".149" stop-color="#45529C"/>
      <stop offset=".227" stop-color="#284192"/>
      <stop offset=".297" stop-color="#0F398D"/>
      <stop offset=".35" stop-color="#04368B"/>
      <stop offset="1" stop-color="#092757"/>
    </radialGradient>
    <radialGradient id="h" cx="0" cy="0" r="1" gradientTransform="translate(7.253 7.347) scale(18.1638)" gradientUnits="userSpaceOnUse">
      <stop stop-color="#8786BB"/>
      <stop offset=".064" stop-color="#6A6CAC"/>
      <stop offset=".149" stop-color="#45529C"/>
      <stop offset=".227" stop-color="#284192"/>
      <stop offset=".297" stop-color="#0F398D"/>
      <stop offset=".35" stop-color="#04368B"/>
      <stop offset="1" stop-color="#092757"/>
    </radialGradient>
    <radialGradient id="i" cx="0" cy="0" r="1" gradientTransform="translate(7.718 6.733) scale(18.1159)" gradientUnits="userSpaceOnUse">
      <stop offset=".101" stop-color="#FCFCFC"/>
      <stop offset=".237" stop-color="#F5F5F5"/>
      <stop offset=".47" stop-color="#E2E2E2"/>
      <stop offset=".772" stop-color="#BFC0C0"/>
      <stop offset="1" stop-color="#9F9FA0"/>
    </radialGradient>
    <radialGradient id="j" cx="0" cy="0" r="1" gradientTransform="rotate(83.021 .061 7.726) scale(18.1097)" gradientUnits="userSpaceOnUse">
      <stop offset=".101" stop-color="#FCFCFC"/>
      <stop offset=".237" stop-color="#F5F5F5"/>
      <stop offset=".47" stop-color="#E2E2E2"/>
      <stop offset=".772" stop-color="#BFC0C0"/>
      <stop offset="1" stop-color="#9F9FA0"/>
    </radialGradient>
    <radialGradient id="k" cx="0" cy="0" r="1" gradientTransform="rotate(83.021 .057 7.725) scale(18.1129)" gradientUnits="userSpaceOnUse">
      <stop offset=".101" stop-color="#FCFCFC"/>
      <stop offset=".237" stop-color="#F5F5F5"/>
      <stop offset=".47" stop-color="#E2E2E2"/>
      <stop offset=".772" stop-color="#BFC0C0"/>
      <stop offset="1" stop-color="#9F9FA0"/>
    </radialGradient>
    <radialGradient id="l" cx="0" cy="0" r="1" gradientTransform="rotate(83.021 .055 7.724) scale(18.1156)" gradientUnits="userSpaceOnUse">
      <stop offset=".101" stop-color="#FCFCFC"/>
      <stop offset=".237" stop-color="#F5F5F5"/>
      <stop offset=".47" stop-color="#E2E2E2"/>
      <stop offset=".772" stop-color="#BFC0C0"/>
      <stop offset="1" stop-color="#9F9FA0"/>
    </radialGradient>
    <radialGradient id="m" cx="0" cy="0" r="1" gradientTransform="rotate(83.021 .056 7.724) scale(18.1146)" gradientUnits="userSpaceOnUse">
      <stop offset=".101" stop-color="#FCFCFC"/>
      <stop offset=".237" stop-color="#F5F5F5"/>
      <stop offset=".47" stop-color="#E2E2E2"/>
      <stop offset=".772" stop-color="#BFC0C0"/>
      <stop offset="1" stop-color="#9F9FA0"/>
    </radialGradient>
    <radialGradient id="n" cx="0" cy="0" r="1" gradientTransform="rotate(83.021 .056 7.724) scale(18.1157 18.1156)" gradientUnits="userSpaceOnUse">
      <stop offset=".101" stop-color="#FCFCFC"/>
      <stop offset=".237" stop-color="#F5F5F5"/>
      <stop offset=".47" stop-color="#E2E2E2"/>
      <stop offset=".772" stop-color="#BFC0C0"/>
      <stop offset="1" stop-color="#9F9FA0"/>
    </radialGradient>
    <radialGradient id="o" cx="0" cy="0" r="1" gradientTransform="rotate(83.021 .059 7.719) scale(18.1242)" gradientUnits="userSpaceOnUse">
      <stop offset=".101" stop-color="#FCFCFC"/>
      <stop offset=".237" stop-color="#F5F5F5"/>
      <stop offset=".47" stop-color="#E2E2E2"/>
      <stop offset=".772" stop-color="#BFC0C0"/>
      <stop offset="1" stop-color="#9F9FA0"/>
    </radialGradient>
    <radialGradient id="p" cx="0" cy="0" r="1" gradientTransform="rotate(83.021 .055 7.722) scale(18.1187)" gradientUnits="userSpaceOnUse">
      <stop offset=".101" stop-color="#FCFCFC"/>
      <stop offset=".237" stop-color="#F5F5F5"/>
      <stop offset=".47" stop-color="#E2E2E2"/>
      <stop offset=".772" stop-color="#BFC0C0"/>
      <stop offset="1" stop-color="#9F9FA0"/>
    </radialGradient>
    <radialGradient id="q" cx="0" cy="0" r="1" gradientTransform="rotate(83.021 .056 7.723) scale(18.1179)" gradientUnits="userSpaceOnUse">
      <stop offset=".101" stop-color="#FCFCFC"/>
      <stop offset=".237" stop-color="#F5F5F5"/>
      <stop offset=".47" stop-color="#E2E2E2"/>
      <stop offset=".772" stop-color="#BFC0C0"/>
      <stop offset="1" stop-color="#9F9FA0"/>
    </radialGradient>
    <radialGradient id="r" cx="0" cy="0" r="1" gradientTransform="rotate(83.021 .056 7.725) scale(18.1144)" gradientUnits="userSpaceOnUse">
      <stop offset=".101" stop-color="#FCFCFC"/>
      <stop offset=".237" stop-color="#F5F5F5"/>
      <stop offset=".47" stop-color="#E2E2E2"/>
      <stop offset=".772" stop-color="#BFC0C0"/>
      <stop offset="1" stop-color="#9F9FA0"/>
    </radialGradient>
    <radialGradient id="s" cx="0" cy="0" r="1" gradientTransform="rotate(83.021 .054 7.724) scale(18.1146)" gradientUnits="userSpaceOnUse">
      <stop offset=".101" stop-color="#FCFCFC"/>
      <stop offset=".237" stop-color="#F5F5F5"/>
      <stop offset=".47" stop-color="#E2E2E2"/>
      <stop offset=".772" stop-color="#BFC0C0"/>
      <stop offset="1" stop-color="#9F9FA0"/>
    </radialGradient>
    <radialGradient id="t" cx="0" cy="0" r="1" gradientTransform="rotate(83.021 .055 7.723) scale(18.1175)" gradientUnits="userSpaceOnUse">
      <stop offset=".101" stop-color="#FCFCFC"/>
      <stop offset=".237" stop-color="#F5F5F5"/>
      <stop offset=".47" stop-color="#E2E2E2"/>
      <stop offset=".772" stop-color="#BFC0C0"/>
      <stop offset="1" stop-color="#9F9FA0"/>
    </radialGradient>
    <radialGradient id="u" cx="0" cy="0" r="1" gradientTransform="rotate(96.979 .882 6.785) scale(18.1214)" gradientUnits="userSpaceOnUse">
      <stop offset=".101" stop-color="#FCFCFC"/>
      <stop offset=".237" stop-color="#F5F5F5"/>
      <stop offset=".47" stop-color="#E2E2E2"/>
      <stop offset=".772" stop-color="#BFC0C0"/>
      <stop offset="1" stop-color="#9F9FA0"/>
    </radialGradient>
    <radialGradient id="v" cx="0" cy="0" r="1" gradientTransform="rotate(96.979 .88 6.784) scale(18.1172)" gradientUnits="userSpaceOnUse">
      <stop offset=".101" stop-color="#FCFCFC"/>
      <stop offset=".237" stop-color="#F5F5F5"/>
      <stop offset=".47" stop-color="#E2E2E2"/>
      <stop offset=".772" stop-color="#BFC0C0"/>
      <stop offset="1" stop-color="#9F9FA0"/>
    </radialGradient>
    <radialGradient id="w" cx="0" cy="0" r="1" gradientTransform="rotate(96.979 .88 6.786) scale(18.1154)" gradientUnits="userSpaceOnUse">
      <stop offset=".101" stop-color="#FCFCFC"/>
      <stop offset=".237" stop-color="#F5F5F5"/>
      <stop offset=".47" stop-color="#E2E2E2"/>
      <stop offset=".772" stop-color="#BFC0C0"/>
      <stop offset="1" stop-color="#9F9FA0"/>
    </radialGradient>
    <radialGradient id="x" cx="0" cy="0" r="1" gradientTransform="rotate(96.979 .88 6.785) scale(18.1158 18.1157)" gradientUnits="userSpaceOnUse">
      <stop offset=".101" stop-color="#FCFCFC"/>
      <stop offset=".237" stop-color="#F5F5F5"/>
      <stop offset=".47" stop-color="#E2E2E2"/>
      <stop offset=".772" stop-color="#BFC0C0"/>
      <stop offset="1" stop-color="#9F9FA0"/>
    </radialGradient>
    <radialGradient id="y" cx="0" cy="0" r="1" gradientTransform="rotate(96.979 .882 6.784) scale(18.1206)" gradientUnits="userSpaceOnUse">
      <stop offset=".101" stop-color="#FCFCFC"/>
      <stop offset=".237" stop-color="#F5F5F5"/>
      <stop offset=".47" stop-color="#E2E2E2"/>
      <stop offset=".772" stop-color="#BFC0C0"/>
      <stop offset="1" stop-color="#9F9FA0"/>
    </radialGradient>
    <radialGradient id="z" cx="0" cy="0" r="1" gradientTransform="rotate(96.979 .884 6.782) scale(18.1269)" gradientUnits="userSpaceOnUse">
      <stop offset=".101" stop-color="#FCFCFC"/>
      <stop offset=".237" stop-color="#F5F5F5"/>
      <stop offset=".47" stop-color="#E2E2E2"/>
      <stop offset=".772" stop-color="#BFC0C0"/>
      <stop offset="1" stop-color="#9F9FA0"/>
    </radialGradient>
    <radialGradient id="A" cx="0" cy="0" r="1" gradientTransform="rotate(96.979 .881 6.784) scale(18.1194 18.1195)" gradientUnits="userSpaceOnUse">
      <stop offset=".101" stop-color="#FCFCFC"/>
      <stop offset=".237" stop-color="#F5F5F5"/>
      <stop offset=".47" stop-color="#E2E2E2"/>
      <stop offset=".772" stop-color="#BFC0C0"/>
      <stop offset="1" stop-color="#9F9FA0"/>
    </radialGradient>
    <radialGradient id="B" cx="0" cy="0" r="1" gradientTransform="rotate(96.979 .882 6.784) scale(18.1189)" gradientUnits="userSpaceOnUse">
      <stop offset=".101" stop-color="#FCFCFC"/>
      <stop offset=".237" stop-color="#F5F5F5"/>
      <stop offset=".47" stop-color="#E2E2E2"/>
      <stop offset=".772" stop-color="#BFC0C0"/>
      <stop offset="1" stop-color="#9F9FA0"/>
    </radialGradient>
    <radialGradient id="C" cx="0" cy="0" r="1" gradientTransform="rotate(96.979 .88 6.786) scale(18.1141 18.1142)" gradientUnits="userSpaceOnUse">
      <stop offset=".101" stop-color="#FCFCFC"/>
      <stop offset=".237" stop-color="#F5F5F5"/>
      <stop offset=".47" stop-color="#E2E2E2"/>
      <stop offset=".772" stop-color="#BFC0C0"/>
      <stop offset="1" stop-color="#9F9FA0"/>
    </radialGradient>
    <radialGradient id="D" cx="0" cy="0" r="1" gradientTransform="rotate(96.979 .88 6.785) scale(18.1149)" gradientUnits="userSpaceOnUse">
      <stop offset=".101" stop-color="#FCFCFC"/>
      <stop offset=".237" stop-color="#F5F5F5"/>
      <stop offset=".47" stop-color="#E2E2E2"/>
      <stop offset=".772" stop-color="#BFC0C0"/>
      <stop offset="1" stop-color="#9F9FA0"/>
    </radialGradient>
    <radialGradient id="E" cx="0" cy="0" r="1" gradientTransform="rotate(96.979 .88 6.785) scale(18.1167)" gradientUnits="userSpaceOnUse">
      <stop offset=".101" stop-color="#FCFCFC"/>
      <stop offset=".237" stop-color="#F5F5F5"/>
      <stop offset=".47" stop-color="#E2E2E2"/>
      <stop offset=".772" stop-color="#BFC0C0"/>
      <stop offset="1" stop-color="#9F9FA0"/>
    </radialGradient>
    <radialGradient id="F" cx="0" cy="0" r="1" gradientTransform="matrix(18.1119 0 0 18.112 7.717 6.739)" gradientUnits="userSpaceOnUse">
      <stop offset=".101" stop-color="#FCFCFC"/>
      <stop offset=".237" stop-color="#F5F5F5"/>
      <stop offset=".47" stop-color="#E2E2E2"/>
      <stop offset=".772" stop-color="#BFC0C0"/>
      <stop offset="1" stop-color="#9F9FA0"/>
    </radialGradient>
    <radialGradient id="G" cx="0" cy="0" r="1" gradientTransform="translate(7.718 6.734) scale(18.1167)" gradientUnits="userSpaceOnUse">
      <stop offset=".101" stop-color="#FCFCFC"/>
      <stop offset=".237" stop-color="#F5F5F5"/>
      <stop offset=".47" stop-color="#E2E2E2"/>
      <stop offset=".772" stop-color="#BFC0C0"/>
      <stop offset="1" stop-color="#9F9FA0"/>
    </radialGradient>
    <radialGradient id="H" cx="0" cy="0" r="1" gradientTransform="translate(7.718 6.734) scale(18.115)" gradientUnits="userSpaceOnUse">
      <stop offset=".101" stop-color="#FCFCFC"/>
      <stop offset=".237" stop-color="#F5F5F5"/>
      <stop offset=".47" stop-color="#E2E2E2"/>
      <stop offset=".772" stop-color="#BFC0C0"/>
      <stop offset="1" stop-color="#9F9FA0"/>
    </radialGradient>
    <radialGradient id="I" cx="0" cy="0" r="1" gradientTransform="translate(7.718 6.733) scale(18.1178)" gradientUnits="userSpaceOnUse">
      <stop offset=".101" stop-color="#FCFCFC"/>
      <stop offset=".237" stop-color="#F5F5F5"/>
      <stop offset=".47" stop-color="#E2E2E2"/>
      <stop offset=".772" stop-color="#BFC0C0"/>
      <stop offset="1" stop-color="#9F9FA0"/>
    </radialGradient>
    <radialGradient id="J" cx="0" cy="0" r="1" gradientTransform="translate(7.718 6.733) scale(18.1185)" gradientUnits="userSpaceOnUse">
      <stop offset=".101" stop-color="#FCFCFC"/>
      <stop offset=".237" stop-color="#F5F5F5"/>
      <stop offset=".47" stop-color="#E2E2E2"/>
      <stop offset=".772" stop-color="#BFC0C0"/>
      <stop offset="1" stop-color="#9F9FA0"/>
    </radialGradient>
    <radialGradient id="K" cx="0" cy="0" r="1" gradientTransform="translate(7.718 6.733) scale(18.1125)" gradientUnits="userSpaceOnUse">
      <stop offset=".101" stop-color="#FCFCFC"/>
      <stop offset=".237" stop-color="#F5F5F5"/>
      <stop offset=".47" stop-color="#E2E2E2"/>
      <stop offset=".772" stop-color="#BFC0C0"/>
      <stop offset="1" stop-color="#9F9FA0"/>
    </radialGradient>
    <radialGradient id="L" cx="0" cy="0" r="1" gradientTransform="translate(7.718 6.733) scale(18.1174)" gradientUnits="userSpaceOnUse">
      <stop offset=".101" stop-color="#FCFCFC"/>
      <stop offset=".237" stop-color="#F5F5F5"/>
      <stop offset=".47" stop-color="#E2E2E2"/>
      <stop offset=".772" stop-color="#BFC0C0"/>
      <stop offset="1" stop-color="#9F9FA0"/>
    </radialGradient>
    <radialGradient id="M" cx="0" cy="0" r="1" gradientTransform="translate(7.718 6.734) scale(18.1143)" gradientUnits="userSpaceOnUse">
      <stop offset=".101" stop-color="#FCFCFC"/>
      <stop offset=".237" stop-color="#F5F5F5"/>
      <stop offset=".47" stop-color="#E2E2E2"/>
      <stop offset=".772" stop-color="#BFC0C0"/>
      <stop offset="1" stop-color="#9F9FA0"/>
    </radialGradient>
    <radialGradient id="N" cx="0" cy="0" r="1" gradientTransform="translate(7.718 6.733) scale(18.1185)" gradientUnits="userSpaceOnUse">
      <stop offset=".101" stop-color="#FCFCFC"/>
      <stop offset=".237" stop-color="#F5F5F5"/>
      <stop offset=".47" stop-color="#E2E2E2"/>
      <stop offset=".772" stop-color="#BFC0C0"/>
      <stop offset="1" stop-color="#9F9FA0"/>
    </radialGradient>
    <radialGradient id="O" cx="0" cy="0" r="1" gradientTransform="translate(7.718 6.733) scale(18.1121)" gradientUnits="userSpaceOnUse">
      <stop offset=".101" stop-color="#FCFCFC"/>
      <stop offset=".237" stop-color="#F5F5F5"/>
      <stop offset=".47" stop-color="#E2E2E2"/>
      <stop offset=".772" stop-color="#BFC0C0"/>
      <stop offset="1" stop-color="#9F9FA0"/>
    </radialGradient>
    <radialGradient id="P" cx="0" cy="0" r="1" gradientTransform="translate(7.717 6.734) scale(18.1157)" gradientUnits="userSpaceOnUse">
      <stop offset=".101" stop-color="#FCFCFC"/>
      <stop offset=".237" stop-color="#F5F5F5"/>
      <stop offset=".47" stop-color="#E2E2E2"/>
      <stop offset=".772" stop-color="#BFC0C0"/>
      <stop offset="1" stop-color="#9F9FA0"/>
    </radialGradient>
    <radialGradient id="Q" cx="0" cy="0" r="1" gradientTransform="translate(7.715 6.733) scale(18.1204)" gradientUnits="userSpaceOnUse">
      <stop offset=".101" stop-color="#FCFCFC"/>
      <stop offset=".237" stop-color="#F5F5F5"/>
      <stop offset=".47" stop-color="#E2E2E2"/>
      <stop offset=".772" stop-color="#BFC0C0"/>
      <stop offset="1" stop-color="#9F9FA0"/>
    </radialGradient>
    <radialGradient id="R" cx="0" cy="0" r="1" gradientTransform="translate(7.718 6.733) scale(18.1148)" gradientUnits="userSpaceOnUse">
      <stop offset=".101" stop-color="#FCFCFC"/>
      <stop offset=".237" stop-color="#F5F5F5"/>
      <stop offset=".47" stop-color="#E2E2E2"/>
      <stop offset=".772" stop-color="#BFC0C0"/>
      <stop offset="1" stop-color="#9F9FA0"/>
    </radialGradient>
    <radialGradient id="S" cx="0" cy="0" r="1" gradientTransform="matrix(18.115 0 0 18.1149 7.718 6.734)" gradientUnits="userSpaceOnUse">
      <stop offset=".101" stop-color="#FCFCFC"/>
      <stop offset=".237" stop-color="#F5F5F5"/>
      <stop offset=".47" stop-color="#E2E2E2"/>
      <stop offset=".772" stop-color="#BFC0C0"/>
      <stop offset="1" stop-color="#9F9FA0"/>
    </radialGradient>
    <radialGradient id="T" cx="0" cy="0" r="1" gradientTransform="translate(7.718 6.733) scale(18.1156)" gradientUnits="userSpaceOnUse">
      <stop offset=".101" stop-color="#FCFCFC"/>
      <stop offset=".237" stop-color="#F5F5F5"/>
      <stop offset=".47" stop-color="#E2E2E2"/>
      <stop offset=".772" stop-color="#BFC0C0"/>
      <stop offset="1" stop-color="#9F9FA0"/>
    </radialGradient>
    <radialGradient id="U" cx="0" cy="0" r="1" gradientTransform="matrix(18.1144 0 0 18.1143 7.719 6.734)" gradientUnits="userSpaceOnUse">
      <stop offset=".101" stop-color="#FCFCFC"/>
      <stop offset=".237" stop-color="#F5F5F5"/>
      <stop offset=".47" stop-color="#E2E2E2"/>
      <stop offset=".772" stop-color="#BFC0C0"/>
      <stop offset="1" stop-color="#9F9FA0"/>
    </radialGradient>
    <radialGradient id="V" cx="0" cy="0" r="1" gradientTransform="translate(7.715 6.733) scale(18.1189)" gradientUnits="userSpaceOnUse">
      <stop offset=".101" stop-color="#FCFCFC"/>
      <stop offset=".237" stop-color="#F5F5F5"/>
      <stop offset=".47" stop-color="#E2E2E2"/>
      <stop offset=".772" stop-color="#BFC0C0"/>
      <stop offset="1" stop-color="#9F9FA0"/>
    </radialGradient>
    <radialGradient id="W" cx="0" cy="0" r="1" gradientTransform="translate(7.717 6.734) scale(18.1163)" gradientUnits="userSpaceOnUse">
      <stop offset=".101" stop-color="#FCFCFC"/>
      <stop offset=".237" stop-color="#F5F5F5"/>
      <stop offset=".47" stop-color="#E2E2E2"/>
      <stop offset=".772" stop-color="#BFC0C0"/>
      <stop offset="1" stop-color="#9F9FA0"/>
    </radialGradient>
    <radialGradient id="X" cx="0" cy="0" r="1" gradientTransform="translate(8.297 7.563) scale(13.4362)" gradientUnits="userSpaceOnUse">
      <stop stop-color="#8786BB"/>
      <stop offset=".064" stop-color="#6A6CAC"/>
      <stop offset=".149" stop-color="#45529C"/>
      <stop offset=".227" stop-color="#284192"/>
      <stop offset=".297" stop-color="#0F398D"/>
      <stop offset=".35" stop-color="#04368B"/>
      <stop offset="1" stop-color="#092757"/>
    </radialGradient>
    <radialGradient id="Y" cx="0" cy="0" r="1" gradientTransform="translate(8.296 7.563) scale(13.4356)" gradientUnits="userSpaceOnUse">
      <stop stop-color="#8786BB"/>
      <stop offset=".064" stop-color="#6A6CAC"/>
      <stop offset=".149" stop-color="#45529C"/>
      <stop offset=".227" stop-color="#284192"/>
      <stop offset=".297" stop-color="#0F398D"/>
      <stop offset=".35" stop-color="#04368B"/>
      <stop offset="1" stop-color="#092757"/>
    </radialGradient>
    <radialGradient id="Z" cx="0" cy="0" r="1" gradientTransform="translate(8.3 7.563) scale(13.4335)" gradientUnits="userSpaceOnUse">
      <stop stop-color="#8786BB"/>
      <stop offset=".064" stop-color="#6A6CAC"/>
      <stop offset=".149" stop-color="#45529C"/>
      <stop offset=".227" stop-color="#284192"/>
      <stop offset=".297" stop-color="#0F398D"/>
      <stop offset=".35" stop-color="#04368B"/>
      <stop offset="1" stop-color="#092757"/>
    </radialGradient>
    <radialGradient id="aa" cx="0" cy="0" r="1" gradientTransform="translate(8.3 7.563) scale(13.4351)" gradientUnits="userSpaceOnUse">
      <stop stop-color="#8786BB"/>
      <stop offset=".064" stop-color="#6A6CAC"/>
      <stop offset=".149" stop-color="#45529C"/>
      <stop offset=".227" stop-color="#284192"/>
      <stop offset=".297" stop-color="#0F398D"/>
      <stop offset=".35" stop-color="#04368B"/>
      <stop offset="1" stop-color="#092757"/>
    </radialGradient>
    <linearGradient id="c" x1="19.821" x2="5.057" y1="19.698" y2="4.934" gradientUnits="userSpaceOnUse">
      <stop stop-color="#fff"/>
      <stop offset=".27" stop-color="#CECFCF"/>
      <stop offset=".52" stop-color="#9F9FA0"/>
      <stop offset=".733" stop-color="#7A7A7A"/>
      <stop offset=".9" stop-color="#626161"/>
      <stop offset="1" stop-color="#595757"/>
    </linearGradient>
    <linearGradient id="e" x1="17.535" x2="7.25" y1="17.412" y2="7.128" gradientUnits="userSpaceOnUse">
      <stop stop-color="#fff"/>
      <stop offset=".27" stop-color="#CECFCF"/>
      <stop offset=".52" stop-color="#9F9FA0"/>
      <stop offset=".733" stop-color="#7A7A7A"/>
      <stop offset=".9" stop-color="#626161"/>
      <stop offset="1" stop-color="#595757"/>
    </linearGradient>
  </defs>
</svg>
