<svg xmlns="http://www.w3.org/2000/svg" width="24" height="24" fill="none" viewBox="0 0 24 24">
  <g clip-path="url(#a)">
    <path fill="#002C62" d="M11.047 11.487v-.501h-1.37v.183h1.073v.318h.297Zm1.688 0v-1.355h-.275v.468h-.13v-.468h-.275v1.096h-.495v-.922h.376v-.174h-.655v1.271h.774v.084h.276v-.704h.129v.704h.275Z"/>
    <mask id="b" width="48" height="48" x="-12" y="-12" maskUnits="userSpaceOnUse" style="mask-type:luminance">
      <path fill="#fff" d="M-12-12h48v48h-48v-48Z"/>
    </mask>
    <g mask="url(#b)">
      <path fill="#002C62" d="M10.07 10.265c.11 0 .199.09.199.228 0 .137-.084.23-.2.23-.114 0-.198-.093-.198-.23s.087-.228.199-.228Zm0 .622c.276 0 .493-.159.493-.393s-.217-.392-.493-.392c-.278 0-.493.158-.493.392s.215.393.493.393Zm4.27.6v-.468h-1.37v.184h1.075v.284h.294Zm-.94-1.143c.1 0 .18.084.18.212 0 .127-.074.214-.18.214-.105 0-.18-.087-.18-.214 0-.128.078-.212.18-.212Zm0 .59c.274 0 .46-.156.46-.36a.316.316 0 0 0-.095-.225h.167v-.167h-.385v-.117h-.294v.117h-.384v.167h.167a.316.316 0 0 0-.095.226c0 .203.185.359.46.359Zm2.594-.802h-1.387v.184h1.1v.987h-.194v-.745h-.268v.745h-.167v-.745h-.267v.745h-.254v.184h1.57v-.184h-.133v-1.171Zm-1.654.61h.183v-.184h-.184v-.426h-.294v.82h.294v-.21Zm-3.59.177h.297v-.787h-.297v.787Zm-2.383.127a.788.788 0 0 1 .29-.047.79.79 0 0 1 .291.047c.074.032.11.077.11.13 0 .054-.034.099-.11.13a.789.789 0 0 1-.29.047.788.788 0 0 1-.291-.046c-.075-.032-.11-.077-.11-.13 0-.054.036-.1.11-.131Zm.002-.49c-.044-.02-.062-.048-.062-.08s.018-.06.062-.08a.751.751 0 0 1 .289-.047c.115 0 .225.017.289.047.043.02.062.048.062.08s-.019.06-.062.08a.715.715 0 0 1-.29.047.715.715 0 0 1-.288-.047Zm-.413.644c0 .188.27.32.702.32.43 0 .702-.132.702-.32 0-.089-.06-.16-.17-.208h.253v-.175h-.635v-.069c.32-.023.501-.122.501-.249 0-.062-.04-.112-.117-.15h.234v-.167h-.618v-.117h-.3v.117h-.619v.167h.234c-.077.038-.117.088-.117.15 0 .127.18.226.501.25v.068h-.635v.175h.254c-.11.049-.17.119-.17.208Zm6.974 1.428.165.182v3.446l-.166-.178v-3.45Zm.37 4.004h-2.532l-.367.307h-.802l-.365-.306-.002-.001H8.677l.173-.184h2.488l.366.305.001.002h.59l.367-.307h2.464l.173.184Zm-.095-3.703.165.181v3.439l-.165-.177v-3.443Zm.37 3.996h-2.662l-.367.307h-1.092l-.366-.305-.001-.002H8.402l.173-.184h2.618l.365.305.002.002h.88l.367-.307h2.594l.173.184Zm-.095-3.696.166.182v3.43l-.166-.176V13.23Zm.37 3.99h-2.791l-.367.306h-1.384l-.365-.305-.002-.002H8.127l.172-.184h2.748l.365.306.002.001h1.172l.367-.307h2.724l.172.184Zm-.095-3.69.166.182v3.424l-.166-.177V13.53Zm-7.7.182.166-.181v3.428l-.166.177v-3.424Zm.275-.3.166-.182v3.436l-.166.177V13.41Zm.275-.302.166-.181v3.444l-.166.177v-3.44Zm.275-.3.166-.182v3.452l-.166.177v-3.448Zm.244 3.346h2.49l.382.32.004.003.387-.323h2.465l.172.184h-2.402l-.367.306h-.51l-.366-.305-.001-.001H8.952l.172-.184Zm.031-3.584h2.458l.332.279v3.44l-.29-.243-.002-.001H9.155v-3.474Zm2.9.279.332-.278h2.433v3.474h-2.473l-.293.244v-3.44Zm.292-.387-.347.29-.345-.29H9.05l-1.102 1.204-.002.002v3.658h2.955l.366.306.001.001h1.464l.367-.307h2.93V13.67l-1.103-1.207h-2.579Zm-1.85-3.876h-.94v-1.69h3.758v.375h.188v-.564H9.37v2.067h1.127v-.188Z"/>
      <path fill="#002C62" d="M10.497 8.587h2.818V7.272h-2.818v1.315Z"/>
      <path fill="#002C62" d="M13.503 8.775h-3.006v.564h4.133V7.272h-1.127v1.503Z"/>
      <path fill="#002C62" d="M18.779 11.352c-.159.071-.56.128-.721-.169a.684.684 0 0 1-.063-.17.389.389 0 0 1 .014-.197.32.32 0 0 1 .192-.184.211.211 0 0 1 .069-.012c.108 0 .191.105.195.11l.007.009.11-.085-.01-.01a2.528 2.528 0 0 1-.405-.713c.159-.018.31 0 .452.054a.882.882 0 0 1 .374.268c.057.07.1.15.129.236.153.47-.198.797-.343.863Zm-.885-.615a2.25 2.25 0 0 0-.345-.559c.038-.024.077-.049.116-.072a1.24 1.24 0 0 1 .365-.15c.036.112.114.319.25.529a.344.344 0 0 0-.123.018.46.46 0 0 0-.263.234ZM16.59 12.06c-.036 1.187.618 1.985 1.093 2.174a.826.826 0 0 0 .656-.017 5.561 5.561 0 0 0-.421.907c-.073.216-.138.459-.207.716l-.02.072c-.12.45-.27 1.011-.45 1.38-.504 1.024-1.229 1.726-2.28 2.21-.869.4-1.834.604-2.87.604-.43 0-1.743 0-3.052-.604-1.06-.488-1.755-1.16-2.256-2.177-.188-.382-.362-.993-.493-1.483l-.001-.004a12.058 12.058 0 0 0-.207-.714 5.551 5.551 0 0 0-.421-.907c.203.096.44.102.656.017.441-.175 1.122-.912 1.067-2.146-.046-1.063-.358-1.73-.979-2.1-.354-.212-.735-.259-1.072-.132a.776.776 0 0 0-.04.015c.222-.311.507-.73.665-1.032.22-.42.283-.713.422-1.357V7.48c.038-.174.08-.372.133-.605.076-.336.253-.589.51-.731v.001l.073-.038a1 1 0 0 1 .133-.048c.246-.07.541-.048.759.056a3.183 3.183 0 0 1-.721.513.683.683 0 0 0-.36.744c.078.497.586.566.874.528a.919.919 0 0 0 .633-.41c.007-.01.682-1.12 1.389-1.778.397-.37.707-.639.921-.797.088.049.635.336 1.276.336.64 0 1.187-.287 1.276-.336.214.158.524.426.921.797.547.51 1.072 1.28 1.336 1.694.182.292.412.458.686.494.288.038.796-.03.874-.528a.672.672 0 0 0-.363-.739 3.349 3.349 0 0 1-.718-.518 1.13 1.13 0 0 1 .891-.008l.042.02.003.001c.273.14.46.398.539.747.046.203.09.406.134.61.138.643.201.937.421 1.356.158.3.443.72.664 1.032a.731.731 0 0 0-.039-.015c-.337-.127-.718-.08-1.072.131-.655.39-.974 1.05-1.005 2.073Zm.99 1.393a.387.387 0 0 0 .245.237c.068.02.123.03.17.03a1.428 1.428 0 0 0-.187.41.707.707 0 0 1-.075-.024 1.215 1.215 0 0 1-.412-.302 1.67 1.67 0 0 0 .258-.35Zm.124-.271a.422.422 0 0 1 .23-.253.47.47 0 0 1 .402.014c.134.062.231.17.283.312.062.17.052.37-.027.535a.669.669 0 0 1-.648.365c.078-.295.367-.634.37-.637l.008-.01-.113-.082-.007.01c-.114.157-.2.165-.338.123-.121-.036-.219-.181-.16-.377Zm-12.296.608a.71.71 0 0 1-.027-.535.534.534 0 0 1 .283-.312.535.535 0 0 1 .224-.052.466.466 0 0 1 .426.3.303.303 0 0 1-.18.384c-.135.044-.232.003-.336-.14l-.007-.01-.113.083.008.01c.012.014.293.344.37.637a.668.668 0 0 1-.648-.365Zm1.03-.33c.1.184.196.297.24.344-.133.143-.279.25-.412.302a.66.66 0 0 1-.074.025 1.418 1.418 0 0 0-.184-.406.427.427 0 0 0 .43-.264Zm-.332-2.724a.46.46 0 0 0-.263-.234.345.345 0 0 0-.122-.018c.135-.21.213-.417.249-.53.129.032.252.082.365.15l.116.073c-.08.093-.221.279-.345.559ZM6.007 11l-.003.02a.602.602 0 0 1-.062.162c-.16.298-.562.24-.72.169-.146-.066-.497-.392-.344-.863a.75.75 0 0 1 .187-.3l.002-.003a.884.884 0 0 1 .314-.201.948.948 0 0 1 .452-.054 2.535 2.535 0 0 1-.406.713l-.008.01.11.085.007-.01c0-.001.116-.147.263-.097a.32.32 0 0 1 .208.37Zm1.584-4.403c.149-.094.35-.238.517-.412a.963.963 0 0 1 .266.368c-.078.06-.261.21-.446.43a.45.45 0 0 0-.042-.137.453.453 0 0 0-.295-.249Zm.172.309c.077.158-.018.322-.022.33l-.006.01.113.072.007-.01c.212-.316.48-.546.56-.613.04.2.001.392-.038.538a.747.747 0 0 1-.614.53c-.238.031-.659-.02-.721-.414a.535.535 0 0 1 .353-.62h.001a.32.32 0 0 1 .367.177ZM9.12 4.83c.351-.266.915-.88.987-.959a.787.787 0 0 1 .313-.031c.201.013.409.171.505.385.084.188-.005.4-.1.457-.082.049-.332.198-1.115.929-.441.41-.864.982-1.15 1.405.03-.231.016-.557-.308-.885-.115-.116-.372-.253-.716-.253h-.025c.669-.38 1.268-.79 1.61-1.048Zm6.994 2.017a.451.451 0 0 0-.042.137 2.897 2.897 0 0 0-.446-.43.962.962 0 0 1 .266-.368c.167.175.369.318.518.412a.453.453 0 0 0-.296.249Zm.145.389c0-.002-.099-.171-.022-.33a.318.318 0 0 1 .367-.177.535.535 0 0 1 .354.621c-.062.393-.483.445-.721.414a.773.773 0 0 1-.533-.343l-.044-.083a1.197 1.197 0 0 1-.075-.642c.08.067.348.297.56.613l.007.01.113-.073-.006-.01Zm-3.184-3.01c.096-.215.304-.373.505-.386l.074-.003c.131 0 .212.024.239.034.073.08.636.693.987.959.342.259.941.668 1.61 1.049-.333-.007-.61.12-.742.252-.32.324-.338.644-.31.871-.287-.418-.71-.984-1.148-1.391-.783-.731-1.032-.88-1.114-.93-.096-.057-.185-.268-.101-.456Zm6.177 6.221a1.104 1.104 0 0 0-.213-.354c-.43-.585-.724-1.028-.876-1.317-.211-.403-.273-.69-.409-1.321l-.003-.016-.13-.595c-.094-.414-.322-.712-.658-.862a15.867 15.867 0 0 1-2-1.261c-.368-.279-.984-.955-.99-.961l-.01-.008c-.014-.007-.143-.064-.392-.049-.25.016-.505.208-.62.466-.117.258.014.546.154.63l.044.026c-.16.08-.635.288-1.149.288-.515 0-.989-.209-1.149-.287l.044-.027c.14-.085.27-.372.155-.63-.116-.258-.371-.45-.62-.466-.249-.016-.378.042-.394.05l-.007.005-.002.002c-.005.006-.626.685-.99.96-.415.315-1.187.834-1.998 1.262-.337.15-.565.448-.66.862l-.132.604-.001.006c-.136.632-.198.92-.41 1.322-.215.411-.682 1.06-.871 1.32a.91.91 0 0 0-.217.351c-.182.56.242.95.417 1.03.195.088.69.153.898-.229.044-.082.084-.2.087-.215.08-.37.345-.696.415-.776.379.281.634.967.683 1.837.043.777-.234 1.302-.479 1.607a1.652 1.652 0 0 1-.325-.551.605.605 0 0 0-.32-.345.604.604 0 0 0-.518.015.67.67 0 0 0-.354.39.85.85 0 0 0 .09.738l-.004.002.019.028c.004.006.397.604.596 1.191.072.212.136.454.205.712.133.495.31 1.114.502 1.505.516 1.048 1.232 1.74 2.322 2.242 1.336.615 2.67.615 3.11.615 1.054 0 2.04-.207 2.926-.615 1.082-.499 1.827-1.221 2.345-2.274.187-.38.48-1.477.48-1.477.068-.255.133-.496.204-.708.207-.61.587-1.184.59-1.19a.85.85 0 0 0 .11-.77.67.67 0 0 0-.353-.389.603.603 0 0 0-.517-.014.563.563 0 0 0-.303.334 1.657 1.657 0 0 1-.343.561c-.17-.212-.537-.775-.505-1.636.033-.866.278-1.49.71-1.809.088.1.29.361.422.77a.702.702 0 0 0 .08.222c.206.382.703.317.897.228.175-.079.599-.47.417-1.029Z"/>
      <path fill="#002C62" d="m13.422 14.133.547-.057c.007.038.012.074.015.107l.155-.046a2.093 2.093 0 0 0-.176-.594l-.143.045c.046.102.087.224.117.339l-.28.024c.073-.273.149-.638.192-.95l-.182-.023a7.108 7.108 0 0 1-.168.986l-.098.006.021.163Zm-.444-.839a4.696 4.696 0 0 1-.067.447l.156.027.01-.057h.19c-.016.192-.037.277-.063.302-.015.013-.027.015-.05.015-.029 0-.09 0-.153-.006a.352.352 0 0 1 .05.156c.068 0 .135.002.175-.003a.165.165 0 0 0 .11-.054c.045-.05.069-.182.093-.488l.003-.063H13.1c.007-.042.014-.086.019-.13h.31v-.442h-.488v.146h.336v.15h-.3Zm.269 1.523h.538V14.7a.976.976 0 0 0 .213.184.7.7 0 0 1 .123-.12.78.78 0 0 1-.322-.31h-.467v.144h.373c.021.03.045.062.07.091h-.528v.13Zm.059.225v.008h.415c.034.046.074.09.119.133h-.646a.874.874 0 0 0 .112-.141Zm.468.42h-.092v-.158h.092v.158Zm-.214 0h-.092v-.158h.092v.158Zm-.215 0h-.09v-.158h.09v.158Zm-.344-.125a.958.958 0 0 0 .116-.083v.208h-.188v.141h1.167v-.14h-.176v-.214a.882.882 0 0 0 .104.067.668.668 0 0 1 .12-.124.692.692 0 0 1-.332-.289h-.506v.095l-.13-.04a.696.696 0 0 1-.29.262c.034.027.09.088.115.117Z"/>
      <path fill="#002C62" d="M13.028 14.896c.113-.08.232-.212.302-.348l-.159-.046a.747.747 0 0 1-.266.278c.036.027.096.086.123.117Zm-2.448-1.843c0-.028.002-.054.003-.075h-.18c-.008.174.01.772-.516 1.064a.55.55 0 0 1 .132.125c.278-.17.416-.425.488-.662.074.243.221.514.519.662a.516.516 0 0 1 .121-.133c-.491-.23-.557-.8-.568-.981Zm.126 1.696h.21v.078h-.21v-.078Zm0-.176h.21v.07h-.21v-.07Zm-.087.637H10.4v-.079h.218v.08Zm0 .194H10.4v-.082h.218v.082Zm-.062-.465h.358v.515c0 .021-.007.03-.031.03h-.117v-.469h-.508v.571h.142v-.067h.327c.016.04.03.09.034.122.114 0 .19-.004.242-.03.052-.025.07-.071.07-.155v-.996h-.517v.479Z"/>
      <path fill="#002C62" d="M10.32 14.643h-.204v-.07h.203v.07Zm0 .181h-.204v-.075h.203v.075Zm.146-.364H9.96v1.181h.155v-.705h.35v-.476Z"/>
      <path fill="#002C62" d="M12 20.845c-4.886 0-8.862-3.976-8.862-8.862S7.114 3.12 12 3.12s8.861 3.976 8.861 8.862-3.975 8.862-8.86 8.862Zm9.003-8.862c0-4.964-4.039-9.003-9.003-9.003s-9.003 4.039-9.003 9.003S7.036 20.986 12 20.986s9.003-4.039 9.003-9.003Z"/>
      <path fill="#002C62" d="M12 23.858C5.461 23.858.142 18.538.142 12 .142 5.46 5.462.142 12 .142c6.54 0 11.858 5.32 11.858 11.858S18.538 23.858 12 23.858ZM12 0C5.383 0 0 5.383 0 12s5.383 12 12 12 12-5.383 12-12S18.617 0 12 0Z"/>
      <path fill="#002C62" d="m2.935 9.385-.78-.266.281-.825.78.266.103-.3-1.8-.615-.102.301.748.255-.282.825-.748-.255-.101.296 1.8.614.1-.296Zm-.498-2.942a.532.532 0 0 1 .473-.28.79.79 0 0 1 .392.114c.299.174.541.492.325.864a.517.517 0 0 1-.4.274.836.836 0 0 1-.501-.126.738.738 0 0 1-.345-.384.546.546 0 0 1 .056-.462Zm.137 1.138c.168.097.359.156.548.156.283 0 .56-.13.75-.457a.866.866 0 0 0 .093-.723 1.041 1.041 0 0 0-.48-.554c-.263-.152-.527-.197-.765-.129a.912.912 0 0 0-.533.439c-.267.459-.108.98.387 1.268ZM4.66 6.076l-1.007-.888 1.595.22.195-.22L4.016 3.93l-.203.23 1.009.89-1.602-.217-.198.224L4.45 6.315l.21-.239Zm.945-1.386c.056.013.114.02.172.02a.846.846 0 0 0 .517-.189.8.8 0 0 0 .326-.508l.118.138.212-.163-.62-.807-.684.525.172.223.457-.35c.145.26.098.523-.127.696-.334.256-.675.058-.865-.19-.124-.162-.192-.325-.197-.472-.006-.168.069-.312.222-.43.216-.165.448-.161.636.011l.024.022.242-.211-.03-.027c-.302-.287-.688-.3-1.032-.037-.45.346-.5.86-.13 1.342.165.216.368.357.587.407Zm1.973-1.03L6.651 2l-.276.154.927 1.66.276-.153Zm.642-.32-.23-.586.148-.329.951.574.39-.154-1.211-.707.46-1.041-.397.156-.485 1.135-.322-.818-.291.115.696 1.77.291-.115Zm2.099-.912c.118.14.295.21.526.21.046 0 .094-.002.144-.008.32-.035.535-.196.604-.452.035-.124.021-.28.006-.418L11.475.64l-.319.035.12 1.087c.03.267.028.532-.348.573-.37.042-.428-.19-.46-.473L10.347.765l-.32.035.118 1.059c.02.186.047.417.174.569Zm2.113-1.218.78 1.41.294.023.152-1.896-.307-.024-.108 1.34-.785-1.412-.298-.024-.152 1.896.317.026.107-1.339Zm2.183-.254-.308-.069-.415 1.856.308.07.415-1.857Zm.724 2.21 1.322-1.542-.318-.116-.96 1.16-.003-1.512-.324-.118.024 2.034.259.094Zm1.959.994.144-.251-.907-.52.267-.466.83.476.145-.252-.83-.475.24-.421.88.504.15-.26-1.154-.662-.946 1.65 1.18.677Zm1.518-.859.261.221c.188.16.329.307.16.506-.132.157-.278.153-.472-.012l-.323-.274.374-.44Zm-1.044 1.232.491-.58.265.225c.04.035.148.126.178.188.056.118-.015.224-.09.336l-.036.054a.897.897 0 0 0-.14.318l-.004.021.313.266-.008-.088c-.011-.127.07-.26.15-.39.097-.158.197-.322.125-.481.167.042.344-.02.474-.172a.547.547 0 0 0 .144-.325c.016-.24-.13-.397-.288-.531l-.583-.494-1.23 1.45.239.203ZM19.9 5.942a.228.228 0 0 1-.223.045.444.444 0 0 1-.204-.147c-.18-.22-.176-.402.015-.594l.027-.027-.239-.221-.024.024c-.293.287-.297.637-.01.985.117.142.26.242.404.282a.52.52 0 0 0 .476-.107c.328-.27.188-.598.064-.889l-.029-.067c-.103-.245-.121-.3-.019-.385a.204.204 0 0 1 .2-.042.414.414 0 0 1 .182.134c.149.18.146.338-.008.495l-.025.026.226.216.025-.023a.61.61 0 0 0 .172-.27c.067-.198.008-.405-.18-.633-.186-.225-.51-.399-.814-.148-.2.165-.235.365-.111.649l.094.217c.072.166.154.354.001.48Zm.133 1.132 1.605-1.021-.17-.267-1.604 1.021.17.267Zm1.816-.041-1.445.704.14.286 1.444-.704.238.49.265-.13-.618-1.269-.265.13.24.493Zm-.898 2.014.093.3.73-.229 1.302.353-.112-.36-.922-.234.624-.717-.11-.355-.875 1.014-.73.228ZM2.202 11.803l.005.253c.004.284-.014.47-.29.475a.273.273 0 0 1-.235-.104c-.05-.072-.053-.215-.054-.269l-.006-.346.58-.01Zm-.861.391c.003.194.024.413.232.557a.6.6 0 0 0 .342.101h.012a.572.572 0 0 0 .42-.167c.103-.109.156-.268.153-.461l-.012-.742-1.885.03.005.316.726-.011.007.377Zm.963 1.211.061.334c.045.247.06.44-.195.487-.199.036-.308-.058-.354-.306l-.075-.412.563-.103Zm-.538.97c.102.137.276.201.472.165a.542.542 0 0 0 .314-.159c.162-.173.15-.385.113-.588l-.137-.745-1.854.34.056.306.74-.136.062.339c.01.051.035.188.02.255-.033.125-.154.162-.282.2l-.06.02a.89.89 0 0 0-.307.156l-.017.013.073.401.05-.072c.07-.105.217-.156.358-.205.174-.06.355-.123.4-.29Zm-.152 1.638c-.153-.396.129-.667.443-.79a.861.861 0 0 1 .31-.062.54.54 0 0 1 .523.363.527.527 0 0 1-.026.466.738.738 0 0 1-.38.306c-.32.123-.716.114-.87-.283Zm1.532-.602c-.19-.49-.692-.69-1.22-.486-.24.093-.431.251-.54.446-.124.222-.135.48-.032.745a.858.858 0 0 0 .502.52.89.89 0 0 0 .31.053c.134 0 .276-.028.416-.082.543-.21.764-.68.564-1.196Zm1.486 2.605-.628.468-.516-.691.628-.468-.185-.25-1.512 1.127.186.249.655-.488.515.692-.655.488.19.253 1.51-1.126-.188-.254Zm.358 2.366a.51.51 0 0 1-.47-.139c-.314-.285-.183-.654.044-.904a.73.73 0 0 1 .443-.254.519.519 0 0 1 .435.15c.293.267.202.63-.018.872a.857.857 0 0 1-.435.275Zm.662-.04c.391-.431.38-.95-.03-1.322-.39-.354-.929-.308-1.31.111a1.04 1.04 0 0 0-.283.64.857.857 0 0 0 .304.681.874.874 0 0 0 .682.24c.228-.025.454-.15.637-.35Zm2.02.141-1.177.93.239-1.482-.316-.185-.956 1.625.268.157.018-.031c.005-.008.402-.697.626-1.082L6.14 21.77l.202.118 1.069-.844c-.214.351-.426.703-.638 1.056l-.019.03.27.16.957-1.625-.31-.181Zm.601.267-.714 1.745.29.119.714-1.745-.29-.118Zm1.39 1.848-.511-1.496-.007-.018-.287-.076-.48 1.823.305.08.34-1.285.513 1.51.282.075.48-1.823-.295-.078-.34 1.288Zm1.919-.004c-.01.119-.025.254-.087.353-.069.108-.186.154-.358.14-.37-.028-.382-.263-.36-.545l.084-1.09-.318-.025-.08 1.052c-.015.185-.033.416.063.587.107.19.315.297.616.32a.763.763 0 0 0 .082.004c.277 0 .486-.116.59-.332.056-.115.072-.27.083-.407l.085-1.113-.317-.025-.083 1.08Zm2.099-1.216-.373 1.453-.707-1.324-.364.044.224 1.871.309-.037-.005-.036c0-.01-.102-.797-.158-1.239l.635 1.219.233-.028.338-1.319c.045.433.132 1.217.133 1.226l.004.036.311-.037-.223-1.871-.357.042Zm2.421.947-.27.11-.213-.523.336-.136c.185-.075.391-.135.489.106.098.242-.125.356-.342.443Zm-.766-1.113.338-.137a.567.567 0 0 1 .25-.055c.078.008.132.054.169.146a.211.211 0 0 1-.03.225c-.044.054-.208.12-.262.142l-.288.117-.177-.438Zm.984.25c.099-.118.116-.276.047-.446-.074-.185-.2-.284-.373-.296-.144-.01-.293.042-.42.093l-.636.258.707 1.747.59-.239c.214-.087.715-.29.506-.806-.08-.197-.23-.307-.42-.31Zm1.173.193-.276-.454.81-.492-.15-.246-.81.492-.249-.41.858-.521-.154-.255-1.126.684.979 1.611 1.152-.7-.15-.246-.884.537Zm1.082-2.78.876 1.003-1.544-.419-.224.195 1.24 1.42.239-.208-.875-1.001 1.539.42.22-.192-1.241-1.419-.23.201Zm1.852.355-.412-.335.598-.735-.223-.182-.598.735-.373-.303.634-.779-.231-.188-.831 1.022 1.462 1.19.85-1.046-.223-.182-.652.803Zm1.015-2.447-.247-.144-.422.723-.415-.242.463-.792-.255-.149-.622 1.065 1.627.95.16-.272-.712-.416.423-.723Zm-.789-.847 1.728.754.126-.287-1.728-.754-.126.287Zm1.933-1.739-.034-.017-.121.284.026.016c.222.14.313.361.245.593-.112.382-.484.42-.795.329-.156-.046-.654-.234-.512-.718.07-.236.252-.354.51-.335l.033.002.06-.31-.038-.005c-.405-.059-.72.154-.842.572-.08.268-.049.514.088.711.124.18.334.317.606.397.13.039.254.058.368.058.387 0 .671-.215.788-.614.122-.415-.024-.784-.382-.963Zm-1.226-.535 1.862.296.05-.31-1.863-.296-.049.31Zm1.768-1.374a.512.512 0 0 1-.216.429.83.83 0 0 1-.497.129.731.731 0 0 1-.482-.169.54.54 0 0 1-.171-.428.527.527 0 0 1 .203-.42.73.73 0 0 1 .468-.136c.343.008.705.17.695.595Zm-.7-.921c-.563 0-.933.346-.946.888a.848.848 0 0 0 .265.665c.169.156.409.246.675.252h.03c.47 0 .94-.269.955-.88a.858.858 0 0 0-.264-.672 1.032 1.032 0 0 0-.681-.253h-.035ZM10.543 18.28c-.023.12-.105.179-.249.179h-.012v.123h.229v.707h.16V18.27h-.126l-.002.01Zm.809.519c-.11 0-.189-.082-.189-.196 0-.129.074-.212.19-.212.115 0 .2.089.2.21a.19.19 0 0 1-.2.198Zm.24-.467a.349.349 0 0 0-.235-.084.337.337 0 0 0-.353.351c0 .205.133.343.331.343.103 0 .19-.04.25-.111-.007.102-.042.329-.234.329-.099 0-.161-.058-.17-.159l-.002-.012-.16.012.002.012c.016.176.135.285.31.285.152 0 .408-.07.408-.538 0-.202-.048-.342-.147-.428Zm.788.588h-.27l.278-.398-.008.398Zm.158-.651h-.124l-.47.637v.154h.436v.23h.158v-.23h.15v-.14h-.15v-.651Zm.73.888c-.118 0-.2-.086-.2-.21 0-.114.085-.198.201-.198.119 0 .19.077.19.204 0 .12-.079.204-.191.204Zm.02-.553a.314.314 0 0 0-.25.113c.016-.22.095-.332.235-.332.096 0 .165.064.17.159v.012l.156-.01-.001-.013c-.021-.179-.141-.286-.322-.286-.092 0-.395.038-.395.532 0 .335.136.519.384.519.21 0 .352-.14.352-.348 0-.2-.139-.346-.33-.346Zm-11.944-8.14a.288.288 0 1 0 .576 0 .288.288 0 0 0-.576 0Zm21.216 0a.287.287 0 0 0-.493-.207.289.289 0 0 0 .205.49.288.288 0 0 0 .288-.283Z"/>
    </g>
  </g>
  <defs>
    <clipPath id="a">
      <path fill="#fff" d="M0 0h24v24H0z"/>
    </clipPath>
  </defs>
</svg>
