<svg xmlns="http://www.w3.org/2000/svg" width="24" height="24" fill="none" viewBox="0 0 24 24">
  <g clip-path="url(#a)">
    <path fill="#00A051" d="M22.016 6.364v11.702L24 20.47V4l-1.984 2.364Z"/>
    <path fill="#F39800" d="m15.604 7.528 6.412-1.164L24 4 13.693 5.944l1.911 1.584Z"/>
    <path fill="#EA5504" d="M15.604 9.07V7.527l-1.91-1.584V9.07h1.91Z"/>
    <path fill="#231815" d="M0 9.762h1.48v2.056h.016l1.671-2.056H4.95l-2.053 2.345 2.212 2.69H3.223L1.496 12.51H1.48v2.287H0V9.761Zm8.858-.086c-2.037 0-3.51.728-3.51 2.625 0 1.904 1.712 2.582 3.192 2.582a8.984 8.984 0 0 0 2.149-.23V12.07H9.256v1.732c-.168.062-.346.09-.525.086-1.082 0-1.854-.598-1.854-1.586 0-1.176.986-1.63 2.188-1.63a3.76 3.76 0 0 1 1.624.408V9.952a6.76 6.76 0 0 0-1.83-.276Zm8.228 3.21c0 1.377-.987 1.998-2.436 1.998-1.449 0-2.435-.62-2.435-1.998V9.763h1.48v2.9c0 .663.2 1.226.955 1.226.756 0 .955-.562.955-1.226v-2.9h1.481v3.123Z"/>
    <path fill="#004EA2" d="m22.016 18.066-6.412-1.123v-1.358h-1.91v2.942L24 20.47l-1.984-2.404Z"/>
  </g>
  <defs>
    <clipPath id="a">
      <path fill="#fff" d="M0 0h24v24H0z"/>
    </clipPath>
  </defs>
</svg>
