<svg xmlns="http://www.w3.org/2000/svg" width="24" height="24" fill="none" viewBox="0 0 24 24">
  <path fill="#8B0029" d="M20.843 12.983V0H3v12.99c-.002.19-.013 4.754 3.237 7.46l-.007-.006c.102.09 2.533 2.222 5.554 3.523l.06.025h.162l.062-.03c2.907-1.348 5.558-3.488 5.586-3.51 3.253-2.71 3.193-7.275 3.19-7.469Z"/>
  <path fill="#D6CABC" d="M3.656.662v.126h16.572V.662H3.656Zm0 3.548v.126h16.572V4.21H3.656Zm-.038 2.118v.126h16.573v-.126H3.618Zm3.127-2.66c-.089-.068-.173-.132-.354-.322l-.883-.977.891-1.09.05-.052h-.434l-.967 1.196V1.226H4.61v2.528h.438V2.46l1.01 1.124c.084.112.235.17.445.17h.362l-.087-.062-.033-.025Zm2.072-2.516a1.364 1.364 0 0 0-.985.385 1.262 1.262 0 0 0-.405.94c0 .385.135.71.401.962.259.249.579.374.953.374s.698-.13.964-.387a1.3 1.3 0 0 0 .4-.968 1.25 1.25 0 0 0-.371-.909 1.304 1.304 0 0 0-.957-.397ZM8.8 3.483a.81.81 0 0 1-.659-.328 1.107 1.107 0 0 1-.245-.712c0-.28.083-.513.246-.692a.842.842 0 0 1 .65-.269c.265 0 .484.109.653.324.155.2.234.444.234.727 0 .275-.08.505-.237.681a.834.834 0 0 1-.642.27Zm6.132-.938h.813v-.33h-.813V1.56c.178-.004.994 0 1.004 0h.027v-.34H14.49v.027l.002 2.507h1.623l.005-.356h-1.19v-.853Zm3.534-1.326h-.405l-1.034 2.535h.391l.348-.93h.913l.354.93h.485L18.484 1.22h-.019Zm.072 1.27h-.65l.329-.833.32.833Zm-5.572.692-.526-.657c.087-.032.24-.1.355-.222a.634.634 0 0 0 .192-.448.564.564 0 0 0-.21-.454c-.145-.12-.345-.18-.597-.18h-.841v2.534h.451v-.039a4.69 4.69 0 0 1-.012-.516V1.536c.413-.004.578.048.642.093.086.062.128.15.128.272-.002.28-.207.447-.627.51l-.048.007.889 1.137c.105.133.259.199.458.199h.361l-.074-.051a2.57 2.57 0 0 1-.54-.522Zm-1.592 2.223h.388v-.158h-.388v-.312c.084-.002.473 0 .478 0h.013v-.162h-.701V5.98h.772l.005-.17h-.567v-.406Zm-5.77-.631h-.145v.744c0 .222-.05.343-.324.343h-.032c-.181 0-.273-.116-.273-.343l.001-.744h-.21v.745c0 .09.003.152.01.19a.352.352 0 0 0 .085.174c.079.085.192.13.336.13h.135a.435.435 0 0 0 .336-.13.352.352 0 0 0 .084-.175c.007-.037.01-.099.01-.19v-.744h-.013Zm1.82 0v.013l-.002.874-.699-.887h-.181v1.21H6.7v-.905l.71.904h.173v-1.21h-.159Zm1.05 0v1.21h.209v-1.21h-.208Zm7.565 1.21h.208v-1.21h-.21v.944l.002.265Zm-5.745-1.21-.346.948-.34-.948H9.37l.45 1.21h.19l.467-1.21h-.184Zm4.722.596-.163-.08-.139-.068c-.102-.053-.153-.111-.153-.173 0-.051.024-.089.071-.115a.287.287 0 0 1 .153-.03.505.505 0 0 1 .27.08l.022.016v-.215l-.009-.002a.92.92 0 0 0-.272-.04.616.616 0 0 0-.314.073.276.276 0 0 0-.151.252c0 .112.056.205.167.277l.06.03.24.118c.102.053.154.115.154.185 0 .053-.027.095-.084.129a.297.297 0 0 1-.16.045.73.73 0 0 1-.363-.098l-.023-.014.031.212.008.002a.937.937 0 0 0 .326.055.583.583 0 0 0 .366-.11.336.336 0 0 0 .13-.275c0-.098-.057-.183-.168-.254Zm2.023-.6v.158h.337V5.98h.208V4.928h.346v-.16h-.89Zm2.253 0-.329.51-.324-.51h-.241l.435.683-.001.527h.209v-.526l.454-.683h-.203Zm-5.785.938-.25-.314a.448.448 0 0 0 .169-.105.305.305 0 0 0 .09-.214.268.268 0 0 0-.1-.217.435.435 0 0 0-.283-.085h-.401V5.98h.215v-.02c-.006-.04-.006-.098-.006-.245v-.793c.196-.002.275.023.306.045.041.03.061.071.06.13 0 .133-.098.213-.298.243l-.022.003.423.541c.05.063.122.096.217.096h.174l-.037-.026a1.216 1.216 0 0 1-.257-.247Zm6.716 7.282v.029c0 .383-.069 4.545-2.963 6.954-.023.019-2.548 2.057-5.34 3.375C9.042 22.081 6.665 20 6.641 19.978l-.007-.006c-2.979-2.48-3.013-6.816-3.013-6.975V7.128h16.601v5.861Z"/>
  <path fill="#8B0029" d="M10.525 21.269h.228c.031 0 .02-.029.02-.029a2.101 2.101 0 0 1-.027-.826s.009-.028-.024-.028h-.225c-.03 0-.019.023-.019.023.076.315.047.714.027.83 0 0-.014.03.02.03Zm.844-.909c-.362.035-.34.46-.34.46.022.386.421.459.421.459a.668.668 0 0 1-.4.383c-.069.026-.019.046-.019.046.087.029.214-.022.214-.022.533-.239.547-.798.547-.798.011-.57-.423-.528-.423-.528Zm.13.784c-.174.005-.215-.266-.215-.266-.045-.297.07-.314.07-.314.122-.038.176.215.176.215.06.291-.03.364-.03.364Zm1.215-.44s-.048-.352-.38-.349c0 0-.326-.008-.341.446 0 0-.013.48.4.458 0 0 .406-.025.321-.554Zm-.315.404c-.156.057-.173-.263-.173-.263-.017-.306.107-.336.107-.336.126-.031.162.194.162.194.056.347-.096.405-.096.405Zm.413.274c.35.069.442-.179.442-.179.112-.351-.328-.368-.328-.368l.07-.453s.442.02.56-.038c0 0 .027-.018.012.048 0 0-.025.15-.168.162l-.217.018-.02.127s.374-.008.367.397c0 0-.014.313-.38.39 0 0-.171.037-.369-.043 0 0-.03-.015-.014-.039 0 0 .014-.028.045-.022Zm-1.29-8.477c.027-.033.063-.01.093 0 .028.008.029.063.045.092.009.02.063.075.069.092.044.203 0 .47-.092.625-.026.047-.068.072-.098.074-.038.003-.05-.053-.064-.074-.059-.082-.014-.277 0-.368.015-.117-.076-.306-.018-.392l.064-.049Zm-2.77.215c.05-.015.121.01.151 0l.067-.027c.077-.05.153-.035.231-.027.04.004.154.054.193.055.062.008.353.04.662.084-.002-.001.166-.022.123-.069.027.03-.004-.025-.068-.047l-.021-.023c.002-.003-.054-.047.046-.08-.038.01.066-.016.086-.037.04-.044-.02-.09-.02-.09-.146-.05-.31.045-.53.022-.108-.01-.262-.071-.415-.046-.166.03-.41.123-.527.214 0 0-.055.097.023.071Zm1.853-1.2c.15-.008.157.147.16.13-.017.111-.289.121-.353.208-.19.247-.111.484-.56.509 0 0-.09-.02-.056-.058.028-.03.137-.059.177-.083.058-.034.054-.127.092-.185.008-.014.059-.032.071-.044.126-.17.14-.343.363-.444a.954.954 0 0 1 .106-.032Z"/>
  <path fill="#8B0029" d="M12.043 11.255c.052-.03.102 0 .136.03.02.014.184.408.191.447.021.143.038.473-.001.58-.056.147-.192.26-.163.523.016.154.084.274.15.408.007.022.075.153.078.18.025.141-.052.323-.064.437-.034.285.08.543.034.814a.434.434 0 0 1-.12.248l-.052.043c-.014.028-.04.038-.065.058l-.031.031c-.049.012-.053.04-.073.042-.122.027-.146-.044-.139-.027-.123-.348.084-.754-.022-1.09-.024-.077-.115-.154-.128-.236-.042-.3.24-.46.236-.662 0-.144-.19-.331-.233-.473-.054-.167-.09-.486-.016-.694.017-.05.082-.136.1-.203.035-.13.088-.236.107-.323a.429.429 0 0 1 .037-.09.232.232 0 0 1 .038-.043Zm3.59-.718c.203-.024.294.056.2.23l-.04.037c-.017.006-.07.077-.082.087-.098.072-.19.117-.266.209-.026.03-.046.109-.078.135a1.41 1.41 0 0 1-.295.132c-.246.039-.58-.207-.617-.349-.032-.121 0-.24.053-.267.083-.042.301-.02.376-.028.19-.014.309-.004.454-.054.088-.029.189-.12.295-.132Zm-1.048-.082s.115.048.218.023c.073-.018.209-.08.277-.092.041-.01.1.01.14 0 .112-.035.319-.254.071-.278-.09-.008-.358.093-.441.116a.836.836 0 0 0-.205.072c-.019.01-.115.09-.103.076 0 0-.064.053.043.083Zm-1.77.415c-.072-.01-.072-.131-.254-.092-.127.027-.162.213-.347.208l-.091-.044c-.08-.02-.139.008-.209-.026-.326-.153.252-.934.44-.923.01 0 .105.035.117.045.058.05.058.269.113.348.041.055.107.05.163.092a.66.66 0 0 1 .184.279s.03.133-.116.113Zm3.007 6.312c.004-.005.004-.005 0 0Zm0 0v.001Zm2.594-6.869v.005h.001l-.001-.005Zm-2.918-.22.006-.012-.006.012Zm-1.405 3.946-.004-.001c.004.003.005.003.004 0Zm-2.68-3.111c-.125.07-.4.179-.458.301-.032.064-.032.12-.058.197-.003.008-.037.022-.048.045-.134 0-.252-.008-.369.023-.09.026-.222.122-.323.14-.205.035-.362-.056-.554-.024-.086.015-.141.104-.212.14-.06.028-.084.028-.131.071l-.043.05a.695.695 0 0 1-.041.087.456.456 0 0 0-.069.194c-.01.066-.048.224-.082.29-.017.03-.104.102-.116.13-.007.02-.027.04 0 .07-.03-.033-.024.032.142.04.183.004.582-.118.582-.118l.191-.103c.037-.029.186-.141.219-.18.14-.173.512-.803.802-.638l.052.037c.07.117-.018.449-.07.525l-.065.079c-.052.016-.088.15-.096.213-.012.1.017.19.024.245.015.12.027.27-.046.418-.017.029-.058.08-.047.16.014.091.143.158.161.233.011.037.044.043 0 .116-.024.038-.13.104-.161.138-.042.043-.005.11.022.136.08.072.146.08.208.164.089.113.084.212.279.231.152.014.369.023.277-.186l-.046-.077c-.054-.136-.15-.257-.162-.406-.018-.19.134-.286.07-.439-.05-.117-.282-.104-.3-.257-.01-.085.076-.266.092-.347.018-.111-.012-.181.024-.277.023-.068.125-.145.136-.23.021-.152-.096-.248-.045-.415.025-.087.16-.077.21-.14.063-.086.028-.204.067-.324.004-.014.037-.086.044-.099-.004-.005.026-.155.026-.155-.02-.093-.078-.055-.085-.058Zm-1.463 1.22c-.13.03-.141-.246-.453-.139a.695.695 0 0 0-.11.1c-.037.082-.017.292-.058.312 0 0-.121.03-.098-.123.038-.244.084-.289.207-.391a.327.327 0 0 1 .086-.053c.147-.034.418.022.467.097.042.062-.047.199-.041.197Z"/>
  <path fill="#8B0029" d="M18.416 10.318c-.021-.113-.328-.105-.452-.256-.046-.06-.012-.093 0-.139.035-.131.316-.053.381-.17.027-.05.036-.194.018-.214-.175-.216-.546-.113-.809-.218-.126-.052-.283-.157-.416-.206-.166-.064-.295-.074-.462-.14-.038-.016-.112-.07-.151-.087-.186-.074-.333-.089-.517-.168-.023-.008-.079-.04-.103-.05-.074-.032-.097-.036-.176-.065a2.621 2.621 0 0 0-1.064-.169c-.181.01-.39-.024-.67.056-.097.024-.232.108-.323.137-.064.019-.119.03-.177.055-.08.033-.151.08-.262.106-.318.071-.742-.007-1.064.047-.279.045-.44.22-.67.3-.07.023-.099.016-.168.041-.04.014-.135.039-.167.057-.096.05-.158.064-.266.11-.054.024-.119.074-.171.098-.078.038-.082.05-.147.096l-.052.038s-.113.098-.127.116c-.044.047-.088.112-.126.16a2.899 2.899 0 0 1-.44.415c-.054.039-.091.03-.138.072-.055.042-.104.086-.156.127-.121.086-.243.144-.376.217l-.086.057c-.113.075-.108.104-.225.178-.077.053-.11.131-.18.19-.047.037-.1.15-.131.198-.146.213-.2.526-.304.79-.03.075-.283.438-.346.462l-.046.044c-.036.03-.036.039-.069.07-.074.067-.15.105-.207.186-.047.063-.075.137-.118.207-.066.109-.175.229-.23.347-.022.044-.038.088-.054.13-.006.006-.01.014-.011.014-.029.036-.078.184-.078.184-.05.12-.173.187-.334.417-.189.013-.839-.152-1.28-.361.098.11.594.444 1.175.507-.038.057-.042.115-.111.133-.233.058-.637-.07-1.18-.26.032.077.51.357 1.216.4-.105.123-1.074.092-1.833-.114-.029.079.948.296 1.485.289-.092.047-.333.102-.489.157-.244-.027-.585-.07-.652-.094.016.05.258.115.458.161-.193.07-.478.11-.589.132.081.02.39-.029.716-.107.284.055.72.112.96.1-.06.03-.285.176-.464.28-.455.043-.951.081-1.058.095.06.009.46.015.886.004-.26.152-.538.311-.671.372.197-.05.55-.185.91-.379.358-.013.694-.042.833-.092-.048.104-.337.603-.606.72.116-.02.49-.125.716-.69a.82.82 0 0 0 .278.06c.059.09.2.32.467.334.054.155.55.962 1.245.648-.201-.11-.323-.223-.422-.545.309-.02 1.126.429 1.372 1.397-.194-.065-.436-.177-.461-.274-.053.224-.088.513.407 1.012.01.106.008.235.03.355.082.085.177.15.264.223.006.14-.013.334.356.442.125.104.528.214.587.284.12.038.299.046.429.038 0 0 .175-.03.222-.096.087-.005.206-.008.741-.578.113-.135 0-.872.027-1.051.052-.13.076-.25.148-.41 0 0 .072-.158.209-.222.009-.004.017-.004.028-.007.309-.07.71.219.9.3.07.028.106.013.161.046.028.015.066.078.094.094.068.038.133.027.21.068.11.061.334.386.53.348.06-.014.108-.153.16-.187.092-.056.22-.05.301-.114.093-.073.055-.156.07-.255 0-.005.042-.052.046-.071.046-.005.146 0 .21-.02.007-.004.034-.035.045-.047.04-.041.01-.085 0-.12-.014-.036-.109-.08-.138-.112-.07-.07-.188-.17-.233-.254-.02-.042.006-.051-.024-.095-.03-.048-.11-.098-.136-.16-.089-.198-.053-.64-.092-.702-.037-.06-.082-.052-.118-.107-.077-.122.017-.514.024-.67.007-.125-.115-.047-.115-.047-.101.25-.09.36-.116.717-.003.031-.046.222-.046.255-.002.125.071.336.022.486-.016.048-.117.142-.254.138-.052 0-.31-.067-.37-.092-.01-.006-.065-.068-.07-.07-.128-.102-.155-.007-.16.044-.005.054.017.064.027.094.005.03.057.14.052.15-.002.01-.047.132-.287-.01-.181-.11-.36-.411-.37-.463a.349.349 0 0 1 .033-.243c.09-.082.198.031.288.08.023.012.079.051.106.057.053.008.138-.01.15-.01.351-.02.715.107.777-.13.039-.147-.107-.227-.132-.288-.033-.075-.016-.08-.035-.162a.691.691 0 0 0-.033-.067c-.036-.062-.01-.115-.046-.184-.036-.075-.14-.121-.184-.186-.06-.085-.06-.192-.14-.254-.118-.097-.592-.238-.647-.348-.09-.175.021-.496-.023-.715a.47.47 0 0 0-.144-.278.127.127 0 0 1-.033-.12c.02-.076.06-.055.084-.228.015-.094-.008-.2 0-.3 0-.015.046-.166.049-.184a2.04 2.04 0 0 0-.07-.715c-.027-.09-.111-.17-.14-.256-.024-.072.006-.114-.024-.186-.022-.063-.103-.107-.136-.16-.062-.091-.044-.248-.14-.3-.07-.04-.095.015-.09 0a.42.42 0 0 0 .022.276c.017.047.103.116.117.163.018.085-.014.188 0 .277l.045.093c.035.232-.091.54-.185.67-.066.085-.264.195-.277.323-.01.08.023.083.043.116.03.043.125.098.14.138.01.03.023.024.035.054l.011.063c.016.162-.194.199-.092.393.029.055.128.055.184.09.105.067.304.255.323.415.009.07 0 .443-.02.487-.049.103-.309.143-.28.347.034.223.62.16.785.277.079.054.095.173.118.28.014.057-.044.076-.07.09-.061.036-.106.008-.185.024-.19.04-.495.125-.575.278-.1.177.018.42-.024.622-.043.184-.18.408-.28.557-.061.09-.14.18-.168.307-.068.272-.02.594-.04.915l-.004.002s.012.166-.1.287c-.127.14-.567.55-.88.55-.115-.003-.163-.041-.289-.132a.646.646 0 0 1-.368-.162c-.033-.059-.378-.408-.161-.508.203-.094.533.11.686.21.062 0 .508.022.982-.599-.023-.325-.05-.742-.085-.817-.05-.16-.318-.441-.376-.61-.036-.137-.1-.405-.058-.591-.018-.208-.15-.253-.204-.422a.4.4 0 0 0-.042-.088c-.016-.06-.028-.115-.065-.17-.082-.127-.162-.154-.238-.277-.078-.127-.064-.286-.185-.37-.067-.044-.156-.048-.23-.091-.055-.033-.123-.111-.185-.14l-.168-.074-.133-.063c-.033-.02-.065-.003-.093-.025-.089-.076-.025-.144-.069-.275-.004-.017-.039-.017-.047-.047-.037-.01-.102-.069-.152-.034-.069.051-.089.037-.131.142-.025.07-.072.275-.12.325-.04.05-.093.119-.16.165-.06.032-.114.028-.114.028l-.173.025-.086.133s-.094-.013-.144-.013c-.014.032-.128.12-.164.15-.146.086-.236.026-.246-.006-.007-.027-.054-.085.045-.144.34-.095.755-.549.79-.647-.044.066-.745.454-.875.506.14-.331.999-.815 1.051-.872-.22.033-.952.475-1.079.67-.122.198-.265.143-.4.137-.13-.004-.12.137-.126.223-.002.085-.067.256-.012.287.09.077.326-.236.402-.068.041.189-.445.18-.441.332-.023.08.449.107.535.193-.151.11-.523.146-.633.152a.779.779 0 0 1-.167-.003c-.061-.01-.142-.067-.212-.182-.135-.244.092-.412.096-.475.005-.065-.026-.03-.03-.133-.004-.103.112-.12.14-.141.034-.023-.008-.052 0-.151.06-.225.427-.484.333-.556-.085-.045-.263.15-.332.24-.252.325-.546.223-.646.227-.222.012-.183-.231-.028-.214.18-.037.166-.285.294-.26.04.181-.16.207-.066.247.128.05.14-.117.18-.187.039-.072.22-.226.199-.265-.052-.018-.185.077-.246.124-.146-.366.223-.644.24-.752.122-.191.798-.436.811-.726l.019-.015s.012-.008.033.025h.001l.013.056c.002.024 0 .045 0 .045l.002-.028c.005.046.003.085.005.075v.044c.007.026.04.04.046.042a.158.158 0 0 0 .087-.054c.005-.006.044-.043.044-.053.065-.047.077-.054.123-.119.116-.169-.108-.417-.046-.645.043-.152.184-.33.184-.33.039-.087-.022-.087-.022-.087-.09-.016-.151.08-.138.067-.114.108-.149.16-.232.304 0 0-.07.063-.09-.024-.04-.143.122-.424.173-.46.095-.066.192-.094.311-.142.06-.025.149-.122.209-.138.029-.01.06-.016.091 0 0 0 .045.033.024.138 0 0-.045.125-.03.171.01.031.006.06.077.06.166.004.537-.035.645-.093.025-.01.05-.046.071-.068.035-.035.026-.086 0-.091l-.07-.024c.054-.008-.314-.01-.255-.021-.064.01.087-.172.07-.258-.008-.04-.08-.058-.093-.09-.007-.021-.046-.052 0-.07l.053-.023c.018-.013.037-.035.063-.046.116-.054.325-.028.416 0 .01.005.159.046.208.185.013.04.024.082.046.116.07.096.274.13.393.017a.49.49 0 0 0 .07-.108c.119-.273-.057-.458-.279-.533-.089-.032-.234-.041-.346-.07-.08-.022-.032-.089-.009-.109l.034-.03c.044-.065.181-.122.231-.138.123-.046.243-.092.416-.022.026.009.093.062.113.067.131.033.18.043.303-.02.048-.024.041-.03.045-.045.044-.124-.042-.206-.04-.193-.025-.167.45.039.524-.066.07-.095.025-.277.117-.346.01-.006.064-.044.069-.046.088-.018.166.019.236.046l.075.036c.15.062.28.095.361.218.051.08.041.197.091.279.021.034.07.057.096.092.021.025.063.042.09.058.043.027.06.038.115.055.04.017.1.079.14.095.14.057.31.049.462.045.09-.003.144.05.23.024.044-.015.031-.093.004-.126-.056-.07-.098-.054-.189-.106-.036-.022-.08-.093-.116-.114-.105-.069-.258-.078-.322-.186a.232.232 0 0 1-.023-.067l-.025-.05c-.128-.258-.169-.412-.046-.46.076-.03.243-.013.325-.047.02-.01.054-.062.069-.07.183-.087.528-.188.717-.091.057.026 0 .173.021.23a.189.189 0 0 0 .103.083c.397.106.793.089 1.085.226.173.082.306.21.463.346.134.12-.026.254.113.295-.095.012-.175.023-.191-.027a.325.325 0 0 0-.047-.068c-.104-.098-.224-.25-.368-.3-.075-.027-.108-.003-.186-.024l-.094-.031c-.1-.029-.107-.019-.206-.04-.043-.008-.143-.061-.186-.066-.196-.03-.306.05-.486 0-.082-.024-.189-.156-.256-.191-.083-.047-.16-.064-.253-.094-.037-.01-.056-.01-.085.005-.05.03-.034.075-.007.113.015.02.028.055.046.066.065.047.196.047.231.116.103.202-.047.272-.069.332-.01.037-.04.065 0 .114a.288.288 0 0 0 .094.068c.093.041.167.025.255.07.062.034.127.146.207.164.185.04.23-.097.323-.118.134-.03.217.041.37 0 .051-.013.08-.074.115-.09.089-.048.177-.054.232-.026 0 0 .06.03-.024.07-.047.027-.088.027-.138.052a.236.236 0 0 0-.068.073.312.312 0 0 0-.026.084c.015.026.035.04.047.047.161.056.326-.049.464-.07.102-.016.388 0 .47.063 0 0 .077.016.028.154-.031.084-.163.144-.212.215-.03.04-.062.116-.092.155-.048.063-.057.06-.106.12l-.034.048c-.02.06-.255.26-.3.326-.026.04-.039.082-.067.125-.042.06-.073.07-.095.107-.067.097-.2.295-.31.345-.049.02-.117-.002-.186-.016-.046-.012-.097-.098-.137-.116-.162-.074-.341-.053-.484-.139-.071-.042-.137-.167-.188-.231-.033-.044-.064-.12-.115-.14-.083-.029-.283-.002-.322.07-.077.145.122.518.139.671.012.13-.048.19 0 .3.022.055.109.07.137.115.126.197.017.476.046.74.012.082.06.183.046.302-.02.184-.257.343-.16.623.003.012.048.044.05.047.038.018.096.01.135 0 .077-.027.151-.181.232-.231a.088.088 0 0 1 .049-.023c.008-.016.03-.017.043-.023.034-.026.047-.026.068-.07.033-.074.021-.149.046-.255.024-.088.106-.246.117-.348.028-.282-.177-.835-.03-.927.056-.035.112-.102.21-.116.042-.01.182.032.242.03a.01.01 0 0 1-.002.003c-.075.177.202.64.18.894-.053.622-.46.965-.81 1.297-.04.04-.006.084.024.115.07.066.238.037.326.023.126-.026.183-.083.276-.115.035-.014.077.008.115 0 .096-.026.177-.155.231-.234 0 0 .114-.121.137.04l.003.008c0 .15-.026.315 0 .462.027.173.344.694.508.718.385.056-.009-.428-.024-.463a1.585 1.585 0 0 1-.116-.6c.002-.071.061-.214.07-.28.003-.033-.014-.11 0-.136.03-.062.233-.082.278-.163.011-.023-.006-.065 0-.091a.514.514 0 0 1 .093-.207c.027-.035.067-.054.115 0 .04.044.05.147.116.222l.057.062c.068.044.179-.014.15-.008.071-.02.063-.092.093-.117a.552.552 0 0 1 .045-.022c.167-.172-.204-.327-.208-.487-.004-.177.04-.381-.022-.577-.015-.049-.106-.118-.116-.162-.025-.111.033-.229.046-.3.026-.147-.025-.374.024-.44.027-.036.072-.062.161-.046.059.01.098.106.139.139.151.121.327.19.579.16.03 0 .057-.048.062-.06a.164.164 0 0 0-.017-.147c-.09-.122-.442-.214-.461-.275-.014-.046-.07-.106-.009-.137-.033.02.217-.007.308-.026.117-.026.126-.143.207-.184.116-.06.285-.008.349-.115.038-.07.008-.17.045-.233.046-.082.183-.098.254-.163.02-.02.011-.09.006-.113Zm-9.292 5.405c-.045-.05-.007-.148.077-.19.154-.073.218.012.252.052.15.233.344.534.488.653-.133.014-.63-.138-.817-.515Zm1.272 2.338c-.08 0-.595-.433-.518-.702.153.112.495.352.538.347.046.027.082.325-.02.355Zm.598.002c-.067-.06-.566-.586-.441-.83.137.136.518.487.654.521.038.1.033.376-.213.309Zm.054-2.013c.087.131.207.207.2.49-.007.068.015.082.072.077.053-.015.024-.34.182-.32.134.02.043.207.11.416.024.075.175.343.135.802-.004.119-.23.273-.358.183-.106-.064-.106-.143-.167-.628-.025-.287-.375-.385-.523-.516-.148-.11-.064-.163-.09-.362-.086-.288-.422-.422-.31-.614.036-.048.07-.093.176-.053.005.143.346.253.573.525Zm-2.382-.908c-.009.005-.01.006.003 0h-.003c.034-.015.184-.085.223-.1.158-.055.242.03.387-.052.034-.02.073-.076.105-.102.027-.025.077-.022.11-.045.08-.054.23-.227.333-.245.06-.011.06.004.09.007 0 .006.044-.009.033.08-.028.17.374-.002.639.06.18.044.354.105.308.22.006-.012-.053.036-.067.044-.123.09-.22-.008-.282-.017-.108-.013-.185.02-.296.006l-.132-.044c-.084-.004-.205.04-.27.044-.12.01-.18-.033-.289-.022-.053.006-.139.076-.177.09-.036.013-.077.025-.112.036-.024.006-.084.04-.112.052-.11.054-.176.054-.312.09l-.079.021c-.17.023-.153-.093-.1-.123Zm-.412.66c.182-.042.236.004.323.212.064.122.2.284.252.361-.21.025-.543-.262-.637-.418-.059-.077.031-.138.062-.155Zm-2.316-.867c.24-.067.451-.136.54-.187l.095-.004a.634.634 0 0 0 .076.192l.025.037a9.763 9.763 0 0 1-.736-.038Zm.5.419c.12-.073.238-.152.351-.236.051.06.107.115.169.168a4.985 4.985 0 0 1-.52.068Z"/>
  <path fill="#8B0029" d="M8.666 15.142h.003c-.013.006-.012.005-.003 0Z"/>
</svg>
