<svg xmlns="http://www.w3.org/2000/svg" width="24" height="24" fill="none" viewBox="0 0 24 24">
  <g clip-path="url(#a)">
    <path fill="#fff" d="M11.997.27C5.531.27.27 5.532.27 12c0 6.468 5.26 11.728 11.727 11.728 6.47 0 11.732-5.26 11.732-11.727C23.73 5.532 18.466.27 11.997.27Zm0 .372c6.265 0 11.361 5.096 11.361 11.359 0 6.262-5.096 11.356-11.36 11.356-6.262 0-11.356-5.094-11.356-11.356C.642 5.738 5.736.642 11.997.642Zm0 .102C5.792.744.743 5.794.743 12s5.05 11.255 11.254 11.255c6.21 0 11.26-5.05 11.26-11.255 0-6.207-5.05-11.257-11.26-11.257Zm.56.597c.006 0 .008.008.008.018 0 .014-.01.038-.018.093-.002.02-.007.109-.012.133-.002.01-.007.022-.015.022-.012 0-.015-.01-.015-.027a.21.21 0 0 0-.01-.072c-.014-.033-.034-.057-.142-.071a6.521 6.521 0 0 0-.274-.01c-.008-.001-.012.005-.012.02l-.01.552c0 .014.001.02.011.02.027 0 .273.005.32.002.047-.003.075-.007.094-.027.014-.015.022-.025.03-.025.006 0 .01.004.01.016s-.011.046-.018.112a2.75 2.75 0 0 0-.01.128c0 .016 0 .038-.015.038-.01 0-.014-.008-.014-.018 0-.02 0-.04-.007-.067-.007-.028-.024-.062-.103-.071a5.188 5.188 0 0 0-.286-.016c-.01 0-.014.006-.014.014l-.003.177c-.001.067-.007.3-.006.342.003.138.033.165.23.168.052.001.14.003.192-.018.052-.021.077-.061.092-.143.005-.022.009-.03.019-.03.012 0 .012.016.012.03 0 .017-.019.153-.03.195-.015.051-.031.05-.109.05-.302-.006-.437-.02-.495-.021-.01 0-.136.004-.196.002-.022 0-.031-.004-.031-.016 0-.006.003-.012.016-.012a.323.323 0 0 0 .06-.007c.04-.007.05-.05.06-.109.011-.084.014-.242.018-.434l.006-.353c.005-.313.006-.369.004-.433-.003-.068-.019-.1-.085-.116a.393.393 0 0 0-.068-.007c-.007 0-.015-.004-.015-.012 0-.012.01-.016.032-.015.09.001.216.01.226.01.014 0 .413.007.459.006a.548.548 0 0 0 .086-.009c.01-.002.018-.01.028-.01Zm-1.385.008c.013 0 .02.003.022.01.001.01-.007.016-.022.018a.18.18 0 0 0-.091.038c-.024.022-.048.06-.082.203l-.141.57c-.078.307-.135.535-.166.638-.038.128-.041.16-.062.163-.023.004-.037-.022-.089-.112l-.667-1.142c-.06-.104-.093-.122-.165-.131a.31.31 0 0 0-.077.003c-.011.002-.016-.004-.018-.012-.001-.011.018-.016.05-.02.095-.015.209-.026.233-.03.02-.003.108-.022.183-.033.035-.006.054-.004.055.006.002.01-.003.014-.017.017a.24.24 0 0 0-.074.02c-.02.014-.022.03-.02.044a.739.739 0 0 0 .078.157l.532.957c.075-.282.238-1.014.26-1.163a.316.316 0 0 0 .007-.078.053.053 0 0 0-.033-.042.254.254 0 0 0-.077.004c-.012.002-.022.001-.023-.009-.002-.011.01-.017.041-.022.08-.012.171-.02.195-.023.012-.002.097-.02.154-.03h.014Zm2.201.079a.12.12 0 0 1 .015.001c.088.017.211.046.221.048.022.004.173.026.234.037.124.023.254.06.344.154a.35.35 0 0 1 .086.293c-.027.146-.116.28-.323.41.123.238.224.438.315.581.085.133.167.17.214.187a.45.45 0 0 0 .076.02c.01.002.017.01.015.015-.002.012-.015.014-.05.007l-.14-.026c-.11-.02-.158-.04-.203-.076-.077-.062-.128-.171-.213-.34-.062-.123-.13-.273-.16-.331-.006-.01-.011-.015-.023-.017l-.241-.05c-.01 0-.015.004-.017.014l-.009.047c-.035.19-.064.345-.07.43-.005.058 0 .104.057.122a.64.64 0 0 0 .087.025c.012.002.014.009.013.015-.002.01-.012.013-.034.01-.109-.02-.231-.05-.241-.052-.003 0-.127-.017-.186-.028-.022-.005-.031-.01-.03-.022.002-.006.007-.011.02-.009a.315.315 0 0 0 .06.003c.04 0 .058-.042.077-.098.025-.08.054-.236.09-.425l.064-.346a7.48 7.48 0 0 0 .075-.427c.009-.067 0-.102-.063-.128a.368.368 0 0 0-.066-.018c-.008-.002-.015-.007-.014-.015.002-.009.008-.012.02-.011Zm.336.134a.16.16 0 0 0-.022 0 .024.024 0 0 0-.02.021l-.12.644c-.002.01 0 .019.009.026a.54.54 0 0 0 .2.07.257.257 0 0 0 .155-.01c.078-.034.15-.13.178-.28.045-.246-.057-.418-.268-.458a.77.77 0 0 0-.112-.013Zm-4.634.189a.013.013 0 0 1 .011.01c.002.007-.004.014-.012.016-.013.004-.023.01-.046.02-.048.026-.054.063-.037.131.015.063.031.116.123.415l.104.337c.056.184.102.335.137.413.022.054.047.092.107.082a.85.85 0 0 0 .088-.018c.012-.004.017 0 .02.006.002.01-.006.019-.027.025-.105.032-.228.064-.237.067-.01.002-.129.045-.186.063-.021.006-.032.006-.036-.006-.001-.006 0-.013.012-.016a.327.327 0 0 0 .056-.025c.035-.02.032-.065.023-.123a4.857 4.857 0 0 0-.118-.419l-.103-.337a8.857 8.857 0 0 0-.131-.412c-.024-.064-.053-.09-.099-.087a.257.257 0 0 0-.061.01c-.008.002-.017.001-.019-.006-.004-.012.004-.02.026-.025.063-.02.186-.05.195-.054.01-.003.128-.046.186-.063a.058.058 0 0 1 .024-.004Zm6.414.194a.54.54 0 0 1 .171.034.786.786 0 0 1 .169.082c.033.02.047.028.062.033.015.005.018.01.014.02-.003.01-.033.069-.079.197-.011.03-.02.042-.029.039-.011-.004-.01-.014-.006-.03a.35.35 0 0 0 .01-.103c-.005-.025-.027-.122-.2-.185-.13-.047-.261-.002-.31.135-.04.108-.01.191.115.4l.038.06c.16.256.17.391.116.542a.415.415 0 0 1-.273.255.523.523 0 0 1-.313-.023.6.6 0 0 1-.234-.141c-.022-.023-.021-.031-.003-.082a2.14 2.14 0 0 1 .082-.196c.009-.02.016-.029.025-.025.012.004.011.01.006.025-.006.017-.016.044-.02.072-.022.15.084.247.21.293.182.065.317-.034.36-.154.047-.13.02-.225-.095-.417l-.06-.1c-.14-.237-.143-.37-.097-.498a.338.338 0 0 1 .341-.233Zm-7.591.187c.006-.001.011 0 .014.006.003.007-.001.016-.014.022a.175.175 0 0 0-.04.027c-.052.043-.04.086.015.193l.526 1.049c.06.118.061.129.048.135-.014.007-.045-.001-.188-.048-.029-.008-.42-.14-.712-.248-.32-.119-.636-.242-.726-.277l.457.844c.077.145.119.182.174.172a.441.441 0 0 0 .095-.034c.009-.005.016-.004.02.003.005.011-.003.02-.025.03-.102.052-.176.083-.192.092-.016.008-.088.05-.169.092-.018.009-.03.012-.036 0-.004-.007 0-.014.009-.018a.283.283 0 0 0 .068-.048c.038-.035.02-.091-.061-.254l-.517-1.025c-.036-.07-.04-.093-.025-.1.014-.007.064.017.09.026.043.017.455.17.88.325.273.1.578.22.665.25l-.48-.898c-.06-.116-.092-.149-.155-.135a.513.513 0 0 0-.092.035c-.013.007-.017.002-.021-.005-.006-.01.008-.02.03-.03.08-.041.169-.08.188-.09.02-.01.076-.044.15-.082a.1.1 0 0 1 .024-.01Zm8.73.293c.005 0 .013.003.023.008.058.03.168.093.177.098.008.004.123.057.177.084.02.01.026.018.021.03-.004.006-.012.006-.02.002a.29.29 0 0 0-.047-.017c-.052-.016-.083.007-.118.067a8.806 8.806 0 0 0-.202.383l-.161.314c-.089.17-.161.311-.19.39-.022.055-.032.1.018.134.023.017.06.04.077.049.01.005.011.013.008.018-.004.009-.016.01-.035 0-.098-.051-.208-.114-.217-.119a8.293 8.293 0 0 1-.177-.084c-.02-.01-.027-.019-.021-.03.003-.005.009-.008.02-.002a.32.32 0 0 0 .057.02c.039.011.068-.024.102-.071.047-.07.12-.212.208-.382l.161-.314c.143-.278.169-.328.195-.386.028-.063.026-.102-.01-.131a.278.278 0 0 0-.05-.036c-.008-.004-.013-.01-.01-.018.003-.005.008-.008.013-.007Zm1.04.53.003.002c.011.008.016.036.058.07.044.04.103.087.123.1l.612.437c.104.075.16.09.173.1.008.005.001.015-.006.024-.035.05-.12.159-.133.176-.011.015-.02.018-.027.014-.008-.006-.008-.014.007-.038l.011-.018c.029-.054.018-.119-.136-.234l-.203-.15-.493.69c-.111.157-.204.285-.244.36-.03.05-.045.094 0 .135.02.02.053.049.068.059.01.007.01.014.006.02-.006.007-.018.006-.035-.007-.09-.064-.19-.142-.198-.148a5.745 5.745 0 0 1-.163-.109c-.018-.013-.023-.022-.017-.032.004-.004.01-.007.02 0a.28.28 0 0 0 .054.028c.037.017.071-.013.111-.056.057-.062.15-.19.26-.348l.494-.69-.244-.169c-.102-.07-.15-.086-.204-.066-.038.015-.05.023-.064.03-.014.01-.02.01-.027.006-.005-.004-.005-.011.002-.021.011-.016.144-.133.157-.144.009-.006.027-.02.035-.02Zm-11.776.287c.005-.002.01 0 .013.005.005.006.001.014-.005.019a.178.178 0 0 0-.035.036c-.035.042-.027.078.014.135.037.053.072.097.269.34l.134.167c.136.168.268.37.233.582a.587.587 0 0 1-.228.374c-.053.043-.216.164-.41.149-.136-.012-.284-.074-.467-.301l-.184-.228a7.706 7.706 0 0 0-.275-.334c-.046-.05-.078-.065-.139-.035a.402.402 0 0 0-.056.038c-.006.005-.015.007-.02 0-.008-.008-.002-.018.015-.032.07-.056.169-.128.183-.14.014-.011.104-.091.15-.129.017-.014.028-.017.035-.008.006.006.002.015-.005.02a.302.302 0 0 0-.035.036c-.037.04-.027.078.014.135.037.053.072.097.269.34l.176.218c.181.225.309.281.427.29a.39.39 0 0 0 .305-.103.422.422 0 0 0 .155-.31c0-.147-.089-.294-.219-.455l-.157-.195a8.88 8.88 0 0 0-.274-.334c-.046-.05-.079-.066-.139-.035a.348.348 0 0 0-.057.038c-.006.005-.015.007-.02 0-.007-.009-.002-.018.015-.032.07-.057.16-.121.17-.129.01-.008.08-.072.126-.11a.062.062 0 0 1 .022-.012Zm13.1.738c.005 0 .011.004.018.012.027.027.128.138.135.145.01.01.068.06.123.115.015.016.014.023.008.029-.006.005-.015-.002-.034-.009-.017-.006-.032-.004-.044.007a.176.176 0 0 0-.037.074c-.018.063-.175.64-.19.707a14.3 14.3 0 0 1 .652-.178.198.198 0 0 0 .096-.048c.02-.02.03-.04.017-.062-.008-.017-.013-.028-.006-.035.005-.006.017 0 .03.014.038.037.079.087.09.098.008.009.114.107.14.134.01.01.016.021.01.027-.006.007-.018.004-.03-.007a.191.191 0 0 0-.084-.046.384.384 0 0 0-.147-.004c-.104.01-.636.141-.723.176a.484.484 0 0 0-.163.12l-.123.121a3.14 3.14 0 0 0-.138.145c-.038.044-.057.088-.02.136a.876.876 0 0 0 .057.07c.009.008.008.016.003.02-.007.007-.018.004-.034-.012a4.43 4.43 0 0 1-.168-.18 3.485 3.485 0 0 1-.143-.135c-.016-.015-.02-.025-.011-.034.004-.004.011-.005.02.003a.307.307 0 0 0 .048.037c.033.023.077.005.121-.033.064-.055.125-.114.147-.137l.123-.12c.077-.077.094-.122.117-.181.013-.033.137-.534.162-.657a.563.563 0 0 0 .01-.2.196.196 0 0 0-.038-.085c-.007-.007-.011-.017-.005-.024a.012.012 0 0 1 .006-.003h.005ZM3.604 5.407a.01.01 0 0 1 .007.002c.007.004.007.014 0 .026a.17.17 0 0 0-.022.043c-.025.063.007.094.107.16l.974.656c.11.073.117.082.109.094-.01.013-.04.02-.188.05a23.49 23.49 0 0 1-.742.134c-.256.04-.512.08-.769.116l.813.51c.139.088.194.1.237.064a.442.442 0 0 0 .066-.076c.005-.008.012-.011.018-.007.01.007.007.02-.006.039-.064.095-.113.159-.123.173-.01.016-.052.089-.102.164-.011.017-.02.025-.031.018-.007-.005-.007-.012-.001-.02a.284.284 0 0 0 .036-.075c.015-.05-.027-.09-.179-.192l-.954-.639c-.065-.043-.08-.06-.07-.073.008-.014.064-.018.091-.023.045-.006.48-.076.926-.149.287-.047.61-.093.702-.11l-.86-.546c-.109-.07-.153-.083-.2-.04a.523.523 0 0 0-.064.075c-.008.012-.014.01-.02.006-.01-.007-.003-.021.01-.041.05-.075.109-.152.121-.17.012-.019.044-.077.09-.145.009-.014.016-.023.024-.024ZM20.44 6.495c.094-.003.186.051.253.159.03.048.047.087.058.122a.33.33 0 0 0 .02.047c.007.01.006.014 0 .018-.006.004-.05.024-.134.076-.02.012-.03.015-.034.009-.005-.008.001-.013.01-.02a.249.249 0 0 0 .052-.054c.009-.016.04-.081-.03-.195-.053-.085-.147-.12-.237-.063-.07.043-.09.103-.114.278l-.006.051c-.025.217-.08.299-.18.36a.3.3 0 0 1-.269.021.38.38 0 0 1-.167-.154.44.44 0 0 1-.068-.186c-.003-.023.002-.027.035-.048.062-.038.114-.063.135-.074.014-.008.022-.009.026-.003.004.007.001.011-.008.017a.256.256 0 0 0-.044.032c-.08.075-.065.178-.013.26.073.12.194.125.273.076.085-.053.112-.119.134-.28l.012-.083c.027-.197.085-.274.17-.326a.257.257 0 0 1 .126-.04Zm.613.858c.005 0 .01.006.015.017l.06.134c.003.006.047.087.066.126.007.014.008.022 0 .026-.006.002-.01-.002-.013-.007-.004-.01-.01-.016-.02-.03-.023-.033-.05-.032-.098-.013a5.63 5.63 0 0 0-.283.134l-.23.112c-.125.06-.228.11-.28.144-.035.023-.06.044-.046.086.006.02.017.05.023.061.003.008 0 .012-.003.014-.007.003-.014-.001-.021-.015-.035-.072-.07-.156-.074-.163-.003-.006-.047-.087-.066-.126-.006-.014-.007-.022 0-.026.004-.002.01-.001.013.007a.216.216 0 0 0 .024.036c.019.024.05.017.09.004.058-.02.162-.07.287-.132l.23-.111c.203-.099.24-.117.28-.14.044-.024.06-.048.052-.08a.18.18 0 0 0-.014-.043c-.003-.005-.003-.011.002-.014a.01.01 0 0 1 .006-.001Zm-18.664.086c.002 0 .005 0 .007.002.008.003.008.012.005.02a.305.305 0 0 0-.015.047c-.013.054.012.082.074.115.057.03.109.052.395.179l.322.142c.176.078.32.142.401.167.056.018.101.025.133-.027a.922.922 0 0 0 .044-.079c.005-.011.012-.012.017-.01.009.005.011.016.002.036-.045.1-.102.214-.106.223-.004.009-.049.127-.073.182-.01.02-.017.027-.028.023-.006-.003-.01-.009-.005-.02a.313.313 0 0 0 .018-.058c.008-.04-.028-.067-.078-.098a5.017 5.017 0 0 0-.393-.185l-.322-.143c-.286-.126-.338-.15-.398-.171-.064-.024-.103-.02-.13.017a.248.248 0 0 0-.033.053c-.003.007-.01.013-.017.01-.011-.005-.01-.016-.002-.036.027-.06.084-.173.088-.183.004-.009.05-.126.074-.182.006-.015.012-.023.02-.024Zm19.104.834c.006 0 .009.003.01.007.004.011-.019.045-.028.063-.017.028-.17.307-.326.595-.1.185-.218.39-.25.45l.695-.248c.09-.032.116-.051.113-.097a.447.447 0 0 0-.016-.07c-.003-.01 0-.012.006-.015.008-.002.014.009.019.025.02.062.038.13.043.144.006.015.025.06.044.116.004.015.007.025-.002.028-.005.002-.011-.002-.014-.012-.003-.007-.006-.016-.015-.032-.025-.042-.058-.037-.14-.01l-.808.266c-.09.03-.098.03-.102.02-.003-.01.006-.032.055-.13a17.134 17.134 0 0 1 .529-.974l-.654.238c-.111.04-.143.066-.141.107.002.028.01.059.015.072.002.006 0 .011-.005.013-.008.003-.014-.005-.02-.021-.026-.078-.04-.135-.044-.147-.004-.013-.027-.07-.048-.13-.005-.015-.006-.024.004-.027.005-.002.01.002.011.008a.197.197 0 0 0 .028.054c.02.031.063.025.188-.017l.79-.261a.203.203 0 0 1 .063-.015Zm-18.121.51a.01.01 0 0 1 .005 0c.012.003.013.022.007.045-.01.043-.066.252-.09.323-.014.044-.023.052-.032.05-.008-.002-.01-.007-.01-.017 0-.01-.033-.02-.068-.025L2.155 9.01l-.001.006.897.721c.076.062.092.072.088.09-.004.013-.025.018-.104.038-.108.028-.485.114-.507.12-.04.008-.56.114-.617.123l-.002.007.885.296c.03.01.066.018.099.026a.063.063 0 0 0 .072-.036.368.368 0 0 0 .028-.072c.002-.008.008-.014.013-.013.014.003.015.016.01.04-.018.072-.046.164-.05.18-.004.017-.021.112-.034.164-.004.02-.011.032-.025.029-.006-.001-.007-.012-.005-.022a.226.226 0 0 0 .008-.06c.004-.067-.07-.091-.143-.117l-1.236-.446c-.02-.009-.032-.018-.03-.03.003-.011.013-.017.036-.022l1.37-.3-1.086-.868c-.015-.012-.028-.023-.024-.037.003-.013.02-.016.058-.01l1.227.157c.073.01.185.022.232-.055a.425.425 0 0 0 .048-.122c.002-.008.005-.013.009-.014Zm18.122 1.088a.57.57 0 0 1 .333.103c.1.072.189.19.225.411.01.057.018.139.017.21-.001.056-.002.104.003.15.001.016-.005.02-.013.021-.011.002-.03 0-.08.007-.049.005-.128.017-.15.02-.021.002-.03 0-.032-.009-.001-.01.009-.013.029-.016a.202.202 0 0 0 .136-.084.482.482 0 0 0 .034-.3c-.031-.19-.102-.27-.159-.312-.117-.088-.249-.091-.395-.067a.524.524 0 0 0-.439.603c.018.107.045.19.113.237a.274.274 0 0 0 .13.034c.015 0 .022.002.023.01.002.008-.008.012-.02.014a1.34 1.34 0 0 1-.188-.002c-.028-.004-.032-.006-.048-.03a.828.828 0 0 1-.075-.252c-.036-.215-.006-.368.077-.498a.552.552 0 0 1 .394-.243.545.545 0 0 1 .085-.007Zm-18.607 1.08c.01 0 .016.01.016.044l-.001.103c0 .056 0 .094-.005.138-.012.106-.056.156-.125.241-.075.09-.538.51-.657.605v.01l.197.002c.192.002.35.003.435-.006.058-.005.102-.017.11-.077a.611.611 0 0 0 .01-.078c0-.012.005-.016.011-.016.01 0 .016.01.016.032-.001.098-.008.215-.008.23 0 .017.005.133.004.193 0 .022-.004.032-.016.032-.006 0-.012-.004-.012-.016a.354.354 0 0 0-.007-.06c-.008-.04-.052-.05-.11-.06a4.78 4.78 0 0 0-.435-.014l-.352-.003a8.34 8.34 0 0 0-.433 0c-.068.004-.1.02-.115.085a.422.422 0 0 0-.007.068c0 .008-.004.017-.012.016-.012 0-.016-.01-.016-.032.001-.09.008-.208.008-.22 0-.018-.005-.135-.004-.195 0-.021.004-.032.017-.032.008 0 .011.008.011.017 0 .014.002.026.006.05.01.054.043.07.113.075.064.005.12.005.433.008l.12.001v-.008c-.037-.034-.403-.4-.48-.473-.058-.057-.11-.11-.143-.11-.025 0-.036.01-.043.026-.004.01-.008.018-.016.018-.01 0-.014-.01-.014-.024.001-.04.007-.103.007-.15 0-.01-.004-.143-.004-.193 0-.022.004-.03.015-.03.01 0 .014.004.014.02 0 .03.009.073.026.113.036.082.085.127.17.218.049.05.386.402.436.444.058-.051.493-.464.57-.545.157-.167.19-.2.23-.297a.375.375 0 0 0 .028-.124c0-.014.004-.026.012-.026Zm19.235.345c.01 0 .012.007.013.023.002.065 0 .156 0 .164.001.01.01.298.013.332.003.027.006.05.009.062.002.007.008.013.008.02 0 .004-.005.006-.013.006-.01 0-.028-.006-.068-.01-.015 0-.08-.001-.096-.004-.007 0-.016-.003-.016-.01 0-.008.006-.011.018-.011.01 0 .035-.003.052-.01.023-.011.04-.027.046-.105a4.906 4.906 0 0 0-.002-.2c0-.005-.005-.008-.015-.008l-.4.014c-.01 0-.015.002-.015.009.001.019.007.197.01.23.005.035.008.055.023.068.012.01.02.015.02.02 0 .005-.003.008-.012.009-.008 0-.033-.007-.081-.01a1.698 1.698 0 0 0-.093-.002c-.012 0-.028 0-.028-.01 0-.007.005-.01.013-.01a.141.141 0 0 0 .047-.007c.02-.007.045-.02.048-.078.004-.039.002-.183.001-.207 0-.007-.005-.01-.01-.01l-.128.004-.248.008c-.1.008-.118.03-.113.172a.4.4 0 0 0 .02.139c.017.037.047.053.107.062.016.002.022.005.022.012 0 .009-.011.01-.022.01a1.47 1.47 0 0 1-.14-.015c-.039-.008-.04-.02-.041-.077-.007-.219-.002-.316-.003-.358a3.835 3.835 0 0 1-.009-.142c0-.016.002-.024.01-.024.005 0 .01.003.01.011 0 .014.004.03.007.044.007.029.04.035.082.04.06.005.175 0 .314-.004l.256-.008c.226-.007.266-.008.313-.013.05-.004.071-.017.08-.065.003-.012.003-.036.003-.05 0-.005.003-.011.008-.011ZM2.283 12.9c.378 0 .71.241.783.657.097.54-.283.84-.637.904-.32.057-.813-.094-.91-.638-.08-.444.14-.826.6-.908a.921.921 0 0 1 .164-.015Zm18.716.175c.007.001.014.01.013.018a1.27 1.27 0 0 0-.012.16c.002.068.03.086.09.1.086.02.256.047.454.079l.346.055.301.046c.04.007.062.006.067-.025.007-.038-.043-.188-.059-.241a.047.047 0 0 1-.004-.025c.001-.006.012-.01.02-.01.006.002.013.009.018.018l.194.422c.01.02.018.037.016.051-.003.016-.025.017-.045.014-.016-.003-.21-.044-.513-.092l-.366-.059c-.197-.031-.368-.059-.456-.063-.063-.002-.094.002-.117.063-.011.028-.03.11-.034.128 0 .008-.01.015-.018.013-.01 0-.012-.011-.008-.035.023-.149.05-.274.051-.284.002-.01.022-.177.043-.304.003-.022.009-.03.019-.03Zm-18.594 0c-.06 0-.125.006-.197.02-.473.084-.676.418-.62.73.06.329.32.536.752.459.46-.083.706-.412.642-.767-.028-.155-.16-.441-.577-.441Zm18.307 1.226.008.001c.012.004.019.014.021.027.056.264.285.656.736.792.336.102.551.005.602-.163.052-.173-.063-.306-.214-.352-.318-.096-.453.12-.469.172-.027.09-.02.135-.011.164.004.014.005.023.004.029-.002.005-.01.007-.016.005-.007-.002-.01-.004-.014-.012a.348.348 0 0 1-.018-.257.385.385 0 0 1 .487-.275c.264.08.388.329.308.593-.082.27-.362.37-.654.282-.54-.163-.741-.693-.787-.962a.069.069 0 0 1 .001-.034.017.017 0 0 1 .016-.01Zm-17.87.546a.769.769 0 0 1 .744.5c.206.508-.104.88-.438 1.015-.3.122-.815.075-1.023-.437-.169-.418-.032-.837.4-1.012a.892.892 0 0 1 .317-.066Zm.159.147a.94.94 0 0 0-.35.076c-.446.181-.576.55-.457.842.125.31.424.46.83.295.433-.175.607-.548.47-.882a.523.523 0 0 0-.493-.33Zm17.83.558a.02.02 0 0 1 .012.002c.014.006.024.022.03.034.008.017.5 1.03.551 1.126.013.024.02.041.015.054-.006.012-.022.012-.04.003l-.27-.132-.58-.277-.066.137c-.023.049-.012.076-.016.083-.004.01-.016.003-.025-.001a.467.467 0 0 1-.065-.05c-.014-.019-.016-.028-.005-.05l.08-.166c-.06-.029-.198-.1-.28-.13-.057-.02-.095-.02-.137.03a.474.474 0 0 0-.045.076c-.005.009-.016.013-.023.01-.009-.005-.008-.016.001-.035.048-.1.109-.213.115-.225.006-.013.048-.113.095-.213.01-.02.018-.027.027-.023a.016.016 0 0 1 .008.021.834.834 0 0 0-.036.088c-.02.064.012.095.064.127.076.045.217.108.276.136l.286-.596c.008-.016.017-.028.028-.03Zm.027.165-.243.507.64.307.001-.004c-.034-.05-.37-.755-.398-.81Zm-16.986.445c.008 0 .017.008.03.03l.057.085c.031.047.052.079.072.117.051.095.041.161.032.27a10.5 10.5 0 0 1-.209.868l.005.009.164-.108c.162-.106.293-.192.359-.247.044-.037.075-.071.049-.126a.65.65 0 0 0-.037-.07c-.006-.01-.003-.016.002-.02.008-.005.019 0 .03.018.055.083.113.183.122.196.009.014.078.108.11.158.013.018.015.029.005.036-.005.003-.012.003-.019-.007a.312.312 0 0 0-.04-.046c-.028-.03-.07-.013-.123.012a4.83 4.83 0 0 0-.37.23l-.294.194c-.261.172-.308.202-.36.24-.054.042-.072.072-.048.135a.361.361 0 0 0 .033.06c.004.007.005.016-.001.02-.01.007-.02.001-.032-.017-.049-.076-.109-.178-.115-.188-.01-.015-.08-.109-.112-.159-.012-.018-.015-.03-.005-.036.008-.004.015 0 .02.007.007.012.015.02.032.039.038.04.075.034.136 0 .056-.033.103-.064.364-.235l.1-.066-.004-.007c-.05-.007-.558-.108-.663-.126-.079-.015-.151-.03-.18-.011-.02.014-.024.028-.02.045.002.01.003.02-.004.024-.008.006-.017 0-.025-.012-.022-.034-.051-.089-.077-.13a5.172 5.172 0 0 1-.11-.157c-.013-.018-.014-.027-.005-.032.008-.006.013-.005.022.008a.298.298 0 0 0 .085.079c.075.049.142.058.263.086.067.015.544.12.609.127.02-.075.15-.66.17-.77.037-.227.046-.273.026-.375a.366.366 0 0 0-.046-.118c-.008-.012-.011-.024-.005-.028a.01.01 0 0 1 .007-.002Zm15.93.705a.689.689 0 0 1 .376.135c.32.22.496.711.415 1.127a.157.157 0 0 1-.013.042c-.004.007-.014.01-.024.003-.013-.009-.01-.028-.008-.052a1.07 1.07 0 0 0-.469-.976c-.193-.133-.472-.198-.602-.008-.091.132-.057.308.125.433.229.158.449.09.518-.01a.343.343 0 0 0 .063-.139c.003-.006.005-.02.009-.026.003-.005.01-.003.018.002.008.006.01.015.009.029 0 .049-.01.139-.074.231-.157.23-.416.202-.563.101a.528.528 0 0 1-.232-.334.462.462 0 0 1 .085-.362.428.428 0 0 1 .368-.196Zm-15 1.587c.06.002.115.029.155.065.074.067.131.21.018.334-.09.101-.222.12-.325.027-.103-.092-.123-.237-.024-.346a.22.22 0 0 1 .176-.08Zm14.258.085c.06.002.115.03.154.064.076.067.132.21.02.336-.09.1-.225.118-.326.026-.105-.093-.123-.237-.025-.345a.218.218 0 0 1 .177-.081Zm-12.805.26 1.58 1.099-.393.564.162.114-.126.183-.841-.586-.188.27.708.491-.441.634-.27-.188.313-.451-1.395-.97.127-.183.688.478.187-.27-.77-.534.128-.183 1.441 1.003.267-.385-1.302-.905.125-.18Zm11.34.223.884 1.347.193-.127.122.186-1.857 1.218-.12-.184.3-.198-.47-.718.276-.181.471.718.292-.191-.472-.719.27-.177.471.717.247-.163-.756-1.153-1.264.83-.127-.195 1.54-1.01Zm-9.26 1.087 1.308.439-.315.939-1.307-.44.314-.938Zm7.319.094.068.22-.249.077.53 1.698-.316.098-.163-.526-1.533.478-.066-.213 1.532-.477-.367-1.178.564-.177Zm-7.078.226-.17.509.681.229.171-.509-.682-.229Zm5.638.017.059.188.522-.163.068.216-.21.066a.46.46 0 0 1 .25.275c.085.274-.124.583-.467.69-.344.107-.692-.028-.778-.302a.461.461 0 0 1 .05-.368l-.206.064-.068-.216.523-.163-.058-.188.315-.099Zm-4.218.22.313.105-.629 1.871-1.763-.592.23-.685.313.105-.16.473 1.138.383.558-1.66Zm.782.182H11.8v.235h-.694v.876h1.003v-1.11h.31v.557h.207v-.558h.31v2.011h-.31v-1.217h-.207v1.217h-.31v-.673h-1.331v-1.338Zm3.506.056a.34.34 0 0 0-.098.015.324.324 0 0 0-.22.4c.053.169.236.26.41.206a.323.323 0 0 0 .219-.401.318.318 0 0 0-.31-.22Z"/>
    <path fill="#706D6E" d="M11.997 0C5.382 0 0 5.384 0 12s5.382 12 11.997 12C18.615 23.999 24 18.616 24 12S18.615 0 11.997 0Zm0 .27C18.467.27 23.73 5.532 23.73 12c0 6.468-5.263 11.728-11.732 11.728C5.531 23.728.27 18.468.27 12.001.27 5.532 5.53.27 11.997.27Zm0 .372C5.736.642.642 5.738.642 12.001c0 6.262 5.094 11.356 11.355 11.356 6.265 0 11.361-5.094 11.361-11.356 0-6.263-5.096-11.359-11.36-11.359Zm0 .102c6.21 0 11.26 5.05 11.26 11.257 0 6.206-5.05 11.255-11.26 11.255C5.792 23.256.743 18.206.743 12S5.793.744 11.997.744Zm.56.596c-.01 0-.018.008-.028.01a.547.547 0 0 1-.086.008c-.046.002-.445-.006-.459-.006-.01 0-.136-.008-.226-.01-.022 0-.032.004-.032.016 0 .008.008.012.015.012.018 0 .052.003.068.007.067.015.082.048.085.116.002.064.001.12-.004.433l-.007.353c-.003.192-.005.35-.017.434-.01.058-.02.102-.06.11a.325.325 0 0 1-.06.006c-.013 0-.017.006-.017.012 0 .012.01.016.032.016.06.002.186-.002.196-.002.058 0 .193.015.495.02.078.002.094.002.11-.05.01-.041.028-.177.029-.193 0-.015 0-.03-.012-.03-.01 0-.014.007-.019.03-.015.08-.04.12-.092.142a.576.576 0 0 1-.193.018c-.196-.003-.226-.03-.23-.168l.007-.342.003-.177c0-.008.004-.014.014-.014.034.001.232.008.286.015.079.01.096.044.103.072a.198.198 0 0 1 .007.067c0 .01.004.018.014.018.014 0 .015-.022.015-.038 0-.014.005-.088.01-.128.007-.066.018-.1.018-.112 0-.012-.004-.016-.01-.016-.008 0-.016.01-.03.025-.019.02-.047.024-.095.027a8.75 8.75 0 0 1-.319-.002c-.01 0-.011-.006-.011-.02l.01-.553c0-.014.004-.02.012-.02.022 0 .24.006.274.011.108.014.128.038.141.07.01.025.011.059.01.073 0 .016.004.026.016.026.008 0 .013-.011.015-.022.005-.024.01-.111.012-.132.007-.055.018-.08.018-.093 0-.01-.002-.019-.008-.019Zm-1.385.01h-.014c-.057.01-.142.028-.154.03-.024.004-.115.011-.195.023-.032.005-.043.01-.041.022.001.01.011.01.023.009.022-.003.052-.008.077-.004.021.007.03.026.033.042a.311.311 0 0 1-.007.078c-.022.15-.185.88-.26 1.163l-.532-.957a.738.738 0 0 1-.078-.157c-.002-.014 0-.03.02-.044a.24.24 0 0 1 .074-.02c.014-.003.019-.008.017-.017-.001-.01-.02-.012-.055-.006-.075.011-.164.03-.183.033-.024.004-.138.015-.233.03-.032.004-.051.009-.05.02.002.008.007.014.018.012a.31.31 0 0 1 .077-.003c.072.009.105.026.165.131l.667 1.142c.052.09.066.116.09.112.02-.003.023-.036.06-.163.032-.103.089-.331.167-.639l.141-.57c.034-.142.058-.18.082-.202.033-.03.077-.036.09-.038.017-.002.024-.007.023-.018-.002-.007-.009-.01-.022-.01Zm2.201.077c-.012 0-.018.003-.02.012-.001.008.006.013.014.015a.37.37 0 0 1 .066.018c.062.026.072.06.063.128a7.305 7.305 0 0 1-.075.427l-.065.346a4.34 4.34 0 0 1-.09.425c-.018.056-.036.098-.076.098-.019 0-.043 0-.06-.003-.013-.002-.018.003-.02.009-.001.012.008.017.03.022.059.01.183.028.186.028.01.002.132.031.241.051.022.004.032 0 .034-.01.001-.005-.001-.012-.013-.014a.87.87 0 0 1-.087-.025c-.058-.018-.062-.064-.057-.122a5.03 5.03 0 0 1 .07-.43l.009-.047c.002-.01.007-.015.017-.013l.241.05c.012.001.017.006.023.016.03.058.098.208.16.331.085.169.136.278.213.34.046.036.093.056.203.076l.14.026c.035.007.048.005.05-.007.002-.006-.005-.013-.015-.015a.427.427 0 0 1-.076-.02c-.047-.017-.129-.054-.214-.187-.09-.143-.192-.343-.315-.58.207-.13.296-.265.323-.41a.35.35 0 0 0-.086-.294c-.09-.094-.22-.13-.344-.154-.061-.011-.212-.033-.234-.037-.01-.002-.133-.031-.221-.048a.116.116 0 0 0-.014-.002Zm.336.135c.026 0 .068.005.112.013.211.04.313.212.268.458-.029.15-.1.246-.178.28a.257.257 0 0 1-.154.01.54.54 0 0 1-.201-.07.025.025 0 0 1-.01-.026l.121-.644a.024.024 0 0 1 .02-.02l.022-.001Zm-4.634.189a.046.046 0 0 0-.024.004c-.058.017-.176.06-.186.063-.01.003-.132.034-.195.054-.022.006-.03.013-.026.025.002.007.011.008.019.006a.258.258 0 0 1 .061-.01c.046-.004.075.023.099.087.022.06.039.114.13.412l.104.337c.056.184.103.336.118.419.009.058.012.103-.023.123a.324.324 0 0 1-.056.025c-.011.003-.013.01-.012.016.004.011.015.012.036.006.057-.018.176-.06.186-.063.01-.003.132-.035.237-.067.021-.006.029-.015.026-.025-.002-.005-.007-.01-.019-.006a.842.842 0 0 1-.088.018c-.06.01-.085-.028-.107-.082-.035-.078-.08-.23-.137-.413l-.104-.337a8.052 8.052 0 0 1-.123-.415c-.017-.068-.011-.105.037-.13a.264.264 0 0 1 .046-.021c.008-.002.014-.009.012-.017a.013.013 0 0 0-.01-.01Zm6.414.194a.338.338 0 0 0-.341.233c-.046.128-.043.261.098.497l.06.1c.114.193.14.288.094.418-.043.12-.178.219-.36.154-.126-.046-.232-.143-.21-.293.004-.028.014-.055.02-.072.005-.015.006-.021-.006-.025-.01-.004-.016.004-.025.025a2.14 2.14 0 0 0-.082.196c-.018.05-.019.06.003.082a.6.6 0 0 0 .234.141.52.52 0 0 0 .313.023.415.415 0 0 0 .273-.255c.054-.15.043-.286-.116-.542l-.038-.06c-.125-.209-.155-.292-.116-.4.05-.137.18-.182.31-.135.174.063.196.16.2.185a.35.35 0 0 1-.01.103c-.003.016-.004.026.007.03.01.003.018-.009.03-.039.045-.128.075-.188.079-.197.002-.01 0-.015-.015-.02a.357.357 0 0 1-.062-.033.782.782 0 0 0-.169-.082.541.541 0 0 0-.17-.034Zm-7.591.187a.1.1 0 0 0-.025.01c-.073.037-.13.072-.15.082-.018.01-.107.048-.188.088-.021.011-.035.02-.029.031.004.007.008.012.02.005a.512.512 0 0 1 .093-.035c.063-.014.095.02.155.135l.48.898c-.087-.03-.392-.15-.665-.25a90.837 90.837 0 0 1-.88-.325c-.026-.009-.076-.033-.09-.026-.015.007-.01.03.025.1L7.16 3.87c.082.163.099.219.06.254a.284.284 0 0 1-.067.048c-.01.004-.013.01-.009.018.006.012.018.009.036 0 .08-.041.153-.084.169-.093.016-.008.09-.039.192-.09.022-.011.03-.02.025-.03-.004-.008-.011-.009-.02-.004a.44.44 0 0 1-.095.034c-.055.01-.097-.027-.174-.172l-.457-.844c.241.094.483.187.726.277.293.108.683.24.712.248.143.047.174.055.188.048.013-.006.012-.017-.048-.135l-.526-1.05c-.055-.106-.067-.15-.015-.192a.175.175 0 0 1 .04-.027c.013-.006.017-.015.014-.022-.003-.006-.008-.007-.014-.006Zm8.73.293c-.006 0-.01.002-.013.007-.004.007.001.014.008.018.013.007.035.02.052.036.035.03.037.068.009.13-.026.06-.052.11-.195.387l-.161.314a4.82 4.82 0 0 1-.208.381c-.034.049-.063.083-.102.072a.32.32 0 0 1-.057-.02c-.011-.006-.017-.003-.02.003-.006.01.001.018.021.029.054.027.168.08.177.084.01.005.12.068.216.119.02.01.032.009.036 0 .003-.005.002-.013-.008-.018a.895.895 0 0 1-.077-.049c-.05-.034-.04-.079-.019-.133.03-.08.102-.22.19-.391l.162-.314c.143-.278.17-.328.202-.383.035-.06.066-.083.118-.067a.299.299 0 0 1 .047.017c.008.004.016.004.02-.003.005-.01-.002-.019-.02-.029-.054-.027-.17-.08-.178-.084-.01-.005-.119-.068-.177-.098a.061.061 0 0 0-.024-.008Zm1.04.53c-.008.001-.026.015-.035.021-.013.01-.145.128-.157.144-.007.01-.007.017-.002.02.006.005.013.005.028-.004.013-.008.025-.016.063-.031.054-.02.102-.004.204.066l.244.17-.493.69a4.74 4.74 0 0 1-.26.347c-.04.043-.075.073-.112.056a.28.28 0 0 1-.053-.028c-.01-.007-.017-.004-.02 0-.007.01-.002.02.016.032.049.035.155.103.164.11.008.005.107.083.197.147.017.013.029.014.035.006.003-.005.004-.012-.006-.02a.864.864 0 0 1-.069-.058c-.044-.041-.028-.084 0-.135.042-.075.134-.203.245-.36l.493-.69.203.15c.154.115.165.18.136.233l-.011.02c-.015.023-.015.03-.007.036.007.005.016.002.027-.013.013-.017.098-.127.133-.176.007-.01.014-.02.006-.025-.013-.01-.07-.024-.173-.099l-.612-.436a2.189 2.189 0 0 1-.123-.1c-.042-.035-.047-.063-.058-.071l-.003-.001Zm-11.777.287a.062.062 0 0 0-.021.012c-.046.038-.116.102-.127.11-.01.008-.099.072-.169.13-.017.013-.022.022-.015.032.005.006.014.004.02 0a.35.35 0 0 1 .057-.04c.06-.03.093-.015.14.036.042.047.077.09.273.334l.157.195c.13.16.219.308.219.455a.421.421 0 0 1-.155.31.39.39 0 0 1-.305.104c-.118-.01-.246-.066-.427-.291l-.176-.218c-.197-.244-.232-.287-.269-.34-.04-.057-.05-.095-.014-.135a.306.306 0 0 1 .035-.036c.006-.005.01-.014.005-.02-.007-.009-.018-.006-.034.008-.047.038-.137.118-.151.13-.015.01-.113.083-.183.14-.017.013-.023.023-.015.032.005.006.014.004.02-.001a.4.4 0 0 1 .056-.038c.061-.03.093-.016.14.035.043.047.078.09.274.334l.184.228c.183.227.33.289.466.3.195.016.358-.105.41-.148a.587.587 0 0 0 .229-.374c.035-.212-.097-.414-.233-.582l-.134-.167a8.006 8.006 0 0 1-.269-.34c-.04-.057-.05-.093-.014-.135a.177.177 0 0 1 .035-.036c.006-.005.01-.013.005-.02-.003-.004-.008-.006-.014-.004Zm13.1.738h-.004a.012.012 0 0 0-.006.003c-.006.007-.002.017.005.024.013.013.03.049.038.084a.564.564 0 0 1-.01.201c-.024.123-.15.624-.162.657-.023.059-.04.104-.117.18l-.123.121a2.992 2.992 0 0 1-.147.137c-.044.038-.088.056-.121.033a.3.3 0 0 1-.048-.037c-.009-.008-.016-.007-.02-.003-.009.009-.005.019.011.034.042.043.135.129.143.136.006.007.09.1.168.18.016.015.027.018.034.01.005-.003.006-.01-.003-.02a.875.875 0 0 1-.057-.069c-.037-.048-.018-.092.02-.136.056-.063.116-.122.138-.145l.123-.121a.484.484 0 0 1 .163-.12c.087-.034.619-.166.723-.176a.383.383 0 0 1 .147.004.19.19 0 0 1 .085.046c.011.011.023.014.03.007.005-.006 0-.017-.01-.027-.027-.027-.133-.125-.141-.134-.011-.011-.052-.061-.09-.098-.013-.014-.025-.02-.03-.014-.007.007-.002.018.006.035.014.022.004.042-.017.062a.198.198 0 0 1-.096.048 14.75 14.75 0 0 0-.653.178c.016-.067.173-.644.191-.707a.177.177 0 0 1 .037-.074c.012-.011.027-.013.044-.007.019.007.028.014.034.009.006-.006.008-.013-.008-.029-.055-.055-.113-.105-.123-.115-.007-.007-.108-.118-.135-.145-.007-.008-.013-.011-.018-.012ZM3.605 5.407c-.008 0-.015.01-.025.024-.045.068-.077.126-.089.145-.012.018-.07.095-.12.17-.014.02-.021.034-.011.041.006.004.012.006.02-.006a.525.525 0 0 1 .063-.076c.048-.042.092-.03.202.04l.859.547c-.091.017-.415.063-.702.11-.447.073-.88.143-.926.149-.027.005-.083.009-.092.023-.009.013.006.03.071.073l.954.64c.152.1.194.141.179.19a.283.283 0 0 1-.036.075c-.006.009-.006.016 0 .02.012.008.02 0 .032-.017.05-.075.092-.148.102-.164.01-.014.06-.078.123-.173.013-.02.016-.032.006-.039-.006-.004-.013-.002-.018.007a.442.442 0 0 1-.066.076c-.043.036-.098.024-.237-.064l-.813-.51c.096-.014.432-.062.77-.116.307-.05.712-.127.74-.134.148-.03.18-.037.189-.05.008-.012.002-.021-.109-.094l-.974-.655c-.1-.067-.132-.098-.107-.161a.172.172 0 0 1 .021-.043c.008-.012.008-.022.001-.026a.01.01 0 0 0-.007-.002ZM20.44 6.495a.258.258 0 0 0-.127.04c-.084.052-.142.129-.169.326l-.011.084c-.023.16-.05.226-.135.279-.08.049-.2.043-.273-.076-.052-.082-.067-.185.013-.26a.252.252 0 0 1 .044-.032c.01-.006.012-.01.008-.017-.004-.006-.012-.005-.026.003-.02.01-.073.036-.135.074-.033.02-.037.025-.035.048a.44.44 0 0 0 .068.186.38.38 0 0 0 .167.154c.113.048.22.01.27-.022.099-.06.154-.142.179-.359l.006-.051c.023-.175.044-.235.114-.278.09-.056.184-.022.237.063.07.114.039.179.03.195a.248.248 0 0 1-.052.054c-.009.007-.015.012-.01.02.004.006.014.003.034-.01.084-.051.128-.071.133-.075.007-.004.008-.008.002-.018a.224.224 0 0 1-.02-.047.56.56 0 0 0-.06-.122c-.066-.108-.158-.162-.252-.159Zm.613.858a.01.01 0 0 0-.006.001c-.005.003-.005.01-.002.014.004.01.01.027.014.044.008.031-.008.055-.052.08-.04.022-.076.04-.28.139l-.23.111a3.853 3.853 0 0 1-.287.132c-.04.013-.071.02-.09-.004a.216.216 0 0 1-.024-.036c-.003-.008-.009-.009-.012-.007-.008.004-.008.012 0 .026.018.04.062.12.065.126l.074.163c.008.014.014.018.02.015.005-.002.007-.006.004-.014a.515.515 0 0 1-.023-.061c-.014-.042.01-.064.046-.086.052-.033.155-.083.28-.144l.23-.112c.204-.099.24-.116.284-.134.046-.02.074-.02.097.012.01.015.016.022.02.031.002.005.007.01.013.007.008-.004.007-.012 0-.026-.019-.04-.063-.12-.066-.126l-.06-.134c-.005-.01-.01-.016-.015-.017Zm-18.664.086c-.008.001-.014.01-.02.024-.025.056-.07.173-.074.182-.004.01-.061.123-.088.183-.008.02-.01.03.002.036.007.003.014-.003.017-.01a.248.248 0 0 1 .033-.053c.027-.037.066-.041.13-.017.06.022.112.045.398.171l.322.143c.176.078.32.142.393.185.05.031.086.058.078.098a.312.312 0 0 1-.018.058c-.005.011 0 .017.005.02.011.004.019-.003.028-.023.024-.055.07-.173.073-.182.004-.01.061-.122.106-.223.009-.02.007-.031-.002-.036-.005-.002-.012-.001-.017.01a.925.925 0 0 1-.044.08c-.032.051-.077.044-.132.026a4.88 4.88 0 0 1-.402-.167l-.322-.142c-.286-.127-.338-.15-.395-.18-.062-.032-.087-.06-.074-.114a.303.303 0 0 1 .015-.048c.003-.007.003-.016-.005-.02a.013.013 0 0 0-.007 0Zm19.104.834a.203.203 0 0 0-.063.015l-.79.261c-.125.042-.168.048-.188.017a.191.191 0 0 1-.028-.054c-.002-.006-.006-.01-.011-.008-.01.003-.009.012-.004.026.02.062.044.118.048.13.004.013.018.07.044.148.006.016.012.024.02.021.005-.002.007-.007.005-.013a.35.35 0 0 1-.015-.072c-.002-.041.03-.067.141-.107l.654-.238a17.134 17.134 0 0 0-.528.974c-.05.098-.06.12-.055.13.003.01.01.01.102-.02l.807-.266c.082-.027.115-.032.14.01.01.016.012.025.015.032.003.01.009.014.014.012.009-.003.006-.013.002-.028-.02-.057-.038-.1-.044-.116-.005-.015-.022-.082-.043-.144-.006-.016-.01-.027-.019-.025-.005.003-.009.005-.006.015a.447.447 0 0 1 .016.07c.003.046-.024.065-.113.097l-.694.248c.03-.06.148-.265.249-.45.156-.288.31-.567.326-.595.01-.018.032-.052.028-.063-.001-.004-.004-.007-.01-.007Zm-18.121.51c-.004.001-.007.006-.009.014a.424.424 0 0 1-.048.122c-.047.077-.16.064-.231.055l-1.228-.158c-.038-.005-.055-.003-.058.011-.004.014.009.025.024.037l1.085.867-1.369.301c-.023.005-.033.01-.035.023-.003.011.009.02.03.03l1.235.445c.073.026.147.05.143.117a.226.226 0 0 1-.008.06c-.002.01 0 .02.005.022.014.003.02-.01.025-.03.013-.051.03-.146.034-.164.004-.016.032-.107.05-.18.005-.023.004-.036-.01-.04-.005 0-.011.006-.013.014a.37.37 0 0 1-.028.072.064.064 0 0 1-.072.036c-.033-.008-.068-.016-.099-.026l-.885-.296.002-.008c.058-.008.577-.114.617-.122.022-.006.399-.092.507-.12.079-.02.1-.025.104-.038.004-.018-.012-.028-.088-.09l-.897-.72V9.01l1.029.149c.035.004.068.015.068.025 0 .01.002.015.01.017.01.002.018-.006.033-.05.023-.07.08-.28.09-.323.005-.023.004-.042-.008-.045a.01.01 0 0 0-.005 0Zm18.122 1.088a.544.544 0 0 0-.085.007.556.556 0 0 0-.395.243c-.082.13-.112.283-.076.498a.827.827 0 0 0 .076.252c.015.024.019.026.047.03.051.007.178.004.188.002.012-.002.022-.007.02-.014 0-.008-.007-.01-.024-.01a.273.273 0 0 1-.129-.034c-.068-.047-.094-.13-.113-.237a.524.524 0 0 1 .44-.603c.145-.024.277-.021.394.067.057.042.128.122.16.312.02.126 0 .243-.035.3a.202.202 0 0 1-.136.084c-.02.003-.03.006-.029.016.002.01.011.01.033.008l.148-.02c.052-.005.07-.004.081-.006.009 0 .014-.005.013-.02-.005-.047-.004-.095-.003-.15a1.223 1.223 0 0 0-.017-.211c-.036-.22-.125-.34-.225-.411a.573.573 0 0 0-.333-.103Zm-18.607 1.08c-.008 0-.012.012-.012.026a.375.375 0 0 1-.027.124c-.041.096-.074.13-.231.297-.077.081-.512.494-.57.545-.05-.042-.387-.394-.435-.444-.086-.091-.135-.136-.17-.218a.292.292 0 0 1-.027-.113c0-.016-.004-.02-.014-.02s-.015.008-.015.03c0 .05.004.182.004.193 0 .047-.006.11-.007.15 0 .014.004.024.014.024.008 0 .012-.008.016-.018.007-.016.018-.026.043-.026.033 0 .085.053.143.11.077.073.442.438.48.473v.008l-.12-.001a7.896 7.896 0 0 1-.433-.008c-.07-.005-.104-.021-.113-.075a.31.31 0 0 1-.006-.05c0-.009-.003-.016-.012-.017-.012 0-.016.01-.016.032 0 .06.004.177.004.195 0 .012-.007.13-.008.22 0 .022.004.032.016.032.008 0 .012-.008.012-.016 0-.018.003-.052.007-.068.014-.066.047-.082.115-.085a8.48 8.48 0 0 1 .433 0l.352.003c.193.002.35.004.435.014.058.01.102.02.11.06a.352.352 0 0 1 .007.06c0 .012.006.016.012.016.012 0 .016-.01.016-.032 0-.06-.005-.177-.004-.192 0-.017.007-.133.008-.23 0-.023-.006-.033-.016-.033-.006 0-.012.004-.012.016 0 .018-.004.05-.009.078-.008.06-.052.072-.11.077-.085.01-.243.008-.435.006l-.197-.002v-.01c.12-.095.582-.515.657-.605.069-.085.114-.135.125-.24.004-.045.004-.083.005-.14v-.102c.001-.034-.005-.043-.015-.044Zm19.235.345c-.005 0-.008.006-.008.012 0 .013 0 .037-.003.049-.009.048-.03.06-.08.065a5.912 5.912 0 0 1-.313.013l-.256.008a3.43 3.43 0 0 1-.314.003c-.043-.004-.075-.01-.082-.04a.221.221 0 0 1-.007-.043c0-.008-.005-.011-.01-.011-.008 0-.01.008-.01.024l.006.084c0 .03.003.055.003.058.001.041-.004.139.003.358.002.057.002.068.04.077.031.007.13.015.141.015.01 0 .022-.001.022-.01 0-.007-.006-.01-.022-.012-.06-.009-.09-.025-.106-.062a.397.397 0 0 1-.021-.139c-.005-.142.014-.164.113-.172.03-.002.199-.006.248-.008l.128-.004c.005 0 .01.003.01.01a2.85 2.85 0 0 1 0 .207c-.004.057-.028.071-.049.077-.018.007-.033.007-.047.008-.008 0-.013.003-.013.01 0 .01.017.01.028.01.01 0 .064 0 .093.003.048.002.073.009.081.008.01 0 .012-.003.012-.007 0-.006-.008-.011-.02-.021-.014-.013-.018-.033-.023-.068-.003-.033-.009-.211-.01-.23 0-.007.005-.01.015-.01l.4-.013c.01 0 .015.003.015.009 0 .016.004.174.002.199-.006.078-.023.093-.046.104a.164.164 0 0 1-.052.01c-.012 0-.019.004-.018.013 0 .006.009.008.016.01.017.002.081.002.096.004.04.003.058.01.068.009.008 0 .013-.002.013-.006 0-.007-.006-.013-.008-.02a.466.466 0 0 1-.01-.062l-.011-.332-.001-.164c0-.016-.004-.024-.013-.023ZM2.282 12.9a.922.922 0 0 0-.163.015c-.46.082-.68.464-.6.908.097.544.59.695.91.638.355-.064.734-.364.637-.904a.775.775 0 0 0-.783-.657ZM21 13.075c-.01-.002-.016.007-.02.03-.02.126-.04.293-.042.302-.001.01-.028.136-.05.285-.005.024-.003.034.007.035.008.002.017-.005.018-.013.003-.017.023-.1.034-.128.023-.061.054-.065.117-.063.088.004.259.032.457.063l.365.059c.303.048.497.089.513.092.02.003.042.002.045-.014.002-.014-.005-.03-.016-.05l-.194-.424c-.005-.008-.012-.016-.018-.016-.008-.002-.019.003-.02.008a.047.047 0 0 0 .004.026c.016.053.066.203.06.24-.006.032-.028.033-.068.026l-.3-.046-.347-.055a9.176 9.176 0 0 1-.454-.079c-.06-.014-.088-.032-.09-.1a1.308 1.308 0 0 1 .012-.16c.001-.008-.006-.017-.013-.018Zm-18.594 0c.417 0 .55.287.577.442.064.355-.182.684-.642.767-.432.077-.693-.13-.752-.46-.056-.311.147-.645.62-.73a1.12 1.12 0 0 1 .197-.018Zm18.307 1.226a.017.017 0 0 0-.016.01.069.069 0 0 0-.001.034c.046.27.248.799.787.962.292.088.572-.011.654-.282.08-.264-.044-.513-.308-.593a.385.385 0 0 0-.487.275.349.349 0 0 0 .018.257c.004.008.007.01.014.012.005.002.014 0 .016-.005a.071.071 0 0 0-.004-.029c-.008-.03-.016-.073.011-.164.016-.051.15-.268.469-.172.152.046.266.179.214.352-.05.168-.266.265-.602.163a1.094 1.094 0 0 1-.736-.792c-.002-.013-.01-.024-.021-.027a.023.023 0 0 0-.008 0Zm-17.87.546a.892.892 0 0 0-.316.066c-.433.175-.57.594-.4 1.012.207.512.721.56 1.022.437.334-.135.644-.507.438-1.016a.77.77 0 0 0-.744-.5Zm.159.147a.523.523 0 0 1 .494.331c.136.334-.038.707-.47.882-.407.165-.706.015-.831-.295-.12-.293.01-.661.456-.842a.921.921 0 0 1 .35-.076Zm17.83.558c-.01.001-.02.013-.028.029l-.286.596c-.06-.028-.2-.091-.276-.137-.052-.03-.084-.062-.064-.126a.827.827 0 0 1 .035-.087.016.016 0 0 0-.008-.021c-.008-.005-.016.003-.026.022-.047.1-.089.2-.095.212-.006.013-.067.126-.115.225-.009.02-.01.031 0 .035.006.004.017 0 .022-.009a.487.487 0 0 1 .045-.076c.042-.05.08-.05.136-.03.083.03.221.101.28.13l-.08.166c-.01.022-.008.031.006.05a.459.459 0 0 0 .065.05c.009.004.021.01.025.001.004-.007-.007-.035.016-.083l.066-.138.58.278c.1.048.243.12.27.132.018.009.034.01.04-.003.006-.013-.002-.03-.015-.054-.052-.096-.543-1.109-.551-1.126-.006-.012-.016-.028-.03-.034a.019.019 0 0 0-.012-.002Zm.027.164c.029.057.364.761.398.81l-.001.005-.64-.307.243-.508Zm-16.986.446c-.002 0-.005 0-.007.002-.006.004-.003.016.005.028a.366.366 0 0 1 .046.118c.02.102.011.148-.027.375-.019.11-.15.695-.17.77a18.122 18.122 0 0 1-.608-.127c-.121-.028-.188-.037-.263-.086a.297.297 0 0 1-.085-.079c-.009-.013-.014-.014-.023-.008-.008.005-.007.014.005.032.028.042.105.15.11.158.027.04.056.095.078.129.008.011.017.017.025.012.007-.005.006-.014.004-.024-.004-.017 0-.031.02-.045.029-.018.1-.004.18.011.105.018.612.119.663.126l.004.007-.1.066c-.261.171-.308.202-.364.234-.06.035-.098.04-.136 0a.339.339 0 0 1-.033-.038c-.004-.006-.012-.011-.019-.007-.01.007-.007.018.005.036.033.05.101.144.112.159.006.01.066.112.115.188.012.018.021.024.032.017.006-.004.005-.013 0-.02a.357.357 0 0 1-.032-.06c-.024-.063-.006-.093.048-.134.052-.039.099-.07.36-.241l.295-.194a4.79 4.79 0 0 1 .369-.23c.053-.025.095-.041.124-.012.013.012.03.03.04.046.006.01.013.01.018.007.01-.007.008-.018-.004-.036-.033-.05-.102-.144-.11-.158-.01-.013-.068-.114-.122-.196-.012-.018-.023-.023-.031-.017-.005.003-.008.01-.002.02.01.015.024.043.037.07.026.054-.005.088-.05.125a4.977 4.977 0 0 1-.358.247l-.164.108-.005-.009a10.5 10.5 0 0 0 .209-.868c.01-.109.019-.175-.032-.27a1.401 1.401 0 0 0-.072-.117l-.056-.086c-.014-.02-.023-.029-.03-.03Zm15.93.705a.428.428 0 0 0-.366.196.462.462 0 0 0-.086.362c.02.121.102.245.232.334.147.101.406.128.563-.101a.405.405 0 0 0 .074-.231c0-.014-.001-.023-.01-.029-.008-.005-.014-.007-.017-.002-.004.005-.006.02-.008.026a.344.344 0 0 1-.064.138c-.07.101-.289.17-.518.011-.182-.125-.216-.301-.125-.433.13-.19.41-.125.602.008.391.269.497.684.469.976-.001.024-.005.043.008.052.01.007.02.004.024-.003a.156.156 0 0 0 .013-.042c.081-.416-.095-.906-.415-1.127a.688.688 0 0 0-.375-.135Zm-15 1.586a.22.22 0 0 0-.177.081c-.098.109-.078.254.025.346.103.092.235.074.325-.027.113-.124.056-.267-.018-.334a.253.253 0 0 0-.155-.066Zm14.258.086a.218.218 0 0 0-.177.081c-.098.108-.08.252.025.345.101.092.237.074.325-.026.113-.126.057-.269-.019-.335a.252.252 0 0 0-.154-.065Zm-12.805.26-.125.18 1.302.906-.267.385-1.44-1.003-.128.183.769.535-.187.27-.688-.48-.127.183 1.395.97-.314.452.271.188.441-.634-.708-.492.188-.269.84.585.127-.182-.162-.114.393-.564-1.58-1.099Zm11.34.223-1.54 1.01.127.194 1.264-.829.756 1.153-.247.163-.47-.717-.27.177.471.719-.292.191-.471-.719-.276.181.47.72-.3.197.12.184 1.857-1.218-.122-.186-.193.127-.883-1.347Zm-9.26 1.087-.314.939 1.307.439.315-.94-1.308-.438Zm7.319.094-.564.177.367 1.178-1.532.477.066.213 1.533-.478.163.526.316-.098-.53-1.698.25-.078-.069-.219Zm-7.078.226.682.23-.17.508-.682-.23.17-.508Zm5.638.017-.315.098.058.189-.523.163.068.216.205-.064a.461.461 0 0 0-.049.368c.086.274.434.41.778.302.343-.107.552-.416.467-.69a.46.46 0 0 0-.25-.275l.21-.066-.068-.216-.522.163-.059-.188Zm-4.218.22-.558 1.66-1.138-.383.16-.473-.314-.105-.23.685 1.764.592.629-1.87-.313-.106Zm.782.182v1.338h1.331v.673h.31v-1.217h.207v1.217h.31v-2.01h-.31v.557h-.207v-.558h-.31v1.111h-1.003v-.877h.694v-.234h-1.022Zm3.506.056a.318.318 0 0 1 .31.22.323.323 0 0 1-.219.401.323.323 0 0 1-.409-.205.324.324 0 0 1 .22-.401.344.344 0 0 1 .098-.015Z"/>
    <path fill="#99DEF9" d="M19.5 8.33c-1.414-2.944-4.491-4.902-7.946-4.713a8.311 8.311 0 0 0-3.638 1.048c1.398-.09 2.03-.677 2.399-.744.368-.071.434.216 2.116.206 1.683-.01 2.332.621 2.332.621s.694.865 1.938 1.122c1.243.258 1.56 1.391 1.618 1.55.058.16.257.952 1.181.91Z"/>
    <path fill="#80CD3D" d="M17.525 13.744a2.16 2.16 0 0 1 .713-.452c.94-.35 1.444-1.196 1.741-1.907a4.518 4.518 0 0 0 .163-.46c.03-.108.052-.2.063-.272l.007-.045c-.08-.493-.2-.971-.36-1.431.04.479-.287 2.376-1.476 2.959-.687.336-.973 1.014-.929 1.685.023-.025.049-.05.078-.077Z"/>
    <path fill="#D3D2D2" d="M5.89 14.506c-.884-.854-.738-1.72-.738-1.72.028-.406.419-.595-.27-2.25-.638-1.535.063-2.168.063-2.168s.552-.479.33-1.16a2.13 2.13 0 0 1-.041-.152 8.327 8.327 0 0 0-1.509 3.914c.017.073.558 2.47 2.165 3.536Z"/>
    <path fill="#26B478" d="M9.162 19.794s1.549.262 2.589-.776c-.392.06-.788.086-1.184.077-3.97-.089-6.936-3.752-6.842-8.119a9.052 9.052 0 0 0-.054.954v.003a8.337 8.337 0 0 0 5.49 7.861Z"/>
    <path fill="#F68536" d="M15.72 17.049c-.444.058-.84-.056-.84-.056a2.94 2.94 0 0 0-.963-.165c-.418.404-.458.93-.458.93a3.135 3.135 0 0 1-.06.289c.671-.128 1.298-.35 1.85-.719l.02.03a6.97 6.97 0 0 1-2.088 1.279c-.725 1.431-2.398 1.529-2.584 1.537.453.076.926.105 1.4.105 3.928 0 6.675-2.63 7.675-5.124l.003-.002c-1.461 2.16-3.044 2.153-3.956 1.896Z"/>
    <path fill="#fff" d="m15.27 17.357-.022-.029c-.551.37-1.178.591-1.85.719a2.88 2.88 0 0 1-.217.59 6.966 6.966 0 0 0 2.089-1.28Z"/>
    <path fill="#FBC834" d="M12.32 18.178c-.46.034-.979.027-1.382-.002-2.114-.15-3.127-2.163-3.127-2.163-.432-.698-1.008-.908-1.008-.908a3.305 3.305 0 0 1-.913-.599c-1.607-1.066-2.148-3.463-2.165-3.536v.006c-.094 4.367 2.873 8.03 6.842 8.119.401.009.797-.018 1.184-.077a2.74 2.74 0 0 0 .569-.84Z"/>
    <path fill="#80CD3D" d="M14.957 16.716c-1.282-.862-2.398-.194-2.398-.194-2.493 1.41-3.55-.652-3.55-.652-.48-.832-1.54-.87-1.791-.883-.395-.018-.924-.212-1.328-.48.215.207.512.412.913.598 0 0 .576.21 1.008.908 0 0 .084.163.249.4.417.594 1.366 1.655 2.878 1.763a10.442 10.442 0 0 0 1.382.002c.035-.08.07-.165.102-.254 0 0 .273-1.076 1.495-1.096.27-.004.59.042.962.165 0 0 .397.114.84.056a2.815 2.815 0 0 1-.762-.332Z"/>
    <path fill="#2056AE" d="M13.18 18.637c-.46.18-.94.308-1.43.381-1.04 1.038-2.588.776-2.588.776.057.023.112.04.169.06.41.136.832.245 1.266.32.186-.008 1.86-.105 2.584-1.537Zm-.758-.713a4.332 4.332 0 0 1-.102.254c.37-.024.73-.064 1.078-.131a2.07 2.07 0 0 0 .061-.29s.04-.525.459-.929c-1.223.02-1.496 1.096-1.496 1.096Z"/>
    <path fill="#26B478" d="M13.398 18.047a8.677 8.677 0 0 1-1.078.131 2.74 2.74 0 0 1-.57.84 6.59 6.59 0 0 0 1.43-.381 2.88 2.88 0 0 0 .218-.59Z"/>
    <path fill="#2056AE" d="M8.826 11.396h.055c.144 0 .294-.02.294-.226V9.104c0-.204-.15-.225-.294-.225h-.055v-.118c.158 0 .397.015.6.015.216 0 .474-.015.637-.015v.118h-.05c-.12 0-.326.004-.326.225v2.066c0 .222.206.226.327.226h.049v.117c-.163 0-.42-.015-.636-.015-.204 0-.443.015-.601.015v-.117Zm1.618-2.635c.173 0 .341.015.513.015.178 0 .355-.015.535-.015v.118h-.051c-.265 0-.48.178-.644.352l-.632.675 1.026 1.274c.084.117.213.216.364.216v.117c-.13 0-.271-.006-.407-.006-.128 0-.252.006-.38.006a1.905 1.905 0 0 0-.207-.295L9.7 10.153l.838-.922c.051-.052.176-.187.176-.268 0-.08-.171-.084-.224-.084h-.044v-.118Zm3.233 2.063.944-2.063c.12 0 .262.015.407.015.14 0 .284-.015.423-.015v.118h-.036c-.12 0-.363.008-.37.182-.004.103.011.22.018.307l.153 1.807c.016.197.116.214.354.22v.118c-.186-.006-.383-.015-.574-.015-.219 0-.438.009-.658.015v-.117c.208-.013.343-.013.343-.186 0-.046 0-.09-.003-.192l-.113-1.665h-.007l-1.018 2.221h-.097l-.966-2.179h-.008l-.134 1.733c0 .126.03.188.083.223.059.038.143.04.254.045h.049v.117c-.18-.006-.363-.015-.543-.015-.156 0-.317.009-.47.015v-.117h.055c.318-.013.327-.147.364-.43l.12-1.097c.03-.28.047-.537.047-.693 0-.222-.17-.297-.348-.297h-.052v-.118c.164 0 .323.015.489.015.12 0 .238-.015.358-.015l.936 2.063Zm2.277-1.657c0-.284-.146-.288-.306-.288h-.046v-.118c.17 0 .382.015.634.015.24 0 .438-.015.598-.015v.118h-.048c-.16 0-.32.004-.32.288v1.361c0 .501.19.848.76.848.525 0 .76-.331.76-.863V9.167c0-.284-.154-.288-.29-.288h-.08v-.118c.16 0 .325.015.484.015.156 0 .307-.015.463-.015v.118h-.085c-.107 0-.254.004-.254.288v1.259c0 .89-.479 1.148-1.073 1.148-.768 0-1.197-.277-1.197-.983V9.167Zm.653 6.831c-.142.568-.506.914-.872 1.046a.293.293 0 0 1-.015.005c.412-.071 1.809-.378 1.786-2.075 0 0-.005-.44-.059-1.153-.683.687-.699 1.609-.84 2.177Z"/>
    <path fill="#26B478" d="M20.212 10.608a2.25 2.25 0 0 1-.07.316 5.714 5.714 0 0 1-.052.172 5.446 5.446 0 0 1-.111.29c-.297.71-.8 1.556-1.741 1.906a2.194 2.194 0 0 0-.791.529c.054.713.06 1.153.06 1.153.021 1.666-1.326 1.992-1.765 2.07l-.017.004h-.006a.277.277 0 0 0 .02.007c.913.25 2.485.243 3.936-1.901.415-.992.64-2.079.64-3.219a8.76 8.76 0 0 0-.103-1.327Z"/>
  </g>
  <defs>
    <clipPath id="a">
      <path fill="#fff" d="M0 0h24v24H0z"/>
    </clipPath>
  </defs>
</svg>
