<svg xmlns="http://www.w3.org/2000/svg" width="24" height="24" fill="none" viewBox="0 0 24 24">
  <g clip-path="url(#a)">
    <path fill="#981B45" d="M22.095 14.633s-.627.417-1.082 0a9.18 9.18 0 0 0 .325-2.453c0-2.87-1.277-5.411-3.266-7.164.13-.591.822-.679.822-.679 1.557-.043 1.903 2.519 1.903 2.519.281 1.622.54 2.366.54 2.366s.196.745.887 2.256c0 0 1.168 2.301-.13 3.155Zm-2.228 4.228c-1.449.789-2.054 1.293-2.054 1.293s-.628.438-1.795 1.577c0 0-1.773 1.884-2.984.92 0 0-.562-.416-.325-.964l.022-.066c3.633-.306 6.682-2.694 7.958-5.958.606-.088.909.57.909.57.54 1.446-1.73 2.628-1.73 2.628Zm-7.88 2.456c-4.976 0-9.01-4.086-9.01-9.127 0-5.042 4.034-9.129 9.01-9.129C16.965 3.061 21 7.148 21 12.19c0 5.04-4.034 9.127-9.012 9.127Zm-.748 1.312c-1.211.986-3.028-.832-3.028-.832-1.19-1.14-1.838-1.556-1.838-1.556s-.606-.482-2.076-1.226c0 0-2.314-1.118-1.795-2.585 0 0 .217-.68.822-.636l.087.066c1.34 3.242 4.432 5.565 8.065 5.762h.044c.26.547-.281 1.007-.281 1.007Zm-9.342-8.04c-1.297-.876-.108-3.154-.108-3.154.713-1.512.908-2.257.908-2.257s.281-.722.562-2.365c0 0 .368-2.563 1.925-2.497 0 0 .692.021.822.613v.022c-2.054 1.73-3.33 4.315-3.33 7.229 0 .854.064 1.6.28 2.366l-.021.044c-.433.393-1.038 0-1.038 0ZM6.611 3.22c.41-1.511 2.941-1.073 2.941-1.073 1.622.218 2.379.197 2.379.197s.778.021 2.4-.197c0 0 2.509-.438 2.92 1.073 0 0 .203.644-.266.96l.006.004-.043.022c.014-.008.024-.017.037-.026a9.27 9.27 0 0 0-4.99-1.442 9.212 9.212 0 0 0-5.038 1.49l-.044-.022c-.518-.306-.302-.986-.302-.986Zm16.91 5.3a10.264 10.264 0 0 0-2.702-4.402h.022c-.65-.613-1.558-.854-2.444-.57-.087.022-.173.066-.238.088l-.066.066c.023-.088.023-.176.023-.24 0-.943-.52-1.753-1.255-2.17l-.043-.022A10.09 10.09 0 0 0 11.931 0 9.976 9.976 0 0 0 7 1.292h-.043a2.494 2.494 0 0 0-1.255 2.17l-.021.108h-.022a2.424 2.424 0 0 0-2.422.548l-.021.022C2.005 5.28 1.076 6.747.513 8.456c-.562 1.752-.65 3.526-.324 5.169v.022c.15.854.757 1.578 1.643 1.884l.26.067-.152.152c-.54.745-.562 1.71-.195 2.497l.022.023a10.184 10.184 0 0 0 3.287 3.877c1.492 1.051 3.135 1.665 4.779 1.84a2.49 2.49 0 0 0 2.27-1.03c.023-.043.023-.065.066-.109l.043.132a2.413 2.413 0 0 0 2.27.964h.044a10.015 10.015 0 0 0 4.671-1.928 10.047 10.047 0 0 0 3.222-4.031l.022.022a2.537 2.537 0 0 0-.258-2.494 2.484 2.484 0 0 0 1.62-1.844v-.044c.325-1.62.26-3.396-.281-5.104Z"/>
    <path fill="#981B45" d="M8.506 18.331v-.366h-.969v1.384h.96v-.367h-.603v-.65h.612Zm.923-.345v.489h-.473v.366h.473v.485h.361v-1.34h-.36Zm2.185 1.334h-.328v-.988h-.966v-.339h1.294v1.327Zm2.06-.163-.266.208-.486-.797-.486.797-.263-.208.751-1.177.75 1.177Zm.807-1.162v.499h-.532v.366h.532v.458h.362v-1.323h-.362Zm1.215.662c0-.164.132-.298.294-.298.161 0 .293.134.293.297a.296.296 0 0 1-.293.297.295.295 0 0 1-.294-.296Zm-.361 0a.66.66 0 0 0 .655.663.66.66 0 0 0 .654-.663.66.66 0 0 0-.654-.663.66.66 0 0 0-.655.663ZM11.426 7.199v.248h1.147v-.248h-1.147ZM6.6 12.568h-.402v1.053h.401v-1.053Zm1.63 0h-.401v1.053h.4v-1.053ZM7.036 7.573h.356v-.249h-.356v.249Zm10.766 4.995h-.4v1.053h.4v-1.053Zm-1.631 0h-.401v1.053h.401v-1.053Zm.437-4.995h.356v-.249h-.356v.249Z"/>
    <path fill="#981B45" d="M18.32 11.112h-.518v-.421h-.4v.42h-1.23v-.42h-.402v.42h-.518v-.884h3.068v.885Zm0 .632h-3.068v-.437h3.068v.437Zm0 2.393a1.07 1.07 0 0 0-.718-.246c-.448 0-.698.207-.816.343-.117-.136-.367-.343-.815-.343-.349 0-.579.126-.719.247v-2.2h3.068v2.2Zm0 2.634h-.626v-2.276h.626v2.276Zm-1.328-2.472a.884.884 0 0 1 .61-.213.88.88 0 0 1 .608.213h-1.218Zm.51 2.472h-.62v-2.276h.62v2.276Zm-.812 0h-.62v-2.276h.62v2.276Zm-1.328-2.472c.11-.099.303-.213.609-.213s.499.114.61.213h-1.219Zm.516 2.472h-.626v-2.276h.626v2.276Zm-1.6 0v-3.073h-.343v-1.76h.32v1.05a.455.455 0 0 0 .453.445.448.448 0 0 0 .35-.17v3.508h-.78Zm-.536 0h-3.484v-4.832h.382v1.002a.456.456 0 0 0 .45.506c.25 0 .453-.205.453-.458h.005v-1.05h.904v1.05h.005c0 .253.203.458.453.458a.456.456 0 0 0 .45-.506v-1.002h.382v4.832Zm-4.8-3.508a.449.449 0 0 0 .35.17.455.455 0 0 0 .452-.444v-1.05h.32v1.759h-.342v3.073h-.78v-3.508Zm-.194-2.151H8.23v-.421h-.401v.42h-1.23v-.42h-.401v.42H5.68v-.884h3.068v.885Zm0 .656-3.068-.025v-.436h3.068v.461Zm0 2.37a1.067 1.067 0 0 0-.719-.247c-.448 0-.698.207-.815.343-.118-.136-.367-.343-.815-.343a1.07 1.07 0 0 0-.72.246V11.94h3.069v2.199Zm0 2.633h-.626v-2.276h.626v2.276ZM7.42 14.299a.881.881 0 0 1 .609-.213.88.88 0 0 1 .609.213H7.42Zm.51 2.472h-.62v-2.276h.62v2.276Zm-.813 0H6.5v-2.276h.618v2.276ZM5.79 14.299a.881.881 0 0 1 .609-.213.88.88 0 0 1 .608.213H5.79Zm.516 2.472H5.68v-2.276h.626v2.276Zm.701-6.74H5.79a.881.881 0 0 1 .609-.213.88.88 0 0 1 .608.213Zm1.631 0H7.42c.11-.099.303-.213.609-.213s.499.114.609.213Zm.11-1.232v1.07a1.07 1.07 0 0 0-.719-.246c-.448 0-.698.207-.815.343-.118-.136-.367-.343-.815-.343a1.07 1.07 0 0 0-.72.247V8.799h3.069ZM5.68 8.07h3.068v.528H5.68V8.07Zm1.167-1.179h.734l1.022.983H5.825l1.022-.983ZM9.688 8.07v1.58h-.396a.449.449 0 0 0-.35.17V8.07h.746Zm1.003-2.539h2.618l1.659 2.343h-.705l-1.306-1.723h-1.914L9.737 7.875h-.704l1.659-2.343Zm4.368 4.289a.448.448 0 0 0-.351-.17h-.396V8.07h.747v1.75Zm-1.699.644h.759v1.27h-.759v-1.27Zm-2.72 1.27h-.759v-1.27h.76v1.27Zm.354-2.084H9.88V8.07h1.113v1.58Zm0-1.776H9.98l1.014-1.337v1.337ZM12 8.071h.813v1.58h-.36v-.68A.455.455 0 0 0 12 8.513a.455.455 0 0 0-.452.458v.68h-.361v-1.58H12Zm.813-.196h-1.626V6.347h1.626v1.528ZM12 11.735h-.452v-1.27h.904v1.27H12Zm1.006-3.86V6.538c.26.341.792 1.045 1.013 1.337h-1.013Zm1.113 1.776h-1.112v-1.58h1.112v1.58Zm2.461.38h-1.218c.11-.099.303-.213.609-.213s.498.114.61.213Zm1.63 0h-1.218a.886.886 0 0 1 .61-.213.88.88 0 0 1 .608.213Zm.11-1.232v1.07a1.07 1.07 0 0 0-.718-.246c-.448 0-.698.207-.816.343-.117-.136-.367-.343-.815-.343a1.07 1.07 0 0 0-.719.247V8.799h3.068Zm-3.068-.728h3.068v.528h-3.068v-.528Zm1.168-1.179h.733l1.022.983h-2.778l1.023-.983Zm.88-.128v-.515h-.377v-.606h-.273v.606h-.37v.509l-1.11 1.067-1.762-2.488v-.309h-.387v-.232h-.575v.232h-.312v-.746h-.268v.746h-.312v-.232h-.575v.232h-.386v.309h-.001L8.83 7.825 7.72 6.758v-.509h-.37v-.606h-.274v.606H6.7v.515L5.487 7.931v9.036h13.027V7.93L17.3 6.764Z"/>
    <path fill="#981B45" d="M12.813 16.228h-1.626v-1.831c.05-.776.777-.75.808-.75l.005-.094.005.095c.03-.002.758-.027.808.755v1.825ZM12 13.452c-.072-.001-.946-.003-1.006.938v2.034h2.012v-2.027c-.06-.947-.934-.946-1.006-.945Z"/>
  </g>
  <defs>
    <clipPath id="a">
      <path fill="#fff" d="M0 0h24v24H0z"/>
    </clipPath>
  </defs>
</svg>
